<?xml version="1.0" encoding="UTF-8" standalone="no"?>
<!-- Created with Inkscape (http://www.inkscape.org/) -->

<svg
   xmlns:dc="http://purl.org/dc/elements/1.1/"
   xmlns:cc="http://creativecommons.org/ns#"
   xmlns:rdf="http://www.w3.org/1999/02/22-rdf-syntax-ns#"
   xmlns:svg="http://www.w3.org/2000/svg"
   xmlns="http://www.w3.org/2000/svg"
   xmlns:sodipodi="http://sodipodi.sourceforge.net/DTD/sodipodi-0.dtd"
   xmlns:inkscape="http://www.inkscape.org/namespaces/inkscape"
   width="35.330212mm"
   height="20.04936mm"
   viewBox="0 0 35.330212 20.04936"
   version="1.1"
   id="svg661"
   inkscape:version="0.92.5 (2060ec1f9f, 2020-04-08)"
   sodipodi:docname="ac.svg">
  <defs
     id="defs655" />
  <sodipodi:namedview
     id="base"
     pagecolor="#ffffff"
     bordercolor="#666666"
     borderopacity="1.0"
     inkscape:pageopacity="0.0"
     inkscape:pageshadow="2"
     inkscape:zoom="0.35"
     inkscape:cx="943.90861"
     inkscape:cy="-7.8257327"
     inkscape:document-units="mm"
     inkscape:current-layer="layer1"
     showgrid="false"
     inkscape:window-width="1366"
     inkscape:window-height="704"
     inkscape:window-x="0"
     inkscape:window-y="0"
     inkscape:window-maximized="1" />
  <metadata
     id="metadata658">
    <rdf:RDF>
      <cc:Work
         rdf:about="">
        <dc:format>image/svg+xml</dc:format>
        <dc:type
           rdf:resource="http://purl.org/dc/dcmitype/StillImage" />
        <dc:title></dc:title>
      </cc:Work>
    </rdf:RDF>
  </metadata>
  <g
     inkscape:label="Layer 1"
     inkscape:groupmode="layer"
     id="layer1"
     transform="translate(177.17106,-126.71341)">
    <g
       transform="matrix(9.9994773e-4,0,0,9.9994773e-4,-182.70884,64.737773)"
       id="Acre">
      <path
         inkscape:connector-curvature="0"
         style="fill:#999999;stroke:#ffffff;stroke-width:282.23678589;stroke-miterlimit:4;stroke-dasharray:none;stroke-opacity:1"
         d="m 6610,62120 c 96.7578,53.365 193.486,106.789 290.2623,160.116 653.9256,289.79 1307.8643,579.551 1961.7819,869.36 728.4026,331.887 1456.8168,663.749 2185.2128,995.652 278.581,139.291 557.162,278.581 835.743,417.872 53.667,21.667 107.333,43.333 161,65 739.667,150 1479.333,300 2219,450 21.43,10.682 42.815,21.474 64.273,32.087 236.209,75.187 472.436,150.321 708.634,225.542 31.698,10.457 63.395,20.914 95.093,31.371 32,0 64,0 96,0 654.187,160.705 1308.368,321.439 1962.56,482.126 98.473,22.174 196.969,44.249 295.428,66.485 416.041,95.892 832.092,191.744 1248.127,287.662 482.056,117.924 964.106,235.878 1446.166,353.784 578.665,117.675 1157.337,235.317 1735.997,353.013 171.763,43.011 343.513,86.071 515.283,129.051 149.813,32.293 299.626,64.586 449.439,96.879 117.754,75.04 235.481,150.126 353.252,225.137 259.513,140.529 519.053,281.009 778.549,421.569 587.564,320.195 1175.142,640.368 1762.698,960.577 321.339,182.323 642.656,364.687 964.008,546.985 186.823,98.685 373.612,197.433 560.455,296.079 402.852,211.966 805.69,423.961 1208.551,635.91 299.91,149.966 599.838,299.896 899.737,449.884 321.583,182.287 643.167,364.573 964.75,546.859 53.415,21.384 106.858,42.708 160.256,64.129 43.184,21.725 86.315,43.562 129.532,65.216 269.354,117.905 538.691,235.849 808.105,353.617 588.4,257.327 1176.813,514.623 1765.205,771.969 385.829,171.247 771.642,342.53 1157.481,513.754 963.985,417.843 1927.961,835.705 2891.951,1253.536 257.156,107.26 514.313,214.519 771.47,321.779 43,32 86,64 129,96 53.333,11 106.667,22 160,33 64.515,32.063 128.989,64.214 193.529,96.223 407.417,171.713 814.851,343.388 1222.258,515.126 289.071,128.217 578.142,256.434 867.213,384.651 -10.667,11 -21.333,22 -32,33 0,21.333 0,42.667 0,64 -10.667,0 -21.333,0 -32,0 10.667,21.333 21.333,42.667 32,64 -10.667,0 -21.333,0 -32,0 0,10.667 0,21.333 0,32 10.667,0 21.333,0 32,0 0,10.667 0,21.333 0,32 -10.667,0 -21.333,0 -32,0 -10.667,21.667 -21.333,43.333 -32,65 -16.814,-16.825 -33.731,-33.548 -50.172,-50.74 -4.61,-4.754 -9.219,-9.507 -13.828,-14.26 0,11 0,22 0,33 0,-11 0,-22 0,-33 -21.667,11 -43.333,22 -65,33 10.667,10.667 21.333,21.333 32,32 -10.667,21.333 -21.333,42.667 -32,64 -10.667,-10.667 -21.333,-21.333 -32,-32 0,21.333 0,42.667 0,64 -32,0 -64,0 -96,0 -32.333,10.667 -64.667,21.333 -97,32 -10.667,10.667 -21.333,21.333 -32,32 -21.333,0 -42.667,0 -64,0 0,11 0,22 0,33 -10.667,10.667 -21.333,21.333 -32,32 -11,0 -22,0 -33,0 -10.667,10.667 -21.333,21.333 -32,32 -10.667,0 -21.333,0 -32,0 0,10.667 0,21.333 0,32 -10.667,0 -21.333,0 -32,0 0,21.333 0,42.667 0,64 -10.667,-10.667 -21.333,-21.333 -32,-32 -21.333,10.667 -42.667,21.333 -64,32 0,11 0,22 0,33 -21.667,10.667 -43.333,21.333 -65,32 0,21.333 0,42.667 0,64 -21.333,0 -42.667,0 -64,0 -10.667,21.333 -21.333,42.667 -32,64 -21.333,0 -42.667,0 -64,0 0,32.333 0,64.667 0,97 -21.667,10.667 -43.333,21.333 -65,32 0,-10.667 0,-21.333 0,-32 -42.667,0 -85.333,0 -128,0 10.667,21.333 21.333,42.667 32,64 0,10.667 0,21.333 0,32 -10.667,-10.667 -21.333,-21.333 -32,-32 -11,21.333 -22,42.667 -33,64 0,-10.667 0,-21.333 0,-32 0,21.667 0,43.333 0,65 -10.667,-11 -21.333,-22 -32,-33 -10.667,11 -21.333,22 -32,33 0,21.333 0,42.667 0,64 -21.333,0 -42.667,0 -64,0 0,10.667 0,21.333 0,32 0,-10.667 0,-21.333 0,-32 -10.667,10.667 -21.333,21.333 -32,32 10.667,10.667 21.333,21.333 32,32 0,10.667 0,21.333 0,32 -21.667,-10.667 -43.333,-21.333 -65,-32 -10.667,10.667 -21.333,21.333 -32,32 0,10.667 0,21.333 0,32 -10.667,0 -21.333,0 -32,0 -10.667,11 -21.333,22 -32,33 -10.667,42.667 -21.333,85.333 -32,128 -10.667,10.667 -21.333,21.333 -32,32 0,-21.333 0,-42.667 0,-64 -10.667,21.333 -21.333,42.667 -32,64 -11,0 -22,0 -33,0 0,-10.667 0,-21.333 0,-32 -10.667,10.667 -21.333,21.333 -32,32 10.667,0 21.333,0 32,0 -10.667,0 -21.333,0 -32,0 -21.333,21.667 -42.667,43.333 -64,65 0,-10.667 0,-21.333 0,-32 0,21.333 0,42.667 0,64 -10.667,10.667 -21.333,21.333 -32,32 21.333,0 42.667,0 64,0 -21.333,21.333 -42.667,42.667 -64,64 0,-10.667 0,-21.333 0,-32 -10.667,10.667 -21.333,21.333 -32,32 0,21.667 0,43.333 0,65 -10.667,10.667 -21.333,21.333 -32,32 0,10.667 0,21.333 0,32 -11,-10.667 -22,-21.333 -33,-32 0,10.667 0,21.333 0,32 -10.667,0 -21.333,0 -32,0 -10.667,10.667 -21.333,21.333 -32,32 -10.667,-10.667 -21.333,-21.333 -32,-32 0,10.667 0,21.333 0,32 -10.667,0 -21.333,0 -32,0 -10.667,10.667 -21.333,21.333 -32,32 10.667,0 21.333,0 32,0 -43,21.667 -86,43.333 -129,65 -10.667,10.667 -21.333,21.333 -32,32 -10.667,0 -21.333,0 -32,0 0,-10.667 0,-21.333 0,-32 -21.667,0 -43.333,0 -65,0 -21.333,10.667 -42.667,21.333 -64,32 -21.333,0 -42.667,0 -64,0 -10.667,10.667 -21.333,21.333 -32,32 0,21.333 0,42.667 0,64 10.667,10.667 21.333,21.333 32,32 -10.667,0 -21.333,0 -32,0 -10.667,10.667 -21.333,21.333 -32,32 -11,0 -22,0 -33,0 -21.333,11 -42.667,22 -64,33 -10.667,10.667 -21.333,21.333 -32,32 -21.333,0 -42.667,0 -64,0 -21.667,-21.667 -43.333,-43.333 -65,-65 -32,0 -64,0 -96,0 -10.667,-10.667 -21.333,-21.333 -32,-32 -21.667,0 -43.333,0 -65,0 -10.667,10.667 -21.333,21.333 -32,32 -32,11 -64,22 -96,33 -10.667,-11 -21.333,-22 -32,-33 -21.667,-10.667 -43.333,-21.333 -65,-32 -10.667,10.667 -21.333,21.333 -32,32 -10.667,-10.667 -21.333,-21.333 -32,-32 0,10.667 0,21.333 0,32 -21.333,-10.667 -42.667,-21.333 -64,-32 -21.667,21.667 -43.333,43.333 -65,65 21.667,21.333 43.333,42.667 65,64 -10.667,21.333 -21.333,42.667 -32,64 10.667,21.667 21.333,43.333 32,65 0,10.667 0,21.333 0,32 -10.667,0 -21.333,0 -32,0 -11,10.667 -22,21.333 -33,32 -21.333,-10.667 -42.667,-21.333 -64,-32 -21.333,0 -42.667,0 -64,0 0,21.333 0,42.667 0,64 -21.333,-21.333 -42.667,-42.667 -64,-64 -21.667,10.667 -43.333,21.333 -65,32 -21.333,-10.667 -42.667,-21.333 -64,-32 -10.667,-10.667 -21.333,-21.333 -32,-32 -10.667,0 -21.333,0 -32,0 -21.667,32 -43.333,64 -65,96 11,21.333 22,42.667 33,64 0,43 0,86 0,129 -21.667,0 -43.333,0 -65,0 -10.667,10.667 -21.333,21.333 -32,32 0,21.333 0,42.667 0,64 -10.667,11 -21.333,22 -32,33 -43,10.667 -86,21.333 -129,32 -10.667,10.667 -21.333,21.333 -32,32 -21.333,10.667 -42.667,21.333 -64,32 -21.667,-10.667 -43.333,-21.333 -65,-32 -21.333,10.667 -42.667,21.333 -64,32 0,21.333 0,42.667 0,64 -42.667,0 -85.333,0 -128,0 -21.762,10.687 -43.486,21.462 -65.271,32.093 -31.91,10.969 -63.819,21.938 -95.729,32.907 -10.698,10.763 -21.541,21.412 -32.149,32.245 -32.283,53.252 -64.567,106.503 -96.851,159.755 -10.667,32.333 -21.333,64.667 -32,97 -32,32 -64,64 -96,96 -11,21.667 -22,43.333 -33,65 -32,32 -64,64 -96,96 -32.333,-21.333 -64.667,-42.667 -97,-64 -42.667,182 -85.333,364 -128,546 -10.667,-10.667 -21.333,-21.333 -32,-32 -10.667,10.667 -21.333,21.333 -32,32 -11,-10.667 -22,-21.333 -33,-32 0,10.667 0,21.333 0,32 -10.667,0 -21.333,0 -32,0 0,-10.667 0,-21.333 0,-32 -10.667,10.667 -21.333,21.333 -32,32 0,-10.667 0,-21.333 0,-32 -10.667,-21.333 -21.333,-42.667 -32,-64 -10.667,0 -21.333,0 -32,0 -10.667,-10.667 -21.333,-21.333 -32,-32 -21.667,0 -43.333,0 -65,0 0,-10.667 0,-21.333 0,-32 -21.333,0 -42.667,0 -64,0 0,-10.667 0,-21.333 0,-32 -10.667,10.667 -21.333,21.333 -32,32 0,-21.667 0,-43.333 0,-65 -21.333,0 -42.667,0 -64,0 0,-10.667 0,-21.333 0,-32 -11,10.667 -22,21.333 -33,32 0,-10.667 0,-21.333 0,-32 -10.667,-10.667 -21.333,-21.333 -32,-32 -21.333,-10.667 -42.667,-21.333 -64,-32 -10.667,10.667 -21.333,21.333 -32,32 -10.667,-10.667 -21.333,-21.333 -32,-32 -11,0 -22,0 -33,0 -10.667,-10.667 -21.333,-21.333 -32,-32 -42.667,0 -85.333,0 -128,0 -10.667,10.667 -21.333,21.333 -32,32 0,-10.667 0,-21.333 0,-32 -21.667,0 -43.333,0 -65,0 -10.667,21.333 -21.333,42.667 -32,64 -10.667,-10.667 -21.333,-21.333 -32,-32 -10.667,10.667 -21.333,21.333 -32,32 -21.333,0 -42.667,0 -64,0 0,-10.667 0,-21.333 0,-32 0,10.667 0,21.333 0,32 -21.667,-10.667 -43.333,-21.333 -65,-32 -32,21.333 -64,42.667 -96,64 -36.085,-17.75 -72.184,-35.472 -108.105,-53.552 -6.965,-3.483 -13.93,-6.965 -20.895,-10.448 0,10.667 0,21.333 0,32 -10.667,-10.667 -21.333,-21.333 -32,-32 0,10.667 0,21.333 0,32 -10.667,-10.667 -21.333,-21.333 -32,-32 -10.667,10.667 -21.333,21.333 -32,32 -11,0 -22,0 -33,0 0,21.333 0,42.667 0,64 -32,0 -64,0 -96,0 -21.333,11 -42.667,22 -64,33 0,21.333 0,42.667 0,64 -10.667,-10.667 -21.333,-21.333 -32,-32 -11,21.333 -22,42.667 -33,64 -21.333,21.333 -42.667,42.667 -64,64 -10.667,0 -21.333,0 -32,0 -10.667,21.667 -21.333,43.333 -32,65 0,32 0,64 0,96 10.667,0 21.333,0 32,0 10.667,10.667 21.333,21.333 32,32 -10.667,10.667 -21.333,21.333 -32,32 0,11 0,22 0,33 -10.667,10.667 -21.333,21.333 -32,32 10.667,10.667 21.333,21.333 32,32 -10.667,10.667 -21.333,21.333 -32,32 -21.333,10.667 -42.667,21.333 -64,32 -11,21.667 -22,43.333 -33,65 -21.333,10.667 -42.667,21.333 -64,32 0,10.667 0,21.333 0,32 -21.333,10.667 -42.667,21.333 -64,32 -21.667,32 -43.333,64 -65,96 -10.667,0 -21.333,0 -32,0 -10.667,32.333 -21.333,64.667 -32,97 -21.333,0 -42.667,0 -64,0 -10.667,32 -21.333,64 -32,96 -10.667,0 -21.333,0 -32,0 10.667,10.667 21.333,21.333 32,32 -10.667,32.333 -21.333,64.667 -32,97 -21.667,10.667 -43.333,21.333 -65,32 -10.667,21.333 -21.333,42.667 -32,64 0,32.333 0,64.667 0,97 -10.667,21.333 -21.333,42.667 -32,64 -21.333,10.667 -42.667,21.333 -64,32 -11,11 -22,22 -33,33 -21.333,10.667 -42.667,21.333 -64,32 -10.667,21.333 -21.333,42.667 -32,64 -53.667,0 -107.333,0 -161,0 -10.667,10.667 -21.333,21.333 -32,32 -10.667,21.333 -21.333,42.667 -32,64 -10.667,11 -21.333,22 -32,33 -21.667,-21.667 -43.333,-43.333 -65,-65 -10.667,0 -21.333,0 -32,0 -53.333,21.667 -106.667,43.333 -160,65 -11,21.333 -22,42.667 -33,64 11,10.667 22,21.333 33,32 -17.169,16.667 -34.453,33.217 -51.256,50.256 -4.581,4.581 -9.163,9.163 -13.744,13.744 0,10.667 0,21.333 0,32 -21.333,-21.333 -42.667,-42.667 -64,-64 -10.667,0 -21.333,0 -32,0 -21.667,-21.333 -43.333,-42.667 -65,-64 -21.333,21.333 -42.667,42.667 -64,64 -64.333,10.667 -128.667,21.333 -193,32 -32,21.667 -64,43.333 -96,65 0,21.333 0,42.667 0,64 -21.757,21.373 -43.425,42.855 -65.238,64.161 -31.92,21.613 -63.841,43.226 -95.762,64.839 0,10.667 0,21.333 0,32 -107.517,21.389 -215.05,42.704 -322.556,64.14 -171.148,42.953 -342.296,85.907 -513.444,128.86 10.667,-32.333 21.333,-64.667 32,-97 -21.333,-21.333 -42.667,-42.667 -64,-64 10.667,-21.333 21.333,-42.667 32,-64 -21.333,-11 -42.667,-22 -64,-33 -21.667,0 -43.333,0 -65,0 -21.333,-21.333 -42.667,-42.667 -64,-64 0,-10.667 0,-21.333 0,-32 -10.667,-10.667 -21.333,-21.333 -32,-32 10.667,-21.667 21.333,-43.333 32,-65 -10.667,-10.667 -21.333,-21.333 -32,-32 10.667,-21.333 21.333,-42.667 32,-64 10.667,0 21.333,0 32,0 0,-21.333 0,-42.667 0,-64 10.667,-21.667 21.333,-43.333 32,-65 -10.667,0 -21.333,0 -32,0 -10.667,11 -21.333,22 -32,33 -10.667,-11 -21.333,-22 -32,-33 10.667,0 21.333,0 32,0 0,-10.667 0,-21.333 0,-32 -21.333,10.667 -42.667,21.333 -64,32 -10.667,-10.667 -21.333,-21.333 -32,-32 0,-10.667 0,-21.333 0,-32 -10.667,10.667 -21.333,21.333 -32,32 0,21.667 0,43.333 0,65 0,-21.667 0,-43.333 0,-65 -21.667,-10.667 -43.333,-21.333 -65,-32 10.667,-10.667 21.333,-21.333 32,-32 -10.667,0 -21.333,0 -32,0 0,10.667 0,21.333 0,32 -21.333,0 -42.667,0 -64,0 10.667,10.667 21.333,21.333 32,32 -21.333,0 -42.667,0 -64,0 -10.667,10.667 -21.333,21.333 -32,32 -11,-10.667 -22,-21.333 -33,-32 11,-10.667 22,-21.333 33,-32 -11,0 -22,0 -33,0 -10.667,10.667 -21.333,21.333 -32,32 -10.667,-10.667 -21.333,-21.333 -32,-32 10.667,0 21.333,0 32,0 -10.667,0 -21.333,0 -32,0 -21.333,10.667 -42.667,21.333 -64,32 0,21.667 0,43.333 0,65 -10.667,0 -21.333,0 -32,0 -11,-11 -22,-22 -33,-33 -10.667,0 -21.333,0 -32,0 -10.667,11 -21.333,22 -32,33 10.667,0 21.333,0 32,0 0,-11 0,-22 0,-33 10.667,21.667 21.333,43.333 32,65 -10.667,0 -21.333,0 -32,0 -10.667,-10.667 -21.333,-21.333 -32,-32 0,-11 0,-22 0,-33 -10.667,0 -21.333,0 -32,0 -21.333,21.667 -42.667,43.333 -64,65 -21.667,-10.667 -43.333,-21.333 -65,-32 -21.333,-21.667 -42.667,-43.333 -64,-65 -21.333,10.667 -42.667,21.333 -64,32 0,-10.667 0,-21.333 0,-32 -10.667,0 -21.333,0 -32,0 10.667,-21.333 21.333,-42.667 32,-64 -32.333,0 -64.667,0 -97,0 -21.333,10.667 -42.667,21.333 -64,32 -10.667,0 -21.333,0 -32,0 10.667,21.333 21.333,42.667 32,64 -21.333,0 -42.667,0 -64,0 0,-10.667 0,-21.333 0,-32 -10.667,10.667 -21.333,21.333 -32,32 -11,-10.667 -22,-21.333 -33,-32 -10.667,0 -21.333,0 -32,0 10.667,-10.667 21.333,-21.333 32,-32 0,-10.667 0,-21.333 0,-32 -21.333,0 -42.667,0 -64,0 0,-10.667 0,-21.333 0,-32 -10.667,0 -21.333,0 -32,0 -10.667,-10.667 -21.333,-21.333 -32,-32 -10.667,10.667 -21.333,21.333 -32,32 -11,-10.667 -22,-21.333 -33,-32 -21.333,10.667 -42.667,21.333 -64,32 -10.667,-32.333 -21.333,-64.667 -32,-97 -10.667,21.667 -21.333,43.333 -32,65 -10.667,-10.667 -21.333,-21.333 -32,-32 -21.667,10.667 -43.333,21.333 -65,32 -21.333,-10.667 -42.667,-21.333 -64,-32 -10.667,21.333 -21.333,42.667 -32,64 -10.667,-21.333 -21.333,-42.667 -32,-64 -21.333,0 -42.667,0 -64,0 0,-11 0,-22 0,-33 -11,11 -22,22 -33,33 -10.667,0 -21.333,0 -32,0 10.667,-11 21.333,-22 32,-33 -10.667,0 -21.333,0 -32,0 0,-10.667 0,-21.333 0,-32 -21.333,10.667 -42.667,21.333 -64,32 -21.333,-10.667 -42.667,-21.333 -64,-32 -11,-10.667 -22,-21.333 -33,-32 -21.333,0 -42.667,0 -64,0 -21.333,10.667 -42.667,21.333 -64,32 -21.839,-21.943 -43.829,-43.733 -65.932,-65.41 -10.356,-10.196 -20.712,-20.393 -31.068,-30.59 -10.667,21.333 -21.333,42.667 -32,64 -21.333,-10.667 -42.667,-21.333 -64,-32 10.667,0 21.333,0 32,0 0,-10.667 0,-21.333 0,-32 -32,10.667 -64,21.333 -96,32 -11,10.667 -22,21.333 -33,32 11,0 22,0 33,0 -11,10.667 -22,21.333 -33,32 -10.667,-21.333 -21.333,-42.667 -32,-64 -10.667,0 -21.333,0 -32,0 0,10.667 0,21.333 0,32 -10.667,-10.667 -21.333,-21.333 -32,-32 -10.667,10.667 -21.333,21.333 -32,32 -32.333,-10.667 -64.667,-21.333 -97,-32 0,-10.667 0,-21.333 0,-32 -10.667,21.333 -21.333,42.667 -32,64 -10.667,0 -21.333,0 -32,0 0,-10.667 0,-21.333 0,-32 -10.667,10.667 -21.333,21.333 -32,32 -10.667,0 -21.333,0 -32,0 10.667,-21.333 21.333,-42.667 32,-64 -21.333,0 -42.667,0 -64,0 0,10.667 0,21.333 0,32 -21.667,-10.667 -43.333,-21.333 -65,-32 -10.667,21.333 -21.333,42.667 -32,64 0,-10.667 0,-21.333 0,-32 -10.667,0 -21.333,0 -32,0 -10.667,-21.333 -21.333,-42.667 -32,-64 -10.667,10.667 -21.333,21.333 -32,32 10.667,10.667 21.333,21.333 32,32 -10.667,0 -21.333,0 -32,0 -11,-21.333 -22,-42.667 -33,-64 -10.667,10.667 -21.333,21.333 -32,32 -10.667,-21.667 -21.333,-43.333 -32,-65 -10.667,0 -21.333,0 -32,0 -10.667,21.667 -21.333,43.333 -32,65 -32.333,0 -64.667,0 -97,0 0,21.333 0,42.667 0,64 -10.667,-10.667 -21.333,-21.333 -32,-32 0,10.667 0,21.333 0,32 -10.667,0 -21.333,0 -32,0 -10.667,-10.667 -21.333,-21.333 -32,-32 -10.667,10.667 -21.333,21.333 -32,32 0,10.667 0,21.333 0,32 -10.667,-10.667 -21.333,-21.333 -32,-32 -21.667,0 -43.333,0 -65,0 0,-21.333 0,-42.667 0,-64 -10.667,10.667 -21.333,21.333 -32,32 -21.333,-10.667 -42.667,-21.333 -64,-32 -32,0 -64,0 -96,0 0,21.333 0,42.667 0,64 -21.667,0 -43.333,0 -65,0 0,-10.667 0,-21.333 0,-32 -53.667,-10.667 -107.333,-21.333 -161,-32 0,21.333 0,42.667 0,64 -21.333,-10.667 -42.667,-21.333 -64,-32 -21.333,0 -42.667,0 -64,0 0,21.333 0,42.667 0,64 -10.667,-10.667 -21.333,-21.333 -32,-32 -21.667,10.667 -43.333,21.333 -65,32 -42.667,-10.667 -85.333,-21.333 -128,-32 -10.667,21.333 -21.333,42.667 -32,64 -11,-10.667 -22,-21.333 -33,-32 -21.333,10.667 -42.667,21.333 -64,32 -10.667,11 -21.333,22 -32,33 -10.667,-11 -21.333,-22 -32,-33 -21.333,21.667 -42.667,43.333 -64,65 -11,-21.667 -22,-43.333 -33,-65 -21.333,21.667 -42.667,43.333 -64,65 -10.667,-10.667 -21.333,-21.333 -32,-32 10.667,-11 21.333,-22 32,-33 -10.667,0 -21.333,0 -32,0 -21.333,-42.667 -42.667,-85.333 -64,-128 -11,0 -22,0 -33,0 0,10.667 0,21.333 0,32 -10.667,-10.667 -21.333,-21.333 -32,-32 0,-10.667 0,-21.333 0,-32 -21.333,10.667 -42.667,21.333 -64,32 -10.667,-10.667 -21.333,-21.333 -32,-32 -10.667,0 -21.333,0 -32,0 0,-11 0,-22 0,-33 -21.667,0 -43.333,0 -65,0 0,11 0,22 0,33 -42.667,0 -85.333,0 -128,0 -21.667,-11 -43.333,-22 -65,-33 -10.667,11 -21.333,22 -32,33 -10.667,-11 -21.333,-22 -32,-33 -10.667,11 -21.333,22 -32,33 -10.667,-11 -21.333,-22 -32,-33 -32.333,-10.667 -64.667,-21.333 -97,-32 -21.333,10.667 -42.667,21.333 -64,32 -10.667,11 -21.333,22 -32,33 -10.667,-11 -21.333,-22 -32,-33 -43,0 -86,0 -129,0 0,21.667 0,43.333 0,65 -21.333,0 -42.667,0 -64,0 -10.667,21.333 -21.333,42.667 -32,64 -11,-10.667 -22,-21.333 -33,-32 -10.667,21.333 -21.333,42.667 -32,64 -10.667,-10.667 -21.333,-21.333 -32,-32 -10.667,21.333 -21.333,42.667 -32,64 0,-10.667 0,-21.333 0,-32 -16.814,16.825 -33.731,33.548 -50.172,50.74 -4.61,4.754 -9.219,9.507 -13.828,14.26 -21.667,0 -43.333,0 -65,0 0,10.667 0,21.333 0,32 -10.667,-10.667 -21.333,-21.333 -32,-32 0,10.667 0,21.333 0,32 -21.333,0 -42.667,0 -64,0 10.667,10.667 21.333,21.333 32,32 -10.667,-10.667 -21.333,-21.333 -32,-32 -10.667,10.667 -21.333,21.333 -32,32 -10.667,0 -21.333,0 -32,0 0,10.667 0,21.333 0,32 -32.333,0 -64.667,0 -97,0 0,-10.667 0,-21.333 0,-32 -10.667,10.667 -21.333,21.333 -32,32 0,-10.667 0,-21.333 0,-32 -10.667,21.333 -21.333,42.667 -32,64 -10.667,0 -21.333,0 -32,0 10.667,-10.667 21.333,-21.333 32,-32 -21.333,10.667 -42.667,21.333 -64,32 0,21.333 0,42.667 0,64 0,-10.667 0,-21.333 0,-32 -11,0 -22,0 -33,0 0,10.667 0,21.333 0,32 -10.667,0 -21.333,0 -32,0 -10.667,21.667 -21.333,43.333 -32,65 -10.667,0 -21.333,0 -32,0 -10.667,10.667 -21.333,21.333 -32,32 -21.333,10.667 -42.667,21.333 -64,32 0,10.667 0,21.333 0,32 -11,-10.667 -22,-21.333 -33,-32 0,10.667 0,21.333 0,32 -10.667,0 -21.333,0 -32,0 -10.667,-10.667 -21.333,-21.333 -32,-32 0,10.667 0,21.333 0,32 -21.333,0 -42.667,0 -64,0 0,10.667 0,21.333 0,32 -10.667,10.667 -21.333,21.333 -32,32 -21.667,-10.667 -43.333,-21.333 -65,-32 -32,0 -64,0 -96,0 -10.667,-10.667 -21.333,-21.333 -32,-32 -32.333,10.667 -64.667,21.333 -97,32 -10.667,0 -21.333,0 -32,0 -10.667,21.667 -21.333,43.333 -32,65 -10.667,-11 -21.333,-22 -32,-33 -10.667,0 -21.333,0 -32,0 -11,11 -22,22 -33,33 -32,10.667 -64,21.333 -96,32 -21.333,-10.667 -42.667,-21.333 -64,-32 -21.667,10.667 -43.333,21.333 -65,32 -16.814,-16.825 -33.731,-33.548 -50.172,-50.74 -4.61,-4.754 -9.219,-9.507 -13.828,-14.26 -32,11 -64,22 -96,33 -11,-11 -22,-22 -33,-33 0,-10.667 0,-21.333 0,-32 -10.667,0 -21.333,0 -32,0 -21.333,-10.667 -42.667,-21.333 -64,-32 -10.667,10.667 -21.333,21.333 -32,32 0,-10.667 0,-21.333 0,-32 -21.333,-10.667 -42.667,-21.333 -64,-32 -11,10.667 -22,21.333 -33,32 -10.667,-10.667 -21.333,-21.333 -32,-32 -10.667,0 -21.333,0 -32,0 10.667,-10.667 21.333,-21.333 32,-32 -21.333,-43 -42.667,-86 -64,-129 -32.333,-21.333 -64.667,-42.667 -97,-64 -10.667,-32 -21.333,-64 -32,-96 -21.333,-11 -42.667,-22 -64,-33 -10.667,0 -21.333,0 -32,0 -10.667,-21.333 -21.333,-42.667 -32,-64 -21.667,0 -43.333,0 -65,0 0,-10.667 0,-21.333 0,-32 -21.333,-10.667 -42.667,-21.333 -64,-32 -139.333,96.333 -278.667,192.667 -418,289 -10.662,-461.191 -21.36,-922.382 -32,-1383.574 0,-1039.142 0,-2078.284 0,-3117.426 10.661,-182.429 21.367,-364.857 32,-547.287 0,-235.571 0,-471.142 0,-706.713 10.667,-32.333 21.333,-64.667 32,-97 21.667,0 43.333,0 65,0 10.667,10.667 21.333,21.333 32,32 10.667,-32 21.333,-64 32,-96 10.667,-10.667 21.333,-21.333 32,-32 32,10.667 64,21.333 96,32 21.667,-10.667 43.333,-21.333 65,-32 10.667,-21.667 21.333,-43.333 32,-65 0,-32 0,-64 0,-96 10.667,0 21.333,0 32,0 0,-21.333 0,-42.667 0,-64 10.667,-10.667 21.333,-21.333 32,-32 -10.667,-11 -21.333,-22 -32,-33 10.667,-10.667 21.333,-21.333 32,-32 -10.667,0 -21.333,0 -32,0 -21.333,-53.667 -42.667,-107.333 -64,-161 -10.667,0 -21.333,0 -32,0 0,-21.333 0,-42.667 0,-64 -21.667,0 -43.333,0 -65,0 -21.333,-21.333 -42.667,-42.667 -64,-64 10.667,-10.667 21.333,-21.333 32,-32 -21.333,-10.667 -42.667,-21.333 -64,-32 -21.333,-53.667 -42.667,-107.333 -64,-161 10.667,-10.667 21.333,-21.333 32,-32 10.667,-21.667 21.333,-43.333 32,-65 -10.667,0 -21.333,0 -32,0 10.667,-10.667 21.333,-21.333 32,-32 0,-21.333 0,-42.667 0,-64 -21.333,-10.667 -42.667,-21.333 -64,-32 0,-10.667 0,-21.333 0,-32 21.333,-11 42.667,-22 64,-33 -10.667,32.333 -21.333,64.667 -32,97 10.667,0 21.333,0 32,0 10.667,-10.667 21.333,-21.333 32,-32 21.333,21.333 42.667,42.667 64,64 10.667,0 21.333,0 32,0 11,-10.667 22,-21.333 33,-32 -11,-21.333 -22,-42.667 -33,-64 -21.333,0 -42.667,0 -64,0 0,-11 0,-22 0,-33 10.667,-10.667 21.333,-21.333 32,-32 -10.667,-21.333 -21.333,-42.667 -32,-64 10.667,0 21.333,0 32,0 10.667,10.667 21.333,21.333 32,32 32.333,0 64.667,0 97,0 0,-10.667 0,-21.333 0,-32 -10.667,0 -21.333,0 -32,0 0,-32.333 0,-64.667 0,-97 21.333,11 42.667,22 64,33 0,-21.667 0,-43.333 0,-65 10.667,0 21.333,0 32,0 21.667,-21.333 43.333,-42.667 65,-64 10.667,21.333 21.333,42.667 32,64 0,-10.667 0,-21.333 0,-32 -21.698,-32.092 -43.486,-64.132 -65.127,-96.257 -10.624,-21.581 -21.249,-43.162 -31.873,-64.743 10.667,-10.667 21.333,-21.333 32,-32 11,10.667 22,21.333 33,32 10.667,0 21.333,0 32,0 -10.667,-32 -21.333,-64 -32,-96 21.333,0 42.667,0 64,0 10.667,-32.333 21.333,-64.667 32,-97 -10.667,11 -21.333,22 -32,33 -10.667,-11 -21.333,-22 -32,-33 -21.667,11 -43.333,22 -65,33 0,10.667 0,21.333 0,32 -10.667,0 -21.333,0 -32,0 0,-10.667 0,-21.333 0,-32 -21.333,10.667 -42.667,21.333 -64,32 0,-10.667 0,-21.333 0,-32 -10.667,-11 -21.333,-22 -32,-33 -10.667,21.667 -21.333,43.333 -32,65 -11,0 -22,0 -33,0 0,-10.667 0,-21.333 0,-32 -21.333,0 -42.667,0 -64,0 0,10.667 0,21.333 0,32 -21.333,10.667 -42.667,21.333 -64,32 -10.667,0 -21.333,0 -32,0 -10.667,21.333 -21.333,42.667 -32,64 -21.667,0 -43.333,0 -65,0 0,32.333 0,64.667 0,97 -10.667,-10.667 -21.333,-21.333 -32,-32 -21.333,21.333 -42.667,42.667 -64,64 0,32 0,64 0,96 -21.667,-10.667 -43.333,-21.333 -65,-32 11,10.667 22,21.333 33,32 -21.667,0 -43.333,0 -65,0 0,21.667 0,43.333 0,65 0,-11 0,-22 0,-33 -10.667,11 -21.333,22 -32,33 10.667,0 21.333,0 32,0 -10.667,0 -21.333,0 -32,0 0,10.667 0,21.333 0,32 -10.667,-10.667 -21.333,-21.333 -32,-32 -10.667,21.333 -21.333,42.667 -32,64 -10.667,0 -21.333,0 -32,0 0,10.667 0,21.333 0,32 -10.667,-10.667 -21.333,-21.333 -32,-32 -21.667,21.333 -43.333,42.667 -65,64 -10.667,0 -21.333,0 -32,0 -16.814,16.825 -33.731,33.548 -50.172,50.74 -4.61,4.754 -9.219,9.507 -13.828,14.26 -10.667,0 -21.333,0 -32,0 10.667,0 21.333,0 32,0 0,10.667 0,21.333 0,32 -10.667,10.667 -21.333,21.333 -32,32 -21.667,-21.333 -43.333,-42.667 -65,-64 -21.333,21.333 -42.667,42.667 -64,64 10.667,0 21.333,0 32,0 -10.667,10.667 -21.333,21.333 -32,32 0,10.667 0,21.333 0,32 -10.667,-10.667 -21.333,-21.333 -32,-32 10.667,10.667 21.333,21.333 32,32 -10.667,0 -21.333,0 -32,0 10.667,10.667 21.333,21.333 32,32 0,21.667 0,43.333 0,65 -21.333,0 -42.667,0 -64,0 0,10.667 0,21.333 0,32 -32.333,10.667 -64.667,21.333 -97,32 0,10.667 0,21.333 0,32 10.667,0 21.333,0 32,0 -22.514,22.586 -45.174,45.028 -67.595,67.707 -9.468,9.764 -18.937,19.529 -28.405,29.293 -21.333,0 -42.667,0 -64,0 -11,10.667 -22,21.333 -33,32 -10.667,-10.667 -21.333,-21.333 -32,-32 0,10.667 0,21.333 0,32 -10.667,-10.667 -21.333,-21.333 -32,-32 0,21.333 0,42.667 0,64 -21.333,10.667 -42.667,21.333 -64,32 0,-10.667 0,-21.333 0,-32 -32.333,21.333 -64.667,42.667 -97,64 -21.333,21.333 -42.667,42.667 -64,64 0,11 0,22 0,33 -10.667,0 -21.333,0 -32,0 -10.667,42.667 -21.333,85.333 -32,128 -10.667,0 -21.333,0 -32,0 -10.667,21.667 -21.333,43.333 -32,65 -11,0 -22,0 -33,0 -10.667,21.333 -21.333,42.667 -32,64 -42.667,0 -85.333,0 -128,0 0,10.667 0,21.333 0,32 0,-10.667 0,-21.333 0,-32 -11,21.333 -22,42.667 -33,64 -10.667,-10.667 -21.333,-21.333 -32,-32 0,10.667 0,21.333 0,32 -10.667,10.667 -21.333,21.333 -32,32 -21.333,53.667 -42.667,107.333 -64,161 -10.667,-10.667 -21.333,-21.333 -32,-32 0,53.667 0,107.333 0,161 -43,0 -86,0 -129,0 -21.333,-10.667 -42.667,-21.333 -64,-32 -10.667,10.667 -21.333,21.333 -32,32 -21.667,0 -43.333,0 -65,0 -10.667,10.667 -21.333,21.333 -32,32 -21.333,0 -42.667,0 -64,0 -21.425,21.371 -42.753,42.862 -64.239,64.158 -32.254,21.281 -64.507,42.561 -96.761,63.842 -53.667,21.667 -107.333,43.333 -161,65 -32,21.333 -64,42.667 -96,64 -16.825,16.814 -33.548,33.731 -50.74,50.172 -4.754,4.61 -9.507,9.219 -14.26,13.828 -10.667,43 -21.333,86 -32,129 -10.667,10.667 -21.333,21.333 -32,32 -10.667,21.333 -21.333,42.667 -32,64 -21.333,21.667 -42.667,43.333 -64,65 0,32 0,64 0,96 -32.333,0 -64.667,0 -97,0 -32,-10.667 -64,-21.333 -96,-32 -10.667,0 -21.333,0 -32,0 0,21.333 0,42.667 0,64 -21.667,0 -43.333,0 -65,0 -64,21.667 -128,43.333 -192,65 -11,0 -22,0 -33,0 -32,-32.333 -64,-64.667 -96,-97 -21.667,10.667 -43.333,21.333 -65,32 0,21.667 0,43.333 0,65 -10.667,0 -21.333,0 -32,0 -10.667,-11 -21.333,-22 -32,-33 -21.333,32.333 -42.667,64.667 -64,97 -1297,0 -2594,0 -3891,0 0,-21.333 0,-42.667 0,-64 32.333,-11 64.667,-22 97,-33 10.667,-21.333 21.333,-42.667 32,-64 0,-42.667 0,-85.333 0,-128 -21.333,-11 -42.667,-22 -64,-33 -10.667,-10.667 -21.333,-21.333 -32,-32 10.667,-21.333 21.333,-42.667 32,-64 21.333,-10.667 42.667,-21.333 64,-32 10.667,-32.333 21.333,-64.667 32,-97 21.333,-10.667 42.667,-21.333 64,-32 -32,-32 -64,-64 -96,-96 0,-43 0,-86 0,-129 -10.667,-10.667 -21.333,-21.333 -32,-32 0,-10.667 0,-21.333 0,-32 32,-32.333 64,-64.667 96,-97 21.667,-10.667 43.333,-21.333 65,-32 -86,-42.667 -172,-85.333 -258,-128 -21.333,0 -42.667,0 -64,0 -21.333,-11 -42.667,-22 -64,-33 -10.667,-10.667 -21.333,-21.333 -32,-32 -11,10.667 -22,21.333 -33,32 -21.333,-21.333 -42.667,-42.667 -64,-64 -21.333,0 -42.667,0 -64,0 0.06,-10.752 -0.121,-21.544 0.09,-32.272 10.636,-31.909 21.273,-63.819 31.909,-95.728 0,-21.667 0,-43.333 0,-65 10.667,-32 21.333,-64 32,-96 0,-32.333 0,-64.667 0,-97 10.667,-21.333 21.333,-42.667 32,-64 -21.333,-32 -42.667,-64 -64,-96 10.667,-43 21.333,-86 32,-129 -21.333,0 -42.667,0 -64,0 -32.333,-21.333 -64.667,-42.667 -97,-64 11,-96.667 22,-193.333 33,-290 -21.667,-10.667 -43.333,-21.333 -65,-32 -32,10.667 -64,21.333 -96,32 -21.667,-10.667 -43.333,-21.333 -65,-32 -21.333,10.667 -42.667,21.333 -64,32 -10.667,0 -21.333,0 -32,0 -21.333,-21.333 -42.667,-42.667 -64,-64 0,-10.667 0,-21.333 0,-32 -10.667,0 -21.333,0 -32,0 0,-32.333 0,-64.667 0,-97 -11,0 -22,0 -33,0 -10.667,-10.667 -21.333,-21.333 -32,-32 -10.667,0 -21.333,0 -32,0 -10.667,-10.667 -21.333,-21.333 -32,-32 -10.667,10.667 -21.333,21.333 -32,32 -10.667,0 -21.333,0 -32,0 -11,-10.667 -22,-21.333 -33,-32 -10.667,0 -21.333,0 -32,0 -21.333,-21.333 -42.667,-42.667 -64,-64 -10.667,10.667 -21.333,21.333 -32,32 -43,0 -86,0 -129,0 0,-10.667 0,-21.333 0,-32 0,10.667 0,21.333 0,32 -10.667,0 -21.333,0 -32,0 -10.667,10.667 -21.333,21.333 -32,32 -32.333,-10.667 -64.667,-21.333 -97,-32 0,10.667 0,21.333 0,32 -10.667,-10.667 -21.333,-21.333 -32,-32 -10.757,0.05 -21.536,-0.09 -32.278,0.07 -42.574,10.643 -85.148,21.287 -127.722,31.93 -11,0 -22,0 -33,0 -10.667,-10.667 -21.333,-21.333 -32,-32 10.667,0 21.333,0 32,0 -10.667,0 -21.333,0 -32,0 0,-10.667 0,-21.333 0,-32 -10.667,0 -21.333,0 -32,0 0,-10.667 0,-21.333 0,-32 0,10.667 0,21.333 0,32 -10.667,-10.667 -21.333,-21.333 -32,-32 -21.333,0 -42.667,0 -64,0 0,10.667 0,21.333 0,32 0,-21.667 0,-43.333 0,-65 -11,11 -22,22 -33,33 0,-11 0,-22 0,-33 -10.667,0 -21.333,0 -32,0 -10.667,-10.667 -21.333,-21.333 -32,-32 0,10.667 0,21.333 0,32 -21.333,-10.667 -42.667,-21.333 -64,-32 -21.333,0 -42.667,0 -64,0 -11,-10.667 -22,-21.333 -33,-32 -10.667,10.667 -21.333,21.333 -32,32 0,-10.667 0,-21.333 0,-32 -10.667,0 -21.333,0 -32,0 0,-10.667 0,-21.333 0,-32 -10.667,10.667 -21.333,21.333 -32,32 -10.667,-10.667 -21.333,-21.333 -32,-32 -10.667,10.667 -21.333,21.333 -32,32 -21.667,0 -43.333,0 -65,0 -10.667,-10.667 -21.333,-21.333 -32,-32 0,-10.667 0,-21.333 0,-32 -21.333,10.667 -42.667,21.333 -64,32 0,-10.667 0,-21.333 0,-32 -10.667,0 -21.333,0 -32,0 -10.667,10.667 -21.333,21.333 -32,32 0,-10.667 0,-21.333 0,-32 -11,0 -22,0 -33,0 0,-10.667 0,-21.333 0,-32 0,10.667 0,21.333 0,32 -21.333,-10.667 -42.667,-21.333 -64,-32 -10.667,-11 -21.333,-22 -32,-33 10.667,-10.667 21.333,-21.333 32,-32 0,-10.667 0,-21.333 0,-32 -739.333,0 -1478.667,0 -2218,0 21.3333,-21.333 42.6667,-42.667 64,-64 10.6667,-43 21.3333,-86 32,-129 0,-10.667 0,-21.333 0,-32 21.4294,-10.684 42.8166,-21.47 64.2724,-32.09 32.2425,-10.637 64.4851,-21.273 96.7276,-31.91 10.6667,-21.667 21.3333,-43.333 32,-65 21.3333,-10.667 42.6667,-21.333 64,-32 10.6667,-32 21.3333,-64 32,-96 43,-10.667 86,-21.333 129,-32 0,-10.667 0,-21.333 0,-32 -10.6667,-21.667 -21.3333,-43.333 -32,-65 -10.6667,-10.667 -21.3333,-21.333 -32,-32 32,-10.667 64,-21.333 96,-32 32.3333,-53.667 64.667,-107.333 97,-161 32,-21.333 64,-42.667 96,-64 10.667,21.333 21.333,42.667 32,64 10.667,0 21.333,0 32,0 32.333,-21.333 64.667,-42.667 97,-64 0,-10.667 0,-21.333 0,-32 21.333,-10.667 42.667,-21.333 64,-32 16.667,-17.169 33.217,-34.453 50.256,-51.256 4.581,-4.581 9.163,-9.163 13.744,-13.744 0,-10.667 0,-21.333 0,-32 -32,-10.667 -64,-21.333 -96,-32 -10.667,-10.667 -21.333,-21.333 -32,-32 32.092,-21.698 64.132,-43.485 96.257,-65.127 42.914,-21.291 85.829,-42.582 128.743,-63.873 21.333,-21.333 42.667,-42.667 64,-64 21.333,-53.667 42.667,-107.333 64,-161 0,-42.667 0,-85.333 0,-128 11,-21.667 22,-43.333 33,-65 -11,-21.333 -22,-42.667 -33,-64 0,-43 0,-86 0,-129 -10.667,-21.333 -21.333,-42.667 -32,-64 0,-10.667 0,-21.333 0,-32 10.667,-10.667 21.333,-21.333 32,-32 11,-21.667 22,-43.333 33,-65 -43,-10.667 -86,-21.333 -129,-32 -32,-96.333 -64,-192.667 -96,-289 -32.333,-10.667 -64.667,-21.333 -97,-32 -21.333,0 -42.667,0 -64,0 0,-43 0,-86 0,-129 -10.667,32.333 -21.333,64.667 -32,97 -10.667,10.667 -21.333,21.333 -32,32 -21.667,-21.667 -43.333,-43.333 -65,-65 -10.667,-42.667 -21.333,-85.333 -32,-128 0,-21.667 0,-43.333 0,-65 -10.667,-10.667 -21.333,-21.333 -32,-32 0,-32 0,-64 0,-96 -21.333,0 -42.667,0 -64,0 -21.667,-32.333 -43.333,-64.667 -65,-97 0,-42.667 0,-85.333 0,-128 -32,-32.333 -64,-64.667 -96,-97 -10.6667,-64.333 -21.3333,-128.667 -32,-193 -11,-32 -22,-64 -33,-96 -21.3333,-10.667 -42.6667,-21.333 -64,-32 -21.3333,-32.333 -42.6667,-64.667 -64,-97 -21.3333,0 -42.6667,0 -64,0 -32.3333,-10.667 -64.6667,-21.333 -97,-32 -21.3333,10.667 -42.6667,21.333 -64,32 -21.3333,0 -42.6667,0 -64,0 -11,-10.667 -22,-21.333 -33,-32 -10.6667,0 -21.3333,0 -32,0 -10.6667,-21.333 -21.3333,-42.667 -32,-64 -10.6667,0 -21.3333,0 -32,0 -21.3333,-21.667 -42.6667,-43.333 -64,-65 0,-32 0,-64 0,-96 -10.6667,-10.667 -21.3333,-21.333 -32,-32 -11,10.667 -22,21.333 -33,32 0,-21.333 0,-42.667 0,-64 -10.6667,-10.667 -21.3333,-21.333 -32,-32 -21.3333,10.667 -42.6667,21.333 -64,32 -10.6667,-43 -21.3333,-86 -32,-129 10.6667,-10.667 21.3333,-21.333 32,-32 10.6667,-43 21.3333,-86 32,-129 -21.3333,-85.667 -42.6667,-171.333 -64,-257 -21.6667,-53.667 -43.3333,-107.333 -65,-161 -32,0 -64,0 -96,0 -10.6667,-10.667 -21.3333,-21.333 -32,-32 -21.6667,0 -43.3333,0 -65,0 -32,-10.667 -64,-21.333 -96,-32 -10.6667,10.667 -21.3333,21.333 -32,32 0,-10.667 0,-21.333 0,-32 -21.3333,10.667 -42.6667,21.333 -64,32 -21.6667,-32 -43.3333,-64 -65,-96 -10.6667,-43 -21.3333,-86 -32,-129 -10.6667,-21.333 -21.3333,-42.667 -32,-64 -43,0 -86,0 -129,0 -21.3333,-21.333 -42.6667,-42.667 -64,-64 -43,-11 -86,-22 -129,-33 -10.6667,0 -21.3333,0 -32,0 0,-21.333 0,-42.667 0,-64 -21.3333,0 -42.6667,0 -64,0 -21.3333,-10.667 -42.6667,-21.333 -64,-32 -32.3333,-43 -64.6667,-86 -97,-129 10.6667,-53.333 21.3333,-106.667 32,-160 -21.3333,-21.667 -42.6667,-43.333 -64,-65 10.6667,-42.667 21.3333,-85.333 32,-128 -21.3333,-32.333 -42.6667,-64.667 -64,-97 -10.6667,-10.667 -21.3333,-21.333 -32,-32 0,-10.667 0,-21.333 0,-32 -21.6667,-10.667 -43.3333,-21.333 -65,-32 -10.6667,-32.333 -21.3333,-64.667 -32,-97 -21.3333,-10.667 -42.6667,-21.333 -64,-32 10.6667,-32 21.3333,-64 32,-96 -0.046,-21.757 0.093,-43.536 -0.07,-65.278 -10.6434,-42.574 -21.2869,-85.148 -31.9304,-127.722 10.6667,-32.333 21.3333,-64.667 32,-97 -10.6667,-42.667 -21.3333,-85.333 -32,-128 -21.3735,-21.757 -42.8547,-43.425 -64.1608,-65.238 -21.6131,-31.92 -43.2261,-63.841 -64.8392,-95.762 -21.3333,-10.667 -42.6667,-21.333 -64,-32 10.6667,-32.333 21.3333,-64.667 32,-97 0,-32 0,-64 0,-96 -32,-32.333 -64,-64.667 -96,-97 -32.3333,11 -64.6667,22 -97,33 -21.3333,0 -42.6667,0 -64,0 -10.6667,-53.667 -21.3333,-107.333 -32,-161 -21.6667,-21.667 -43.3333,-43.333 -65,-65 -32,0 -64,0 -96,0 -10.6667,11 -21.3333,22 -32,33 -10.6667,0 -21.3333,0 -32,0 -11.7224,-11.972 -23.2125,-24.177 -35.0891,-35.995 -9.9703,-9.669 -19.9406,-19.337 -29.9109,-29.005 0,-32 0,-64 0,-96 -10.6667,-21.333 -21.3333,-42.667 -32,-64 -32,-32.333 -64,-64.667 -96,-97 10.6667,-10.667 21.3333,-21.333 32,-32 21.3333,0 42.6667,0 64,0 -21.3333,-43 -42.6667,-86 -64,-129 10.6667,-21.333 21.3333,-42.667 32,-64 10.6667,0 21.3333,0 32,0 21.6667,32 43.3333,64 65,96 53.3333,0 106.6667,0 160,0 21.6986,-32.092 43.484,-64.133 65.1283,-96.257 10.6239,-21.247 21.2478,-42.495 31.8717,-63.743 0.037,-32.425 -0.075,-64.865 0.056,-97.281 10.648,-53.573 21.2961,-107.146 31.9441,-160.719 -10.6667,-32 -21.3333,-64 -32,-96 -21.8222,-10.78 -43.7087,-21.444 -65.4906,-32.297 -53.1698,-32.235 -106.3396,-64.469 -159.5094,-96.703 -10.6667,-10.667 -21.3333,-21.333 -32,-32 -75,-21.333 -150,-42.667 -225,-64 -43,0 -86,0 -129,0 -10.7055,-10.758 -21.5261,-21.421 -32.1597,-32.238 -21.6134,-32.254 -43.2269,-64.508 -64.8403,-96.762 -10.6667,-32 -21.3333,-64 -32,-96 -32,0 -64,0 -96,0 -32.3333,-32.333 -64.6667,-64.667 -97,-97 -10.6667,-42.667 -21.3333,-85.333 -32,-128 -32,-10.667 -64,-21.333 -96,-32 -96.6667,-96.667 -193.3333,-193.333 -290,-290 -21.3333,0 -42.6667,0 -64,0 -10.6667,-53.667 -21.3333,-107.333 -32,-161 32,0 64,0 96,0 32.3333,-10.667 64.6667,-21.333 97,-32 32,-53.333 64,-106.667 96,-160 0,-21.667 0,-43.333 0,-65 21.6667,-21.333 43.3333,-42.667 65,-64 -21.6667,-21.333 -43.3333,-42.667 -65,-64 0,-53.667 0,-107.333 0,-161 -21.3333,-21.333 -42.6667,-42.667 -64,-64 -32,-75 -64,-150 -96,-225 0,-21.667 0,-43.333 0,-65 10.6667,-10.667 21.3333,-21.333 32,-32 10.6667,10.667 21.3333,21.333 32,32 10.6667,21.667 21.3333,43.333 32,65 10.6667,-11 21.3333,-22 32,-33 10.6667,0 21.3333,0 32,0 32.3333,32.333 64.6667,64.667 97,97 64.3333,10.667 128.6667,21.333 193,32 10.6838,-21.429 21.4701,-42.817 32.0899,-64.272 10.6367,-32.243 21.2734,-64.485 31.9101,-96.728 43,-21.333 86,-42.667 129,-64 21.3333,0 42.6667,0 64,0 32,10.667 64,21.333 96,32 43,-21.333 86,-42.667 129,-64 10.6667,0 21.3333,0 32,0 0,32 0,64 0,96 10.6667,0 21.3333,0 32,0 53.6667,-32 107.3333,-64 161,-96 32,-43 64,-86 96,-129 0,-10.667 0,-21.333 0,-32 -21.3333,-43 -42.6667,-86 -64,-129 0,-53.333 0,-106.667 0,-160 -21.4259,-21.704 -42.7499,-43.532 -64.2394,-65.158 -32.2536,-21.281 -64.5071,-42.561 -96.7606,-63.842 -10.6667,-10.667 -21.3333,-21.333 -32,-32 -10.6667,-53.667 -21.3333,-107.333 -32,-161 -21.3333,-21.333 -42.6667,-42.667 -64,-64 -10.6667,-21.667 -21.3333,-43.333 -32,-65 -21.6667,-21.333 -43.3333,-42.667 -65,-64 0,-10.667 0,-21.333 0,-32 -10.6667,-21.333 -21.3333,-42.667 -32,-64 z"
         id="path46" />
    </g>
  </g>
</svg>
