<?xml version="1.0" encoding="UTF-8" standalone="no"?>
<!-- Created with Inkscape (http://www.inkscape.org/) -->

<svg
   xmlns:dc="http://purl.org/dc/elements/1.1/"
   xmlns:cc="http://creativecommons.org/ns#"
   xmlns:rdf="http://www.w3.org/1999/02/22-rdf-syntax-ns#"
   xmlns:svg="http://www.w3.org/2000/svg"
   xmlns="http://www.w3.org/2000/svg"
   xmlns:sodipodi="http://sodipodi.sourceforge.net/DTD/sodipodi-0.dtd"
   xmlns:inkscape="http://www.inkscape.org/namespaces/inkscape"
   width="14.879459mm"
   height="8.774868mm"
   viewBox="0 0 14.879459 8.774868"
   version="1.1"
   id="svg391"
   inkscape:version="0.92.5 (2060ec1f9f, 2020-04-08)"
   sodipodi:docname="al.svg">
  <defs
     id="defs385" />
  <sodipodi:namedview
     id="base"
     pagecolor="#ffffff"
     bordercolor="#666666"
     borderopacity="1.0"
     inkscape:pageopacity="0.0"
     inkscape:pageshadow="2"
     inkscape:zoom="0.35"
     inkscape:cx="-757.59562"
     inkscape:cy="25.153858"
     inkscape:document-units="mm"
     inkscape:current-layer="layer1"
     showgrid="false"
     inkscape:window-width="1366"
     inkscape:window-height="704"
     inkscape:window-x="0"
     inkscape:window-y="0"
     inkscape:window-maximized="1" />
  <metadata
     id="metadata388">
    <rdf:RDF>
      <cc:Work
         rdf:about="">
        <dc:format>image/svg+xml</dc:format>
        <dc:type
           rdf:resource="http://purl.org/dc/dcmitype/StillImage" />
        <dc:title></dc:title>
      </cc:Work>
    </rdf:RDF>
  </metadata>
  <g
     inkscape:label="Layer 1"
     inkscape:groupmode="layer"
     id="layer1"
     transform="translate(-273.0186,-146.71376)">
    <g
       transform="matrix(9.9994773e-4,0,0,9.9994773e-4,98.107865,76.611032)"
       id="Alagoas">
      <path
         inkscape:connector-curvature="0"
         style="fill:#999999;stroke:#ffffff;stroke-width:282.23678589;stroke-miterlimit:4;stroke-dasharray:none;stroke-opacity:1"
         d="m 175061,72955 c 53.67,-53.331 107.33,-106.669 161,-160 32.33,-11.001 64.67,-21.999 97,-33 42.67,-42.665 85.33,-85.335 128,-128 0,-32.333 0,-64.667 0,-97 21.33,-42.668 42.67,-85.332 64,-128 64.91,-64.878 129.75,-129.826 194.71,-194.657 10.43,-10.115 20.86,-20.227 31.29,-30.343 42.67,0 85.33,0 128,0 21.33,-11.001 42.67,-21.999 64,-33 32.33,0 64.67,0 97,0 10.67,-21.332 21.33,-42.668 32,-64 53.67,0 107.33,0 161,0 21.33,-10.668 42.67,-21.332 64,-32 10.67,-31.999 21.33,-64.001 32,-96 21.67,-21.665 43.33,-43.335 65,-65 0,-10.667 0,-21.333 0,-32 21.33,-21.335 42.67,-42.665 64,-64 10.67,-21.332 21.33,-42.668 32,-64 43,-43 86,-86 129,-129 10.67,-21.332 21.33,-42.668 32,-64 21.33,-11.001 42.67,-21.999 64,-33 10.67,10.998 21.33,22.002 32,33 10.67,-32.332 21.33,-64.668 32,-97 0,-10.667 0,-21.333 0,-32 21.67,-10.666 43.33,-21.334 65,-32 21.33,-21.668 42.67,-43.332 64,-65 10.67,-21.332 21.33,-42.668 32,-64 10.67,-10.665 21.33,-21.335 32,-32 11,-64.333 22,-128.667 33,-193 -11,-10.667 -22,-21.333 -33,-32 21.67,-21.331 43.33,-42.669 65,-64 0,-21.667 0,-43.333 0,-65 -10.67,-10.665 -21.33,-21.335 -32,-32 32,-21.333 64,-42.667 96,-64 10.67,0 21.33,0 32,0 32.33,-32.335 64.67,-64.665 97,-97 21.33,0 42.67,0 64,0 10.67,-10.665 21.33,-21.335 32,-32 21.33,21.668 42.67,43.332 64,65 0,21.333 0,42.667 0,64 10.67,10.665 21.33,21.335 32,32 11,0 22,0 33,0 0,10.667 0,21.333 0,32 10.67,10.665 21.33,21.335 32,32 10.67,21.665 21.33,43.335 32,65 21.33,21.335 42.67,42.665 64,64 0,10.667 0,21.333 0,32 10.67,21.332 21.33,42.668 32,64 21.67,10.999 43.33,22.001 65,33 0,32 0,64 0,96 -15.27,15.21 -30.37,30.598 -45.93,45.514 -6.36,6.162 -12.72,12.323 -19.07,18.486 0,10.667 0,21.333 0,32 21.67,-10.666 43.33,-21.334 65,-32 0,21.667 0,43.333 0,65 42.67,-21.666 85.33,-43.334 128,-65 0,10.667 0,21.333 0,32 -10.67,10.998 -21.33,22.002 -32,33 10.67,10.665 21.33,21.335 32,32 21.67,10.666 43.33,21.334 65,32 42.67,0 85.33,0 128,0 10.67,-10.665 21.33,-21.335 32,-32 -10.67,-10.665 -21.33,-21.335 -32,-32 10.67,-21.665 21.33,-43.335 32,-65 21.67,-21.331 43.33,-42.669 65,-64 21.33,-10.668 42.67,-21.332 64,-32 32,10.667 64,21.333 96,32 32.33,-32.002 64.67,-63.998 97,-96 21.33,10.668 42.67,21.332 64,32 10.67,0 21.33,0 32,0 21.67,10.666 43.33,21.334 65,32 32,0 64,0 96,0 0,42.667 0,85.333 0,128 -10.67,10.998 -21.33,22.002 -32,33 43,42.667 86,85.333 129,128 53.33,0 106.67,0 160,0 32.33,21.668 64.67,43.332 97,65 21.33,21.335 42.67,42.665 64,64 107.33,43.001 214.67,85.999 322,129 10.67,21.332 21.33,42.668 32,64 21.33,0 42.67,0 64,0 0,21.333 0,42.667 0,64 21.35,21.371 42.74,42.707 64.07,64.097 32.31,42.965 64.62,85.935 96.93,128.903 53.67,53.665 107.33,107.335 161,161 0,21.333 0,42.667 0,64 10.67,21.332 21.33,42.668 32,64 10.67,0 21.33,0 32,0 0,53.667 0,107.333 0,161 32,-32 64,-64 96,-96 21.67,-10.666 43.33,-21.334 65,-32 64.33,42.668 128.67,85.332 193,128 -21.67,21.665 -43.33,43.335 -65,65 0,32 0,64 0,96 10.67,10.665 21.33,21.335 32,32 32.37,-21.348 64.72,-42.73 97.11,-64.054 21.3,-10.647 42.59,-21.298 63.89,-31.946 21.67,-32.332 43.33,-64.668 65,-97 10.67,0 21.33,0 32,0 42.67,21.666 85.33,43.334 128,65 11.02,10.703 22.08,21.368 33.07,32.097 31.98,42.63 63.95,85.27 95.93,127.903 -10.67,32.332 -21.33,64.668 -32,97 10.67,21.332 21.33,42.668 32,64 0,-21.333 0,-42.667 0,-64 10.67,21.332 21.33,42.668 32,64 43,0 86,0 129,0 32,53.667 64,107.333 96,161 43,21.333 86,42.667 129,64 32,32.333 64,64.667 96,97 10.67,0 21.33,0 32,0 11,-11 22,-22 33,-33 10.67,0 21.33,0 32,0 0,-10.667 0,-21.333 0,-32 -10.67,-10.665 -21.33,-21.335 -32,-32 0,-21.333 0,-42.667 0,-64 32,-21.667 64,-43.333 96,-65 0,-10.667 0,-21.333 0,-32 -10.67,-10.665 -21.33,-21.335 -32,-32 21.33,-42.668 42.67,-85.332 64,-128 21.67,-21.665 43.33,-43.335 65,-65 10.67,0 21.33,0 32,0 32,-10.667 64,-21.333 96,-32 -10.67,0 -21.33,0 -32,0 10.67,-10.665 21.33,-21.335 32,-32 32.33,0 64.67,0 97,0 10.67,10.665 21.33,21.335 32,32 10.67,21.332 21.33,42.668 32,64 64.33,0 128.67,0 193,0 64.33,-32.001 128.67,-63.999 193,-96 96.33,10.667 192.67,21.333 289,32 21.33,10.668 42.67,21.332 64,32 32.33,43.002 64.67,85.998 97,129 21.33,10.668 42.67,21.332 64,32 0,-10.667 0,-21.333 0,-32 10.67,10.665 21.33,21.335 32,32 10.67,0 21.33,0 32,0 0,10.667 0,21.333 0,32 11,10.667 22,21.333 33,32 10.67,-10.665 21.33,-21.335 32,-32 0,10.667 0,21.333 0,32 10.67,-10.665 21.33,-21.335 32,-32 0,10.667 0,21.333 0,32 10.67,0 21.33,0 32,0 0,21.667 0,43.333 0,65 21.33,-11.001 42.67,-21.999 64,-33 11,0 22,0 33,0 21.33,-10.668 42.67,-21.332 64,-32 10.67,0 21.33,0 32,0 0,-21.333 0,-42.667 0,-64 -10.67,0 -21.33,0 -32,0 0,-43 0,-86 0,-129 107,-32 214,-64 321,-96 15.46,-15.062 31.11,-29.931 46.28,-45.285 6.24,-6.239 12.48,-12.477 18.72,-18.715 0,-10.667 0,-21.333 0,-32 10.67,-21.665 21.33,-43.335 32,-65 10.67,0 21.33,0 32,0 10.67,10.665 21.33,21.335 32,32 21.33,-21.335 42.67,-42.665 64,-64 11,0 22,0 33,0 0,-10.667 0,-21.333 0,-32 21.33,-10.668 42.67,-21.332 64,-32 0,-10.667 0,-21.333 0,-32 21.33,0 42.67,0 64,0 0,21.333 0,42.667 0,64 10.67,10.665 21.33,21.335 32,32 11,-21.333 22,-42.667 33,-64 10.67,10.665 21.33,21.335 32,32 21.33,0 42.67,0 64,0 21.33,-10.668 42.67,-21.332 64,-32 21.67,10.666 43.33,21.334 65,32 21.33,-21.335 42.67,-42.665 64,-64 -10.67,-10.998 -21.33,-22.002 -32,-33 0,-10.667 0,-21.333 0,-32 21.33,10.668 42.67,21.332 64,32 10.67,0 21.33,0 32,0 10.67,-10.665 21.33,-21.335 32,-32 11,-21.333 22,-42.667 33,-64 21.33,-21.335 42.67,-42.665 64,-64 0,10.667 0,21.333 0,32 10.67,-10.665 21.33,-21.335 32,-32 10.67,10.665 21.33,21.335 32,32 0,-10.667 0,-21.333 0,-32 10.67,0 21.33,0 32,0 21.67,-10.999 43.33,-22.001 65,-33 10.67,10.998 21.33,22.002 32,33 10.67,0 21.33,0 32,0 0,10.667 0,21.333 0,32 10.67,0 21.33,0 32,0 0,-10.667 0,-21.333 0,-32 10.67,10.665 21.33,21.335 32,32 32.33,-10.668 64.67,-21.332 97,-32 0,-11 0,-22 0,-33 -21.67,-10.666 -43.33,-21.334 -65,-32 0,-21.333 0,-42.667 0,-64 -10.67,-10.665 -21.33,-21.335 -32,-32 -21.33,0 -42.67,0 -64,0 0,-32.333 0,-64.667 0,-97 -10.67,-10.665 -21.33,-21.335 -32,-32 0,-21.333 0,-42.667 0,-64 53.67,0 107.33,0 161,0 21.33,-21.335 42.67,-42.665 64,-64 0,-21.667 0,-43.333 0,-65 10.67,0 21.33,0 32,0 10.67,-10.665 21.33,-21.335 32,-32 10.67,-31.999 21.33,-64.001 32,-96 21.67,0 43.33,0 65,0 10.67,-10.665 21.33,-21.335 32,-32 64.33,0 128.67,0 193,0 0,-11 0,-22 0,-33 21.33,-10.668 42.67,-21.332 64,-32 21.33,-21.335 42.67,-42.665 64,-64 0,-10.667 0,-21.333 0,-32 10.67,-10.665 21.33,-21.335 32,-32 -10.67,-21.665 -21.33,-43.335 -32,-65 -21.33,-10.668 -42.67,-21.332 -64,-32 -10.67,-21.332 -21.33,-42.668 -32,-64 10.67,-21.332 21.33,-42.668 32,-64 64.33,-21.668 128.67,-43.332 193,-65 32,-42.667 64,-85.333 96,-128 53.67,-10.666 107.33,-21.334 161,-32 43,10.667 86,21.333 129,32 21.33,-21.668 42.67,-43.332 64,-65 43,0 86,0 129,0 0,-10.667 0,-21.333 0,-32 21.33,-10.668 42.67,-21.332 64,-32 10.67,-10.665 21.33,-21.335 32,-32 32.33,0 64.67,0 97,0 10.67,-21.332 21.33,-42.668 32,-64 0,-11 0,-22 0,-33 21.33,0 42.67,0 64,0 10.67,-10.665 21.33,-21.335 32,-32 10.67,10.665 21.33,21.335 32,32 43,-10.667 86,-21.333 129,-32 21.33,21.668 42.67,43.332 64,65 32.33,0 64.67,0 97,0 10.67,-21.665 21.33,-43.335 32,-65 21.33,10.668 42.67,21.332 64,32 21.33,-21.335 42.67,-42.665 64,-64 11,0 22,0 33,0 10.67,21.332 21.33,42.668 32,64 0,-10.667 0,-21.333 0,-32 0,21.667 0,43.333 0,65 -10.67,21.332 -21.33,42.668 -32,64 10.67,10.665 21.33,21.335 32,32 -10.67,10.665 -21.33,21.335 -32,32 10.67,0 21.33,0 32,0 10.67,10.665 21.33,21.335 32,32 22.25,11.435 44.44,22.995 66.73,34.345 20.76,10.219 41.51,20.436 62.27,30.655 21.33,-10.668 42.67,-21.332 64,-32 21.33,0 42.67,0 64,0 10.67,-10.998 21.33,-22.002 32,-33 21.67,10.999 43.33,22.001 65,33 10.67,-21.665 21.33,-43.335 32,-65 32,0 64,0 96,0 21.67,-21.331 43.33,-42.669 65,-64 32,0 64,0 96,0 17.21,-17.208 34.46,-34.378 51.47,-51.777 14.84,-15.076 29.69,-30.149 44.53,-45.223 32.33,0 64.67,0 97,0 10.67,-21.332 21.33,-42.668 32,-64 10.67,-10.665 21.33,-21.335 32,-32 21.67,0 43.33,0 65,0 10.67,-21.332 21.33,-42.668 32,-64 21.33,0 42.67,0 64,0 15.21,-15.629 30.25,-31.43 45.76,-46.765 6.08,-6.079 12.16,-12.157 18.24,-18.235 0,21.667 0,43.333 0,65 21.67,-21.665 43.33,-43.335 65,-65 21.33,0 42.67,0 64,0 0,10.667 0,21.333 0,32 10.67,-10.665 21.33,-21.335 32,-32 0,10.667 0,21.333 0,32 10.67,10.998 21.33,22.002 32,33 0,-11 0,-22 0,-33 21.67,0 43.33,0 65,0 0,-10.667 0,-21.333 0,-32 32,0 64,0 96,0 -10.67,21.665 -21.33,43.335 -32,65 10.67,0 21.33,0 32,0 0,10.667 0,21.333 0,32 10.67,10.665 21.33,21.335 32,32 32.33,0 64.67,0 97,0 0,-10.667 0,-21.333 0,-32 42.67,0 85.33,0 128,0 10.67,21.332 21.33,42.668 32,64 75.08,21.351 150.16,42.722 225.24,64.059 85.92,21.642 171.84,43.294 257.76,64.941 32,0 64,0 96,0 43,21.333 86,42.667 129,64 21.33,-10.668 42.67,-21.332 64,-32 21.33,10.668 42.67,21.332 64,32 75,0 150,0 225,0 32.33,21.335 64.67,42.665 97,64 0,32.333 0,64.667 0,97 -21.33,21.335 -42.67,42.665 -64,64 -12.3,36.295 -24.77,72.535 -36.95,108.871 -9.35,28.043 -18.7,56.086 -28.05,84.129 -19.94,19.907 -39.85,39.838 -59.62,59.906 -22.8,23.03 -45.59,46.062 -68.38,69.094 -21.67,31.998 -43.33,64.002 -65,96 -10.67,10.665 -21.33,21.335 -32,32 -10.67,32.332 -21.33,64.668 -32,97 0,21.333 0,42.667 0,64 -10.67,10.665 -21.33,21.335 -32,32 10.67,0 21.33,0 32,0 -17.21,17.208 -34.46,34.378 -51.47,51.777 -14.84,15.076 -29.69,30.149 -44.53,45.223 0,21.333 0,42.667 0,64 -21.67,21.331 -43.33,42.669 -65,64 0,10.667 0,21.333 0,32 -21.33,11.001 -42.67,21.999 -64,33 0,32 0,64 0,96 -10.67,10.665 -21.33,21.335 -32,32 -10.67,0 -21.33,0 -32,0 0,43 0,86 0,129 -10.67,21.332 -21.33,42.668 -32,64 -21.67,10.666 -43.33,21.334 -65,32 -10.67,10.665 -21.33,21.335 -32,32 0,11 0,22 0,33 -10.67,21.332 -21.33,42.668 -32,64 -21.33,10.668 -42.67,21.332 -64,32 0,10.667 0,21.333 0,32 -11,32.333 -22,64.667 -33,97 -32,32 -64,64 -96,96 -21.33,10.668 -42.67,21.332 -64,32 -21.67,32.332 -43.33,64.668 -65,97 -21.33,10.668 -42.67,21.332 -64,32 -10.67,10.665 -21.33,21.335 -32,32 10.67,0 21.33,0 32,0 -32,10.667 -64,21.333 -96,32 -11,10.667 -22,21.333 -33,32 0,10.667 0,21.333 0,32 -32,11 -64,22 -96,33 -19.91,19.936 -39.84,39.848 -59.9,59.62 -23.04,22.793 -46.07,45.585 -69.1,68.38 -10.67,21.665 -21.33,43.335 -32,65 -10.67,53.333 -21.33,106.667 -32,160 -21.33,43.001 -42.67,85.999 -64,129 -21.67,0 -43.33,0 -65,0 0,21.333 0,42.667 0,64 -10.67,0 -21.33,0 -32,0 -32,32.333 -64,64.667 -96,97 -10.67,21.332 -21.33,42.668 -32,64 -43,32 -86,64 -129,96 0,32.333 0,64.667 0,97 -21.33,0 -42.67,0 -64,0 -21.67,21.331 -43.33,42.669 -65,64 0,10.667 0,21.333 0,32 -21.33,11.001 -42.67,21.999 -64,33 -21.33,21.335 -42.67,42.665 -64,64 -10.67,0 -21.33,0 -32,0 -21.67,31.998 -43.33,64.002 -65,96 -21.33,21.668 -42.67,43.332 -64,65 -10.69,21.367 -21.35,42.749 -32.07,64.101 -21.32,31.963 -42.62,63.933 -63.93,95.899 0,53.667 0,107.333 0,161 -21.67,0 -43.33,0 -65,0 -21.33,32.335 -42.67,64.665 -64,97 -10.67,-10.998 -21.33,-22.002 -32,-33 10.67,0 21.33,0 32,0 0,-10.667 0,-21.333 0,-32 -10.67,0 -21.33,0 -32,0 -43,10.667 -86,21.333 -129,32 -42.67,53.665 -85.33,107.335 -128,161 -11,0 -22,0 -33,0 -32,32.333 -64,64.667 -96,97 -10.67,21.332 -21.33,42.668 -32,64 10.67,-10.665 21.33,-21.335 32,-32 -64.33,75.002 -128.67,149.998 -193,225 -32.11,53.822 -64.16,107.688 -96.32,161.476 -21.57,31.839 -43.12,63.681 -64.68,95.524 -21.33,53.668 -42.67,107.332 -64,161 -64.33,53.669 -128.67,107.331 -193,161 -32,64.333 -64,128.667 -96,193 -22.61,33.447 -45.32,66.821 -67.86,100.313 -41.73,62.932 -83.48,125.851 -125.2,188.792 -42.98,74.967 -85.96,149.93 -128.94,224.895 -21.33,21.335 -42.67,42.665 -64,64 0,21.667 0,43.333 0,65 -21.33,21.335 -42.67,42.665 -64,64 -21.67,-10.666 -43.33,-21.334 -65,-32 -21.36,21.367 -42.74,42.711 -64.08,64.095 -42.97,53.636 -85.95,107.268 -128.92,160.905 -10.67,21.332 -21.33,42.668 -32,64 -21.33,21.335 -42.67,42.665 -64,64 0,11 0,22 0,33 -21.33,-11.001 -42.67,-21.999 -64,-33 -21.67,10.999 -43.33,22.001 -65,33 -21.33,21.335 -42.67,42.665 -64,64 -21.33,43.001 -42.67,85.999 -64,129 -43,21.333 -86,42.667 -129,64 -43,53.667 -86,107.333 -129,161 -53.33,42.668 -106.67,85.332 -160,128 -32.33,43.002 -64.67,85.998 -97,129 -10.67,21.332 -21.33,42.668 -32,64 0,53.667 0,107.333 0,161 10.67,10.665 21.33,21.335 32,32 0,10.667 0,21.333 0,32 -10.67,10.665 -21.33,21.335 -32,32 -10.67,0 -21.33,0 -32,0 -43,64.333 -86,128.667 -129,193 -64.33,139.335 -128.67,278.665 -193,418 -15.05,15.113 -30.28,30.043 -45.04,45.442 -6.32,6.519 -12.64,13.037 -18.96,19.558 -10.67,-10.998 -21.33,-22.002 -32,-33 -42.1,-84.346 -84.56,-168.509 -126.87,-252.753 -1.56,-2.77 -2.73,-5.702 -3.63,-8.747 -10.17,-30.499 -20.33,-61.001 -30.5,-91.5 -10.67,0 -21.33,0 -32,0 -32.33,-21.668 -64.67,-43.332 -97,-65 -10.67,-10.665 -21.33,-21.335 -32,-32 -32,21.667 -64,43.333 -96,65 0,10.667 0,21.333 0,32 -10.67,0 -21.33,0 -32,0 -32.33,10.668 -64.67,21.332 -97,32 -10.67,0 -21.33,0 -32,0 0,-10.667 0,-21.333 0,-32 10.67,0 21.33,0 32,0 -42.67,0 -85.33,0 -128,0 -10.67,10.665 -21.33,21.335 -32,32 -32.33,-21.335 -64.67,-42.665 -97,-64 10.67,-42.999 21.33,-86.001 32,-129 -10.67,-42.999 -21.33,-86.001 -32,-129 0,-53.333 0,-106.667 0,-160 -10.69,-21.7 -21.35,-43.416 -32.07,-65.101 -21.33,-32.004 -42.68,-63.991 -63.99,-96.007 -10.98,-21.298 -21.96,-42.595 -32.94,-63.892 -32,-21.667 -64,-43.333 -96,-65 0,-10.667 0,-21.333 0,-32 -21.33,-21.335 -42.67,-42.665 -64,-64 -21.67,0 -43.33,0 -65,0 -21.33,21.335 -42.67,42.665 -64,64 -32,0 -64,0 -96,0 -11,10.667 -22,21.333 -33,32 -32,0 -64,0 -96,0 -21.33,-10.668 -42.67,-21.332 -64,-32 -10.67,0 -21.33,0 -32,0 -21.67,-21.331 -43.33,-42.669 -65,-64 -21.33,-10.668 -42.67,-21.332 -64,-32 -10.67,0 -21.33,0 -32,0 10.67,-10.998 21.33,-22.002 32,-33 0,-10.667 0,-21.333 0,-32 -32.33,-10.668 -64.67,-21.332 -97,-32 -10.71,-0.02 -21.41,0.03 -32.12,-0.02 -53.63,-10.659 -107.25,-21.318 -160.88,-31.976 -10.71,-10.681 -21.37,-21.412 -32.1,-32.067 -31.97,-21.304 -63.93,-42.624 -95.9,-63.933 -10.67,-10.998 -21.33,-22.002 -32,-33 0,-32 0,-64 0,-96 -10.67,-21.332 -21.33,-42.668 -32,-64 -21.67,0 -43.33,0 -65,0 -21.33,-21.668 -42.67,-43.332 -64,-65 -53.67,-10.666 -107.33,-21.334 -161,-32 -10.69,-21.367 -21.35,-42.749 -32.07,-64.101 -21.32,-32.296 -42.62,-64.599 -63.93,-96.899 -21.67,-21.331 -43.33,-42.669 -65,-64 -10.67,-31.999 -21.33,-64.001 -32,-96 0,-21.667 0,-43.333 0,-65 -10.67,-10.665 -21.33,-21.335 -32,-32 0,-75 0,-150 0,-225 -10.67,-21.332 -21.33,-42.668 -32,-64 0,-10.667 0,-21.333 0,-32 -43,-21.667 -86,-43.333 -129,-65 -21.33,0 -42.67,0 -64,0 -32,21.667 -64,43.333 -96,65 -32.33,0 -64.67,0 -97,0 -42.7,-43.024 -85.38,-86.066 -128.09,-129.08 -85.97,-74.976 -171.94,-149.947 -257.91,-224.92 -32,-21.333 -64,-42.667 -96,-64 -75,-10.667 -150,-21.333 -225,-32 -64.33,0 -128.67,0 -193,0 -10.67,-10.998 -21.33,-22.002 -32,-33 0,-10.667 0,-21.333 0,-32 -10.69,-21.366 -21.35,-42.749 -32.07,-64.101 -21.65,-32.298 -43.29,-64.598 -64.93,-96.899 -32,-32 -64,-64 -96,-96 -21.71,-10.674 -43.4,-21.388 -65.12,-32.038 -31.96,-10.655 -63.92,-21.308 -95.88,-31.962 -43,-32.333 -86,-64.667 -129,-97 -21.33,-21.335 -42.67,-42.665 -64,-64 -21.33,0 -42.67,0 -64,0 -32.33,-10.668 -64.67,-21.332 -97,-32 -42.67,-21.666 -85.33,-43.334 -128,-65 -10.67,-10.665 -21.33,-21.335 -32,-32 -193,-32 -386,-64 -579,-96 -32.33,0 -64.67,0 -97,0 -21.37,-10.69 -42.75,-21.353 -64.1,-32.065 -117.97,-74.976 -235.93,-149.958 -353.9,-224.935 0,-11 0,-22 0,-33 -21.33,-42.668 -42.67,-85.332 -64,-128 -38.39,-19.173 -76.77,-38.375 -115.07,-57.735 -25.98,-13.089 -51.95,-26.177 -77.93,-39.265 -53.67,-10.666 -107.33,-21.334 -161,-32 -10.67,0 -21.33,0 -32,0 -42.67,21.666 -85.33,43.334 -128,65 -11,0 -22,0 -33,0 -10.67,-32.332 -21.33,-64.668 -32,-97 -21.33,-21.335 -42.67,-42.665 -64,-64 -10.67,-21.665 -21.33,-43.335 -32,-65 -32.33,0 -64.67,0 -97,0 0,-21.333 0,-42.667 0,-64 -10.67,0 -21.33,0 -32,0 -64.33,-53.669 -128.67,-107.331 -193,-161 -10.67,-10.665 -21.33,-21.335 -32,-32 -10.67,0 -21.33,0 -32,0 -32,10.667 -64,21.333 -96,32 -64.33,-21.334 -128.67,-42.666 -193,-64 -53.67,-10.666 -107.33,-21.334 -161,-32 -21.33,-21.335 -42.67,-42.665 -64,-64 10.67,-32.332 21.33,-64.668 32,-97 -23.77,-23.455 -47.65,-46.801 -71.34,-70.34 -19.22,-19.22 -38.44,-38.44 -57.66,-57.66 -32,0 -64,0 -96,0 -21.67,-21.665 -43.33,-43.335 -65,-65 -10.67,0 -21.33,0 -32,0 -10.67,-10.665 -21.33,-21.335 -32,-32 0,-10.667 0,-21.333 0,-32 -10.67,0 -21.33,0 -32,0 -43,-10.667 -86,-21.333 -129,-32 -10.67,0 -21.33,0 -32,0 -10.67,10.665 -21.33,21.335 -32,32 -32.33,-10.668 -64.67,-21.332 -97,-32 -21.33,10.668 -42.67,21.332 -64,32 -32,-32.333 -64,-64.667 -96,-97 -32.33,0 -64.67,0 -97,0 -10.67,-10.665 -21.33,-21.335 -32,-32 0,-21.333 0,-42.667 0,-64 10.67,-10.665 21.33,-21.335 32,-32 0,-21.333 0,-42.667 0,-64 -10.67,-10.998 -21.33,-22.002 -32,-33 -10.67,-31.999 -21.33,-64.001 -32,-96 -43,-43 -86,-86 -129,-129 z"
         id="path76" />
    </g>
  </g>
</svg>
