<?xml version="1.0" encoding="UTF-8" standalone="no"?>
<!-- Created with Inkscape (http://www.inkscape.org/) -->

<svg
   xmlns:dc="http://purl.org/dc/elements/1.1/"
   xmlns:cc="http://creativecommons.org/ns#"
   xmlns:rdf="http://www.w3.org/1999/02/22-rdf-syntax-ns#"
   xmlns:svg="http://www.w3.org/2000/svg"
   xmlns="http://www.w3.org/2000/svg"
   xmlns:sodipodi="http://sodipodi.sourceforge.net/DTD/sodipodi-0.dtd"
   xmlns:inkscape="http://www.inkscape.org/namespaces/inkscape"
   width="84.224998mm"
   height="59.172577mm"
   viewBox="0 0 84.224998 59.172577"
   version="1.1"
   id="svg706"
   inkscape:version="0.92.5 (2060ec1f9f, 2020-04-08)"
   sodipodi:docname="am.svg">
  <defs
     id="defs700" />
  <sodipodi:namedview
     id="base"
     pagecolor="#ffffff"
     bordercolor="#666666"
     borderopacity="1.0"
     inkscape:pageopacity="0.0"
     inkscape:pageshadow="2"
     inkscape:zoom="0.35"
     inkscape:cx="976.30821"
     inkscape:cy="-93.892095"
     inkscape:document-units="mm"
     inkscape:current-layer="layer1"
     showgrid="false"
     inkscape:window-width="1366"
     inkscape:window-height="704"
     inkscape:window-x="0"
     inkscape:window-y="0"
     inkscape:window-maximized="1" />
  <metadata
     id="metadata703">
    <rdf:RDF>
      <cc:Work
         rdf:about="">
        <dc:format>image/svg+xml</dc:format>
        <dc:type
           rdf:resource="http://purl.org/dc/dcmitype/StillImage" />
        <dc:title></dc:title>
      </cc:Work>
    </rdf:RDF>
  </metadata>
  <g
     inkscape:label="Layer 1"
     inkscape:groupmode="layer"
     id="layer1"
     transform="translate(185.74345,-64.818473)">
    <g
       transform="matrix(9.9994773e-4,0,0,9.9994773e-4,-192.1246,48.530443)"
       id="Amazonas">
      <path
         inkscape:connector-curvature="0"
         style="fill:#999999;stroke:#ffffff;stroke-width:282.23678589;stroke-miterlimit:4;stroke-dasharray:none;stroke-opacity:1"
         d="m 6610,62120 c 42.3165,-44.355 86.7894,-86.596 129.9338,-130.119 53.3554,-63.961 106.7108,-127.921 160.0662,-191.881 21.3333,-42.667 42.6667,-85.333 64,-128 0,-21.667 0,-43.333 0,-65 -21.3333,-10.667 -42.6667,-21.333 -64,-32 0,-53.667 0,-107.333 0,-161 -21.6667,-42.667 -43.3333,-85.333 -65,-128 0.2251,-11.189 -0.4469,-22.593 0.33,-33.65 21.5567,-42.45 43.1133,-84.9 64.67,-127.35 32,-32.333 64,-64.667 96,-97 10.5898,-32.255 21.7944,-64.411 32,-96.729 0.2987,-10.861 -0.6013,-21.916 0.4567,-32.655 10.5144,-31.872 21.0289,-63.744 31.5433,-95.616 10.6667,0 21.3333,0 32,0 11.1876,-11.139 23.0185,-21.743 33.8086,-33.213 21.0638,-31.596 42.1276,-63.191 63.1914,-94.787 21.3333,-10.667 42.6667,-21.333 64,-32 32.5118,-54.122 65.3127,-108.087 97.6438,-162.308 10.4521,-21.231 20.9041,-42.461 31.3562,-63.692 43.1486,-32.199 86.4823,-64.183 129.5154,-96.515 10.9619,-10.688 21.4312,-21.977 32.6975,-32.294 31.5957,-21.063 63.1914,-42.127 94.7871,-63.191 43,0 86,0 129,0 10.6667,-32.333 21.3333,-64.667 32,-97 53.6667,-42.667 107.3333,-85.333 161,-128 32,-11 64,-22 96,-33 21.3333,0 42.6667,0 64,0 11,-10.667 22,-21.333 33,-32 32,0 64,0 96,0 32.3333,-21.333 64.6667,-42.667 97,-64 10.8583,-0.217 21.9219,0.435 32.6519,-0.326 21.116,-10.558 42.2321,-21.116 63.3481,-31.674 21.5518,-0.152 43.2015,0.305 64.6921,-0.228 32.1027,-10.591 64.2053,-21.181 96.3079,-31.772 0,-32.333 0,-64.667 0,-97 10.9309,-10.71 21.4929,-21.932 32.6519,-32.326 21.116,-10.558 42.2321,-21.116 63.3481,-31.674 10.6667,-21.333 21.3333,-42.667 32,-64 21.6667,0 43.3333,0 65,0 10.6667,10.667 21.3333,21.333 32,32 10.6667,-10.667 21.3333,-21.333 32,-32 43,0 86,0 129,0 32,-11 64,-22 96,-33 53.6667,0 107.3333,0 161,0 21.3333,-10.667 42.6667,-21.333 64,-32 0,-10.667 0,-21.333 0,-32 21.3333,-10.667 42.6667,-21.333 64,-32 0,10.667 0,21.333 0,32 11,10.667 22,21.333 33,32 21.3333,-21.333 42.6667,-42.667 64,-64 -10.6667,-10.667 -21.3333,-21.333 -32,-32 10.6667,-10.667 21.3333,-21.333 32,-32 0,-11 0,-22 0,-33 10.6667,0 21.3333,0 32,0 10.6667,-10.667 21.3333,-21.333 32,-32 0,-21.333 0,-42.667 0,-64 21.3333,-10.667 42.6667,-21.333 64,-32 11,10.667 22,21.333 33,32 10.6667,0 21.3333,0 32,0 21.537,-32.147 42.7985,-64.515 64.5074,-96.523 10.4975,-10.826 20.9951,-21.651 31.4926,-32.477 -10.6667,-10.667 -21.3333,-21.333 -32,-32 10.6455,-10.958 22.0609,-21.44 32.2305,-32.691 10.5898,-31.77 21.1797,-63.539 31.7695,-95.309 10.6667,-10.667 21.3333,-21.333 32,-32 0,-11 0,-22 0,-33 11,-10.667 22,-21.333 33,-32 -11,-32 -22,-64 -33,-96 11,-10.667 22,-21.333 33,-32 10.6667,0 21.3333,0 32,0 0,-21.667 0,-43.333 0,-65 -10.6667,-21.333 -21.3333,-42.667 -32,-64 -21.6667,-10.667 -43.3333,-21.333 -65,-32 -10.6667,-43 -21.3333,-86 -32,-129 -10.6667,-10.667 -21.3333,-21.333 -32,-32 -10.6667,-53.667 -21.3333,-107.333 -32,-161 -10.6667,10.667 -21.3333,21.333 -32,32 0,-21.333 0,-42.667 0,-64 -10.6667,-21.333 -21.3333,-42.667 -32,-64 0,-43 0,-86 0,-129 -32.3333,-32 -64.6667,-64 -97,-96 -10.6667,0 -21.3333,0 -32,0 -10.6667,-32.333 -21.3333,-64.667 -32,-97 -21.4643,-10.897 -43.2736,-21.308 -64.5232,-32.507 -10.8256,-10.498 -21.6512,-20.995 -32.4768,-31.493 0,-75 0,-150 0,-225 -53.3333,-53.667 -106.6667,-107.333 -160,-161 0,-64.333 0,-128.667 0,-193 32,-32 64,-64 96,-96 -10.6667,-10.667 -21.3333,-21.333 -32,-32 10.6667,-11 21.3333,-22 32,-33 -10.6667,-64 -21.3333,-128 -32,-192 10.6667,0 21.3333,0 32,0 21.3333,-21.667 42.6667,-43.333 64,-65 0,-10.667 0,-21.333 0,-32 11,-10.667 22,-21.333 33,-32 10.8583,-0.217 21.9219,0.435 32.6519,-0.326 21.116,-10.558 42.2321,-21.116 63.3481,-31.674 0.1188,-21.895 -0.2369,-43.848 0.1768,-65.707 10.5485,-42.681 21.5694,-85.304 31.8232,-128.022 0,-42.757 0,-85.514 0,-128.271 10.6667,-21.333 21.3333,-42.667 32,-64 10.6667,10.667 21.3333,21.333 32,32 0,-53.667 0,-107.333 0,-161 21.6667,-21.333 43.3333,-42.667 65,-64 0,-21.333 0,-42.667 0,-64 10.6667,-10.667 21.3333,-21.333 32,-32 21.5504,-0.157 43.2043,0.313 64.69,-0.235 32.1033,-10.921 64.2067,-21.843 96.31,-32.765 0,-42.667 0,-85.333 0,-128 10.6667,-10.667 21.3333,-21.333 32,-32 21.3333,0 42.6667,0 64,0 0,-11 0,-22 0,-33 32.3333,-10.667 64.667,-21.333 97,-32 21.333,-32 42.667,-64 64,-96 10.667,0 21.333,0 32,0 0,-32.333 0,-64.667 0,-97 10.667,0 21.333,0 32,0 10.667,-32 21.333,-64 32,-96 11.19,-0.222 22.59,0.441 33.652,-0.326 21.116,-10.558 42.232,-21.116 63.348,-31.674 0,-21.667 0,-43.333 0,-65 32,-10.667 64,-21.333 96,-32 0,-21.333 0,-42.667 0,-64 10.667,-10.667 21.333,-21.333 32,-32 0,-10.667 0,-21.333 0,-32 11,0 22,0 33,0 0,-53.667 0,-107.333 0,-161 21.333,-10.667 42.667,-21.333 64,-32 10.667,10.667 21.333,21.333 32,32 10.667,-10.667 21.333,-21.333 32,-32 -10.667,-21.333 -21.333,-42.667 -32,-64 0,-21.667 0,-43.333 0,-65 -10.667,-10.667 -21.333,-21.333 -32,-32 0.152,-21.552 -0.305,-43.202 0.228,-64.692 10.591,-32.103 21.181,-64.205 31.772,-96.308 21.333,-10.667 42.667,-21.333 64,-32 -10.667,-21.333 -21.333,-42.667 -32,-64 10.667,-10.667 21.333,-21.333 32,-32 0,-43 0,-86 0,-129 -10.667,-21.333 -21.333,-42.667 -32,-64 0.117,-53.895 -0.234,-107.848 0.175,-161.707 10.768,-42.963 21.133,-86.074 32.151,-128.945 10.558,-21.116 21.116,-42.232 31.674,-63.348 -10.667,-10.667 -21.333,-21.333 -32,-32 21.667,-10.667 43.333,-21.333 65,-32 10.667,-32.333 21.333,-64.667 32,-97 10.667,-10.667 21.333,-21.333 32,-32 0.217,-10.858 -0.435,-21.922 0.326,-32.652 10.558,-21.116 21.116,-42.232 31.674,-63.348 0,-21.667 0,-43.333 0,-65 21.333,-10.667 42.667,-21.333 64,-32 0.31,-11.101 -0.624,-22.409 0.474,-33.379 10.842,-31.54 21.684,-63.081 32.526,-94.621 0,-21.667 0,-43.333 0,-65 21.333,-21.333 42.667,-42.667 64,-64 0,-10.667 0,-21.333 0,-32 21.333,-21.333 42.667,-42.667 64,-64 0,-11 0,-22 0,-33 10.667,-10.667 21.333,-21.333 32,-32 0,-32 0,-64 0,-96 -10.667,-21.667 -21.333,-43.333 -32,-65 10.667,-21.333 21.333,-42.667 32,-64 0,-53.667 0,-107.333 0,-161 -10.667,0 -21.333,0 -32,0 10.667,-10.667 21.333,-21.333 32,-32 -21.333,-32 -42.667,-64 -64,-96 0,-10.667 0,-21.333 0,-32 -10.667,0 -21.333,0 -32,0 0,-11 0,-22 0,-33 21.333,-21.333 42.667,-42.667 64,-64 10.667,0 21.333,0 32,0 11,-21.333 22,-42.667 33,-64 21.333,0 42.667,0 64,0 0,10.667 0,21.333 0,32 32,-10.667 64,-21.333 96,-32 10.667,-10.667 21.333,-21.333 32,-32 11,-43 22,-86 33,-129 21.333,10.667 42.667,21.333 64,32 21.459,-10.902 43.284,-21.297 64.515,-32.515 21.162,-21.162 42.323,-42.323 63.485,-63.485 11,10.667 22,21.333 33,32 10.707,-10.932 21.938,-21.49 32.322,-32.654 10.559,-21.449 21.119,-42.897 31.678,-64.346 21.333,11 42.667,22 64,33 0,-11 0,-22 0,-33 10.667,-10.667 21.333,-21.333 32,-32 -10.667,-10.667 -21.333,-21.333 -32,-32 0,-10.667 0,-21.333 0,-32 21.667,0 43.333,0 65,0 0,-10.667 0,-21.333 0,-32 21.333,0 42.667,0 64,0 0,-10.667 0,-21.333 0,-32 32,21.333 64,42.667 96,64 21.667,-10.667 43.333,-21.333 65,-32 10.858,0.217 21.922,-0.435 32.652,0.326 21.116,10.558 42.232,21.116 63.348,31.674 10.667,-21.333 21.333,-42.667 32,-64 10.667,0 21.333,0 32,0 0,10.667 0,21.333 0,32 22.22,-11.162 44.843,-21.63 66.811,-33.226 31.396,-21.258 62.793,-42.516 94.189,-63.774 0,-32 0,-64 0,-96 10.667,-10.667 21.333,-21.333 32,-32 0,-10.667 0,-21.333 0,-32 -10.667,-11 -21.333,-22 -32,-33 21.464,-10.897 43.274,-21.308 64.523,-32.507 10.826,-10.498 21.651,-20.995 32.477,-31.493 21.333,0 42.667,0 64,0 42.763,-42.905 85.991,-85.342 129,-128 32,0 64,0 96,0 10.667,-32.333 21.333,-64.667 32,-97 21.333,0 42.667,0 64,0 0,21.333 0,42.667 0,64 11,0 22,0 33,0 10.667,-21.333 21.333,-42.667 32,-64 10.667,10.667 21.333,21.333 32,32 0,10.667 0,21.333 0,32 10.667,0 21.333,0 32,0 0,-32 0,-64 0,-96 32.333,-10.667 64.667,-21.333 97,-32 0,-21.667 0,-43.333 0,-65 -11,-10.667 -22,-21.333 -33,-32 0,-10.667 0,-21.333 0,-32 21.667,-10.667 43.333,-21.333 65,-32 0,21.333 0,42.667 0,64 10.667,-10.667 21.333,-21.333 32,-32 10.667,21.333 21.333,42.667 32,64 10.667,0 21.333,0 32,0 0,-21.333 0,-42.667 0,-64 21.333,0 42.667,0 64,0 0,-21.333 0,-42.667 0,-64 -10.667,-10.667 -21.333,-21.333 -32,-32 10.667,0 21.333,0 32,0 11,10.667 22,21.333 33,32 21.333,-21.333 42.667,-42.667 64,-64 21.333,0 42.667,0 64,0 0,-64.333 0,-128.667 0,-193 10.653,-11.287 22.036,-22.125 32.237,-33.689 10.921,-31.771 21.842,-63.541 32.763,-95.311 32,0 64,0 96,0 21.333,-21.333 42.667,-42.667 64,-64 21.667,0 43.333,0 65,0 0,-10.667 0,-21.333 0,-32 -11,-11 -22,-22 -33,-33 32.333,0 64.667,0 97,0 10.667,-10.667 21.333,-21.333 32,-32 43,10.667 86,21.333 129,32 -10.667,11 -21.333,22 -32,33 0,21.333 0,42.667 0,64 21.333,-10.667 42.667,-21.333 64,-32 21.333,-43 42.667,-86 64,-129 10.667,21.333 21.333,42.667 32,64 22.396,-10.806 44.491,-22.343 67.074,-32.691 31.309,-10.437 62.617,-20.873 93.926,-31.309 0,-21.333 0,-42.667 0,-64 10.667,-10.667 21.333,-21.333 32,-32 21.667,21.333 43.333,42.667 65,64 10.667,-10.667 21.333,-21.333 32,-32 -10.667,-10.667 -21.333,-21.333 -32,-32 42.667,-21.667 85.333,-43.333 128,-65 10.667,0 21.333,0 32,0 0,-10.667 0,-21.333 0,-32 21.792,-10.904 43.955,-21.289 65.515,-32.515 10.495,-10.495 20.99,-20.99 31.485,-31.485 21.333,10.667 42.667,21.333 64,32 43,-32 86,-64 129,-96 10.667,-21.667 21.333,-43.333 32,-65 21.333,-10.667 42.667,-21.333 64,-32 -10.667,-10.667 -21.333,-21.333 -32,-32 32,-32.333 64,-64.667 96,-97 32.333,-10.667 64.667,-21.333 97,-32 10.667,-21.333 21.333,-42.667 32,-64 0,-21.333 0,-42.667 0,-64 32.333,10.667 64.667,21.333 97,32 21.333,21.333 42.667,42.667 64,64 0,-32 0,-64 0,-96 32,0 64,0 96,0 10.909,-21.786 21.279,-43.965 32.523,-65.507 10.826,-10.498 21.651,-20.995 32.477,-31.493 10.667,10.667 21.333,21.333 32,32 32,-10.667 64,-21.333 96,-32 -10.667,-10.667 -21.333,-21.333 -32,-32 10.667,-10.667 21.333,-21.333 32,-32 -10.667,-10.667 -21.333,-21.333 -32,-32 10.667,-10.667 21.333,-21.333 32,-32 10.667,0 21.333,0 32,0 10.667,-10.667 21.333,-21.333 32,-32 0,-11 0,-22 0,-33 11,0 22,0 33,0 -0.223,-10.856 0.446,-21.927 -0.334,-32.648 -10.889,-21.117 -21.777,-42.235 -32.666,-63.352 32.333,-10.667 64.667,-21.333 97,-32 0,21.333 0,42.667 0,64 10.667,-10.667 21.333,-21.333 32,-32 0,-21.333 0,-42.667 0,-64 10.667,10.667 21.333,21.333 32,32 10.667,-10.667 21.333,-21.333 32,-32 0,-11 0,-22 0,-33 11,-10.667 22,-21.333 33,-32 21.333,10.667 42.667,21.333 64,32 21.598,-21.376 42.825,-43.269 64.654,-64.322 21.702,-10.569 43.262,-21.527 65.053,-31.855 42.63,-10.766 85.407,-21.134 127.945,-32.149 21.116,-10.558 42.232,-21.116 63.348,-31.674 21.667,0 43.333,0 65,0 10.667,-11 21.333,-22 32,-33 10.667,21.667 21.333,43.333 32,65 0,10.667 0,21.333 0,32 21.333,0 42.667,0 64,0 10.667,-10.667 21.333,-21.333 32,-32 0,-32.333 0,-64.667 0,-97 11,-10.667 22,-21.333 33,-32 10.667,21.333 21.333,42.667 32,64 0,21.667 0,43.333 0,65 21.333,0 42.667,0 64,0 21.333,21.333 42.667,42.667 64,64 11.19,-0.222 22.59,0.441 33.652,-0.326 21.116,-10.558 42.232,-21.116 63.348,-31.674 32,10.667 64,21.333 96,32 21.667,-21.333 43.333,-42.667 65,-64 10.667,21.333 21.333,42.667 32,64 42.667,-32 85.333,-64 128,-96 -10.667,-11 -21.333,-22 -32,-33 21.405,-21.599 43.08,-42.924 65,-64 -0.157,21.55 0.313,43.204 -0.235,64.69 -10.921,32.103 -21.843,64.207 -32.765,96.31 -21.333,10.667 -42.667,21.333 -64,32 0,10.667 0,21.333 0,32 21.459,10.902 43.284,21.297 64.515,32.515 10.829,10.829 21.657,21.657 32.485,32.485 21.333,0 42.667,0 64,0 32.145,-21.872 64.515,-43.469 96.519,-65.511 21.536,-21.428 43.595,-42.478 64.805,-64.142 21.225,-42.782 42.451,-85.565 63.676,-128.347 21.333,10.667 42.667,21.333 64,32 0,-21.333 0,-42.667 0,-64 10.667,-10.667 21.333,-21.333 32,-32 22.226,11.153 44.831,21.648 66.819,33.213 31.394,20.929 62.787,41.858 94.181,62.787 10.667,0 21.333,0 32,0 0,-10.667 0,-21.333 0,-32 -21.333,-21.333 -42.667,-42.667 -64,-64 0,-32 0,-64 0,-96 21.464,10.897 43.274,21.308 64.523,32.507 10.826,10.498 21.651,20.995 32.477,31.493 10.667,-10.667 21.333,-21.333 32,-32 0,-10.667 0,-21.333 0,-32 10.667,-11 21.333,-22 32,-33 21.333,0 42.667,0 64,0 21.333,21.667 42.667,43.333 64,65 11,0 22,0 33,0 10.667,10.667 21.333,21.333 32,32 0,10.667 0,21.333 0,32 21.333,0 42.667,0 64,0 32.201,-43.146 64.178,-86.488 96.519,-129.511 21.494,-21.163 42.987,-42.326 64.481,-63.489 21.333,21.333 42.667,42.667 64,64 21.459,-10.902 43.284,-21.297 64.515,-32.515 10.495,-10.495 20.99,-20.99 31.485,-31.485 11,10.667 22,21.333 33,32 0,21.667 0,43.333 0,65 42.667,0 85.333,0 128,0 11,10.667 22,21.333 33,32 0,10.667 0,21.333 0,32 10.667,-10.667 21.333,-21.333 32,-32 0,-21.667 0,-43.333 0,-65 -21.667,-10.667 -43.333,-21.333 -65,-32 -10.667,-21.333 -21.333,-42.667 -32,-64 21.667,0 43.333,0 65,0 21.333,32 42.667,64 64,96 21.333,11 42.667,22 64,33 32.147,-32.521 63.836,-65.503 97,-97 -11.154,-42.867 -21.934,-85.873 -33.322,-128.654 -10.559,-21.449 -21.119,-42.897 -31.678,-64.346 11.105,0.299 22.402,-0.602 33.384,0.457 31.872,10.514 63.744,21.029 95.616,31.543 21.333,-10.667 42.667,-21.333 64,-32 10.667,0 21.333,0 32,0 0,32.333 0,64.667 0,97 10.667,0 21.333,0 32,0 11,-43 22,-86 33,-129 10.667,0 21.333,0 32,0 10.667,10.667 21.333,21.333 32,32 -10.667,21.667 -21.333,43.333 -32,65 10.667,42.667 21.333,85.333 32,128 21.333,-21.333 42.667,-42.667 64,-64 0,-21.333 0,-42.667 0,-64 10.667,-11 21.333,-22 32,-33 32.333,0 64.667,0 97,0 0,21.667 0,43.333 0,65 21.333,-10.667 42.667,-21.333 64,-32 -10.667,-21.667 -21.333,-43.333 -32,-65 32,0 64,0 96,0 32.333,43 64.667,86 97,129 10.667,-21.333 21.333,-42.667 32,-64 0,-21.667 0,-43.333 0,-65 10.932,-10.707 21.49,-21.938 32.654,-32.322 21.449,-10.559 42.897,-21.119 64.346,-31.678 10.667,10.667 21.333,21.333 32,32 -10.667,21.333 -21.333,42.667 -32,64 10.667,11 21.333,22 32,33 32,-21.667 64,-43.333 96,-65 0,-21.333 0,-42.667 0,-64 21.333,0 42.667,0 64,0 -10.667,32 -21.333,64 -32,96 21.667,11 43.333,22 65,33 10.667,0 21.333,0 32,0 10.667,-21.667 21.333,-43.333 32,-65 53.667,0 107.333,0 161,0 10.667,-21.333 21.333,-42.667 32,-64 -10.902,-21.459 -21.297,-43.284 -32.515,-64.515 -10.829,-10.829 -21.657,-21.657 -32.485,-32.485 0,-10.667 0,-21.333 0,-32 21.786,10.909 43.965,21.279 65.507,32.523 10.544,11.087 21.578,21.827 31.819,33.129 10.558,21.116 21.116,42.232 31.674,63.348 32.333,10.667 64.667,21.333 97,32 10.667,10.667 21.333,21.333 32,32 10.667,-21.333 21.333,-42.667 32,-64 0,-10.667 0,-21.333 0,-32 10.667,-10.667 21.333,-21.333 32,-32 10.667,0 21.333,0 32,0 10.653,-11.287 22.036,-22.125 32.237,-33.689 10.921,-31.771 21.842,-63.541 32.763,-95.311 22.065,-10.801 43.812,-22.368 66.074,-32.691 31.309,-10.437 62.617,-20.873 93.926,-31.309 -10.667,-32.333 -21.333,-64.667 -32,-97 10.932,-10.709 21.492,-21.935 32.653,-32.324 42.782,-21.225 85.565,-42.451 128.347,-63.676 -21.6,-33.021 -43.739,-65.726 -65.002,-98.943 -10.666,-20.686 -21.332,-41.371 -31.998,-62.057 21.667,0 43.333,0 65,0 21.333,10.667 42.667,21.333 64,32 21.333,-10.667 42.667,-21.333 64,-32 0,-10.667 0,-21.333 0,-32 10.667,-10.667 21.333,-21.333 32,-32 -10.667,-21.667 -21.333,-43.333 -32,-65 10.667,-32 21.333,-64 32,-96 11.038,-10.935 22.62,-21.474 33.322,-32.654 10.559,-21.449 21.119,-42.897 31.678,-64.346 32,11 64,22 96,33 21.875,-32.475 43.457,-65.191 65.515,-97.515 10.495,-10.495 20.99,-20.99 31.485,-31.485 32,0 64,0 96,0 32.333,32 64.667,64 97,96 32,11 64,22 96,33 10.667,0 21.333,0 32,0 10.667,21.333 21.333,42.667 32,64 21.667,0 43.333,0 65,0 10.667,-21.333 21.333,-42.667 32,-64 0,-75 0,-150 0,-225 21.378,21.597 43.263,42.828 64.326,64.652 10.558,21.116 21.116,42.232 31.674,63.348 0,-64.333 0,-128.667 0,-193 43,0 86,0 129,0 0,21.667 0,43.333 0,65 -21.333,42.667 -42.667,85.333 -64,128 0,21.333 0,42.667 0,64 21.076,21.92 42.401,43.595 64,65 22.062,-10.809 43.818,-22.351 66.07,-32.704 32.052,-11.044 64.308,-21.6 96.234,-32.948 42.232,-21.116 84.464,-42.232 126.696,-63.348 32.056,-32.279 64.607,-64.06 97,-96 -10.667,-21.667 -21.333,-43.333 -32,-65 53.333,11 106.667,22 160,33 11,32 22,64 33,96 -21.667,43 -43.333,86 -65,129 10.667,10.667 21.333,21.333 32,32 21.667,0 43.333,0 65,0 10.667,-43 21.333,-86 32,-129 10.667,-10.667 21.333,-21.333 32,-32 32,21.333 64,42.667 96,64 11,0 22,0 33,0 0,-21.333 0,-42.667 0,-64 32,0 64,0 96,0 10.667,-10.667 21.333,-21.333 32,-32 -21.333,-21.333 -42.667,-42.667 -64,-64 21.333,-11 42.667,-22 64,-33 21.667,11 43.333,22 65,33 42.667,0 85.333,0 128,0 10.667,-11 21.333,-22 32,-33 21.667,11 43.333,22 65,33 32,64 64,128 96,192 21.333,11 42.667,22 64,33 11.234,-21.793 21.972,-43.947 33.515,-65.515 10.495,-10.495 20.99,-20.99 31.485,-31.485 -10.667,-21.333 -21.333,-42.667 -32,-64 10.667,-10.667 21.333,-21.333 32,-32 21.597,21.378 42.828,43.264 64.652,64.326 21.242,10.794 42.849,21.08 63.863,32.189 10.495,10.495 20.99,20.99 31.485,31.485 0.1,43.233 -0.195,86.506 0.146,129.714 10.952,53.429 21.903,106.857 32.854,160.286 -11.288,10.648 -22.122,22.045 -33.691,32.23 -31.77,10.59 -63.539,21.18 -95.309,31.77 0,21.333 0,42.667 0,64 43,32.333 86,64.667 129,97 -21.667,21.333 -43.333,42.667 -65,64 21.875,-0.182 43.889,0.363 65.677,-0.271 53.107,-21.243 106.215,-42.486 159.323,-63.729 0,10.667 0,21.333 0,32 -10.931,10.71 -21.493,21.932 -32.652,32.326 -21.116,10.558 -42.232,21.116 -63.348,31.674 10.667,21.667 21.333,43.333 32,65 21.333,10.667 42.667,21.333 64,32 32.333,0 64.667,0 97,0 10.667,10.667 21.333,21.333 32,32 10.667,-10.667 21.333,-21.333 32,-32 10.667,10.667 21.333,21.333 32,32 10.667,53.667 21.333,107.333 32,161 11,10.667 22,21.333 33,32 10.858,-0.217 21.922,0.435 32.652,-0.326 21.116,-10.558 42.232,-21.116 63.348,-31.674 0,-21.667 0,-43.333 0,-65 10.958,-10.644 21.439,-22.064 32.692,-32.228 32.103,-10.591 64.205,-21.181 96.308,-31.772 0,-10.667 0,-21.333 0,-32 -32.333,-21.333 -64.667,-42.667 -97,-64 21.667,-43 43.333,-86 65,-129 10.667,-10.667 21.333,-21.333 32,-32 21.459,10.902 43.284,21.297 64.515,32.515 10.495,10.495 20.99,20.99 31.485,31.485 21.464,-10.897 43.274,-21.308 64.523,-32.507 10.826,-10.498 21.651,-20.995 32.477,-31.493 0,-21.667 0,-43.333 0,-65 10.667,32.333 21.333,64.667 32,97 10.667,10.667 21.333,21.333 32,32 43,0 86,0 129,0 -21.667,21.333 -43.333,42.667 -65,64 10.667,32.333 21.333,64.667 32,97 11.435,0.312 23.073,-0.621 34.383,0.461 31.539,10.513 63.078,21.026 94.617,31.539 10.667,10.667 21.333,21.333 32,32 0,21.333 0,42.667 0,64 10.859,-0.216 21.921,0.432 32.653,-0.324 85.552,-42.351 171.001,-84.91 256.347,-127.676 32.333,-43 64.667,-86 97,-129 10.619,-53.914 21.618,-107.791 32,-161.729 0,-63.757 0,-127.514 0,-191.271 21.333,-21.667 42.667,-43.333 64,-65 11,0 22,0 33,0 75.449,-441.721 150.737,-883.47 226.287,-1325.174 76.752,-428.052 153.705,-856.069 230.33,-1284.143 233.694,-1318 467.475,-2635.985 701.113,-3953.995 122.342,-722.543 244.845,-1445.059 367.084,-2167.619 145.665,-863.789 291.221,-1727.597 436.954,-2591.374 106.744,-598.565 213.488,-1197.13 320.232,-1795.695 -10.667,-53.667 -21.333,-107.333 -32,-161 10.902,-21.459 21.297,-43.284 32.515,-64.515 21.495,-21.495 42.99,-42.99 64.485,-64.485 0,-85.667 0,-171.333 0,-257 10.59,-32.255 21.794,-64.411 32,-96.729 0,-21.424 0,-42.847 0,-64.271 21.822,-10.753 43.428,-22.03 65.384,-32.457 31.872,-10.514 63.744,-21.029 95.616,-31.543 0,-21.333 0,-42.667 0,-64 -21.667,-43 -43.333,-86 -65,-129 0,-75 0,-150 0,-225 -21.343,-43.254 -43.079,-86.363 -64.177,-129.707 -10.608,-42.431 -21.215,-84.862 -31.823,-127.293 10.95,-32.741 21.377,-65.697 32.652,-98.304 21.116,-42.232 42.232,-84.464 63.348,-126.696 0,-43 0,-86 0,-129 21.667,-21.333 43.333,-42.667 65,-64 0,-53.667 0,-107.333 0,-161 -43.383,-53.975 -86.448,-108.234 -130.031,-162.031 -10.323,-10.323 -20.646,-20.646 -30.969,-30.969 10.667,-43 21.333,-86 32,-129 -10.931,-10.71 -21.493,-21.932 -32.652,-32.326 -21.116,-10.558 -42.232,-21.116 -63.348,-31.674 0,-10.667 0,-21.333 0,-32 10.667,0 21.333,0 32,0 10.667,-21.333 21.333,-42.667 32,-64 21.333,0 42.667,0 64,0 -10.667,-21.667 -21.333,-43.333 -32,-65 -21.333,-10.667 -42.667,-21.333 -64,-32 -21.667,10.667 -43.333,21.333 -65,32 -21.333,-32 -42.667,-64 -64,-96 0,-21.333 0,-42.667 0,-64 -32,-32.333 -64,-64.667 -96,-97 -21.792,-10.904 -43.955,-21.289 -65.515,-32.515 -10.495,-10.495 -20.99,-20.99 -31.485,-31.485 -21.333,0 -42.667,0 -64,0 -10.667,-10.667 -21.333,-21.333 -32,-32 0,-86 0,-172 0,-258 -21.333,-21.333 -42.667,-42.667 -64,-64 -11,0 -22,0 -33,0 -42.667,-32 -85.333,-64 -128,-96 21.333,-32.333 42.667,-64.667 64,-97 0,-21.333 0,-42.667 0,-64 -21.333,-10.667 -42.667,-21.333 -64,-32 -10.667,0 -21.333,0 -32,0 -11,-21.333 -22,-42.667 -33,-64 -42.667,-32.333 -85.333,-64.667 -128,-97 10.667,-10.667 21.333,-21.333 32,-32 -21.333,-10.667 -42.667,-21.333 -64,-32 10.667,-10.667 21.333,-21.333 32,-32 -21.667,0 -43.333,0 -65,0 11,-21.667 22,-43.333 33,-65 0,-10.667 0,-21.333 0,-32 10.667,-10.667 21.333,-21.333 32,-32 21.333,0 42.667,0 64,0 -10.667,-21.333 -21.333,-42.667 -32,-64 10.966,-11.691 22.763,-22.712 33.213,-34.819 20.952,-31.651 42.351,-63.081 63.024,-94.87 11.193,-32.183 21.931,-64.554 33.407,-96.619 20.911,-42.667 42.033,-85.229 63.356,-127.692 -10.667,0 -21.333,0 -32,0 0,-21.333 0,-42.667 0,-64 -10.667,-10.667 -21.333,-21.333 -32,-32 -11,0 -22,0 -33,0 -10.667,-21.667 -21.333,-43.333 -32,-65 -21.333,-10.667 -42.667,-21.333 -64,-32 10.753,-21.822 22.03,-43.428 32.457,-65.384 10.514,-31.872 21.029,-63.744 31.543,-95.616 -21.542,-32.141 -42.788,-64.526 -64.515,-96.515 -10.495,-10.495 -20.99,-20.99 -31.485,-31.485 10.667,-43 21.333,-86 32,-129 -21.333,-21.333 -42.667,-42.667 -64,-64 -32.333,0 -64.667,0 -97,0 0,-32.333 0,-64.667 0,-97 -43.57,-11.04 -87.299,-21.529 -130.769,-32.913 -31.41,-10.363 -62.821,-20.725 -94.231,-31.087 0,-10.667 0,-21.333 0,-32 -42.867,-10.823 -85.876,-21.257 -128.654,-32.322 -21.568,-10.801 -43.529,-21.064 -64.853,-32.201 -10.544,-11.087 -21.578,-21.827 -31.819,-33.129 -10.558,-21.116 -21.116,-42.232 -31.674,-63.348 -10.667,0 -21.333,0 -32,0 -21.667,-32 -43.333,-64 -65,-96 -21.333,-11 -42.667,-22 -64,-33 -21.333,0 -42.667,0 -64,0 0,-21.333 0,-42.667 0,-64 -32.589,-10.59 -65.079,-21.791 -97.729,-32 -21.09,0 -42.181,0 -63.271,0 -32,-64.333 -64,-128.667 -96,-193 -21.667,10.667 -43.333,21.333 -65,32 -42.667,-10.667 -85.333,-21.333 -128,-32 -10.667,10.667 -21.333,21.333 -32,32 -43.146,-32.201 -86.488,-64.178 -129.511,-96.519 -21.215,-21.753 -42.904,-43.162 -63.823,-65.129 -10.889,-21.117 -21.777,-42.235 -32.666,-63.352 -10.667,0 -21.333,0 -32,0 -10.902,-21.459 -21.297,-43.284 -32.515,-64.515 -10.978,-11.36 -22.774,-22.009 -33.237,-33.815 -31.947,-42.373 -63.688,-84.925 -95.763,-127.185 -10.539,-10.76 -21.589,-21.15 -31.811,-32.137 -10.558,-21.116 -21.116,-42.232 -31.674,-63.348 -85.978,-75.378 -172.174,-150.525 -258.015,-226.046 -10.328,-10.652 -20.657,-21.303 -30.985,-31.954 0,-42.667 0,-85.333 0,-128 10.806,-22.396 22.343,-44.491 32.691,-67.074 10.437,-31.309 20.873,-62.617 31.309,-93.926 -10.638,-182.82 -21.504,-365.633 -32,-548.458 0.07,-128.818 -0.138,-257.641 0.103,-386.456 10.607,-300.091 21.42,-600.179 31.897,-900.273 0,-502.937 0,-1005.875 0,-1508.813 21.333,0 42.667,0 64,0 11.227,21.466 21.991,43.265 33.507,64.523 10.498,10.826 20.995,21.651 31.493,32.477 21.333,0 42.667,0 64,0 10.713,-11.262 21.916,-22.175 32.326,-33.652 10.558,-21.116 21.116,-42.232 31.674,-63.348 -21.333,-21.333 -42.667,-42.667 -64,-64 43,0 86,0 129,0 10.667,21.333 21.333,42.667 32,64 42.667,10.667 85.333,21.333 128,32 21.763,-21.567 43.833,-42.88 65.404,-64.606 21.199,-31.798 42.397,-63.596 63.596,-95.394 10.667,10.667 21.333,21.333 32,32 21.667,-10.667 43.333,-21.333 65,-32 10.667,21.333 21.333,42.667 32,64 42.867,-10.823 85.876,-21.257 128.654,-32.322 21.449,-10.559 42.897,-21.119 64.346,-31.678 10.667,0 21.333,0 32,0 10.667,-11 21.333,-22 32,-33 21.333,11 42.667,22 64,33 10.667,0 21.333,0 32,0 0,21.333 0,42.667 0,64 32.333,-21.333 64.667,-42.667 97,-64 10.667,-21.667 21.333,-43.333 32,-65 32,-10.667 64,-21.333 96,-32 21.667,-32.333 43.333,-64.667 65,-97 21.333,21.667 42.667,43.333 64,65 21.333,-10.667 42.667,-21.333 64,-32 11,-43 22,-86 33,-129 21.333,-10.667 42.667,-21.333 64,-32 21.333,0 42.667,0 64,0 0,-21.333 0,-42.667 0,-64 10.667,-11 21.333,-22 32,-33 43,11 86,22 129,33 10.86,11.134 22.32,21.775 32.809,33.213 21.063,31.596 42.127,63.191 63.191,94.787 10.667,0 21.333,0 32,0 11,10.667 22,21.333 33,32 21.333,0 42.667,0 64,0 0,-10.667 0,-21.333 0,-32 21.333,0 42.667,0 64,0 0,-32 0,-64 0,-96 43,-21.667 86,-43.333 129,-65 0,-21.333 0,-42.667 0,-64 53.667,0 107.333,0 161,0 0,-21.333 0,-42.667 0,-64 10.667,-21.333 21.333,-42.667 32,-64 21.333,0 42.667,0 64,0 10.904,-21.792 21.289,-43.955 32.515,-65.515 10.787,-10.472 21.095,-21.721 32.177,-31.713 32.358,-10.514 64.618,-21.639 97.037,-31.772 10.424,0 20.847,0 31.271,0 10.71,10.931 21.932,21.493 32.326,32.652 10.558,21.116 21.116,42.232 31.674,63.348 21.667,0 43.333,0 65,0 10.667,11 21.333,22 32,33 0,21.333 0,42.667 0,64 11.134,10.86 21.775,22.32 33.213,32.809 31.596,21.063 63.191,42.127 94.787,63.191 0,21.667 0,43.333 0,65 86.011,85.656 172.239,171.094 258,257 21.599,-21.405 42.924,-43.08 64,-65 0,-21.333 0,-42.667 0,-64 32,10.667 64,21.333 96,32 21.667,-10.667 43.333,-21.333 65,-32 10.667,-21.333 21.333,-42.667 32,-64 21.333,10.667 42.667,21.333 64,32 -10.667,10.667 -21.333,21.333 -32,32 10.667,32.333 21.333,64.667 32,97 -10.667,21.333 -21.333,42.667 -32,64 64.333,0 128.667,0 193,0 21.333,-10.667 42.667,-21.333 64,-32 0,10.667 0,21.333 0,32 43,-10.667 86,-21.333 129,-32 21.333,10.667 42.667,21.333 64,32 0,-43 0,-86 0,-129 10.667,-10.667 21.333,-21.333 32,-32 0,-21.333 0,-42.667 0,-64 21.667,-10.667 43.333,-21.333 65,-32 10.667,10.667 21.333,21.333 32,32 21.333,0 42.667,0 64,0 21.333,10.667 42.667,21.333 64,32 21.667,0 43.333,0 65,0 10.667,10.667 21.333,21.333 32,32 10.667,0 21.333,0 32,0 10.667,-21.333 21.333,-42.667 32,-64 -53.667,-85.667 -107.333,-171.333 -161,-257 -32.467,-21.828 -64.675,-44.099 -97.304,-65.652 -21.029,-10.68 -42.404,-20.873 -63.219,-31.855 -10.826,-10.498 -21.651,-20.995 -32.477,-31.493 0,-32 0,-64 0,-96 21.667,-21.667 43.333,-43.333 65,-65 32,0 64,0 96,0 10.667,-32 21.333,-64 32,-96 -10.667,-43 -21.333,-86 -32,-129 -10.71,-10.931 -21.932,-21.493 -32.326,-32.652 -10.558,-21.116 -21.116,-42.232 -31.674,-63.348 0,-32.333 0,-64.667 0,-97 21.333,-10.667 42.667,-21.333 64,-32 21.667,0 43.333,0 65,0 0.217,-10.858 -0.435,-21.922 0.326,-32.652 10.558,-21.116 21.116,-42.232 31.674,-63.348 -21.667,-21.667 -43.333,-43.333 -65,-65 -10.828,-0.27 -21.983,0.539 -32.606,-0.404 -31.798,-21.199 -63.596,-42.397 -95.394,-63.596 -21.667,0 -43.333,0 -65,0 0,-32 0,-64 0,-96 -10.667,-21.667 -21.333,-43.333 -32,-65 10.958,-10.644 21.439,-22.064 32.692,-32.228 32.103,-10.591 64.205,-21.181 96.308,-31.772 -10.667,-21.333 -21.333,-42.667 -32,-64 -53.667,-21.667 -107.333,-43.333 -161,-65 -21.333,-21.333 -42.667,-42.667 -64,-64 32,-21.333 64,-42.667 96,-64 -10.904,-21.792 -21.289,-43.955 -32.515,-65.515 -16.221,-16.103 -31.907,-32.778 -49.581,-47.328 -79.635,-69.719 -159.269,-139.438 -238.904,-209.157 -11.19,0.222 -22.59,-0.441 -33.652,0.326 -21.116,10.558 -42.232,21.116 -63.348,31.674 -10.667,-21.333 -21.333,-42.667 -32,-64 -21.333,0 -42.667,0 -64,0 0,-10.667 0,-21.333 0,-32 -21.667,-21.333 -43.333,-42.667 -65,-64 -42.667,0 -85.333,0 -128,0 -21.333,10.667 -42.667,21.333 -64,32 -21.667,-10.667 -43.333,-21.333 -65,-32 -64.333,64.333 -128.667,128.667 -193,193 -32,-11 -64,-22 -96,-33 0,-32 0,-64 0,-96 -10.667,-10.667 -21.333,-21.333 -32,-32 -21.667,10.667 -43.333,21.333 -65,32 -53.333,-10.667 -106.667,-21.333 -160,-32 -43.25,10.608 -86.443,21.685 -129.729,32 -74.757,0 -149.514,0 -224.271,0 -32.333,-10.667 -64.667,-21.333 -97,-32 -32,-32.333 -64,-64.667 -96,-97 -21.333,0 -42.667,0 -64,0 -11,21.667 -22,43.333 -33,65 -32.218,0.154 -64.536,-0.308 -96.691,0.23 -32.181,10.866 -64.561,21.244 -96.617,32.414 -21.231,10.452 -42.461,20.904 -63.692,31.356 -21.333,-10.667 -42.667,-21.333 -64,-32 -10.667,10.667 -21.333,21.333 -32,32 -10.667,-21.333 -21.333,-42.667 -32,-64 0,-53.667 0,-107.333 0,-161 -32.589,10.59 -65.079,21.791 -97.729,32 -42.424,0 -84.847,0 -127.271,0 -43.24,32.405 -86.296,65.108 -129.652,97.326 -21.116,10.558 -42.232,21.116 -63.348,31.674 -11,32 -22,64 -33,96 -10.667,10.667 -21.333,21.333 -32,32 -32,-10.667 -64,-21.333 -96,-32 -21.333,-21.333 -42.667,-42.667 -64,-64 0,-1029 0,-2058 0,-3087 32,0 64,0 96,0 -10.667,10.667 -21.333,21.333 -32,32 10.667,10.667 21.333,21.333 32,32 43,-10.667 86,-21.333 129,-32 21.333,10.667 42.667,21.333 64,32 0.217,-10.858 -0.435,-21.922 0.326,-32.652 10.558,-21.116 21.116,-42.232 31.674,-63.348 10.667,0 21.333,0 32,0 43,-32 86,-64 129,-96 43,0 86,0 129,0 10.667,-11 21.333,-22 32,-33 10.667,11 21.333,22 32,33 32,0 64,0 96,0 0,10.667 0,21.333 0,32 43,0 86,0 129,0 10.667,-10.667 21.333,-21.333 32,-32 21.333,10.667 42.667,21.333 64,32 10.667,-21.667 21.333,-43.333 32,-65 11,0 22,0 33,0 32.249,-21.378 64.31,-43.117 96.677,-64.269 53.441,-21.244 106.882,-42.487 160.323,-63.731 21.333,-21.667 42.667,-43.333 64,-65 96.667,43 193.333,86 290,129 10.667,-10.667 21.333,-21.333 32,-32 0,10.667 0,21.333 0,32 10.667,10.667 21.333,21.333 32,32 10.667,-21.333 21.333,-42.667 32,-64 21.333,21.333 42.667,42.667 64,64 10.667,-10.667 21.333,-21.333 32,-32 43,10.667 86,21.333 129,32 53.667,32.333 107.333,64.667 161,97 0,21.333 0,42.667 0,64 10.667,-10.667 21.333,-21.333 32,-32 1940,0 3880,0 5820,0 0,-21.333 0,-42.667 0,-64 -10.667,-11 -21.333,-22 -32,-33 -32.333,0 -64.667,0 -97,0 21.333,-32 42.667,-64 64,-96 -32,-21.333 -64,-42.667 -96,-64 -21.333,0 -42.667,0 -64,0 -10.932,10.707 -21.49,21.938 -32.654,32.322 -21.449,10.559 -42.897,21.119 -64.346,31.678 -21.333,0 -42.667,0 -64,0 -10.667,-43 -21.333,-86 -32,-129 10.667,-53.667 21.333,-107.333 32,-161 -43,0 -86,0 -129,0 0,-53.333 0,-106.667 0,-160 21.667,-21.667 43.333,-43.333 65,-65 10.667,-85.667 21.333,-171.333 32,-257 53.667,-53.667 107.333,-107.333 161,-161 21.333,0 42.667,0 64,0 21.333,-32 42.667,-64 64,-96 21.333,-10.667 42.667,-21.333 64,-32 21.667,21.333 43.333,42.667 65,64 21.333,-10.667 42.667,-21.333 64,-32 10.667,0 21.333,0 32,0 21.667,21.333 43.333,42.667 65,64 10.667,43 21.333,86 32,129 21.333,10.667 42.667,21.333 64,32 10.667,43 21.333,86 32,129 10.667,10.667 21.333,21.333 32,32 10.86,0.215 21.919,-0.429 32.654,0.322 21.449,10.559 42.897,21.119 64.346,31.678 32,-10.667 64,-21.333 96,-32 52.722,52.153 105.573,104.177 157.497,157.127 65.008,65.784 131.031,130.553 196.503,195.873 53.667,0 107.333,0 161,0 10.71,-10.931 21.932,-21.493 32.326,-32.652 10.558,-21.116 21.116,-42.232 31.674,-63.348 21.333,-10.667 42.667,-21.333 64,-32 10.667,-21.333 21.333,-42.667 32,-64 -10.667,-43 -21.333,-86 -32,-129 43,-10.667 86,-21.333 129,-32 42.667,-32.333 85.333,-64.667 128,-97 32.53,-42.817 64.86,-85.808 97.515,-128.515 32.107,-31.886 63.714,-64.267 95.485,-96.485 53.667,-107 107.333,-214 161,-321 21.667,-10.667 43.333,-21.333 65,-32 32,0 64,0 96,0 75,32 150,64 225,96 128.667,0 257.333,0 386,0 21.333,-21.333 42.667,-42.667 64,-64 32.333,-85.667 64.667,-171.333 97,-257 42.667,-32.333 85.333,-64.667 128,-97 10.667,-53.667 21.333,-107.333 32,-161 21.872,-32.145 43.469,-64.515 65.511,-96.519 21.163,-21.494 42.326,-42.987 63.489,-64.481 118,-53.333 236,-106.667 354,-160 31.952,-64.357 63.778,-128.777 96,-193 64.333,0 128.667,0 193,0 32.473,21.545 65.199,42.779 97.513,64.517 42.496,42.828 84.991,85.655 127.487,128.483 10.667,171.333 21.333,342.667 32,514 10.59,32.589 21.791,65.079 32,97.729 0,85.424 0,170.847 0,256.271 43.18,161.12 86.142,322.305 129.459,483.384 21.321,64.076 42.385,128.258 63.867,192.268 10.558,21.116 21.116,42.232 31.674,63.348 53.667,32.333 107.333,64.667 161,97 21.667,-10.667 43.333,-21.333 65,-32 85.887,10.79 171.858,21.206 257.691,32.23 31.77,10.59 63.539,21.18 95.309,31.77 32.405,43.24 65.108,86.296 97.326,129.652 21.233,42.704 42.867,85.259 63.849,128.055 10.769,42.963 21.131,86.075 32.152,128.944 32.225,64.116 64.449,128.233 96.673,192.349 -11,42.667 -22,85.333 -33,128 11.373,43.903 22.216,87.961 33.922,131.766 21.185,63.358 42.2,126.774 63.078,190.234 10.644,225.486 21.471,450.969 32,676.458 0.1,42.747 -0.189,85.532 0.142,128.257 10.619,53.428 21.239,106.857 31.858,160.285 -21.333,64 -42.667,128 -64,192 -10.627,129.154 -21.574,258.295 -32,387.458 0,149.514 0,299.028 0,448.542 10.667,43 21.333,86 32,129 -10.667,64.333 -21.333,128.667 -32,193 364.333,-107.333 728.667,-214.667 1093,-322 407.891,375.803 815.696,751.702 1223.64,1127.446 449.453,396.185 898.907,792.369 1348.36,1188.554 161,-43 322,-86 483,-129 42.667,10.667 85.333,21.333 128,32 32.333,32.333 64.667,64.667 97,97 10.667,21.333 21.333,42.667 32,64 11.841,-0.415 23.848,0.867 35.574,-0.71 52.476,-10.43 104.951,-20.86 157.426,-31.29 10.667,-21.667 21.333,-43.333 32,-65 10.856,0.223 21.927,-0.446 32.648,0.334 21.117,10.889 42.235,21.777 63.352,32.666 21.667,-21.667 43.333,-43.333 65,-65 0.302,-11.104 -0.607,-22.404 0.461,-33.383 10.436,-31.794 21.487,-63.489 31.539,-95.346 0,-10.757 0,-21.514 0,-32.271 21.552,-0.152 43.202,0.305 64.692,-0.228 32.103,-10.591 64.205,-21.181 96.308,-31.772 32.255,10.59 64.411,21.794 96.729,32 21.09,0 42.181,0 63.271,0 21.667,-10.667 43.333,-21.333 65,-32 42.667,0 85.333,0 128,0 0,-21.333 0,-42.667 0,-64 21.667,-21.333 43.333,-42.667 65,-64 0,-32.333 0,-64.667 0,-97 21.333,-10.667 42.667,-21.333 64,-32 0,-32 0,-64 0,-96 10.667,-11 21.333,-22 32,-33 32,0 64,0 96,0 11,11 22,22 33,33 10.667,-21.667 21.333,-43.333 32,-65 21.333,-10.667 42.667,-21.333 64,-32 10.667,-32 21.333,-64 32,-96 -10.667,-21.667 -21.333,-43.333 -32,-65 32.333,11 64.667,22 97,33 43.045,-21.982 86.31,-43.583 129.217,-65.803 31.927,-21.066 63.855,-42.131 95.783,-63.197 10.667,10.667 21.333,21.333 32,32 21.459,-10.902 43.284,-21.297 64.515,-32.515 21.162,-21.162 42.323,-42.323 63.485,-63.485 11,10.667 22,21.333 33,32 10.707,-10.932 21.938,-21.49 32.322,-32.654 10.559,-21.449 21.119,-42.897 31.678,-64.346 10.667,0 21.333,0 32,0 21.333,-32 42.667,-64 64,-96 53.667,0 107.333,0 161,0 10.667,-10.667 21.333,-21.333 32,-32 32.208,32.127 64.12,64.555 97,96 10.667,-21.333 21.333,-42.667 32,-64 32,-21.667 64,-43.333 96,-65 43,43 86,86 129,129 -10.667,-32 -21.333,-64 -32,-96 21.333,0 42.667,0 64,0 10.667,-11 21.333,-22 32,-33 0,11 0,22 0,33 32.333,10.667 64.667,21.333 97,32 10.667,-10.667 21.333,-21.333 32,-32 10.667,32 21.333,64 32,96 10.667,-10.667 21.333,-21.333 32,-32 21.333,0 42.667,0 64,0 -10.667,10.667 -21.333,21.333 -32,32 10.667,21.333 21.333,42.667 32,64 21.667,0 43.333,0 65,0 10.904,21.792 21.289,43.955 32.515,65.515 10.495,10.495 20.99,20.99 31.485,31.485 -10.667,10.667 -21.333,21.333 -32,32 21.333,21.333 42.667,42.667 64,64 0,11 0,22 0,33 21.333,21.333 42.667,42.667 64,64 -10.59,32.255 -21.794,64.411 -32,96.729 0,10.424 0,20.847 0,31.271 32.333,0 64.667,0 97,0 0,11 0,22 0,33 -21.667,21.333 -43.333,42.667 -65,64 11,42.667 22,85.333 33,128 -11,0 -22,0 -33,0 -10.667,11 -21.333,22 -32,33 -10.667,-11 -21.333,-22 -32,-33 -10.667,11 -21.333,22 -32,33 10.667,21.333 21.333,42.667 32,64 -10.667,32 -21.333,64 -32,96 -21.333,0 -42.667,0 -64,0 -0.312,11.435 0.621,23.073 -0.461,34.383 -10.513,31.539 -21.026,63.078 -31.539,94.617 -11,0 -22,0 -33,0 -32,21.333 -64,42.667 -96,64 0,32.333 0,64.667 0,97 -21.333,32 -42.667,64 -64,96 21.599,21.405 42.924,43.08 64,65 21.333,53.333 42.667,106.667 64,160 10.667,10.667 21.333,21.333 32,32 0,21.667 0,43.333 0,65 11,0 22,0 33,0 10.667,10.667 21.333,21.333 32,32 21.333,-32.333 42.667,-64.667 64,-97 43,0 86,0 129,0 10.667,-10.667 21.333,-21.333 32,-32 10.667,0 21.333,0 32,0 10.667,-10.667 21.333,-21.333 32,-32 43,0 86,0 129,0 21.333,-10.667 42.667,-21.333 64,-32 0,-10.667 0,-21.333 0,-32 21.333,-21.333 42.667,-42.667 64,-64 11,-32.333 22,-64.667 33,-97 10.667,-10.667 21.333,-21.333 32,-32 0,-32 0,-64 0,-96 21.333,10.667 42.667,21.333 64,32 10.667,-10.667 21.333,-21.333 32,-32 -10.667,-21.667 -21.333,-43.333 -32,-65 10.667,-10.667 21.333,-21.333 32,-32 -10.667,-10.667 -21.333,-21.333 -32,-32 -0.216,-10.859 0.432,-21.921 -0.324,-32.653 -21.225,-42.782 -42.451,-85.565 -63.676,-128.347 21.333,-10.667 42.667,-21.333 64,-32 10.667,-32.333 21.333,-64.667 32,-97 10.667,-10.667 21.333,-21.333 32,-32 10.667,0 21.333,0 32,0 11,-21.333 22,-42.667 33,-64 32,-21.333 64,-42.667 96,-64 -10.667,-10.667 -21.333,-21.333 -32,-32 21.333,-21.667 42.667,-43.333 64,-65 21.333,-64.333 42.667,-128.667 64,-193 11,11 22,22 33,33 32,-21.667 64,-43.333 96,-65 53.667,0 107.333,0 161,0 10.667,10.667 21.333,21.333 32,32 -10.667,11 -21.333,22 -32,33 10.667,10.667 21.333,21.333 32,32 10.667,-10.667 21.333,-21.333 32,-32 21.667,10.667 43.333,21.333 65,32 32.255,-10.59 64.411,-21.794 96.729,-32 21.09,0 42.181,0 63.271,0 10.667,21.333 21.333,42.667 32,64 -10.667,10.667 -21.333,21.333 -32,32 21.667,0 43.333,0 65,0 21.377,-21.597 43.266,-42.826 64.324,-64.653 21.212,-43.041 42.909,-85.917 63.818,-129.062 10.619,-53.428 21.239,-106.857 31.858,-160.285 10.65,-10.956 22.052,-21.443 32.237,-32.689 10.921,-31.771 21.842,-63.541 32.763,-95.311 -32.333,-11 -64.667,-22 -97,-33 0,-21.333 0,-42.667 0,-64 10.667,-10.667 21.333,-21.333 32,-32 10.608,-43.25 21.685,-86.443 32,-129.729 0,-42.424 0,-84.847 0,-127.271 11,-32.333 22,-64.667 33,-97 -11,-32 -22,-64 -33,-96 21.884,-0.155 43.869,0.309 65.691,-0.23 31.77,-10.59 63.539,-21.18 95.309,-31.77 0,-21.667 0,-43.333 0,-65 32.333,-21.333 64.667,-42.667 97,-64 21.333,21.333 42.667,42.667 64,64 10.667,0 21.333,0 32,0 10.667,-10.667 21.333,-21.333 32,-32 21.667,21.667 43.333,43.333 65,65 -10.667,32 -21.333,64 -32,96 10.667,10.667 21.333,21.333 32,32 21.333,-10.667 42.667,-21.333 64,-32 43,10.667 86,21.333 129,32 0,-21.333 0,-42.667 0,-64 21.333,-10.667 42.667,-21.333 64,-32 21.545,-32.472 42.779,-65.2 64.518,-97.513 32.255,-32.064 64.822,-63.872 96.883,-96.095 21.2,-32.131 42.399,-64.261 63.599,-96.392 -10.645,-10.958 -22.061,-21.44 -32.23,-32.691 -10.59,-31.77 -21.18,-63.539 -31.77,-95.309 21.333,-21.667 42.667,-43.333 64,-65 10.667,0 21.333,0 32,0 10.667,11 21.333,22 32,33 0,10.667 0,21.333 0,32 10.667,10.667 21.333,21.333 32,32 21.667,-10.667 43.333,-21.333 65,-32 10.904,-21.792 21.289,-43.955 32.515,-65.515 21.162,-21.162 42.323,-42.323 63.485,-63.485 -10.667,-10.667 -21.333,-21.333 -32,-32 32,0 64,0 96,0 0,32 0,64 0,96 32.333,0 64.667,0 97,0 0,-21.333 0,-42.667 0,-64 21.333,-32 42.667,-64 64,-96 -10.667,-10.667 -21.333,-21.333 -32,-32 64.333,-43 128.667,-86 193,-129 21.333,-32.333 42.667,-64.667 64,-97 10.716,11.26 21.911,22.178 32.33,33.65 21.557,42.45 43.113,84.9 64.67,127.35 -10.667,10.667 -21.333,21.333 -32,32 0,11 0,22 0,33 21.572,21.768 43.563,43.173 64.875,65.166 31.906,42.427 63.604,85.035 95.64,127.349 10.829,10.829 21.657,21.657 32.485,32.485 10.857,-0.22 21.925,0.44 32.65,-0.33 42.45,-21.557 84.9,-43.113 127.35,-64.67 0,-21.333 0,-42.667 0,-64 10.667,0 21.333,0 32,0 11,-32 22,-64 33,-96 0,-21.667 0,-43.333 0,-65 10.667,-10.667 21.333,-21.333 32,-32 21.333,10.667 42.667,21.333 64,32 10.86,-0.215 21.919,0.429 32.654,-0.322 21.449,-10.559 42.897,-21.119 64.346,-31.678 10.667,0 21.333,0 32,0 21.429,-21.567 43.163,-42.886 64.401,-64.608 21.2,-32.131 42.399,-64.261 63.599,-96.392 10.667,0 21.333,0 32,0 21.667,-21.333 43.333,-42.667 65,-64 32,0 64,0 96,0 21.667,-32 43.333,-64 65,-96 -11,0 -22,0 -33,0 11,-21.667 22,-43.333 33,-65 -11,-10.667 -22,-21.333 -33,-32 21.667,-10.667 43.333,-21.333 65,-32 32,-53.667 64,-107.333 96,-161 32.333,-21.333 64.667,-42.667 97,-64 0,-21.333 0,-42.667 0,-64 10.667,10.667 21.333,21.333 32,32 32,-10.667 64,-21.333 96,-32 43.233,-43.098 86.222,-86.492 129.606,-129.404 31.798,-21.199 63.596,-42.397 95.394,-63.596 10.667,10.667 21.333,21.333 32,32 11,0 22,0 33,0 32,-21.667 64,-43.333 96,-65 0,-10.667 0,-21.333 0,-32 21.333,-21.333 42.667,-42.667 64,-64 0,-10.667 0,-21.333 0,-32 21.667,-21.333 43.333,-42.667 65,-64 21.333,10.667 42.667,21.333 64,32 43,0 86,0 129,0 10.667,32 21.333,64 32,96 -21.875,32.475 -43.457,65.191 -65.515,97.515 -31.829,31.829 -63.657,63.657 -95.485,95.485 10.667,10.667 21.333,21.333 32,32 -10.709,10.932 -21.935,21.492 -32.324,32.653 -21.225,42.782 -42.451,85.565 -63.676,128.347 -0.299,11.105 0.602,22.402 -0.457,33.384 -10.514,31.872 -21.029,63.744 -31.543,95.616 10.667,10.667 21.333,21.333 32,32 53.333,0 106.667,0 160,0 11.041,10.934 22.615,21.477 33.326,32.652 10.794,21.242 21.08,42.849 32.189,63.863 10.495,10.495 20.99,20.99 31.485,31.485 10.667,-10.667 21.333,-21.333 32,-32 -10.667,-10.667 -21.333,-21.333 -32,-32 0,-21.333 0,-42.667 0,-64 21.333,-10.667 42.667,-21.333 64,-32 0,-64.333 0,-128.667 0,-193 21.599,-21.405 42.924,-43.08 64,-65 0,-10.667 0,-21.333 0,-32 22.159,-21.167 43.815,-42.895 65.606,-64.404 31.798,-21.199 63.596,-42.397 95.394,-63.596 0,-11 0,-22 0,-33 21.667,0 43.333,0 65,0 10.667,-21.333 21.333,-42.667 32,-64 21.459,-10.902 43.284,-21.297 64.515,-32.515 10.495,-10.495 20.99,-20.99 31.485,-31.485 21.667,10.667 43.333,21.333 65,32 10.667,0 21.333,0 32,0 32,-32 64,-64 96,-96 11.162,-22.22 21.63,-44.843 33.226,-66.811 21.258,-31.396 42.516,-62.793 63.774,-94.189 0,-21.667 0,-43.333 0,-65 32,0 64,0 96,0 21.333,-10.667 42.667,-21.333 64,-32 32.333,0 64.667,0 97,0 21.333,-10.667 42.667,-21.333 64,-32 0,-32 0,-64 0,-96 21.333,-21.667 42.667,-43.333 64,-65 11,-32 22,-64 33,-96 21.333,-21.333 42.667,-42.667 64,-64 10.608,-43.25 21.685,-86.443 32,-129.729 0.299,-10.861 -0.601,-21.916 0.457,-32.655 10.514,-31.872 21.029,-63.744 31.543,-95.616 -10.667,0 -21.333,0 -32,0 -10.667,-32 -21.333,-64 -32,-96 10.667,-10.667 21.333,-21.333 32,-32 0,-32.333 0,-64.667 0,-97 -10.667,0 -21.333,0 -32,0 0.18,-10.875 -0.359,-21.888 0.269,-32.677 21.244,-53.441 42.487,-106.882 63.731,-160.323 0,-21.333 0,-42.667 0,-64 10.667,-10.667 21.333,-21.333 32,-32 -10.667,-21.333 -21.333,-42.667 -32,-64 10.667,0 21.333,0 32,0 0,-32.333 0,-64.667 0,-97 -21.333,0 -42.667,0 -64,0 0.415,-11.841 -0.867,-23.848 0.71,-35.574 10.383,-52.723 21.144,-105.409 31.29,-158.155 0,-74.757 0,-149.514 0,-224.271 21.792,-10.904 43.955,-21.289 65.515,-32.515 10.786,-10.474 21.096,-21.718 32.176,-31.715 31.77,-10.59 63.539,-21.18 95.309,-31.77 0,-21.667 0,-43.333 0,-65 10.667,0 21.333,0 32,0 32.393,-31.94 64.944,-63.721 97,-96 10.667,0 21.333,0 32,0 21.333,-21.333 42.667,-42.667 64,-64 10.667,10.667 21.333,21.333 32,32 10.667,-10.667 21.333,-21.333 32,-32 11,10.667 22,21.333 33,32 21.333,0 42.667,0 64,0 21.333,10.667 42.667,21.333 64,32 32.333,-21.333 64.667,-42.667 97,-64 10.667,0 21.333,0 32,0 21.333,21.333 42.667,42.667 64,64 53.667,0 107.333,0 161,0 10.667,32 21.333,64 32,96 21.333,-10.667 42.667,-21.333 64,-32 11,-32 22,-64 33,-96 42.667,0 85.333,0 128,0 21.333,10.667 42.667,21.333 64,32 11.038,-10.935 22.62,-21.474 33.322,-32.654 10.559,-21.449 21.119,-42.897 31.678,-64.346 10.856,0.223 21.927,-0.446 32.648,0.334 21.117,10.889 42.235,21.777 63.352,32.666 10.667,-11 21.333,-22 32,-33 0,-10.667 0,-21.333 0,-32 21.405,-21.599 43.08,-42.924 65,-64 0,-10.667 0,-21.333 0,-32 42.667,-32.333 85.333,-64.667 128,-97 21.667,21.667 43.333,43.333 65,65 -10.667,21.333 -21.333,42.667 -32,64 32,0 64,0 96,0 10.667,10.667 21.333,21.333 32,32 10.667,-10.667 21.333,-21.333 32,-32 -0.117,-21.562 0.234,-43.181 -0.175,-64.707 -10.609,-42.765 -21.217,-85.529 -31.825,-128.293 10.667,-10.667 21.333,-21.333 32,-32 32.333,0 64.667,0 97,0 21.333,-32 42.667,-64 64,-96 10.667,0 21.333,0 32,0 0,-32.333 0,-64.667 0,-97 21.333,0 42.667,0 64,0 21.667,-21.333 43.333,-42.667 65,-64 11.104,-0.302 22.404,0.607 33.383,-0.461 31.539,-10.513 63.078,-21.026 94.617,-31.539 10.667,-11 21.333,-22 32,-33 32.333,0 64.667,0 97,0 43,21.667 86,43.333 129,65 0,10.667 0,21.333 0,32 32,0 64,0 96,0 21.381,-21.595 43.258,-42.83 64.33,-64.65 10.89,-21.45 21.78,-42.9 32.67,-64.35 10.826,0.273 21.986,-0.545 32.604,0.409 31.798,21.53 63.597,43.061 95.396,64.591 10.667,0 21.333,0 32,0 10.667,-11 21.333,-22 32,-33 11,0 22,0 33,0 32,-21.333 64,-42.667 96,-64 10.667,0 21.333,0 32,0 0.152,-32.219 -0.304,-64.535 0.228,-96.692 10.591,-32.103 21.181,-64.205 31.772,-96.308 -10.667,0 -21.333,0 -32,0 0,-21.333 0,-42.667 0,-64 43,-21.333 86,-42.667 129,-64 10.667,21.333 21.333,42.667 32,64 85.896,53.754 171.698,107.675 257.653,161.324 42.782,21.225 85.565,42.451 128.347,63.676 45.432,-14.92 90.515,-30.942 136.476,-44.193 93.841,-28.269 187.683,-56.538 281.524,-84.807 42.667,0 85.333,0 128,0 11,10.667 22,21.333 33,32 32,0 64,0 96,0 0,53.667 0,107.333 0,161 10.955,32.738 21.366,65.703 32.66,98.3 21.447,42.233 42.893,84.467 64.34,126.7 52.904,54.093 106.475,107.524 160,161 21.667,32.333 43.333,64.667 65,97 75,42.667 150,85.333 225,128 64.545,-10.807 129.202,-21.211 193.677,-32.271 53.107,-21.243 106.215,-42.486 159.323,-63.729 43.731,10.73 87.368,21.909 131.157,32.358 128.194,21.174 256.362,42.666 384.572,63.642 21.09,0 42.181,0 63.271,0 21.333,32.333 42.667,64.667 64,97 0,10.667 0,21.333 0,32 107.333,32 214.667,64 322,96 32,21.667 64,43.333 96,65 11,0 22,0 33,0 21.333,21.333 42.667,42.667 64,64 10.667,53.667 21.333,107.333 32,161 -10.817,53.539 -21.224,107.208 -32.296,160.666 -42.901,96.445 -85.803,192.889 -128.704,289.334 10.667,171.333 21.333,342.667 32,514 -10.667,21.667 -21.333,43.333 -32,65 -42.976,32.385 -86.27,64.396 -129.046,97.015 -10.692,10.595 -21.918,20.8 -32.28,31.637 -10.792,21.243 -21.082,42.847 -32.187,63.865 -42.496,42.828 -84.991,85.655 -127.487,128.483 -10.608,43.25 -21.685,86.443 -32,129.729 0,31.757 0,63.514 0,95.271 42.667,21.333 85.333,42.667 128,64 32.405,43.24 65.108,86.296 97.326,129.652 10.558,21.116 21.116,42.232 31.674,63.348 21.333,11 42.667,22 64,33 10.667,42.667 21.333,85.333 32,128 21.896,21.435 43.567,43.145 65.604,64.409 31.941,21.738 64.117,43.19 95.911,65.106 31.829,31.829 63.657,63.657 95.485,95.485 43,21.667 86,43.333 129,65 10.667,0 21.333,0 32,0 10.675,10.947 22.002,21.461 32.274,32.675 21.576,53.108 43.151,106.217 64.726,159.325 -0.222,11.19 0.441,22.59 -0.326,33.652 -10.558,21.116 -21.116,42.232 -31.674,63.348 10.667,32 21.333,64 32,96 21.333,11 42.667,22 64,33 32,160.667 64,321.333 96,482 53.667,128.667 107.333,257.333 161,386 10.667,85.667 21.333,171.333 32,257 32.333,64.333 64.667,128.667 97,193 85.667,0 171.333,0 257,0 -0.302,11.104 0.607,22.404 -0.461,33.383 -10.436,31.794 -21.487,63.489 -31.539,95.346 0,21.424 0,42.847 0,64.271 10.667,10.667 21.333,21.333 32,32 -10.667,21.333 -21.333,42.667 -32,64 11.144,21.898 21.683,44.145 33.204,65.825 35.335,53.657 70.635,107.338 106.928,160.354 6.956,10.274 13.912,20.547 20.868,30.821 -0.119,21.895 0.237,43.848 -0.177,65.707 -10.608,42.431 -21.215,84.862 -31.823,127.293 -32.333,32.333 -64.667,64.667 -97,97 -21.333,75 -42.667,150 -64,225 10.667,42.667 21.333,85.333 32,128 31.94,32.393 63.721,64.944 96,97 0,64.333 0,128.667 0,193 -12.095,11.617 -23.271,24.26 -35.981,35.19 -52.34,41.937 -104.679,83.873 -157.019,125.81 -42.667,64.333 -85.333,128.667 -128,193 -10.947,32.408 -21.386,65.027 -32.652,97.304 -10.449,20.899 -20.899,41.797 -31.348,62.696 32,150.333 64,300.667 96,451 -21.418,128.319 -42.751,256.653 -64,385 21.333,32.333 42.667,64.667 64,97 0,75 0,150 0,225 21.333,0 42.667,0 64,0 32.333,-21.667 64.667,-43.333 97,-65 32.199,43.149 64.183,86.482 96.515,129.515 10.495,10.495 20.99,20.99 31.485,31.485 11.157,43.199 21.927,86.543 33.326,129.652 10.558,21.116 21.116,42.232 31.674,63.348 -10.667,10.667 -21.333,21.333 -32,32 -0.228,11.188 0.452,22.596 -0.334,33.648 -10.974,21.607 -22.498,42.982 -33.127,64.735 -10.513,31.539 -21.026,63.078 -31.539,94.617 10.667,32.333 21.333,64.667 32,97 -10.667,64.333 -21.333,128.667 -32,193 21.667,53.333 43.333,106.667 65,160 0,53.667 0,107.333 0,161 21.38,21.929 43.255,43.502 64.326,65.652 21.225,42.449 42.449,84.899 63.674,127.348 0,128.667 0,257.333 0,386 21.333,32 42.667,64 64,96 32.593,21.685 64.955,43.838 97.691,65.23 31.77,10.59 63.539,21.18 95.309,31.77 10.667,21.333 21.333,42.667 32,64 32.333,10.667 64.667,21.333 97,32 32,96.667 64,193.333 96,290 0,53.333 0,106.667 0,160 -10.667,0 -21.333,0 -32,0 0,11 0,22 0,33 10.716,10.928 21.921,21.498 32.334,32.648 10.889,21.117 21.777,42.235 32.666,63.352 0,21.333 0,42.667 0,64 32.072,43.24 64.436,86.3 96.326,129.652 21.436,42.678 42.651,85.465 63.674,128.348 21.667,21.333 43.333,42.667 65,64 21.333,0 42.667,0 64,0 21.333,10.667 42.667,21.333 64,32 -0.215,10.86 0.429,21.919 -0.322,32.654 -10.559,21.449 -21.119,42.897 -31.678,64.346 10.667,32 21.333,64 32,96 -21.333,10.667 -42.667,21.333 -64,32 0,32.333 0,64.667 0,97 10.667,21.333 21.333,42.667 32,64 21.333,0 42.667,0 64,0 -10.667,21.333 -21.333,42.667 -32,64 -21.333,10.667 -42.667,21.333 -64,32 0,11 0,22 0,33 21.333,32 42.667,64 64,96 -10.667,10.667 -21.333,21.333 -32,32 21.333,21.333 42.667,42.667 64,64 11,0 22,0 33,0 10.667,-10.667 21.333,-21.333 32,-32 53.333,32.333 106.667,64.667 160,97 -10.667,10.667 -21.333,21.333 -32,32 0,43 0,86 0,129 -21.333,21.333 -42.667,42.667 -64,64 10.667,32 21.333,64 32,96 -21.333,10.667 -42.667,21.333 -64,32 0,11 0,22 0,33 -10.667,0 -21.333,0 -32,0 -10.667,32 -21.333,64 -32,96 -21.792,10.904 -43.955,21.289 -65.515,32.515 -10.758,10.541 -21.152,21.584 -32.135,31.815 -42.45,21.557 -84.9,43.113 -127.35,64.67 0,21.333 0,42.667 0,64 10.667,0 21.333,0 32,0 -10.667,21.333 -21.333,42.667 -32,64 -11,-10.667 -22,-21.333 -33,-32 -10.667,10.667 -21.333,21.333 -32,32 0,21.667 0,43.333 0,65 -10.667,21.333 -21.333,42.667 -32,64 -10.667,0 -21.333,0 -32,0 -10.667,10.667 -21.333,21.333 -32,32 10.667,32.333 21.333,64.667 32,97 -10.667,10.667 -21.333,21.333 -32,32 0,10.667 0,21.333 0,32 -10.667,10.667 -21.333,21.333 -32,32 10.667,21.333 21.333,42.667 32,64 0,21.667 0,43.333 0,65 32,32 64,64 96,96 0,21.333 0,42.667 0,64 -21.333,0 -42.667,0 -64,0 0,11 0,22 0,33 10.71,10.931 21.932,21.493 32.326,32.652 10.558,21.116 21.116,42.232 31.674,63.348 0,10.667 0,21.333 0,32 -10.667,10.667 -21.333,21.333 -32,32 -10.667,0 -21.333,0 -32,0 -10.667,10.667 -21.333,21.333 -32,32 -32.333,0 -64.667,0 -97,0 0,21.667 0,43.333 0,65 -21.333,10.667 -42.667,21.333 -64,32 -10.667,-10.667 -21.333,-21.333 -32,-32 0,10.667 0,21.333 0,32 -32.333,0 -64.667,0 -97,0 0,32 0,64 0,96 10.667,0 21.333,0 32,0 11,10.667 22,21.333 33,32 -11,11 -22,22 -33,33 -32,-11 -64,-22 -96,-33 -10.667,11 -21.333,22 -32,33 0,10.667 0,21.333 0,32 -21.333,10.667 -42.667,21.333 -64,32 -11.227,-21.466 -21.991,-43.265 -33.507,-64.523 -20.905,-21.748 -42.07,-43.24 -63.493,-64.477 0,-10.667 0,-21.333 0,-32 -42.667,0 -85.333,0 -128,0 -21.667,-10.667 -43.333,-21.333 -65,-32 0,10.667 0,21.333 0,32 -32,-21.333 -64,-42.667 -96,-64 -10.667,10.667 -21.333,21.333 -32,32 0,32 0,64 0,96 -21.667,11 -43.333,22 -65,33 0,32 0,64 0,96 10.667,0 21.333,0 32,0 11,32.333 22,64.667 33,97 -21.667,10.667 -43.333,21.333 -65,32 0.302,11.104 -0.607,22.404 0.461,33.383 10.513,31.539 21.026,63.078 31.539,94.617 32.333,21.667 64.667,43.333 97,65 21.333,-10.667 42.667,-21.333 64,-32 10.667,21.333 21.333,42.667 32,64 11,0 22,0 33,0 10.667,10.667 21.333,21.333 32,32 0,-10.667 0,-21.333 0,-32 21.333,0 42.667,0 64,0 10.667,10.667 21.333,21.333 32,32 43,10.667 86,21.333 129,32 10.667,21.333 21.333,42.667 32,64 21.333,11 42.667,22 64,33 0,10.667 0,21.333 0,32 10.667,10.667 21.333,21.333 32,32 0,10.667 0,21.333 0,32 -10.667,10.667 -21.333,21.333 -32,32 21.333,10.667 42.667,21.333 64,32 0,10.667 0,21.333 0,32 11,0 22,0 33,0 32.072,43.24 64.436,86.3 96.326,129.652 10.558,21.116 21.116,42.232 31.674,63.348 21.667,0 43.333,0 65,0 10.904,21.792 21.289,43.955 32.515,65.515 21.162,21.162 42.323,42.323 63.485,63.485 0,10.667 0,21.333 0,32 21.333,-10.667 42.667,-21.333 64,-32 21.761,21.569 43.837,42.878 65.401,64.608 21.2,32.131 42.399,64.261 63.599,96.392 43,0 86,0 129,0 21.333,10.667 42.667,21.333 64,32 21.333,0 42.667,0 64,0 0,32 0,64 0,96 43,11 86,22 129,33 32,32 64,64 96,96 10.667,0 21.333,0 32,0 11,10.667 22,21.333 33,32 21.333,0 42.667,0 64,0 21.333,43 42.667,86 64,129 -10.667,21.333 -21.333,42.667 -32,64 32.333,32.333 64.667,64.667 97,97 21.333,10.667 42.667,21.333 64,32 42.667,0 85.333,0 128,0 52.722,52.153 105.573,104.177 157.497,157.127 11.879,12.221 24.261,24.081 35.829,36.525 11.601,23.845 24.269,47.193 35.136,71.379 31.18,72.323 62.359,144.646 93.538,216.969 0,32 0,64 0,96 43,43 86,86 129,129 10.703,32.492 21.876,64.86 32.284,97.43 10.572,53.19 21.144,106.38 31.716,159.57 43.231,54.099 86.753,107.986 129.803,162.217 21.066,31.927 42.131,63.855 63.197,95.783 11.04,43.57 21.529,87.299 32.913,130.769 10.363,31.41 20.725,62.821 31.087,94.231 43.25,10.608 86.443,21.685 129.729,32 64.09,0 128.181,0 192.271,0 21.456,-10.905 43.289,-21.292 64.511,-32.519 21.428,-21.538 42.479,-43.592 64.141,-64.807 21.116,-10.558 42.232,-21.116 63.348,-31.674 33.297,10.83 66.431,22.224 99.83,32.702 42.056,10.433 84.113,20.865 126.17,31.298 32,32.333 64,64.667 96,97 129.102,42.892 258.205,85.805 387.352,128.546 53.216,21.484 106.432,42.969 159.648,64.454 53.333,42.667 106.667,85.333 160,128 21.711,32.583 43.786,64.974 65.269,97.677 21.244,53.441 42.487,106.882 63.731,160.323 85.988,75.367 172.153,150.546 258.031,226.031 10.323,10.323 20.646,20.646 30.969,30.969 11,0 22,0 33,0 0,-43 0,-86 0,-129 10.667,-10.667 21.333,-21.333 32,-32 0,-21.333 0,-42.667 0,-64 -10.713,-10.93 -21.927,-21.496 -32.33,-32.65 -10.89,-21.45 -21.78,-42.9 -32.67,-64.35 -53.333,-21.333 -106.667,-42.667 -160,-64 -32.333,-64.333 -64.667,-128.667 -97,-193 0,-43 0,-86 0,-129 -21.333,-10.667 -42.667,-21.333 -64,-32 -43,0 -86,0 -129,0 -10.667,-32 -21.333,-64 -32,-96 -43.25,-10.608 -86.443,-21.685 -129.729,-32 -10.424,0 -20.847,0 -31.271,0 0,-10.667 0,-21.333 0,-32 32.531,-43.149 64.855,-86.478 97.515,-129.515 10.539,-10.76 21.589,-21.15 31.811,-32.137 10.558,-21.116 21.116,-42.232 31.674,-63.348 0,-21.667 0,-43.333 0,-65 -43,-42.667 -86,-85.333 -129,-128 -32,-11 -64,-22 -96,-33 10.902,-21.459 21.297,-43.284 32.515,-64.515 21.162,-21.162 42.323,-42.323 63.485,-63.485 11.21,-54.113 21.971,-108.346 33.461,-162.383 10.675,-32.503 21.932,-64.837 32.241,-97.447 10.433,-42.056 20.865,-84.113 31.298,-126.17 21.333,-21.333 42.667,-42.667 64,-64 -10.667,-32.333 -21.333,-64.667 -32,-97 21.333,-42.667 42.667,-85.333 64,-128 11,-10.667 22,-21.333 33,-32 -11.234,-21.793 -21.972,-43.947 -33.515,-65.515 -10.495,-10.495 -20.99,-20.99 -31.485,-31.485 0,-10.667 0,-21.333 0,-32 21.667,-10.667 43.333,-21.333 65,-32 -21.667,-21.667 -43.333,-43.333 -65,-65 0,-10.667 0,-21.333 0,-32 10.667,-10.667 21.333,-21.333 32,-32 32.333,0 64.667,0 97,0 10.667,-21.333 21.333,-42.667 32,-64 0,-43 0,-86 0,-129 -10.902,-21.459 -21.297,-43.284 -32.515,-64.515 -21.162,-21.162 -42.323,-42.323 -63.485,-63.485 0,-32.333 0,-64.667 0,-97 -21.667,0 -43.333,0 -65,0 -10.667,-10.667 -21.333,-21.333 -32,-32 10.667,-43 21.333,-86 32,-129 -10.667,-32 -21.333,-64 -32,-96 10.667,-10.667 21.333,-21.333 32,-32 0,-32.333 0,-64.667 0,-97 32.333,-21.333 64.667,-42.667 97,-64 0,-53.667 0,-107.333 0,-161 21.333,-21.333 42.667,-42.667 64,-64 0,-10.667 0,-21.333 0,-32 -10.667,-10.667 -21.333,-21.333 -32,-32 0,-75 0,-150 0,-225 21.333,-53.667 42.667,-107.333 64,-161 32.866,-22.172 66.023,-43.946 98.707,-66.366 52.765,-42.211 105.529,-84.423 158.293,-126.634 11,-21.667 22,-43.333 33,-65 0,-32 0,-64 0,-96 21.537,-32.147 42.799,-64.515 64.507,-96.523 10.498,-10.826 20.995,-21.651 31.493,-32.477 32,0 64,0 96,0 11,-10.667 22,-21.333 33,-32 0,-32 0,-64 0,-96 32,0 64,0 96,0 21.596,-21.38 42.829,-43.261 64.651,-64.328 42.783,-21.557 85.566,-43.115 128.349,-64.672 10.932,-10.707 21.49,-21.938 32.654,-32.322 21.449,-10.559 42.897,-21.119 64.346,-31.678 32,10.667 64,21.333 96,32 43,-43 86,-86 129,-129 32.476,-0.136 64.991,0.273 97.443,-0.205 74.519,-10.598 149.038,-21.197 223.557,-31.795 10.667,-10.667 21.333,-21.333 32,-32 0,-32 0,-64 0,-96 10.667,-10.667 21.333,-21.333 32,-32 -10.667,-21.667 -21.333,-43.333 -32,-65 0,-21.333 0,-42.667 0,-64 10.667,-10.667 21.333,-21.333 32,-32 11.19,0.222 22.59,-0.441 33.652,0.326 21.116,10.558 42.232,21.116 63.348,31.674 32.218,0.152 64.535,-0.305 96.692,0.228 32.103,10.591 64.205,21.181 96.308,31.772 0,-10.667 0,-21.333 0,-32 10.958,-10.645 21.44,-22.061 32.691,-32.23 31.77,-10.59 63.539,-21.18 95.309,-31.77 21.92,21.076 43.595,42.401 65,64 32.255,-10.59 64.411,-21.794 96.729,-32 10.616,0.216 21.434,-0.432 31.924,0.324 42.782,21.225 85.565,42.451 128.347,63.676 10.667,43 21.333,86 32,129 10.667,10.667 21.333,21.333 32,32 32.333,0 64.667,0 97,0 42.667,21.333 85.333,42.667 128,64 64.333,0 128.667,0 193,0 10.667,-10.667 21.333,-21.333 32,-32 11,10.667 22,21.333 33,32 10.667,0 21.333,0 32,0 10.667,-10.667 21.333,-21.333 32,-32 21.333,0 42.667,0 64,0 10.667,43 21.333,86 32,129 -10.667,10.667 -21.333,21.333 -32,32 0,42.667 0,85.333 0,128 10.667,0 21.333,0 32,0 0,21.667 0,43.333 0,65 43,42.667 86,85.333 129,128 32,-21.333 64,-42.667 96,-64 21.92,21.076 43.595,42.401 65,64 0.153,32.551 -0.306,65.202 0.23,97.691 10.59,31.77 21.18,63.539 31.77,95.309 53.667,0 107.333,0 161,0 21.333,10.667 42.667,21.333 64,32 0,75 0,150 0,225 10.667,0 21.333,0 32,0 21.076,21.92 42.401,43.595 64,65 11,-10.667 22,-21.333 33,-32 10.667,21.333 21.333,42.667 32,64 -10.908,21.454 -21.286,43.295 -32.523,64.507 -10.826,10.498 -21.651,20.995 -32.477,31.493 0,11 0,22 0,33 32.333,10.667 64.667,21.333 97,32 -10.667,21.333 -21.333,42.667 -32,64 10.667,10.667 21.333,21.333 32,32 -10.667,21.333 -21.333,42.667 -32,64 10.904,21.792 21.289,43.955 32.515,65.515 10.495,10.495 20.99,20.99 31.485,31.485 -10.667,21.333 -21.333,42.667 -32,64 32,-10.667 64,-21.333 96,-32 32.333,21.333 64.667,42.667 97,64 10.667,-10.667 21.333,-21.333 32,-32 53.667,21.333 107.333,42.667 161,64 10.667,0 21.333,0 32,0 -10.667,21.667 -21.333,43.333 -32,65 10.667,10.667 21.333,21.333 32,32 21.333,-21.333 42.667,-42.667 64,-64 32.333,-11 64.667,-22 97,-33 0,-10.667 0,-21.333 0,-32 10.667,0 21.333,0 32,0 10.667,-10.667 21.333,-21.333 32,-32 11.105,0.299 22.402,-0.602 33.384,0.457 31.872,10.514 63.744,21.029 95.616,31.543 0,-32 0,-64 0,-96 53.333,21.333 106.667,42.667 160,64 0,10.667 0,21.333 0,32 21.667,0 43.333,0 65,0 10.667,10.667 21.333,21.333 32,32 10.667,0 21.333,0 32,0 43,-42.667 86,-85.333 129,-128 0,-10.667 0,-21.333 0,-32 -21.667,-10.667 -43.333,-21.333 -65,-32 21.667,-21.667 43.333,-43.333 65,-65 10.667,0 21.333,0 32,0 10.667,-21.333 21.333,-42.667 32,-64 -10.667,-10.667 -21.333,-21.333 -32,-32 10.667,-10.667 21.333,-21.333 32,-32 -10.667,-10.667 -21.333,-21.333 -32,-32 31.445,-32.88 63.873,-64.792 96,-97 64.333,0 128.667,0 193,0 10.667,10.667 21.333,21.333 32,32 21.598,-21.375 42.825,-43.269 64.654,-64.322 21.449,-10.559 42.897,-21.119 64.346,-31.678 32,0 64,0 96,0 10.667,-21.667 21.333,-43.333 32,-65 43,0 86,0 129,0 10.932,-10.709 21.492,-21.935 32.653,-32.324 42.782,-21.225 85.565,-42.451 128.347,-63.676 10.667,0 21.333,0 32,0 10.667,-21.333 21.333,-42.667 32,-64 0,-32.333 0,-64.667 0,-97 -10.667,0 -21.333,0 -32,0 10.667,-32 21.333,-64 32,-96 -21.333,-21.667 -42.667,-43.333 -64,-65 0,-32 0,-64 0,-96 -21.333,0 -42.667,0 -64,0 -32.393,-31.94 -64.944,-63.721 -97,-96 -10.667,-21.667 -21.333,-43.333 -32,-65 -21.333,-10.667 -42.667,-21.333 -64,-32 0,-21.333 0,-42.667 0,-64 -21.667,10.667 -43.333,21.333 -65,32 -10.667,-21.333 -21.333,-42.667 -32,-64 10.667,-11 21.333,-22 32,-33 0,-21.333 0,-42.667 0,-64 -21.333,-10.667 -42.667,-21.333 -64,-32 -0.39,-15.008 1.306,-30.187 -2.146,-44.942 -9.951,-60.02 -19.903,-120.039 -29.854,-180.058 21.333,-10.667 42.667,-21.333 64,-32 0.215,-10.86 -0.429,-21.919 0.322,-32.654 10.559,-21.449 21.119,-42.897 31.678,-64.346 0,-21.333 0,-42.667 0,-64 64.333,-43 128.667,-86 193,-129 0,-21.333 0,-42.667 0,-64 -10.667,-10.667 -21.333,-21.333 -32,-32 10.667,-10.667 21.333,-21.333 32,-32 -10.667,-10.667 -21.333,-21.333 -32,-32 10.648,-11.288 22.045,-22.122 32.23,-33.691 10.59,-31.77 21.18,-63.539 31.77,-95.309 21.667,-10.667 43.333,-21.333 65,-32 0.215,-10.86 -0.429,-21.919 0.322,-32.654 10.559,-21.449 21.119,-42.897 31.678,-64.346 -10.59,-32.255 -21.794,-64.411 -32,-96.729 0,-10.424 0,-20.847 0,-31.271 32,0 64,0 96,0 0,-43 0,-86 0,-129 21.333,-21.333 42.667,-42.667 64,-64 -32,-43 -64,-86 -96,-129 10.667,-10.667 21.333,-21.333 32,-32 10.667,-43 21.333,-86 32,-129 -10.667,-32 -21.333,-64 -32,-96 10.667,-10.667 21.333,-21.333 32,-32 10.667,10.667 21.333,21.333 32,32 21.667,-10.667 43.333,-21.333 65,-32 10.667,-21.333 21.333,-42.667 32,-64 0,-21.667 0,-43.333 0,-65 10.667,-10.667 21.333,-21.333 32,-32 21.333,10.667 42.667,21.333 64,32 -10.667,-21.333 -21.333,-42.667 -32,-64 32.333,-32.333 64.667,-64.667 97,-97 10.667,0 21.333,0 32,0 10.667,-21.333 21.333,-42.667 32,-64 -10.667,-10.667 -21.333,-21.333 -32,-32 0,-10.667 0,-21.333 0,-32 -10.667,-10.667 -21.333,-21.333 -32,-32 41.917,-85.401 84.744,-170.35 126.84,-255.663 2.501,-5.628 0.535,-12.303 1.16,-18.371 0,-37.322 0,-74.644 0,-111.966 43,-43 86,-86 129,-129 -10.667,-10.667 -21.333,-21.333 -32,-32 21.333,0 42.667,0 64,0 21.333,-32 42.667,-64 64,-96 32.333,-10.667 64.667,-21.333 97,-32 -10.667,-21.667 -21.333,-43.333 -32,-65 10.667,-10.667 21.333,-21.333 32,-32 0,-32 0,-64 0,-96 21.333,-21.667 42.667,-43.333 64,-65 -21.333,-21.333 -42.667,-42.667 -64,-64 0,-21.333 0,-42.667 0,-64 32,-32.333 64,-64.667 96,-97 0,-10.667 0,-21.333 0,-32 54.293,-21.716 108.789,-42.978 162.956,-64.978 20.807,-10.576 41.98,-20.645 62.559,-31.537 21.495,-21.495 42.99,-42.99 64.485,-64.485 10.667,-107 21.333,-214 32,-321 21.333,-53.667 42.667,-107.333 64,-161 1800.667,0 3601.333,0 5402,0 0,461 0,922 0,1383 10.667,21.333 21.333,42.667 32,64 0,42.667 0,85.333 0,128 10.667,11 21.333,22 32,33 10.667,0 21.333,0 32,0 21.667,21.333 43.333,42.667 65,64 -11,96.333 -22,192.667 -33,289 11,10.667 22,21.333 33,32 0,21.667 0,43.333 0,65 -32.333,64.333 -64.667,128.667 -97,193 0.1,53.567 -0.19,107.171 0.142,160.715 10.619,53.428 21.239,106.857 31.858,160.285 10.667,0 21.333,0 32,0 0,32.333 0,64.667 0,97 -10.667,21.333 -21.333,42.667 -32,64 0,75 0,150 0,225 43.241,32.403 86.294,65.111 129.653,97.324 42.782,21.225 85.565,42.451 128.347,63.676 0,10.667 0,21.333 0,32 32,0 64,0 96,0 0,10.667 0,21.333 0,32 10.667,-10.667 21.333,-21.333 32,-32 21.333,10.667 42.667,21.333 64,32 21.667,32.333 43.333,64.667 65,97 32,10.667 64,21.333 96,32 10.667,32 21.333,64 32,96 11,0 22,0 33,0 10.667,10.667 21.333,21.333 32,32 -10.667,53.667 -21.333,107.333 -32,161 10.667,43 21.333,86 32,129 10.71,10.931 21.932,21.493 32.326,32.652 10.558,21.116 21.116,42.232 31.674,63.348 0,43 0,86 0,129 -10.667,21.333 -21.333,42.667 -32,64 -21.333,0 -42.667,0 -64,0 0,32.333 0,64.667 0,97 10.667,10.667 21.333,21.333 32,32 0,32 0,64 0,96 -10.667,10.667 -21.333,21.333 -32,32 0,21.667 0,43.333 0,65 21.333,21.333 42.667,42.667 64,64 0,10.667 0,21.333 0,32 10.667,0 21.333,0 32,0 10.608,43.25 21.685,86.443 32,129.729 0,10.424 0,20.847 0,31.271 32.333,10.667 64.667,21.333 97,32 32,32 64,64 96,96 0,11 0,22 0,33 10.667,10.667 21.333,21.333 32,32 10.667,-10.667 21.333,-21.333 32,-32 21.667,10.667 43.333,21.333 65,32 32,64.333 64,128.667 96,193 21.333,10.667 42.667,21.333 64,32 21.667,0 43.333,0 65,0 0,10.667 0,21.333 0,32 21.333,21.333 42.667,42.667 64,64 10.667,0 21.333,0 32,0 0,11 0,22 0,33 10.667,10.667 21.333,21.333 32,32 0,10.667 0,21.333 0,32 64.333,42.667 128.667,85.333 193,128 0,11 0,22 0,33 10.667,0 21.333,0 32,0 11,-11 22,-22 33,-33 10.667,11 21.333,22 32,33 10.667,-11 21.333,-22 32,-33 0,21.667 0,43.333 0,65 10.667,21.333 21.333,42.667 32,64 10.667,0 21.333,0 32,0 10.667,21.333 21.333,42.667 32,64 10.667,0 21.333,0 32,0 0,-10.667 0,-21.333 0,-32 11,0 22,0 33,0 42.667,32.333 85.333,64.667 128,97 0,10.667 0,21.333 0,32 -32,10.667 -64,21.333 -96,32 10.667,21.333 21.333,42.667 32,64 -10.667,32.333 -21.333,64.667 -32,97 42.667,32 85.333,64 128,96 0,21.667 0,43.333 0,65 21.667,10.667 43.333,21.333 65,32 0,21.333 0,42.667 0,64 -10.716,10.928 -21.921,21.498 -32.334,32.648 -10.889,21.117 -21.777,42.235 -32.666,63.352 11,11 22,22 33,33 -11,32 -22,64 -33,96 21.667,21.333 43.333,42.667 65,64 32,0 64,0 96,0 43,43 86,86 129,129 0,43 0,86 0,129 10.667,10.667 21.333,21.333 32,32 0,10.667 0,21.333 0,32 10.667,10.667 21.333,21.333 32,32 10.667,-10.667 21.333,-21.333 32,-32 10.667,32 21.333,64 32,96 32.333,11 64.667,22 97,33 -10.667,21.333 -21.333,42.667 -32,64 85.667,-10.667 171.333,-21.333 257,-32 0,-10.667 0,-21.333 0,-32 21.333,0 42.667,0 64,0 21.667,42.667 43.333,85.333 65,128 42.667,10.667 85.333,21.333 128,32 32.333,53.667 64.667,107.333 97,161 21.333,10.667 42.667,21.333 64,32 32,43 64,86 96,129 11.647,-11.716 24.199,-22.612 35.268,-34.853 42.295,-53.022 84.261,-106.339 126.763,-159.178 10.323,-10.323 20.646,-20.646 30.969,-30.969 0,-32.333 0,-64.667 0,-97 43,-10.667 86,-21.333 129,-32 21.333,-21.333 42.667,-42.667 64,-64 -10.667,-10.667 -21.333,-21.333 -32,-32 10.667,-21.667 21.333,-43.333 32,-65 64.333,-42.667 128.667,-85.333 193,-128 10.86,0.215 21.919,-0.429 32.654,0.322 21.449,10.559 42.897,21.119 64.346,31.678 10.667,21.333 21.333,42.667 32,64 0.299,11.105 -0.602,22.402 0.457,33.384 10.514,31.872 21.029,63.744 31.543,95.616 43,10.667 86,21.333 129,32 10.667,10.667 21.333,21.333 32,32 -0.152,21.552 0.305,43.202 -0.228,64.692 -10.591,32.103 -21.181,64.205 -31.772,96.308 21.333,21.333 42.667,42.667 64,64 0,32.333 0,64.667 0,97 -10.646,10.957 -22.059,21.44 -32.232,32.691 -32.256,96.103 -64.512,192.206 -96.768,288.309 0,32.333 0,64.667 0,97 -10.667,10.667 -21.333,21.333 -32,32 0,42.667 0,85.333 0,128 21.333,21.667 42.667,43.333 64,65 21.667,0 43.333,0 65,0 -10.667,10.667 -21.333,21.333 -32,32 0,21.333 0,42.667 0,64 32,10.667 64,21.333 96,32 0,32.333 0,64.667 0,97 10.858,-0.217 21.922,0.435 32.652,-0.326 21.116,-10.558 42.232,-21.116 63.348,-31.674 32.333,10.667 64.667,21.333 97,32 10.667,10.667 21.333,21.333 32,32 -10.667,21.333 -21.333,42.667 -32,64 10.667,10.667 21.333,21.333 32,32 10.667,-10.667 21.333,-21.333 32,-32 10.667,21.333 21.333,42.667 32,64 32.333,-21.333 64.667,-42.667 97,-64 21.552,0.152 43.202,-0.305 64.692,0.228 32.103,10.591 64.205,21.181 96.308,31.772 0,10.667 0,21.333 0,32 32,11 64,22 96,33 0,10.667 0,21.333 0,32 10.667,0 21.333,0 32,0 10.667,32 21.333,64 32,96 11.038,10.935 22.62,21.474 33.322,32.654 10.559,21.449 21.119,42.897 31.678,64.346 21.333,0 42.667,0 64,0 0,32 0,64 0,96 10.858,-0.217 21.922,0.435 32.652,-0.326 21.116,-10.558 42.232,-21.116 63.348,-31.674 21.667,10.667 43.333,21.333 65,32 0,-10.667 0,-21.333 0,-32 32,10.667 64,21.333 96,32 21.333,-10.667 42.667,-21.333 64,-32 0,53.667 0,107.333 0,161 22.078,42.458 43.75,85.122 65,128 -10.667,21.667 -21.333,43.333 -32,65 21.333,0 42.667,0 64,0 21.333,32 42.667,64 64,96 32.333,-21.333 64.667,-42.667 97,-64 10.667,10.667 21.333,21.333 32,32 64.333,-10.667 128.667,-21.333 193,-32 0,-10.667 0,-21.333 0,-32 10.667,-10.667 21.333,-21.333 32,-32 21.333,21.333 42.667,42.667 64,64 -10.667,10.667 -21.333,21.333 -32,32 10.667,21.333 21.333,42.667 32,64 10.667,-10.667 21.333,-21.333 32,-32 32.333,21.333 64.667,42.667 97,64 32,0 64,0 96,0 10.667,32.333 21.333,64.667 32,97 21.667,0 43.333,0 65,0 -10.667,43 -21.333,86 -32,129 32,-21.667 64,-43.333 96,-65 10.904,21.792 21.289,43.955 32.515,65.515 10.495,10.495 20.99,20.99 31.485,31.485 21.667,-10.667 43.333,-21.333 65,-32 0,21.333 0,42.667 0,64 10.667,21.333 21.333,42.667 32,64 64.333,-21.333 128.667,-42.667 193,-64 -0.217,10.858 0.435,21.922 -0.326,32.652 -10.558,21.116 -21.116,42.232 -31.674,63.348 21.333,11 42.667,22 64,33 21.333,-32.333 42.667,-64.667 64,-97 21.667,0 43.333,0 65,0 0,21.333 0,42.667 0,64 10.667,11 21.333,22 32,33 10.667,0 21.333,0 32,0 0,21.333 0,42.667 0,64 -21.333,10.667 -42.667,21.333 -64,32 10.667,21.333 21.333,42.667 32,64 32,-21.333 64,-42.667 96,-64 32.333,32 64.667,64 97,96 21.333,-10.667 42.667,-21.333 64,-32 -10.667,-21.333 -21.333,-42.667 -32,-64 32.175,10.857 64.572,21.259 96.608,32.401 32.131,21.2 64.261,42.399 96.392,63.599 10.667,-32 21.333,-64 32,-96 42.667,0 85.333,0 128,0 0,10.667 0,21.333 0,32 11,0 22,0 33,0 10.667,-21.333 21.333,-42.667 32,-64 0,-10.667 0,-21.333 0,-32 10.667,0 21.333,0 32,0 10.667,10.667 21.333,21.333 32,32 -10.667,10.667 -21.333,21.333 -32,32 10.931,10.71 21.493,21.932 32.652,32.326 21.116,10.558 42.232,21.116 63.348,31.674 11,0 22,0 33,0 10.931,-10.71 21.493,-21.932 32.652,-32.326 21.116,-10.558 42.232,-21.116 63.348,-31.674 10.667,21.333 21.333,42.667 32,64 10.667,0 21.333,0 32,0 10.667,-10.667 21.333,-21.333 32,-32 11,21.333 22,42.667 33,64 21.333,-21.333 42.667,-42.667 64,-64 -0.335,11.355 0.68,22.874 -0.526,34.122 -10.492,42.293 -20.983,84.585 -31.474,126.878 10.667,10.667 21.333,21.333 32,32 0,10.667 0,21.333 0,32 53.667,0 107.333,0 161,0 21.333,43 42.667,86 64,129 32,-32.333 64,-64.667 96,-97 21.667,21.667 43.333,43.333 65,65 0,21.333 0,42.667 0,64 21.459,10.902 43.284,21.297 64.515,32.515 10.495,10.495 20.99,20.99 31.485,31.485 0,10.667 0,21.333 0,32 -21.333,21.667 -42.667,43.333 -64,65 10.667,32 21.333,64 32,96 21.333,21.667 42.667,43.333 64,65 32.333,75 64.667,150 97,225 10.667,10.667 21.333,21.333 32,32 64.333,-10.667 128.667,-21.333 193,-32 10.902,21.459 21.297,43.284 32.515,64.515 21.162,21.162 42.323,42.323 63.485,63.485 11,32.333 22,64.667 33,97 10.667,10.667 21.333,21.333 32,32 64.58,10.627 129.133,21.572 193.729,32 10.424,0 20.847,0 31.271,0 11.134,10.86 21.775,22.32 33.213,32.809 31.596,21.063 63.191,42.127 94.787,63.191 32.333,43 64.667,86 97,129 21.333,10.667 42.667,21.333 64,32 85.667,0 171.333,0 257,0 43,-21.333 86,-42.667 129,-64 21.333,0 42.667,0 64,0 32.393,31.94 64.944,63.721 97,96 10.59,32.589 21.791,65.079 32,97.729 0,42.424 0,84.847 0,127.271 -10.667,32.333 -21.333,64.667 -32,97 -32.451,32.219 -65.123,64.246 -97.435,96.585 -31.855,42.805 -63.71,85.61 -95.565,128.415 0,43 0,86 0,129 10.667,10.667 21.333,21.333 32,32 21.552,0.152 43.202,-0.305 64.692,0.228 64.154,21.103 128.257,42.359 192.308,63.772 10.667,21.333 21.333,42.667 32,64 32.333,21.667 64.667,43.333 97,65 42.667,0 85.333,0 128,0 32.589,-10.921 65.075,-22.47 97.729,-33 21.09,0 42.181,0 63.271,0 10.667,11 21.333,22 32,33 11,-11 22,-22 33,-33 10.607,-42.917 21.687,-85.776 32,-128.729 0,-10.424 0,-20.847 0,-31.271 21.333,0 42.667,0 64,0 10.667,10.667 21.333,21.333 32,32 21.333,-10.667 42.667,-21.333 64,-32 11,-21.667 22,-43.333 33,-65 32,-10.667 64,-21.333 96,-32 21.333,-21.333 42.667,-42.667 64,-64 32.333,0 64.667,0 97,0 42.667,53.667 85.333,107.333 128,161 11.259,-10.718 22.181,-21.905 33.648,-32.334 42.24,-21.969 84.693,-43.521 127.352,-64.666 32.333,32.333 64.667,64.667 97,97 21.333,0 42.667,0 64,0 32,-21.667 64,-43.333 96,-65 11,-21.333 22,-42.667 33,-64 21.333,-10.667 42.667,-21.333 64,-32 32.255,10.59 64.411,21.794 96.729,32 32.09,0 64.181,0 96.271,0 21.333,-10.667 42.667,-21.333 64,-32 10.667,-32.333 21.333,-64.667 32,-97 10.667,0 21.333,0 32,0 0,-21.333 0,-42.667 0,-64 11.262,-10.713 22.175,-21.916 33.652,-32.326 21.37,-10.566 42.592,-21.535 64.055,-31.849 42.765,-10.609 85.529,-21.217 128.293,-31.825 42.667,-53.667 85.333,-107.333 128,-161 32.333,10.667 64.667,21.333 97,32 32,-32 64,-64 96,-96 64.333,0 128.667,0 193,0 75,-21.667 150,-43.333 225,-65 -0.215,10.86 0.429,21.919 -0.322,32.654 -11.161,22.224 -21.632,44.833 -33.226,66.817 -53.714,85.921 -107.754,171.647 -161.265,257.69 -42.395,73.947 -84.791,147.893 -127.187,221.839 -42.885,43.118 -85.58,86.455 -128.585,129.435 -43.85,32.48 -87.418,65.361 -131.445,97.59 -63.556,42.408 -126.99,85.024 -190.621,127.302 -106.783,53.558 -213.566,107.115 -320.349,160.673 -53.667,10.667 -107.333,21.333 -161,32 -32.147,21.537 -64.515,42.799 -96.523,64.507 -10.839,10.777 -22.32,21.114 -32.763,32.163 -32.382,75.627 -64.381,151.429 -97.002,226.946 -10.237,20.794 -20.475,41.589 -30.712,62.384 0,32 0,64 0,96 -11.033,21.676 -21.471,43.719 -32.873,65.167 -64.042,85.611 -128.085,171.222 -192.127,256.833 0,10.667 0,21.333 0,32 10.958,10.645 21.44,22.061 32.691,32.23 32.181,10.866 64.561,21.244 96.617,32.414 21.231,10.452 42.461,20.904 63.692,31.356 21.333,0 42.667,0 64,0 10.667,10.667 21.333,21.333 32,32 -64.104,145.096 -127.837,290.357 -192.763,435.089 -64.766,144.942 -129.305,289.992 -194.213,434.867 -85.408,171.251 -170.984,342.427 -256.286,513.724 -53.809,139.537 -107.398,279.166 -161.344,418.646 -118.929,260.228 -238.062,520.365 -356.864,780.651 -180.843,403.674 -361.687,807.349 -542.53,1211.023 -10.687,11.274 -21.968,22.151 -32.287,33.67 -65.841,153.318 -131.397,306.76 -197.417,460.001 -116.676,264.797 -233.551,529.511 -350.104,794.361 -43.109,108.202 -85.883,216.542 -129.203,324.657 -64.401,149.97 -128.532,300.059 -193.101,449.955 -110.31,242.386 -220.38,484.882 -330.842,727.198 -368.967,803.17 -738.061,1606.281 -1106.949,2409.487 -463.451,1011.118 -926.965,2022.209 -1390.377,3033.344 -107.129,257.209 -214.116,514.48 -321.333,771.649 -139.696,301.236 -279.579,602.387 -419.157,903.677 -247.291,558.651 -494.444,1117.363 -741.822,1675.976 -631.253,1401.554 -1262.436,2803.143 -1893.734,4204.677 -10.558,21.116 -21.116,42.232 -31.674,63.348 -21.333,10.667 -42.667,21.333 -64,32 0,10.667 0,21.333 0,32 -53.667,0 -107.333,0 -161,0 -10.667,10.667 -21.333,21.333 -32,32 -10.667,53.667 -21.333,107.333 -32,161 -11.622,22.094 -22.535,44.602 -34.606,66.433 -20.798,31.523 -41.596,63.045 -62.394,94.567 -32,10.667 -64,21.333 -96,32 -86,75 -172,150 -258,225 -32,53.667 -64,107.333 -96,161 -32.333,32 -64.667,64 -97,96 -21.333,43 -42.667,86 -64,129 0,139.333 0,278.667 0,418 21.333,32 42.667,64 64,96 11.116,53.886 21.962,107.847 33.248,161.685 42.584,117.772 85.168,235.543 127.752,353.315 43,53.667 86,107.333 129,161 21.333,10.667 42.667,21.333 64,32 10.667,32 21.333,64 32,96 11.456,0.239 23.03,-0.477 34.414,0.354 42.195,10.548 84.391,21.097 126.586,31.646 36.785,37.48 73.601,74.928 111.26,111.533 6.106,6.582 13.524,12.168 18.799,19.38 52.98,95.696 105.961,191.391 158.941,287.087 32.333,32.333 64.667,64.667 97,97 32.255,10.59 64.411,21.794 96.729,32 10.757,0 21.514,0 32.271,0 31.952,64.357 63.778,128.777 96,193 21.333,10.667 42.667,21.333 64,32 11,43 22,86 33,129 32,32 64,64 96,96 21.333,85.667 42.667,171.333 64,257 -10.667,64.333 -21.333,128.667 -32,193 10.619,53.914 21.618,107.791 32,161.729 0,21.09 0,42.181 0,63.271 32.531,43.149 64.855,86.478 97.515,129.515 21.162,21.162 42.323,42.323 63.485,63.485 -45.095,46.993 -91.972,92.227 -137.979,138.32 -18.384,18.491 -37.281,36.611 -55.347,55.332 -53.558,107.116 -107.116,214.232 -160.674,321.348 -21.234,107.02 -42.566,214.02 -64,321 10.922,44.685 22.462,89.232 32.995,134.004 10.335,51.999 20.67,103.997 31.005,155.996 11,21.333 22,42.667 33,64 0,32 0,64 0,96 -53.667,53.667 -107.333,107.333 -161,161 -21.667,43 -43.333,86 -65,129 -47.01,47.255 -94.523,94.014 -141.192,141.604 -6.269,6.465 -12.539,12.931 -18.808,19.396 0,64.333 0,128.667 0,193 -21.873,32.143 -43.465,64.518 -65.514,96.517 -53.162,53.494 -106.324,106.989 -159.486,160.483 -64.333,32 -128.667,64 -193,96 -10.667,21.667 -21.333,43.333 -32,65 -11,0 -22,0 -33,0 0,21.333 0,42.667 0,64 21.667,21.333 43.333,42.667 65,64 0,75 0,150 0,225 32.335,54.026 64.325,108.284 96.876,162.165 32.041,42.612 64.083,85.223 96.124,127.835 10.607,42.917 21.687,85.776 32,128.729 0.155,21.641 -0.309,43.383 0.23,64.962 10.754,31.962 21.161,64.078 32.13,95.942 43.06,75.893 86.471,151.595 129.31,227.606 10.443,20.254 20.887,40.507 31.33,60.761 -11,32.333 -22,64.667 -33,97 11,32 22,64 33,96 -11,21.667 -22,43.333 -33,65 -42.667,21.333 -85.333,42.667 -128,64 -10.667,32 -21.333,64 -32,96 21.333,64.333 42.667,128.667 64,193 -21.333,32.333 -42.667,64.667 -64,97 10.667,64.333 21.333,128.667 32,193 -10.667,21.333 -21.333,42.667 -32,64 0,21.333 0,42.667 0,64 10.644,10.958 22.064,21.439 32.228,32.692 10.591,32.103 21.181,64.205 31.772,96.308 -10.932,10.709 -21.492,21.935 -32.653,32.324 -42.782,21.225 -85.565,42.451 -128.347,63.676 -10.667,21.667 -21.333,43.333 -32,65 10.667,21.333 21.333,42.667 32,64 -10.667,21.333 -21.333,42.667 -32,64 0,21.667 0,43.333 0,65 -42.735,53.577 -85.804,106.938 -128.33,160.65 -11.37,22.012 -22.141,44.374 -33.883,66.169 -21.138,31.535 -41.979,63.313 -63.302,94.696 -10.537,10.76 -21.592,21.148 -31.809,32.138 -21.225,42.782 -42.451,85.565 -63.676,128.347 10.942,32.411 21.397,65.022 32.644,97.308 10.452,21.231 20.904,42.461 31.356,63.692 -0.117,21.562 0.234,43.181 -0.175,64.707 -10.609,42.765 -21.217,85.529 -31.825,128.293 21.378,21.597 43.264,42.828 64.326,64.652 10.558,21.116 21.116,42.232 31.674,63.348 0,21.333 0,42.667 0,64 -10.648,11.288 -22.045,22.122 -32.23,33.691 -10.871,32.178 -21.233,64.567 -32.422,96.613 -14.939,30.328 -30.936,60.157 -44.086,91.331 -38.754,87.122 -77.508,174.243 -116.262,261.365 10.958,10.644 21.439,22.064 32.692,32.228 32.103,10.591 64.205,21.181 96.308,31.772 42.667,-21.333 85.333,-42.667 128,-64 11.456,-0.239 23.03,0.477 34.414,-0.354 42.195,-10.548 84.391,-21.097 126.586,-31.646 43,21.333 86,42.667 129,64 0,10.667 0,21.333 0,32 -11.132,10.862 -21.777,22.316 -33.211,32.811 -32.072,21.604 -64.382,42.919 -96.306,64.703 -68.72,68.545 -137.808,136.726 -206.29,205.508 -16.731,16.993 -33.462,33.985 -50.193,50.978 -32.333,0 -64.667,0 -97,0 -21.599,10.61 -43.004,21.88 -64.724,32.08 -96.337,10.613 -192.661,21.44 -289.005,31.92 -2144.152,-0.02 -4288.305,0.04 -6432.457,-0.03 -890.153,-10.644 -1780.305,-21.403 -2670.458,-31.974 -1863.452,0 -3726.904,0 -5590.356,0 -32.333,-64.333 -64.667,-128.667 -97,-193 -10.667,-10.667 -21.333,-21.333 -32,-32 10.667,-32.333 21.333,-64.667 32,-97 -10.931,-10.71 -21.493,-21.932 -32.652,-32.326 -21.242,-10.794 -42.849,-21.08 -63.863,-32.189 -10.787,-10.472 -21.095,-21.721 -32.177,-31.713 -32.103,-10.591 -64.205,-21.181 -96.308,-31.772 -42.667,10.667 -85.333,21.333 -128,32 -11,-10.667 -22,-21.333 -33,-32 -10.667,-32.333 -21.333,-64.667 -32,-97 -21.333,10.667 -42.667,21.333 -64,32 -21.333,0 -42.667,0 -64,0 -11,21.667 -22,43.333 -33,65 11,10.667 22,21.333 33,32 -11,10.667 -22,21.333 -33,32 0,10.667 0,21.333 0,32 -21.333,10.667 -42.667,21.333 -64,32 0,11 0,22 0,33 -21.333,21.333 -42.667,42.667 -64,64 -21.667,-10.667 -43.333,-21.333 -65,-32 -32,0 -64,0 -96,0 -32,-21.667 -64,-43.333 -96,-65 -11,0 -22,0 -33,0 -10.667,21.667 -21.333,43.333 -32,65 0,53.333 0,106.667 0,160 -21.38,21.929 -43.255,43.502 -64.326,65.652 -10.558,21.116 -21.116,42.232 -31.674,63.348 10.667,21.333 21.333,42.667 32,64 -10.667,10.667 -21.333,21.333 -32,32 0,43 0,86 0,129 -32.333,21.333 -64.667,42.667 -97,64 -32,0 -64,0 -96,0 0,21.667 0,43.333 0,65 -32,0 -64,0 -96,0 -21.667,10.667 -43.333,21.333 -65,32 -64.333,-21.333 -128.667,-42.667 -193,-64 -10.667,10.667 -21.333,21.333 -32,32 -10.667,-10.667 -21.333,-21.333 -32,-32 0,-32.333 0,-64.667 0,-97 -21.333,-32 -42.667,-64 -64,-96 -21.667,-11 -43.333,-22 -65,-33 -21.333,-42.667 -42.667,-85.333 -64,-128 -64.333,0 -128.667,0 -193,0 -42.667,21.333 -85.333,42.667 -128,64 -43,-10.667 -86,-21.333 -129,-32 -43,-107 -86,-214 -129,-321 0.222,-11.19 -0.441,-22.59 0.326,-33.652 10.558,-21.116 21.116,-42.232 31.674,-63.348 -10.931,-10.71 -21.493,-21.932 -32.652,-32.326 -21.116,-10.558 -42.232,-21.116 -63.348,-31.674 -10.667,-21.667 -21.333,-43.333 -32,-65 10.667,-21.333 21.333,-42.667 32,-64 -21.333,-32 -42.667,-64 -64,-96 -32.333,-21.667 -64.667,-43.333 -97,-65 10.667,-10.667 21.333,-21.333 32,-32 32.333,0 64.667,0 97,0 0,-21.333 0,-42.667 0,-64 -10.809,-22.062 -22.351,-43.818 -32.704,-66.07 -10.765,-31.643 -21.531,-63.287 -32.296,-94.93 -64,0 -128,0 -192,0 -21.667,-21.333 -43.333,-42.667 -65,-64 -42.667,-10.667 -85.333,-21.333 -128,-32 -10.932,10.707 -21.49,21.938 -32.654,32.322 -21.574,10.796 -43.519,21.074 -64.861,32.193 -10.495,10.495 -20.99,20.99 -31.485,31.485 0,21.333 0,42.667 0,64 32.333,32.333 64.667,64.667 97,97 -11,21.333 -22,42.667 -33,64 -10.819,-0.283 -22.001,0.566 -32.593,-0.424 -74.948,-53.728 -150.103,-107.212 -224.922,-161.091 -10.495,-10.495 -20.99,-20.99 -31.485,-31.485 0.27,-10.828 -0.539,-21.983 0.404,-32.606 21.358,-32.266 43.157,-64.278 64.24,-96.702 10.452,-21.231 20.904,-42.461 31.356,-63.692 -21.333,-21.333 -42.667,-42.667 -64,-64 10.667,-32 21.333,-64 32,-96 -10.667,-21.667 -21.333,-43.333 -32,-65 -21.333,0 -42.667,0 -64,0 -10.716,-10.928 -21.921,-21.498 -32.334,-32.648 -10.889,-21.117 -21.777,-42.235 -32.666,-63.352 -0.118,-32.562 0.236,-65.182 -0.177,-97.707 -10.608,-42.431 -21.215,-84.862 -31.823,-127.293 10.831,-43.196 21.239,-86.551 32.334,-129.648 10.889,-21.117 21.777,-42.235 32.666,-63.352 0,-21.333 0,-42.667 0,-64 -11.264,-11.043 -22.16,-22.599 -33.652,-33.326 -42.449,-21.225 -84.899,-42.449 -127.348,-63.674 -21.562,-0.117 -43.181,0.234 -64.707,-0.175 -42.963,-10.768 -86.074,-21.133 -128.945,-32.151 -21.116,-10.558 -42.232,-21.116 -63.348,-31.674 -10.902,-21.459 -21.297,-43.284 -32.515,-64.515 -21.495,-21.495 -42.99,-42.99 -64.485,-64.485 -10.667,10.667 -21.333,21.333 -32,32 -10.667,0 -21.333,0 -32,0 -10.667,21.667 -21.333,43.333 -32,65 -21.792,10.904 -43.955,21.289 -65.515,32.515 -31.829,31.829 -63.657,63.657 -95.485,95.485 -10.667,0 -21.333,0 -32,0 0,-10.667 0,-21.333 0,-32 -10.71,-10.931 -21.932,-21.493 -32.326,-32.652 -10.558,-21.116 -21.116,-42.232 -31.674,-63.348 -21.667,0 -43.333,0 -65,0 10.667,-21.667 21.333,-43.333 32,-65 -10.667,-21.333 -21.333,-42.667 -32,-64 0,-21.333 0,-42.667 0,-64 -10.667,0 -21.333,0 -32,0 10.667,-21.667 21.333,-43.333 32,-65 -10.667,-32 -21.333,-64 -32,-96 -10.667,0 -21.333,0 -32,0 -10.667,-10.667 -21.333,-21.333 -32,-32 -10.667,0 -21.333,0 -32,0 -11,-10.667 -22,-21.333 -33,-32 -10.667,10.667 -21.333,21.333 -32,32 -10.707,-10.932 -21.938,-21.49 -32.322,-32.654 -10.559,-21.449 -21.119,-42.897 -31.678,-64.346 -64.333,-32 -128.667,-64 -193,-96 -10.667,-10.667 -21.333,-21.333 -32,-32 10.667,-10.667 21.333,-21.333 32,-32 -21.333,-43 -42.667,-86 -64,-129 -21.667,-10.667 -43.333,-21.333 -65,-32 -10.667,-21.333 -21.333,-42.667 -32,-64 0,-21.667 0,-43.333 0,-65 10.716,-10.928 21.921,-21.498 32.334,-32.648 10.889,-21.117 21.777,-42.235 32.666,-63.352 -11,-10.667 -22,-21.333 -33,-32 -10.667,-32.333 -21.333,-64.667 -32,-97 10.667,-10.667 21.333,-21.333 32,-32 -21.333,-21.333 -42.667,-42.667 -64,-64 0,-11 0,-22 0,-33 -32.144,-21.54 -64.521,-42.793 -96.519,-64.511 -40.12,-39.298 -80.016,-78.821 -119.339,-118.918 -13.979,-13.9 -27.582,-28.319 -41.795,-41.896 -64.115,-31.891 -128.231,-63.783 -192.347,-95.675 -43,0 -86,0 -129,0 -11.144,-21.898 -21.683,-44.145 -33.204,-65.825 -20.932,-31.725 -41.864,-63.45 -62.796,-95.175 -10.667,0 -21.333,0 -32,0 -10.667,-10.667 -21.333,-21.333 -32,-32 -11,0 -22,0 -33,0 -21.333,-21.333 -42.667,-42.667 -64,-64 -1050.333,0 -2100.667,0 -3151,0 -139.333,-10.667 -278.667,-21.333 -418,-32 -10.667,75 -21.333,150 -32,225 10.667,21.333 21.333,42.667 32,64 -10.667,21.333 -21.333,42.667 -32,64 -21.333,10.667 -42.667,21.333 -64,32 -10.667,32.333 -21.333,64.667 -32,97 -32.333,21.333 -64.667,42.667 -97,64 0,21.333 0,42.667 0,64 10.667,11 21.333,22 32,33 -10.667,32 -21.333,64 -32,96 -10.818,11.16 -22.404,21.722 -32.747,33.252 -31.751,53.249 -63.502,106.499 -95.253,159.748 -53.804,32.55 -107.891,64.735 -161.518,97.513 -32.161,31.829 -64.321,63.658 -96.482,95.487 0.242,10.845 -0.484,21.948 0.363,32.632 42.879,74.79 85.758,149.579 128.637,224.368 -43,32.333 -86,64.667 -129,97 -21.333,32 -42.667,64 -64,96 0,21.333 0,42.667 0,64 -21.549,32.469 -42.772,65.207 -64.523,97.507 -10.826,10.498 -21.651,20.995 -32.477,31.493 -10.667,0 -21.333,0 -32,0 -53.333,-43 -106.667,-86 -160,-129 -64.385,-21.179 -128.719,-42.509 -193,-64 -32.333,0 -64.667,0 -97,0 -11.144,21.898 -21.683,44.145 -33.204,65.825 -21.142,31.866 -41.979,63.98 -63.311,95.69 -10.495,10.495 -20.99,20.99 -31.485,31.485 -32.333,-10.667 -64.667,-21.333 -97,-32 -21.333,10.667 -42.667,21.333 -64,32 0,96.333 0,192.667 0,289 -53.667,32.333 -107.333,64.667 -161,97 0,21.333 0,42.667 0,64 43,10.667 86,21.333 129,32 21.333,21.667 42.667,43.333 64,65 0,21.333 0,42.667 0,64 -53.667,43 -107.333,86 -161,129 0.302,11.104 -0.607,22.404 0.461,33.383 10.513,31.539 21.026,63.078 31.539,94.617 32.333,32.333 64.667,64.667 97,97 0,32 0,64 0,96 21.333,21.333 42.667,42.667 64,64 10.667,0 21.333,0 32,0 0,21.667 0,43.333 0,65 -32,53.333 -64,106.667 -96,160 -10.667,0 -21.333,0 -32,0 -21.667,-21.333 -43.333,-42.667 -65,-64 0,-10.667 0,-21.333 0,-32 -10.667,-10.667 -21.333,-21.333 -32,-32 -10.667,0 -21.333,0 -32,0 -10.667,10.667 -21.333,21.333 -32,32 -10.667,53.667 -21.333,107.333 -32,161 -21.667,10.667 -43.333,21.333 -65,32 0,21.333 0,42.667 0,64 -10.897,21.464 -21.308,43.274 -32.507,64.523 -10.498,10.826 -20.995,21.651 -31.493,32.477 10.667,10.667 21.333,21.333 32,32 -32,42.667 -64,85.333 -96,128 10.667,43 21.333,86 32,129 -64.58,-10.627 -129.133,-21.572 -193.729,-32 -10.586,0.268 -21.494,-0.535 -31.879,0.401 -32.131,21.2 -64.261,42.399 -96.392,63.599 -21.333,0 -42.667,0 -64,0 -21.333,-10.667 -42.667,-21.333 -64,-32 -10.862,11.132 -22.316,21.777 -32.811,33.211 -21.397,31.93 -42.793,63.859 -64.189,95.789 0,53.333 0,106.667 0,160 21.667,43 43.333,86 65,129 -11.231,21.463 -21.984,43.272 -33.513,64.518 -31.829,32.161 -63.658,64.321 -95.487,96.482 0.152,21.552 -0.304,43.201 0.228,64.692 10.514,32.358 21.639,64.618 31.772,97.037 0.137,42.9 -0.274,85.838 0.205,128.714 10.564,74.764 21.402,149.509 31.795,224.286 0,21.424 0,42.847 0,64.271 -10.667,10.667 -21.333,21.333 -32,32 -42.667,0 -85.333,0 -128,0 -86,53.333 -172,106.667 -258,160 -53.333,-10.667 -106.667,-21.333 -160,-32 -53.914,10.619 -107.791,21.618 -161.729,32 -21.424,0 -42.847,0 -64.271,0 -21.333,-10.667 -42.667,-21.333 -64,-32 0.18,-10.875 -0.359,-21.888 0.269,-32.677 21.244,-53.441 42.487,-106.882 63.731,-160.323 0,-32 0,-64 0,-96 -21.546,0.17 -43.214,-0.34 -64.683,0.255 -85.645,32.049 -171.376,63.903 -256.968,96.073 -43.037,21.566 -85.925,43.535 -129.056,64.849 -42.631,10.763 -85.404,21.139 -127.947,32.145 -21.449,10.559 -42.897,21.119 -64.346,31.678 -32.229,0.117 -64.514,-0.234 -96.707,0.175 -42.765,10.609 -85.529,21.217 -128.293,31.825 -64.58,-10.627 -129.133,-21.572 -193.729,-32 -21.09,0 -42.181,0 -63.271,0 -10.931,10.71 -21.493,21.932 -32.652,32.326 -21.116,10.558 -42.232,21.116 -63.348,31.674 -10.667,0 -21.333,0 -32,0 0,21.667 0,43.333 0,65 -21.792,10.904 -43.955,21.289 -65.515,32.515 -10.495,10.495 -20.99,20.99 -31.485,31.485 -21.562,-0.117 -43.181,0.234 -64.707,-0.175 -43.015,-10.55 -85.972,-21.568 -129.022,-31.825 -31.757,0 -63.514,0 -95.271,0 -21.667,10.667 -43.333,21.333 -65,32 -21.543,-32.474 -42.782,-65.196 -64.515,-97.515 -10.495,-10.495 -20.99,-20.99 -31.485,-31.485 -21.333,0 -42.667,0 -64,0 0,10.667 0,21.333 0,32 -43,32.333 -86,64.667 -129,97 -32.255,10.59 -64.411,21.794 -96.729,32 -10.757,0 -21.514,0 -32.271,0 -32.199,-43.149 -64.183,-86.482 -96.515,-129.515 -10.495,-10.495 -20.99,-20.99 -31.485,-31.485 -43.228,0.118 -86.515,-0.236 -129.707,0.177 -42.431,10.608 -84.862,21.215 -127.293,31.823 -43.845,32.82 -87.416,66.03 -131.433,98.606 -31.523,20.798 -63.045,41.596 -94.567,62.394 -10.904,21.792 -21.289,43.955 -32.515,65.515 -10.495,10.495 -20.99,20.99 -31.485,31.485 -21.333,-10.667 -42.667,-21.333 -64,-32 0,53.333 0,106.667 0,160 -21.333,75 -42.667,150 -64,225 -11,11 -22,22 -33,33 0,32 0,64 0,96 11,10.667 22,21.333 33,32 0,53.667 0,107.333 0,161 10.667,21.333 21.333,42.667 32,64 0.215,10.86 -0.429,21.919 0.322,32.654 10.559,21.449 21.119,42.897 31.678,64.346 -10.71,10.931 -21.932,21.493 -32.326,32.652 -10.701,21.844 -22.134,43.383 -32.378,65.418 -10.687,31.899 -22.001,63.695 -32.296,95.659 0,10.424 0,20.847 0,31.271 -21.333,10.667 -42.667,21.333 -64,32 0,10.667 0,21.333 0,32 -21.333,21.333 -42.667,42.667 -64,64 -32.333,0 -64.667,0 -97,0 -21.333,21.667 -42.667,43.333 -64,65 0,21.333 0,42.667 0,64 -21.333,21.333 -42.667,42.667 -64,64 10.667,21.667 21.333,43.333 32,65 -21.333,0 -42.667,0 -64,0 -21.92,21.076 -43.595,42.401 -65,64 -10.667,0 -21.333,0 -32,0 10.667,32 21.333,64 32,96 -21.333,21.667 -42.667,43.333 -64,65 0,10.667 0,21.333 0,32 -10.667,10.667 -21.333,21.333 -32,32 -53.667,0 -107.333,0 -161,0 -10.667,10.667 -21.333,21.333 -32,32 10.667,21.333 21.333,42.667 32,64 -21.333,11 -42.667,22 -64,33 -21.667,0 -43.333,0 -65,0 -42.667,32 -85.333,64 -128,96 -21.667,-21.333 -43.333,-42.667 -65,-64 -32.255,-10.59 -64.411,-21.794 -96.729,-32 -21.09,0 -42.181,0 -63.271,0 0,-21.667 0,-43.333 0,-65 21.333,-32 42.667,-64 64,-96 0,-21.333 0,-42.667 0,-64 -32,-11 -64,-22 -96,-33 0.337,-11.354 -0.685,-22.875 0.53,-34.121 10.49,-41.96 20.98,-83.919 31.47,-125.879 -32.333,-53.667 -64.667,-107.333 -97,-161 0,-53.667 0,-107.333 0,-161 -53.333,-32 -106.667,-64 -160,-96 -11.207,0.185 -22.556,-0.367 -33.677,0.271 -53.107,21.243 -106.215,42.486 -159.323,63.729 -21.915,21.404 -43.529,43.207 -65.632,64.363 -74.79,42.879 -149.579,85.758 -224.368,128.637 -10.667,21.333 -21.333,42.667 -32,64 -43,0 -86,0 -129,0 0,10.667 0,21.333 0,32 -10.667,10.667 -21.333,21.333 -32,32 -10.828,-0.27 -21.983,0.539 -32.606,-0.404 -32.265,-21.361 -64.281,-43.151 -96.7,-64.244 -42.565,-21.117 -85.129,-42.235 -127.694,-63.352 -10.667,10.667 -21.333,21.333 -32,32 -0.1,85.9 0.189,171.838 -0.142,257.715 -10.572,53.676 -21.523,107.315 -31.858,161.014 0.217,10.615 -0.435,21.436 0.326,31.923 10.914,22.286 22.578,44.237 33.02,66.734 20.885,52.538 41.769,105.076 62.654,157.614 0,21.667 0,43.333 0,65 -10.667,-11 -21.333,-22 -32,-33 -21.333,11 -42.667,22 -64,33 -21.667,-21.667 -43.333,-43.333 -65,-65 -10.667,21.667 -21.333,43.333 -32,65 -32,10.667 -64,21.333 -96,32 -10.667,-10.667 -21.333,-21.333 -32,-32 0,-21.667 0,-43.333 0,-65 -11,-10.667 -22,-21.333 -33,-32 -21.333,0 -42.667,0 -64,0 -53.912,-43.065 -107.602,-86.477 -161.652,-129.326 -21.116,-10.558 -42.232,-21.116 -63.348,-31.674 -42.667,0 -85.333,0 -128,0 -56.819,18.646 -113.605,37.391 -170.061,57.115 -7.756,2.9 -15.99,5.034 -23.454,8.4 -10.544,10.757 -21.578,21.155 -31.819,32.133 -10.889,21.117 -21.777,42.235 -32.666,63.352 -42.667,0 -85.333,0 -128,0 -11,85.667 -22,171.333 -33,257 -21.333,10.667 -42.667,21.333 -64,32 -42.667,86 -85.333,172 -128,258 -11.19,-0.222 -22.59,0.441 -33.652,-0.326 -21.116,-10.558 -42.232,-21.116 -63.348,-31.674 -10.667,0 -21.333,0 -32,0 -10.667,21.333 -21.333,42.667 -32,64 -21.333,0 -42.667,0 -64,0 -32.88,31.445 -64.792,63.873 -97,96 -10.667,0 -21.333,0 -32,0 -10.667,-32 -21.333,-64 -32,-96 -10.667,-10.667 -21.333,-21.333 -32,-32 -10.667,0 -21.333,0 -32,0 -11,-53.667 -22,-107.333 -33,-161 -21.333,10.667 -42.667,21.333 -64,32 -10.667,0 -21.333,0 -32,0 0,-32 0,-64 0,-96 -10.667,-11 -21.333,-22 -32,-33 -10.667,0 -21.333,0 -32,0 -32.333,-32 -64.667,-64 -97,-96 -21.552,-0.152 -43.202,0.305 -64.692,-0.228 -32.103,-10.591 -64.205,-21.181 -96.308,-31.772 -10.753,-21.822 -22.03,-43.428 -32.457,-65.384 -10.514,-31.872 -21.029,-63.744 -31.543,-95.616 -32.147,-21.537 -64.515,-42.799 -96.523,-64.507 -11.085,-10.55 -21.832,-21.567 -33.125,-31.827 -21.117,-10.889 -42.235,-21.777 -63.352,-32.666 0,-21.333 0,-42.667 0,-64 -32,0 -64,0 -96,0 -21.667,-10.667 -43.333,-21.333 -65,-32 -64.333,0 -128.667,0 -193,0 0,10.667 0,21.333 0,32 -21.333,10.667 -42.667,21.333 -64,32 -64.333,0 -128.667,0 -193,0 -32.255,-10.59 -64.411,-21.794 -96.729,-32 -21.424,0 -42.847,0 -64.271,0 -32,21.333 -64,42.667 -96,64 -10.667,0 -21.333,0 -32,0 -21.333,21.667 -42.667,43.333 -64,65 -53.667,-21.667 -107.333,-43.333 -161,-65 -21.667,0 -43.333,0 -65,0 -21.333,11 -42.667,22 -64,33 -10.667,0 -21.333,0 -32,0 -32.333,-32.333 -64.667,-64.667 -97,-97 -42.667,0 -85.333,0 -128,0 10.667,32.333 21.333,64.667 32,97 -10.667,10.667 -21.333,21.333 -32,32 -43,0 -86,0 -129,0 0,-21.667 0,-43.333 0,-65 -10.667,-10.667 -21.333,-21.333 -32,-32 -21.333,21.667 -42.667,43.333 -64,65 -32.333,-21.667 -64.667,-43.333 -97,-65 -21.333,10.667 -42.667,21.333 -64,32 -10.875,-0.18 -21.888,0.359 -32.677,-0.269 -53.441,-21.244 -106.882,-42.487 -160.323,-63.731 -10.667,10.667 -21.333,21.333 -32,32 0,10.667 0,21.333 0,32 32,21.667 64,43.333 96,65 11,32 22,64 33,96 0,75 0,150 0,225 -53.667,43 -107.333,86 -161,129 -21.333,43 -42.667,86 -64,129 -43.216,42.788 -86.258,85.776 -129.583,128.438 -42.805,32.187 -85.611,64.375 -128.417,96.562 -10.667,21.333 -21.333,42.667 -32,64 0,32 0,64 0,96 -64.333,11 -128.667,22 -193,33 -21.333,32 -42.667,64 -64,96 -43,10.667 -86,21.333 -129,32 -10.667,10.667 -21.333,21.333 -32,32 -32,-10.667 -64,-21.333 -96,-32 -21.918,21.399 -43.523,43.217 -65.637,64.355 -96.121,53.548 -192.242,107.097 -288.363,160.645 -10.667,32.333 -21.333,64.667 -32,97 -21.567,21.429 -42.886,43.163 -64.608,64.401 -32.131,21.2 -64.261,42.399 -96.392,63.599 -64.333,0 -128.667,0 -193,0 -21.333,-10.667 -42.667,-21.333 -64,-32 -10.667,10.667 -21.333,21.333 -32,32 10.667,10.667 21.333,21.333 32,32 0,43 0,86 0,129 -43,32.333 -86,64.667 -129,97 -407.545,-171.789 -815.14,-343.467 -1222.653,-515.325 -64.115,-31.891 -128.231,-63.783 -192.347,-95.675 -53.333,-11 -106.667,-22 -160,-33 -43.254,-32.042 -86.272,-64.496 -129.673,-96.281 -258.881,-108.037 -517.848,-215.876 -776.677,-324.038 -963.877,-417.83 -1927.795,-835.567 -2891.647,-1253.455 -388.461,-172.376 -776.849,-344.918 -1165.355,-517.19 -754.316,-329.93 -1508.713,-659.674 -2262.973,-989.731 -99.859,-43.798 -199.852,-87.312 -299.628,-131.289 -43.051,-21.552 -85.896,-43.563 -129.077,-64.828 -52.854,-21.212 -105.821,-42.187 -158.604,-63.547 -321.679,-182.311 -643.31,-364.712 -965.018,-546.967 -300.846,-150.479 -601.784,-300.78 -902.573,-451.371 -419.35,-220.712 -838.793,-441.25 -1258.085,-662.072 -170.061,-89.915 -340.235,-179.626 -510.226,-269.67 -321.564,-182.417 -643.048,-364.979 -964.664,-547.305 -594.591,-323.975 -1189.111,-648.078 -1783.746,-971.973 -251.547,-136.24 -503.165,-272.36 -754.669,-408.675 -117.461,-74.869 -234.923,-149.739 -352.385,-224.608 -150.935,-32.601 -301.929,-64.951 -452.828,-97.708 -171.445,-42.878 -342.833,-86.01 -514.315,-128.728 -578.42,-117.655 -1156.874,-235.162 -1735.273,-352.91 -483.286,-118.193 -966.536,-236.538 -1449.845,-354.636 -420.851,-96.943 -841.662,-194.066 -1262.538,-290.897 -94.651,-21.395 -189.397,-42.383 -283.987,-64.034 C 16529.81,65687.058 15878.405,65527.029 15227,65367 c -32.218,-0.152 -64.535,0.305 -96.692,-0.228 -60.895,-20.249 -121.902,-40.155 -183.122,-59.4 -206.729,-65.791 -413.457,-131.581 -620.186,-197.372 -21.593,-10.654 -43.018,-21.793 -64.714,-32.145 -739.429,-149.952 -1478.857,-299.903 -2218.286,-449.855 -54.295,-22.046 -108.781,-43.667 -162.956,-65.978 -278.689,-139.286 -557.288,-278.762 -836.034,-417.929 -729.342,-332.274 -1458.6347,-664.659 -2188.008,-996.865 C 8204.668,62858.152 7552.334,62569.076 6900,62280 c -96.6667,-53.333 -193.3333,-106.667 -290,-160 z"
         id="path48" />
    </g>
  </g>
</svg>
