<?xml version="1.0" encoding="UTF-8" standalone="no"?>
<!-- Created with Inkscape (http://www.inkscape.org/) -->

<svg
   xmlns:dc="http://purl.org/dc/elements/1.1/"
   xmlns:cc="http://creativecommons.org/ns#"
   xmlns:rdf="http://www.w3.org/1999/02/22-rdf-syntax-ns#"
   xmlns:svg="http://www.w3.org/2000/svg"
   xmlns="http://www.w3.org/2000/svg"
   xmlns:sodipodi="http://sodipodi.sourceforge.net/DTD/sodipodi-0.dtd"
   xmlns:inkscape="http://www.inkscape.org/namespaces/inkscape"
   width="23.952272mm"
   height="28.022921mm"
   viewBox="0 0 23.952272 28.022921"
   version="1.1"
   id="svg796"
   inkscape:version="0.92.5 (2060ec1f9f, 2020-04-08)"
   sodipodi:docname="ap.svg">
  <defs
     id="defs790" />
  <sodipodi:namedview
     id="base"
     pagecolor="#ffffff"
     bordercolor="#666666"
     borderopacity="1.0"
     inkscape:pageopacity="0.0"
     inkscape:pageshadow="2"
     inkscape:zoom="0.35"
     inkscape:cx="470.97842"
     inkscape:cy="-395.61473"
     inkscape:document-units="mm"
     inkscape:current-layer="layer1"
     showgrid="false"
     inkscape:window-width="1366"
     inkscape:window-height="704"
     inkscape:window-x="0"
     inkscape:window-y="0"
     inkscape:window-maximized="1" />
  <metadata
     id="metadata793">
    <rdf:RDF>
      <cc:Work
         rdf:about="">
        <dc:format>image/svg+xml</dc:format>
        <dc:type
           rdf:resource="http://purl.org/dc/dcmitype/StillImage" />
        <dc:title></dc:title>
      </cc:Work>
    </rdf:RDF>
  </metadata>
  <g
     inkscape:label="Layer 1"
     inkscape:groupmode="layer"
     id="layer1"
     transform="translate(52.041612,-16.137349)">
    <g
       transform="matrix(9.9994773e-4,0,0,9.9994773e-4,-148.14956,10.570743)"
       id="Amapa">
      <path
         inkscape:connector-curvature="0"
         style="fill:#999999;stroke:#ffffff;stroke-width:282.23678589;stroke-miterlimit:4;stroke-dasharray:none;stroke-opacity:1"
         d="m 96286,15497 c 117.667,-10.667 235.333,-21.333 353,-32 75,-42.667 150,-85.333 225,-128 96.667,32 193.333,64 290,96 -10.667,139.333 -21.333,278.667 -32,418 53.667,64.333 107.333,128.667 161,193 85.667,-21.333 171.333,-42.667 257,-64 268,203.667 536,407.333 804,611 385.667,53.333 771.333,106.667 1157,160 300,-85.667 600,-171.333 900,-257 21.67,-10.667 43.33,-21.333 65,-32 21.33,10.667 42.67,21.333 64,32 10.67,-21.333 21.33,-42.667 32,-64 21.33,0 42.67,0 64,0 11,10.667 22,21.333 33,32 10.67,-10.667 21.33,-21.333 32,-32 0,-10.667 0,-21.333 0,-32 10.67,-10.667 21.33,-21.333 32,-32 -10.67,-32.333 -21.33,-64.667 -32,-97 0,-21.333 0,-42.667 0,-64 10.67,-10.667 21.33,-21.333 32,-32 0,10.667 0,21.333 0,32 21.33,0 42.67,0 64,0 0,21.333 0,42.667 0,64 21.67,10.667 43.33,21.333 65,32 10.67,-32 21.33,-64 32,-96 10.67,10.667 21.33,21.333 32,32 0,-10.667 0,-21.333 0,-32 10.67,-10.667 21.33,-21.333 32,-32 -10.67,-11 -21.33,-22 -32,-33 10.67,-21.333 21.33,-42.667 32,-64 21.33,0 42.67,0 64,0 10.67,10.667 21.33,21.333 32,32 11,-10.667 22,-21.333 33,-32 10.67,10.667 21.33,21.333 32,32 10.74,-0.06 21.53,0.11 32.25,-0.08 31.92,-10.639 63.83,-21.278 95.75,-31.917 10.67,0 21.33,0 32,0 -10.67,-21.333 -21.33,-42.667 -32,-64 -10.67,0 -21.33,0 -32,0 -10.67,-10.667 -21.33,-21.333 -32,-32 32,-11 64,-22 96,-33 11,-21.333 22,-42.667 33,-64 10.67,0 21.33,0 32,0 10.67,-10.667 21.33,-21.333 32,-32 10.67,0 21.33,0 32,0 21.33,-21.333 42.67,-42.667 64,-64 53.67,0 107.33,0 161,0 10.67,10.667 21.33,21.333 32,32 -10.67,0 -21.33,0 -32,0 -21.33,10.667 -42.67,21.333 -64,32 21.33,10.667 42.67,21.333 64,32 10.67,-10.667 21.33,-21.333 32,-32 11,21.333 22,42.667 33,64 10.67,-10.667 21.33,-21.333 32,-32 -10.67,21.333 -21.33,42.667 -32,64 -21.67,11 -43.33,22 -65,33 10.67,21.333 21.33,42.667 32,64 -10.67,0 -21.33,0 -32,0 -10.67,10.667 -21.33,21.333 -32,32 0,10.667 0,21.333 0,32 21.33,0 42.67,0 64,0 11,-10.667 22,-21.333 33,-32 32,10.667 64,21.333 96,32 21.33,0 42.67,0 64,0 10.67,21.667 21.33,43.333 32,65 11,0 22,0 33,0 0,-11 0,-22 0,-33 32,0 64,0 96,0 0,11 0,22 0,33 10.67,-11 21.33,-22 32,-33 0,32.333 0,64.667 0,97 43,0 86,0 129,0 10.67,10.667 21.33,21.333 32,32 10.67,0 21.33,0 32,0 0,-10.667 0,-21.333 0,-32 21.33,0 42.67,0 64,0 21.67,21.333 43.33,42.667 65,64 32,0 64,0 96,0 21.67,21.667 43.33,43.333 65,65 32,0 64,0 96,0 21.33,-11 42.67,-22 64,-33 10.67,0 21.33,0 32,0 21.67,11 43.33,22 65,33 21.33,-11 42.67,-22 64,-33 21.33,11 42.67,22 64,33 21.67,-11 43.33,-22 65,-33 0,-10.667 0,-21.333 0,-32 -11,-10.667 -22,-21.333 -33,-32 -10.67,-21.333 -21.33,-42.667 -32,-64 10.67,0 21.33,0 32,0 43,21.333 86,42.667 129,64 10.67,-21.333 21.33,-42.667 32,-64 10.67,0 21.33,0 32,0 11,-10.667 22,-21.333 33,-32 21.33,0 42.67,0 64,0 10.67,-21.667 21.33,-43.333 32,-65 21.33,0 42.67,0 64,0 16.28,-16.25 32.43,-32.638 49.06,-48.539 5.33,-5.249 10.84,-10.359 16.06,-15.695 10.62,-21.255 21.25,-42.511 31.88,-63.766 0,-21.667 0,-43.333 0,-65 21.33,-10.667 42.67,-21.333 64,-32 21.33,0 42.67,0 64,0 11,21.333 22,42.667 33,64 10.67,-10.667 21.33,-21.333 32,-32 10.67,21.667 21.33,43.333 32,65 0,21.333 0,42.667 0,64 10.67,10.667 21.33,21.333 32,32 21.33,10.667 42.67,21.333 64,32 21.67,0 43.33,0 65,0 0,21.667 0,43.333 0,65 32,10.667 64,21.333 96,32 0,21.333 0,42.667 0,64 21.33,10.667 42.67,21.333 64,32 21.67,-10.667 43.33,-21.333 65,-32 10.67,21.333 21.33,42.667 32,64 -43,32.333 -86,64.667 -129,97 -10.67,-10.667 -21.33,-21.333 -32,-32 0,32 0,64 0,96 -10.67,10.667 -21.33,21.333 -32,32 -21.33,0 -42.67,0 -64,0 10.67,10.667 21.33,21.333 32,32 -10.67,21.667 -21.33,43.333 -32,65 -11,10.667 -22,21.333 -33,32 0,10.667 0,21.333 0,32 11,10.667 22,21.333 33,32 10.67,0 21.33,0 32,0 -10.67,-10.667 -21.33,-21.333 -32,-32 10.67,0 21.33,0 32,0 10.67,10.667 21.33,21.333 32,32 21.33,-21.333 42.67,-42.667 64,-64 10.67,0 21.33,0 32,0 11,-10.667 22,-21.333 33,-32 10.67,0 21.33,0 32,0 21.33,21.333 42.67,42.667 64,64 0,-10.667 0,-21.333 0,-32 10.67,10.667 21.33,21.333 32,32 10.67,-10.667 21.33,-21.333 32,-32 32.33,0 64.67,0 97,0 21.33,-10.667 42.67,-21.333 64,-32 53.67,-10.667 107.33,-21.333 161,-32 96.33,0 192.67,0 289,0 21.67,21.333 43.33,42.667 65,64 0,10.667 0,21.333 0,32 32,32 64,64 96,96 53.67,0 107.33,0 161,0 42.67,21.667 85.33,43.333 128,65 64.33,-10.667 128.67,-21.333 193,-32 10.67,-32.333 21.33,-64.667 32,-97 -10.67,-10.667 -21.33,-21.333 -32,-32 10.67,0 21.33,0 32,0 11,10.667 22,21.333 33,32 0,-10.667 0,-21.333 0,-32 21.33,0 42.67,0 64,0 10.67,10.667 21.33,21.333 32,32 10.67,-10.667 21.33,-21.333 32,-32 10.67,-32 21.33,-64 32,-96 11,-11 22,-22 33,-33 0,-21.333 0,-42.667 0,-64 21.33,-10.667 42.67,-21.333 64,-32 0,-32 0,-64 0,-96 32,0 64,0 96,0 0,-11 0,-22 0,-33 -10.67,-21.333 -21.33,-42.667 -32,-64 32.33,0 64.67,0 97,0 0,-10.667 0,-21.333 0,-32 10.67,0 21.33,0 32,0 53.33,-21.333 106.67,-42.667 160,-64 21.67,-21.667 43.33,-43.333 65,-65 10.67,10.667 21.33,21.333 32,32 0,-21.333 0,-42.667 0,-64 10.67,10.667 21.33,21.333 32,32 10.67,-10.667 21.33,-21.333 32,-32 32.33,-10.667 64.67,-21.333 97,-32 10.67,-10.667 21.33,-21.333 32,-32 10.67,0 21.33,0 32,0 21.33,-10.667 42.67,-21.333 64,-32 0,-11 0,-22 0,-33 86,-64 172,-128 258,-192 10.67,-21.667 21.33,-43.333 32,-65 -10.67,-10.667 -21.33,-21.333 -32,-32 32,-32 64,-64 96,-96 0,-21.667 0,-43.333 0,-65 21.33,-21.333 42.67,-42.667 64,-64 21.67,0 43.33,0 65,0 10.67,-10.667 21.33,-21.333 32,-32 -10.67,-10.667 -21.33,-21.333 -32,-32 10.67,-21.333 21.33,-42.667 32,-64 32,0 64,0 96,0 0,-32.333 0,-64.667 0,-97 32.33,-32 64.67,-64 97,-96 21.33,0 42.67,0 64,0 0,-21.667 0,-43.333 0,-65 -10.67,-32 -21.33,-64 -32,-96 21.33,-10.667 42.67,-21.333 64,-32 10.67,0 21.33,0 32,0 0,-11 0,-22 0,-33 10.67,-21.333 21.33,-42.667 32,-64 11,0 22,0 33,0 -11,-32 -22,-64 -33,-96 -32,-21.667 -64,-43.333 -96,-65 10.67,-21.333 21.33,-42.667 32,-64 -21.33,-21.333 -42.67,-42.667 -64,-64 22.29,-22.347 44.7,-44.577 66.91,-66.999 9.7,-10 19.39,-20.001 29.09,-30.001 10.67,11 21.33,22 32,33 21.76,-53.818 43.42,-107.677 65.23,-161.468 17.01,-34.55 33.95,-69.132 51.27,-103.528 25.21,-50.457 50.42,-100.915 75.87,-151.254 11.21,-22.25 22.42,-44.5 33.63,-66.75 0,-10.667 0,-21.333 0,-32 10.67,-21.333 21.33,-42.667 32,-64 -10.67,-21.667 -21.33,-43.333 -32,-65 10.82,-21.548 21.5,-43.171 32.4,-64.673 31.87,-53.442 63.73,-106.885 95.6,-160.327 10.67,-32 21.33,-64 32,-96 43,-64.333 86,-128.667 129,-193 21.33,-21.333 42.67,-42.667 64,-64 10.67,10.667 21.33,21.333 32,32 10.67,0 21.33,0 32,0 21.67,-32.333 43.33,-64.667 65,-97 0,-10.667 0,-21.333 0,-32 -10.67,0 -21.33,0 -32,0 -11,-10.667 -22,-21.333 -33,-32 0,-32 0,-64 0,-96 11,0 22,0 33,0 17.09,-34.705 34.1,-69.444 51.5,-103.996 14.83,-29.668 29.67,-59.336 44.5,-89.004 0,-32.333 0,-64.667 0,-97 10.67,-32 21.33,-64 32,-96 10.67,-10.667 21.33,-21.333 32,-32 23,-45.736 46.14,-91.407 69.06,-137.185 19.98,-40.272 39.96,-80.543 59.94,-120.815 -32,-32 -64,-64 -96,-96 10.67,-21.333 21.33,-42.667 32,-64 10.67,-11 21.33,-22 32,-33 -10.67,-10.667 -21.33,-21.333 -32,-32 -10.67,10.667 -21.33,21.333 -32,32 -11,-10.667 -22,-21.333 -33,-32 11,-21.333 22,-42.667 33,-64 10.67,10.667 21.33,21.333 32,32 10.67,-10.667 21.33,-21.333 32,-32 -10.67,-10.667 -21.33,-21.333 -32,-32 17.17,-34.331 34.4,-68.631 51.26,-103.116 4.24,-8.628 8.49,-17.256 12.74,-25.884 21.33,-10.667 42.67,-21.333 64,-32 21.67,10.667 43.33,21.333 65,32 -10.67,-53.667 -21.33,-107.333 -32,-161 21.33,-21.333 42.67,-42.667 64,-64 0,-21.333 0,-42.667 0,-64 42.67,-21.333 85.33,-42.667 128,-64 0,-11 0,-22 0,-33 11,-10.667 22,-21.333 33,-32 10.67,10.667 21.33,21.333 32,32 10.67,21.667 21.33,43.333 32,65 21.33,-10.667 42.67,-21.333 64,-32 10.7,-11.082 21.5,-22.085 32.15,-33.217 42.95,-64.261 85.9,-128.522 128.85,-192.783 10.67,-10.667 21.33,-21.333 32,-32 0,-21.333 0,-42.667 0,-64 53.67,-64.333 107.33,-128.667 161,-193 10.72,-32.073 21.34,-64.184 32.12,-96.234 64.29,-128.588 128.59,-257.177 192.88,-385.766 21.33,-21.667 42.67,-43.333 64,-65 10.67,-42.667 21.33,-85.333 32,-128 12.38,-12.116 24.99,-24.002 37.21,-36.279 19.93,-20.24 39.86,-40.481 59.79,-60.721 -10.67,-10.667 -21.33,-21.333 -32,-32 32,-10.667 64,-21.333 96,-32 53.67,-118 107.33,-236 161,-354 32,-32 64,-64 96,-96 11,-21.3333 22,-42.6667 33,-64 10.67,-75 21.33,-150 32,-225 16.14,-16.6031 32.13,-33.3541 48.61,-49.6144 5.13,-5.1286 10.26,-10.2571 15.39,-15.3856 10.67,-53.6667 21.33,-107.3333 32,-161 21.67,-21.3333 43.33,-42.6667 65,-64 42.67,10.6667 85.33,21.3333 128,32 10.67,-32 21.33,-64 32,-96 -10.67,-43 -21.33,-86 -32,-129 10.67,-21.3333 21.33,-42.6667 32,-64 21.67,-10.6667 43.33,-21.3333 65,-32 10.67,-10.6667 21.33,-21.3333 32,-32 21.33,0 42.67,0 64,0 21.33,-10.6667 42.67,-21.3333 64,-32 21.67,-32.3333 43.33,-64.6667 65,-97 0,-10.6667 0,-21.3333 0,-32 21.33,-21.3333 42.67,-42.6667 64,-64 32,-11 64,-22 96,-33 11,-21.3333 22,-42.6667 33,-64 0,-10.6667 0,-21.3333 0,-32 32,-21.3333 64,-42.6667 96,-64 21.33,-32.3333 42.67,-64.6667 64,-97 11,-32 22,-64 33,-96 0,-53.6667 0,-107.3333 0,-161 10.67,-21.3333 21.33,-42.6667 32,-64 35.21,-35.52 70.3,-71.1608 105.6,-106.5995 7.47,-7.4668 14.93,-14.9337 22.4,-22.4005 53.67,-10.6667 107.33,-21.3333 161,-32 21.33,-10.6667 42.67,-21.3333 64,-32 21.67,-21.6667 43.33,-43.3333 65,-65 32,-10.6667 64,-21.3333 96,-32 32.33,-21.3333 64.67,-42.6667 97,-64 0,-53.6667 0,-107.3333 0,-161 10.71,-21.5038 21.56,-42.9485 32.18,-64.4891 31.99,-85.578 63.91,-171.1846 95.94,-256.7448 21.29,-42.922 42.59,-85.8441 63.88,-128.7661 11,-42.6667 22,-85.3333 33,-128 0,-53.6667 0,-107.3333 0,-161 10.67,-11 21.33,-22 32,-33 10.66,-42.7558 21.43,-85.4928 32.02,-128.2603 10.66,-139.2466 21.32,-278.4931 31.98,-417.7397 32.33,-118 64.67,-236 97,-354 21.33,-21.3333 42.67,-42.6667 64,-64 42.67,-10.6667 85.33,-21.3333 128,-32 21.67,21.3333 43.33,42.6667 65,64 21.33,0 42.67,0 64,0 53.67,53.6667 107.33,107.3333 161,161 42.72,32.0709 85.5,64.0671 128.18,96.1846 128.72,128.7368 257.48,257.4393 386.18,386.1974 149.88,160.8727 299.76,321.7453 449.64,482.618 0,10.6667 0,21.3333 0,32 32.33,42.6667 64.67,85.3333 97,128 10.67,32.3333 21.33,64.6667 32,97 21.33,32 42.67,64 64,96 32.33,96.3333 64.67,192.6667 97,289 0,11 0,22 0,33 10.67,10.6667 21.33,21.3333 32,32 0,64.3333 0,128.6667 0,193 10.67,32 21.33,64 32,96 0,75 0,150 0,225 10.76,10.6916 21.4,21.5295 32.23,32.1299 74.92,42.9567 149.85,85.9134 224.77,128.8701 43,0 86,0 129,0 21.33,21.3333 42.67,42.6667 64,64 0,10.6667 0,21.3333 0,32 10.67,0 21.33,0 32,0 0,64.3333 0,128.6667 0,193 -10.67,32.3333 -21.33,64.6667 -32,97 0,118 0,236 0,354 -10.67,10.6667 -21.33,21.3333 -32,32 10.67,32 21.33,64 32,96 -10.67,21.3333 -21.33,42.6667 -32,64 0,64.4186 -0.1,128.8442 0,193.2585 10.66,75.4215 21.39,150.835 32.01,226.2614 21.65,235.4934 43.3,470.9871 64.95,706.4801 -21.67,53.667 -43.33,107.333 -65,161 0,-11 0,-22 0,-33 -10.67,11 -21.33,22 -32,33 0,107 0,214 0,321 10.89,32.901 21.65,65.846 32.62,98.719 96.46,267.094 192.92,534.187 289.38,801.281 -11.05,32.407 -22.01,64.85 -33.12,97.234 -10.62,21.255 -21.25,42.511 -31.88,63.766 0,53.667 0,107.333 0,161 10.67,43 21.33,86 32,129 32.33,32 64.67,64 97,96 0,21.333 0,42.667 0,64 -10.67,21.667 -21.33,43.333 -32,65 0,32 0,64 0,96 10.68,21.421 21.46,42.803 32.08,64.248 10.64,32.251 21.28,64.501 31.92,96.752 21.33,21.333 42.67,42.667 64,64 0,64.333 0,128.667 0,193 11,43 22,86 33,129 10.68,21.421 21.46,42.803 32.08,64.248 10.64,31.917 21.28,63.835 31.92,95.752 32,32.333 64,64.667 96,97 0,75 0,150 0,225 11,32.333 22,64.667 33,97 -11,21.333 -22,42.667 -33,64 32.33,-10.667 64.67,-21.333 97,-32 21.33,21.333 42.67,42.667 64,64 10.67,0 21.33,0 32,0 10.67,21.333 21.33,42.667 32,64 -10.67,21.667 -21.33,43.333 -32,65 0,21.333 0,42.667 0,64 21.67,10.667 43.33,21.333 65,32 10.67,21.333 21.33,42.667 32,64 0,86 0,172 0,258 21.33,10.667 42.67,21.333 64,32 32,32 64,64 96,96 0,21.667 0,43.333 0,65 11,10.667 22,21.333 33,32 0,85.667 0,171.333 0,257 10.67,21.333 21.33,42.667 32,64 10.67,64.333 21.33,128.667 32,193 -10.67,43 -21.33,86 -32,129 -21.67,10.667 -43.33,21.333 -65,32 -10.67,21.333 -21.33,42.667 -32,64 10.67,0 21.33,0 32,0 0,-10.667 0,-21.333 0,-32 21.67,0 43.33,0 65,0 32,-21.333 64,-42.667 96,-64 21.67,0 43.33,0 65,0 21.33,10.667 42.67,21.333 64,32 10.67,21.333 21.33,42.667 32,64 0,21.667 0,43.333 0,65 21.33,32 42.67,64 64,96 11,10.667 22,21.333 33,32 0,32.333 0,64.667 0,97 -11,32 -22,64 -33,96 11.59,22.593 23.37,45.096 34.84,67.748 10.06,20.417 20.11,40.835 30.16,61.252 -10.67,32 -21.33,64 -32,96 21.33,10.667 42.67,21.333 64,32 10.67,21.333 21.33,42.667 32,64 0,53.667 0,107.333 0,161 10.72,21.733 21.37,43.512 32.14,65.217 21.29,31.928 42.57,63.855 63.86,95.783 0,64.333 0,128.667 0,193 11,0 22,0 33,0 10.67,10.667 21.33,21.333 32,32 31.6,63.648 63.07,127.363 94.94,190.88 2.25,4.524 3.35,9.526 5.11,14.256 9.31,27.955 18.63,55.909 27.95,83.864 0,32.333 0,64.667 0,97 -10.67,10.667 -21.33,21.333 -32,32 -21.33,0 -42.67,0 -64,0 0,10.667 0,21.333 0,32 58.67,-23.361 117.39,-46.582 176.02,-70.036 102.08,-41.01 204.14,-82.062 306.23,-123.046 32.65,-10.807 65.35,-21.487 97.97,-32.375 85.26,-31.848 170.52,-63.695 255.78,-95.543 107,0 214,0 321,0 21.67,10.667 43.33,21.333 65,32 0,10.667 0,21.333 0,32 10.67,0 21.33,0 32,0 21.33,21.333 42.67,42.667 64,64 10.67,32.333 21.33,64.667 32,97 43,53.667 86,107.333 129,161 0,10.667 0,21.333 0,32 10.67,10.667 21.33,21.333 32,32 10.67,21.333 21.33,42.667 32,64 10.67,0 21.33,0 32,0 32.33,32.333 64.67,64.667 97,97 -10.67,21.333 -21.33,42.667 -32,64 10.67,10.667 21.33,21.333 32,32 0,10.667 0,21.333 0,32 21.33,32.333 42.67,64.667 64,97 0,21.333 0,42.667 0,64 32.33,21.333 64.67,42.667 97,64 0,53.667 0,107.333 0,161 10.67,10.667 21.33,21.333 32,32 10.74,21.917 21.64,43.769 32.29,65.728 42.84,107.491 85.75,214.956 128.55,322.465 53.39,138.602 106.77,277.205 160.16,415.807 107.33,-21.333 214.67,-42.667 322,-64 107,42.667 214,85.333 321,128 21.67,0 43.33,0 65,0 53.5,21.71 106.97,43.508 160.5,65.164 32.16,10.612 64.33,21.224 96.5,31.836 55.03,32.779 110,65.652 165.06,98.371 126.98,74.21 253.96,148.419 380.94,222.629 11,11 22,22 33,33 0,21.333 0,42.667 0,64 -11,10.667 -22,21.333 -33,32 0,10.667 0,21.333 0,32 21.67,0 43.33,0 65,0 10.73,64.852 21.55,129.69 32.22,194.551 21.27,149.657 42.59,299.308 63.84,448.968 10.64,96.581 21.35,193.158 31.94,289.742 0,53.332 0.1,106.67 0,159.997 -10.65,74.914 -21.31,149.828 -31.96,224.742 10.67,21.667 21.33,43.333 32,65 -21.33,96.333 -42.67,192.667 -64,289 -32,53.667 -64,107.333 -96,161 10.66,32.09 21.45,64.151 32.04,96.258 10.65,74.914 21.31,149.828 31.96,224.742 10.67,21.667 21.33,43.333 32,65 0,42.667 0,85.333 0,128 -32,53.667 -64,107.333 -96,161 -11.05,32.407 -22.01,64.85 -33.12,97.234 -21.29,42.588 -42.59,85.177 -63.88,127.766 -10.67,0 -21.33,0 -32,0 -10.67,10.667 -21.33,21.333 -32,32 10.67,0 21.33,0 32,0 -10.67,107.333 -21.33,214.667 -32,322 10.67,10.667 21.33,21.333 32,32 0,64.333 0,128.667 0,193 -10.67,21.333 -21.33,42.667 -32,64 -32.33,32.333 -64.67,64.667 -97,97 -10.67,0 -21.33,0 -32,0 -32,53.667 -64,107.333 -96,161 -10.72,32.073 -21.34,64.184 -32.12,96.233 -32.29,64.256 -64.59,128.511 -96.88,192.767 -32,21.333 -64,42.667 -96,64 0,10.667 0,21.333 0,32 -10.67,0 -21.33,0 -32,0 -11,-10.667 -22,-21.333 -33,-32 0,32.333 0,64.667 0,97 -10.67,21.333 -21.33,42.667 -32,64 10.67,0 21.33,0 32,0 0,32 0,64 0,96 -10.67,-10.667 -21.33,-21.333 -32,-32 -10.67,10.667 -21.33,21.333 -32,32 0,21.667 0,43.333 0,65 -21.33,0 -42.67,0 -64,0 0,10.667 0,21.333 0,32 -10.67,0 -21.33,0 -32,0 -11,128.667 -22,257.333 -33,386 -160.67,0 -321.33,0 -482,0 -53.67,10.667 -107.33,21.333 -161,32 -21.33,10.667 -42.67,21.333 -64,32 -107,21.333 -214,42.667 -321,64 -53.67,21.667 -107.33,43.333 -161,65 -75,53.333 -150,106.667 -225,160 -10.67,10.667 -21.33,21.333 -32,32 -11,0 -22,0 -33,0 -42.67,43 -85.33,86 -128,129 -23.47,46.67 -47.09,93.269 -70.46,139.986 -30.18,60.672 -60.36,121.343 -90.54,182.014 -10.67,85.667 -21.33,171.333 -32,257 -10.67,32 -21.33,64 -32,96 -32.33,43 -64.67,86 -97,129 -32,96.333 -64,192.667 -96,289 -23.19,46.647 -46.23,93.364 -69.51,139.964 -32.15,64.035 -64.41,128.017 -96.49,192.087 -30.33,60.983 -60.67,121.966 -91,182.949 -32.41,32.044 -64.76,64.157 -97.21,96.158 -42.65,32.35 -85.36,64.632 -127.98,97.026 -32.31,32.017 -64.7,63.965 -96.97,96.025 -31.94,42.931 -63.89,85.861 -95.84,128.791 -118,85.667 -236,171.333 -354,257 -64.33,32 -128.67,64 -193,96 -53.75,11.033 -107.51,22.003 -161.25,33.076 -139.25,42.642 -278.5,85.283 -417.75,127.924 -21.33,0 -42.67,0 -64,0 -21.39,10.739 -42.87,21.344 -64.2,32.167 -64.32,53.678 -128.69,107.31 -192.98,161.018 -10.7,10.76 -21.53,21.392 -32.13,32.232 -32.23,42.861 -64.46,85.722 -96.69,128.583 0,10.667 0,21.333 0,32 -10.67,0 -21.33,0 -32,0 -32.4,43.054 -64.73,86.171 -97.18,129.185 -10.64,10.688 -21.39,21.289 -31.96,32.032 -21.29,31.928 -42.57,63.855 -63.86,95.783 -32,32.333 -64,64.667 -96,97 -32.33,21.333 -64.67,42.667 -97,64 -10.67,0 -21.33,0 -32,0 -32,21.333 -64,42.667 -96,64 -96.67,11 -193.33,22 -290,33 -64.33,21.333 -128.67,42.667 -193,64 -53.7,85.749 -107.46,171.464 -161.12,257.234 -21.29,42.922 -42.59,85.844 -63.88,128.766 -42.71,53.41 -85.47,106.785 -128.15,160.217 -21.61,32.261 -43.23,64.522 -64.85,96.783 -32.72,32.761 -65.52,65.432 -98.18,98.249 -9.98,10.332 -20.05,20.587 -29.97,30.967 -21.64,32.012 -43.37,63.977 -64.97,96.018 -10.62,21.255 -21.25,42.511 -31.88,63.766 -0.1,10.924 0.13,21.863 -0.1,32.777 -10.63,85.741 -21.27,171.482 -31.9,257.223 -96.33,96.333 -192.67,192.667 -289,289 -21.67,75 -43.33,150 -65,225 -32,64.333 -64,128.667 -96,193 -53.67,53.667 -107.33,107.333 -161,161 -43.05,32.072 -86.17,64.064 -129.18,96.186 -21.43,21.815 -42.97,43.533 -64.33,65.408 -64.23,74.859 -128.42,149.754 -192.67,224.591 -42.61,42.605 -85.21,85.21 -127.82,127.815 -107.33,182.333 -214.67,364.667 -322,547 -10.67,10.667 -21.33,21.333 -32,32 -10.67,21.333 -21.33,42.667 -32,64 -10.67,11 -21.33,22 -32,33 0,53.419 0,106.843 0,160.26 -10.98,107.334 -22.03,214.665 -32.97,322.001 0,53.58 0,107.159 0,160.739 -10.67,0 -21.33,0 -32,0 10.67,117.667 21.33,235.333 32,353 11,32.333 22,64.667 33,97 0,32 0,64 0,96 -11.11,21.469 -22.1,43.014 -33.29,64.436 -21.24,32.188 -42.47,64.376 -63.71,96.564 -117.67,118 -235.33,236 -353,354 -43,32 -86,64 -129,96 -128.67,10.667 -257.33,21.333 -386,32 -46.49,-46.589 -93.36,-92.805 -140.04,-139.205 -6.99,-6.932 -13.97,-13.863 -20.96,-20.795 -21.33,10.667 -42.67,21.333 -64,32 -21.33,42.667 -42.67,85.333 -64,128 0,10.667 0,21.333 0,32 -10.67,-10.667 -21.33,-21.333 -32,-32 -11,0 -22,0 -33,0 0,-64.333 0,-128.667 0,-193 -21.33,-10.667 -42.67,-21.333 -64,-32 -10.67,0 -21.33,0 -32,0 -10.67,10.667 -21.33,21.333 -32,32 10.67,53.667 21.33,107.333 32,161 -10.67,10.667 -21.33,21.333 -32,32 0,10.667 0,21.333 0,32 -32.33,-10.667 -64.67,-21.333 -97,-32 -42.67,10.667 -85.33,21.333 -128,32 -34.63,17.578 -69.22,35.227 -104,52.498 -8.33,4.167 -16.67,8.335 -25,12.502 0,10.667 0,21.333 0,32 32,32 64,64 96,96 0,10.667 0,21.333 0,32 -10.67,21.667 -21.33,43.333 -32,65 -32,10.667 -64,21.333 -96,32 -43,-21.333 -86,-42.667 -129,-64 -10.67,0 -21.33,0 -32,0 -10.67,-11 -21.33,-22 -32,-33 0,-21.333 0,-42.667 0,-64 10.67,-32 21.33,-64 32,-96 -21.33,-53.667 -42.67,-107.333 -64,-161 0,-10.667 0,-21.333 0,-32 -43,0 -86,0 -129,0 -21.33,-21.333 -42.67,-42.667 -64,-64 -96.67,0 -193.33,0 -290,0 -21.33,-11 -42.67,-22 -64,-33 -64.33,0 -128.67,0 -193,0 -42.67,-21.333 -85.33,-42.667 -128,-64 -43,0 -86,0 -129,0 -32,-75 -64,-150 -96,-225 -11,-10.667 -22,-21.333 -33,-32 -42.67,-10.667 -85.33,-21.333 -128,-32 -21.67,-21.667 -43.33,-43.333 -65,-65 -32,21.667 -64,43.333 -96,65 -16.14,-16.603 -32.13,-33.354 -48.61,-49.614 -5.13,-5.129 -10.26,-10.257 -15.39,-15.386 21.33,-21.333 42.67,-42.667 64,-64 10.67,-32 21.33,-64 32,-96 -10.67,-11 -21.33,-22 -32,-33 0,-53.333 0,-106.667 0,-160 -32,-32.333 -64,-64.667 -96,-97 0,-32 0,-64 0,-96 16.25,-16.283 32.64,-32.429 48.54,-49.055 5.15,-5.315 10.31,-10.63 15.46,-15.945 32,0 64,0 96,0 10.67,-42.667 21.33,-85.333 32,-128 -10.72,-21.733 -21.37,-43.512 -32.14,-65.217 -21.29,-31.928 -42.57,-63.855 -63.86,-95.783 -21.33,-10.667 -42.67,-21.333 -64,-32 -22.26,-21.972 -44.63,-43.831 -66.82,-65.874 -10.06,-10.375 -20.12,-20.751 -30.18,-31.126 -21.33,21.667 -42.67,43.333 -64,65 -10.74,0.06 -21.52,-0.109 -32.25,0.08 -54.24,17.88 -108.48,35.747 -162.63,53.878 -10.13,3.319 -20.23,6.859 -30.38,10.04 -42.91,0 -85.83,0 -128.74,0 10.74,-21.391 21.35,-42.862 32.16,-64.204 42.95,-53.598 85.89,-107.197 128.84,-160.796 -21.33,-10.667 -42.67,-21.333 -64,-32 0,-43 0,-86 0,-129 32,-53.667 64,-107.333 96,-161 0,-85.667 0,-171.333 0,-257 -21.33,-42.667 -42.67,-85.333 -64,-128 0,-75 0,-150 0,-225 -10.67,-53.667 -21.33,-107.333 -32,-161 -21.67,-21.667 -43.33,-43.333 -65,-65 -53.33,0 -106.67,0 -160,0 -43,11 -86,22 -129,33 -32,21.333 -64,42.667 -96,64 -21.67,0 -43.33,0 -65,0 -21.33,-10.667 -42.67,-21.333 -64,-32 -43,-64.333 -86,-128.667 -129,-193 0,-32.333 0,-64.667 0,-97 -21.37,-21.417 -42.84,-42.746 -64.14,-64.217 -21.29,-31.928 -42.57,-63.855 -63.86,-95.783 10.67,-32.333 21.33,-64.667 32,-97 -21.33,-21.333 -42.67,-42.667 -64,-64 42.67,-64.333 85.33,-128.667 128,-193 -10.67,-10.667 -21.33,-21.333 -32,-32 -21.33,-43 -42.67,-86 -64,-129 0,-32 0,-64 0,-96 21.33,-43 42.67,-86 64,-129 0,-43 0,-86 0,-129 -10.67,-21.333 -21.33,-42.667 -32,-64 -21.33,-21.333 -42.67,-42.667 -64,-64 -21.67,0 -43.33,0 -65,0 -32,-21.333 -64,-42.667 -96,-64 -21.33,-21.667 -42.67,-43.333 -64,-65 -11,-42.667 -22,-85.333 -33,-128 -117.67,-86 -235.33,-172 -353,-258 -12.01,-23.874 -23.79,-47.862 -35.95,-71.657 -9.68,-18.781 -19.37,-37.562 -29.05,-56.343 -10.67,-10.667 -21.33,-21.333 -32,-32 -32,-11 -64,-22 -96,-33 -43,11 -86,22 -129,33 -42.67,-11 -85.33,-22 -128,-33 -11,-10.667 -22,-21.333 -33,-32 -42.67,-117.667 -85.33,-235.333 -128,-353 -10.71,-43.259 -21.51,-86.496 -32.15,-129.768 -10.62,-53.411 -21.23,-106.821 -31.85,-160.232 0,-53.333 0,-106.667 0,-160 -11.08,-11.035 -22.08,-22.176 -33.22,-33.145 -31.92,-21.285 -63.85,-42.57 -95.78,-63.855 -21.33,-21.333 -42.67,-42.667 -64,-64 10.67,-64.333 21.33,-128.667 32,-193 -32.33,-10.667 -64.67,-21.333 -97,-32 -10.67,-21.667 -21.33,-43.333 -32,-65 0,-32 0,-64 0,-96 -10.67,-10.667 -21.33,-21.333 -32,-32 -10.67,-21.667 -21.33,-43.333 -32,-65 -32.33,-21.333 -64.67,-42.667 -97,-64 -21.33,-32 -42.67,-64 -64,-96 -21.33,-10.667 -42.67,-21.333 -64,-32 -10.67,-53.667 -21.33,-107.333 -32,-161 10.67,-32.333 21.33,-64.667 32,-97 10.67,-10.667 21.33,-21.333 32,-32 -32.33,-53.667 -64.67,-107.333 -97,-161 -32,-21.333 -64,-42.667 -96,-64 -10.73,-43.161 -21.36,-86.353 -32.17,-129.495 -10.61,-31.835 -21.22,-63.67 -31.83,-95.505 -32.33,-21.333 -64.67,-42.667 -97,-64 -10.67,-32.333 -21.33,-64.667 -32,-97 21.33,-32 42.67,-64 64,-96 0,-32.333 0,-64.667 0,-97 -10.67,-42.667 -21.33,-85.333 -32,-128 21.67,-53.667 43.33,-107.333 65,-161 -11,-10.667 -22,-21.333 -33,-32 -21.33,-10.667 -42.67,-21.333 -64,-32 21.33,-32.333 42.67,-64.667 64,-97 -10.67,-10.667 -21.33,-21.333 -32,-32 30.18,-29.799 60.57,-59.392 90.48,-89.475 2.17,-2.175 4.35,-4.35 6.52,-6.525 0,-21.667 0,-43.333 0,-65 -10.67,-21.333 -21.33,-42.667 -32,-64 0,-21.333 0,-42.667 0,-64 10.67,-32.333 21.33,-64.667 32,-97 42.67,-53.667 85.33,-107.333 128,-161 10.67,-64.333 21.33,-128.667 32,-193 11,-10.667 22,-21.333 33,-32 0,-10.667 0,-21.333 0,-32 -32.33,-21.333 -64.67,-42.667 -97,-64 -21.33,10.667 -42.67,21.333 -64,32 -10.67,-10.667 -21.33,-21.333 -32,-32 -10.72,-32.405 -21.34,-64.853 -32.12,-97.232 -10.96,-21.256 -21.92,-42.512 -32.88,-63.768 -42.67,-32 -85.33,-64 -128,-96 -10.67,-32.333 -21.33,-64.667 -32,-97 -11,-10.667 -22,-21.333 -33,-32 -10.67,0 -21.33,0 -32,0 -10.75,-10.702 -21.41,-21.509 -32.22,-32.145 -96.24,-64.313 -192.43,-128.698 -288.78,-192.855 -21.67,-43 -43.33,-86 -65,-129 -21.33,-21.333 -42.67,-42.667 -64,-64 -85.67,-43 -171.33,-86 -257,-129 -10.75,-10.706 -21.42,-21.501 -32.21,-32.151 -74.93,-53.283 -149.86,-106.566 -224.79,-159.849 -10.67,-32.333 -21.33,-64.667 -32,-97 10.67,-10.667 21.33,-21.333 32,-32 0,-43 0,-86 0,-129 -16.28,-16.25 -32.43,-32.638 -49.06,-48.539 -5.31,-5.153 -10.63,-10.307 -15.94,-15.461 -10.67,-32.333 -21.33,-64.667 -32,-97 0,-10.667 0,-21.333 0,-32 10.67,-10.667 21.33,-21.333 32,-32 0,-10.667 0,-21.333 0,-32 -10.67,-21.333 -21.33,-42.667 -32,-64 -10.67,0 -21.33,0 -32,0 0,-21.667 0,-43.333 0,-65 -32,-32 -64,-64 -96,-96 0,-96.333 0,-192.667 0,-289 21.33,-21.667 42.67,-43.333 64,-65 10.67,0 21.33,0 32,0 21.33,10.667 42.67,21.333 64,32 21.67,0 43.33,0 65,0 10.67,-10.667 21.33,-21.333 32,-32 0.1,-10.745 -0.11,-21.525 0.1,-32.248 10.64,-31.917 21.28,-63.835 31.92,-95.752 -10.67,-21.667 -21.33,-43.333 -32,-65 -21.33,-21.333 -42.67,-42.667 -64,-64 -11,-32 -22,-64 -33,-96 0,-32.333 0,-64.667 0,-97 -10.67,0 -21.33,0 -32,0 -10.67,10.667 -21.33,21.333 -32,32 0,10.667 0,21.333 0,32 -53.67,-10.667 -107.33,-21.333 -161,-32 -85.67,43 -171.33,86 -257,129 -21.33,0 -42.67,0 -64,0 -10.67,-21.333 -21.33,-42.667 -32,-64 0,-11 0,-22 0,-33 21.33,-21.333 42.67,-42.667 64,-64 10.67,-32 21.33,-64 32,-96 -10.67,-21.667 -21.33,-43.333 -32,-65 -32,-10.667 -64,-21.333 -96,-32 -11,0 -22,0 -33,0 0,-42.667 0,-85.333 0,-128 34.63,-17.578 69.22,-35.227 104,-52.498 8.33,-4.167 16.67,-8.335 25,-12.502 -10.67,-32 -21.33,-64 -32,-96 -10.67,-10.667 -21.33,-21.333 -32,-32 -32.33,0 -64.67,0 -97,0 0,10.667 0,21.333 0,32 -10.67,10.667 -21.33,21.333 -32,32 -32,-32 -64,-64 -96,-96 -64.33,10.667 -128.67,21.333 -193,32 -11,21.333 -22,42.667 -33,64 -21.33,0 -42.67,0 -64,0 -10.67,-21.333 -21.33,-42.667 -32,-64 21.33,-10.667 42.67,-21.333 64,-32 10.67,-11 21.33,-22 32,-33 -10.67,-32 -21.33,-64 -32,-96 10.67,-21.333 21.33,-42.667 32,-64 -10.67,-21.667 -21.33,-43.333 -32,-65 -21.33,10.667 -42.67,21.333 -64,32 -10.67,43 -21.33,86 -32,129 -21.33,0 -42.67,0 -64,0 0,-10.667 0,-21.333 0,-32 -11,-10.667 -22,-21.333 -33,-32 -21.33,21.333 -42.67,42.667 -64,64 -10.67,-10.667 -21.33,-21.333 -32,-32 -10.67,-21.333 -21.33,-42.667 -32,-64 32,-32.333 64,-64.667 96,-97 0,-10.667 0,-21.333 0,-32 -32,-21.333 -64,-42.667 -96,-64 -10.67,10.667 -21.33,21.333 -32,32 10.67,21.333 21.33,42.667 32,64 0,10.667 0,21.333 0,32 -21.33,21.667 -42.67,43.333 -64,65 0,10.667 0,21.333 0,32 -43,-10.667 -86,-21.333 -129,-32 -10.67,-21.667 -21.33,-43.333 -32,-65 -10.67,21.667 -21.33,43.333 -32,65 -11,0 -22,0 -33,0 -10.67,-11 -21.33,-22 -32,-33 -10.67,-21.333 -21.33,-42.667 -32,-64 -21.33,-10.667 -42.67,-21.333 -64,-32 -21.67,0 -43.33,0 -65,0 -10.67,10.667 -21.33,21.333 -32,32 22.26,21.972 44.63,43.831 66.82,65.874 10.06,10.375 20.12,20.751 30.18,31.126 -10.67,10.667 -21.33,21.333 -32,32 -21.67,0 -43.33,0 -65,0 -10.67,-10.667 -21.33,-21.333 -32,-32 -32,10.667 -64,21.333 -96,32 0,-10.667 0,-21.333 0,-32 10.67,-11 21.33,-22 32,-33 0,-10.667 0,-21.333 0,-32 -21.33,10.667 -42.67,21.333 -64,32 -32.33,-10.667 -64.67,-21.333 -97,-32 -10.67,10.667 -21.33,21.333 -32,32 0,-10.748 -0.1,-21.518 0.1,-32.253 10.65,-42.583 21.29,-85.165 31.94,-127.747 0,-10.667 0,-21.333 0,-32 -21.33,0 -42.67,0 -64,0 -10.67,-21.667 -21.33,-43.333 -32,-65 -32.33,0 -64.67,0 -97,0 0,21.667 0,43.333 0,65 -21.33,10.667 -42.67,21.333 -64,32 -10.67,0 -21.33,0 -32,0 0,-10.667 0,-21.333 0,-32 10.67,-11 21.33,-22 32,-33 0,-10.667 0,-21.333 0,-32 10.67,-21.333 21.33,-42.667 32,-64 -10.67,0 -21.33,0 -32,0 -21.33,-10.667 -42.67,-21.333 -64,-32 -11,10.667 -22,21.333 -33,32 0,-21.333 0,-42.667 0,-64 -21.33,-11 -42.67,-22 -64,-33 -10.67,21.667 -21.33,43.333 -32,65 -21.33,-10.667 -42.67,-21.333 -64,-32 -21.67,10.667 -43.33,21.333 -65,32 0,-53.667 0,-107.333 0,-161 -10.67,-21.333 -21.33,-42.667 -32,-64 -21.33,10.667 -42.67,21.333 -64,32 -10.67,0 -21.33,0 -32,0 10.67,10.667 21.33,21.333 32,32 -10.67,10.667 -21.33,21.333 -32,32 -21.67,-10.667 -43.33,-21.333 -65,-32 -21.33,21.333 -42.67,42.667 -64,64 -10.67,0 -21.33,0 -32,0 -10.67,-10.667 -21.33,-21.333 -32,-32 -21.33,10.667 -42.67,21.333 -64,32 10.67,10.667 21.33,21.333 32,32 -21.67,0 -43.33,0 -65,0 0,-10.667 0,-21.333 0,-32 11,-21.333 22,-42.667 33,-64 -11,-10.667 -22,-21.333 -33,-32 11,-21.333 22,-42.667 33,-64 -21.667,-43 -43.333,-86 -65,-129 -32,0 -64,0 -96,0 0,-10.667 0,-21.333 0,-32 17.086,-34.705 34.103,-69.444 51.498,-103.996 4.167,-8.335 8.335,-16.669 12.502,-25.004 0,-10.667 0,-21.333 0,-32 -21.333,21.333 -42.667,42.667 -64,64 -10.667,-21.333 -21.333,-42.667 -32,-64 -11,0 -22,0 -33,0 0,-10.667 0,-21.333 0,-32 11,0 22,0 33,0 0,-10.667 0,-21.333 0,-32 -21.667,-21.667 -43.333,-43.333 -65,-65 10.667,-10.667 21.333,-21.333 32,-32 -21.333,0 -42.667,0 -64,0 0,-21.333 0,-42.667 0,-64 -10.667,-10.667 -21.333,-21.333 -32,-32 0,10.667 0,21.333 0,32 -10.667,-10.667 -21.333,-21.333 -32,-32 -32.333,0 -64.667,0 -97,0 0,-21.667 0,-43.333 0,-65 -10.667,0 -21.333,0 -32,0 -10.667,21.667 -21.333,43.333 -32,65 0,32 0,64 0,96 -10.667,-10.667 -21.333,-21.333 -32,-32 -10.667,-32 -21.333,-64 -32,-96 -34.626,-17.578 -69.215,-35.227 -103.996,-52.498 -8.335,-4.167 -16.669,-8.335 -25.004,-12.502 0,-21.333 0,-42.667 0,-64 -21.333,0 -42.667,0 -64,0 -10.667,-10.667 -21.333,-21.333 -32,-32 -21.667,10.667 -43.333,21.333 -65,32 0,-10.667 0,-21.333 0,-32 -10.667,-10.667 -21.333,-21.333 -32,-32 10.667,-10.667 21.333,-21.333 32,-32 -10.667,-11 -21.333,-22 -32,-33 10.667,0 21.333,0 32,0 -10.667,-10.667 -21.333,-21.333 -32,-32 -10.667,10.667 -21.333,21.333 -32,32 -21.333,-10.667 -42.667,-21.333 -64,-32 21.333,-21.333 42.667,-42.667 64,-64 -21.333,10.667 -42.667,21.333 -64,32 0,-10.667 0,-21.333 0,-32 -10.667,0 -21.333,0 -32,0 -11,-10.667 -22,-21.333 -33,-32 -10.667,0 -21.333,0 -32,0 10.667,-10.667 21.333,-21.333 32,-32 -32,0 -64,0 -96,0 0,-10.667 0,-21.333 0,-32 -10.667,10.667 -21.333,21.333 -32,32 -21.333,0 -42.667,0 -64,0 0,-10.667 0,-21.333 0,-32 -11,0 -22,0 -33,0 0,-11 0,-22 0,-33 -42.667,-21.333 -85.333,-42.667 -128,-64 -10.667,32.333 -21.333,64.667 -32,97 -21.667,-21.667 -43.333,-43.333 -65,-65 -32,0 -64,0 -96,0 -21.333,10.667 -42.667,21.333 -64,32 -43,-10.667 -86,-21.333 -129,-32 -10.667,0 -21.333,0 -32,0 0,10.667 0,21.333 0,32 -21.333,-10.667 -42.667,-21.333 -64,-32 0,10.667 0,21.333 0,32 -21.667,11 -43.333,22 -65,33 -10.667,-11 -21.333,-22 -32,-33 -10.667,0 -21.333,0 -32,0 -21.333,-10.667 -42.667,-21.333 -64,-32 -16.603,-16.139 -33.354,-32.128 -49.614,-48.614 -5.129,-5.129 -10.257,-10.257 -15.386,-15.386 -53.667,-10.667 -107.333,-21.333 -161,-32 0,-10.667 0,-21.333 0,-32 -21.333,10.667 -42.667,21.333 -64,32 -32,-10.667 -64,-21.333 -96,-32 -10.667,10.667 -21.333,21.333 -32,32 -21.667,-10.667 -43.333,-21.333 -65,-32 -32,21.333 -64,42.667 -96,64 -10.745,0.06 -21.525,-0.109 -32.248,0.08 -32.251,10.639 -64.501,21.279 -96.752,31.918 -10.667,-10.667 -21.333,-21.333 -32,-32 -21.333,0 -42.667,0 -64,0 -10.667,-10.667 -21.333,-21.333 -32,-32 0,10.667 0,21.333 0,32 -32.333,0 -64.667,0 -97,0 -43,-10.667 -86,-21.333 -129,-32 0,-10.667 0,-21.333 0,-32 -10.667,-11 -21.333,-22 -32,-33 0,-10.667 0,-21.333 0,-32 10.667,-10.667 21.333,-21.333 32,-32 -10.667,-21.333 -21.333,-42.667 -32,-64 32.333,-21.667 64.667,-43.333 97,-65 -10.667,0 -21.333,0 -32,0 0,-10.667 0,-21.333 0,-32 -16.603,-16.139 -33.354,-32.128 -49.614,-48.614 -5.129,-5.129 -10.257,-10.257 -15.386,-15.386 0,-43 0,-86 0,-129 -10.667,-21.333 -21.333,-42.667 -32,-64 0,-21.333 0,-42.667 0,-64 -10.667,-10.667 -21.333,-21.333 -32,-32 -10.667,-53.667 -21.333,-107.333 -32,-161 10.667,0 21.333,0 32,0 10.667,-21.333 21.333,-42.667 32,-64 0,-11 0,-22 0,-33 10.667,0 21.333,0 32,0 0,-21.333 0,-42.667 0,-64 -10.667,-10.667 -21.333,-21.333 -32,-32 -21.333,0 -42.667,0 -64,0 10.667,-21.333 21.333,-42.667 32,-64 -21.333,-11 -42.667,-22 -64,-33 -16.283,-16.25 -32.429,-32.638 -49.055,-48.539 -5.33,-5.249 -10.85,-10.359 -16.062,-15.695 -21.294,-42.588 -42.589,-85.177 -63.883,-127.766 0,-21.667 0,-43.333 0,-65 -10.667,-10.667 -21.333,-21.333 -32,-32 0,-21.333 0,-42.667 0,-64 10.667,0 21.333,0 32,0 -10.667,-43 -21.333,-86 -32,-129 21.333,-10.667 42.667,-21.333 64,-32 -10.667,-21.333 -21.333,-42.667 -32,-64 10.667,-21.667 21.333,-43.333 32,-65 -10.667,-10.667 -21.333,-21.333 -32,-32 10.667,0 21.333,0 32,0 0,-21.333 0,-42.667 0,-64 21.667,-10.667 43.333,-21.333 65,-32 10.667,-10.667 21.333,-21.333 32,-32 0,-11 0,-22 0,-33 21.333,-10.667 42.667,-21.333 64,-32 0,-10.667 0,-21.333 0,-32 10.667,-10.667 21.333,-21.333 32,-32 0,-21.333 0,-42.667 0,-64 -10.667,0 -21.333,0 -32,0 -10.667,-21.667 -21.333,-43.333 -32,-65 -39.698,-39.847 -79.83,-79.26 -119.769,-118.865 -3.069,-3.149 -6.417,-6.126 -9.313,-9.383 -10.639,-32.251 -21.279,-64.501 -31.918,-96.752 0,-32 0,-64 0,-96 10.667,-10.667 21.333,-21.333 32,-32 -10.667,-10.667 -21.333,-21.333 -32,-32 10.667,-21.667 21.333,-43.333 32,-65 10.667,0 21.333,0 32,0 -10.716,-32.074 -21.345,-64.183 -32.115,-96.234 -10.629,-21.589 -21.257,-43.177 -31.885,-64.766 -85.732,-96.391 -171.434,-192.811 -257.185,-289.185 -21.271,-21.271 -42.543,-42.543 -63.815,-63.815 0,-21.333 0,-42.667 0,-64 10.667,-11 21.333,-22 32,-33 z"
         id="path52" />
    </g>
  </g>
</svg>
