<?xml version="1.0" encoding="UTF-8" standalone="no"?>
<!-- Created with Inkscape (http://www.inkscape.org/) -->

<svg
   xmlns:dc="http://purl.org/dc/elements/1.1/"
   xmlns:cc="http://creativecommons.org/ns#"
   xmlns:rdf="http://www.w3.org/1999/02/22-rdf-syntax-ns#"
   xmlns:svg="http://www.w3.org/2000/svg"
   xmlns="http://www.w3.org/2000/svg"
   xmlns:sodipodi="http://sodipodi.sourceforge.net/DTD/sodipodi-0.dtd"
   xmlns:inkscape="http://www.inkscape.org/namespaces/inkscape"
   width="44.266346mm"
   height="48.141701mm"
   viewBox="0 0 44.266346 48.141701"
   version="1.1"
   id="svg616"
   inkscape:version="0.92.5 (2060ec1f9f, 2020-04-08)"
   sodipodi:docname="ba.svg">
  <defs
     id="defs610" />
  <sodipodi:namedview
     id="base"
     pagecolor="#ffffff"
     bordercolor="#666666"
     borderopacity="1.0"
     inkscape:pageopacity="0.0"
     inkscape:pageshadow="2"
     inkscape:zoom="0.35"
     inkscape:cx="-219.2042"
     inkscape:cy="168.1193"
     inkscape:document-units="mm"
     inkscape:current-layer="layer1"
     showgrid="false"
     inkscape:window-width="1366"
     inkscape:window-height="704"
     inkscape:window-x="0"
     inkscape:window-y="0"
     inkscape:window-maximized="1" />
  <metadata
     id="metadata613">
    <rdf:RDF>
      <cc:Work
         rdf:about="">
        <dc:format>image/svg+xml</dc:format>
        <dc:type
           rdf:resource="http://purl.org/dc/dcmitype/StillImage" />
        <dc:title></dc:title>
      </cc:Work>
    </rdf:RDF>
  </metadata>
  <g
     inkscape:label="Layer 1"
     inkscape:groupmode="layer"
     id="layer1"
     transform="translate(-130.56921,-145.1732)">
    <g
       transform="matrix(9.9994773e-4,0,0,9.9994773e-4,-4.6347789,76.252919)"
       id="Bahina">
      <path
         inkscape:connector-curvature="0"
         style="fill:#999999;stroke:#ffffff;stroke-width:282.23678589;stroke-miterlimit:4;stroke-dasharray:none;stroke-opacity:1"
         d="m 135416,82601 c -10.67,-10.665 -21.33,-21.335 -32,-32 0,-21.333 0,-42.667 0,-64 10.67,0 21.33,0 32,0 10.67,-32.332 21.33,-64.668 32,-97 -10.67,-21.332 -21.33,-42.668 -32,-64 43.13,-10.768 86.32,-21.273 129.41,-32.207 128.53,-64.266 257.06,-128.529 385.59,-192.793 21.33,0 42.67,0 64,0 22.88,-34.794 46.66,-69.02 68.94,-104.197 30.68,-50.937 61.38,-101.867 92.06,-152.803 10.67,-107.333 21.33,-214.667 32,-322 32,-85.667 64,-171.333 96,-257 32.33,-32.002 64.67,-63.998 97,-96 0,-32.333 0,-64.667 0,-97 10.67,0 21.33,0 32,0 32,-21.333 64,-42.667 96,-64 11.14,-21.425 21.97,-43.014 33.32,-64.333 10.73,-10.934 21.21,-22.108 32.08,-32.904 53.53,-31.927 107.07,-63.841 160.6,-95.763 21.33,-32.335 42.67,-64.665 64,-97 53.67,-31.999 107.33,-64.001 161,-96 0,-10.667 0,-21.333 0,-32 -21.67,-42.999 -43.33,-86.001 -65,-129 0.1,-10.812 -0.2,-21.628 0.15,-32.438 11.32,-32.439 22.03,-65.113 33.75,-97.397 10.37,-21.054 20.73,-42.11 31.1,-63.165 10.84,-10.702 21.4,-21.677 32.41,-32.207 64.15,-32.033 128.18,-64.3 192.59,-95.793 10.67,-21.665 21.33,-43.335 32,-65 0,-42.667 0,-85.333 0,-128 -32.33,-10.668 -64.67,-21.332 -97,-32 -10.67,0 -21.33,0 -32,0 96.57,-64.476 192.91,-129.303 290,-193 10.67,-42.999 21.33,-86.001 32,-129 0,-10.667 0,-21.333 0,-32 -11.07,-11.521 -23.12,-22.185 -33.53,-34.278 -21.29,-31.671 -42.38,-63.469 -63.8,-95.05 -10.56,-10.554 -21.11,-21.116 -31.67,-31.672 0,-10.667 0,-21.333 0,-32 42.9,-21.541 85.9,-42.871 129,-64 0,-10.667 0,-21.333 0,-32 32,-11 64,-22 96,-33 10.67,10.998 21.33,22.002 32,33 32.33,-11.001 64.67,-21.999 97,-33 32,0 64,0 96,0 32.33,-32.002 64.67,-63.998 97,-96 32,10.667 64,21.333 96,32 21.67,-10.666 43.33,-21.334 65,-32 10.67,-10.665 21.33,-21.335 32,-32 0,-32.333 0,-64.667 0,-97 42.67,-10.666 85.33,-21.334 128,-32 10.67,-42.999 21.33,-86.001 32,-129 11,-10.667 22,-21.333 33,-32 32,0 64,0 96,0 21.33,-10.668 42.67,-21.332 64,-32 21.67,0 43.33,0 65,0 10.67,-31.999 21.33,-64.001 32,-96 22.04,-11.261 44.51,-21.762 66.27,-33.519 63.58,-42.489 127.15,-84.989 190.73,-127.481 10.67,-21.332 21.33,-42.668 32,-64 21.81,-21.734 43.46,-43.637 65.39,-65.257 31.87,-21.248 63.74,-42.495 95.61,-63.743 64.33,0 128.67,0 193,0 10.67,-42.999 21.33,-86.001 32,-129 -21.33,-32.002 -42.67,-63.998 -64,-96 10.67,-21.332 21.33,-42.668 32,-64 0,-21.667 0,-43.333 0,-65 10.67,0 21.33,0 32,0 42.9,-21.541 85.9,-42.871 129,-64 64.33,0 128.67,0 193,0 21.33,-10.668 42.67,-21.332 64,-32 21.62,-43.87 43.71,-87.519 65.03,-131.534 21.85,-53.405 43.17,-107.048 65.37,-160.304 10.2,-20.72 20.4,-41.441 30.6,-62.162 10.67,-10.665 21.33,-21.335 32,-32 0,-85.667 0,-171.333 0,-257 -10.67,-42.999 -21.33,-86.001 -32,-129 10.67,-10.665 21.33,-21.335 32,-32 0,-21.333 0,-42.667 0,-64 -32.33,0 -64.67,0 -97,0 -10.67,-21.665 -21.33,-43.335 -32,-65 64.33,0 128.67,0 193,0 21.33,-10.668 42.67,-21.332 64,-32 32.33,-32.002 64.67,-63.998 97,-96 21.33,0 42.67,0 64,0 53.67,-32.332 107.33,-64.668 161,-97 10.67,0 21.33,0 32,0 21.4,21.813 42.96,43.472 64.26,65.384 21.58,31.875 43.16,63.744 64.74,95.616 0,96.667 0,193.333 0,290 21.33,32.002 42.67,63.998 64,96 43.09,32.131 86.3,64.104 129.32,96.333 10.57,10.884 21.12,21.778 31.68,32.667 0,53.333 0,106.667 0,160 11.39,11.313 21.98,23.544 33.89,34.259 31.47,21.039 63.05,41.903 94.44,63.064 11.45,10.675 22.14,22.33 34.07,32.381 20.87,10.433 41.73,20.865 62.6,31.296 21.33,43.001 42.67,85.999 64,129 43,32 86,64 129,96 10.67,21.665 21.33,43.335 32,65 -10.67,53.333 -21.33,106.667 -32,160 10.67,32.332 21.33,64.668 32,97 43,32 86,64 129,96 0,21.667 0,43.333 0,65 -47.88,46.08 -94.32,93.611 -141.45,140.451 -6.86,7.203 -14.42,13.847 -20.81,21.445 -20.9,31.706 -41.82,63.404 -62.74,95.104 10.67,21.332 21.33,42.668 32,64 0,32 0,64 0,96 -10.67,21.665 -21.33,43.335 -32,65 10.66,32.163 21.54,64.254 32.07,96.459 10.58,75.346 21.7,150.643 31.93,226.022 0,10.506 0,21.013 0,31.519 21.33,21.335 42.67,42.665 64,64 10.67,0 21.33,0 32,0 21.67,10.666 43.33,21.334 65,32 21.33,0 42.67,0 64,0 10.67,21.332 21.33,42.668 32,64 10.67,10.665 21.33,21.335 32,32 0.4,12.036 -0.83,24.214 0.7,36.156 21.1,95.281 42.2,190.563 63.3,285.844 53.67,42.998 107.33,86.002 161,129 53.81,10.733 107.65,21.318 161.44,32.145 32.19,10.613 64.37,21.238 96.56,31.855 0.12,10.81 -0.23,21.624 0.17,32.431 21.28,53.523 42.55,107.047 63.83,160.569 10.67,10.665 21.33,21.335 32,32 43,0 86,0 129,0 10.67,10.665 21.33,21.335 32,32 0,10.667 0,21.333 0,32 15.96,0.143 32.01,-0.822 47.82,1.965 80.55,10.009 161.08,20.131 241.64,30.035 64.18,0 128.36,0 192.54,0 10.67,10.998 21.33,22.002 32,33 32.33,-11.001 64.67,-21.999 97,-33 21.33,0 42.67,0 64,0 10.84,11.03 21.39,22.35 32.41,33.207 21.28,10.749 42.74,21.16 63.92,32.116 11.45,10.675 22.14,22.33 34.07,32.381 20.87,10.433 41.73,20.865 62.6,31.296 21.33,32.002 42.67,63.998 64,96 32.33,0 64.67,0 97,0 32,11 64,22 96,33 10.67,0 21.33,0 32,0 0,10.667 0,21.333 0,32 64.33,53.669 128.67,107.331 193,161 32.33,-32.335 64.67,-64.665 97,-97 10.67,0 21.33,0 32,0 10.67,-10.665 21.33,-21.335 32,-32 21.33,0 42.67,0 64,0 32.33,-32.335 64.67,-64.665 97,-97 10.67,0 21.33,0 32,0 10.67,21.665 21.33,43.335 32,65 43.1,-32.458 86.3,-64.784 129.33,-97.328 21.22,-21.225 42.45,-42.446 63.67,-63.672 0,-32 0,-64 0,-96 32,-64.333 64,-128.667 96,-193 43,0 86,0 129,0 0,-32.333 0,-64.667 0,-97 10.67,-10.665 21.33,-21.335 32,-32 32.33,-10.668 64.67,-21.332 97,-32 11.23,-10.781 21.66,-22.572 33.4,-32.704 20.87,-10.433 41.73,-20.865 62.6,-31.296 43,10.667 86,21.333 129,32 32,-10.667 64,-21.333 96,-32 0.1,-11.146 -0.2,-22.296 0.15,-33.44 10.6,-31.857 21.23,-63.708 31.85,-95.56 -21.33,-64.334 -42.67,-128.666 -64,-193 10.67,0 21.33,0 32,0 0,-10.667 0,-21.333 0,-32 10.84,-10.703 21.4,-21.686 32.42,-32.205 21.52,-10.603 43.05,-21.198 64.58,-31.795 32,0 64,0 96,0 21.42,-11.153 43.02,-21.97 64.33,-33.328 10.68,-11.117 22.35,-21.454 32.39,-33.082 21.43,-42.192 42.85,-84.395 64.28,-126.59 21.33,-10.668 42.67,-21.332 64,-32 43,0 86,0 129,0 42.67,31.998 85.33,64.002 128,96 32.33,0 64.67,0 97,0 32,-10.667 64,-21.333 96,-32 21.67,-21.331 43.33,-42.669 65,-64 10.67,-21.665 21.33,-43.335 32,-65 10.67,-10.665 21.33,-21.335 32,-32 11.62,0.408 23.39,-0.861 34.9,0.719 42.03,10.425 84.07,20.854 126.1,31.281 32,-10.667 64,-21.333 96,-32 16.26,-16.338 33.08,-32.183 47.58,-50.155 59.71,-69.47 119.12,-139.218 179.06,-208.48 10.12,-10.123 20.24,-20.245 30.36,-30.365 21.67,0 43.33,0 65,0 21.33,10.668 42.67,21.332 64,32 21.33,21.335 42.67,42.665 64,64 32.33,64.335 64.67,128.665 97,193 32,21.333 64,42.667 96,64 32.33,11.001 64.67,21.999 97,33 10.67,0 21.33,0 32,0 32,-21.667 64,-43.333 96,-65 10.67,0 21.33,0 32,0 32.84,21.849 65.4,44.144 98.41,65.71 42.43,21.305 84.96,42.392 127.59,63.29 21.33,0 42.67,0 64,0 21.33,-10.668 42.67,-21.332 64,-32 10.67,0 21.33,0 32,0 31.45,-64.773 64.44,-128.783 97,-193 10.67,-10.665 21.33,-21.335 32,-32 32,0 64,0 96,0 10.8,-11.557 22.54,-22.379 32.72,-34.413 10.85,-21.46 22.45,-42.6 32.78,-64.283 31.84,-106.432 63.67,-212.87 95.5,-319.304 31.51,-33.154 64.45,-64.885 97,-97 -0.38,-11.789 0.81,-23.71 -0.7,-35.41 -10.76,-52.531 -21.53,-105.06 -32.3,-157.59 11.1,-42.797 21.95,-85.657 33.2,-128.416 10.6,-21.53 21.2,-43.056 31.8,-64.584 21.33,0 42.67,0 64,0 64.44,32.114 128.69,64.619 193,97 75,0 150,0 225,0 0.37,-11.79 -0.79,-23.705 0.68,-35.411 10.43,-52.53 20.88,-105.06 31.32,-157.589 21.33,-21.335 42.67,-42.665 64,-64 11,-32.333 22,-64.667 33,-97 32.15,-32.064 64.13,-64.302 96.39,-96.258 32.3,-21.717 64.73,-43.231 96.94,-65.07 21.22,-21.225 42.45,-42.446 63.67,-63.672 0,-96.333 0,-192.667 0,-289 64.41,-64.473 128.95,-128.822 193.28,-193.372 31.9,-42.879 63.81,-85.754 95.72,-128.628 10.64,-75.158 21.46,-150.292 32,-225.464 0,-31.845 0,-63.691 0,-95.536 -10.67,-21.665 -21.33,-43.335 -32,-65 21.8,-32.093 43.41,-64.316 65.33,-96.328 10.56,-10.554 21.11,-21.116 31.67,-31.672 96.33,0 192.67,0 289,0 0.1,-21.813 -0.2,-43.628 0.15,-65.44 10.6,-31.857 21.23,-63.708 31.85,-95.56 32.33,-21.335 64.67,-42.665 97,-64 10.67,-42.999 21.33,-86.001 32,-129 -10.67,-21.332 -21.33,-42.668 -32,-64 -21.67,-10.999 -43.33,-22.001 -65,-33 -32,-32 -64,-64 -96,-96 21.33,-43.001 42.67,-85.999 64,-129 0,-10.667 0,-21.333 0,-32 -10.67,-10.665 -21.33,-21.335 -32,-32 -21.33,0 -42.67,0 -64,0 0,-32 0,-64 0,-96 21.33,0 42.67,0 64,0 0,-21.667 0,-43.333 0,-65 32.33,-10.668 64.67,-21.332 97,-32 10.67,-21.332 21.33,-42.668 32,-64 0,-21.333 0,-42.667 0,-64 21.33,-21.668 42.67,-43.332 64,-65 0,-10.667 0,-21.333 0,-32 -21.33,-21.335 -42.67,-42.665 -64,-64 -21.67,-10.666 -43.33,-21.334 -65,-32 -21.33,-21.668 -42.67,-43.332 -64,-65 -32,0 -64,0 -96,0 -11,-21.333 -22,-42.667 -33,-64 -64,-21.333 -128,-42.667 -192,-64 -11.55,-10.798 -22.38,-22.527 -34.4,-32.724 -20.87,-10.758 -41.73,-21.519 -62.6,-32.276 -21.33,-64.001 -42.67,-127.999 -64,-192 0,-53.667 0,-107.333 0,-161 -43,-75 -86,-150 -129,-225 -32,-10.667 -64,-21.333 -96,-32 10.67,-21.665 21.33,-43.335 32,-65 0,-10.667 0,-21.333 0,-32 10.67,0 21.33,0 32,0 -21.33,-10.668 -42.67,-21.332 -64,-32 0,-43 0,-86 0,-129 -10.67,-42.666 -21.33,-85.334 -32,-128 0,-21.667 0,-43.333 0,-65 53.33,-85.668 106.67,-171.332 160,-257 32.33,-21.335 64.67,-42.665 97,-64 21.33,-43.001 42.67,-85.999 64,-129 21.33,-21.335 42.67,-42.665 64,-64 128.9,-42.285 257.34,-85.967 386,-129 33.01,-22.03 66.51,-43.379 99.21,-65.847 63.6,-53.047 127.19,-106.104 190.79,-159.153 21.33,-10.668 42.67,-21.332 64,-32 32.42,-43.309 64.37,-87.01 97.09,-130.073 31.97,-31.642 63.94,-63.283 95.91,-94.927 10.81,-0.1 21.63,0.197 32.44,-0.147 31.85,-10.616 63.71,-21.234 95.56,-31.853 11,0 22,0 33,0 64.33,-64.335 128.67,-128.665 193,-193 22.16,-10.835 43.96,-22.491 66.37,-32.788 31.21,-10.399 62.42,-20.809 93.63,-31.212 21.67,10.666 43.33,21.334 65,32 10.67,0 21.33,0 32,0 21.33,10.668 42.67,21.332 64,32 43,53.667 86,107.333 129,161 11.82,23.06 22.7,46.621 35.18,69.329 30.93,51.893 61.88,103.779 92.82,155.671 32.33,32.002 64.67,63.998 97,96 42.67,0 85.33,0 128,0 21.67,32.332 43.33,64.668 65,97 21.33,10.668 42.67,21.332 64,32 10.67,0 21.33,0 32,0 10.67,42.666 21.33,85.334 32,128 21.67,0 43.33,0 65,0 10.67,-21.332 21.33,-42.668 32,-64 42.67,0 85.33,0 128,0 21.67,-10.666 43.33,-21.334 65,-32 32,0 64,0 96,0 10.67,21.332 21.33,42.668 32,64 10.67,10.665 21.33,21.335 32,32 32.33,-21.335 64.67,-42.665 97,-64 21.33,-53.668 42.67,-107.332 64,-161 21.33,0 42.67,0 64,0 21.67,21.665 43.33,43.335 65,65 0,-21.667 0,-43.333 0,-65 10.67,0 21.33,0 32,0 10.67,-10.665 21.33,-21.335 32,-32 10.67,10.665 21.33,21.335 32,32 10.67,0 21.33,0 32,0 0,11 0,22 0,33 11,0 22,0 33,0 21.33,10.668 42.67,21.332 64,32 0,10.667 0,21.333 0,32 42.67,0 85.33,0 128,0 0,32 0,64 0,96 64.84,-10.592 129.61,-21.807 194.49,-32.008 10.65,-0.07 21.3,0.195 31.95,-0.139 31.85,-10.616 63.71,-21.234 95.56,-31.853 21.33,10.668 42.67,21.332 64,32 21.67,21.331 43.33,42.669 65,64 0,11 0,22 0,33 10.67,10.665 21.33,21.335 32,32 -10.67,31.999 -21.33,64.001 -32,96 0.1,21.817 -0.15,43.634 0.11,65.45 10.73,42.647 21.2,85.359 32.1,127.965 10.6,21.195 21.19,42.391 31.79,63.585 0,11 0,22 0,33 32,21.333 64,42.667 96,64 32.33,0 64.67,0 97,0 21.33,10.668 42.67,21.332 64,32 32.33,43.002 64.67,85.998 97,129 21.33,0 42.67,0 64,0 21.33,-21.668 42.67,-43.332 64,-65 10.67,0 21.33,0 32,0 10.67,21.665 21.33,43.335 32,65 0,32 0,64 0,96 21.67,32.332 43.33,64.668 65,97 0,32 0,64 0,96 22.13,-0.252 44.32,0.513 66.41,-0.401 63.53,-10.536 127.06,-21.066 190.59,-31.599 10.67,-10.665 21.33,-21.335 32,-32 0,-32.333 0,-64.667 0,-97 21.67,-10.666 43.33,-21.334 65,-32 42.67,-42.665 85.33,-85.335 128,-128 0,-43 0,-86 0,-129 10.67,10.665 21.33,21.335 32,32 32.33,10.668 64.67,21.332 97,32 0,10.667 0,21.333 0,32 21.48,-0.1 42.96,0.196 64.44,-0.147 31.85,-10.616 63.71,-21.234 95.56,-31.853 21.67,0 43.33,0 65,0 21.33,-10.668 42.67,-21.332 64,-32 10.67,10.665 21.33,21.335 32,32 32.38,-42.821 64.94,-85.505 97.2,-128.416 10.6,-21.53 21.2,-43.056 31.8,-64.584 10.67,-10.665 21.33,-21.335 32,-32 32.33,10.668 64.67,21.332 97,32 32,-10.667 64,-21.333 96,-32 43,10.667 86,21.333 129,32 42.67,-10.666 85.33,-21.334 128,-32 10.67,-21.332 21.33,-42.668 32,-64 -10.67,-21.332 -21.33,-42.668 -32,-64 10.85,-11.03 21.39,-22.359 32.42,-33.205 21.52,-10.603 43.05,-21.198 64.58,-31.795 32,10.667 64,21.333 96,32 10.84,-10.703 21.4,-21.686 32.42,-32.205 21.52,-10.603 43.05,-21.198 64.58,-31.795 10.67,-10.665 21.33,-21.335 32,-32 0,-43 0,-86 0,-129 11.52,-11.06 22.17,-23.113 34.26,-33.508 31.76,-21.013 63.24,-42.476 95.16,-63.196 42.53,-21.102 85.05,-42.197 127.58,-63.296 10.67,-10.998 21.33,-22.002 32,-33 10.67,0 21.33,0 32,0 0,-42.667 0,-85.333 0,-128 53.67,-32.332 107.33,-64.668 161,-97 10.67,-21.332 21.33,-42.668 32,-64 10.81,-0.1 21.63,0.195 32.44,-0.145 32.19,-10.613 64.37,-21.238 96.56,-31.855 32,0 64,0 96,0 11.52,-11.066 22.18,-23.122 34.28,-33.526 32.07,-21.342 63.88,-43.121 96.12,-64.178 20.87,-10.433 41.73,-20.865 62.6,-31.296 10.67,0 21.33,0 32,0 21.67,10.666 43.33,21.334 65,32 21.33,0 42.67,0 64,0 21.33,-10.668 42.67,-21.332 64,-32 96.67,0 193.33,0 290,0 32.12,-10.777 64.33,-21.303 96.4,-32.237 53.53,-31.927 107.07,-63.841 160.6,-95.763 42.67,0 85.33,0 128,0 21.67,-10.666 43.33,-21.334 65,-32 42.67,21.332 85.33,42.668 128,64 43,-32.333 86,-64.667 129,-97 21.33,32.335 42.67,64.665 64,97 32.33,0 64.67,0 97,0 21.33,21.335 42.67,42.665 64,64 10.67,0 21.33,0 32,0 10.79,-11.225 22.56,-21.677 32.72,-33.405 10.77,-20.862 21.52,-41.73 32.28,-62.595 32,-10.667 64,-21.333 96,-32 21.33,-21.668 42.67,-43.332 64,-65 10.67,0 21.33,0 32,0 21.67,10.666 43.33,21.334 65,32 21.33,0 42.67,0 64,0 21.33,-96.334 42.67,-192.666 64,-289 32.33,-32.335 64.67,-64.665 97,-97 0,-32 0,-64 0,-96 32,-32 64,-64 96,-96 10.67,0 21.33,0 32,0 22.17,-21.954 43.92,-44.375 66.37,-66.026 42.21,-31.659 84.42,-63.315 126.63,-94.974 0,-75 0,-150 0,-225 11,-43 22,-86 33,-129 0,-10.667 0,-21.333 0,-32 75,0 150,0 225,0 10.67,-21.332 21.33,-42.668 32,-64 0,-21.667 0,-43.333 0,-65 64.82,-10.589 129.58,-21.804 194.45,-32 10.18,0 20.37,0 30.55,0 0,-21.333 0,-42.667 0,-64 21.33,0 42.67,0 64,0 10.67,-21.332 21.33,-42.668 32,-64 53.67,0 107.33,0 161,0 10.67,21.332 21.33,42.668 32,64 32.33,-10.668 64.67,-21.332 97,-32 0,-43 0,-86 0,-129 21.33,-10.668 42.67,-21.332 64,-32 10.67,-42.999 21.33,-86.001 32,-129 10.67,0 21.33,0 32,0 10.67,-21.332 21.33,-42.668 32,-64 0,-21.333 0,-42.667 0,-64 11,-10.667 22,-21.333 33,-32 0,-11 0,-22 0,-33 10.67,0 21.33,0 32,0 10.67,-31.999 21.33,-64.001 32,-96 21.33,0 42.67,0 64,0 21.8,-22.05 44.12,-43.615 65.58,-65.976 42.48,-53.005 84.95,-106.018 127.42,-159.024 10.67,10.665 21.33,21.335 32,32 22.02,-54.253 43.64,-108.678 65.91,-162.826 21.07,-42.211 42.28,-84.349 63.24,-126.614 10.6,-32.191 21.23,-64.374 31.85,-96.56 21.33,-21.335 42.67,-42.665 64,-64 0,-10.667 0,-21.333 0,-32 32.33,0 64.67,0 97,0 42.67,31.998 85.33,64.002 128,96 32.33,0 64.67,0 97,0 32,21.667 64,43.333 96,65 10.67,0 21.33,0 32,0 21.67,-10.999 43.33,-22.001 65,-33 21.33,-21.335 42.67,-42.665 64,-64 32.33,0 64.67,0 97,0 0,-10.667 0,-21.333 0,-32 10.67,-10.665 21.33,-21.335 32,-32 10.81,0.1 21.63,-0.197 32.44,0.147 31.85,10.616 63.71,21.234 95.56,31.853 10.67,-10.665 21.33,-21.335 32,-32 11,10.667 22,21.333 33,32 10.67,-10.665 21.33,-21.335 32,-32 10.67,10.665 21.33,21.335 32,32 10.67,-10.665 21.33,-21.335 32,-32 10.67,10.665 21.33,21.335 32,32 75,-10.667 150,-21.333 225,-32 -10.67,21.332 -21.33,42.668 -32,64 0,10.667 0,21.333 0,32 -10.67,10.665 -21.33,21.335 -32,32 0,11 0,22 0,33 10.67,21.332 21.33,42.668 32,64 10.67,10.665 21.33,21.335 32,32 0,10.667 0,21.333 0,32 10.79,11.232 22.58,21.676 32.72,33.422 10.77,21.19 21.52,42.385 32.28,63.578 32,0 64,0 96,0 0,10.667 0,21.333 0,32 10.67,-10.665 21.33,-21.335 32,-32 64.33,0 128.67,0 193,0 10.67,42.666 21.33,85.334 32,128 -10.67,42.999 -21.33,86.001 -32,129 21.33,10.668 42.67,21.332 64,32 32.33,-21.335 64.67,-42.665 97,-64 10.67,0 21.33,0 32,0 21.33,-11.001 42.67,-21.999 64,-33 32.33,11.001 64.67,21.999 97,33 0,21.333 0,42.667 0,64 21.48,-0.07 42.97,0.149 64.45,-0.112 42.85,-10.632 85.7,-21.259 128.55,-31.888 0,21.333 0,42.667 0,64 21.33,21.335 42.67,42.665 64,64 10.67,0 21.33,0 32,0 0,43 0,86 0,129 21.33,21.335 42.67,42.665 64,64 0,21.667 0,43.333 0,65 32.33,10.668 64.67,21.332 97,32 0,42.667 0,85.333 0,128 21.33,0 42.67,0 64,0 0,53.667 0,107.333 0,161 32.01,64.496 64.98,128.509 97,193 0,21.333 0,42.667 0,64 10.67,10.998 21.33,22.002 32,33 0,32 0,64 0,96 10.67,10.665 21.33,21.335 32,32 -10.67,21.665 -21.33,43.335 -32,65 21.33,10.668 42.67,21.332 64,32 10.67,21.332 21.33,42.668 32,64 21.67,0 43.33,0 65,0 0,10.667 0,21.333 0,32 21.33,-10.668 42.67,-21.332 64,-32 21.33,10.668 42.67,21.332 64,32 10.67,0 21.33,0 32,0 0,21.333 0,42.667 0,64 11,0 22,0 33,0 22.04,11.58 44.46,22.488 66.26,34.506 31.25,20.83 62.49,41.661 93.74,62.494 43,0 86,0 129,0 10.67,21.332 21.33,42.668 32,64 21.33,10.668 42.67,21.332 64,32 -10.67,21.665 -21.33,43.335 -32,65 0,32 0,64 0,96 -10.67,21.332 -21.33,42.668 -32,64 0,11 0,22 0,33 -21.33,32.002 -42.67,63.998 -64,96 10.67,21.332 21.33,42.668 32,64 0,21.667 0,43.333 0,65 10.67,0 21.33,0 32,0 0,21.333 0,42.667 0,64 -10.67,10.665 -21.33,21.335 -32,32 -32.33,10.668 -64.67,21.332 -97,32 0,21.667 0,43.333 0,65 -21.33,10.668 -42.67,21.332 -64,32 -32,-10.667 -64,-21.333 -96,-32 0,10.667 0,21.333 0,32 -10.67,0 -21.33,0 -32,0 -11,10.667 -22,21.333 -33,32 32.33,42.668 64.67,85.332 97,128 -10.67,10.998 -21.33,22.002 -32,33 10.67,21.332 21.33,42.668 32,64 -21.33,21.335 -42.67,42.665 -64,64 10.67,21.665 21.33,43.335 32,65 0,32 0,64 0,96 -10.67,0 -21.33,0 -32,0 -21.67,10.666 -43.33,21.334 -65,32 0,32.333 0,64.667 0,97 -21.33,42.668 -42.67,85.332 -64,128 43,-21.333 86,-42.667 129,-64 42.67,0 85.33,0 128,0 11.3,10.893 21.86,22.699 33.65,32.995 53.12,32.004 106.24,64.002 159.35,96.005 85.7,21.211 171.36,42.545 257,64 53.67,-21.332 107.33,-42.668 161,-64 32.33,0 64.67,0 97,0 31.45,-32.873 63.86,-64.806 96,-97 10.67,0 21.33,0 32,0 10.67,-42.999 21.33,-86.001 32,-129 10.67,-10.665 21.33,-21.335 32,-32 32.33,-10.668 64.67,-21.332 97,-32 21.48,0.1 42.96,-0.194 64.44,0.145 32.19,10.613 64.37,21.238 96.56,31.855 10.67,10.665 21.33,21.335 32,32 21.64,-32.828 43.98,-65.227 65.17,-98.329 31.94,-63.559 63.89,-127.113 95.83,-190.671 21.33,-21.335 42.67,-42.665 64,-64 21.33,0 42.67,0 64,0 32.33,32.002 64.67,63.998 97,96 32,10.667 64,21.333 96,32 10.67,0 21.33,0 32,0 43,-42.667 86,-85.333 129,-128 0,-43 0,-86 0,-129 21.33,-64.334 42.67,-128.666 64,-193 21.67,-21.331 43.33,-42.669 65,-64 21.33,-118.001 42.67,-235.999 64,-354 10.67,-31.999 21.33,-64.001 32,-96 -10.67,-42.999 -21.33,-86.001 -32,-129 10.73,-53.811 21.32,-107.65 32.15,-161.44 21.27,-63.856 42.57,-127.706 63.85,-191.56 43,-43 86,-86 129,-129 32,0 64,0 96,0 11,10.667 22,21.333 33,32 10.67,0 21.33,0 32,0 32.15,32.396 64.13,64.97 96.39,97.255 32.2,21.249 64.41,42.495 96.61,63.745 10.67,21.332 21.33,42.668 32,64 53.67,0 107.33,0 161,0 64,-32 128,-64 192,-96 43,-43 86,-86 129,-129 107.33,0 214.67,0 322,0 22.16,-10.835 43.96,-22.491 66.37,-32.788 31.21,-10.399 62.42,-20.809 93.63,-31.212 64.91,-75.53 129.54,-151.308 194.63,-226.677 10.12,-10.444 20.25,-20.882 30.37,-31.323 11,-32 22,-64 33,-96 21.33,-10.668 42.67,-21.332 64,-32 32,-64.333 64,-128.667 96,-193 -10.77,-43.13 -21.28,-86.326 -32.21,-129.415 -31.94,-64.192 -63.86,-128.39 -95.79,-192.585 0,-42.667 0,-85.333 0,-128 10.67,-10.665 21.33,-21.335 32,-32 33.49,-11.251 66.68,-23.454 100.36,-34.081 84.55,-20.971 169.09,-41.946 253.64,-62.919 21.33,10.668 42.67,21.332 64,32 21.33,0 42.67,0 64,0 64.33,-42.668 128.67,-85.332 193,-128 75.5,10.598 150.94,21.745 226.47,32 21.18,0 42.35,0 63.53,0 31.22,-31.331 62.79,-62.322 93.37,-94.284 5.65,-6.275 -3.6,-15.48 -4.09,-22.858 -8.42,-25.287 -16.85,-50.573 -25.28,-75.858 -0.1,-32.152 0.12,-64.304 -0.1,-96.455 -10.64,-53.515 -21.27,-107.031 -31.91,-160.545 -21.67,-42.999 -43.33,-86.001 -65,-129 11,-32 22,-64 33,-96 64,0 128,0 192,0 32.33,-11.001 64.67,-21.999 97,-33 32,0 64,0 96,0 64.33,-21.334 128.67,-42.666 193,-64 0,-10.667 0,-21.333 0,-32 21.41,-21.595 43.08,-42.924 65,-64 42.67,-10.666 85.33,-21.334 128,-32 10.67,-10.998 21.33,-22.002 32,-33 64.33,-21.334 128.67,-42.666 193,-64 32.33,-21.335 64.67,-42.665 97,-64 0,-21.333 0,-42.667 0,-64 10.67,-10.998 21.33,-22.002 32,-33 42.67,0 85.33,0 128,0 11,-32 22,-64 33,-96 11.14,-0.226 22.36,0.461 33.45,-0.361 42.18,-10.549 84.37,-21.094 126.55,-31.639 21.67,0 43.33,0 65,0 42.67,42.665 85.33,85.335 128,128 86,0 172,0 258,0 10.79,11.557 22.54,22.368 32.71,34.409 10.43,20.864 20.86,41.728 31.29,62.591 0.1,21.48 -0.19,42.961 0.15,64.44 10.6,32.191 21.23,64.374 31.85,96.56 21.33,10.668 42.67,21.332 64,32 10.79,11.225 22.56,21.677 32.72,33.405 10.77,20.862 21.52,41.73 32.28,62.595 -11,10.667 -22,21.333 -33,32 0,64.333 0,128.667 0,193 11,21.667 22,43.333 33,65 21.33,21.335 42.67,42.665 64,64 10.67,0 21.33,0 32,0 0,-10.667 0,-21.333 0,-32 32.33,10.668 64.67,21.332 97,32 32,-10.667 64,-21.333 96,-32 21.6,-21.404 42.92,-43.083 64,-65 21.67,21.665 43.33,43.335 65,65 0,10.667 0,21.333 0,32 44.7,10.987 89.23,22.693 134.03,33.203 53.21,10.709 106.53,20.872 159.66,31.962 76.97,18.956 153.88,38.165 230.57,58.246 8.4,1.734 16.6,5.101 25.16,5.589 9.53,0 19.05,0 28.58,0 21.67,21.331 43.33,42.669 65,64 42.67,21.332 85.33,42.668 128,64 21.67,42.999 43.33,86.001 65,129 21.33,10.668 42.67,21.332 64,32 10.67,10.665 21.33,21.335 32,32 21.48,-0.1 42.96,0.194 64.44,-0.145 32.87,-10.631 65.53,-22.041 98.52,-32.18 63.68,-10.555 127.36,-21.117 191.04,-31.675 21.33,-10.668 42.67,-21.332 64,-32 22.22,0.236 44.49,-0.483 66.67,0.379 74.61,10.473 149.17,21.493 223.81,31.621 10.51,0 21.01,0 31.52,0 12.13,11.576 23.18,24.366 36.09,35.073 41.41,31.096 82.9,62.067 124.24,93.255 42.89,42.89 85.78,85.781 128.67,128.672 32,10.667 64,21.333 96,32 21.67,21.331 43.33,42.669 65,64 10.73,33.078 22.13,65.961 32.43,99.163 10.49,53.107 21.22,106.167 31.57,159.301 0,31.845 0,63.691 0,95.536 32.11,64.445 64.62,128.69 97,193 42.67,21.332 85.33,42.668 128,64 21.33,-10.668 42.67,-21.332 64,-32 11,0 22,0 33,0 21.33,-42.668 42.67,-85.332 64,-128 0,-96.667 0,-193.333 0,-290 11.42,-22.346 22.05,-45.116 33.99,-67.178 53.01,-84.604 106.01,-169.214 159.01,-253.822 32,-11 64,-22 96,-33 64.33,11.001 128.67,21.999 193,33 43.09,32.13 86.3,64.11 129.33,96.328 21.22,21.225 42.45,42.446 63.67,63.672 -10.77,43.13 -21.27,86.326 -32.21,129.415 -10.6,21.195 -21.19,42.391 -31.79,63.585 -43.1,32.458 -86.3,64.784 -129.33,97.328 -10.56,10.554 -21.11,21.116 -31.67,31.672 0,10.667 0,21.333 0,32 -10.67,10.665 -21.33,21.335 -32,32 0,10.667 0,21.333 0,32 11.26,22.371 21.73,45.176 33.51,67.263 21.26,31.552 41.91,63.579 63.58,94.822 32.11,32.05 64.1,64.22 96.28,96.193 42.7,31.952 85.26,64.092 128.05,95.927 42.96,21.062 85.82,42.323 128.58,63.795 32,11 64,22 96,33 75.33,-75.335 150.67,-150.665 226,-226 10.67,0 21.33,0 32,0 21.33,-10.668 42.67,-21.332 64,-32 32.33,0 64.67,0 97,0 0,21.667 0,43.333 0,65 32,32 64,64 96,96 10.67,32.332 21.33,64.668 32,97 0,10.667 0,21.333 0,32 -11.51,11.06 -22.17,23.107 -34.26,33.506 -31.25,20.83 -62.49,41.661 -93.74,62.494 -11,21.667 -22,43.333 -33,65 11,21.333 22,42.667 33,64 21.33,0 42.67,0 64,0 -32.33,32.002 -64.67,63.998 -97,96 11,43 22,86 33,129 21.4,21.487 42.97,42.796 64.26,64.387 21.27,32.369 42.76,64.594 63.91,97.043 21.28,53.19 42.55,106.381 63.83,159.57 -10.67,21.665 -21.33,43.335 -32,65 53.7,117.821 107.52,235.588 161.15,353.44 21.27,64.19 42.57,128.372 63.85,192.56 43,43 86,86 129,129 10.67,31.999 21.33,64.001 32,96 10.67,10.998 21.33,22.002 32,33 0,21.333 0,42.667 0,64 -10.67,10.665 -21.33,21.335 -32,32 0,21.333 0,42.667 0,64 10.67,10.665 21.33,21.335 32,32 32.33,0 64.67,0 97,0 32,32.333 64,64.667 96,97 21.33,-10.668 42.67,-21.332 64,-32 32.33,10.668 64.67,21.332 97,32 10.67,-10.665 21.33,-21.335 32,-32 11.62,0.408 23.39,-0.861 34.9,0.719 42.03,10.425 84.07,20.854 126.1,31.281 10.67,0 21.33,0 32,0 0,10.667 0,21.333 0,32 10.67,10.665 21.33,21.335 32,32 10.67,0 21.33,0 32,0 21.67,21.665 43.33,43.335 65,65 32,0 64,0 96,0 42.75,42.918 85.73,85.606 129,128 -10.98,32.772 -21.36,65.784 -32.72,98.405 -10.77,20.862 -21.52,41.73 -32.28,62.595 0,10.667 0,21.333 0,32 -21.33,21.335 -42.67,42.665 -64,64 10.67,10.998 21.33,22.002 32,33 0,10.667 0,21.333 0,32 -10.67,10.665 -21.33,21.335 -32,32 0,10.667 0,21.333 0,32 -10.67,-10.665 -21.33,-21.335 -32,-32 -10.67,10.665 -21.33,21.335 -32,32 0,43 0,86 0,129 10.67,21.332 21.33,42.668 32,64 21.33,10.668 42.67,21.332 64,32 21.41,21.595 43.08,42.924 65,64 21.42,11.153 43.02,21.97 64.33,33.328 10.56,10.554 21.11,21.116 31.67,31.672 -10.67,10.665 -21.33,21.335 -32,32 -21.33,0 -42.67,0 -64,0 -21.67,21.331 -43.33,42.669 -65,64 -10.67,21.332 -21.33,42.668 -32,64 -21.33,11.001 -42.67,21.999 -64,33 0,107 0,214 0,321 21.33,43.001 42.67,85.999 64,129 10.67,0 21.33,0 32,0 0,10.667 0,21.333 0,32 32.33,32.002 64.67,63.998 97,96 32,11 64,22 96,33 10.67,0 21.33,0 32,0 10.67,10.665 21.33,21.335 32,32 -21.33,42.668 -42.67,85.332 -64,128 10.67,10.665 21.33,21.335 32,32 0,11 0,22 0,33 -21.33,21.335 -42.67,42.665 -64,64 0,32 0,64 0,96 -21.33,32.335 -42.67,64.665 -64,97 0,10.667 0,21.333 0,32 21.33,10.668 42.67,21.332 64,32 32,64.333 64,128.667 96,193 11,10.667 22,21.333 33,32 10.67,0 21.33,0 32,0 21.33,-10.668 42.67,-21.332 64,-32 21.33,0 42.67,0 64,0 0,21.333 0,42.667 0,64 32.33,0 64.67,0 97,0 32,10.667 64,21.333 96,32 10.67,-10.665 21.33,-21.335 32,-32 75.33,43.001 150.67,85.999 226,129 10.67,21.332 21.33,42.668 32,64 0,64.333 0,128.667 0,193 42.67,85.665 85.33,171.335 128,257 32.33,43.002 64.67,85.998 97,129 -0.22,21.896 0.44,43.858 -0.34,65.713 -10.53,53.256 -21.28,106.467 -31.66,159.751 0,10.512 0,21.024 0,31.536 21.33,10.668 42.67,21.332 64,32 42.67,203.666 85.33,407.334 128,611 0,10.667 0,21.333 0,32 11,11 22,22 33,33 -43,21.333 -86,42.667 -129,64 -32,0 -64,0 -96,0 -11.84,11.067 -22.89,23.057 -35.26,33.506 -31.25,20.83 -62.49,41.661 -93.74,62.494 -10.67,0 -21.33,0 -32,0 -10.67,10.998 -21.33,22.002 -32,33 0,10.667 0,21.333 0,32 -21.67,0 -43.33,0 -65,0 0,10.667 0,21.333 0,32 -10.67,10.665 -21.33,21.335 -32,32 0,10.667 0,21.333 0,32 10.67,0 21.33,0 32,0 -32,10.667 -64,21.333 -96,32 10.67,21.665 21.33,43.335 32,65 -10.67,10.665 -21.33,21.335 -32,32 53.67,96.332 107.33,192.668 161,289 10.67,32.332 21.33,64.668 32,97 0,21.333 0,42.667 0,64 -10.67,21.332 -21.33,42.668 -32,64 0,21.333 0,42.667 0,64 0,-10.667 0,-21.333 0,-32 -10.67,10.665 -21.33,21.335 -32,32 0,11 0,22 0,33 -21.67,0 -43.33,0 -65,0 0,10.667 0,21.333 0,32 10.67,10.665 21.33,21.335 32,32 0,10.667 0,21.333 0,32 11,10.667 22,21.333 33,32 0.15,16.42 -0.81,32.923 2.01,49.196 20.67,176.601 41.33,353.202 61.99,529.804 -199.45,77.627 -399.07,154.839 -598.42,232.729 -47.79,19.09 -95.74,37.805 -143.4,57.195 -42.06,21.357 -84.12,42.717 -126.18,64.076 -43,0 -86,0 -129,0 0,-53.667 0,-107.333 0,-161 -21.33,-21.335 -42.67,-42.665 -64,-64 -10.67,0 -21.33,0 -32,0 -11,-21.667 -22,-43.333 -33,-65 -10.81,0.1 -21.63,-0.197 -32.44,0.147 -31.85,10.616 -63.71,21.234 -95.56,31.853 -21.33,-21.335 -42.67,-42.665 -64,-64 -21.67,21.331 -43.33,42.669 -65,64 -21.33,-10.668 -42.67,-21.332 -64,-32 -10.67,21.665 -21.33,43.335 -32,65 -21.67,0 -43.33,0 -65,0 -21.33,-11.001 -42.67,-21.999 -64,-33 -32,0 -64,0 -96,0 -10.67,-21.332 -21.33,-42.668 -32,-64 -32.33,10.668 -64.67,21.332 -97,32 -10.67,0 -21.33,0 -32,0 -10.67,21.665 -21.33,43.335 -32,65 0,64.333 0,128.667 0,193 -10.98,32.439 -21.36,65.116 -32.72,97.405 -10.77,20.862 -21.52,41.73 -32.28,62.595 -10.67,0 -21.33,0 -32,0 -10.67,10.998 -21.33,22.002 -32,33 10.67,21.332 21.33,42.668 32,64 -10.67,21.332 -21.33,42.668 -32,64 10.67,0 21.33,0 32,0 10.67,32.332 21.33,64.668 32,97 -10.78,11.228 -22.57,21.666 -32.71,33.409 -10.43,20.864 -20.86,41.728 -31.29,62.591 0,21.333 0,42.667 0,64 21.33,32.335 42.67,64.665 64,97 0,32 0,64 0,96 21.67,10.666 43.33,21.334 65,32 0,11 0,22 0,33 10.67,-10.998 21.33,-22.002 32,-33 10.67,0 21.33,0 32,0 0,21.667 0,43.333 0,65 32.33,10.668 64.67,21.332 97,32 0,10.667 0,21.333 0,32 -11,21.333 -22,42.667 -33,64 11.11,11.563 23.24,22.331 33.71,34.409 10.43,20.864 20.86,41.728 31.29,62.591 42.67,21.332 85.33,42.668 128,64 10.67,21.332 21.33,42.668 32,64 11,11 22,22 33,33 10.67,0 21.33,0 32,0 0,-21.667 0,-43.333 0,-65 21.33,10.668 42.67,21.332 64,32 10.67,10.998 21.33,22.002 32,33 0,10.667 0,21.333 0,32 10.67,21.332 21.33,42.668 32,64 -10.67,0 -21.33,0 -32,0 0,10.667 0,21.333 0,32 10.67,10.665 21.33,21.335 32,32 11,0 22,0 33,0 0,10.667 0,21.333 0,32 10.67,0 21.33,0 32,0 0,11 0,22 0,33 10.67,0 21.33,0 32,0 -0.1,21.48 0.2,42.961 -0.15,64.44 -10.6,31.857 -21.23,63.708 -31.85,95.56 -10.67,0 -21.33,0 -32,0 0,11 0,22 0,33 10.67,21.332 21.33,42.668 32,64 21.33,10.668 42.67,21.332 64,32 10.67,0 21.33,0 32,0 0,10.667 0,21.333 0,32 -10.67,21.665 -21.33,43.335 -32,65 10.67,10.665 21.33,21.335 32,32 -10.67,10.665 -21.33,21.335 -32,32 21.33,10.668 42.67,21.332 64,32 21.67,21.331 43.33,42.669 65,64 21.33,10.668 42.67,21.332 64,32 10.67,-10.665 21.33,-21.335 32,-32 32.33,32.335 64.67,64.665 97,97 10.67,-10.665 21.33,-21.335 32,-32 21.33,10.668 42.67,21.332 64,32 21.33,0 42.67,0 64,0 -10.67,10.665 -21.33,21.335 -32,32 0,32 0,64 0,96 -10.67,10.665 -21.33,21.335 -32,32 -10.67,0 -21.33,0 -32,0 10.67,21.665 21.33,43.335 32,65 -10.67,0 -21.33,0 -32,0 0,10.667 0,21.333 0,32 10.67,0 21.33,0 32,0 0,10.667 0,21.333 0,32 -10.67,10.665 -21.33,21.335 -32,32 10.67,10.665 21.33,21.335 32,32 -10.67,10.998 -21.33,22.002 -32,33 0,10.667 0,21.333 0,32 -21.33,10.668 -42.67,21.332 -64,32 0,21.333 0,42.667 0,64 21.33,32.335 42.67,64.665 64,97 -10.67,0 -21.33,0 -32,0 0,10.667 0,21.333 0,32 21.33,10.668 42.67,21.332 64,32 -21.33,0 -42.67,0 -64,0 0,10.667 0,21.333 0,32 10.67,10.665 21.33,21.335 32,32 10.67,-10.665 21.33,-21.335 32,-32 0.1,10.813 -0.2,21.63 0.15,32.44 10.6,32.191 21.23,64.374 31.85,96.56 10.67,10.665 21.33,21.335 32,32 0,10.667 0,21.333 0,32 -10.67,10.665 -21.33,21.335 -32,32 0,10.667 0,21.333 0,32 21.33,0 42.67,0 64,0 0,21.667 0,43.333 0,65 11,-11 22,-22 33,-33 10.67,0 21.33,0 32,0 0,11 0,22 0,33 -10.67,0 -21.33,0 -32,0 21.33,21.335 42.67,42.665 64,64 0,10.667 0,21.333 0,32 10.67,0 21.33,0 32,0 0,-21.333 0,-42.667 0,-64 10.67,0 21.33,0 32,0 0,-10.667 0,-21.333 0,-32 21.67,0 43.33,0 65,0 10.67,10.665 21.33,21.335 32,32 10.67,0 21.33,0 32,0 0,32 0,64 0,96 10.67,10.665 21.33,21.335 32,32 10.67,-10.665 21.33,-21.335 32,-32 0,10.667 0,21.333 0,32 10.67,-21.332 21.33,-42.668 32,-64 10.67,0 21.33,0 32,0 21.67,10.666 43.33,21.334 65,32 -32.33,0 -64.67,0 -97,0 21.67,10.666 43.33,21.334 65,32 0,11 0,22 0,33 32,-11 64,-22 96,-33 0,21.667 0,43.333 0,65 -21.33,0 -42.67,0 -64,0 0,21.333 0,42.667 0,64 10.67,10.665 21.33,21.335 32,32 10.67,0 21.33,0 32,0 10.67,21.332 21.33,42.668 32,64 10.67,0 21.33,0 32,0 21.67,10.999 43.33,22.001 65,33 10.67,0 21.33,0 32,0 10.67,10.665 21.33,21.335 32,32 -10.67,10.665 -21.33,21.335 -32,32 0,21.333 0,42.667 0,64 21.33,10.668 42.67,21.332 64,32 10.67,-10.665 21.33,-21.335 32,-32 10.67,10.665 21.33,21.335 32,32 21.67,0 43.33,0 65,0 10.67,10.998 21.33,22.002 32,33 10.67,-10.998 21.33,-22.002 32,-33 21.33,21.668 42.67,43.332 64,65 32.33,0 64.67,0 97,0 0,21.333 0,42.667 0,64 21.33,0 42.67,0 64,0 21.33,-10.668 42.67,-21.332 64,-32 11,0 22,0 33,0 -11,32 -22,64 -33,96 21.67,0 43.33,0 65,0 21.33,10.668 42.67,21.332 64,32 0,-21.333 0,-42.667 0,-64 21.33,-21.335 42.67,-42.665 64,-64 -10.67,-21.332 -21.33,-42.668 -32,-64 21.33,0 42.67,0 64,0 0,-21.667 0,-43.333 0,-65 11,10.667 22,21.333 33,32 10.67,-10.665 21.33,-21.335 32,-32 10.67,0 21.33,0 32,0 10.67,21.665 21.33,43.335 32,65 10.67,10.665 21.33,21.335 32,32 21.67,0 43.33,0 65,0 21.33,-10.668 42.67,-21.332 64,-32 21.33,0 42.67,0 64,0 -10.67,21.332 -21.33,42.668 -32,64 10.67,10.665 21.33,21.335 32,32 10.67,0 21.33,0 32,0 -10.67,-10.665 -21.33,-21.335 -32,-32 21.33,0 42.67,0 64,0 11,10.667 22,21.333 33,32 64.33,0 128.67,0 193,0 0,-21.333 0,-42.667 0,-64 21.33,-21.668 42.67,-43.332 64,-65 75,0 150,0 225,0 21.74,-11.092 43.89,-21.502 65.38,-33.028 42.63,-31.789 85.38,-63.425 127.95,-95.301 52.97,-53.564 105.84,-107.224 159.63,-159.965 11.01,-10.901 22.03,-21.804 33.04,-32.706 10.67,0 21.33,0 32,0 10.67,-21.332 21.33,-42.668 32,-64 32.33,0 64.67,0 97,0 -11,0 -22,0 -33,0 11,10.667 22,21.333 33,32 -11.15,21.42 -21.97,43.016 -33.33,64.328 -64.22,64.225 -128.45,128.446 -192.67,192.672 -42.71,64.487 -85.57,128.874 -128.2,193.418 -118.21,246.606 -236.17,493.337 -354.53,739.864 -42.46,74.727 -85.06,149.376 -127.45,224.146 -75.78,183.162 -151.19,366.485 -227.21,549.544 -85.21,181.343 -170.4,362.687 -255.61,544.028 -10.67,53.333 -21.33,106.667 -32,160 -43.68,65.607 -87.85,130.905 -131.22,196.714 -32.32,53.899 -64.1,108.129 -96.77,161.817 -20.34,30.823 -40.67,61.645 -61.01,92.469 -10.99,32.448 -21.36,65.144 -32.74,97.436 -15.41,29.168 -29.3,59.195 -46.96,87.117 -91.53,152.936 -182.97,305.926 -274.58,458.818 -47.71,63.793 -95.98,127.178 -142.51,191.847 -71.15,97.738 -142.58,195.276 -213.48,293.188 -63.58,95.194 -127.15,190.397 -190.73,285.594 -10.67,10.665 -21.33,21.335 -32,32 0,11 0,22 0,33 -10.67,21.332 -21.33,42.668 -32,64 -10.67,0 -21.33,0 -32,0 -32.11,53.778 -64.08,107.639 -96.29,161.361 -42.97,53.354 -86.05,106.629 -128.97,160.026 -21.48,32.845 -43.49,65.364 -64.65,98.409 -42.87,84.768 -85.31,169.761 -127.93,254.652 -26.99,45.888 -54.48,91.493 -81.68,137.262 -4.82,8.097 -9.65,16.193 -14.48,24.29 -21.67,10.666 -43.33,21.334 -65,32 -42.92,42.748 -85.61,85.73 -128,129 0,42.667 0,85.333 0,128 -21.67,0 -43.33,0 -65,0 -10.67,21.665 -21.33,43.335 -32,65 -21.33,10.668 -42.67,21.332 -64,32 -21.47,32.091 -42.73,64.322 -64.33,96.328 -53.63,53.705 -107.4,107.258 -160.94,161.052 -74.91,106.87 -149.82,213.747 -224.73,320.62 -32.33,21.668 -64.67,43.332 -97,65 -32.42,42.982 -64.39,86.332 -97.09,129.087 -32.03,32.12 -64.24,64.072 -96.17,96.299 -42.8,64.056 -85.41,128.244 -127.74,192.614 -21.67,0 -43.33,0 -65,0 -32,32 -64,64 -96,96 -32,53.667 -64,107.333 -96,161 -43,43 -86,86 -129,129 -53.67,0 -107.33,0 -161,0 -23.06,11.82 -46.62,22.698 -69.33,35.178 -51.89,30.938 -103.78,61.883 -155.67,92.822 -43,43 -86,86 -129,129 -32,10.667 -64,21.333 -96,32 -21.33,0 -42.67,0 -64,0 -21.67,-10.666 -43.33,-21.334 -65,-32 0,10.667 0,21.333 0,32 -54.39,-10.759 -108.69,-21.977 -163.13,-32.443 -74.29,-10.519 -148.58,-21.037 -222.87,-31.557 32.37,-75.152 64.84,-150.262 97.15,-225.44 10.6,-32.191 21.23,-64.374 31.85,-96.56 -10.67,-21.332 -21.33,-42.668 -32,-64 -85.67,21.332 -171.33,42.668 -257,64 21.33,43.001 42.67,85.999 64,129 -21.33,32.002 -42.67,63.998 -64,96 0,10.667 0,21.333 0,32 -10.67,0 -21.33,0 -32,0 -21.8,32.426 -43.4,64.987 -65.33,97.328 -10.95,11.404 -22.89,21.954 -33.18,33.935 -20.96,31.344 -41.74,62.805 -62.81,94.07 -10.57,10.884 -21.12,21.778 -31.68,32.667 -10.67,0 -21.33,0 -32,0 -43,32 -86,64 -129,96 -21.33,0 -42.67,0 -64,0 -21.67,21.331 -43.33,42.669 -65,64 -10.67,21.665 -21.33,43.335 -32,65 -10.67,10.665 -21.33,21.335 -32,32 -10.67,0 -21.33,0 -32,0 -11.07,11.512 -23.1,22.188 -33.53,34.256 -21.15,31.248 -42.31,62.495 -63.47,93.744 0,11 0,22 0,33 -32.44,10.967 -65.1,21.389 -97.4,32.704 -20.87,10.433 -41.73,20.865 -62.6,31.296 10.67,0 21.33,0 32,0 -84.58,41.189 -168.34,84.017 -252.26,126.54 -23.14,11.691 -46.48,22.987 -69.74,34.46 -10.67,21.332 -21.33,42.668 -32,64 -32,10.667 -64,21.333 -96,32 -32.33,21.335 -64.67,42.665 -97,64 0,11 0,22 0,33 -21.33,0 -42.67,0 -64,0 -21.67,10.666 -43.33,21.334 -65,32 -21.33,32.002 -42.67,63.998 -64,96 -21.33,75.001 -42.67,149.999 -64,225 -0.14,15.97 0.82,32.033 -1.97,47.848 -10,80.718 -20.02,161.435 -30.03,242.152 10.67,42.666 21.33,85.334 32,128 21.47,32.424 42.73,64.989 64.33,97.328 10.56,10.554 21.11,21.116 31.67,31.672 43,-32.333 86,-64.667 129,-97 10.79,11.557 22.54,22.368 32.71,34.409 10.43,20.864 20.86,41.728 31.29,62.591 -10.67,10.665 -21.33,21.335 -32,32 10.67,0 21.33,0 32,0 0,43 0,86 0,129 10.79,11.225 22.56,21.677 32.72,33.405 10.77,20.862 21.52,41.73 32.28,62.595 -11,10.667 -22,21.333 -33,32 11,10.667 22,21.333 33,32 -21.67,32.332 -43.33,64.668 -65,97 -21.33,-10.668 -42.67,-21.332 -64,-32 0,21.333 0,42.667 0,64 21.33,0 42.67,0 64,0 -10.67,10.665 -21.33,21.335 -32,32 0,10.667 0,21.333 0,32 -32,21.667 -64,43.333 -96,65 -0.1,21.485 0.12,42.97 -0.1,64.454 -10.94,53.677 -22.13,107.302 -32.91,161.01 0,21.179 0,42.357 0,63.536 11,10.667 22,21.333 33,32 21.33,0 42.67,0 64,0 0,21.333 0,42.667 0,64 21.33,11.001 42.67,21.999 64,33 -10.67,10.665 -21.33,21.335 -32,32 0,32 0,64 0,96 21.33,0 42.67,0 64,0 11,-10.667 22,-21.333 33,-32 0,43 0,86 0,129 -11.15,21.421 -21.97,43.016 -33.33,64.329 -31.89,32.223 -63.78,64.447 -95.67,96.671 0,-11 0,-22 0,-33 -10.67,-21.332 -21.33,-42.668 -32,-64 -21.67,0 -43.33,0 -65,0 -21.33,21.335 -42.67,42.665 -64,64 -32,0 -64,0 -96,0 10.67,10.998 21.33,22.002 32,33 0,21.333 0,42.667 0,64 -42.76,42.906 -85.99,85.343 -129,128 -10.67,42.999 -21.33,86.001 -32,129 0,64.333 0,128.667 0,193 21.33,64.334 42.67,128.666 64,193 22.64,33.832 46.03,67.177 68.18,101.329 30.93,51.893 61.88,103.779 92.82,155.671 0,10.667 0,21.333 0,32 21.33,10.668 42.67,21.332 64,32 11,32.333 22,64.667 33,97 0,53.667 0,107.333 0,161 -21.67,96.333 -43.33,192.667 -65,289 -0.22,21.896 0.44,43.858 -0.34,65.713 -10.61,53.241 -21.09,106.507 -31.81,159.727 -10.6,32.191 -21.23,64.374 -31.85,96.56 -0.1,21.48 0.2,42.961 -0.15,64.44 -31.95,96.347 -64.07,192.64 -95.94,289.014 -11.04,53.659 -21.93,107.347 -33.06,160.986 -10.6,31.857 -21.23,63.708 -31.85,95.56 0,43.152 0.1,86.305 -0.1,129.457 -10.64,64.181 -21.28,128.362 -31.92,192.543 10.67,31.999 21.33,64.001 32,96 0,-10.667 0,-21.333 0,-32 10.67,10.665 21.33,21.335 32,32 0,43 0,86 0,129 -10.67,10.665 -21.33,21.335 -32,32 0,10.667 0,21.333 0,32 -21.33,43.001 -42.67,85.999 -64,129 0,43 0,86 0,129 -21.33,85.826 -42.81,171.615 -64.06,257.46 -10.64,85.514 -21.29,171.027 -31.94,256.54 -21.67,42.999 -43.33,86.001 -65,129 0,53.333 0,106.667 0,160 -10.77,43.13 -21.27,86.326 -32.21,129.415 -10.6,21.361 -21.48,42.583 -31.88,64.04 -21.3,107.183 -42.61,214.363 -63.91,321.545 0,182.333 0,364.667 0,547 21.33,42.668 42.67,85.332 64,128 21.33,10.668 42.67,21.332 64,32 10.67,0 21.33,0 32,0 11,-21.333 22,-42.667 33,-64 0,21.333 0,42.667 0,64 -11,0 -22,0 -33,0 0,32.333 0,64.667 0,97 -10.67,10.665 -21.33,21.335 -32,32 10.67,0 21.33,0 32,0 0,-10.667 0,-21.333 0,-32 11,0 22,0 33,0 0,128.667 0,257.333 0,386 10.74,64.14 21.29,128.32 32.15,192.44 10.6,32.19 21.23,64.37 31.85,96.56 0.1,21.48 -0.2,42.96 0.15,64.44 21.27,64.19 42.57,128.37 63.85,192.56 0,418 0,836 0,1254 10.67,64.33 21.33,128.67 32,193 -10.67,10.67 -21.33,21.33 -32,32 10.67,10.67 21.33,21.33 32,32 21.72,139.48 43.31,278.98 65.12,418.45 31.96,117.85 63.92,235.7 95.88,353.55 0,10.67 0,21.33 0,32 10.67,10.67 21.33,21.33 32,32 10.65,86.16 21.45,172.29 32,258.46 0,107 -0.1,214 0,321 10.65,107.18 21.3,214.36 31.95,321.54 21.67,85.67 43.33,171.33 65,257 10.67,0 21.33,0 32,0 21.33,75 42.67,150 64,225 0,10.67 0,21.33 0,32 10.79,11.23 22.58,21.67 32.71,33.41 42.77,85.2 85.53,170.39 128.29,255.59 10.67,11 21.33,22 32,33 0,10.67 0,21.33 0,32 -10.67,10.67 -21.33,21.33 -32,32 0,10.67 0,21.33 0,32 21.33,10.67 42.67,21.33 64,32 0,10.67 0,21.33 0,32 -10.79,11.57 -22.56,22.37 -32.72,34.43 -11.83,23 -22.56,46.58 -35.2,69.14 -30.69,51.48 -61.39,102.95 -92.08,154.43 -43,150 -86,300 -129,450 -32.37,75.15 -64.84,150.26 -97.15,225.44 -21.27,64.19 -42.57,128.37 -63.85,192.56 -10.67,10.67 -21.33,21.33 -32,32 0,64.33 0,128.67 0,193 10.67,32 21.33,64 32,96 -10.67,10.67 -21.33,21.33 -32,32 -10.67,32.33 -21.33,64.67 -32,97 -10.67,10.67 -21.33,21.33 -32,32 -10.67,32 -21.33,64 -32,96 -21.67,11 -43.33,22 -65,33 -32,42.67 -64,85.33 -96,128 0,10.67 0,21.33 0,32 -10.67,0 -21.33,0 -32,0 -10.67,43 -21.33,86 -32,129 0,10.67 0,21.33 0,32 21.33,-32 42.67,-64 64,-96 -21.33,53.67 -42.67,107.33 -64,161 10.67,42.67 21.33,85.33 32,128 10.67,10.67 21.33,21.33 32,32 10.67,0 21.33,0 32,0 0,10.67 0,21.33 0,32 -10.67,21.67 -21.33,43.33 -32,65 0,42.67 0,85.33 0,128 -21.33,10.67 -42.67,21.33 -64,32 -21.72,21.82 -43.65,43.44 -65.24,65.4 -31.92,53.53 -63.84,107.07 -95.76,160.6 0,32 0,64 0,96 -10.67,10.67 -21.33,21.33 -32,32 0,10.67 0,21.33 0,32 10.67,-10.67 21.33,-21.33 32,-32 0,32.33 0,64.67 0,97 -10.67,10.67 -21.33,21.33 -32,32 0,21.33 0,42.67 0,64 -32.33,64.33 -64.67,128.67 -97,193 -0.1,43.15 0.12,86.3 -0.1,129.45 -10.61,53.34 -21.46,106.64 -31.91,160.01 0,53.51 0,107.03 0,160.54 -10.67,32.33 -21.33,64.67 -32,97 10.67,10.67 21.33,21.33 32,32 -21.33,21.33 -42.67,42.67 -64,64 0,75 0,150 0,225 -10.67,0 -21.33,0 -32,0 -11.03,10.84 -22.36,21.39 -33.2,32.42 -10.6,21.53 -21.2,43.05 -31.8,64.58 0,21.33 0,42.67 0,64 -10.67,10.67 -21.33,21.33 -32,32 -10.67,0 -21.33,0 -32,0 -0.35,15.13 1.25,30.45 -2.21,45.35 -9.93,59.88 -19.86,119.77 -29.79,179.65 10.67,107.33 21.33,214.67 32,322 21.47,32.09 42.73,64.32 64.33,96.33 21.56,21.22 43.11,42.45 64.67,63.67 -21.67,11 -43.33,22 -65,33 -42.67,64.33 -85.33,128.67 -128,193 0,64 0,128 0,192 -32.33,53.67 -64.67,107.33 -97,161 0,64.33 0,128.67 0,193 10.67,10.67 21.33,21.33 32,32 -10.7,10.84 -21.69,21.4 -32.2,32.42 -10.6,21.53 -21.2,43.05 -31.8,64.58 0,42.67 0,85.33 0,128 -10.67,21.67 -21.33,43.33 -32,65 -21.33,10.67 -42.67,21.33 -64,32 -11.01,21.86 -22.88,43.37 -33.36,65.45 -10.55,42.52 -21.09,85.03 -31.64,127.55 0,139.33 0,278.67 0,418 -10.67,53.67 -21.33,107.33 -32,161 10.65,85.82 21.45,171.63 32,257.46 0,32 -0.1,64 0.1,96 10.71,74.99 21.24,150.01 32.06,224.99 21.63,74.85 43.25,149.7 64.87,224.55 0,107.49 -0.1,214.97 0.1,322.46 10.65,74.85 21.29,149.69 31.93,224.54 -10.67,10.67 -21.33,21.33 -32,32 0.25,22.13 -0.51,44.32 0.4,66.41 10.53,63.53 21.06,127.06 31.6,190.59 75,107.33 150,214.67 225,322 10.67,0 21.33,0 32,0 -16.33,16.24 -32.15,33.05 -50.11,47.53 -68.96,59.16 -137.93,118.31 -206.89,177.47 10.67,32 21.33,64 32,96 -32,21.67 -64,43.33 -96,65 -11.16,21.42 -21.97,43.02 -33.33,64.33 -85.56,85.56 -171.11,171.11 -256.67,256.67 -10.67,21.67 -21.33,43.33 -32,65 0,21.33 0,42.67 0,64 10.67,10.67 21.33,21.33 32,32 -11.23,10.79 -21.67,22.58 -33.41,32.71 -85.2,42.76 -170.39,85.53 -255.59,128.29 -21.67,0 -43.33,0 -65,0 -10.67,-10.67 -21.33,-21.33 -32,-32 -21.33,10.67 -42.67,21.33 -64,32 -21.33,21.33 -42.67,42.67 -64,64 -10.81,0.1 -21.63,-0.2 -32.44,0.15 -32.58,10.95 -65.45,21.17 -97.84,32.58 -74.57,42.76 -149.14,85.52 -223.72,128.27 -43.07,42.81 -86.28,85.48 -129.28,128.37 -32.1,43.34 -64.59,86.41 -96.45,129.91 -43.03,75.2 -86.33,150.25 -129.18,225.55 -42.36,85.06 -84.73,170.11 -127.09,255.17 -10.67,-10.67 -21.33,-21.33 -32,-32 -32.33,0 -64.67,0 -97,0 0,-10.67 0,-21.33 0,-32 -10.67,0 -21.33,0 -32,0 10.67,21.33 21.33,42.67 32,64 21.33,-10.67 42.67,-21.33 64,-32 -10.67,10.67 -21.33,21.33 -32,32 10.67,21.67 21.33,43.33 32,65 11,-11 22,-22 33,-33 -53.72,75.48 -107.57,150.87 -161.22,226.41 -74.93,139.2 -149.85,278.39 -224.78,417.59 0,21.33 0,42.67 0,64 -32.33,64.33 -64.67,128.67 -97,193 -0.41,11.62 0.86,23.39 -0.72,34.9 -10.43,42.03 -20.86,84.07 -31.28,126.1 10.67,10.67 21.33,21.33 32,32 -21.33,42.67 -42.67,85.33 -64,128 0,-32 0,-64 0,-96 -11.23,-10.79 -21.67,-22.58 -33.42,-32.72 -21.24,-10.71 -42.63,-21.1 -63.75,-32.03 -353.61,-225.08 -707.22,-450.17 -1060.83,-675.25 -12.13,-11.58 -23.18,-24.38 -36.11,-35.08 -42.45,-31.63 -84.49,-63.81 -127.2,-95.07 -184.05,-118.98 -367.87,-238.32 -552.06,-357.07 -254.54,-158.93 -509.09,-317.85 -763.63,-476.78 0,-43 0,-86 0,-129 -22.04,-11.26 -44.5,-21.76 -66.26,-33.51 -31.34,-20.96 -62.81,-41.72 -94.06,-62.82 -10.56,-10.89 -21.12,-21.78 -31.68,-32.67 0,-10.67 0,-21.33 0,-32 85.67,-42.67 171.33,-85.33 257,-128 53.33,-75 106.67,-150 160,-225 0,-10.67 0,-21.33 0,-32 -10.67,-21.67 -21.33,-43.33 -32,-65 -21.33,-10.67 -42.67,-21.33 -64,-32 -10.67,10.67 -21.33,21.33 -32,32 10.67,-21.33 21.33,-42.67 32,-64 -10.67,-21.33 -21.33,-42.67 -32,-64 -21.33,-21.67 -42.67,-43.33 -64,-65 10.67,-21.33 21.33,-42.67 32,-64 -10.67,-21.33 -21.33,-42.67 -32,-64 10.67,-21.67 21.33,-43.33 32,-65 -21.67,-32 -43.33,-64 -65,-96 -32,0 -64,0 -96,0 -10.67,-21.33 -21.33,-42.67 -32,-64 -32.33,10.67 -64.67,21.33 -97,32 -10.67,-10.67 -21.33,-21.33 -32,-32 -10.67,-32.33 -21.33,-64.67 -32,-97 -10.67,0 -21.33,0 -32,0 -10.67,-10.67 -21.33,-21.33 -32,-32 0,-32 0,-64 0,-96 -10.84,-11.03 -21.39,-22.36 -32.42,-33.2 -21.53,-10.6 -43.05,-21.2 -64.58,-31.8 -10.67,-10.67 -21.33,-21.33 -32,-32 10.67,-21.33 21.33,-42.67 32,-64 -21.33,-10.67 -42.67,-21.33 -64,-32 -10.67,-21.67 -21.33,-43.33 -32,-65 -10.67,-10.67 -21.33,-21.33 -32,-32 0,21.33 0,42.67 0,64 -11,32.33 -22,64.67 -33,97 -11.25,-22.04 -21.78,-44.49 -33.5,-66.27 -20.83,-31.58 -41.67,-63.15 -62.5,-94.73 -10.67,0 -21.33,0 -32,0 -21.33,21.33 -42.67,42.67 -64,64 -11,-21.33 -22,-42.67 -33,-64 -21.33,-10.67 -42.67,-21.33 -64,-32 0,-32 0,-64 0,-96 10.67,0 21.33,0 32,0 -10.67,-21.67 -21.33,-43.33 -32,-65 10.67,-10.67 21.33,-21.33 32,-32 -32,0 -64,0 -96,0 -21.33,21.33 -42.67,42.67 -64,64 -32.33,-21.33 -64.67,-42.67 -97,-64 -21.33,-53.67 -42.67,-107.33 -64,-161 -21.41,-21.6 -43.08,-42.92 -65,-64 11,-21.33 22,-42.67 33,-64 0,-32.33 0,-64.67 0,-97 -21.67,0 -43.33,0 -65,0 0,-21.33 0,-42.67 0,-64 -10.67,0 -21.33,0 -32,0 -21.33,-32.33 -42.67,-64.67 -64,-97 0,-21.33 0,-42.67 0,-64 -53.67,-10.67 -107.33,-21.33 -161,-32 -21.33,-21.33 -42.67,-42.67 -64,-64 -21.67,-10.67 -43.33,-21.33 -65,-32 -32,10.67 -64,21.33 -96,32 -11.52,-11.07 -22.18,-23.12 -34.27,-33.53 -31.58,-21.15 -63.15,-42.32 -94.73,-63.47 43,-21.33 86,-42.67 129,-64 0,-43 0,-86 0,-129 -10.67,-10.67 -21.33,-21.33 -32,-32 21.33,-21.33 42.67,-42.67 64,-64 -21.33,-10.67 -42.67,-21.33 -64,-32 0,-21.67 0,-43.33 0,-65 21.33,0 42.67,0 64,0 0,-21.33 0,-42.67 0,-64 10.67,0 21.33,0 32,0 21.67,-32 43.33,-64 65,-96 42.67,-10.67 85.33,-21.33 128,-32 -32,-21.67 -64,-43.33 -96,-65 0,-21.33 0,-42.67 0,-64 -10.67,-10.67 -21.33,-21.33 -32,-32 0,-21.67 0,-43.33 0,-65 10.67,0 21.33,0 32,0 10.67,-10.67 21.33,-21.33 32,-32 -10.67,-32 -21.33,-64 -32,-96 21.33,-21.33 42.67,-42.67 64,-64 0,-21.67 0,-43.33 0,-65 -32,-10.67 -64,-21.33 -96,-32 -11,-53.67 -22,-107.33 -33,-161 21.67,-32 43.33,-64 65,-96 10.59,-64.82 21.81,-129.58 32,-194.45 0,-10.18 0,-20.37 0,-30.55 -21.33,0 -42.67,0 -64,0 0,-32.33 0,-64.67 0,-97 32,-64.33 64,-128.67 96,-193 0.1,-21.48 -0.15,-42.97 0.11,-64.45 10.63,-42.85 21.26,-85.7 31.89,-128.55 10.67,0 21.33,0 32,0 32.33,-32 64.67,-64 97,-96 21.69,-54.25 42.96,-108.68 64.91,-162.82 21.03,-42.06 42.06,-84.12 63.09,-126.18 0,-32.33 0,-64.67 0,-97 21.67,-10.67 43.33,-21.33 65,-32 32,0 64,0 96,0 0,10.67 0,21.33 0,32 10.67,10.67 21.33,21.33 32,32 32.33,0 64.67,0 97,0 21.33,10.67 42.67,21.33 64,32 10.67,0 21.33,0 32,0 10.67,-10.67 21.33,-21.33 32,-32 11.15,-0.1 22.3,0.2 33.44,-0.15 31.85,-10.61 63.71,-21.23 95.56,-31.85 10.67,-10.67 21.33,-21.33 32,-32 32.33,21.33 64.67,42.67 97,64 0,10.67 0,21.33 0,32 10.67,0 21.33,0 32,0 21.33,21.67 42.67,43.33 64,65 10.67,-10.67 21.33,-21.33 32,-32 10.67,0 21.33,0 32,0 21.67,-21.67 43.33,-43.33 65,-65 10.67,21.67 21.33,43.33 32,65 21.33,0 42.67,0 64,0 10.67,-21.67 21.33,-43.33 32,-65 0,-32 0,-64 0,-96 11,-10.67 22,-21.33 33,-32 0,-10.67 0,-21.33 0,-32 21.33,0 42.67,0 64,0 0,-11 0,-22 0,-33 10.67,-10.67 21.33,-21.33 32,-32 -10.67,-10.67 -21.33,-21.33 -32,-32 0,-21.33 0,-42.67 0,-64 -10.67,-10.67 -21.33,-21.33 -32,-32 0,-21.67 0,-43.33 0,-65 -21.67,-10.67 -43.33,-21.33 -65,-32 -21.33,10.67 -42.67,21.33 -64,32 -10.67,-10.67 -21.33,-21.33 -32,-32 -43,0 -86,0 -129,0 -42.67,-21.33 -85.33,-42.67 -128,-64 21.33,-10.67 42.67,-21.33 64,-32 21.33,-53.67 42.67,-107.33 64,-161 21.67,-10.67 43.33,-21.33 65,-32 0,-32.33 0,-64.67 0,-97 10.67,-21.33 21.33,-42.67 32,-64 -21.41,-21.6 -43.08,-42.92 -65,-64 0,-21.67 0,-43.33 0,-65 21.67,-42.67 43.33,-85.33 65,-128 10.67,-53.67 21.33,-107.33 32,-161 10.67,-21.33 21.33,-42.67 32,-64 0,-10.67 0,-21.33 0,-32 21.33,-43 42.67,-86 64,-129 21.67,0 43.33,0 65,0 10.67,-10.67 21.33,-21.33 32,-32 10.67,10.67 21.33,21.33 32,32 0,-10.67 0,-21.33 0,-32 10.67,-10.67 21.33,-21.33 32,-32 10.67,0 21.33,0 32,0 32.33,21.33 64.67,42.67 97,64 21.33,0 42.67,0 64,0 0,-10.67 0,-21.33 0,-32 10.67,10.67 21.33,21.33 32,32 32.33,10.67 64.67,21.33 97,32 21.33,0 42.67,0 64,0 0,-32 0,-64 0,-96 -10.67,0 -21.33,0 -32,0 0,-32.33 0,-64.67 0,-97 -10.67,0 -21.33,0 -32,0 -11,-10.67 -22,-21.33 -33,-32 11,0 22,0 33,0 0,-21.33 0,-42.67 0,-64 10.67,0 21.33,0 32,0 42.9,-42.76 85.34,-85.99 128,-129 21.67,-42.67 43.33,-85.33 65,-128 10.67,0 21.33,0 32,0 10.84,-22.5 22.46,-44.65 32.79,-67.37 10.69,-31.67 20.88,-63.53 31.91,-95.06 10.43,-21.19 20.87,-42.38 31.3,-63.57 10.67,21.67 21.33,43.33 32,65 -10.67,21.33 -21.33,42.67 -32,64 10.67,0 21.33,0 32,0 11,21.33 22,42.67 33,64 21.33,-10.67 42.67,-21.33 64,-32 10.67,-21.33 21.33,-42.67 32,-64 0,-21.33 0,-42.67 0,-64 21.33,0 42.67,0 64,0 11,-32.33 22,-64.67 33,-97 0,-10.67 0,-21.33 0,-32 11.28,-23.2 23.63,-45.91 34.16,-69.45 20.61,-51.85 41.22,-103.7 61.84,-155.55 21.33,-21.33 42.67,-42.67 64,-64 0,-11 0,-22 0,-33 21.67,-10.67 43.33,-21.33 65,-32 0,-21.33 0,-42.67 0,-64 10.67,-10.67 21.33,-21.33 32,-32 10.67,0 21.33,0 32,0 0,10.67 0,21.33 0,32 10.67,0 21.33,0 32,0 10.67,10.67 21.33,21.33 32,32 10.67,0 21.33,0 32,0 11,-42.67 22,-85.33 33,-128 21.42,-11.16 43.02,-21.97 64.33,-33.33 10.56,-10.56 21.11,-21.11 31.67,-31.67 32,0 64,0 96,0 -10.67,-32 -21.33,-64 -32,-96 -10.7,-10.84 -21.69,-21.4 -32.2,-32.42 -10.6,-21.53 -21.2,-43.05 -31.8,-64.58 32,-42.67 64,-85.33 96,-128 0,-11 0,-22 0,-33 21.67,-10.67 43.33,-21.33 65,-32 0,-10.67 0,-21.33 0,-32 21.33,-10.67 42.67,-21.33 64,-32 10.67,-43 21.33,-86 32,-129 -10.67,-21.33 -21.33,-42.67 -32,-64 -10.67,0 -21.33,0 -32,0 -10.67,-21.33 -21.33,-42.67 -32,-64 10.67,0 21.33,0 32,0 10.67,10.67 21.33,21.33 32,32 10.67,0 21.33,0 32,0 0,-10.67 0,-21.33 0,-32 32.33,-21.33 64.67,-42.67 97,-64 0,-21.67 0,-43.33 0,-65 -10.67,-10.67 -21.33,-21.33 -32,-32 0,-21.33 0,-42.67 0,-64 -21.67,0 -43.33,0 -65,0 0,-21.67 0,-43.33 0,-65 -10.67,-21.33 -21.33,-42.67 -32,-64 -21.33,-10.67 -42.67,-21.33 -64,-32 0,-21.33 0,-42.67 0,-64 -32.33,-32.33 -64.67,-64.67 -97,-97 -21.33,0 -42.67,0 -64,0 0,-10.67 0,-21.33 0,-32 21.33,-32 42.67,-64 64,-96 10.67,0 21.33,0 32,0 -10.67,0 -21.33,0 -32,0 -10.67,-11 -21.33,-22 -32,-33 -53.67,0 -107.33,0 -161,0 0,21.67 0,43.33 0,65 -32,0 -64,0 -96,0 0,-21.67 0,-43.33 0,-65 -21.33,0 -42.67,0 -64,0 0,11 0,22 0,33 -11,0 -22,0 -33,0 0,-11 0,-22 0,-33 -10.67,0 -21.33,0 -32,0 -10.67,-21.33 -21.33,-42.67 -32,-64 -10.67,0 -21.33,0 -32,0 0,10.67 0,21.33 0,32 -10.67,0 -21.33,0 -32,0 0,-10.67 0,-21.33 0,-32 -10.67,0 -21.33,0 -32,0 10.67,-10.67 21.33,-21.33 32,-32 -21.33,0 -42.67,0 -64,0 -11,-10.67 -22,-21.33 -33,-32 11,0 22,0 33,0 -11,-10.67 -22,-21.33 -33,-32 -21.33,0 -42.67,0 -64,0 0,-10.67 0,-21.33 0,-32 10.67,0 21.33,0 32,0 -10.67,-11 -21.33,-22 -32,-33 0,-10.67 0,-21.33 0,-32 -10.67,-10.67 -21.33,-21.33 -32,-32 -10.67,10.67 -21.33,21.33 -32,32 0,-10.67 0,-21.33 0,-32 10.67,0 21.33,0 32,0 0,-21.33 0,-42.67 0,-64 0,10.67 0,21.33 0,32 10.67,-32.33 21.33,-64.67 32,-97 -10.67,0 -21.33,0 -32,0 -10.67,21.67 -21.33,43.33 -32,65 -10.67,0 -21.33,0 -32,0 -11,-10.67 -22,-21.33 -33,-32 11,-21.67 22,-43.33 33,-65 0,-10.67 0,-21.33 0,-32 -21.67,10.67 -43.33,21.33 -65,32 0,10.67 0,21.33 0,32 -21.33,0 -42.67,0 -64,0 -10.67,-10.67 -21.33,-21.33 -32,-32 -21.33,10.67 -42.67,21.33 -64,32 -11,0 -22,0 -33,0 0,-21.33 0,-42.67 0,-64 -10.67,10.67 -21.33,21.33 -32,32 -21.33,0 -42.67,0 -64,0 0,10.67 0,21.33 0,32 -10.67,0 -21.33,0 -32,0 0,-10.67 0,-21.33 0,-32 -10.67,10.67 -21.33,21.33 -32,32 -11,-10.67 -22,-21.33 -33,-32 21.67,-10.67 43.33,-21.33 65,-32 0,-42.67 0,-85.33 0,-128 -10.67,0 -21.33,0 -32,0 -32.33,-21.67 -64.67,-43.33 -97,-65 -10.67,10.67 -21.33,21.33 -32,32 0,-10.67 0,-21.33 0,-32 -10.67,0 -21.33,0 -32,0 0,-21.33 0,-42.67 0,-64 -10.67,0 -21.33,0 -32,0 0,-10.67 0,-21.33 0,-32 -10.67,0 -21.33,0 -32,0 0,-21.67 0,-43.33 0,-65 -11,0 -22,0 -33,0 0,-10.67 0,-21.33 0,-32 -10.67,-21.33 -21.33,-42.67 -32,-64 -10.67,0 -21.33,0 -32,0 -21.33,10.67 -42.67,21.33 -64,32 -21.33,0 -42.67,0 -64,0 -11,10.67 -22,21.33 -33,32 -10.67,-10.67 -21.33,-21.33 -32,-32 -21.33,10.67 -42.67,21.33 -64,32 -53.67,0 -107.33,0 -161,0 -10.67,10.67 -21.33,21.33 -32,32 -10.67,-10.67 -21.33,-21.33 -32,-32 -10.67,0 -21.33,0 -32,0 -11,-10.67 -22,-21.33 -33,-32 -21.33,10.67 -42.67,21.33 -64,32 -10.67,10.67 -21.33,21.33 -32,32 -10.67,-10.67 -21.33,-21.33 -32,-32 -21.33,0 -42.67,0 -64,0 -11,-10.67 -22,-21.33 -33,-32 0,10.67 0,21.33 0,32 -21.33,-21.33 -42.67,-42.67 -64,-64 0,10.67 0,21.33 0,32 -10.67,-10.67 -21.33,-21.33 -32,-32 -10.67,-43 -21.33,-86 -32,-129 -32.33,-32 -64.67,-64 -97,-96 -10.67,0 -21.33,0 -32,0 -10.67,-10.67 -21.33,-21.33 -32,-32 -21.47,32.09 -42.73,64.32 -64.33,96.33 -10.56,10.56 -21.11,21.11 -31.67,31.67 -21.92,-21.08 -43.59,-42.4 -65,-64 -21.33,10.67 -42.67,21.33 -64,32 -10.67,21.67 -21.33,43.33 -32,65 0,21.33 0,42.67 0,64 -32.33,0 -64.67,0 -97,0 -21.33,10.67 -42.67,21.33 -64,32 -21.33,0 -42.67,0 -64,0 -10.67,-21.33 -21.33,-42.67 -32,-64 10.67,-21.67 21.33,-43.33 32,-65 -43,-10.67 -86,-21.33 -129,-32 0,-10.67 0,-21.33 0,-32 -21.33,-10.67 -42.67,-21.33 -64,-32 10.67,-10.67 21.33,-21.33 32,-32 0,-10.67 0,-21.33 0,-32 -10.67,-11 -21.33,-22 -32,-33 -10.67,0 -21.33,0 -32,0 -21.67,-32 -43.33,-64 -65,-96 -10.67,0 -21.33,0 -32,0 -10.67,21.33 -21.33,42.67 -32,64 -10.67,0 -21.33,0 -32,0 -21.33,-42.67 -42.67,-85.33 -64,-128 -32.33,-10.67 -64.67,-21.33 -97,-32 0,-11 0,-22 0,-33 -21.33,-32 -42.67,-64 -64,-96 -10.67,0 -21.33,0 -32,0 0,-10.67 0,-21.33 0,-32 -11,0 -22,0 -33,0 -21.33,10.67 -42.67,21.33 -64,32 -21.33,0 -42.67,0 -64,0 -10.67,21.33 -21.33,42.67 -32,64 10.67,21.67 21.33,43.33 32,65 -10.67,0 -21.33,0 -32,0 -10.67,10.67 -21.33,21.33 -32,32 -32.33,10.67 -64.67,21.33 -97,32 -21.33,-10.67 -42.67,-21.33 -64,-32 -10.67,-21.67 -21.33,-43.33 -32,-65 10.67,-21.33 21.33,-42.67 32,-64 -10.67,-21.33 -21.33,-42.67 -32,-64 -43,-21.67 -86,-43.33 -129,-65 0,-10.67 0,-21.33 0,-32 -21.33,0 -42.67,0 -64,0 0,43 0,86 0,129 -10.67,0 -21.33,0 -32,0 -11,21.33 -22,42.67 -33,64 -10.67,-10.67 -21.33,-21.33 -32,-32 -10.67,10.67 -21.33,21.33 -32,32 -43,10.67 -86,21.33 -129,32 -32,0 -64,0 -96,0 -10.67,-53.33 -21.33,-106.67 -32,-160 -64.33,0 -128.67,0 -193,0 -21.33,-21.67 -42.67,-43.33 -64,-65 0,21.67 0,43.33 0,65 -21.41,21.6 -43.08,42.92 -65,64 0,32 0,64 0,96 -10.67,0 -21.33,0 -32,0 -32,32.33 -64,64.67 -96,97 -43,0 -86,0 -129,0 -32,21.33 -64,42.67 -96,64 -32.33,-10.67 -64.67,-21.33 -97,-32 -32,32 -64,64 -96,96 -43,11 -86,22 -129,33 -10.67,0 -21.33,0 -32,0 -10.67,32 -21.33,64 -32,96 -10.67,10.67 -21.33,21.33 -32,32 -43.1,-21.13 -86.1,-42.46 -129,-64 -32,-10.67 -64,-21.33 -96,-32 -11,0 -22,0 -33,0 -32,-21.67 -64,-43.33 -96,-65 -32,0 -64,0 -96,0 -22.5,11.17 -44.62,23.18 -67.37,33.79 -31.21,10.4 -62.42,20.81 -93.63,31.21 -21.67,-21.67 -43.33,-43.33 -65,-65 -10.67,0 -21.33,0 -32,0 -21.33,11 -42.67,22 -64,33 -43,0 -86,0 -129,0 -10.7,-171.82 -21.3,-343.65 -32.07,-515.46 -31.98,-224.85 -63.95,-449.69 -95.93,-674.54 0,-10.67 0,-21.33 0,-32 -43.1,-32.46 -86.3,-64.79 -129.33,-97.33 -118.85,-118.39 -237.46,-237.04 -356.47,-355.27 -157.04,-145.7 -313.73,-291.78 -471,-437.22 -377.73,-346.4 -755.47,-692.79 -1133.2,-1039.18 -10.67,0 -21.33,0 -32,0 -10.67,10.67 -21.33,21.33 -32,32 -43.13,10.77 -86.32,21.27 -129.41,32.21 -21.2,10.59 -42.39,21.19 -63.59,31.79 -21.67,0 -43.33,0 -65,0 -10.67,32.33 -21.33,64.67 -32,97 -21.33,10.67 -42.67,21.33 -64,32 -10.67,10.67 -21.33,21.33 -32,32 -21.67,0 -43.33,0 -65,0 -10.67,10.67 -21.33,21.33 -32,32 -21.33,0 -42.67,0 -64,0 0,21.33 0,42.67 0,64 -32.33,10.67 -64.67,21.33 -97,32 -42.67,-21.33 -85.33,-42.67 -128,-64 -21.33,0 -42.67,0 -64,0 -11,-10.67 -22,-21.33 -33,-32 -53.48,10.73 -106.98,21.32 -160.44,32.15 -64.32,21.37 -128.69,42.58 -192.97,64.06 -21.53,10.93 -43.06,21.86 -64.59,32.79 -21.33,0 -42.67,0 -64,0 0,-32.33 0,-64.67 0,-97 -10.67,0 -21.33,0 -32,0 -10.67,-32 -21.33,-64 -32,-96 -21.67,-21.67 -43.33,-43.33 -65,-65 -21.33,-10.67 -42.67,-21.33 -64,-32 -21.33,-21.33 -42.67,-42.67 -64,-64 0,-21.33 0,-42.67 0,-64 -21.33,0 -42.67,0 -64,0 -11,-21.67 -22,-43.33 -33,-65 -10.67,0 -21.33,0 -32,0 0,21.67 0,43.33 0,65 -21.33,10.67 -42.67,21.33 -64,32 -10.67,-10.67 -21.33,-21.33 -32,-32 -21.33,10.67 -42.67,21.33 -64,32 -21.67,-10.67 -43.33,-21.33 -65,-32 -32.1,21.46 -64.32,42.74 -96.33,64.33 -21.56,21.22 -43.11,42.45 -64.67,63.67 -21.33,-21.33 -42.67,-42.67 -64,-64 -10.67,10.67 -21.33,21.33 -32,32 -10.67,-21.33 -21.33,-42.67 -32,-64 -43,-10.67 -86,-21.33 -129,-32 -10.78,-11.56 -22.54,-22.36 -32.71,-34.4 -10.43,-20.87 -20.86,-41.74 -31.29,-62.6 -10.67,0 -21.33,0 -32,0 -32.33,32.33 -64.67,64.67 -97,97 -21.47,-32.42 -42.73,-64.99 -64.33,-97.33 -10.56,-10.56 -21.11,-21.11 -31.67,-31.67 -32.33,10.67 -64.67,21.33 -97,32 -32,-21.33 -64,-42.67 -96,-64 -43,-10.67 -86,-21.33 -129,-32 10.67,-43 21.33,-86 32,-129 0,-21.33 0,-42.67 0,-64 -53.33,0 -106.67,0 -160,0 -32.33,-43 -64.67,-86 -97,-129 -32,-21.33 -64,-42.67 -96,-64 -32.33,0 -64.67,0 -97,0 0,-21.33 0,-42.67 0,-64 -32,-11 -64,-22 -96,-33 -10.67,0 -21.33,0 -32,0 -21.8,-32.09 -43.41,-64.32 -65.33,-96.33 -21.22,-21.22 -42.45,-42.45 -63.67,-63.67 -21.33,-11 -42.67,-22 -64,-33 -21.67,21.67 -43.33,43.33 -65,65 -10.67,21.33 -21.33,42.67 -32,64 -21.48,-21.4 -42.8,-42.97 -64.39,-64.26 -32.2,-21.58 -64.41,-43.16 -96.61,-64.74 11,0 22,0 33,0 -11,0 -22,0 -33,0 -10.67,-21.33 -21.33,-42.67 -32,-64 0,10.67 0,21.33 0,32 -21.33,-21.33 -42.67,-42.67 -64,-64 -10.67,10.67 -21.33,21.33 -32,32 -10.84,-10.7 -21.4,-21.69 -32.42,-32.2 -21.53,-10.6 -43.05,-21.2 -64.58,-31.8 11,-10.67 22,-21.33 33,-32 -11,0 -22,0 -33,0 0,-10.67 0,-21.33 0,-32 -21.33,0 -42.67,0 -64,0 10.67,0 21.33,0 32,0 -21.33,10.67 -42.67,21.33 -64,32 0,-10.67 0,-21.33 0,-32 -21.42,-11.15 -43.02,-21.97 -64.33,-33.33 -21.56,-21.22 -43.11,-42.447 -64.67,-63.67 -10.67,-21.332 -21.33,-42.668 -32,-64 -53.67,-10.666 -107.33,-21.334 -161,-32 -21.85,-21.949 -43.24,-44.403 -65.38,-66.028 -42.63,-31.788 -85.38,-63.427 -127.95,-95.3 -10.56,-10.554 -21.11,-21.116 -31.67,-31.672 0,-10.667 0,-21.333 0,-32 -21.33,0 -42.67,0 -64,0 -10.67,-21.665 -21.33,-43.335 -32,-65 -21.33,-10.668 -42.67,-21.332 -64,-32 0,-10.667 0,-21.333 0,-32 10.67,0 21.33,0 32,0 -10.67,-10.665 -21.33,-21.335 -32,-32 -11,10.667 -22,21.333 -33,32 -10.67,0 -21.33,0 -32,0 -21.33,-21.335 -42.67,-42.665 -64,-64 0,10.667 0,21.333 0,32 -10.67,0 -21.33,0 -32,0 -10.67,-32.332 -21.33,-64.668 -32,-97 0,11 0,22 0,33 -10.67,-10.998 -21.33,-22.002 -32,-33 -11,0 -22,0 -33,0 -0.1,-10.813 0.2,-21.63 -0.15,-32.44 -10.6,-31.857 -21.23,-63.708 -31.85,-95.56 -10.67,-10.665 -21.33,-21.335 -32,-32 -21.33,0 -42.67,0 -64,0 -32.33,-21.668 -64.67,-43.332 -97,-65 -10.67,10.665 -21.33,21.335 -32,32 -32,-10.667 -64,-21.333 -96,-32 -10.67,10.665 -21.33,21.335 -32,32 -32.33,-21.335 -64.67,-42.665 -97,-64 0,-10.667 0,-21.333 0,-32 -10.67,0 -21.33,0 -32,0 -21.33,10.668 -42.67,21.332 -64,32 -11,0 -22,0 -33,0 -10.67,-21.332 -21.33,-42.668 -32,-64 -10.67,21.332 -21.33,42.668 -32,64 -10.67,0 -21.33,0 -32,0 -10.67,10.665 -21.33,21.335 -32,32 -10.67,-21.332 -21.33,-42.668 -32,-64 -21.67,-10.666 -43.33,-21.334 -65,-32 -10.67,-10.665 -21.33,-21.335 -32,-32 0,10.667 0,21.333 0,32 -10.67,0 -21.33,0 -32,0 -21.33,-21.668 -42.67,-43.332 -64,-65 -32.33,0 -64.67,0 -97,0 -42.67,-21.332 -85.33,-42.668 -128,-64 0,10.667 0,21.333 0,32 -21.67,-10.666 -43.33,-21.334 -65,-32 -10.67,0 -21.33,0 -32,0 -10.67,10.665 -21.33,21.335 -32,32 -43.15,0.04 -86.31,-0.09 -129.46,0.07 -74.85,10.646 -149.69,21.29 -224.54,31.935 0,11 0,22 0,33 -10.67,10.665 -21.33,21.335 -32,32 -21.33,0 -42.67,0 -64,0 -10.67,-10.665 -21.33,-21.335 -32,-32 -21.67,10.666 -43.33,21.334 -65,32 -10.67,0 -21.33,0 -32,0 -32,32 -64,64 -96,96 -32.33,0 -64.67,0 -97,0 -42.79,21.767 -85.64,43.413 -128.39,65.255 -32.2,21.249 -64.41,42.495 -96.61,63.745 -10.67,-10.665 -21.33,-21.335 -32,-32 -10.67,10.665 -21.33,21.335 -32,32 -10.67,0 -21.33,0 -32,0 -10.67,10.665 -21.33,21.335 -32,32 0,10.667 0,21.333 0,32 -21.67,0 -43.33,0 -65,0 -10.67,10.665 -21.33,21.335 -32,32 10.67,21.665 21.33,43.335 32,65 -10.67,10.665 -21.33,21.335 -32,32 -21.33,0 -42.67,0 -64,0 -10.67,10.665 -21.33,21.335 -32,32 21.33,21.335 42.67,42.665 64,64 0,10.667 0,21.333 0,32 -32,0 -64,0 -96,0 -10.67,10.998 -21.33,22.002 -32,33 -21.67,0 -43.33,0 -65,0 0,21.333 0,42.667 0,64 -10.67,-10.665 -21.33,-21.335 -32,-32 -10.67,21.332 -21.33,42.668 -32,64 -10.67,0 -21.33,0 -32,0 -10.67,-21.332 -21.33,-42.668 -32,-64 0,-21.667 0,-43.333 0,-65 10.67,0 21.33,0 32,0 -11.31,-10.887 -21.85,-22.704 -33.65,-32.985 -53.12,-31.678 -106.24,-63.342 -159.35,-95.015 -10.67,-21.332 -21.33,-42.668 -32,-64 -21.67,0 -43.33,0 -65,0 -21.33,10.668 -42.67,21.332 -64,32 -10.67,0 -21.33,0 -32,0 -21.5,-10.66 -42.86,-21.609 -64.45,-32.093 -53.52,-10.968 -107.03,-21.939 -160.55,-32.907 -21.33,-21.335 -42.67,-42.665 -64,-64 -21.67,0 -43.33,0 -65,0 0,-10.667 0,-21.333 0,-32 -21.33,0 -42.67,0 -64,0 -10.67,10.665 -21.33,21.335 -32,32 -21.67,0 -43.33,0 -65,0 0,-10.667 0,-21.333 0,-32 11,-10.667 22,-21.333 33,-32 0,-10.667 0,-21.333 0,-32 -21.67,-21.665 -43.33,-43.335 -65,-65 -42.67,0 -85.33,0 -128,0 -10.67,-10.665 -21.33,-21.335 -32,-32 -21.67,0 -43.33,0 -65,0 -10.67,-10.665 -21.33,-21.335 -32,-32 -32,0 -64,0 -96,0 -64.33,-21.334 -128.67,-42.666 -193,-64 -21.67,0 -43.33,0 -65,0 -10.67,-10.998 -21.33,-22.002 -32,-33 -10.67,0 -21.33,0 -32,0 0,-21.333 0,-42.667 0,-64 -10.67,0 -21.33,0 -32,0 0,10.667 0,21.333 0,32 -10.67,-10.665 -21.33,-21.335 -32,-32 10.67,-10.665 21.33,-21.335 32,-32 -10.67,0 -21.33,0 -32,0 10.67,-10.665 21.33,-21.335 32,-32 -10.67,0 -21.33,0 -32,0 21.33,0 42.67,0 64,0 -21.33,-10.668 -42.67,-21.332 -64,-32 21.33,-10.668 42.67,-21.332 64,-32 0,-21.667 0,-43.333 0,-65 -10.67,0 -21.33,0 -32,0 0,-32 0,-64 0,-96 -10.67,10.665 -21.33,21.335 -32,32 0.1,-21.48 -0.19,-42.961 0.15,-64.44 10.6,-32.191 21.23,-64.374 31.85,-96.56 0.35,-15.135 -1.25,-30.455 2.21,-45.348 9.93,-59.885 19.86,-119.768 29.79,-179.652 43,-96.333 86,-192.667 129,-289 10.67,-10.665 21.33,-21.335 32,-32 14.26,-44.298 30.15,-88.097 42.26,-133.057 17.91,-62.981 35.82,-125.963 53.74,-188.943 21.67,-21.331 43.33,-42.669 65,-64 0,-10.667 0,-21.333 0,-32 32,-43 64,-86 96,-129 -10.67,-10.665 -21.33,-21.335 -32,-32 -21.33,0 -42.67,0 -64,0 -11,-21.667 -22,-43.333 -33,-65 -10.67,10.998 -21.33,22.002 -32,33 0,-11 0,-22 0,-33 -10.67,0 -21.33,0 -32,0 10.67,-10.665 21.33,-21.335 32,-32 -10.67,0 -21.33,0 -32,0 -21.33,-10.668 -42.67,-21.332 -64,-32 -10.67,21.332 -21.33,42.668 -32,64 0,-10.667 0,-21.333 0,-32 -10.67,10.665 -21.33,21.335 -32,32 -11,-10.667 -22,-21.333 -33,-32 11,0 22,0 33,0 0,-10.667 0,-21.333 0,-32 -21.67,10.666 -43.33,21.334 -65,32 -10.67,-10.665 -21.33,-21.335 -32,-32 0,10.667 0,21.333 0,32 -10.67,-10.665 -21.33,-21.335 -32,-32 -21.33,0 -42.67,0 -64,0 0,-21.333 0,-42.667 0,-64 0,10.667 0,21.333 0,32 -11,-10.667 -22,-21.333 -33,-32 -10.67,0 -21.33,0 -32,0 0,10.667 0,21.333 0,32 -10.67,-10.665 -21.33,-21.335 -32,-32 0,10.667 0,21.333 0,32 -10.67,-10.665 -21.33,-21.335 -32,-32 -10.67,0 -21.33,0 -32,0 0,10.667 0,21.333 0,32 -10.67,-10.665 -21.33,-21.335 -32,-32 -10.67,10.665 -21.33,21.335 -32,32 -11,-21.333 -22,-42.667 -33,-64 -10.67,0 -21.33,0 -32,0 0,21.333 0,42.667 0,64 0,-21.333 0,-42.667 0,-64 -10.67,0 -21.33,0 -32,0 -10.67,-21.665 -21.33,-43.335 -32,-65 -10.67,0 -21.33,0 -32,0 -10.67,10.998 -21.33,22.002 -32,33 0,-11 0,-22 0,-33 -21.67,-10.666 -43.33,-21.334 -65,-32 10.67,0 21.33,0 32,0 -42.67,0 -85.33,0 -128,0 0,10.667 0,21.333 0,32 -21.33,0 -42.67,0 -64,0 -11,21.667 -22,43.333 -33,65 -10.67,-10.665 -21.33,-21.335 -32,-32 0,10.667 0,21.333 0,32 -10.67,-10.665 -21.33,-21.335 -32,-32 -10.67,0 -21.33,0 -32,0 0,-11 0,-22 0,-33 -10.67,10.998 -21.33,22.002 -32,33 -21.67,0 -43.33,0 -65,0 0,-21.667 0,-43.333 0,-65 -10.67,0 -21.33,0 -32,0 0,10.667 0,21.333 0,32 -10.67,0 -21.33,0 -32,0 0,-10.667 0,-21.333 0,-32 -10.67,10.665 -21.33,21.335 -32,32 -10.67,0 -21.33,0 -32,0 -10.67,-10.665 -21.33,-21.335 -32,-32 0,-21.333 0,-42.667 0,-64 -10.67,0 -21.33,0 -32,0 -11,32 -22,64 -33,96 -21.33,11.001 -42.67,21.999 -64,33 -10.67,-10.998 -21.33,-22.002 -32,-33 10.67,0 21.33,0 32,0 0,-21.333 0,-42.667 0,-64 -42.67,-10.666 -85.33,-21.334 -128,-32 0,21.333 0,42.667 0,64 -11,0 -22,0 -33,0 -21.33,-21.335 -42.67,-42.665 -64,-64 -32,0 -64,0 -96,0 0,-10.667 0,-21.333 0,-32 -11,0 -22,0 -33,0 0,-21.333 0,-42.667 0,-64 -10.67,-10.998 -21.33,-22.002 -32,-33 0,21.667 0,43.333 0,65 -32,0 -64,0 -96,0 0,21.333 0,42.667 0,64 -10.67,-10.665 -21.33,-21.335 -32,-32 -11,10.667 -22,21.333 -33,32 11,0 22,0 33,0 0,10.667 0,21.333 0,32 -11,-21.333 -22,-42.667 -33,-64 -64,0 -128,0 -192,0 -11,10.667 -22,21.333 -33,32 -32,-21.333 -64,-42.667 -96,-64 -32,10.667 -64,21.333 -96,32 0,10.667 0,21.333 0,32 -21.67,0 -43.33,0 -65,0 10.67,10.665 21.33,21.335 32,32 -10.67,0 -21.33,0 -32,0 -10.67,10.665 -21.33,21.335 -32,32 -10.67,0 -21.33,0 -32,0 -10.67,10.665 -21.33,21.335 -32,32 -10.67,-10.665 -21.33,-21.335 -32,-32 0,10.667 0,21.333 0,32 -11,11 -22,22 -33,33 0,-11 0,-22 0,-33 -21.33,0 -42.67,0 -64,0 -10.67,10.998 -21.33,22.002 -32,33 -32.33,10.668 -64.67,21.332 -97,32 -21.33,21.335 -42.67,42.665 -64,64 -21.33,10.668 -42.67,21.332 -64,32 -10.67,10.665 -21.33,21.335 -32,32 -10.67,-10.665 -21.33,-21.335 -32,-32 0,10.667 0,21.333 0,32 -11,0 -22,0 -33,0 -21.6,21.404 -42.92,43.083 -64,65 -10.67,0 -21.33,0 -32,0 -10.67,-10.998 -21.33,-22.002 -32,-33 -10.67,10.998 -21.33,22.002 -32,33 0,-11 0,-22 0,-33 -10.67,10.998 -21.33,22.002 -32,33 -43,0 -86,0 -129,0 0,21.333 0,42.667 0,64 -21.33,-10.668 -42.67,-21.332 -64,-32 0,10.667 0,21.333 0,32 -11,0 -22,0 -33,0 0,10.667 0,21.333 0,32 -21.33,0 -42.67,0 -64,0 0,10.667 0,21.333 0,32 0,-10.667 0,-21.333 0,-32 -32.28,32.056 -64.06,64.607 -96,97 -21.67,0 -43.33,0 -65,0 -10.67,10.665 -21.33,21.335 -32,32 -10.67,0 -21.33,0 -32,0 -10.67,31.999 -21.33,64.001 -32,96 -10.67,-10.665 -21.33,-21.335 -32,-32 -10.67,10.665 -21.33,21.335 -32,32 10.67,0 21.33,0 32,0 -10.67,10.665 -21.33,21.335 -32,32 -11,-10.667 -22,-21.333 -33,-32 -10.67,0 -21.33,0 -32,0 -10.67,21.665 -21.33,43.335 -32,65 10.67,10.665 21.33,21.335 32,32 -10.67,10.665 -21.33,21.335 -32,32 -10.67,-10.665 -21.33,-21.335 -32,-32 0,21.333 0,42.667 0,64 -21.33,-21.335 -42.67,-42.665 -64,-64 0,10.667 0,21.333 0,32 -10.67,0 -21.33,0 -32,0 0,21.333 0,42.667 0,64 -11,0 -22,0 -33,0 0,21.333 0,42.667 0,64 -21.33,0 -42.67,0 -64,0 0,-10.667 0,-21.333 0,-32 -10.67,21.665 -21.33,43.335 -32,65 -10.67,-10.998 -21.33,-22.002 -32,-33 0,21.667 0,43.333 0,65 -21.67,10.666 -43.33,21.334 -65,32 -10.67,0 -21.33,0 -32,0 0,10.667 0,21.333 0,32 -10.67,10.665 -21.33,21.335 -32,32 -10.67,-10.665 -21.33,-21.335 -32,-32 0,10.667 0,21.333 0,32 -32.33,0 -64.67,0 -97,0 -10.67,10.665 -21.33,21.335 -32,32 -10.67,0 -21.33,0 -32,0 0,10.667 0,21.333 0,32 -32,0 -64,0 -96,0 10.67,10.998 21.33,22.002 32,33 -10.67,10.665 -21.33,21.335 -32,32 -32.33,-10.668 -64.67,-21.332 -97,-32 0,10.667 0,21.333 0,32 21.67,10.666 43.33,21.334 65,32 -11,10.667 -22,21.333 -33,32 -10.67,0 -21.33,0 -32,0 10.67,10.665 21.33,21.335 32,32 -10.67,10.665 -21.33,21.335 -32,32 10.67,0 21.33,0 32,0 11,11 22,22 33,33 -32.33,0 -64.67,0 -97,0 -10.67,10.665 -21.33,21.335 -32,32 0,32 0,64 0,96 -10.67,-10.665 -21.33,-21.335 -32,-32 0,21.333 0,42.667 0,64 10.67,0 21.33,0 32,0 10.67,-10.665 21.33,-21.335 32,-32 0,21.667 0,43.333 0,65 -32,0 -64,0 -96,0 -21.67,31.998 -43.33,64.002 -65,96 0,-10.667 0,-21.333 0,-32 0,10.667 0,21.333 0,32 -21.33,0 -42.67,0 -64,0 -10.67,10.665 -21.33,21.335 -32,32 -21.33,0 -42.67,0 -64,0 0,10.667 0,21.333 0,32 -11,0 -22,0 -33,0 0,10.667 0,21.333 0,32 -32,11 -64,22 -96,33 -10.67,0 -21.33,0 -32,0 0,10.667 0,21.333 0,32 -10.67,0 -21.33,0 -32,0 -10.67,10.665 -21.33,21.335 -32,32 -11,-10.667 -22,-21.333 -33,-32 -21.33,21.335 -42.67,42.665 -64,64 10.67,10.665 21.33,21.335 32,32 -21.33,0 -42.67,0 -64,0 0,21.333 0,42.667 0,64 -21.33,-10.668 -42.67,-21.332 -64,-32 0,10.667 0,21.333 0,32 -64.33,21.668 -128.67,43.332 -193,65 0,21.333 0,42.667 0,64 -10.67,10.665 -21.33,21.335 -32,32 0,-10.667 0,-21.333 0,-32 -11.03,10.841 -22.36,21.391 -33.21,32.415 -21.37,42.982 -42.59,86.036 -64.05,128.971 -21.37,31.973 -42.57,64.056 -64.06,95.947 -10.57,10.884 -21.12,21.778 -31.68,32.667 -16.64,-0.116 -33.36,0.758 -49.86,-1.925 -90.71,-10.355 -181.43,-20.718 -272.14,-31.075 -21.33,-10.668 -42.67,-21.332 -64,-32 10.67,-10.665 21.33,-21.335 32,-32 -21.33,10.668 -42.67,21.332 -64,32 0,10.667 0,21.333 0,32 -21.67,0 -43.33,0 -65,0 0,11 0,22 0,33 -32,-11 -64,-22 -96,-33 -10.67,21.665 -21.33,43.335 -32,65 -21.67,10.666 -43.33,21.334 -65,32 0,21.333 0,42.667 0,64 -21.33,21.335 -42.67,42.665 -64,64 -10.67,-10.665 -21.33,-21.335 -32,-32 -10.7,10.842 -21.68,21.397 -32.2,32.416 -10.6,21.53 -21.2,43.056 -31.8,64.584 -10.67,-10.665 -21.33,-21.335 -32,-32 -11,21.333 -22,42.667 -33,64 -21.33,10.668 -42.67,21.332 -64,32 0,10.667 0,21.333 0,32 10.67,10.665 21.33,21.335 32,32 -32,0 -64,0 -96,0 0,10.667 0,21.333 0,32 -10.67,0 -21.33,0 -32,0 -11,-10.667 -22,-21.333 -33,-32 11,21.667 22,43.333 33,65 -11,21.333 -22,42.667 -33,64 -10.67,-10.665 -21.33,-21.335 -32,-32 -10.67,21.332 -21.33,42.668 -32,64 -32,0 -64,0 -96,0 0,21.333 0,42.665 0,63.995 -11,0 -22,0 -33,0 -10.67,-10.67 -21.33,-21.33 -32,-31.995 0,10.665 0,21.325 0,31.995 -10.67,11 -21.33,22 -32,33 0,21.33 0,42.67 0,64 -10.67,0 -21.33,0 -32,0 -32.15,32.06 -64.13,64.3 -96.39,96.26 -32.2,21.58 -64.41,43.16 -96.61,64.74 -10.67,0 -21.33,0 -32,0 0,-11 0,-22 0,-33 -10.67,0 -21.33,0 -32,0 -10.67,21.67 -21.33,43.33 -32,65 -21.67,10.67 -43.33,21.33 -65,32 11,0 22,0 33,0 -11,10.67 -22,21.33 -33,32 0,10.67 0,21.33 0,32 -10.67,0 -21.33,0 -32,0 0,-10.67 0,-21.33 0,-32 -10.67,0 -21.33,0 -32,0 -32,21.33 -64,42.67 -96,64 -21.67,-21.33 -43.33,-42.67 -65,-64 -21.33,10.67 -42.67,21.33 -64,32 -10.67,0 -21.33,0 -32,0 -21.33,-21.33 -42.67,-42.67 -64,-64 -21.67,0 -43.33,0 -65,0 -10.67,10.67 -21.33,21.33 -32,32 -21.33,0 -42.67,0 -64,0 0,10.67 0,21.33 0,32 -32.33,32.33 -64.67,64.67 -97,97 0,10.67 0,21.33 0,32 -10.67,-10.67 -21.33,-21.33 -32,-32 0,21.33 0,42.67 0,64 -10.67,0 -21.33,0 -32,0 0,10.67 0,21.33 0,32 -10.67,0 -21.33,0 -32,0 -10.67,32.33 -21.33,64.67 -32,97 -10.84,10.7 -21.4,21.69 -32.42,32.2 -21.53,10.6 -43.05,21.2 -64.58,31.8 0,-10.67 0,-21.33 0,-32 -10.67,-10.67 -21.33,-21.33 -32,-32 -10.67,32 -21.33,64 -32,96 0,-10.67 0,-21.33 0,-32 -10.67,0 -21.33,0 -32,0 -10.67,21.33 -21.33,42.67 -32,64 10.67,10.67 21.33,21.33 32,32 -11.28,22.36 -21.72,45.19 -33.53,67.26 -21.16,31.24 -42.31,62.49 -63.47,93.74 0,10.67 0,21.33 0,32 -21.33,0 -42.67,0 -64,0 0,10.67 0,21.33 0,32 -32,0 -64,0 -96,0 0,11 0,22 0,33 -11,-11 -22,-22 -33,-33 0,21.67 0,43.33 0,65 -10.67,0 -21.33,0 -32,0 0,10.67 0,21.33 0,32 -10.67,0 -21.33,0 -32,0 0,10.67 0,21.33 0,32 0,-10.67 0,-21.33 0,-32 -10.67,10.67 -21.33,21.33 -32,32 -53.67,0 -107.33,0 -161,0 -21.33,-10.67 -42.67,-21.33 -64,-32 -21.33,10.67 -42.67,21.33 -64,32 -21.67,-10.67 -43.33,-21.33 -65,-32 -10.67,10.67 -21.33,21.33 -32,32 -10.67,0 -21.33,0 -32,0 0,10.67 0,21.33 0,32 -10.67,0 -21.33,0 -32,0 0,21.67 0,43.33 0,65 -10.67,0 -21.33,0 -32,0 -11,10.67 -22,21.33 -33,32 -21.33,0 -42.67,0 -64,0 0,10.67 0,21.33 0,32 -10.67,0 -21.33,0 -32,0 -10.67,10.67 -21.33,21.33 -32,32 -75,-43 -150,-86 -225,-129 -53.67,11 -107.33,22 -161,33 -21.33,21.33 -42.67,42.67 -64,64 0,32 0,64 0,96 -21.67,0 -43.33,0 -65,0 11,10.67 22,21.33 33,32 -11,32.33 -22,64.67 -33,97 -75,0 -150,0 -225,0 0,21.33 0,42.67 0,64 -10.67,10.67 -21.33,21.33 -32,32 0,21.67 0,43.33 0,65 -32,32 -64,64 -96,96 10.67,10.67 21.33,21.33 32,32 -43,10.67 -86,21.33 -129,32 -10.67,-21.33 -21.33,-42.67 -32,-64 0,-10.67 0,-21.33 0,-32 -10.67,10.67 -21.33,21.33 -32,32 -10.67,-21.33 -21.33,-42.67 -32,-64 0,-32.33 0,-64.67 0,-97 -32.33,-21.33 -64.67,-42.67 -97,-64 0,-21.33 0,-42.67 0,-64 32.33,0 64.67,0 97,0 10.67,-10.67 21.33,-21.33 32,-32 21.33,0 42.67,0 64,0 0,-11 0,-22 0,-33 21.67,0 43.33,0 65,0 21.33,-10.67 42.67,-21.33 64,-32 0,-10.67 0,-21.33 0,-32 10.67,-10.67 21.33,-21.33 32,-32 0,-21.33 0,-42.67 0,-64 -10.67,-10.67 -21.33,-21.33 -32,-32 0,-11 0,-22 0,-33 10.67,-21.33 21.33,-42.67 32,-64 21.33,-10.67 42.67,-21.33 64,-32 0,-21.33 0,-42.67 0,-64 21.67,-11 43.33,-22 65,-33 0,-21.33 0,-42.67 0,-64 64.33,-64.33 128.67,-128.67 193,-193 0,-64.33 0,-128.67 0,-193 10.67,-10.67 21.33,-21.33 32,-32 0,-75 0,-150 0,-225 -32.33,-10.67 -64.67,-21.33 -97,-32 -10.67,-21.33 -21.33,-42.67 -32,-64 -21.33,0 -42.67,0 -64,0 10.67,-43 21.33,-86 32,-129 -32.33,-32 -64.67,-64 -97,-96 -21.33,0 -42.67,0 -64,0 0.1,-11.15 -0.2,-22.3 0.15,-33.44 10.6,-31.852 21.23,-63.703 31.85,-95.555 -21.33,-32.335 -42.67,-64.665 -64,-97 -10.67,0 -21.33,0 -32,0 0,-10.667 0,-21.333 0,-32 42.67,-21.332 85.33,-42.668 128,-64 0,-10.667 0,-21.333 0,-32 21.92,-21.075 43.59,-42.405 65,-64 0,-107.333 0,-214.667 0,-322 10.67,0 21.33,0 32,0 0,-43 0,-86 0,-129 -10.67,0 -21.33,0 -32,0 -32.39,-31.941 -64.94,-63.723 -97,-96 10.67,-10.665 21.33,-21.335 32,-32 0,-21.667 0,-43.333 0,-65 21.67,0 43.33,0 65,0 0,-10.667 0,-21.333 0,-32 0,10.667 0,21.333 0,32 10.67,0 21.33,0 32,0 21.33,-10.668 42.67,-21.332 64,-32 0,-21.333 0,-42.667 0,-64 -10.67,-10.665 -21.33,-21.335 -32,-32 21.33,-21.335 42.67,-42.665 64,-64 0,-11 0,-22 0,-33 -32,-32 -64,-64 -96,-96 21.33,-10.668 42.67,-21.332 64,-32 10.67,-32.332 21.33,-64.668 32,-97 -10.67,-10.665 -21.33,-21.335 -32,-32 -10.67,0 -21.33,0 -32,0 10.67,0 21.33,0 32,0 0,-10.667 0,-21.333 0,-32 -10.67,-10.665 -21.33,-21.335 -32,-32 10.67,0 21.33,0 32,0 -10.67,-21.332 -21.33,-42.668 -32,-64 21.33,10.668 42.67,21.332 64,32 11,-10.667 22,-21.333 33,-32 -43,-43 -86,-86 -129,-129 10.67,-10.665 21.33,-21.335 32,-32 -10.67,0 -21.33,0 -32,0 10.67,-10.665 21.33,-21.335 32,-32 0,-21.667 0,-43.333 0,-65 -32,-32 -64,-64 -96,-96 10.81,-21.424 21.3,-43.013 32.32,-64.333 10.57,-10.884 21.12,-21.778 31.68,-32.667 0,-21.333 0,-42.667 0,-64 -10.67,-10.665 -21.33,-21.335 -32,-32 0,-10.667 0,-21.333 0,-32 -10.67,0 -21.33,0 -32,0 0,-10.667 0,-21.333 0,-32 10.67,-10.665 21.33,-21.335 32,-32 21.33,32.002 42.67,63.998 64,96 32.33,10.668 64.67,21.332 97,32 10.67,-10.665 21.33,-21.335 32,-32 10.67,0 21.33,0 32,0 21.33,-21.335 42.67,-42.665 64,-64 21.67,0 43.33,0 65,0 10.67,-10.665 21.33,-21.335 32,-32 0,-32.333 0,-64.667 0,-97 21.33,-21.335 42.67,-42.665 64,-64 0,-10.667 0,-21.333 0,-32 10.67,-21.665 21.33,-43.335 32,-65 -10.67,-10.665 -21.33,-21.335 -32,-32 -21.33,0 -42.67,0 -64,0 -21.67,-10.666 -43.33,-21.334 -65,-32 -10.81,-21.424 -21.3,-43.013 -32.32,-64.333 -10.57,-10.884 -21.12,-21.778 -31.68,-32.667 -10.67,-63.999 -21.33,-128.001 -32,-192 -21.33,-11.001 -42.67,-21.999 -64,-33 -32.33,0 -64.67,0 -97,0 10.67,-21.332 21.33,-42.668 32,-64 -10.67,-10.665 -21.33,-21.335 -32,-32 -21.33,0 -42.67,0 -64,0 -10.67,10.665 -21.33,21.335 -32,32 -11,0 -22,0 -33,0 0,-10.667 0,-21.333 0,-32 -10.67,-21.332 -21.33,-42.668 -32,-64 -21.33,0 -42.67,0 -64,0 -32,-21.667 -64,-43.333 -96,-65 21.33,-42.668 42.67,-85.332 64,-128 -21.33,-21.668 -42.67,-43.332 -64,-65 -42.9,21.868 -85.89,43.545 -129,65 -10.67,0 -21.33,0 -32,0 0,-21.667 0,-43.333 0,-65 -32.33,0 -64.67,0 -97,0 11,-32 22,-64 33,-96 -11,-21.333 -22,-42.667 -33,-64 -21.33,-11.001 -42.67,-21.999 -64,-33 -32,11 -64,22 -96,33 -53.67,-10.999 -107.33,-22.001 -161,-33 -21.67,-10.666 -43.33,-21.334 -65,-32 0,-42.667 0,-85.333 0,-128 -21.33,0 -42.67,0 -64,0 -32,-21.667 -64,-43.333 -96,-65 -32.33,0 -64.67,0 -97,0 -21.33,-10.668 -42.67,-21.332 -64,-32 21.33,-21.335 42.67,-42.665 64,-64 10.67,10.665 21.33,21.335 32,32 11,0 22,0 33,0 21.33,-32.002 42.67,-63.998 64,-96 -10.67,-21.665 -21.33,-43.335 -32,-65 -21.67,0 -43.33,0 -65,0 32.33,-21.335 64.67,-42.665 97,-64 21.33,-43.001 42.67,-85.999 64,-129 10.67,-10.665 21.33,-21.335 32,-32 -21.33,-21.335 -42.67,-42.665 -64,-64 10.67,-31.999 21.33,-64.001 32,-96 -10.84,-11.03 -21.39,-22.35 -32.41,-33.207 -22.92,-11.75 -46.35,-22.559 -68.92,-34.971 -51.89,-30.938 -103.78,-61.883 -155.67,-92.822 10.67,-32.332 21.33,-64.668 32,-97 0,-42.667 0,-85.333 0,-128 43,-75 86,-150 129,-225 0,-21.667 0,-43.333 0,-65 -21.67,-21.331 -43.33,-42.669 -65,-64 -32,0 -64,0 -96,0 0,-10.667 0,-21.333 0,-32 10.67,-21.332 21.33,-42.668 32,-64 -32,-21.667 -64,-43.333 -96,-65 10.67,-10.665 21.33,-21.335 32,-32 75,-21.333 150,-42.667 225,-64 10.67,-10.665 21.33,-21.335 32,-32 -21.33,-43.001 -42.67,-85.999 -64,-129 -32.33,10.668 -64.67,21.332 -97,32 -21.33,-10.668 -42.67,-21.332 -64,-32 0,-10.667 0,-21.333 0,-32 43,-32.333 86,-64.667 129,-97 10.67,0 21.33,0 32,0 0,-10.667 0,-21.333 0,-32 -10.84,-10.703 -21.4,-21.686 -32.42,-32.205 -21.52,-10.603 -43.05,-21.198 -64.58,-31.795 -10.67,-10.665 -21.33,-21.335 -32,-32 10.79,-11.232 22.58,-21.672 32.72,-33.419 21.43,-42.523 42.85,-85.055 64.28,-127.581 21.33,-21.335 42.67,-42.665 64,-64 10.67,0 21.33,0 32,0 10.67,-21.665 21.33,-43.335 32,-65 43,-21.333 86,-42.667 129,-64 42.67,-42.998 85.33,-86.002 128,-129 -42.67,-42.665 -85.33,-85.335 -128,-128 -43,10.667 -86,21.333 -129,32 -10.67,-10.665 -21.33,-21.335 -32,-32 -10.67,10.665 -21.33,21.335 -32,32 -10.78,-11.228 -22.57,-21.666 -32.71,-33.409 -10.43,-20.864 -20.86,-41.728 -31.29,-62.591 10.67,-21.665 21.33,-43.335 32,-65 -10.67,-21.332 -21.33,-42.668 -32,-64 21.33,-21.335 42.67,-42.665 64,-64 10.67,-21.665 21.33,-43.335 32,-65 0,-21.333 0,-42.667 0,-64 -10.67,0 -21.33,0 -32,0 0,-10.667 0,-21.333 0,-32 32,-10.667 64,-21.333 96,-32 0,-10.667 0,-21.333 0,-32 -21.57,-32.978 -43.68,-65.624 -64.9,-98.816 -10.37,-20.727 -20.73,-41.456 -31.1,-62.184 -21.33,10.668 -42.67,21.332 -64,32 0,-21.333 0,-42.667 0,-64 32,-21.667 64,-43.333 96,-65 10.67,-21.332 21.33,-42.668 32,-64 97.87,-32.21 195.59,-64.856 293.41,-97.22 30.92,-10.415 61.7,-21.25 92.59,-31.78 10.84,-10.703 21.4,-21.686 32.42,-32.205 21.52,-10.603 43.05,-21.198 64.58,-31.795 21.33,-42.668 42.67,-85.332 64,-128 29.13,-15.416 59.13,-29.275 87.11,-46.779 45.96,-27.406 91.93,-54.813 137.89,-82.221 10.67,-42.999 21.33,-86.001 32,-129 0,-10.667 0,-21.333 0,-32 -11.23,-10.781 -21.66,-22.572 -33.4,-32.704 -20.87,-10.433 -41.73,-20.865 -62.6,-31.296 -54.25,21.688 -108.68,42.957 -162.82,64.909 -20.73,10.362 -41.45,20.729 -62.18,31.091 -21.67,0 -43.33,0 -65,0 -11.52,11.064 -22.18,23.116 -34.27,33.519 -63.58,42.489 -127.15,84.989 -190.73,127.481 -53.67,10.666 -107.33,21.334 -161,32 -21.33,-10.668 -42.67,-21.332 -64,-32 -32,32.333 -64,64.667 -96,97 -43,21.333 -86,42.667 -129,64 -21.33,0 -42.67,0 -64,0 -10.67,-32.332 -21.33,-64.668 -32,-97 0,-21.333 0,-42.667 0,-64 -11,0 -22,0 -33,0 -32,-21.333 -64,-42.667 -96,-64 21.33,-32.335 42.67,-64.665 64,-97 0,-42.667 0,-85.333 0,-128 -42.67,0 -85.33,0 -128,0 0,-10.667 0,-21.333 0,-32 10.67,-10.998 21.33,-22.002 32,-33 10.67,-31.999 21.33,-64.001 32,-96 0,-21.333 0,-42.667 0,-64 21.33,-11.001 42.67,-21.999 64,-33 0,-32 0,-64 0,-96 -10.67,0 -21.33,0 -32,0 -10.67,-10.665 -21.33,-21.335 -32,-32 21.33,-10.668 42.67,-21.332 64,-32 -10.67,-21.665 -21.33,-43.335 -32,-65 21.33,-10.668 42.67,-21.332 64,-32 0,-32 0,-64 0,-96 -10.67,-10.665 -21.33,-21.335 -32,-32 -10.67,0 -21.33,0 -32,0 -21.13,-43.101 -42.46,-86.103 -64,-129 32,-32 64,-64 96,-96 21.19,-43.404 42.68,-86.667 65.33,-129.328 10.56,-10.554 21.11,-21.116 31.67,-31.672 0,-21.667 0,-43.333 0,-65 10.67,-10.665 21.33,-21.335 32,-32 0,-21.333 0,-42.667 0,-64 32,-10.667 64,-21.333 96,-32 10.67,-10.665 21.33,-21.335 32,-32 21.67,0 43.33,0 65,0 21.33,10.668 42.67,21.332 64,32 10.67,0 21.33,0 32,0 10.67,-10.665 21.33,-21.335 32,-32 10.67,0 21.33,0 32,0 11,-10.667 22,-21.333 33,-32 32,-11 64,-22 96,-33 10.67,-10.665 21.33,-21.335 32,-32 21.67,0 43.33,0 65,0 21.33,-21.335 42.67,-42.665 64,-64 21.33,-10.668 42.67,-21.332 64,-32 21.67,-42.999 43.33,-86.001 65,-129 0,-21.333 0,-42.667 0,-64 -43.1,-21.129 -86.1,-42.459 -129,-64 -75,32 -150,64 -225,96 -21.67,0 -43.33,0 -65,0 -32,21.333 -64,42.667 -96,64 -75.49,-10.599 -150.93,-21.739 -226.45,-32 -10.18,0 -20.37,0 -30.55,0 -10.67,21.332 -21.33,42.668 -32,64 -32.33,11.001 -64.67,21.999 -97,33 10.64,-53.827 21.51,-107.608 32,-161.464 0,-21.179 0,-42.357 0,-63.536 21.87,-42.897 43.54,-85.896 65,-129 -21.67,-31.998 -43.33,-64.002 -65,-96 32.43,-21.803 64.99,-43.403 97.33,-65.328 21.22,-21.225 42.45,-42.446 63.67,-63.672 -10.81,-21.424 -21.3,-43.013 -32.32,-64.333 -20.97,-21.803 -42.19,-43.37 -63.68,-64.667 0,-42.667 0,-85.333 0,-128 10.67,-10.998 21.33,-22.002 32,-33 0,-21.333 0,-42.667 0,-64 -10.67,-21.332 -21.33,-42.668 -32,-64 21.33,-10.668 42.67,-21.332 64,-32 0,-43 0,-86 0,-129 -11.23,-10.781 -21.66,-22.572 -33.4,-32.704 -20.87,-10.433 -41.73,-20.865 -62.6,-31.296 0,-10.667 0,-21.333 0,-32 -11,0 -22,0 -33,0 21.67,-32.332 43.33,-64.668 65,-97 21.33,-10.668 42.67,-21.332 64,-32 21.33,-21.335 42.67,-42.665 64,-64 -10.67,-21.665 -21.33,-43.335 -32,-65 -21.33,0 -42.67,0 -64,0 0,-10.667 0,-21.333 0,-32 -21.33,-10.668 -42.67,-21.332 -64,-32 21.33,-53.668 42.67,-107.332 64,-161 -10.67,-21.332 -21.33,-42.668 -32,-64 21.33,-21.335 42.67,-42.665 64,-64 10.67,-32.332 21.33,-64.668 32,-97 10.67,-10.665 21.33,-21.335 32,-32 10.81,-0.1 21.63,0.195 32.44,-0.145 33.66,-10.881 67.07,-22.566 100.88,-32.934 41.23,-10.307 82.45,-20.615 123.68,-30.921 64.33,0 128.67,0 193,0 11,-32.333 22,-64.667 33,-97 -11,-21.333 -22,-42.667 -33,-64 11,-21.333 22,-42.667 33,-64 -11,-21.667 -22,-43.333 -33,-65 -33.55,11.783 -67.44,22.679 -100.78,35.037 -73.4,31.322 -146.81,62.641 -220.22,93.963 -43,-10.667 -86,-21.333 -129,-32 0,-53.667 0,-107.333 0,-161 10.67,-21.332 21.33,-42.668 32,-64 0,-10.667 0,-21.333 0,-32 -10.67,-21.665 -21.33,-43.335 -32,-65 -21.33,-21.335 -42.67,-42.665 -64,-64 -32,0 -64,0 -96,0 -11,10.667 -22,21.333 -33,32 -10.67,-10.665 -21.33,-21.335 -32,-32 0,-10.667 0,-21.333 0,-32 10.67,-10.665 21.33,-21.335 32,-32 0,-21.667 0,-43.333 0,-65 11,-10.667 22,-21.333 33,-32 -11,-21.333 -22,-42.667 -33,-64 -32,-21.333 -64,-42.667 -96,-64 -10.67,0 -21.33,0 -32,0 -21.67,-10.666 -43.33,-21.334 -65,-32 -10.67,-21.665 -21.33,-43.335 -32,-65 -10.67,10.665 -21.33,21.335 -32,32 -10.67,-10.665 -21.33,-21.335 -32,-32 10.67,-10.665 21.33,-21.335 32,-32 0,-21.333 0,-42.667 0,-64 43,-10.667 86,-21.333 129,-32 0,-11 0,-22 0,-33 -10.81,-0.1 -21.63,0.195 -32.44,-0.145 -32.19,-10.613 -64.37,-21.238 -96.56,-31.855 -10.81,-0.1 -21.63,0.195 -32.44,-0.145 -32.19,-10.613 -64.37,-21.238 -96.56,-31.855 11.15,-21.42 21.97,-43.016 33.33,-64.328 10.56,-10.554 21.11,-21.116 31.67,-31.672 -21.67,-32.332 -43.33,-64.668 -65,-97 -10.67,0 -21.33,0 -32,0 21.67,-10.666 43.33,-21.334 65,-32 10.67,-31.999 21.33,-64.001 32,-96 -10.67,-10.998 -21.33,-22.002 -32,-33 0,-21.333 0,-42.667 0,-64 -32.33,-10.668 -64.67,-21.332 -97,-32 10.67,-10.665 21.33,-21.335 32,-32 0,-21.333 0,-42.667 0,-64 -10.67,-10.998 -21.33,-22.002 -32,-33 21.33,-10.668 42.67,-21.332 64,-32 0.1,-10.812 -0.2,-21.628 0.15,-32.438 10.94,-31.856 21.9,-63.708 32.85,-95.562 0,-21.667 0,-43.333 0,-65 10.67,-21.332 21.33,-42.668 32,-64 -10.67,-21.332 -21.33,-42.668 -32,-64 -21.67,-10.666 -43.33,-21.334 -65,-32 0,-11 0,-22 0,-33 -10.67,-21.332 -21.33,-42.668 -32,-64 21.33,-10.668 42.67,-21.332 64,-32 -10.67,-10.665 -21.33,-21.335 -32,-32 0,-10.667 0,-21.333 0,-32 -21.33,-21.668 -42.67,-43.332 -64,-65 0,-21.333 0,-42.667 0,-64 21.33,-10.668 42.67,-21.332 64,-32 10.67,0 21.33,0 32,0 0,-21.333 0,-42.667 0,-64 32.33,-32.335 64.67,-64.665 97,-97 21.33,-10.668 42.67,-21.332 64,-32 10.79,-11.232 22.58,-21.676 32.72,-33.422 10.77,-21.19 21.52,-42.385 32.28,-63.578 42.67,-10.666 85.33,-21.334 128,-32 22.46,-0.252 44.98,0.515 67.4,-0.401 63.2,-10.535 126.4,-21.066 189.6,-31.599 53.67,-21.332 107.33,-42.668 161,-64 32.33,0 64.67,0 97,0 32,-32.333 64,-64.667 96,-97 0,-21.333 0,-42.667 0,-64 -10.67,-21.332 -21.33,-42.668 -32,-64 -32.33,0 -64.67,0 -97,0 -21.33,21.335 -42.67,42.665 -64,64 -42.67,10.666 -85.33,21.334 -128,32 -43.1,-21.129 -86.1,-42.459 -129,-64 -32,-10.667 -64,-21.333 -96,-32 -43,21.333 -86,42.667 -129,64 -21.33,0 -42.67,0 -64,0 -32.39,-31.941 -64.94,-63.723 -97,-96 -21.33,10.668 -42.67,21.332 -64,32 -21.67,-32.332 -43.33,-64.668 -65,-97 11,-21.333 22,-42.667 33,-64 -11,-21.333 -22,-42.667 -33,-64 11,-10.667 22,-21.333 33,-32 21.33,10.668 42.67,21.332 64,32 10.67,-10.665 21.33,-21.335 32,-32 0,-21.667 0,-43.333 0,-65 21.33,-10.668 42.67,-21.332 64,-32 11,-21.333 22,-42.667 33,-64 -11,-10.667 -22,-21.333 -33,-32 0,-10.667 0,-21.333 0,-32 21.67,-10.999 43.33,-22.001 65,-33 0,-10.667 0,-21.333 0,-32 -21.67,-10.666 -43.33,-21.334 -65,-32 -21.33,-21.335 -42.67,-42.665 -64,-64 -32,10.667 -64,21.333 -96,32 -11,-10.667 -22,-21.333 -33,-32 23.95,-11.461 47.39,-24.028 71.7,-34.703 51.43,-20.765 102.87,-41.531 154.3,-62.297 32,-53.333 64,-106.667 96,-160 21.33,-11.001 42.67,-21.999 64,-33 -0.1,-21.48 0.2,-42.961 -0.15,-64.44 -10.6,-31.857 -21.23,-63.708 -31.85,-95.56 -10.79,-11.557 -22.54,-22.368 -32.71,-34.409 -10.43,-20.864 -20.86,-41.728 -31.29,-62.591 0,-21.333 0,-42.667 0,-64 21.33,-10.668 42.67,-21.332 64,-32 21.67,10.666 43.33,21.334 65,32 21.33,-10.668 42.67,-21.332 64,-32 32,0 64,0 96,0 53.82,32.036 107.55,64.239 161.43,96.171 53.52,21.279 107.05,42.552 160.57,63.829 21.33,-10.668 42.67,-21.332 64,-32 32.33,10.668 64.67,21.332 97,32 32.16,-10.662 64.25,-21.535 96.46,-32.065 74.85,-10.646 149.69,-21.29 224.54,-31.935 0,-32 0,-64 0,-96 -10.67,-10.665 -21.33,-21.335 -32,-32 -10.81,-0.101 -21.63,0.201 -32.44,-0.149 -32.19,-10.95 -64.37,-21.902 -96.56,-32.851 -10.67,-10.665 -21.33,-21.335 -32,-32 -21.33,10.668 -42.67,21.332 -64,32 -32.33,0 -64.67,0 -97,0 -10.67,-21.332 -21.33,-42.668 -32,-64 -21.33,10.668 -42.67,21.332 -64,32 -10.67,10.665 -21.33,21.335 -32,32 -43.1,-21.129 -86.1,-42.459 -129,-64 -10.67,-21.332 -21.33,-42.668 -32,-64 0,-10.667 0,-21.333 0,-32 -21.33,-21.668 -42.67,-43.332 -64,-65 -21.67,0 -43.33,0 -65,0 -21.33,-10.668 -42.67,-21.332 -64,-32 -10.81,-0.1 -21.63,0.197 -32.44,-0.147 -32.3,-10.917 -64.81,-21.301 -96.98,-32.557 -42.53,-21.102 -85.05,-42.197 -127.58,-63.296 -53.67,10.666 -107.33,21.334 -161,32 -21.33,-10.668 -42.67,-21.332 -64,-32 -43,0 -86,0 -129,0 -21.33,10.668 -42.67,21.332 -64,32 -10.67,0 -21.33,0 -32,0 -10.79,-11.232 -22.58,-21.676 -32.72,-33.422 -10.77,-21.19 -21.52,-42.385 -32.28,-63.578 -32,-10.667 -64,-21.333 -96,-32 -53.67,0 -107.33,0 -161,0 -10.67,-21.332 -21.33,-42.668 -32,-64 -32,-10.667 -64,-21.333 -96,-32 -22.18,-21.339 -44.27,-42.818 -65.15,-65.44 -10.6,-31.857 -21.23,-63.708 -31.85,-95.56 0,-64.333 0,-128.667 0,-193 -32,-21.333 -64,-42.667 -96,-64 0,-53.667 0,-107.333 0,-161 -21.67,-10.666 -43.33,-21.334 -65,-32 -10.81,-0.1 -21.63,0.197 -32.44,-0.147 -31.85,-10.616 -63.71,-21.234 -95.56,-31.853 -21.67,-32.332 -43.33,-64.668 -65,-97 -10.67,-42.666 -21.33,-85.334 -32,-128 0,-21.667 0,-43.333 0,-65 z"
         id="path68" />
    </g>
  </g>
</svg>
