<?xml version="1.0" encoding="UTF-8" standalone="no"?>
<!-- Created with Inkscape (http://www.inkscape.org/) -->

<svg
   xmlns:dc="http://purl.org/dc/elements/1.1/"
   xmlns:cc="http://creativecommons.org/ns#"
   xmlns:rdf="http://www.w3.org/1999/02/22-rdf-syntax-ns#"
   xmlns:svg="http://www.w3.org/2000/svg"
   xmlns="http://www.w3.org/2000/svg"
   xmlns:sodipodi="http://sodipodi.sourceforge.net/DTD/sodipodi-0.dtd"
   xmlns:inkscape="http://www.inkscape.org/namespaces/inkscape"
   width="20.049463mm"
   height="25.094982mm"
   viewBox="0 0 20.049463 25.094982"
   version="1.1"
   id="svg571"
   inkscape:version="0.92.5 (2060ec1f9f, 2020-04-08)"
   sodipodi:docname="ce.svg">
  <defs
     id="defs565" />
  <sodipodi:namedview
     id="base"
     pagecolor="#ffffff"
     bordercolor="#666666"
     borderopacity="1.0"
     inkscape:pageopacity="0.0"
     inkscape:pageshadow="2"
     inkscape:zoom="0.35"
     inkscape:cx="-236.39696"
     inkscape:cy="-126.86212"
     inkscape:document-units="mm"
     inkscape:current-layer="layer1"
     showgrid="false"
     inkscape:window-width="1366"
     inkscape:window-height="704"
     inkscape:window-x="0"
     inkscape:window-y="0"
     inkscape:window-maximized="1" />
  <metadata
     id="metadata568">
    <rdf:RDF>
      <cc:Work
         rdf:about="">
        <dc:format>image/svg+xml</dc:format>
        <dc:type
           rdf:resource="http://purl.org/dc/dcmitype/StillImage" />
        <dc:title></dc:title>
      </cc:Work>
    </rdf:RDF>
  </metadata>
  <g
     inkscape:label="Layer 1"
     inkscape:groupmode="layer"
     id="layer1"
     transform="translate(-135.11812,-90.172747)">
    <g
       transform="matrix(9.9994773e-4,0,0,9.9994773e-4,-24.713412,49.332191)"
       id="Ceara">
      <path
         inkscape:connector-curvature="0"
         style="fill:#999999;stroke:#ffffff;stroke-width:282.23678589;stroke-miterlimit:4;stroke-dasharray:none;stroke-opacity:1"
         d="m 160014,43760 c 0,-21.333 0,-42.667 0,-64 21.33,-21.668 42.67,-43.332 64,-65 0,-10.667 0,-21.333 0,-32 21.38,-53.395 42.69,-106.82 64.11,-160.198 96.63,-171.6 193.26,-343.201 289.89,-514.802 0,-32 0,-64 0,-96 10.67,-21.665 21.33,-43.335 32,-65 53.33,-53.335 106.67,-106.665 160,-160 0,-21.667 0,-43.333 0,-65 21.67,0 43.33,0 65,0 0,-10.667 0,-21.333 0,-32 21.33,-10.668 42.67,-21.332 64,-32 0,-32 0,-64 0,-96 -10.67,0 -21.33,0 -32,0 10.67,-21.665 21.33,-43.335 32,-65 0,-10.667 0,-21.333 0,-32 10.67,-21.332 21.33,-42.668 32,-64 -10.67,-10.665 -21.33,-21.335 -32,-32 10.67,0 21.33,0 32,0 -10.67,-21.665 -21.33,-43.335 -32,-65 0,-21.333 0,-42.667 0,-64 -21.33,-32.002 -42.67,-63.998 -64,-96 0,-21.667 0,-43.333 0,-65 -43,0 -86,0 -129,0 -32,-21.333 -64,-42.667 -96,-64 0,-10.667 0,-21.333 0,-32 -10.67,0 -21.33,0 -32,0 0,-43 0,-86 0,-129 75,-42.667 150,-85.333 225,-128 10.67,-10.998 21.33,-22.002 32,-33 21.33,-10.668 42.67,-21.332 64,-32 43,10.667 86,21.333 129,32 64.33,0 128.67,0 193,0 21.33,-10.668 42.67,-21.332 64,-32 85.67,10.667 171.33,21.333 257,32 32.33,11.001 64.67,21.999 97,33 10.67,-10.998 21.33,-22.002 32,-33 10.67,10.998 21.33,22.002 32,33 43.08,-0.02 86.15,0.04 129.23,-0.03 85.59,-10.992 171.18,-21.981 256.77,-32.971 21.41,-10.671 42.77,-21.459 64.22,-32.055 42.93,-10.647 85.85,-21.298 128.78,-31.945 21.33,-10.668 42.67,-21.332 64,-32 64.33,0 128.67,0 193,0 10.67,-21.332 21.33,-42.668 32,-64 10.67,10.665 21.33,21.335 32,32 32.33,0 64.67,0 97,0 0,-10.667 0,-21.333 0,-32 10.67,10.665 21.33,21.335 32,32 10.67,-10.665 21.33,-21.335 32,-32 10.67,10.665 21.33,21.335 32,32 10.67,0 21.33,0 32,0 10.67,31.999 21.33,64.001 32,96 21.67,-10.666 43.33,-21.334 65,-32 21.33,0 42.67,0 64,0 32.33,-10.668 64.67,-21.332 97,-32 32,-32 64,-64 96,-96 139.33,0 278.67,0 418,0 21.33,-11.001 42.67,-21.999 64,-33 43,11 86,22 129,33 85.67,-11 171.33,-22 257,-33 32.33,-10.668 64.67,-21.332 97,-32 10.67,-10.665 21.33,-21.335 32,-32 53.33,-21.334 106.67,-42.666 160,-64 21.67,-21.665 43.33,-43.335 65,-65 0,-21.333 0,-42.667 0,-64 32,-10.667 64,-21.333 96,-32 64.33,32.001 128.67,63.999 193,96 32.33,11.001 64.67,21.999 97,33 96.33,0 192.67,0 289,0 75,-11 150,-22 225,-33 64.33,11.001 128.67,21.999 193,33 43,0 86,0 129,0 0,-11 0,-22 0,-33 65.25,11.208 130.53,22.214 195.75,33.551 52.42,10.481 104.83,20.967 157.25,31.449 -10.67,-10.665 -21.33,-21.335 -32,-32 53.67,31.999 107.33,64.001 161,96 10.67,10.665 21.33,21.335 32,32 32.33,-10.668 64.67,-21.332 97,-32 0,-10.667 0,-21.333 0,-32 53.33,0 106.67,0 160,0 32.33,10.668 64.67,21.332 97,32 0,10.667 0,21.333 0,32 53.67,0 107.33,0 161,0 32,10.667 64,21.333 96,32 10.67,-10.665 21.33,-21.335 32,-32 -21.33,0 -42.67,0 -64,0 10.67,-10.665 21.33,-21.335 32,-32 53.67,32.332 107.33,64.668 161,97 21.33,0 42.67,0 64,0 -21.33,-11.001 -42.67,-21.999 -64,-33 -21.67,0 -43.33,0 -65,0 21.67,0 43.33,0 65,0 53.67,21.666 107.33,43.334 161,65 -21.67,-10.666 -43.33,-21.334 -65,-32 43,10.667 86,21.333 129,32 10.67,21.332 21.33,42.668 32,64 32,10.667 64,21.333 96,32 11,0 22,0 33,0 10.67,10.665 21.33,21.335 32,32 21.33,0 42.67,0 64,0 85.68,64.432 171.35,128.888 257.2,193.1 21.65,10.689 43.36,21.279 64.98,32.037 42.6,32.29 85.21,64.577 127.82,96.863 32.33,10.668 64.67,21.332 97,32 42.67,42.998 85.33,86.002 128,129 10.67,0 21.33,0 32,0 32.33,21.335 64.67,42.665 97,64 43,0 86,0 129,0 21.33,10.668 42.67,21.332 64,32 29.89,30.03 60.16,59.694 89.48,90.281 3.05,2.155 4.81,7.335 9.02,6.719 9.83,0 19.67,0 29.5,0 21.67,-10.999 43.33,-22.001 65,-33 21.33,11.001 42.67,21.999 64,33 31.83,47.68 63.46,95.503 95.74,142.88 11.12,16.439 22.25,32.876 33.42,49.283 10.61,10.945 21.23,21.89 31.84,32.837 21.33,0 42.67,0 64,0 33.02,21.711 65.91,43.646 99.02,65.214 52.66,31.597 105.32,63.189 157.98,94.786 53.67,21.666 107.33,43.334 161,65 32.33,42.668 64.67,85.332 97,128 42.81,10.724 85.64,21.363 128.43,32.142 32.19,10.623 64.38,21.239 96.57,31.858 32,32.333 64,64.667 96,97 21.33,10.668 42.67,21.332 64,32 32.33,-10.668 64.67,-21.332 97,-32 32,10.667 64,21.333 96,32 43,43 86,86 129,129 10.67,0 21.33,0 32,0 42.89,21.547 85.9,42.863 129,64 42.67,0 85.33,0 128,0 29.74,29.426 59.86,58.467 89.05,88.436 13.66,13.935 27.48,27.728 41,41.787 63.98,74.593 127.97,149.183 191.95,223.777 32,53.333 64,106.667 96,160 10.67,0 21.33,0 32,0 0,11 0,22 0,33 32.33,21.335 64.67,42.665 97,64 43,0 86,0 129,0 10.67,31.999 21.33,64.001 32,96 32,43 64,86 96,129 32.33,21.335 64.67,42.665 97,64 0,-10.667 0,-21.333 0,-32 21.33,21.668 42.67,43.332 64,65 21.33,0 42.67,0 64,0 21.67,-10.999 43.33,-22.001 65,-33 10.67,0 21.33,0 32,0 10.67,-10.665 21.33,-21.335 32,-32 21.33,0 42.67,0 64,0 53.67,32.332 107.33,64.668 161,97 21.33,42.668 42.67,85.332 64,128 21.33,10.668 42.67,21.332 64,32 0,21.667 0,43.333 0,65 11,0 22,0 33,0 10.67,42.666 21.33,85.334 32,128 21.33,21.668 42.67,43.332 64,65 32.33,0 64.67,0 97,0 53.33,53.335 106.67,106.665 160,160 32.33,11.001 64.67,21.999 97,33 32,0 64,0 96,0 10.99,11.121 22.26,21.982 33.07,33.275 53.31,63.907 106.62,127.817 159.93,191.725 10.67,21.332 21.33,42.668 32,64 32.33,32.002 64.67,63.998 97,96 21.33,0 42.67,0 64,0 43,21.667 86,43.333 129,65 75,75 150,150 225,225 32,10.667 64,21.333 96,32 43,0 86,0 129,0 21.33,10.668 42.67,21.332 64,32 21.33,0 42.67,0 64,0 42.95,21.045 85.79,42.306 128.53,63.767 5.03,4.607 9.61,9.827 14.47,14.671 6,6.187 12,12.375 18,18.562 10.67,0 21.33,0 32,0 21.67,10.666 43.33,21.334 65,32 32,0 64,0 96,0 10.67,10.665 21.33,21.335 32,32 21.67,-10.666 43.33,-21.334 65,-32 21.33,0 42.67,0 64,0 0,-21.667 0,-43.333 0,-65 -10.67,-10.665 -21.33,-21.335 -32,-32 21.33,21.668 42.67,43.332 64,65 53.67,96.332 107.33,192.668 161,289 0,10.667 0,21.333 0,32 53.7,75.068 107.44,150.11 161.12,225.193 53.48,85.822 106.8,171.748 160.4,257.492 32.16,42.775 64.32,85.545 96.48,128.315 43,32 86,64 129,96 31.93,32.405 63.74,64.925 96,97 -21.33,-10.668 -42.67,-21.332 -64,-32 10.67,10.665 21.33,21.335 32,32 10.67,0 21.33,0 32,0 0,-10.667 0,-21.333 0,-32 32,0 64,0 96,0 11.03,10.742 22.15,21.391 33.13,32.189 21.58,32.245 42.93,64.648 64.65,96.795 42.41,53.336 84.82,106.676 127.22,160.016 11.14,10.923 22.54,21.607 33.52,32.686 31.88,42.821 63.7,85.691 95.64,128.475 10.65,10.687 21.38,21.29 31.97,32.028 64.55,96.1 128.63,192.505 192.87,288.811 10.69,11.078 21.49,22.052 32.11,33.197 42.97,74.932 85.93,149.867 128.89,224.803 43,21.333 86,42.667 129,64 75.23,85.868 150.35,171.848 225.65,257.65 53.39,53.279 106.28,107.059 159.54,160.475 32.27,21.291 64.54,42.583 96.81,63.875 118,118 236,236 354,354 43.06,32.231 86,64.622 129.13,96.756 63.96,42.743 127.91,85.497 191.87,128.244 21.33,0 42.67,0 64,0 43,32.333 86,64.667 129,97 32,0 64,0 96,0 21.67,10.666 43.33,21.334 65,32 10.67,-10.665 21.33,-21.335 32,-32 10.67,42.666 21.33,85.334 32,128 -10.67,0 -21.33,0 -32,0 21.36,32.406 42.78,64.772 64.1,97.203 36.36,72.745 72.69,145.503 109.39,218.079 6.5,12.907 13.01,25.813 19.51,38.718 32,32 64,64 96,96 21.67,10.666 43.33,21.334 65,32 10.85,11.317 21.96,22.397 32.64,33.863 31.85,42.426 63.63,84.903 95.52,127.299 29.38,29.682 58.36,59.754 88.28,88.898 13.93,13.656 27.72,27.465 41.78,40.989 74.59,63.983 149.18,127.969 223.78,191.951 42.67,21.332 85.33,42.668 128,64 43,10.667 86,21.333 129,32 64.22,-32.222 128.64,-64.054 193,-96 32,32 64,64 96,96 0,10.667 0,21.333 0,32 21.67,0 43.33,0 65,0 85.67,42.999 171.33,86.001 257,129 53.67,10.666 107.33,21.334 161,32 21.33,10.668 42.67,21.332 64,32 10.67,10.665 21.33,21.335 32,32 0,-10.667 0,-21.333 0,-32 0,10.667 0,21.333 0,32 21.67,0 43.33,0 65,0 21.39,11.055 42.82,22.022 64.18,33.136 42.61,31.956 85.21,63.911 127.82,95.864 21.69,32.407 43.45,64.77 65.1,97.203 10.65,21.343 21.39,42.638 31.96,64.016 21.35,74.996 42.64,150.008 64.03,224.992 21.63,53.6 43.27,107.194 64.91,160.789 -11,10.667 -22,21.333 -33,32 -171.6,36.679 -343.25,73.069 -514.8,109.969 -128.4,27.676 -256.8,55.354 -385.2,83.031 -32.15,10.689 -64.27,21.479 -96.44,32.106 -267.85,64.299 -535.71,128.595 -803.56,192.894 -21.67,64.411 -43.42,128.796 -65.04,193.223 -10.65,53.259 -21.31,106.517 -31.96,159.777 -32,86 -64,172 -96,258 -53.67,21.332 -107.33,42.668 -161,64 -21.33,21.335 -42.67,42.665 -64,64 -10.67,42.999 -21.33,86.001 -32,129 -53.67,53.665 -107.33,107.335 -161,161 -10.67,85.666 -21.33,171.334 -32,257 -21.67,31.998 -43.33,64.002 -65,96 0,21.667 0,43.333 0,65 11,10.667 22,21.333 33,32 0,21.333 0,42.667 0,64 -11,32.333 -22,64.667 -33,97 0,21.333 0,42.667 0,64 11,21.333 22,42.667 33,64 0,10.667 0,21.333 0,32 -11,0 -22,0 -33,0 -18.32,18.939 -36.63,37.89 -55.4,56.386 -13.77,13.693 -27.36,27.593 -41.28,41.124 -42.77,31.833 -85.55,63.66 -128.32,95.49 -21.33,10.668 -42.67,21.332 -64,32 -10.67,32.332 -21.33,64.668 -32,97 0,10.667 0,21.333 0,32 -10.67,10.665 -21.33,21.335 -32,32 10.67,32.332 21.33,64.668 32,97 -10.72,21.39 -21.35,42.827 -32.14,64.182 -32.28,42.942 -64.57,85.88 -96.86,128.818 0,21.408 0.1,42.815 0,64.223 -10.65,53.592 -21.31,107.184 -31.96,160.777 -10.67,10.665 -21.33,21.335 -32,32 -10.67,21.332 -21.33,42.668 -32,64 -21.33,10.668 -42.67,21.332 -64,32 -21.67,0 -43.33,0 -65,0 -21.33,43.001 -42.67,85.999 -64,129 -21.72,10.937 -43.57,21.632 -65.22,32.723 -53.26,31.762 -106.52,63.518 -159.78,95.277 0,11 0,22 0,33 -10.67,10.665 -21.33,21.335 -32,32 0,21.333 0,42.667 0,64 -21.67,21.331 -43.33,42.669 -65,64 -32,64.333 -64,128.667 -96,193 -32.33,11.001 -64.67,21.999 -97,33 -42.67,42.665 -85.33,85.335 -128,128 0,43 0,86 0,129 -10.67,31.999 -21.33,64.001 -32,96 0,21.333 0,42.667 0,64 21.33,-10.668 42.67,-21.332 64,-32 21.33,0 42.67,0 64,0 0,10.667 0,21.333 0,32 21.67,0 43.33,0 65,0 -30.92,61.485 -62.12,122.827 -92.56,184.552 -12.15,24.482 -24.3,48.964 -36.44,73.448 -53.67,53.331 -107.33,106.669 -161,160 0,11 0,22 0,33 -21.33,21.335 -42.67,42.665 -64,64 10.67,21.332 21.33,42.668 32,64 -21.33,64.334 -42.67,128.666 -64,193 -21.67,21.331 -43.33,42.669 -65,64 -10.67,21.665 -21.33,43.335 -32,65 -21.33,21.335 -42.67,42.665 -64,64 0,32.333 0,64.667 0,97 -21.33,10.668 -42.67,21.332 -64,32 -10.67,0 -21.33,0 -32,0 -11,10.667 -22,21.333 -33,32 -21.33,10.668 -42.67,21.332 -64,32 -64.33,53.669 -128.67,107.331 -193,161 -10.67,21.332 -21.33,42.668 -32,64 0,53.667 0,107.333 0,161 -10.67,10.665 -21.33,21.335 -32,32 -10.67,0 -21.33,0 -32,0 -21.67,21.331 -43.33,42.669 -65,64 0,10.667 0,21.333 0,32 -21.33,0 -42.67,0 -64,0 -21.33,21.668 -42.67,43.332 -64,65 -21.33,-10.668 -42.67,-21.332 -64,-32 -32.33,0 -64.67,0 -97,0 -10.67,-21.665 -21.33,-43.335 -32,-65 0,21.667 0,43.333 0,65 -32.33,21.335 -64.67,42.665 -97,64 -10.67,-10.665 -21.33,-21.335 -32,-32 -10.67,-21.665 -21.33,-43.335 -32,-65 0,-10.667 0,-21.333 0,-32 -10.67,0 -21.33,0 -32,0 0,-21.333 0,-42.667 0,-64 -10.67,10.665 -21.33,21.335 -32,32 -10.67,-10.665 -21.33,-21.335 -32,-32 -11,10.667 -22,21.333 -33,32 -10.67,0 -21.33,0 -32,0 -32,32.333 -64,64.667 -96,97 -21.33,10.668 -42.67,21.332 -64,32 10.67,21.332 21.33,42.668 32,64 -21.67,21.331 -43.33,42.669 -65,64 -10.67,0 -21.33,0 -32,0 -10.71,32.398 -21.34,64.822 -32.1,97.203 -10.64,21.265 -21.27,42.53 -31.9,63.797 0,10.667 0,21.333 0,32 -43,43 -86,86 -129,129 0,21.333 0,42.667 0,64 -42.67,10.666 -85.33,21.334 -128,32 0,32.333 0,64.667 0,97 10.67,10.665 21.33,21.335 32,32 0,10.667 0,21.333 0,32 -10.67,10.665 -21.33,21.335 -32,32 -10.67,21.665 -21.33,43.335 -32,65 -21.67,-10.999 -43.33,-22.001 -65,-33 -10.67,32.332 -21.33,64.668 -32,97 -10.67,10.665 -21.33,21.335 -32,32 -21.33,10.668 -42.67,21.332 -64,32 0,10.667 0,21.333 0,32 10.67,0 21.33,0 32,0 0,32.333 0,64.667 0,97 -21.67,21.331 -43.33,42.669 -65,64 0,21.333 0,42.667 0,64 11,32.333 22,64.667 33,97 21.33,10.668 42.67,21.332 64,32 -10.67,10.665 -21.33,21.335 -32,32 -10.67,0 -21.33,0 -32,0 0,21.333 0,42.667 0,64 -21.67,0 -43.33,0 -65,0 0,11 0,22 0,33 -10.67,10.665 -21.33,21.335 -32,32 -10.67,0 -21.33,0 -32,0 10.67,10.665 21.33,21.335 32,32 21.33,0 42.67,0 64,0 0,10.667 0,21.333 0,32 64.33,0 128.67,0 193,0 21.67,-10.666 43.33,-21.334 65,-32 21.33,21.335 42.67,42.665 64,64 -10.67,0 -21.33,0 -32,0 -53.67,42.998 -107.33,86.002 -161,129 0,21.333 0,42.667 0,64 -21.33,10.668 -42.67,21.332 -64,32 0,32.333 0,64.667 0,97 -45.07,44.813 -90.33,89.443 -135.28,134.377 -19.24,19.539 -38.48,39.084 -57.72,58.623 -10.67,21.332 -21.33,42.668 -32,64 10.67,10.665 21.33,21.335 32,32 -21.33,32.335 -42.67,64.665 -64,97 0,10.667 0,21.333 0,32 -11,10.667 -22,21.333 -33,32 0,10.667 0,21.333 0,32 -21.33,10.668 -42.67,21.332 -64,32 21.33,21.668 42.67,43.332 64,65 0,21.333 0,42.667 0,64 -42.67,42.665 -85.33,85.335 -128,128 0,21.667 0,43.333 0,65 21.33,10.668 42.67,21.332 64,32 0,21.333 0,42.667 0,64 -10.67,10.665 -21.33,21.335 -32,32 -21.33,11.001 -42.67,21.999 -64,33 10.67,0 21.33,0 32,0 -10.67,0 -21.33,0 -32,0 -10.67,31.999 -21.33,64.001 -32,96 0,10.739 -0.1,21.478 0.1,32.216 10.65,32.26 21.29,64.522 31.93,96.784 10.67,10.665 21.33,21.335 32,32 0,21.333 0,42.667 0,64 10.67,10.665 21.33,21.335 32,32 0,21.333 0,42.667 0,64 21.33,0 42.67,0 64,0 10.67,21.665 21.33,43.335 32,65 21.67,10.666 43.33,21.334 65,32 0,21.333 0,42.667 0,64 -21.67,-10.666 -43.33,-21.334 -65,-32 -21.33,0 -42.67,0 -64,0 10.67,10.665 21.33,21.335 32,32 0,10.667 0,21.333 0,32 -21.33,11.001 -42.67,21.999 -64,33 -33.88,33.891 -67.69,67.852 -101.95,101.365 -9.02,8.878 -18.03,17.756 -27.05,26.635 11,10.667 22,21.333 33,32 0,11 0,22 0,33 -11,10.667 -22,21.333 -33,32 0,10.667 0,21.333 0,32 -10.67,10.665 -21.33,21.335 -32,32 -21.33,10.668 -42.67,21.332 -64,32 -21.33,0 -42.67,0 -64,0 0,21.333 0,42.667 0,64 -32.33,0 -64.67,0 -97,0 0,11 0,22 0,33 -43,10.667 -86,21.333 -129,32 -10.67,10.665 -21.33,21.335 -32,32 10.67,10.665 21.33,21.335 32,32 0,21.333 0,42.667 0,64 11,21.667 22,43.333 33,65 -21.67,10.666 -43.33,21.334 -65,32 10.67,21.332 21.33,42.668 32,64 21.67,0 43.33,0 65,0 0,10.667 0,21.333 0,32 10.67,10.665 21.33,21.335 32,32 -10.67,0 -21.33,0 -32,0 -10.67,21.665 -21.33,43.335 -32,65 -11,0 -22,0 -33,0 -10.67,10.665 -21.33,21.335 -32,32 10.67,10.665 21.33,21.335 32,32 11,0 22,0 33,0 32.25,21.43 64.37,43.056 96.7,64.361 21.1,10.878 42.2,21.761 63.3,32.639 11,0 22,0 33,0 32,10.667 64,21.333 96,32 0,21.333 0,42.667 0,64 32.33,10.668 64.67,21.332 97,32 0,10.667 0,21.333 0,32 -11,21.667 -22,43.333 -33,65 18.93,18.311 37.87,36.611 56.36,55.36 13.55,13.545 27.1,27.092 40.64,40.64 0,10.739 0.1,21.478 -0.1,32.216 -10.7,32.323 -21.29,64.679 -32.03,96.987 -10.64,21.265 -21.27,42.53 -31.9,63.797 -11,10.667 -22,21.333 -33,32 0,43 0,86 0,129 -10.67,10.665 -21.33,21.335 -32,32 10.67,10.665 21.33,21.335 32,32 -10.67,10.665 -21.33,21.335 -32,32 0,21.667 0,43.333 0,65 32.33,-11.001 64.67,-21.999 97,-33 32,0 64,0 96,0 10.67,10.998 21.33,22.002 32,33 21.67,0 43.33,0 65,0 10.67,10.665 21.33,21.335 32,32 -10.67,21.332 -21.33,42.668 -32,64 10.67,10.665 21.33,21.335 32,32 0,21.333 0,42.667 0,64 21.33,11.001 42.67,21.999 64,33 10.67,10.665 21.33,21.335 32,32 21.33,10.668 42.67,21.332 64,32 43,-21.333 86,-42.667 129,-64 10.67,10.665 21.33,21.335 32,32 -10.67,10.665 -21.33,21.335 -32,32 10.67,21.332 21.33,42.668 32,64 10.67,0 21.33,0 32,0 0,21.333 0,42.667 0,64 11,32.333 22,64.667 33,97 -11,21.333 -22,42.667 -33,64 -10.67,10.665 -21.33,21.335 -32,32 0,43 0,86 0,129 -21.33,21.335 -42.67,42.665 -64,64 -21.33,32.335 -42.67,64.665 -64,97 -11,32 -22,64 -33,96 -10.67,10.665 -21.33,21.335 -32,32 -10.67,21.665 -21.33,43.335 -32,65 21.33,0 42.67,0 64,0 0,32 0,64 0,96 -21.33,0 -42.67,0 -64,0 0,10.667 0,21.333 0,32 -10.67,10.665 -21.33,21.335 -32,32 0,11 0,22 0,33 -64.33,10.668 -128.67,21.332 -193,32 0,10.667 0,21.333 0,32 10.67,10.665 21.33,21.335 32,32 10.67,21.332 21.33,42.668 32,64 -21.33,21.668 -42.67,43.332 -64,65 -10.67,21.332 -21.33,42.668 -32,64 10.67,10.665 21.33,21.335 32,32 -21.33,0 -42.67,0 -64,0 10.67,10.665 21.33,21.335 32,32 0,21.667 0,43.333 0,65 -10.67,10.665 -21.33,21.335 -32,32 10.67,10.665 21.33,21.335 32,32 -10.67,10.665 -21.33,21.335 -32,32 0,10.667 0,21.333 0,32 -32.33,10.668 -64.67,21.332 -97,32 -10.67,10.998 -21.33,22.002 -32,33 -32,0 -64,0 -96,0 -10.67,10.665 -21.33,21.335 -32,32 0,32 0,64 0,96 -11,10.667 -22,21.333 -33,32 0,21.667 0,43.333 0,65 -10.67,0 -21.33,0 -32,0 -21.33,10.668 -42.67,21.332 -64,32 10.67,10.665 21.33,21.335 32,32 -10.67,10.665 -21.33,21.335 -32,32 -10.67,21.332 -21.33,42.668 -32,64 -21.67,0 -43.33,0 -65,0 -21.33,11.001 -42.67,21.999 -64,33 -10.67,-10.998 -21.33,-22.002 -32,-33 0,11 0,22 0,33 -10.67,10.665 -21.33,21.335 -32,32 -43,0 -86,0 -129,0 0,-10.667 0,-21.333 0,-32 -10.67,0 -21.33,0 -32,0 -10.67,21.332 -21.33,42.668 -32,64 21.33,10.668 42.67,21.332 64,32 0,21.333 0,42.667 0,64 -10.67,32.332 -21.33,64.668 -32,97 -53.67,0 -107.33,0 -161,0 -21.33,-10.668 -42.67,-21.332 -64,-32 -21.33,21.335 -42.67,42.665 -64,64 0,32 0,64 0,96 -21.67,10.999 -43.33,22.001 -65,33 -10.67,-10.998 -21.33,-22.002 -32,-33 -21.33,0 -42.67,0 -64,0 0,21.667 0,43.333 0,65 -10.67,0 -21.33,0 -32,0 -10.67,-10.665 -21.33,-21.335 -32,-32 -11,10.667 -22,21.333 -33,32 -10.67,0 -21.33,0 -32,0 0,21.333 0,42.667 0,64 -10.67,21.332 -21.33,42.668 -32,64 10.67,21.665 21.33,43.335 32,65 -21.33,42.668 -42.67,85.332 -64,128 -10.67,10.665 -21.33,21.335 -32,32 0,21.667 0,43.333 0,65 -21.33,0 -42.67,0 -64,0 -11,10.667 -22,21.333 -33,32 -32,-10.667 -64,-21.333 -96,-32 0,-10.739 0.1,-21.478 -0.1,-32.216 -10.65,-32.26 -21.29,-64.522 -31.93,-96.784 -10.67,0 -21.33,0 -32,0 -10.67,10.665 -21.33,21.335 -32,32 -43,-10.667 -86,-21.333 -129,-32 -21.33,32.335 -42.67,64.665 -64,97 -43,32 -86,64 -129,96 -10.67,-10.665 -21.33,-21.335 -32,-32 21.33,-21.335 42.67,-42.665 64,-64 -10.67,-21.665 -21.33,-43.335 -32,-65 0,-21.333 0,-42.667 0,-64 -10.67,-42.999 -21.33,-86.001 -32,-129 -10.67,-21.332 -21.33,-42.668 -32,-64 0,-21.333 0,-42.667 0,-64 -32.33,-21.668 -64.67,-43.332 -97,-65 -10.67,-31.999 -21.33,-64.001 -32,-96 -21.33,-10.668 -42.67,-21.332 -64,-32 -43,0 -86,0 -129,0 -21.33,-32.335 -42.67,-64.665 -64,-97 -32.33,-10.668 -64.67,-21.332 -97,-32 -21.33,10.668 -42.67,21.332 -64,32 -21.33,0 -42.67,0 -64,0 -10.67,10.665 -21.33,21.335 -32,32 -21.67,0 -43.33,0 -65,0 10.67,-10.665 21.33,-21.335 32,-32 0,-32 0,-64 0,-96 -32,-10.667 -64,-21.333 -96,-32 0,-10.667 0,-21.333 0,-32 -10.67,-10.998 -21.33,-22.002 -32,-33 -10.67,10.998 -21.33,22.002 -32,33 -43,0 -86,0 -129,0 0,-21.667 0,-43.333 0,-65 10.67,-10.665 21.33,-21.335 32,-32 0,-32 0,-64 0,-96 16.79,-17.311 33.45,-34.753 50.8,-51.511 15.4,-15.163 30.8,-30.326 46.2,-45.489 10.67,0 21.33,0 32,0 -10.67,-10.665 -21.33,-21.335 -32,-32 -10.67,0 -21.33,0 -32,0 -11.03,-10.742 -22.15,-21.391 -33.13,-32.19 -21.29,-32.267 -42.58,-64.54 -63.87,-96.81 -10.67,-42.666 -21.33,-85.334 -32,-128 0,-10.667 0,-21.333 0,-32 -21.33,-11.001 -42.67,-21.999 -64,-33 -61.77,-61.338 -123.69,-122.519 -185.16,-184.149 -4.18,-4.122 -8.12,-8.52 -13.05,-11.772 -41.26,-31.029 -82.53,-62.052 -123.79,-93.079 -10.67,0 -21.33,0 -32,0 -64.22,-32.222 -128.64,-64.054 -193,-96 -10.74,-0.04 -21.48,0.07 -32.22,-0.06 -42.93,-10.982 -85.85,-21.964 -128.78,-32.944 -21.33,-21.335 -42.67,-42.665 -64,-64 -10.67,-21.332 -21.33,-42.668 -32,-64 -21.67,-21.331 -43.33,-42.669 -65,-64 -10.67,0 -21.33,0 -32,0 -42.8,-32.409 -85.55,-64.882 -128.38,-97.25 -32.21,-21.246 -64.41,-42.502 -96.62,-63.75 -21.33,-21.335 -42.67,-42.665 -64,-64 -21.33,-32.335 -42.67,-64.665 -64,-97 -11,0 -22,0 -33,0 -10.67,-10.665 -21.33,-21.335 -32,-32 -32,0 -64,0 -96,0 -32.33,-21.335 -64.67,-42.665 -97,-64 -21.33,-21.668 -42.67,-43.332 -64,-65 -10.74,0.05 -21.48,-0.1 -32.22,0.07 -31.93,10.646 -63.85,21.286 -95.78,31.928 -32.41,0.02 -64.81,-0.04 -97.22,0.03 -75.28,11.079 -150.59,22.012 -225.86,33.181 -53.3,10.596 -106.61,21.191 -159.92,31.786 -64.33,0 -128.67,0 -193,0 -32,-10.667 -64,-21.333 -96,-32 -10.67,10.665 -21.33,21.335 -32,32 -53.67,21.332 -107.33,42.668 -161,64 -21.33,-10.668 -42.67,-21.332 -64,-32 -11,0 -22,0 -33,0 -75,85.667 -150,171.333 -225,257 -32,10.667 -64,21.333 -96,32 -43,-10.667 -86,-21.333 -129,-32 -21.33,21.335 -42.67,42.665 -64,64 -85.67,0 -171.33,0 -257,0 -118.8,21.862 -237.64,43.54 -356.43,65.516 -149.19,31.832 -298.38,63.657 -447.57,95.484 -43,-64.333 -86,-128.667 -129,-193 -10.67,-10.665 -21.33,-21.335 -32,-32 -21.33,0 -42.67,0 -64,0 -43,-21.333 -86,-42.667 -129,-64 -85.67,21.332 -171.33,42.668 -257,64 -203.67,0 -407.33,0 -611,0 -75,10.667 -150,21.333 -225,32 21.33,-85.667 42.67,-171.333 64,-257 -10.67,-21.332 -21.33,-42.668 -32,-64 43,-21.667 86,-43.333 129,-65 10.67,-21.332 21.33,-42.668 32,-64 -10.67,-42.999 -21.33,-86.001 -32,-129 10.75,-85.945 21.32,-171.917 32.16,-257.847 10.62,-53.051 21.23,-106.101 31.84,-159.153 10.67,-10.998 21.33,-22.002 32,-33 0,-21.333 0,-42.667 0,-64 21.67,-64.332 43.33,-128.668 65,-193 -11,-21.333 -22,-42.667 -33,-64 32.33,-43.002 64.67,-85.998 97,-129 0,-10.667 0,-21.333 0,-32 21.33,-10.668 42.67,-21.332 64,-32 21.67,-42.999 43.33,-86.001 65,-129 0,-10.667 0,-21.333 0,-32 21.33,-21.335 42.67,-42.665 64,-64 0,-10.667 0,-21.333 0,-32 -10.67,0 -21.33,0 -32,0 0,-21.667 0,-43.333 0,-65 10.67,10.998 21.33,22.002 32,33 0,-11 0,-22 0,-33 32,-10.667 64,-21.333 96,-32 0,-10.667 0,-21.333 0,-32 -32,-10.667 -64,-21.333 -96,-32 0,-75 0,-150 0,-225 10.67,-21.665 21.33,-43.335 32,-65 -21.33,-53.334 -42.67,-106.666 -64,-160 10.67,-21.665 21.33,-43.335 32,-65 0,-42.667 0,-85.333 0,-128 21.33,-10.668 42.67,-21.332 64,-32 10.67,0 21.33,0 32,0 10.67,-21.665 21.33,-43.335 32,-65 34.13,-33.607 68.35,-67.138 102.12,-101.112 19.62,-19.629 39.25,-39.259 58.88,-58.888 0,-11 0,-22 0,-33 -32,-10.667 -64,-21.333 -96,-32 -21.67,10.666 -43.33,21.334 -65,32 -21.33,21.668 -42.67,43.332 -64,65 -21.33,0 -42.67,0 -64,0 -10.67,-10.665 -21.33,-21.335 -32,-32 -10.67,-32.332 -21.33,-64.668 -32,-97 -11,-10.667 -22,-21.333 -33,-32 -10.67,-32.332 -21.33,-64.668 -32,-97 0,-10.667 0,-21.333 0,-32 -32,-32 -64,-64 -96,-96 -21.67,-10.666 -43.33,-21.334 -65,-32 -42.74,-0.02 -85.48,0.04 -128.22,-0.03 -75.72,-10.814 -151.47,-21.452 -227.18,-32.378 -63.53,-10.865 -127.07,-21.726 -190.6,-32.59 -10.74,-10.697 -21.39,-21.482 -32.19,-32.125 -32.27,-21.291 -64.54,-42.583 -96.81,-63.875 -32,-32 -64,-64 -96,-96 -86,0 -172,0 -258,0 -42.65,-43.015 -85.11,-86.226 -128,-129 21.33,-43.001 42.67,-85.999 64,-129 0,-10.667 0,-21.333 0,-32 -21.33,-21.335 -42.67,-42.665 -64,-64 0,-10.667 0,-21.333 0,-32 -21.33,-53.668 -42.67,-107.332 -64,-161 -64.33,-64.335 -128.67,-128.665 -193,-193 0,-43 0,-86 0,-129 -10.67,-42.666 -21.33,-85.334 -32,-128 0,-75 0,-150 0,-225 -11,-53.667 -22,-107.333 -33,-161 0,-21.333 0,-42.667 0,-64 21.67,-10.999 43.33,-22.001 65,-33 10.67,-53.333 21.33,-106.667 32,-160 0,-53.667 0,-107.333 0,-161 -10.67,-10.665 -21.33,-21.335 -32,-32 -21.67,-10.666 -43.33,-21.334 -65,-32 -10.67,-10.665 -21.33,-21.335 -32,-32 -21.33,-53.668 -42.67,-107.332 -64,-161 -43,-53.667 -86,-107.333 -129,-161 0,-118 0,-236 0,-354 10.67,-31.999 21.33,-64.001 32,-96 -21.33,-43.001 -42.67,-85.999 -64,-129 -21.33,-75.001 -42.67,-149.999 -64,-225 -21.67,-21.331 -43.33,-42.669 -65,-64 -32,10.667 -64,21.333 -96,32 0,-53.667 0,-107.333 0,-161 21.33,-21.335 42.67,-42.665 64,-64 0,-10.667 0,-21.333 0,-32 10.67,-10.665 21.33,-21.335 32,-32 11,-32.333 22,-64.667 33,-97 0,-85.667 0,-171.333 0,-257 -32.33,-32.335 -64.67,-64.665 -97,-97 10.67,-31.999 21.33,-64.001 32,-96 -21.44,-54.068 -43.06,-108.069 -64.39,-162.178 -10.54,-31.607 -21.07,-63.215 -31.61,-94.822 10.67,-53.666 21.33,-107.334 32,-161 -21.21,-85.698 -42.54,-171.365 -64,-257 10.67,-21.665 21.33,-43.335 32,-65 -21.33,-32.002 -42.67,-63.998 -64,-96 -11,-43 -22,-86 -33,-129 -10.67,-21.332 -21.33,-42.668 -32,-64 10.67,-10.665 21.33,-21.335 32,-32 32.33,-10.668 64.67,-21.332 97,-32 10.67,-21.414 21.46,-42.77 32.05,-64.221 10.65,-42.925 21.3,-85.853 31.95,-128.779 -21.55,-42.891 -42.87,-85.9 -64,-129 0,-42.667 0,-85.333 0,-128 -32.33,-21.668 -64.67,-43.332 -97,-65 0,-21.333 0,-42.667 0,-64 -10.67,-21.332 -21.33,-42.668 -32,-64 10.67,-10.665 21.33,-21.335 32,-32 0,-53.667 0,-107.333 0,-161 21.67,-21.331 43.33,-42.669 65,-64 0,-11 0,-22 0,-33 -10.67,-21.332 -21.33,-42.668 -32,-64 -18.72,-18.116 -37.46,-36.213 -55.77,-54.752 -3.22,-3.515 -7.16,-6.534 -9.83,-10.464 -10.47,-21.261 -20.94,-42.521 -31.4,-63.784 0,-10.667 0,-21.333 0,-32 10.67,-10.665 21.33,-21.335 32,-32 32.33,0 64.67,0 97,0 10.67,-10.665 21.33,-21.335 32,-32 -10.82,-21.508 -21.44,-43.128 -32.38,-64.567 -21.54,-32.144 -43.08,-64.287 -64.62,-96.433 -10.67,-10.665 -21.33,-21.335 -32,-32 10.67,-31.999 21.33,-64.001 32,-96 21.67,-10.999 43.33,-22.001 65,-33 10.67,-31.999 21.33,-64.001 32,-96 0,-21.333 0,-42.667 0,-64 -21.33,-10.668 -42.67,-21.332 -64,-32 0,-43 0,-86 0,-129 21.33,-10.668 42.67,-21.332 64,-32 -10.67,-21.665 -21.33,-43.335 -32,-65 -10.67,0 -21.33,0 -32,0 -32.33,-21.335 -64.67,-42.665 -97,-64 32.33,-21.335 64.67,-42.665 97,-64 -11,-43 -22,-86 -33,-129 11,-32 22,-64 33,-96 -11,-21.667 -22,-43.333 -33,-65 -32,0 -64,0 -96,0 -21.33,-32.002 -42.67,-63.998 -64,-96 -10.67,0 -21.33,0 -32,0 -11,10.667 -22,21.333 -33,32 -10.67,-31.999 -21.33,-64.001 -32,-96 -42.67,-21.666 -85.33,-43.334 -128,-65 0,-32 0,-64 0,-96 -21.67,10.666 -43.33,21.334 -65,32 -10.67,-31.999 -21.33,-64.001 -32,-96 -10.67,0 -21.33,0 -32,0 -21.33,21.335 -42.67,42.665 -64,64 -43,-21.333 -86,-42.667 -129,-64 0,-21.667 0,-43.333 0,-65 -10.67,-10.665 -21.33,-21.335 -32,-32 0,-10.667 0,-21.333 0,-32 -10.67,0 -21.33,0 -32,0 0,-21.333 0,-42.667 0,-64 -53.67,0 -107.33,0 -161,0 10.67,-42.999 21.33,-86.001 32,-129 0,-32 0,-64 0,-96 -21.33,-11.001 -42.67,-21.999 -64,-33 0,-21.333 0,-42.667 0,-64 -10.67,0 -21.33,0 -32,0 -10.67,10.665 -21.33,21.335 -32,32 -53.67,-74.998 -107.33,-150.002 -161,-225 -21.67,-10.666 -43.33,-21.334 -65,-32 -10.67,21.332 -21.33,42.668 -32,64 -10.67,-10.665 -21.33,-21.335 -32,-32 0,-10.667 0,-21.333 0,-32 -21.33,0 -42.67,0 -64,0 0,-21.333 0,-42.667 0,-64 -21.33,-32.335 -42.67,-64.665 -64,-97 10.67,-21.332 21.33,-42.668 32,-64 -32.33,-43.002 -64.67,-85.998 -97,-129 21.67,-21.331 43.33,-42.669 65,-64 -11,-53.667 -22,-107.333 -33,-161 21.67,-10.666 43.33,-21.334 65,-32 0,-10.739 -0.1,-21.478 0.1,-32.216 10.65,-31.927 21.29,-63.855 31.93,-95.784 21.33,-11.001 42.67,-21.999 64,-33 0,-10.667 0,-21.333 0,-32 -42.67,-10.666 -85.33,-21.334 -128,-32 -21.67,-10.666 -43.33,-21.334 -65,-32 0,-10.667 0,-21.333 0,-32 21.67,-10.666 43.33,-21.334 65,-32 0,-10.667 0,-21.333 0,-32 10.67,-21.665 21.33,-43.335 32,-65 42.71,-42.73 85.47,-85.413 128.14,-128.177 42.95,-53.61 85.91,-107.214 128.86,-160.823 -10.81,-10.923 -21.85,-21.633 -32.52,-32.685 -32.16,-42.775 -64.32,-85.545 -96.48,-128.315 -42.67,-21.332 -85.33,-42.668 -128,-64 0,-21.667 0,-43.333 0,-65 10.67,-31.999 21.33,-64.001 32,-96 0,-21.333 0,-42.667 0,-64 -21.33,0 -42.67,0 -64,0 -11,-10.667 -22,-21.333 -33,-32 32.33,0 64.67,0 97,0 10.67,-32.332 21.33,-64.668 32,-97 10.67,0 21.33,0 32,0 10.67,-31.999 21.33,-64.001 32,-96 21.67,-21.665 43.33,-43.335 65,-65 0,-42.667 0,-85.333 0,-128 21.33,-32.335 42.67,-64.665 64,-97 0,-53.667 0,-107.333 0,-161 21.33,-42.668 42.67,-85.332 64,-128 0,-53.667 0,-107.333 0,-161 21.67,-21.331 43.33,-42.669 65,-64 21.33,-43.001 42.67,-85.999 64,-129 21.33,-10.668 42.67,-21.332 64,-32 0,-32.075 0,-64.149 0,-96.224 -21.31,-128.593 -42.64,-257.184 -63.96,-385.776 53.67,-85.999 107.33,-172.001 161,-258 21.33,-21.335 42.67,-42.665 64,-64 -43,-10.667 -86,-21.333 -129,-32 -21.33,-10.668 -42.67,-21.332 -64,-32 0,-21.333 0,-42.667 0,-64 -21.33,-32.335 -42.67,-64.665 -64,-97 10.67,-10.665 21.33,-21.335 32,-32 21.33,-64.334 42.67,-128.666 64,-193 -10.67,-21.332 -21.33,-42.668 -32,-64 21.33,-21.668 42.67,-43.332 64,-65 0,-10.667 0,-21.333 0,-32 -10.67,-10.665 -21.33,-21.335 -32,-32 -32,0 -64,0 -96,0 -32.33,-10.668 -64.67,-21.332 -97,-32 -10.67,0 -21.33,0 -32,0 -21.33,-10.668 -42.67,-21.332 -64,-32 0,-10.667 0,-21.333 0,-32 -10.67,10.665 -21.33,21.335 -32,32 -11,-10.667 -22,-21.333 -33,-32 -21.33,10.668 -42.67,21.332 -64,32 -21.33,0 -42.67,0 -64,0 -42.89,21.547 -85.9,42.863 -129,64 -10.67,0 -21.33,0 -32,0 0,-10.667 0,-21.333 0,-32 32.33,-21.335 64.67,-42.665 97,-64 -21.87,-42.896 -43.54,-85.897 -65,-129 10.67,-10.665 21.33,-21.335 32,-32 0,-10.667 0,-21.333 0,-32 11,0 22,0 33,0 0,-10.667 0,-21.333 0,-32 10.67,0 21.33,0 32,0 21.33,-53.668 42.67,-107.332 64,-161 -21.33,-43.001 -42.67,-85.999 -64,-129 -21.67,-21.331 -43.33,-42.669 -65,-64 -21.55,-42.891 -42.87,-85.9 -64,-129 0,-10.667 0,-21.333 0,-32 -21.33,-21.335 -42.67,-42.665 -64,-64 0,-10.739 0.1,-21.478 -0.1,-32.216 -10.65,-32.26 -21.29,-64.522 -31.93,-96.784 -11,0 -22,0 -33,0 0,-10.667 0,-21.333 0,-32 -21.33,21.335 -42.67,42.665 -64,64 0,-10.667 0,-21.333 0,-32 53.67,-53.665 107.33,-107.335 161,-161 21.33,-32.002 42.67,-63.998 64,-96 -21.33,-21.335 -42.67,-42.665 -64,-64 10.67,-53.666 21.33,-107.334 32,-161 10.67,-10.665 21.33,-21.335 32,-32 21.67,0 43.33,0 65,0 0,-10.667 0,-21.333 0,-32 -32.33,-21.668 -64.67,-43.332 -97,-65 -32,0 -64,0 -96,0 -21.67,-21.331 -43.33,-42.669 -65,-64 -53.33,0 -106.67,0 -160,0 -21.67,-10.666 -43.33,-21.334 -65,-32 -10.67,-10.665 -21.33,-21.335 -32,-32 10.67,-10.998 21.33,-22.002 32,-33 10.67,-75 21.33,-150 32,-225 -21.33,-53.334 -42.67,-106.666 -64,-160 -42.95,-21.372 -85.78,-42.969 -128.52,-64.754 -1.11,-2.496 -0.17,-6.257 -0.48,-9.246 0,-7.667 0,-15.333 0,-23 11,-10.667 22,-21.333 33,-32 0,-10.667 0,-21.333 0,-32 42.67,0 85.33,0 128,0 21.67,-32.332 43.33,-64.668 65,-97 0,-53.333 0,-106.667 0,-160 10.67,-10.998 21.33,-22.002 32,-33 32,-10.667 64,-21.333 96,-32 -21.33,0 -42.67,0 -64,0 -21.33,10.668 -42.67,21.332 -64,32 0,-10.74 0.1,-21.48 -0.1,-32.22 -10.98,-42.594 -21.96,-85.187 -32.94,-127.78 -21.33,-21.668 -42.67,-43.332 -64,-65 0,-64 0,-128 0,-192 -64.33,0 -128.67,0 -193,0 -10.67,-21.665 -21.33,-43.335 -32,-65 -10.67,0 -21.33,0 -32,0 0,-53.667 0,-107.333 0,-161 -32.33,11.001 -64.67,21.999 -97,33 0,-11 0,-22 0,-33 11,-21.333 22,-42.667 33,-64 z"
         id="path72" />
    </g>
  </g>
</svg>
