<?xml version="1.0" encoding="UTF-8" standalone="no"?>
<!-- Created with Inkscape (http://www.inkscape.org/) -->

<svg
   xmlns:dc="http://purl.org/dc/elements/1.1/"
   xmlns:cc="http://creativecommons.org/ns#"
   xmlns:rdf="http://www.w3.org/1999/02/22-rdf-syntax-ns#"
   xmlns:svg="http://www.w3.org/2000/svg"
   xmlns="http://www.w3.org/2000/svg"
   xmlns:sodipodi="http://sodipodi.sourceforge.net/DTD/sodipodi-0.dtd"
   xmlns:inkscape="http://www.inkscape.org/namespaces/inkscape"
   width="5.1200147mm"
   height="3.0216503mm"
   viewBox="0 0 5.1200147 3.0216503"
   version="1.1"
   id="svg1066"
   inkscape:version="0.92.5 (2060ec1f9f, 2020-04-08)"
   sodipodi:docname="df.svg">
  <defs
     id="defs1060" />
  <sodipodi:namedview
     id="base"
     pagecolor="#ffffff"
     bordercolor="#666666"
     borderopacity="1.0"
     inkscape:pageopacity="0.0"
     inkscape:pageshadow="2"
     inkscape:zoom="0.35"
     inkscape:cx="172.53276"
     inkscape:cy="397.13876"
     inkscape:document-units="mm"
     inkscape:current-layer="layer1"
     showgrid="false"
     inkscape:window-width="1366"
     inkscape:window-height="704"
     inkscape:window-x="0"
     inkscape:window-y="0"
     inkscape:window-maximized="1" />
  <metadata
     id="metadata1063">
    <rdf:RDF>
      <cc:Work
         rdf:about="">
        <dc:format>image/svg+xml</dc:format>
        <dc:type
           rdf:resource="http://purl.org/dc/dcmitype/StillImage" />
        <dc:title></dc:title>
      </cc:Work>
    </rdf:RDF>
  </metadata>
  <g
     inkscape:label="Layer 1"
     inkscape:groupmode="layer"
     id="layer1"
     transform="translate(-26.922136,-250.88798)">
    <g
       transform="matrix(9.9994773e-4,0,0,9.9994773e-4,-100.40409,147.95148)"
       id="BrasiliaDistritoFederal">
      <path
         inkscape:connector-curvature="0"
         style="fill:#999999;fill-opacity:1;stroke:#ffffff;stroke-width:282.23678589;stroke-miterlimit:4;stroke-dasharray:none;stroke-opacity:1"
         d="m 127474,104691 c 0,-11 0,-22 0,-33 21.67,-32 43.33,-64 65,-96 42.67,-10.67 85.33,-21.33 128,-32 11,-21.33 22,-42.67 33,-64 32,-43 64,-86 96,-129 10.67,0 21.33,0 32,0 10.67,-21.33 21.33,-42.67 32,-64 -10.67,-43 -21.33,-86 -32,-129 -10.67,-21.33 -21.33,-42.67 -32,-64 -21.33,10.67 -42.67,21.33 -64,32 -21.67,-10.67 -43.33,-21.33 -65,-32 0,-32.33 0,-64.67 0,-97 11.01,-42.68 22,-85.36 33.01,-128.04 10.67,-32.32 21.33,-64.64 31.99,-96.96 21.33,-32 42.67,-64 64,-96 21.33,0 42.67,0 64,0 0,-193 0,-386 0,-579 1243.33,0 2486.67,0 3730,0 0,75 0,150 0,225 21.33,0 42.67,0 64,0 21.67,32 43.33,64 65,96 10.67,0 21.33,0 32,0 0,11 0,22 0,33 10.67,10.67 21.33,21.33 32,32 43,0 86,0 129,0 32,10.67 64,21.33 96,32 10.67,0 21.33,0 32,0 10.67,10.67 21.33,21.33 32,32 -10.67,10.67 -21.33,21.33 -32,32 -21.33,53.67 -42.67,107.33 -64,161 10.67,21.33 21.33,42.67 32,64 0,43 0,86 0,129 -10.67,10.67 -21.33,21.33 -32,32 10.67,10.67 21.33,21.33 32,32 10.67,0 21.33,0 32,0 10.67,10.67 21.33,21.33 32,32 0,21.67 0,43.33 0,65 -10.67,21.33 -21.33,42.67 -32,64 0,21.33 0,42.67 0,64 10.67,10.67 21.33,21.33 32,32 0,11 0,22 0,33 -10.67,0 -21.33,0 -32,0 0,21.33 0,42.67 0,64 0,-10.67 0,-21.33 0,-32 0,10.67 0,21.33 0,32 -10.67,10.67 -21.33,21.33 -32,32 0,21.33 0,42.67 0,64 -10.67,0 -21.33,0 -32,0 -10.67,32.33 -21.33,64.67 -32,97 -10.67,10.67 -21.33,21.33 -32,32 0,10.67 0,21.33 0,32 -11,0 -22,0 -33,0 0,21.33 0,42.67 0,64 -10.67,0 -21.33,0 -32,0 -10.67,11 -21.33,22 -32,33 0,42.67 0,85.33 0,128 -10.67,10.67 -21.33,21.33 -32,32 10.67,0 21.33,0 32,0 0,11 0,22 0,33 -10.67,21.33 -21.33,42.67 -32,64 -10.67,0 -21.33,0 -32,0 10.67,0 21.33,0 32,0 0,21.33 0,42.67 0,64 10.67,10.67 21.33,21.33 32,32 -10.67,10.67 -21.33,21.33 -32,32 21.33,0 42.67,0 64,0 -10.67,11 -21.33,22 -32,33 0,10.67 0,21.33 0,32 10.67,0 21.33,0 32,0 0,21.33 0,42.67 0,64 -21.33,0 -42.67,0 -64,0 10.67,10.67 21.33,21.33 32,32 0,21.67 0,43.33 0,65 -10.67,0 -21.33,0 -32,0 0,64 0,128 0,192 10.67,0 21.33,0 32,0 0,11 0,22 0,33 10.67,0 21.33,0 32,0 0,10.67 0,21.33 0,32 21.67,0 43.33,0 65,0 0,10.67 0,21.33 0,32 10.67,0 21.33,0 32,0 0,10.67 0,21.33 0,32 10.67,-10.67 21.33,-21.33 32,-32 10.67,21.33 21.33,42.67 32,64 10.67,0 21.33,0 32,0 0,10.67 0,21.33 0,32 21.67,0 43.33,0 65,0 -11,10.67 -22,21.33 -33,32 11,0 22,0 33,0 0,11 0,22 0,33 -589.67,0 -1179.33,0 -1769,0 -214.33,10.67 -428.67,21.33 -643,32 -728.67,0 -1457.33,0 -2186,0 0,-10.67 0,-21.33 0,-32 10.67,-32.33 21.33,-64.67 32,-97 0,-32 0,-64 0,-96 10.67,-21.67 21.33,-43.33 32,-65 10.67,-32 21.33,-64 32,-96 -10.67,-10.67 -21.33,-21.33 -32,-32 21.33,-21.33 42.67,-42.67 64,-64 0,-32.33 0,-64.67 0,-97 -21.33,-10.67 -42.67,-21.33 -64,-32 -10.67,10.67 -21.33,21.33 -32,32 -10.67,-10.67 -21.33,-21.33 -32,-32 0,-10.67 0,-21.33 0,-32 10.67,0 21.33,0 32,0 0,-21.67 0,-43.33 0,-65 -10.67,0 -21.33,0 -32,0 0,-32 0,-64 0,-96 10.67,-10.67 21.33,-21.33 32,-32 -10.67,-10.67 -21.33,-21.33 -32,-32 -11,-53.67 -22,-107.33 -33,-161 0,-21.33 0,-42.67 0,-64 z"
         id="path80" />
    </g>
  </g>
</svg>
