<?xml version="1.0" encoding="UTF-8" standalone="no"?>
<!-- Created with Inkscape (http://www.inkscape.org/) -->

<svg
   xmlns:dc="http://purl.org/dc/elements/1.1/"
   xmlns:cc="http://creativecommons.org/ns#"
   xmlns:rdf="http://www.w3.org/1999/02/22-rdf-syntax-ns#"
   xmlns:svg="http://www.w3.org/2000/svg"
   xmlns="http://www.w3.org/2000/svg"
   xmlns:sodipodi="http://sodipodi.sourceforge.net/DTD/sodipodi-0.dtd"
   xmlns:inkscape="http://www.inkscape.org/namespaces/inkscape"
   width="10.899219mm"
   height="16.936352mm"
   viewBox="0 0 10.899219 16.936352"
   version="1.1"
   id="svg1201"
   inkscape:version="0.92.5 (2060ec1f9f, 2020-04-08)"
   sodipodi:docname="es.svg">
  <defs
     id="defs1195" />
  <sodipodi:namedview
     id="base"
     pagecolor="#ffffff"
     bordercolor="#666666"
     borderopacity="1.0"
     inkscape:pageopacity="0.0"
     inkscape:pageshadow="2"
     inkscape:zoom="0.35"
     inkscape:cx="9.1683779"
     inkscape:cy="377.71997"
     inkscape:document-units="mm"
     inkscape:current-layer="layer1"
     showgrid="false"
     inkscape:window-width="1366"
     inkscape:window-height="704"
     inkscape:window-x="0"
     inkscape:window-y="0"
     inkscape:window-maximized="1" />
  <metadata
     id="metadata1198">
    <rdf:RDF>
      <cc:Work
         rdf:about="">
        <dc:format>image/svg+xml</dc:format>
        <dc:type
           rdf:resource="http://purl.org/dc/dcmitype/StillImage" />
        <dc:title></dc:title>
      </cc:Work>
    </rdf:RDF>
  </metadata>
  <g
     inkscape:label="Layer 1"
     inkscape:groupmode="layer"
     id="layer1"
     transform="translate(-70.145629,-231.83539)">
    <g
       transform="matrix(9.9994773e-4,0,0,9.9994773e-4,-87.364448,117.22746)"
       id="EspiritoSanto">
      <path
         inkscape:connector-curvature="0"
         style="fill:#999999;stroke:#ffffff;stroke-width:282.23678589;stroke-miterlimit:4;stroke-dasharray:none;stroke-opacity:1"
         d="m 157827,128806 c 0,-43 0,-86 0,-129 21.33,0 42.67,0 64,0 0,10.67 0,21.33 0,32 11,0 22,0 33,0 -11,-32 -22,-64 -33,-96 -10.67,-10.67 -21.33,-21.33 -32,-32 10.67,0 21.33,0 32,0 11,-11 22,-22 33,-33 -11,-10.67 -22,-21.33 -33,-32 11.56,-11.24 23.19,-22.42 34.71,-33.71 10.1,-10.1 20.19,-20.19 30.29,-30.29 0,-10.67 0,-21.33 0,-32 10.67,-10.67 21.33,-21.33 32,-32 10.67,-21.67 21.33,-43.33 32,-65 21.33,-10.67 42.67,-21.33 64,-32 -10.67,-10.67 -21.33,-21.33 -32,-32 10.67,0 21.33,0 32,0 11.56,-11.24 23.19,-22.42 34.71,-33.71 10.1,-10.1 20.19,-20.19 30.29,-30.29 -10.67,-10.67 -21.33,-21.33 -32,-32 0,10.67 0,21.33 0,32 -11,-10.67 -22,-21.33 -33,-32 11,-21.67 22,-43.33 33,-65 -53.67,0 -107.33,0 -161,0 -10.67,-10.67 -21.33,-21.33 -32,-32 0,-10.67 0,-21.33 0,-32 21.33,-21.33 42.67,-42.67 64,-64 0,-21.67 0,-43.33 0,-65 21.33,-32 42.67,-64 64,-96 0,-10.67 0,-21.33 0,-32 10.67,-10.67 21.33,-21.33 32,-32 21.67,0 43.33,0 65,0 0,-21.67 0,-43.33 0,-65 -10.67,-32 -21.33,-64 -32,-96 10.67,-10.67 21.33,-21.33 32,-32 0,-32.33 0,-64.67 0,-97 10.67,-21.33 21.33,-42.67 32,-64 0,-96.67 0,-193.33 0,-290 -53.67,-10.67 -107.33,-21.33 -161,-32 -21.33,-53.33 -42.67,-106.67 -64,-160 0,-11 0,-22 0,-33 -21.67,0 -43.33,0 -65,0 11,-32 22,-64 33,-96 0,-10.67 0,-21.33 0,-32 21.33,-10.67 42.67,-21.33 64,-32 -10.67,-21.67 -21.33,-43.33 -32,-65 21.33,0 42.67,0 64,0 21.33,-21.33 42.67,-42.67 64,-64 21.67,-10.67 43.33,-21.33 65,-32 10.67,-10.67 21.33,-21.33 32,-32 0,-10.67 0,-21.33 0,-32 32,0 64,0 96,0 10.67,-11 21.33,-22 32,-33 -10.67,-10.67 -21.33,-21.33 -32,-32 10.67,-32 21.33,-64 32,-96 11,-10.67 22,-21.33 33,-32 0,-53.67 0,-107.33 0,-161 10.67,-10.67 21.33,-21.33 32,-32 0,-10.67 0,-21.33 0,-32 546.67,0 1093.33,0 1640,0 0,-11 0,-22 0,-33 10.67,-10.67 21.33,-21.33 32,-32 10.67,10.67 21.33,21.33 32,32 32,-21.33 64,-42.67 96,-64 10.67,-32 21.33,-64 32,-96 0,-11 0,-22 0,-33 11,-10.67 22,-21.33 33,-32 10.67,-21.33 21.33,-42.67 32,-64 10.67,-10.67 21.33,-21.33 32,-32 -10.67,0 -21.33,0 -32,0 21.33,-21.33 42.67,-42.67 64,-64 -10.67,-11 -21.33,-22 -32,-33 10.67,-21.33 21.33,-42.67 32,-64 0,-21.33 0,-42.67 0,-64 10.67,-10.67 21.33,-21.33 32,-32 10.67,-32.33 21.33,-64.67 32,-97 0,-10.67 0,-21.33 0,-32 11.56,-11.24 23.19,-22.42 34.71,-33.71 10.1,-10.1 20.19,-20.19 30.29,-30.29 0,-32.33 0,-64.67 0,-97 21.33,-21.33 42.67,-42.67 64,-64 -10.67,-21.33 -21.33,-42.67 -32,-64 0,-11 0,-22 0,-33 -10.67,-21.33 -21.33,-42.67 -32,-64 10.67,-10.67 21.33,-21.33 32,-32 10.67,-43 21.33,-86 32,-129 10.67,-10.67 21.33,-21.33 32,-32 43,0 86,0 129,0 21.33,-10.67 42.67,-21.33 64,-32 10.67,10.67 21.33,21.33 32,32 10.67,0 21.33,0 32,0 21.67,-32 43.33,-64 65,-96 0,-21.33 0,-42.67 0,-64 32,-11 64,-22 96,-33 10.67,11 21.33,22 32,33 32.33,-32.33 64.67,-64.67 97,-97 0,-64.33 0,-128.67 0,-193 10.67,0 21.33,0 32,0 0,-10.67 0,-21.33 0,-32 -10.67,-21.33 -21.33,-42.67 -32,-64 10.67,0 21.33,0 32,0 10.69,-32.37 21.34,-64.77 32.06,-97.13 10.65,-21.29 21.29,-42.58 31.94,-63.87 -21.33,-10.67 -42.67,-21.33 -64,-32 0,-10.67 0,-21.33 0,-32 10.67,0 21.33,0 32,0 -10.67,-21.67 -21.33,-43.33 -32,-65 -21.33,-10.67 -42.67,-21.33 -64,-32 0,-21.33 0,-42.67 0,-64 21.33,-10.67 42.67,-21.33 64,-32 -10.67,-10.67 -21.33,-21.33 -32,-32 10.67,-21.67 21.33,-43.33 32,-65 0,-32 0,-64 0,-96 10.67,-10.67 21.33,-21.33 32,-32 -10.67,-11 -21.33,-22 -32,-33 10.67,-32 21.33,-64 32,-96 10.67,-10.67 21.33,-21.33 32,-32 21.67,0 43.33,0 65,0 21.33,-10.67 42.67,-21.33 64,-32 10.67,-21.67 21.33,-43.33 32,-65 21.33,0 42.67,0 64,0 10.67,-10.67 21.33,-21.33 32,-32 11,-53.67 22,-107.33 33,-161 10.67,0 21.33,0 32,0 10.67,-10.67 21.33,-21.33 32,-32 21.33,0 42.67,0 64,0 0,-21.33 0,-42.67 0,-64 32.33,0 64.67,0 97,0 0,-10.67 0,-21.33 0,-32 32,-10.67 64,-21.33 96,-32 0,-10.67 0,-21.33 0,-32 -11.52,-23.36 -22.97,-46.75 -34.54,-70.08 -9.82,-19.64 -19.64,-39.28 -29.46,-58.92 10.67,-32.33 21.33,-64.67 32,-97 -10.67,-21.33 -21.33,-42.67 -32,-64 0,-21.33 0,-42.67 0,-64 35.56,11.83 71.09,23.74 106.66,35.52 28.78,9.49 57.56,18.99 86.34,28.48 53.67,0 107.33,0 161,0 0,-10.67 0,-21.33 0,-32 32,-43 64,-86 96,-129 0,-10.67 0,-21.33 0,-32 10.67,-10.67 21.33,-21.33 32,-32 -21.33,-10.67 -42.67,-21.33 -64,-32 0,-21.33 0,-42.67 0,-64 -10.67,-11 -21.33,-22 -32,-33 0,-10.67 0,-21.33 0,-32 10.67,-10.67 21.33,-21.33 32,-32 0,-32 0,-64 0,-96 42.67,-32.33 85.33,-64.67 128,-97 0,-10.67 0,-21.33 0,-32 11,-10.67 22,-21.33 33,-32 -21.67,-10.67 -43.33,-21.33 -65,-32 0,-21.67 0,-43.33 0,-65 10.67,-32 21.33,-64 32,-96 11,0 22,0 33,0 10.67,-10.67 21.33,-21.33 32,-32 10.67,0 21.33,0 32,0 10.67,-21.33 21.33,-42.67 32,-64 -10.67,-11 -21.33,-22 -32,-33 -32.33,0 -64.67,0 -97,0 0,-10.67 0,-21.33 0,-32 11,-10.67 22,-21.33 33,-32 -21.67,0 -43.33,0 -65,0 -10.67,-10.67 -21.33,-21.33 -32,-32 21.33,-10.67 42.67,-21.33 64,-32 21.67,0 43.33,0 65,0 0,-32.33 0,-64.67 0,-97 -21.67,-10.67 -43.33,-21.33 -65,-32 -10.67,0 -21.33,0 -32,0 10.67,-10.67 21.33,-21.33 32,-32 -10.67,-10.67 -21.33,-21.33 -32,-32 0,-21.33 0,-42.67 0,-64 10.67,0 21.33,0 32,0 11,-11 22,-22 33,-33 0,-21.33 0,-42.67 0,-64 -11,-10.67 -22,-21.33 -33,-32 11,-10.67 22,-21.33 33,-32 -11,0 -22,0 -33,0 0,-10.67 0,-21.33 0,-32 -10.67,0 -21.33,0 -32,0 0,-21.67 0,-43.33 0,-65 -21.33,-21.33 -42.67,-42.67 -64,-64 10.67,-21.33 21.33,-42.67 32,-64 -21.33,0 -42.67,0 -64,0 0,-21.67 0,-43.33 0,-65 -10.67,-10.67 -21.33,-21.33 -32,-32 -10.67,0 -21.33,0 -32,0 0,-10.67 0,-21.33 0,-32 -11.56,-11.24 -23.19,-22.42 -34.71,-33.71 -10.1,-10.1 -20.19,-20.19 -30.29,-30.29 -32,0 -64,0 -96,0 0,-32.33 0,-64.67 0,-97 -10.67,11 -21.33,22 -32,33 0,-21.67 0,-43.33 0,-65 -11,0 -22,0 -33,0 -10.67,10.67 -21.33,21.33 -32,32 -10.67,-21.33 -21.33,-42.67 -32,-64 -32,0 -64,0 -96,0 0,-21.33 0,-42.67 0,-64 -10.67,0 -21.33,0 -32,0 -11,-10.67 -22,-21.33 -33,-32 11,-21.67 22,-43.33 33,-65 -21.67,-21.33 -43.33,-42.67 -65,-64 10.67,-10.67 21.33,-21.33 32,-32 0,-21.33 0,-42.67 0,-64 21.67,0 43.33,0 65,0 42.67,-32.33 85.33,-64.67 128,-97 10.67,0 21.33,0 32,0 0,-21.33 0,-42.67 0,-64 -10.67,10.67 -21.33,21.33 -32,32 -32,0 -64,0 -96,0 -10.67,-10.67 -21.33,-21.33 -32,-32 0,-10.67 0,-21.33 0,-32 -10.67,0 -21.33,0 -32,0 -11,-21.67 -22,-43.33 -33,-65 0,-10.67 0,-21.33 0,-32 -21.33,0 -42.67,0 -64,0 0,-10.67 0,-21.33 0,-32 -32,-10.67 -64,-21.33 -96,-32 -11,-10.67 -22,-21.33 -33,-32 -10.67,0 -21.33,0 -32,0 0,-21.67 0,-43.33 0,-65 -10.67,-10.67 -21.33,-21.33 -32,-32 -10.67,-21.33 -21.33,-42.67 -32,-64 -21.33,-10.67 -42.67,-21.33 -64,-32 -21.67,0 -43.33,0 -65,0 0,-10.67 0,-21.33 0,-32 -10.67,-21.67 -21.33,-43.33 -32,-65 -10.67,-10.67 -21.33,-21.33 -32,-32 -32,10.67 -64,21.33 -96,32 -11,0 -22,0 -33,0 -21.33,-21.33 -42.67,-42.67 -64,-64 0,32 0,64 0,96 -10.67,11 -21.33,22 -32,33 -21.33,-32.33 -42.67,-64.67 -64,-97 -10.67,0 -21.33,0 -32,0 -11,-10.67 -22,-21.33 -33,-32 11,-10.67 22,-21.33 33,-32 -11,0 -22,0 -33,0 11,-21.33 22,-42.67 33,-64 -11,-21.67 -22,-43.33 -33,-65 21.67,-32 43.33,-64 65,-96 128.67,0 257.33,0 386,0 21.33,-10.67 42.67,-21.33 64,-32 10.67,21.33 21.33,42.67 32,64 10.67,10.67 21.33,21.33 32,32 0,10.67 0,21.33 0,32 21.33,32.33 42.67,64.67 64,97 225.33,0 450.67,0 676,0 21.33,-10.67 42.67,-21.33 64,-32 10.67,-11 21.33,-22 32,-33 10.67,11 21.33,22 32,33 10.91,-11.22 21.77,-22.5 32.71,-33.69 11.36,-11.05 22.79,-22.02 34.1,-33.12 10.06,-10.06 20.13,-20.13 30.19,-30.19 0,-21.33 0,-42.67 0,-64 -21.67,-10.67 -43.33,-21.33 -65,-32 11,-11 22,-22 33,-33 -21.67,-21.33 -43.33,-42.67 -65,-64 0,-75 0,-150 0,-225 -10.67,-64.33 -21.33,-128.67 -32,-193 -10.67,-10.67 -21.33,-21.33 -32,-32 -53.67,-10.67 -107.33,-21.33 -161,-32 -10.67,-10.67 -21.33,-21.33 -32,-32 -21.33,0 -42.67,0 -64,0 -21.67,-21.67 -43.33,-43.33 -65,-65 -21.33,0 -42.67,0 -64,0 10.67,-10.67 21.33,-21.33 32,-32 -10.67,0 -21.33,0 -32,0 0,-10.67 0,-21.33 0,-32 -21.33,10.67 -42.67,21.33 -64,32 10.67,-10.67 21.33,-21.33 32,-32 -21.33,-10.67 -42.67,-21.33 -64,-32 0,-10.67 0,-21.33 0,-32 10.67,0 21.33,0 32,0 11.25,-11.29 22.58,-22.5 33.78,-33.84 10.07,-10.38 20.15,-20.77 30.22,-31.16 0,-10.67 0,-21.33 0,-32 -10.67,-10.67 -21.33,-21.33 -32,-32 10.67,-85.67 21.33,-171.33 32,-257 10.67,0 21.33,0 32,0 0,-32.05 0,-64.1 0,-96.14 10.66,-96.62 21.32,-193.24 31.98,-289.86 0,-21.33 0,-42.67 0,-64 -10.71,0 -21.43,0 -32.14,0 -53.29,-10.66 -106.57,-21.31 -159.86,-31.97 -43.05,0 -86.1,0 -129.14,0 -139.29,-11 -278.57,-21.99 -417.86,-32.99 -10.67,-10.67 -21.33,-21.33 -32,-32 21.33,-32 42.67,-64 64,-96 23.04,-11.49 46.04,-23.07 69.1,-34.51 19.97,-9.83 39.93,-19.66 59.9,-29.49 -32.33,0 -64.67,0 -97,0 0,-43 0,-86 0,-129 21.67,0 43.33,0 65,0 0,-64.33 0,-128.67 0,-193 -11,-10.67 -22,-21.33 -33,-32 0,-43 0,-86 0,-129 11.56,-11.24 23.19,-22.42 34.71,-33.71 31.47,-31.45 62.91,-62.94 94.4,-94.38 53.63,-42.97 107.26,-85.94 160.89,-128.91 -10.67,-10.67 -21.33,-21.33 -32,-32 0,-21.33 0,-42.67 0,-64 10.67,0 21.33,0 32,0 0,-11 0,-22 0,-33 -10.67,-10.67 -21.33,-21.33 -32,-32 0,-10.67 0,-21.33 0,-32 10.67,-10.67 21.33,-21.33 32,-32 0,-21.33 0,-42.67 0,-64 42.67,-21.67 85.33,-43.33 128,-65 21.67,0 43.33,0 65,0 0,-21.33 0,-42.67 0,-64 32,-10.67 64,-21.33 96,-32 -10.67,21.33 -21.33,42.67 -32,64 10.67,0 21.33,0 32,0 10.67,-32 21.33,-64 32,-96 21.67,0 43.33,0 65,0 0,21.33 0,42.67 0,64 32,0 64,0 96,0 10.67,-32 21.33,-64 32,-96 10.67,-11 21.33,-22 32,-33 21.67,11 43.33,22 65,33 10.67,10.67 21.33,21.33 32,32 10.67,0 21.33,0 32,0 0,-43 0,-86 0,-129 10.67,0 21.33,0 32,0 10.67,10.67 21.33,21.33 32,32 10.67,0 21.33,0 32,0 22.43,-22.11 44.91,-44.17 67.31,-66.31 9.9,-9.9 19.79,-19.79 29.69,-29.69 10.67,0 21.33,0 32,0 0,-10.67 0,-21.33 0,-32 10.67,10.67 21.33,21.33 32,32 10.67,-10.67 21.33,-21.33 32,-32 0,21.33 0,42.67 0,64 21.67,0 43.33,0 65,0 21.33,10.67 42.67,21.33 64,32 0,21.33 0,42.67 0,64 10.67,0 21.33,0 32,0 10.67,11 21.33,22 32,33 43,0 86,0 129,0 32,10.67 64,21.33 96,32 11,10.67 22,21.33 33,32 42.67,-10.67 85.33,-21.33 128,-32 -10.67,-75 -21.33,-150 -32,-225 -203.67,-193 -407.33,-386 -611,-579 10.67,-10.67 21.33,-21.33 32,-32 10.67,0 21.33,0 32,0 10.67,-21.67 21.33,-43.33 32,-65 11,21.67 22,43.33 33,65 10.67,0 21.33,0 32,0 10.67,10.67 21.33,21.33 32,32 10.69,-10.71 21.42,-21.38 32.09,-32.11 32.3,-42.97 64.61,-85.93 96.91,-128.89 10.67,0 21.33,0 32,0 10.67,10.67 21.33,21.33 32,32 21.33,-21.33 42.67,-42.67 64,-64 10.67,10.67 21.33,21.33 32,32 11,0 22,0 33,0 10.67,21.33 21.33,42.67 32,64 -10.67,21.67 -21.33,43.33 -32,65 21.33,-10.67 42.67,-21.33 64,-32 10.67,0 21.33,0 32,0 0,10.67 0,21.33 0,32 10.67,0 21.33,0 32,0 -10.67,32 -21.33,64 -32,96 21.33,0 42.67,0 64,0 21.67,10.67 43.33,21.33 65,32 10.67,-10.67 21.33,-21.33 32,-32 42.67,0 85.33,0 128,0 0,21.67 0,43.33 0,65 10.67,10.67 21.33,21.33 32,32 32.33,-21.67 64.67,-43.33 97,-65 10.67,11 21.33,22 32,33 10.67,-11 21.33,-22 32,-33 21.67,11 43.33,22 65,33 10.67,-11 21.33,-22 32,-33 10.67,-21.33 21.33,-42.67 32,-64 32,-10.67 64,-21.33 96,-32 0,-21.33 0,-42.67 0,-64 21.67,-11 43.33,-22 65,-33 -10.67,-10.67 -21.33,-21.33 -32,-32 10.67,-21.33 21.33,-42.67 32,-64 0,-21.33 0,-42.67 0,-64 42.67,0 85.33,0 128,0 0,-32.33 0,-64.67 0,-97 32.33,0 64.67,0 97,0 33.35,-22.21 66.66,-44.48 100.03,-66.66 30.99,-20.45 61.98,-40.89 92.97,-61.34 10.67,0 21.33,0 32,0 21.33,32 42.67,64 64,96 32.33,0 64.67,0 97,0 32,32 64,64 96,96 10.67,-21.33 21.33,-42.67 32,-64 43,10.67 86,21.33 129,32 64.33,0 128.67,0 193,0 0,10.67 0,21.33 0,32 21.33,0 42.67,0 64,0 10.67,-10.67 21.33,-21.33 32,-32 21.33,10.67 42.67,21.33 64,32 11,-10.67 22,-21.33 33,-32 21.33,0 42.67,0 64,0 21.33,21.67 42.67,43.33 64,65 10.67,0 21.33,0 32,0 11,21.33 22,42.67 33,64 21.33,-10.67 42.67,-21.33 64,-32 0,10.67 0,21.33 0,32 32,21.33 64,42.67 96,64 11,0 22,0 33,0 23.02,11.53 46.08,22.99 69.07,34.57 41.01,20.84 82.05,41.65 123.05,62.51 257.37,160.69 514.75,321.37 772.12,482.07 182.25,117.95 364.51,235.9 546.76,353.85 42.67,32 85.33,64 128,96 10.67,10.67 21.33,21.33 32,32 354,225.33 708,450.67 1062,676 21.33,10.67 42.67,21.33 64,32 10.67,10.67 21.33,21.33 32,32 0,32 0,64 0,96 -53.67,107.33 -107.33,214.67 -161,322 0,10.67 0,21.33 0,32 -21.33,75 -42.67,150 -64,225 -21.33,53.67 -42.67,107.33 -64,161 0,139.33 0,278.67 0,418 10.67,21.33 21.33,42.67 32,64 -21.67,64.33 -43.33,128.67 -65,193 -10.68,107.57 -21.4,215.14 -32.06,322.71 -10.65,128.1 -21.29,256.19 -31.94,384.29 0,86 0,172 0,258 21.36,182.14 42.69,364.28 64.06,546.42 32.31,235.91 64.65,471.81 96.95,707.72 10.67,117.62 21.33,235.24 31.99,352.86 21.33,118.05 42.7,236.09 64.01,354.14 11,107.29 21.99,214.57 32.99,321.86 -11,96.33 -22,192.67 -33,289 -53.33,160.67 -106.67,321.33 -160,482 -64.39,150.13 -128.77,300.27 -193.18,450.39 -53.6,117.87 -107.21,235.74 -160.82,353.61 0,32 0,64 0,96 -21.33,11 -42.67,22 -64,33 -32.33,0 -64.67,0 -97,0 -53.71,21.36 -107.43,42.69 -161.13,64.06 -64.29,31.98 -128.58,63.96 -192.87,95.94 -32.03,21.7 -64.09,43.37 -96.11,65.09 -74.99,64.34 -150.01,128.66 -224.99,193.01 -65.11,65.1 -130.2,130.22 -195.32,195.3 -42.19,41.87 -84.39,83.73 -126.58,125.6 -10.67,21.33 -21.33,42.67 -32,64 0,21.67 0,43.33 0,65 -10.67,32 -21.33,64 -32,96 -21.35,32.38 -42.74,64.73 -64.06,97.13 -10.65,21.29 -21.29,42.58 -31.94,63.87 -11,10.67 -22,21.33 -33,32 0,10.67 0,21.33 0,32 -10.67,11 -21.33,22 -32,33 0,21.33 0,42.67 0,64 -32.05,21.35 -64.07,42.74 -96.13,64.06 -21.29,10.65 -42.58,21.29 -63.87,31.94 -11,21.67 -22,43.33 -33,65 0,10.67 0,21.33 0,32 11,10.67 22,21.33 33,32 -11,10.67 -22,21.33 -33,32 -10.67,21.33 -21.33,42.67 -32,64 0,10.67 0,21.33 0,32 -10.67,21.67 -21.33,43.33 -32,65 0,10.71 0,21.43 0,32.14 -10.66,42.95 -21.31,85.91 -31.97,128.86 -43,10.67 -86,21.33 -129,32 -10.67,21.33 -21.33,42.67 -32,64 32.33,32.33 64.67,64.67 97,97 0,53.33 0,106.67 0,160 -21.67,75 -43.33,150 -65,225 0,32.33 0,64.67 0,97 -10.67,10.67 -21.33,21.33 -32,32 0,32 0,64 0,96 -11.52,23.36 -22.97,46.75 -34.54,70.08 -20.49,40.98 -40.97,81.95 -61.46,122.92 -32.33,32.33 -64.67,64.67 -97,97 -10.67,32 -21.33,64 -32,96 0,10.67 0,21.33 0,32 -21.33,11 -42.67,22 -64,33 0,-21.67 0,-43.33 0,-65 -10.67,-21.33 -21.33,-42.67 -32,-64 -21.67,0 -43.33,0 -65,0 -21.33,10.67 -42.67,21.33 -64,32 -10.67,21.33 -21.33,42.67 -32,64 10.67,11 21.33,22 32,33 -10.67,10.67 -21.33,21.33 -32,32 21.33,0 42.67,0 64,0 0,10.67 0,21.33 0,32 -21.33,0 -42.67,0 -64,0 21.33,0 42.67,0 64,0 0,10.67 0,21.33 0,32 -10.67,0 -21.33,0 -32,0 0,21.33 0,42.67 0,64 21.33,-10.67 42.67,-21.33 64,-32 11,0 22,0 33,0 -11,0 -22,0 -33,0 0,10.67 0,21.33 0,32 11,0 22,0 33,0 -11,0 -22,0 -33,0 0,10.67 0,21.33 0,32 11,0 22,0 33,0 -21.67,0 -43.33,0 -65,0 -10.67,32.33 -21.33,64.67 -32,97 -10.67,10.67 -21.33,21.33 -32,32 -32.33,53.67 -64.67,107.33 -97,161 -10.67,42.67 -21.33,85.33 -32,128 0,11 0,22 0,33 -42.68,85.71 -85.39,171.41 -128.05,257.13 -21.65,53.62 -43.3,107.25 -64.95,160.87 0,10.67 0,21.33 0,32 -10.67,0 -21.33,0 -32,0 -10.67,32 -21.33,64 -32,96 -43,64.33 -86,128.67 -129,193 0,32.33 0,64.67 0,97 -32,42.67 -64,85.33 -96,128 -10.67,21.67 -21.33,43.33 -32,65 10.67,0 21.33,0 32,0 -10.67,0 -21.33,0 -32,0 -10.67,10.67 -21.33,21.33 -32,32 0,-10.67 0,-21.33 0,-32 -21.67,0 -43.33,0 -65,0 11,-11 22,-22 33,-33 -11,0 -22,0 -33,0 -21.33,-10.67 -42.67,-21.33 -64,-32 0,10.67 0,21.33 0,32 -10.67,11 -21.33,22 -32,33 10.67,10.67 21.33,21.33 32,32 -10.67,0 -21.33,0 -32,0 0,21.33 0,42.67 0,64 10.67,-10.67 21.33,-21.33 32,-32 -10.67,21.33 -21.33,42.67 -32,64 -10.67,0 -21.33,0 -32,0 0,-10.67 0,-21.33 0,-32 -10.67,-10.67 -21.33,-21.33 -32,-32 -11.56,11.24 -23.19,22.42 -34.71,33.71 -10.1,10.1 -20.19,20.19 -30.29,30.29 -10.67,0 -21.33,0 -32,0 0,10.67 0,21.33 0,32 21.33,-10.67 42.67,-21.33 64,-32 -10.67,10.67 -21.33,21.33 -32,32 10.67,0 21.33,0 32,0 -10.67,0 -21.33,0 -32,0 0,10.67 0,21.33 0,32 -10.67,0 -21.33,0 -32,0 -10.69,32.37 -21.34,64.77 -32.06,97.13 -21.32,42.95 -42.63,85.91 -63.94,128.87 10.67,10.67 21.33,21.33 32,32 -10.67,0 -21.33,0 -32,0 0,10.67 0,21.33 0,32 -11,0 -22,0 -33,0 0,10.67 0,21.33 0,32 -32,0 -64,0 -96,0 -32,43 -64,86 -96,129 -11,21.33 -22,42.67 -33,64 0,10.67 0,21.33 0,32 -10.67,21.33 -21.33,42.67 -32,64 10.67,0 21.33,0 32,0 -10.67,11 -21.33,22 -32,33 -10.67,-11 -21.33,-22 -32,-33 -21.33,11 -42.67,22 -64,33 -21.33,42.67 -42.67,85.33 -64,128 -11,0 -22,0 -33,0 0,10.67 0,21.33 0,32 -10.67,0 -21.33,0 -32,0 0,-21.33 0,-42.67 0,-64 10.67,-10.67 21.33,-21.33 32,-32 -10.71,-10.69 -21.38,-21.43 -32.12,-32.08 -31.96,-21.64 -63.92,-43.28 -95.88,-64.92 10.67,-21.33 21.33,-42.67 32,-64 10.67,-10.67 21.33,-21.33 32,-32 -10.67,10.67 -21.33,21.33 -32,32 -10.67,0 -21.33,0 -32,0 0,10.67 0,21.33 0,32 -10.67,10.67 -21.33,21.33 -32,32 10.67,11 21.33,22 32,33 -21.67,10.67 -43.33,21.33 -65,32 -10.67,0 -21.33,0 -32,0 0,10.67 0,21.33 0,32 -10.67,0 -21.33,0 -32,0 0,10.67 0,21.33 0,32 -10.67,0 -21.33,0 -32,0 -10.67,10.67 -21.33,21.33 -32,32 -10.67,0 -21.33,0 -32,0 -21.67,10.67 -43.33,21.33 -65,32 -10.67,0 -21.33,0 -32,0 0,-10.67 0,-21.33 0,-32 -10.67,0 -21.33,0 -32,0 0,10.67 0,21.33 0,32 0,-10.67 0,-21.33 0,-32 10.67,10.67 21.33,21.33 32,32 0,10.67 0,21.33 0,32 -10.67,0 -21.33,0 -32,0 10.67,-10.67 21.33,-21.33 32,-32 -10.67,0 -21.33,0 -32,0 -21.33,10.67 -42.67,21.33 -64,32 -11.01,11.32 -21.96,22.71 -33.01,34 -21.33,21 -42.66,42 -63.99,63 0,32 0,64 0,96 -21.33,10.67 -42.67,21.33 -64,32 0,21.67 0,43.33 0,65 -32,32 -64,64 -96,96 -11,21.67 -22,43.33 -33,65 0,10.67 0,21.33 0,32 -10.67,32 -21.33,64 -32,96 0,43 0,86 0,129 10.67,21.33 21.33,42.67 32,64 -10.67,0 -21.33,0 -32,0 0,10.71 0,21.43 0,32.14 -10.66,42.95 -21.31,85.91 -31.97,128.86 -21.33,10.67 -42.67,21.33 -64,32 -43,139.33 -86,278.67 -129,418 -43,21.33 -86,42.67 -129,64 -10.67,21.67 -21.33,43.33 -32,65 -32,21.33 -64,42.67 -96,64 -21.38,32.09 -42.79,64.14 -64.14,96.25 -42.95,74.91 -85.91,149.83 -128.86,224.75 -10.67,32.33 -21.33,64.67 -32,97 0,75 0,150 0,225 -10.67,0 -21.33,0 -32,0 0,-10.67 0,-21.33 0,-32 -10.67,0 -21.33,0 -32,0 0,-10.67 0,-21.33 0,-32 -11,0 -22,0 -33,0 0,-10.67 0,-21.33 0,-32 -10.67,10.67 -21.33,21.33 -32,32 -10.67,0 -21.33,0 -32,0 -10.67,-10.67 -21.33,-21.33 -32,-32 0,-21.67 0,-43.33 0,-65 -10.67,-32 -21.33,-64 -32,-96 -32.33,0 -64.67,0 -97,0 -21.33,10.67 -42.67,21.33 -64,32 -21.33,-32.33 -42.67,-64.67 -64,-97 -21.67,-10.67 -43.33,-21.33 -65,-32 -10.67,0 -21.33,0 -32,0 -10.67,-10.67 -21.33,-21.33 -32,-32 -10.67,0 -21.33,0 -32,0 -10.67,-10.67 -21.33,-21.33 -32,-32 -10.67,10.67 -21.33,21.33 -32,32 -32.33,10.67 -64.67,21.33 -97,32 -21.33,0 -42.67,0 -64,0 -10.67,10.67 -21.33,21.33 -32,32 -21.67,11 -43.33,22 -65,33 -42.67,0 -85.33,0 -128,0 10.67,-11 21.33,-22 32,-33 -10.67,11 -21.33,22 -32,33 0,-11 0,-22 0,-33 0,11 0,22 0,33 -10.67,0 -21.33,0 -32,0 0,10.67 0,21.33 0,32 0,-10.67 0,-21.33 0,-32 -21.67,0 -43.33,0 -65,0 -10.67,-11 -21.33,-22 -32,-33 -21.33,0 -42.67,0 -64,0 0,-10.67 0,-21.33 0,-32 -10.67,0 -21.33,0 -32,0 0,-10.67 0,-21.33 0,-32 -43,0 -86,0 -129,0 -10.67,21.33 -21.33,42.67 -32,64 -21.33,0 -42.67,0 -64,0 0,11 0,22 0,33 -11,-11 -22,-22 -33,-33 -21.33,0 -42.67,0 -64,0 -21.33,-32 -42.67,-64 -64,-96 -10.67,10.67 -21.33,21.33 -32,32 0,-10.67 0,-21.33 0,-32 -10.67,0 -21.33,0 -32,0 -11,-10.67 -22,-21.33 -33,-32 -10.71,0 -21.43,0.1 -32.14,0 -42.62,-10.66 -85.24,-21.31 -127.86,-31.97 -11,0 -22,0 -33,0 -10.67,-10.67 -21.33,-21.33 -32,-32 0,10.67 0,21.33 0,32 -21.33,0 -42.67,0 -64,0 -10.67,-10.67 -21.33,-21.33 -32,-32 -10.67,10.67 -21.33,21.33 -32,32 -10.67,-10.67 -21.33,-21.33 -32,-32 0,10.67 0,21.33 0,32 -11,0 -22,0 -33,0 -21.33,21.33 -42.67,42.67 -64,64 -21.33,0 -42.67,0 -64,0 -10.67,-10.67 -21.33,-21.33 -32,-32 -23.36,-11.52 -46.75,-22.97 -70.08,-34.54 -19.64,-9.82 -39.28,-19.64 -58.92,-29.46 0,-21.67 0,-43.33 0,-65 -32,0 -64,0 -96,0 -11,-10.67 -22,-21.33 -33,-32 -10.67,0 -21.33,0 -32,0 0,21.33 0,42.67 0,64 -21.33,-21.33 -42.67,-42.67 -64,-64 -32,10.67 -64,21.33 -96,32 -11,-21.33 -22,-42.67 -33,-64 -10.67,21.33 -21.33,42.67 -32,64 -10.67,-10.67 -21.33,-21.33 -32,-32 0,-10.67 0,-21.33 0,-32 -21.33,-10.67 -42.67,-21.33 -64,-32 -10.67,-21.67 -21.33,-43.33 -32,-65 -32.33,11 -64.67,22 -97,33 -32,-21.67 -64,-43.33 -96,-65 -32.33,0 -64.67,0 -97,0 0,-10.67 0,-21.33 0,-32 -21.33,-10.67 -42.67,-21.33 -64,-32 0,-10.67 0,-21.33 0,-32 -10.67,0 -21.33,0 -32,0 -10.67,10.67 -21.33,21.33 -32,32 0,-10.67 0,-21.33 0,-32 -11,0 -22,0 -33,0 -10.67,-10.67 -21.33,-21.33 -32,-32 -21.33,0 -42.67,0 -64,0 0,10.67 0,21.33 0,32 -21.33,0 -42.67,0 -64,0 0,-10.67 0,-21.33 0,-32 21.33,-10.67 42.67,-21.33 64,-32 0,-11 0,-22 0,-33 -43,0 -86,0 -129,0 0,-10.67 0,-21.33 0,-32 21.67,-42.67 43.33,-85.33 65,-128 -10.67,0 -21.33,0 -32,0 0,-11 0,-22 0,-33 -11,0 -22,0 -33,0 0,-21.33 0,-42.67 0,-64 11,0 22,0 33,0 0,10.67 0,21.33 0,32 10.67,0 21.33,0 32,0 0,-21.33 0,-42.67 0,-64 -10.67,-21.33 -21.33,-42.67 -32,-64 0,-10.67 0,-21.33 0,-32 10.67,0 21.33,0 32,0 10.67,-11 21.33,-22 32,-33 -21.33,-10.67 -42.67,-21.33 -64,-32 10.67,-10.67 21.33,-21.33 32,-32 0,-21.33 0,-42.67 0,-64 10.67,0 21.33,0 32,0 0,-21.67 0,-43.33 0,-65 -10.67,0 -21.33,0 -32,0 0,-42.67 0,-85.33 0,-128 -21.67,-10.67 -43.33,-21.33 -65,-32 -10.67,-32.33 -21.33,-64.67 -32,-97 10.67,0 21.33,0 32,0 11,-10.67 22,-21.33 33,-32 10.67,-32 21.33,-64 32,-96 -10.67,0 -21.33,0 -32,0 0,-11 0,-22 0,-33 10.67,-32 21.33,-64 32,-96 10.67,0 21.33,0 32,0 -21.33,-10.67 -42.67,-21.33 -64,-32 -21.67,10.67 -43.33,21.33 -65,32 0,-10.67 0,-21.33 0,-32 -10.67,-21.33 -21.33,-42.67 -32,-64 10.67,-32.33 21.33,-64.67 32,-97 0,-21.33 0,-42.67 0,-64 -10.67,-10.67 -21.33,-21.33 -32,-32 -10.67,10.67 -21.33,21.33 -32,32 0,-21.33 0,-42.67 0,-64 -21.33,0 -42.67,0 -64,0 0,-11 0,-22 0,-33 -43,0 -86,0 -129,0 -10.67,11 -21.33,22 -32,33 -21.33,0 -42.67,0 -64,0 10.67,-21.67 21.33,-43.33 32,-65 -10.67,10.67 -21.33,21.33 -32,32 -21.67,-10.67 -43.33,-21.33 -65,-32 0,-10.67 0,-21.33 0,-32 -10.67,-10.67 -21.33,-21.33 -32,-32 -21.33,-10.67 -42.67,-21.33 -64,-32 -10.67,-21.67 -21.33,-43.33 -32,-65 -21.67,11 -43.33,22 -65,33 -10.67,0 -21.33,0 -32,0 z m 7170,-1190 c 10.67,0 21.33,0 32,0 -10.67,0 -21.33,0 -32,0 z m -64,450 c 0,-10.67 0,-21.33 0,-32 0,10.67 0,21.33 0,32 z m -64,-96 c -10.67,0 -21.33,0 -32,0 10.67,0 21.33,0 32,0 z m -547,321 c -32,0 -64,0 -96,0 0,-10.67 0,-21.33 0,-32 -11,32 -22,64 -33,96 -10.67,0 -21.33,0 -32,0 -10.67,-10.67 -21.33,-21.33 -32,-32 0,10.67 0,21.33 0,32 21.33,0 42.67,0 64,0 -10.67,11 -21.33,22 -32,33 21.67,10.67 43.33,21.33 65,32 10.67,-10.67 21.33,-21.33 32,-32 -21.67,0 -43.33,0 -65,0 11,-21.67 22,-43.33 33,-65 10.67,-10.67 21.33,-21.33 32,-32 21.33,10.67 42.67,21.33 64,32 0,-10.67 0,-21.33 0,-32 z m 579,-225 c 0,-10.67 0,-21.33 0,-32 0,10.67 0,21.33 0,32 z m 386,-1157 c 10.67,0 21.33,0 32,0 -10.67,0 -21.33,0 -32,0 z"
         id="path92" />
    </g>
  </g>
</svg>
