<?xml version="1.0" encoding="UTF-8" standalone="no"?>
<!-- Created with Inkscape (http://www.inkscape.org/) -->

<svg
   xmlns:dc="http://purl.org/dc/elements/1.1/"
   xmlns:cc="http://creativecommons.org/ns#"
   xmlns:rdf="http://www.w3.org/1999/02/22-rdf-syntax-ns#"
   xmlns:svg="http://www.w3.org/2000/svg"
   xmlns="http://www.w3.org/2000/svg"
   xmlns:sodipodi="http://sodipodi.sourceforge.net/DTD/sodipodi-0.dtd"
   xmlns:inkscape="http://www.inkscape.org/namespaces/inkscape"
   width="35.30011mm"
   height="35.19656mm"
   viewBox="0 0 35.30011 35.19656"
   version="1.1"
   id="svg1021"
   inkscape:version="0.92.5 (2060ec1f9f, 2020-04-08)"
   sodipodi:docname="go.svg">
  <defs
     id="defs1015" />
  <sodipodi:namedview
     id="base"
     pagecolor="#ffffff"
     bordercolor="#666666"
     borderopacity="1.0"
     inkscape:pageopacity="0.0"
     inkscape:pageshadow="2"
     inkscape:zoom="0.35"
     inkscape:cx="363.85173"
     inkscape:cy="312.22746"
     inkscape:document-units="mm"
     inkscape:current-layer="layer1"
     showgrid="false"
     inkscape:window-width="1366"
     inkscape:window-height="704"
     inkscape:window-x="0"
     inkscape:window-y="0"
     inkscape:window-maximized="1" />
  <metadata
     id="metadata1018">
    <rdf:RDF>
      <cc:Work
         rdf:about="">
        <dc:format>image/svg+xml</dc:format>
        <dc:type
           rdf:resource="http://purl.org/dc/dcmitype/StillImage" />
        <dc:title></dc:title>
      </cc:Work>
    </rdf:RDF>
  </metadata>
  <g
     inkscape:label="Layer 1"
     inkscape:groupmode="layer"
     id="layer1"
     transform="translate(23.697675,-196.24696)">
    <g
       transform="matrix(9.9994773e-4,0,0,9.9994773e-4,-127.28952,108.70833)"
       id="Goias">
      <path
         inkscape:connector-curvature="0"
         style="fill:#999999;stroke:#ffffff;stroke-width:282.23678589;stroke-miterlimit:4;stroke-dasharray:none;stroke-opacity:1"
         d="m 104003,112858 c 0,-11 0,-22 0,-33 10.67,-21.33 21.33,-42.67 32,-64 0,-10.67 0,-21.33 0,-32 10.67,-21.33 21.33,-42.67 32,-64 0,10.67 0,21.33 0,32 0,-43 0,-86 0,-129 -10.67,0 -21.33,0 -32,0 10.67,-10.67 21.33,-21.33 32,-32 -10.67,-10.67 -21.33,-21.33 -32,-32 21.33,-21.33 42.67,-42.67 64,-64 0,-11 0,-22 0,-33 10.67,0 21.33,0 32,0 0,-10.67 0,-21.33 0,-32 10.67,0 21.33,0 32,0 0,-10.67 0,-21.33 0,-32 -10.67,0 -21.33,0 -32,0 10.67,-10.67 21.33,-21.33 32,-32 0,-10.67 0,-21.33 0,-32 0,10.67 0,21.33 0,32 10.67,-10.67 21.33,-21.33 32,-32 0,-21.67 0,-43.33 0,-65 -10.67,0 -21.33,0 -32,0 10.67,0 21.33,0 32,0 11,-10.67 22,-21.33 33,-32 -21.67,0 -43.33,0 -65,0 0,-21.33 0,-42.67 0,-64 10.67,0 21.33,0 32,0 0,-10.67 0,-21.33 0,-32 -10.67,0 -21.33,0 -32,0 10.67,-10.67 21.33,-21.33 32,-32 -10.79,-10.69 -21.41,-21.62 -32.31,-32.16 -21.23,-10.95 -42.46,-21.89 -63.69,-32.84 10.67,0 21.33,0 32,0 0,-10.67 0,-21.33 0,-32 10.67,-10.67 21.33,-21.33 32,-32 -10.67,0 -21.33,0 -32,0 0,-10.67 0,-21.33 0,-32 -10.67,10.67 -21.33,21.33 -32,32 0,-21.33 0,-42.67 0,-64 21.33,-10.67 42.67,-21.33 64,-32 0,-10.67 0,-21.33 0,-32 21.67,-11 43.33,-22 65,-33 -11,-32 -22,-64 -33,-96 21.67,0 43.33,0 65,0 10.67,-21.33 21.33,-42.67 32,-64 10.67,-11 21.33,-22 32,-33 0,-32 0,-64 0,-96 10.67,0 21.33,0 32,0 0,-21.33 0,-42.67 0,-64 10.67,-32.33 21.33,-64.67 32,-97 0,-21.33 0,-42.67 0,-64 11,-10.67 22,-21.33 33,-32 10.67,10.67 21.33,21.33 32,32 10.67,-21.33 21.33,-42.67 32,-64 10.67,-11 21.33,-22 32,-33 0,-10.67 0,-21.33 0,-32 10.67,0 21.33,0 32,0 10.67,-32 21.33,-64 32,-96 0,-21.33 0,-42.67 0,-64 10.67,-11 21.33,-22 32,-33 21.67,0 43.33,0 65,0 -10.67,-10.67 -21.33,-21.33 -32,-32 21.33,0 42.67,0 64,0 0,-10.67 0,-21.33 0,-32 10.67,0 21.33,0 32,0 -10.67,-10.67 -21.33,-21.33 -32,-32 21.33,0 42.67,0 64,0 -10.67,-10.67 -21.33,-21.33 -32,-32 10.67,0 21.33,0 32,0 10.67,10.67 21.33,21.33 32,32 0,-21.33 0,-42.67 0,-64 0,10.67 0,21.33 0,32 0,-10.67 0,-21.33 0,-32 11,0 22,0 33,0 10.67,-11 21.33,-22 32,-33 0,-10.67 0,-21.33 0,-32 -10.67,-10.67 -21.33,-21.33 -32,-32 0,10.67 0,21.33 0,32 0,-21.33 0,-42.67 0,-64 -11,0 -22,0 -33,0 0,-10.67 0,-21.33 0,-32 11,0 22,0 33,0 -11,-21.33 -22,-42.67 -33,-64 11,0 22,0 33,0 0,-11 0,-22 0,-33 10.67,0 21.33,0 32,0 -10.67,-10.67 -21.33,-21.33 -32,-32 10.67,0 21.33,0 32,0 0,-21.33 0,-42.67 0,-64 10.67,-10.67 21.33,-21.33 32,-32 -10.67,-10.67 -21.33,-21.33 -32,-32 0,-43 0,-86 0,-129 10.67,0 21.33,0 32,0 0,10.67 0,21.33 0,32 10.67,-21.33 21.33,-42.67 32,-64 0,-10.67 0,-21.33 0,-32 10.67,-10.67 21.33,-21.33 32,-32 0,-53.67 0,-107.33 0,-161 10.67,0 21.33,0 32,0 0,-10.67 0,-21.33 0,-32 10.67,0 21.33,0 32,0 11,-11 22,-22 33,-33 0,-21.33 0,-42.67 0,-64 10.67,0 21.33,0 32,0 -10.67,-10.67 -21.33,-21.33 -32,-32 0,-21.33 0,-42.67 0,-64 10.67,-10.67 21.33,-21.33 32,-32 0,10.67 0,21.33 0,32 10.67,-10.67 21.33,-21.33 32,-32 10.67,10.67 21.33,21.33 32,32 32.33,0 64.67,0 97,0 10.67,10.67 21.33,21.33 32,32 10.67,-10.67 21.33,-21.33 32,-32 0,-10.67 0,-21.33 0,-32 10.67,10.67 21.33,21.33 32,32 0,-21.67 0,-43.33 0,-65 10.67,0 21.33,0 32,0 0,11 0,22 0,33 10.67,0 21.33,0 32,0 -10.67,-21.67 -21.33,-43.33 -32,-65 -10.67,0 -21.33,0 -32,0 43,0 86,0 129,0 0,-10.67 0,-21.33 0,-32 -11,0 -22,0 -33,0 11,-21.33 22,-42.67 33,-64 -21.67,-21.67 -43.33,-43.33 -65,-65 10.67,0 21.33,0 32,0 0,-10.67 0,-21.33 0,-32 11,0 22,0 33,0 0,21.67 0,43.33 0,65 10.67,0 21.33,0 32,0 10.67,-11 21.33,-22 32,-33 10.67,0 21.33,0 32,0 0,-21.33 0,-42.67 0,-64 21.33,-10.67 42.67,-21.33 64,-32 11,-10.67 22,-21.33 33,-32 -11,0 -22,0 -33,0 21.67,-10.67 43.33,-21.33 65,-32 21.33,0 42.67,0 64,0 10.67,-21.67 21.33,-43.33 32,-65 10.67,11 21.33,22 32,33 10.67,-11 21.33,-22 32,-33 11,0 22,0 33,0 0,11 0,22 0,33 10.67,0 21.33,0 32,0 0,-21.67 0,-43.33 0,-65 10.67,0 21.33,0 32,0 32,-32 64,-64 96,-96 10.67,10.67 21.33,21.33 32,32 11,-10.67 22,-21.33 33,-32 10.67,0 21.33,0 32,0 0,-32.33 0,-64.67 0,-97 10.67,-21.33 21.33,-42.67 32,-64 21.33,0 42.67,0 64,0 0,-43 0,-86 0,-129 10.67,-10.67 21.33,-21.33 32,-32 -21.33,0 -42.67,0 -64,0 0,-10.67 0,-21.33 0,-32 39.93,-20.03 79.93,-39.95 120.05,-59.59 2.98,-1.47 5.97,-2.94 8.95,-4.41 10.67,10.67 21.33,21.33 32,32 -21.33,-32 -42.67,-64 -64,-96 18.14,-18.75 36.27,-37.51 54.83,-55.83 3.06,-3.06 6.11,-6.11 9.17,-9.17 10.69,10.79 21.62,21.41 32.16,32.31 10.61,21.57 21.23,43.13 31.84,64.69 10.67,-10.67 21.33,-21.33 32,-32 -10.67,-43 -21.33,-86 -32,-129 -21.33,0 -42.67,0 -64,0 0,-10.67 0,-21.33 0,-32 10.67,-10.67 21.33,-21.33 32,-32 -10.67,-21.67 -21.33,-43.33 -32,-65 21.33,0 42.67,0 64,0 32.33,21.67 64.67,43.33 97,65 -10.67,-43 -21.33,-86 -32,-129 10.67,0 21.33,0 32,0 21.33,21.33 42.67,42.67 64,64 21.33,0 42.67,0 64,0 10.67,-10.67 21.33,-21.33 32,-32 -10.67,-21.33 -21.33,-42.67 -32,-64 21.67,0 43.33,0 65,0 -11,-10.67 -22,-21.33 -33,-32 0,-21.67 0,-43.33 0,-65 11,0 22,0 33,0 21.33,21.67 42.67,43.33 64,65 0,-21.67 0,-43.33 0,-65 21.33,10.67 42.67,21.33 64,32 0,-21.33 0,-42.67 0,-64 10.67,-10.67 21.33,-21.33 32,-32 0,-32 0,-64 0,-96 -10.67,0 -21.33,0 -32,0 0,-21.67 0,-43.33 0,-65 32.33,0 64.67,0 97,0 10.67,-21.33 21.33,-42.67 32,-64 0,-21.33 0,-42.67 0,-64 -10.67,-10.67 -21.33,-21.33 -32,-32 21.33,-11 42.67,-22 64,-33 -21.33,-10.67 -42.67,-21.33 -64,-32 -11,10.67 -22,21.33 -33,32 0,-10.67 0,-21.33 0,-32 11,-10.67 22,-21.33 33,-32 -32.4,-21.43 -64.92,-42.72 -97.25,-64.25 -10.58,-10.58 -21.17,-21.17 -31.75,-31.75 0,-32.33 0,-64.67 0,-97 -53.67,0 -107.33,0 -161,0 -21.33,-21.33 -42.67,-42.67 -64,-64 0,-10.67 0,-21.33 0,-32 21.33,-11 42.67,-22 64,-33 -21.33,-21.33 -42.67,-42.67 -64,-64 0,-32 0,-64 0,-96 10.67,-10.67 21.33,-21.33 32,-32 0,-32.33 0,-64.67 0,-97 -10.67,-10.67 -21.33,-21.33 -32,-32 10.67,-21.33 21.33,-42.67 32,-64 10.67,0 21.33,0 32,0 0,-21.67 0,-43.33 0,-65 32.33,-21.33 64.67,-42.67 97,-64 10.67,0 21.33,0 32,0 0,10.67 0,21.33 0,32 42.67,0 85.33,0 128,0 21.67,-21.33 43.33,-42.67 65,-64 32,0 64,0 96,0 0,-10.67 0,-21.33 0,-32 10.67,-21.67 21.33,-43.33 32,-65 11,0 22,0 33,0 21.33,21.67 42.67,43.33 64,65 21.33,0 42.67,0 64,0 0,-10.67 0,-21.33 0,-32 -32,-43 -64,-86 -96,-129 0,-10.67 0,-21.33 0,-32 32,0 64,0 96,0 0,-53.67 0,-107.33 0,-161 10.67,-21.33 21.33,-42.67 32,-64 -10.67,-21.67 -21.33,-43.33 -32,-65 32.33,-10.67 64.67,-21.33 97,-32 0,-32 0,-64 0,-96 21.33,-10.67 42.67,-21.33 64,-32 21.33,10.67 42.67,21.33 64,32 10.67,0 21.33,0 32,0 11.13,-10.69 22.09,-21.61 33.31,-32.16 21.23,-10.61 42.46,-21.23 63.69,-31.84 21.33,0 42.67,0 64,0 32.45,-21.71 64.83,-43.51 97.31,-65.16 63.9,-31.94 127.79,-63.89 191.69,-95.84 32.33,10.67 64.67,21.33 97,32 23.26,-23.37 46.75,-46.52 69.86,-70.05 8.72,-8.98 17.43,-17.97 26.14,-26.95 11,11 22,22 33,33 32,-21.67 64,-43.33 96,-65 0.1,-10.77 -0.15,-21.59 0.11,-32.33 10.63,-31.89 21.26,-63.78 31.89,-95.67 0,-11 0,-22 0,-33 10.71,-21.57 21.66,-43.04 32.23,-64.66 10.92,-31.78 21.85,-63.56 32.77,-95.34 31.94,-32.39 63.72,-64.94 96,-97 0,-32 0,-64 0,-96 43,-32.33 86,-64.67 129,-97 0,-21.33 0,-42.67 0,-64 10.67,0 21.33,0 32,0 10.67,-43 21.33,-86 32,-129 -10.67,-32 -21.33,-64 -32,-96 75,0 150,0 225,0 21.33,-10.67 42.67,-21.33 64,-32 107.33,21.33 214.67,42.67 322,64 32,-21.33 64,-42.67 96,-64 10.67,10.67 21.33,21.33 32,32 10.67,-10.67 21.33,-21.33 32,-32 21.67,0 43.33,0 65,0 32,10.67 64,21.33 96,32 75,-10.67 150,-21.33 225,-32 21.67,-10.67 43.33,-21.33 65,-32 21.33,-53.67 42.67,-107.33 64,-161 21.33,-10.67 42.67,-21.33 64,-32 21.67,10.67 43.33,21.33 65,32 0,-32.33 0,-64.67 0,-97 10.67,-21.33 21.33,-42.67 32,-64 64.33,0 128.67,0 193,0 32,32.33 64,64.67 96,97 10.67,-11 21.33,-22 32,-33 10.67,-32 21.33,-64 32,-96 32.33,-32 64.67,-64 97,-96 10.87,-21.95 21.54,-44.02 32.54,-65.9 31.82,-53.37 63.64,-106.73 95.46,-160.1 43,-21.33 86,-42.67 129,-64 0,-21.33 0,-42.67 0,-64 53.67,-96.67 107.33,-193.33 161,-290 10.67,-10.67 21.33,-21.33 32,-32 10.67,-32 21.33,-64 32,-96 0,-21.33 0,-42.67 0,-64 -32.13,-86.45 -64.39,-172.86 -96.44,-259.33 -10.52,-31.56 -21.04,-63.11 -31.56,-94.67 10.67,0 21.33,0 32,0 0,-10.67 0,-21.33 0,-32 21.33,0 42.67,0 64,0 10.67,32 21.33,64 32,96 43,0 86,0 129,0 0,-21.33 0,-42.67 0,-64 -10.67,-32.33 -21.33,-64.67 -32,-97 0,-10.67 0,-21.33 0,-32 10.67,-21.33 21.33,-42.67 32,-64 32,-10.67 64,-21.33 96,-32 10.67,-10.67 21.33,-21.33 32,-32 0,-21.67 0,-43.33 0,-65 -10.67,-32 -21.33,-64 -32,-96 21.33,-32.33 42.67,-64.67 64,-97 0,-10.67 0,-21.33 0,-32 -10.67,-21.33 -21.33,-42.67 -32,-64 0,-10.67 0,-21.33 0,-32 43,-64.33 86,-128.67 129,-193 0,-21.33 0,-42.67 0,-64 -21.33,-21.67 -42.67,-43.33 -64,-65 0,-53.33 0,-106.67 0,-160 10.67,-32.33 21.33,-64.67 32,-97 21.51,-10.82 43.14,-21.45 64.59,-32.39 32.13,-21.2 64.27,-42.41 96.41,-63.61 0,-11 0,-22 0,-33 -21.67,-10.67 -43.33,-21.33 -65,-32 -10.67,-21.33 -21.33,-42.67 -32,-64 0,-32 0,-64 0,-96 21.33,-32.33 42.67,-64.67 64,-97 0,-43 0,-86 0,-129 32.33,-21.33 64.67,-42.67 97,-64 42.67,0 85.33,0 128,0 11,-10.67 22,-21.33 33,-32 32,-75 64,-150 96,-225 43,-10.67 86,-21.33 129,-32 21.33,-53.67 42.67,-107.33 64,-161 32,-32 64,-64 96,-96 64.33,10.67 128.67,21.33 193,32 21.67,-21.67 43.33,-43.33 65,-65 10.67,-21.33 21.33,-42.67 32,-64 21.33,0 42.67,0 64,0 21.33,-43 42.67,-86 64,-129 43,-10.67 86,-21.33 129,-32 32.33,21.67 64.67,43.33 97,65 32.07,-21.77 64.25,-43.4 96.25,-65.25 21.25,-21.25 42.5,-42.5 63.75,-63.75 10.67,-21.33 21.33,-42.67 32,-64 21.67,0 43.33,0 65,0 32,21.33 64,42.67 96,64 10.67,53.67 21.33,107.33 32,161 11,21.33 22,42.67 33,64 32,10.67 64,21.33 96,32 43,-10.67 86,-21.33 129,-32 81.42,-46.63 162.74,-93.41 244.22,-139.93 68.59,-39.03 137.19,-78.05 205.78,-117.07 0,-32.33 0,-64.67 0,-97 21.33,-32 42.67,-64 64,-96 10.67,0 21.33,0 32,0 64.33,-43 128.67,-86 193,-129 10.67,0 21.33,0 32,0 0,-10.67 0,-21.33 0,-32 -21.33,-21.33 -42.67,-42.67 -64,-64 10.67,-32.33 21.33,-64.67 32,-97 0,-53.333 0,-106.667 0,-160 32.33,-53.667 64.67,-107.333 97,-161 32,-21.333 64,-42.667 96,-64 10.67,-21.667 21.33,-43.333 32,-65 -21.33,-32 -42.67,-64 -64,-96 0,-32.333 0,-64.667 0,-97 10.69,-10.793 21.62,-21.411 32.16,-32.314 10.61,-21.229 21.23,-42.457 31.84,-63.686 10.69,-10.794 21.62,-21.41 32.16,-32.315 10.61,-21.562 21.23,-43.123 31.84,-64.685 -0.1,-10.772 0.15,-21.591 -0.11,-32.333 -10.63,-31.889 -21.26,-63.778 -31.89,-95.667 10.67,-21.667 21.33,-43.333 32,-65 11,0 22,0 33,0 42.67,-85.667 85.33,-171.333 128,-257 -10.67,-53.333 -21.33,-106.667 -32,-160 53.67,-86 107.33,-172 161,-258 -10.67,-42.667 -21.33,-85.333 -32,-128 10.67,-32.333 21.33,-64.667 32,-97 -10.67,-21.333 -21.33,-42.667 -32,-64 -21.67,-21.333 -43.33,-42.667 -65,-64 0,-21.667 0,-43.333 0,-65 -21.33,-32 -42.67,-64 -64,-96 20.03,-39.935 39.95,-79.927 59.59,-120.052 1.37,-3.241 3.56,-6.289 4.41,-9.65 -0.1,-10.543 0.11,-21.113 -0.1,-31.639 -10.64,-42.886 -21.28,-85.773 -31.92,-128.659 21.67,-10.667 43.33,-21.333 65,-32 10.67,-32 21.33,-64 32,-96 -10.67,-53.667 -21.33,-107.333 -32,-161 10.69,-21.451 21.5,-42.85 32.11,-64.333 21.37,-64.32 42.6,-128.693 64.05,-192.981 34.39,-68.535 68.95,-136.986 103.24,-205.577 19.2,-38.703 38.4,-77.406 57.6,-116.109 21.33,-21.333 42.67,-42.667 64,-64 0,-32.333 0,-64.667 0,-97 -10.67,-42.667 -21.33,-85.333 -32,-128 0,-21.333 0,-42.667 0,-64 21.33,0 42.67,0 64,0 21.67,21.333 43.33,42.667 65,64 32,0 64,0 96,0 43,-32.333 86,-64.667 129,-97 10.69,-21.451 21.5,-42.851 32.11,-64.333 10.63,-31.889 21.26,-63.778 31.89,-95.667 -32.33,-75 -64.67,-150 -97,-225 0,-43 0,-86 0,-129 -21.33,-32 -42.67,-64 -64,-96 0,-32.333 0,-64.667 0,-97 32.33,-32 64.67,-64 97,-96 0,-139.333 0,-278.667 0,-418 -21.67,-43 -43.33,-86 -65,-129 10.67,-32 21.33,-64 32,-96 -10.67,-21.667 -21.33,-43.333 -32,-65 10.67,-53.667 21.33,-107.333 32,-161 -32,-42.667 -64,-85.333 -96,-128 10.67,-21.333 21.33,-42.667 32,-64 10.67,-11 21.33,-22 32,-33 10.67,0 21.33,0 32,0 21.67,-10.667 43.33,-21.333 65,-32 21.33,10.667 42.67,21.333 64,32 32.33,-42.667 64.67,-85.333 97,-128 21.34,-64.452 42.8,-128.874 64.07,-193.344 10.64,-53.552 21.29,-107.104 31.93,-160.656 21.33,-32 42.67,-64 64,-96 11,-107.333 22,-214.667 33,-322 32,-42.667 64,-85.333 96,-128 43,-21.667 86,-43.333 129,-65 32,-32 64,-64 96,-96 21.33,-43 42.67,-86 64,-129 21.67,-10.667 43.33,-21.333 65,-32 10.67,-21.333 21.33,-42.667 32,-64 -10.67,-43 -21.33,-86 -32,-129 0,-43 0,-86 0,-129 32,-21.333 64,-42.667 96,-64 10.67,-21.333 21.33,-42.667 32,-64 21.71,-21.447 43.58,-42.769 65.19,-64.293 21.37,-32.303 42.6,-64.726 64.06,-96.955 10.58,-10.584 21.17,-21.168 31.75,-31.752 0,-53.667 0,-107.333 0,-161 10.71,-10.779 21.57,-21.44 32.19,-32.292 21.27,-31.903 42.54,-63.805 63.81,-95.708 0,-64.333 0,-128.667 0,-193 -21.33,-21.667 -42.67,-43.333 -64,-65 -10.67,0 -21.33,0 -32,0 21.33,-42.667 42.67,-85.333 64,-128 -10.67,-43 -21.33,-86 -32,-129 10.67,-53.667 21.33,-107.333 32,-161 0,-21.333 0,-42.667 0,-64 -10.69,-10.794 -21.62,-21.41 -32.16,-32.314 -21.28,-42.896 -42.56,-85.791 -63.84,-128.686 10.67,-10.667 21.33,-21.333 32,-32 43,-10.667 86,-21.333 129,-32 10.67,-21.333 21.33,-42.667 32,-64 0,-11 0,-22 0,-33 -21.67,-10.667 -43.33,-21.333 -65,-32 -10.67,-32 -21.33,-64 -32,-96 21.67,-10.667 43.33,-21.333 65,-32 21.33,10.667 42.67,21.333 64,32 10.67,0 21.33,0 32,0 21.33,-32.333 42.67,-64.667 64,-97 32.33,-10.667 64.67,-21.333 97,-32 0,-64.333 0,-128.667 0,-193 21.49,-64.281 42.82,-128.616 64,-193 10.67,-21.333 21.33,-42.667 32,-64 0,-21.333 0,-42.667 0,-64 -10.67,-21.333 -21.33,-42.667 -32,-64 21.38,-32.444 42.84,-64.837 64.16,-97.312 10.95,-21.229 21.89,-42.459 32.84,-63.688 -11,-10.667 -22,-21.333 -33,-32 11,-11 22,-22 33,-33 10.67,0 21.33,0 32,0 -10.67,-42.667 -21.33,-85.333 -32,-128 10.67,-21.667 21.33,-43.333 32,-65 10.67,0 21.33,0 32,0 0,-21.333 0,-42.667 0,-64 10.67,-10.667 21.33,-21.333 32,-32 -21.33,0 -42.67,0 -64,0 0,-21.333 0,-42.667 0,-64 21.33,-10.667 42.67,-21.333 64,-32 10.67,-11 21.33,-22 32,-33 -21.33,-21.333 -42.67,-42.667 -64,-64 0,-10.667 0,-21.333 0,-32 21.33,-10.667 42.67,-21.333 64,-32 0,-10.667 0,-21.333 0,-32 43,0 86,0 129,0 10.67,-10.667 21.33,-21.333 32,-32 -10.67,-21.667 -21.33,-43.333 -32,-65 10.67,-10.667 21.33,-21.333 32,-32 -10.67,-10.667 -21.33,-21.333 -32,-32 10.67,-10.667 21.33,-21.333 32,-32 0,-10.667 0,-21.333 0,-32 -10.67,0 -21.33,0 -32,0 0,10.667 0,21.333 0,32 -10.67,0 -21.33,0 -32,0 21.33,-21.667 42.67,-43.333 64,-65 21.33,11 42.67,22 64,33 10.67,-11 21.33,-22 32,-33 -10.67,-32 -21.33,-64 -32,-96 10.79,-10.687 21.41,-21.623 32.31,-32.155 21.57,-10.615 43.13,-21.23 64.69,-31.845 10.67,-11 21.33,-22 32,-33 -10.67,0 -21.33,0 -32,0 21.33,-42.667 42.67,-85.333 64,-128 21.33,0 42.67,0 64,0 0,-32.333 0,-64.667 0,-97 11,-10.667 22,-21.333 33,-32 -11,-10.667 -22,-21.333 -33,-32 32.33,0 64.67,0 97,0 0,-21.333 0,-42.667 0,-64 21.33,10.667 42.67,21.333 64,32 10.67,-10.667 21.33,-21.333 32,-32 -10.67,-21.333 -21.33,-42.667 -32,-64 10.67,0 21.33,0 32,0 21.67,10.667 43.33,21.333 65,32 0,-10.667 0,-21.333 0,-32 -11,-11 -22,-22 -33,-33 0,-10.667 0,-21.333 0,-32 11.13,-10.69 22.09,-21.613 33.31,-32.157 42.57,-21.281 85.13,-42.562 127.69,-63.843 0,-10.667 0,-21.333 0,-32 43,0 86,0 129,0 10.67,-32.333 21.33,-64.667 32,-97 32,0 64,0 96,0 11,-21.333 22,-42.667 33,-64 32,0 64,0 96,0 -21.33,-10.667 -42.67,-21.333 -64,-32 10.67,0 21.33,0 32,0 21.33,-11 42.67,-22 64,-33 21.67,0 43.33,0 65,0 0,-10.667 0,-21.333 0,-32 -21.67,-10.667 -43.33,-21.333 -65,-32 0,-10.667 0,-21.333 0,-32 10.67,0 21.33,0 32,0 0,10.667 0,21.333 0,32 11,10.667 22,21.333 33,32 10.67,0 21.33,0 32,0 10.67,-10.667 21.33,-21.333 32,-32 0,-21.333 0,-42.667 0,-64 42.67,-21.333 85.33,-42.667 128,-64 -21.33,32 -42.67,64 -64,96 0,32 0,64 0,96 -10.67,0 -21.33,0 -32,0 0,11 0,22 0,33 -21.33,0 -42.67,0 -64,0 0,10.667 0,21.333 0,32 -10.79,10.687 -21.41,21.623 -32.31,32.155 -21.57,10.615 -43.13,21.23 -64.69,31.845 -10.67,10.667 -21.33,21.333 -32,32 0,21.667 0,43.333 0,65 -10.67,10.667 -21.33,21.333 -32,32 -10.67,0 -21.33,0 -32,0 0,53.667 0,107.333 0,161 -21.67,21.333 -43.33,42.667 -65,64 11,21.333 22,42.667 33,64 21.33,10.667 42.67,21.333 64,32 0,21.667 0,43.333 0,65 10.67,-11 21.33,-22 32,-33 0,-10.667 0,-21.333 0,-32 18.3,18.252 36.6,36.508 54.48,55.182 3.17,3.273 6.35,6.545 9.52,9.818 -21.33,0 -42.67,0 -64,0 0,10.667 0,21.333 0,32 -32,21.333 -64,42.667 -96,64 -11,0 -22,0 -33,0 0,-10.667 0,-21.333 0,-32 -10.67,0 -21.33,0 -32,0 -10.67,32 -21.33,64 -32,96 10.67,43 21.33,86 32,129 -10.67,10.667 -21.33,21.333 -32,32 -10.67,-10.667 -21.33,-21.333 -32,-32 -10.67,21.333 -21.33,42.667 -32,64 0,10.667 0,21.333 0,32 -10.67,21.667 -21.33,43.333 -32,65 0,10.667 0,21.333 0,32 -11,21.333 -22,42.667 -33,64 11,10.667 22,21.333 33,32 -11,0 -22,0 -33,0 -10.67,-10.667 -21.33,-21.333 -32,-32 0,21.667 0,43.333 0,65 -10.67,-11 -21.33,-22 -32,-33 -10.67,0 -21.33,0 -32,0 0,11 0,22 0,33 0,-21.667 0,-43.333 0,-65 -10.67,10.667 -21.33,21.333 -32,32 10.67,21.667 21.33,43.333 32,65 0,10.667 0,21.333 0,32 -10.67,10.667 -21.33,21.333 -32,32 21.33,10.667 42.67,21.333 64,32 0,32.333 0,64.667 0,97 -21.33,10.667 -42.67,21.333 -64,32 10.67,0 21.33,0 32,0 -10.67,10.667 -21.33,21.333 -32,32 10.67,10.667 21.33,21.333 32,32 -21.33,21.333 -42.67,42.667 -64,64 10.67,21.667 21.33,43.333 32,65 -10.69,10.793 -21.62,21.411 -32.16,32.314 -10.61,21.229 -21.23,42.457 -31.84,63.686 10.67,10.667 21.33,21.333 32,32 0,21.667 0,43.333 0,65 10.67,0 21.33,0 32,0 0,10.667 0,21.333 0,32 10.67,0 21.33,0 32,0 0,21.333 0,42.667 0,64 10.67,-10.667 21.33,-21.333 32,-32 0,10.667 0,21.333 0,32 10.67,0 21.33,0 32,0 10.67,10.667 21.33,21.333 32,32 0,-10.667 0,-21.333 0,-32 21.67,10.667 43.33,21.333 65,32 -10.67,0 -21.33,0 -32,0 21.33,0 42.67,0 64,0 0,10.667 0,21.333 0,32 21.33,0 42.67,0 64,0 0,11 0,22 0,33 10.67,-11 21.33,-22 32,-33 0,11 0,22 0,33 11,0 22,0 33,0 0,21.333 0,42.667 0,64 21.33,10.667 42.67,21.333 64,32 0,-10.667 0,-21.333 0,-32 10.67,21.333 21.33,42.667 32,64 10.67,0 21.33,0 32,0 0,10.667 0,21.333 0,32 21.67,10.667 43.33,21.333 65,32 0,-10.667 0,-21.333 0,-32 10.67,0 21.33,0 32,0 10.67,10.667 21.33,21.333 32,32 21.33,-10.667 42.67,-21.333 64,-32 10.67,10.667 21.33,21.333 32,32 43,11 86,22 129,33 21.33,10.667 42.67,21.333 64,32 10.67,-10.667 21.33,-21.333 32,-32 43,0 86,0 129,0 10.67,21.333 21.33,42.667 32,64 32.33,0 64.67,0 97,0 10.67,21.333 21.33,42.667 32,64 10.77,-0.07 21.59,0.149 32.33,-0.111 31.89,-10.63 63.78,-21.259 95.67,-31.889 21.67,10.667 43.33,21.333 65,32 21.33,21.333 42.67,42.667 64,64 10.67,-10.667 21.33,-21.333 32,-32 43,32.333 86,64.667 129,97 21.33,0 42.67,0 64,0 32,10.667 64,21.333 96,32 11,0 22,0 33,0 10.79,10.703 21.43,21.592 32.3,32.179 471.98,278.833 943.93,557.713 1415.92,836.518 250.71,143.335 501.36,286.774 752.11,430.038 123.89,70.755 247.78,141.51 371.67,212.265 43,-32 86,-64 129,-96 0,-32.333 0,-64.667 0,-97 -11,-32 -22,-64 -33,-96 11,-21.667 22,-43.333 33,-65 -11,-21.333 -22,-42.667 -33,-64 11,-21.333 22,-42.667 33,-64 -21.67,-32.333 -43.33,-64.667 -65,-97 16.19,-32.306 32.15,-64.729 48.89,-96.756 5.37,-10.415 10.74,-20.829 16.11,-31.244 0,-21.667 0,-43.333 0,-65 -21.67,-10.667 -43.33,-21.333 -65,-32 0,-10.667 0,-21.333 0,-32 32.33,-64.333 64.67,-128.667 97,-193 21.39,-21.438 42.88,-42.788 64.21,-64.282 31.98,-43.012 64.04,-85.975 95.97,-129.018 32.27,-53.233 64.55,-106.467 96.82,-159.7 10.67,0 21.33,0 32,0 0,-21.667 0,-43.333 0,-65 -10.67,0 -21.33,0 -32,0 0,-10.667 0,-21.333 0,-32 21.33,-43 42.67,-86 64,-129 10.67,-10.667 21.33,-21.333 32,-32 11,0 22,0 33,0 0,-10.667 0,-21.333 0,-32 10.67,-21.333 21.33,-42.667 32,-64 0,-32.333 0,-64.667 0,-97 21.33,-10.667 42.67,-21.333 64,-32 0,-10.667 0,-21.333 0,-32 21.33,-21.333 42.67,-42.667 64,-64 10.67,10.667 21.33,21.333 32,32 11.13,-10.69 22.09,-21.613 33.31,-32.157 21.23,-10.614 42.46,-21.229 63.69,-31.843 0,-21.667 0,-43.333 0,-65 10.78,-10.713 21.44,-21.572 32.29,-32.193 32.31,-21.37 64.73,-42.594 96.96,-64.055 21.25,-21.251 42.5,-42.501 63.75,-63.752 10.67,0 21.33,0 32,0 10.67,-32.333 21.33,-64.667 32,-97 32.33,-21.333 64.67,-42.667 97,-64 21.33,75 42.67,150 64,225 10.67,0 21.33,0 32,0 21.33,21.333 42.67,42.667 64,64 32.33,0 64.67,0 97,0 -10.67,10.667 -21.33,21.333 -32,32 0,21.667 0,43.333 0,65 -21.67,21.333 -43.33,42.667 -65,64 10.67,10.667 21.33,21.333 32,32 -10.67,0 -21.33,0 -32,0 0,10.667 0,21.333 0,32 10.67,21.667 21.33,43.333 32,65 43,0 86,0 129,0 0,10.667 0,21.333 0,32 10.67,0 21.33,0 32,0 21.67,-10.667 43.33,-21.333 65,-32 10.67,0 21.33,0 32,0 21.33,21.333 42.67,42.667 64,64 10.67,21.333 21.33,42.667 32,64 32.33,21.333 64.67,42.667 97,64 10.67,21.667 21.33,43.333 32,65 150,-225 300,-450 450,-675 10.67,-11 21.33,-22 32,-33 10.67,0 21.33,0 32,0 -10.67,-10.667 -21.33,-21.333 -32,-32 10.67,-10.667 21.33,-21.333 32,-32 10.67,10.667 21.33,21.333 32,32 21.67,0 43.33,0 65,0 0,21.667 0,43.333 0,65 10.67,10.667 21.33,21.333 32,32 -10.67,21.333 -21.33,42.667 -32,64 10.67,10.667 21.33,21.333 32,32 10.67,0 21.33,0 32,0 0,-10.667 0,-21.333 0,-32 10.67,10.667 21.33,21.333 32,32 10.67,0 21.33,0 32,0 0,10.667 0,21.333 0,32 10.67,11 21.33,22 32,33 0,10.667 0,21.333 0,32 11,0 22,0 33,0 10.67,10.667 21.33,21.333 32,32 10.67,0 21.33,0 32,0 0,21.333 0,42.667 0,64 10.67,0 21.33,0 32,0 0,-10.667 0,-21.333 0,-32 33.13,32.857 66.4,65.579 99.44,98.52 9.86,10.16 19.71,20.32 29.56,30.48 10.67,0 21.33,0 32,0 10.67,21.333 21.33,42.667 32,64 10.67,0 21.33,0 32,0 10.67,21.333 21.33,42.667 32,64 -10.67,21.333 -21.33,42.667 -32,64 10.67,21.667 21.33,43.333 32,65 0,53.667 0,107.333 0,161 10.67,0 21.33,0 32,0 11,21.333 22,42.667 33,64 10.67,-10.667 21.33,-21.333 32,-32 10.67,10.667 21.33,21.333 32,32 0,-10.667 0,-21.333 0,-32 21.33,0 42.67,0 64,0 0,10.667 0,21.333 0,32 10.67,0 21.33,0 32,0 0,-21.333 0,-42.667 0,-64 11,0 22,0 33,0 10.67,21.333 21.33,42.667 32,64 10.67,-10.667 21.33,-21.333 32,-32 10.67,10.667 21.33,21.333 32,32 0,10.667 0,21.333 0,32 32,0 64,0 96,0 0,32 0,64 0,96 11,32.333 22,64.667 33,97 21.33,0 42.67,0 64,0 10.67,10.667 21.33,21.333 32,32 10.67,0 21.33,0 32,0 0,32.333 0,64.667 0,97 10.67,0 21.33,0 32,0 0,10.667 0,21.333 0,32 11,21.333 22,42.667 33,64 -11,10.667 -22,21.333 -33,32 21.67,0 43.33,0 65,0 10.67,32.333 21.33,64.667 32,97 -10.67,10.667 -21.33,21.333 -32,32 0,21.333 0,42.667 0,64 -10.67,0 -21.33,0 -32,0 0,10.667 0,21.333 0,32 -11,0 -22,0 -33,0 11,10.667 22,21.333 33,32 0,21.667 0,43.333 0,65 21.33,10.667 42.67,21.333 64,32 -10.67,10.667 -21.33,21.333 -32,32 10.67,10.667 21.33,21.333 32,32 -10.67,0 -21.33,0 -32,0 0,53.667 0,107.333 0,161 -21.67,21.333 -43.33,42.667 -65,64 -10.67,0 -21.33,0 -32,0 10.67,21.667 21.33,43.333 32,65 11,10.667 22,21.333 33,32 -0.1,10.771 0.15,21.593 -0.11,32.332 -11.03,31.989 -21.95,64.023 -33.05,95.983 -10.61,21.562 -21.23,43.123 -31.84,64.685 32.33,32 64.67,64 97,96 21.33,0 42.67,0 64,0 21.33,-21.333 42.67,-42.667 64,-64 0,-32.333 0,-64.667 0,-97 -10.67,-10.667 -21.33,-21.333 -32,-32 10.67,-32 21.33,-64 32,-96 0,-32.333 0,-64.667 0,-97 10.67,-10.667 21.33,-21.333 32,-32 -10.67,-10.667 -21.33,-21.333 -32,-32 0,-32.333 0,-64.667 0,-97 40.16,-19.713 80.28,-39.529 120.25,-59.626 2.92,-1.458 5.83,-2.916 8.75,-4.374 0,-10.667 0,-21.333 0,-32 10.67,-21.333 21.33,-42.667 32,-64 0,-43 0,-86 0,-129 21.33,-21.333 42.67,-42.667 64,-64 21.67,10.667 43.33,21.333 65,32 10.67,10.667 21.33,21.333 32,32 10.67,0 21.33,0 32,0 0,-21.333 0,-42.667 0,-64 10.67,10.667 21.33,21.333 32,32 0.1,10.772 -0.15,21.591 0.11,32.333 10.63,32.223 21.26,64.445 31.89,96.667 -10.67,0 -21.33,0 -32,0 0,42.667 0,85.333 0,128 -10.67,10.667 -21.33,21.333 -32,32 10.67,10.667 21.33,21.333 32,32 0,53.667 0,107.333 0,161 10.67,0 21.33,0 32,0 0,10.667 0,21.333 0,32 21.67,11 43.33,22 65,33 -11,0 -22,0 -33,0 0,10.667 0,21.333 0,32 11,10.667 22,21.333 33,32 -11,0 -22,0 -33,0 0,32 0,64 0,96 21.67,0 43.33,0 65,0 10.67,21.667 21.33,43.333 32,65 10.67,-11 21.33,-22 32,-33 0,-21.333 0,-42.667 0,-64 10.67,-10.667 21.33,-21.333 32,-32 10.67,10.667 21.33,21.333 32,32 21.67,-10.667 43.33,-21.333 65,-32 21.33,0 42.67,0 64,0 10.67,-10.667 21.33,-21.333 32,-32 0,10.667 0,21.333 0,32 10.67,-21.333 21.33,-42.667 32,-64 10.67,0 21.33,0 32,0 0,-10.667 0,-21.333 0,-32 11,0 22,0 33,0 10.67,-11 21.33,-22 32,-33 10.67,0 21.33,0 32,0 10.67,11 21.33,22 32,33 10.67,0 21.33,0 32,0 -10.67,-11 -21.33,-22 -32,-33 10.67,-10.667 21.33,-21.333 32,-32 -10.67,-10.667 -21.33,-21.333 -32,-32 43,0 86,0 129,0 0,10.667 0,21.333 0,32 21.33,0 42.67,0 64,0 0,-10.667 0,-21.333 0,-32 -10.67,0 -21.33,0 -32,0 10.67,0 21.33,0 32,0 -10.67,0 -21.33,0 -32,0 32,-10.667 64,-21.333 96,-32 0,-32.333 0,-64.667 0,-97 21.67,0 43.33,0 65,0 0,-10.667 0,-21.333 0,-32 0,21.667 0,43.333 0,65 10.67,-11 21.33,-22 32,-33 10.67,0 21.33,0 32,0 0,-10.667 0,-21.333 0,-32 21.33,0 42.67,0 64,0 10.67,-10.667 21.33,-21.333 32,-32 0,-10.667 0,-21.333 0,-32 11,0 22,0 33,0 10.67,-21.333 21.33,-42.667 32,-64 10.67,10.667 21.33,21.333 32,32 10.67,-10.667 21.33,-21.333 32,-32 10.67,10.667 21.33,21.333 32,32 21.33,-10.667 42.67,-21.333 64,-32 0,-10.667 0,-21.333 0,-32 11,-11 22,-22 33,-33 10.67,0 21.33,0 32,0 10.67,-10.667 21.33,-21.333 32,-32 21.33,10.667 42.67,21.333 64,32 10.67,0 21.33,0 32,0 10.67,-10.667 21.33,-21.333 32,-32 0,10.667 0,21.333 0,32 -10.67,11 -21.33,22 -32,33 0,21.333 0,42.667 0,64 -10.67,10.667 -21.33,21.333 -32,32 0,43 0,86 0,129 10.67,21.333 21.33,42.667 32,64 -21.33,21.333 -42.67,42.667 -64,64 0,10.667 0,21.333 0,32 10.67,11 21.33,22 32,33 10.67,0 21.33,0 32,0 0,53.333 0,106.667 0,160 -21.33,32.333 -42.67,64.667 -64,97 0,10.667 0,21.333 0,32 10.67,-10.667 21.33,-21.333 32,-32 10.67,10.667 21.33,21.333 32,32 0,-10.667 0,-21.333 0,-32 10.67,10.667 21.33,21.333 32,32 11,-10.667 22,-21.333 33,-32 32,-10.667 64,-21.333 96,-32 0,-11 0,-22 0,-33 10.67,11 21.33,22 32,33 10.67,-11 21.33,-22 32,-33 11,11 22,22 33,33 10.67,-11 21.33,-22 32,-33 21.33,0 42.67,0 64,0 0,-32 0,-64 0,-96 10.67,0 21.33,0 32,0 -10.67,-43 -21.33,-86 -32,-129 10.67,-10.667 21.33,-21.333 32,-32 0,10.667 0,21.333 0,32 21.67,-10.667 43.33,-21.333 65,-32 0,10.667 0,21.333 0,32 10.67,-10.667 21.33,-21.333 32,-32 0,32.333 0,64.667 0,97 32,0 64,0 96,0 10.67,10.667 21.33,21.333 32,32 -10.67,10.667 -21.33,21.333 -32,32 0,10.667 0,21.333 0,32 10.67,-10.667 21.33,-21.333 32,-32 10.67,21.333 21.33,42.667 32,64 32.33,-10.667 64.67,-21.333 97,-32 21.33,0 42.67,0 64,0 10.67,32.333 21.33,64.667 32,97 10.67,10.667 21.33,21.333 32,32 0,10.667 0,21.333 0,32 11,10.667 22,21.333 33,32 10.67,-10.667 21.33,-21.333 32,-32 21.33,0 42.67,0 64,0 10.67,-32.333 21.33,-64.667 32,-97 10.67,11 21.33,22 32,33 21.67,0 43.33,0 65,0 0,10.667 0,21.333 0,32 0,-10.667 0,-21.333 0,-32 10.67,0 21.33,0 32,0 10.67,10.667 21.33,21.333 32,32 0,21.333 0,42.667 0,64 10.67,0 21.33,0 32,0 10.67,-10.667 21.33,-21.333 32,-32 0,10.667 0,21.333 0,32 11,10.667 22,21.333 33,32 21.33,0 42.67,0 64,0 10.67,-10.667 21.33,-21.333 32,-32 32,10.667 64,21.333 96,32 32.33,-10.667 64.67,-21.333 97,-32 32,21.333 64,42.667 96,64 0,11 0,22 0,33 193,214.333 386,428.667 579,643 10.73,-32.432 21.34,-64.915 32.16,-97.314 10.61,-21.229 21.23,-42.457 31.84,-63.686 11.02,-10.795 22.3,-21.402 33.16,-32.315 10.61,-21.562 21.23,-43.123 31.84,-64.685 10.69,-10.793 21.62,-21.411 32.16,-32.314 10.61,-21.229 21.23,-42.457 31.84,-63.686 10.67,0 21.33,0 32,0 10.67,-10.667 21.33,-21.333 32,-32 0,-32.333 0,-64.667 0,-97 -21.33,0 -42.67,0 -64,0 -21.33,-21.333 -42.67,-42.667 -64,-64 0,-21.333 0,-42.667 0,-64 -10.67,-32.333 -21.33,-64.667 -32,-97 10.67,-10.667 21.33,-21.333 32,-32 -10.67,-21.333 -21.33,-42.667 -32,-64 0,-43 0,-86 0,-129 10.67,0 21.33,0 32,0 21.33,-21.333 42.67,-42.667 64,-64 -10.67,-21.333 -21.33,-42.667 -32,-64 0,-11 0,-22 0,-33 -21.33,-10.667 -42.67,-21.333 -64,-32 10.67,-10.667 21.33,-21.333 32,-32 0,-10.667 0,-21.333 0,-32 -21.67,-10.667 -43.33,-21.333 -65,-32 0,-10.667 0,-21.333 0,-32 11,0 22,0 33,0 -11,-11 -22,-22 -33,-33 11,-10.667 22,-21.333 33,-32 -11,0 -22,0 -33,0 11.02,-10.795 22.29,-21.403 33.16,-32.314 10.61,-21.229 21.23,-42.457 31.84,-63.686 -32.33,-10.667 -64.67,-21.333 -97,-32 21.67,-10.667 43.33,-21.333 65,-32 10.67,-11 21.33,-22 32,-33 0,-10.667 0,-21.333 0,-32 10.67,0 21.33,0 32,0 0,-21.333 0,-42.667 0,-64 -10.67,-10.667 -21.33,-21.333 -32,-32 10.67,0 21.33,0 32,0 0,-10.667 0,-21.333 0,-32 10.69,-11.125 21.61,-22.085 32.16,-33.314 10.61,-21.229 21.23,-42.457 31.84,-63.686 10.67,10.667 21.33,21.333 32,32 10.67,-10.667 21.33,-21.333 32,-32 43,21.333 86,42.667 129,64 32.33,0 64.67,0 97,0 10.67,11 21.33,22 32,33 -10.67,42.667 -21.33,85.333 -32,128 10.67,53.667 21.33,107.333 32,161 32,10.667 64,21.333 96,32 21.33,-10.667 42.67,-21.333 64,-32 11,0 22,0 33,0 21.33,10.667 42.67,21.333 64,32 10.67,0 21.33,0 32,0 21.33,-10.667 42.67,-21.333 64,-32 21.67,0 43.33,0 65,0 -21.67,43 -43.33,86 -65,129 0,21.333 0,42.667 0,64 43,10.667 86,21.333 129,32 21.33,-10.667 42.67,-21.333 64,-32 21.67,10.667 43.33,21.333 65,32 10.67,10.667 21.33,21.333 32,32 -32.33,10.667 -64.67,21.333 -97,32 -10.67,11 -21.33,22 -32,33 32.33,32 64.67,64 97,96 0,21.333 0,42.667 0,64 10.67,10.667 21.33,21.333 32,32 10.67,0 21.33,0 32,0 10.67,-32 21.33,-64 32,-96 32.33,-10.667 64.67,-21.333 97,-32 0,-21.333 0,-42.667 0,-64 10.67,-11 21.33,-22 32,-33 10.67,0 21.33,0 32,0 10.67,-21.333 21.33,-42.667 32,-64 32.28,32.057 64.06,64.607 96,97 21.67,0 43.33,0 65,0 32,10.667 64,21.333 96,32 10.67,-10.667 21.33,-21.333 32,-32 32.33,0 64.67,0 97,0 0,10.667 0,21.333 0,32 10.67,0 21.33,0 32,0 -10.67,10.667 -21.33,21.333 -32,32 21.33,0 42.67,0 64,0 10.67,-21.333 21.33,-42.667 32,-64 10.67,0 21.33,0 32,0 0,-21.667 0,-43.333 0,-65 21.67,0 43.33,0 65,0 10.67,-10.667 21.33,-21.333 32,-32 -10.67,-32 -21.33,-64 -32,-96 32,-11 64,-22 96,-33 0,-10.667 0,-21.333 0,-32 21.67,0 43.33,0 65,0 10.67,-10.667 21.33,-21.333 32,-32 21.33,10.667 42.67,21.333 64,32 21.33,-10.667 42.67,-21.333 64,-32 10.67,10.667 21.33,21.333 32,32 -10.67,10.667 -21.33,21.333 -32,32 21.67,11 43.33,22 65,33 10.67,-11 21.33,-22 32,-33 21.33,11 42.67,22 64,33 21.33,-11 42.67,-22 64,-33 0,-21.333 0,-42.667 0,-64 -10.67,0 -21.33,0 -32,0 21.33,-21.333 42.67,-42.667 64,-64 21.67,0 43.33,0 65,0 10.67,-10.667 21.33,-21.333 32,-32 0,21.333 0,42.667 0,64 10.67,0 21.33,0 32,0 0,-10.667 0,-21.333 0,-32 10.67,-10.667 21.33,-21.333 32,-32 10.67,10.667 21.33,21.333 32,32 0,10.667 0,21.333 0,32 11,-10.667 22,-21.333 33,-32 0,-21.333 0,-42.667 0,-64 21.33,0 42.67,0 64,0 0,-11 0,-22 0,-33 10.67,11 21.33,22 32,33 21.33,-11 42.67,-22 64,-33 11,-10.667 22,-21.333 33,-32 10.67,0 21.33,0 32,0 21.33,-10.667 42.67,-21.333 64,-32 21.33,0 42.67,0 64,0 0,-32 0,-64 0,-96 32.33,0 64.67,0 97,0 0,10.667 0,21.333 0,32 10.67,0 21.33,0 32,0 0,-10.667 0,-21.333 0,-32 21.33,-21.667 42.67,-43.333 64,-65 21.33,0 42.67,0 64,0 11,-21.333 22,-42.667 33,-64 32,-10.667 64,-21.333 96,-32 0,-10.667 0,-21.333 0,-32 21.33,-21.667 42.67,-43.333 64,-65 21.67,-10.667 43.33,-21.333 65,-32 10.67,-21.333 21.33,-42.667 32,-64 21.33,0 42.67,0 64,0 0,21.333 0,42.667 0,64 10.67,-10.667 21.33,-21.333 32,-32 0,21.333 0,42.667 0,64 32.33,-10.667 64.67,-21.333 97,-32 0,-21.333 0,-42.667 0,-64 10.67,0 21.33,0 32,0 0,-10.667 0,-21.333 0,-32 10.67,-21.667 21.33,-43.333 32,-65 10.67,0 21.33,0 32,0 0,-21.333 0,-42.667 0,-64 21.67,-10.667 43.33,-21.333 65,-32 -11,-10.667 -22,-21.333 -33,-32 11,0 22,0 33,0 107,-64.333 214,-128.667 321,-193 182.45,10.66 364.9,21.374 547.35,32 289.22,0 578.43,0 867.65,0 0,-43 0,-86 0,-129 21.33,-21.333 42.67,-42.667 64,-64 10.67,0 21.33,0 32,0 21.67,-182 43.33,-364 65,-546 10.67,10.667 21.33,21.333 32,32 0,32 0,64 0,96 10.67,0 21.33,0 32,0 10.67,10.667 21.33,21.333 32,32 21.33,-10.667 42.67,-21.333 64,-32 10.67,10.667 21.33,21.333 32,32 0,-10.667 0,-21.333 0,-32 0,21.667 0,43.333 0,65 21.67,10.667 43.33,21.333 65,32 -10.67,21.333 -21.33,42.667 -32,64 10.67,0 21.33,0 32,0 -10.67,10.667 -21.33,21.333 -32,32 10.67,10.667 21.33,21.333 32,32 -10.67,10.667 -21.33,21.333 -32,32 10.67,11 21.33,22 32,33 0,42.667 0,85.333 0,128 -10.67,10.667 -21.33,21.333 -32,32 0,32.333 0,64.667 0,97 -11,10.667 -22,21.333 -33,32 11,10.667 22,21.333 33,32 -11,21.333 -22,42.667 -33,64 21.67,11 43.33,22 65,33 42.67,-11 85.33,-22 128,-33 0,-10.667 0,-21.333 0,-32 43,0 86,0 129,0 32.33,-10.667 64.67,-21.333 97,-32 10.67,-10.667 21.33,-21.333 32,-32 10.67,10.667 21.33,21.333 32,32 53.67,-21.333 107.33,-42.667 161,-64 0,10.667 0,21.333 0,32 32,-10.667 64,-21.333 96,-32 43,0 86,0 129,0 18.3,-18.252 36.6,-36.508 54.48,-55.182 3.17,-3.273 6.35,-6.545 9.52,-9.818 0,-10.667 0,-21.333 0,-32 32,-10.667 64,-21.333 96,-32 21.67,10.667 43.33,21.333 65,32 42.67,-21.333 85.33,-42.667 128,-64 11,-10.667 22,-21.333 33,-32 0,21.333 0,42.667 0,64 -21.67,43 -43.33,86 -65,129 -21.33,10.667 -42.67,21.333 -64,32 -21.33,21.333 -42.67,42.667 -64,64 -21.67,0 -43.33,0 -65,0 -10.67,10.667 -21.33,21.333 -32,32 -32,11 -64,22 -96,33 -11,10.667 -22,21.333 -33,32 -10.67,0 -21.33,0 -32,0 -10.67,10.667 -21.33,21.333 -32,32 -10.67,0 -21.33,0 -32,0 -21.33,-10.667 -42.67,-21.333 -64,-32 -21.67,0 -43.33,0 -65,0 -10.67,10.667 -21.33,21.333 -32,32 -32,10.667 -64,21.333 -96,32 0,21.333 0,42.667 0,64 -10.67,10.667 -21.33,21.333 -32,32 0,21.667 0,43.333 0,65 -10.69,10.792 -21.62,21.414 -32.16,32.312 -12.31,24.082 -24.98,47.98 -37.03,72.19 -9.27,18.833 -18.54,37.665 -27.81,56.498 -32,32 -64,64 -96,96 20.03,39.935 39.95,79.927 59.59,120.052 1.47,2.983 2.94,5.965 4.41,8.948 10.67,0 21.33,0 32,0 10.67,10.667 21.33,21.333 32,32 0,32 0,64 0,96 -21.33,10.667 -42.67,21.333 -64,32 10.67,21.667 21.33,43.333 32,65 -21.33,10.667 -42.67,21.333 -64,32 10.67,10.667 21.33,21.333 32,32 10.67,0 21.33,0 32,0 0,32 0,64 0,96 -21.33,11 -42.67,22 -64,33 0,21.333 0,42.667 0,64 -10.67,32 -21.33,64 -32,96 -10.67,11 -21.33,22 -32,33 0,10.667 0,21.333 0,32 42.67,0 85.33,0 128,0 0,42.667 0,85.333 0,128 -21.33,32.333 -42.67,64.667 -64,97 32,21.333 64,42.667 96,64 11,0 22,0 33,0 0,21.333 0,42.667 0,64 10.67,32.333 21.33,64.667 32,97 21.33,0 42.67,0 64,0 43,-21.333 86,-42.667 129,-64 32,-32.333 64,-64.667 96,-97 21.33,10.667 42.67,21.333 64,32 53.67,-10.667 107.33,-21.333 161,-32 64.33,-43 128.67,-86 193,-129 10.67,-10.667 21.33,-21.333 32,-32 21.67,0 43.33,0 65,0 21.67,-10.769 43.25,-21.756 64.98,-32.389 53.34,-21.204 106.68,-42.407 160.02,-63.611 21.33,10.667 42.67,21.333 64,32 10.67,10.667 21.33,21.333 32,32 -0.1,10.777 0.11,21.581 -0.1,32.341 -10.64,42.886 -21.28,85.773 -31.92,128.659 -53.88,32.095 -107.71,64.29 -161.62,96.322 -21.13,10.892 -42.25,21.785 -63.38,32.678 -21.33,42.667 -42.67,85.333 -64,128 -21.67,10.667 -43.33,21.333 -65,32 -10.67,10.667 -21.33,21.333 -32,32 -35.23,12.031 -70.37,24.355 -105.67,36.189 -62.39,20.5 -124.7,41.239 -187,62.021 -31.11,10.263 -62.22,20.527 -93.33,30.79 -10.67,21.333 -21.33,42.667 -32,64 -32,21.667 -64,43.333 -96,65 0,21.333 0,42.667 0,64 21.33,-10.667 42.67,-21.333 64,-32 10.82,21.515 21.45,43.141 32.39,64.586 21.2,32.138 42.41,64.276 63.61,96.414 0,10.667 0,21.333 0,32 -32,10.667 -64,21.333 -96,32 0,10.667 0,21.333 0,32 10.67,0 21.33,0 32,0 0,21.333 0,42.667 0,64 -10.67,21.667 -21.33,43.333 -32,65 -21.33,21.333 -42.67,42.667 -64,64 10.67,21.333 21.33,42.667 32,64 -10.67,21.667 -21.33,43.333 -32,65 10.67,21.333 21.33,42.667 32,64 10.67,10.667 21.33,21.333 32,32 10.67,-10.667 21.33,-21.333 32,-32 10.67,10.667 21.33,21.333 32,32 43,-10.667 86,-21.333 129,-32 42.67,42.667 85.33,85.333 128,128 -42.67,43 -85.33,86 -128,129 -43,21.333 -86,42.667 -129,64 -10.67,21.667 -21.33,43.333 -32,65 -10.67,0 -21.33,0 -32,0 -21.33,21.333 -42.67,42.667 -64,64 -21.67,43 -43.33,86 -65,129 -10.67,10.667 -21.33,21.333 -32,32 10.79,10.687 21.41,21.623 32.31,32.155 21.57,10.615 43.13,21.23 64.69,31.845 10.67,10.667 21.33,21.333 32,32 0,10.667 0,21.333 0,32 -10.67,0 -21.33,0 -32,0 -43,32.333 -86,64.667 -129,97 0,10.667 0,21.333 0,32 21.33,10.667 42.67,21.333 64,32 32.33,-10.667 64.67,-21.333 97,-32 21.33,43 42.67,86 64,129 -10.67,10.667 -21.33,21.333 -32,32 -75,21.333 -150,42.667 -225,64 -10.67,10.667 -21.33,21.333 -32,32 32,21.667 64,43.333 96,65 -10.67,21.333 -21.33,42.667 -32,64 0,10.667 0,21.333 0,32 32,0 64,0 96,0 21.67,21.333 43.33,42.667 65,64 0,21.667 0,43.333 0,65 -43,75 -86,150 -129,225 0,42.667 0,85.333 0,128 -10.67,32.333 -21.33,64.667 -32,97 53.88,32.089 107.7,64.3 161.63,96.314 21.12,10.562 42.25,21.124 63.37,31.686 10.67,11 21.33,22 32,33 -10.67,32 -21.33,64 -32,96 21.33,21.333 42.67,42.667 64,64 -10.69,10.794 -21.62,21.41 -32.16,32.314 -21.28,42.896 -42.56,85.791 -63.84,128.686 -32.33,21.333 -64.67,42.667 -97,64 21.67,0 43.33,0 65,0 10.67,21.667 21.33,43.333 32,65 -21.33,32 -42.67,64 -64,96 -11,0 -22,0 -33,0 -10.67,-10.667 -21.33,-21.333 -32,-32 -21.33,21.333 -42.67,42.667 -64,64 21.33,10.667 42.67,21.333 64,32 32.33,0 64.67,0 97,0 32,21.667 64,43.333 96,65 21.33,0 42.67,0 64,0 0,42.667 0,85.333 0,128 21.79,10.662 43.5,21.55 65.34,32.07 53.56,10.977 107.11,21.953 160.66,32.93 32,-11 64,-22 96,-33 21.33,11 42.67,22 64,33 11,21.333 22,42.667 33,64 -11,32 -22,64 -33,96 32.33,0 64.67,0 97,0 0,21.667 0,43.333 0,65 10.67,0 21.33,0 32,0 40.09,-19.981 80.12,-40.079 120.02,-60.441 2.99,-1.52 5.99,-3.039 8.98,-4.559 21.33,21.667 42.67,43.333 64,65 -21.33,42.667 -42.67,85.333 -64,128 32,21.667 64,43.333 96,65 21.33,0 42.67,0 64,0 10.67,21.333 21.33,42.667 32,64 0,10.667 0,21.333 0,32 11,0 22,0 33,0 10.67,-10.667 21.33,-21.333 32,-32 21.33,0 42.67,0 64,0 10.67,10.667 21.33,21.333 32,32 -10.67,21.333 -21.33,42.667 -32,64 32.33,0 64.67,0 97,0 21.33,11 42.67,22 64,33 10.67,64 21.33,128 32,192 10.69,11.125 21.61,22.085 32.16,33.314 10.61,21.229 21.23,42.457 31.84,63.686 21.67,10.667 43.33,21.333 65,32 21.33,0 42.67,0 64,0 10.67,10.667 21.33,21.333 32,32 -10.67,21.667 -21.33,43.333 -32,65 0,10.667 0,21.333 0,32 -21.33,21.333 -42.67,42.667 -64,64 0,32.333 0,64.667 0,97 -10.67,10.667 -21.33,21.333 -32,32 -21.67,0 -43.33,0 -65,0 -21.33,21.333 -42.67,42.667 -64,64 -10.67,0 -21.33,0 -32,0 -10.67,10.667 -21.33,21.333 -32,32 -32.33,-10.667 -64.67,-21.333 -97,-32 -21.33,-32 -42.67,-64 -64,-96 -10.67,10.667 -21.33,21.333 -32,32 0,10.667 0,21.333 0,32 10.67,0 21.33,0 32,0 0,10.667 0,21.333 0,32 10.67,10.667 21.33,21.333 32,32 0,21.333 0,42.667 0,64 -10.69,11.125 -21.61,22.085 -32.16,33.314 -10.61,21.229 -21.23,42.457 -31.84,63.686 32,32 64,64 96,96 0,21.667 0,43.333 0,65 -10.67,10.667 -21.33,21.333 -32,32 10.67,0 21.33,0 32,0 -10.67,10.667 -21.33,21.333 -32,32 43,43 86,86 129,129 -11,10.667 -22,21.333 -33,32 -21.33,-10.667 -42.67,-21.333 -64,-32 10.67,21.333 21.33,42.667 32,64 -10.67,0 -21.33,0 -32,0 10.67,10.667 21.33,21.333 32,32 0,10.667 0,21.333 0,32 -10.67,0 -21.33,0 -32,0 10.67,0 21.33,0 32,0 10.67,10.667 21.33,21.333 32,32 -10.67,32.333 -21.33,64.667 -32,97 -21.33,10.667 -42.67,21.333 -64,32 32,32 64,64 96,96 0,11 0,22 0,33 -21.33,21.333 -42.67,42.667 -64,64 10.67,10.667 21.33,21.333 32,32 0,21.333 0,42.667 0,64 -21.33,10.667 -42.67,21.333 -64,32 -10.67,0 -21.33,0 -32,0 0,-10.667 0,-21.333 0,-32 0,10.667 0,21.333 0,32 -21.67,0 -43.33,0 -65,0 0,21.667 0,43.333 0,65 -10.67,10.667 -21.33,21.333 -32,32 32.06,32.278 64.61,64.061 97,96 10.67,0 21.33,0 32,0 0,43 0,86 0,129 -10.67,0 -21.33,0 -32,0 0,107.333 0,214.667 0,322 -18.25,18.304 -36.51,36.603 -55.18,54.479 -3.27,3.174 -6.55,6.347 -9.82,9.521 0,10.667 0,21.333 0,32 -42.67,21.333 -85.33,42.667 -128,64 0,10.667 0,21.333 0,32 10.67,0 21.33,0 32,0 21.33,32.333 42.67,64.667 64,97 -10.67,32 -21.33,64 -32,96 -10.67,0 -21.33,0 -32,0 -10.82,21.85 -21.43,43.81 -32.39,65.58 -21.2,31.81 -42.41,63.61 -63.61,95.42 -21.67,-10.67 -43.33,-21.33 -65,-32 -10.67,43 -21.33,86 -32,129 -10.67,10.67 -21.33,21.33 -32,32 -32,0 -64,0 -96,0 -11,-21.67 -22,-43.33 -33,-65 -21.33,0 -42.67,0 -64,0 -10.67,11 -21.33,22 -32,33 -10.67,0 -21.33,0 -32,0 -21.67,-21.67 -43.33,-43.33 -65,-65 0,-10.67 0,-21.33 0,-32 -10.67,0 -21.33,0 -32,0 10.67,32.33 21.33,64.67 32,97 -32,32 -64,64 -96,96 -43,-21.33 -86,-42.67 -129,-64 -10.67,0 -21.33,0 -32,0 0,10.67 0,21.33 0,32 -21.33,0 -42.67,0 -64,0 -10.67,-32.33 -21.33,-64.67 -32,-97 -21.67,0 -43.33,0 -65,0 -21.33,11 -42.67,22 -64,33 -42.67,0 -85.33,0 -128,0 -11,-11 -22,-22 -33,-33 0,-21.33 0,-42.67 0,-64 -21.33,0 -42.67,0 -64,0 -10.67,-10.67 -21.33,-21.33 -32,-32 -10.67,0 -21.33,0 -32,0 10.67,-21.33 21.33,-42.67 32,-64 0,-10.67 0,-21.33 0,-32 10.67,-11 21.33,-22 32,-33 10.67,-32 21.33,-64 32,-96 -21.33,0 -42.67,0 -64,0 -10.67,-10.667 -21.33,-21.333 -32,-32 0,-53.667 0,-107.333 0,-161 -21.67,0 -43.33,0 -65,0 0,-21.333 0,-42.667 0,-64 -32,-10.667 -64,-21.333 -96,-32 -10.67,0 -21.33,0 -32,0 -10.67,-11 -21.33,-22 -32,-33 -11,0 -22,0 -33,0 -42.67,-42.667 -85.33,-85.333 -128,-128 -43,-21.333 -86,-42.667 -129,-64 -21.33,-32.333 -42.67,-64.667 -64,-97 -32,0 -64,0 -96,0 -11,-32 -22,-64 -33,-96 0,-11 0,-22 0,-33 -32,11 -64,22 -96,33 -21.33,-11 -42.67,-22 -64,-33 -11,21.667 -22,43.333 -33,65 11,21.333 22,42.667 33,64 -18.75,18.136 -37.51,36.267 -55.83,54.833 -3.2,3.049 -6.17,6.456 -9.5,9.281 -31.89,10.962 -63.78,21.924 -95.67,32.886 -10.67,0 -21.33,0 -32,0 0,32 0,64 0,96 -32.33,21.333 -64.67,42.667 -97,64 0,21.667 0,43.333 0,65 10.67,21.333 21.33,42.667 32,64 0,21.333 0,42.667 0,64 32.33,10.667 64.67,21.333 97,32 10.67,0 21.33,0 32,0 21.33,32.333 42.67,64.667 64,97 -21.46,53.868 -42.77,107.8 -64.31,161.63 -10.56,21.25 -21.35,42.41 -31.76,63.71 -10.64,53.56 -21.29,107.11 -31.93,160.66 10.67,21.33 21.33,42.67 32,64 0,21.33 0,42.67 0,64 10.79,10.69 21.41,21.62 32.31,32.16 21.23,10.95 42.46,21.89 63.69,32.84 0,21.33 0,42.67 0,64 -10.67,10.67 -21.33,21.33 -32,32 -10.67,32 -21.33,64 -32,96 21.33,11 42.67,22 64,33 0,10.67 0,21.33 0,32 10.67,10.67 21.33,21.33 32,32 11,43 22,86 33,129 -11,10.67 -22,21.33 -33,32 -21.33,-10.67 -42.67,-21.33 -64,-32 -10.67,0 -21.33,0 -32,0 -21.33,21.33 -42.67,42.67 -64,64 -11,0 -22,0 -33,0 -32,32 -64,64 -96,96 -21.33,-10.67 -42.67,-21.33 -64,-32 -21.67,10.67 -43.33,21.33 -65,32 -10.77,0.1 -21.59,-0.15 -32.33,0.11 -31.89,10.63 -63.78,21.26 -95.67,31.89 -39.93,-20.03 -79.93,-39.95 -120.05,-59.59 -4.65,-2.33 -9.52,-4.28 -13.44,-7.78 -41.17,-30.88 -82.34,-61.75 -123.51,-92.63 -32.43,-10.74 -64.92,-21.34 -97.31,-32.16 -42.57,-21.61 -85.13,-43.23 -127.69,-64.84 -43,-10.67 -86,-21.33 -129,-32 -43,-21.33 -86,-42.67 -129,-64 -64.79,-10.78 -129.6,-21.41 -194.38,-32.28 -52.87,-10.91 -105.75,-21.81 -158.62,-32.72 -11,21.67 -22,43.33 -33,65 -85.67,53.67 -171.33,107.33 -257,161 -10.67,10.67 -21.33,21.33 -32,32 0,21.33 0,42.67 0,64 21.33,21.33 42.67,42.67 64,64 21.67,10.67 43.33,21.33 65,32 0,21.67 0,43.33 0,65 21.33,10.67 42.67,21.33 64,32 -10.69,10.79 -21.62,21.41 -32.16,32.31 -32.06,64.34 -64.51,128.49 -96.84,192.69 -10.67,32 -21.33,64 -32,96 -32,43 -64,86 -96,129 10.67,32.33 21.33,64.67 32,97 -10.67,10.67 -21.33,21.33 -32,32 21.33,42.67 42.67,85.33 64,128 23.37,-23.26 46.52,-46.75 70.05,-69.86 8.98,-8.72 17.97,-17.43 26.95,-26.14 21.33,0 42.67,0 64,0 0,75 0,150 0,225 32,0 64,0 96,0 53.67,64.33 107.33,128.67 161,193 -10.67,42.67 -21.33,85.33 -32,128 -21.33,0 -42.67,0 -64,0 -21.67,21.67 -43.33,43.33 -65,65 32.33,10.67 64.67,21.33 97,32 0,10.67 0,21.33 0,32 -21.67,21.33 -43.33,42.67 -65,64 -32.1,11.07 -64.25,22.02 -96.31,33.16 -21.23,10.61 -42.46,21.23 -63.69,31.84 -21.72,21.44 -43.55,42.78 -65.21,64.28 -31.93,42.91 -63.86,85.81 -95.79,128.72 0,64 0,128 0,192 -21.33,64.33 -42.67,128.67 -64,193 0,75 0,150 0,225 42.67,32.33 85.33,64.67 128,97 32.33,10.67 64.67,21.33 97,32 21.33,21.33 42.67,42.67 64,64 10.67,0 21.33,0 32,0 0,11 0,22 0,33 43,10.67 86,21.33 129,32 0,10.67 0,21.33 0,32 -10.67,21.33 -21.33,42.67 -32,64 10.67,21.33 21.33,42.67 32,64 -10.67,53.67 -21.33,107.33 -32,161 21.33,43 42.67,86 64,129 32,32 64,64 96,96 0,32.33 0,64.67 0,97 21.67,53.67 43.33,107.33 65,161 -21.67,42.67 -43.33,85.33 -65,128 11,10.67 22,21.33 33,32 -11,10.67 -22,21.33 -33,32 32.33,53.67 64.67,107.33 97,161 0,21.67 0,43.33 0,65 -10.67,10.67 -21.33,21.33 -32,32 0,10.67 0,21.33 0,32 -21.78,0.1 -43.58,-0.11 -65.34,0.1 -214.45,53.67 -428.89,107.42 -643.35,161.06 -149.77,31.95 -299.54,63.9 -449.31,95.85 -42.74,32.43 -85.56,64.76 -128.25,97.24 -10.92,10.59 -21.83,21.17 -32.75,31.76 -10.67,-10.67 -21.33,-21.33 -32,-32 -10.67,10.67 -21.33,21.33 -32,32 -32.28,-32.06 -64.06,-64.61 -96,-97 -21.67,10.67 -43.33,21.33 -65,32 10.67,-21.33 21.33,-42.67 32,-64 -10.67,-10.67 -21.33,-21.33 -32,-32 -10.67,0 -21.33,0 -32,0 10.67,0 21.33,0 32,0 -10.67,10.67 -21.33,21.33 -32,32 -10.67,0 -21.33,0 -32,0 0,10.67 0,21.33 0,32 -10.67,0 -21.33,0 -32,0 0,10.67 0,21.33 0,32 -10.67,-10.67 -21.33,-21.33 -32,-32 -10.67,21.67 -21.33,43.33 -32,65 10.67,0 21.33,0 32,0 -10.67,0 -21.33,0 -32,0 0,10.67 0,21.33 0,32 10.67,0 21.33,0 32,0 -10.67,0 -21.33,0 -32,0 10.67,10.67 21.33,21.33 32,32 -10.67,0 -21.33,0 -32,0 10.67,0 21.33,0 32,0 -10.67,10.67 -21.33,21.33 -32,32 -11,0 -22,0 -33,0 -10.67,-10.67 -21.33,-21.33 -32,-32 0,21.33 0,42.67 0,64 -21.33,0 -42.67,0 -64,0 0,10.67 0,21.33 0,32 -10.67,0 -21.33,0 -32,0 0,10.67 0,21.33 0,32 -18.14,18.75 -36.27,37.51 -54.83,55.83 -3.06,3.06 -6.11,6.11 -9.17,9.17 0,10.67 0,21.33 0,32 -32.33,0 -64.67,0 -97,0 -21.33,10.67 -42.67,21.33 -64,32 -10.67,-10.67 -21.33,-21.33 -32,-32 -32.33,0 -64.67,0 -97,0 0,-10.67 0,-21.33 0,-32 0,10.67 0,21.33 0,32 -10.67,-10.67 -21.33,-21.33 -32,-32 0,10.67 0,21.33 0,32 -21.33,0 -42.67,0 -64,0 0,10.67 0,21.33 0,32 0,-10.67 0,-21.33 0,-32 0,21.33 0,42.67 0,64 -21.67,10.67 -43.33,21.33 -65,32 11,0 22,0 33,0 -21.67,0 -43.33,0 -65,0 0,-10.67 0,-21.33 0,-32 -10.67,0 -21.33,0 -32,0 -10.67,-21.33 -21.33,-42.67 -32,-64 -10.67,10.67 -21.33,21.33 -32,32 0,-10.67 0,-21.33 0,-32 -10.67,0 -21.33,0 -32,0 0,-10.67 0,-21.33 0,-32 -21.67,0 -43.33,0 -65,0 0,-10.67 0,-21.33 0,-32 -10.67,0 -21.33,0 -32,0 0,-11 0,-22 0,-33 -10.67,0 -21.33,0 -32,0 0,-64 0,-128 0,-192 10.67,0 21.33,0 32,0 0,-21.67 0,-43.33 0,-65 -10.67,-10.67 -21.33,-21.33 -32,-32 21.33,0 42.67,0 64,0 0,-21.33 0,-42.67 0,-64 -10.67,0 -21.33,0 -32,0 0,-10.67 0,-21.33 0,-32 10.67,-11 21.33,-22 32,-33 -21.33,0 -42.67,0 -64,0 10.67,-10.67 21.33,-21.33 32,-32 -10.67,-10.67 -21.33,-21.33 -32,-32 0,-21.33 0,-42.67 0,-64 -10.67,0 -21.33,0 -32,0 10.67,0 21.33,0 32,0 10.67,-21.33 21.33,-42.67 32,-64 0,-11 0,-22 0,-33 -10.67,0 -21.33,0 -32,0 10.67,-10.67 21.33,-21.33 32,-32 0,-42.67 0,-85.33 0,-128 10.67,-11 21.33,-22 32,-33 10.67,0 21.33,0 32,0 0,-21.33 0,-42.67 0,-64 11,0 22,0 33,0 0,-10.67 0,-21.33 0,-32 10.67,-10.67 21.33,-21.33 32,-32 10.67,-32.33 21.33,-64.67 32,-97 10.67,0 21.33,0 32,0 0,-21.33 0,-42.67 0,-64 10.67,-10.67 21.33,-21.33 32,-32 0,-10.67 0,-21.33 0,-32 0,10.67 0,21.33 0,32 0,-21.33 0,-42.67 0,-64 10.67,0 21.33,0 32,0 0,-11 0,-22 0,-33 -10.67,-10.67 -21.33,-21.33 -32,-32 0,-21.33 0,-42.67 0,-64 10.67,-21.33 21.33,-42.67 32,-64 0,-21.67 0,-43.33 0,-65 -10.67,-10.67 -21.33,-21.33 -32,-32 -10.67,0 -21.33,0 -32,0 -10.67,-10.67 -21.33,-21.33 -32,-32 10.67,-10.67 21.33,-21.33 32,-32 0,-43 0,-86 0,-129 -10.67,-21.33 -21.33,-42.67 -32,-64 21.33,-53.67 42.67,-107.33 64,-161 10.67,-10.67 21.33,-21.33 32,-32 -10.67,-10.67 -21.33,-21.33 -32,-32 -10.77,-0.1 -21.59,0.15 -32.33,-0.11 -31.89,-10.63 -63.78,-21.26 -95.67,-31.89 -43,0 -86,0 -129,0 -10.67,-10.67 -21.33,-21.33 -32,-32 0,-11 0,-22 0,-33 -10.67,0 -21.33,0 -32,0 -21.67,-32 -43.33,-64 -65,-96 -21.33,0 -42.67,0 -64,0 0,-75 0,-150 0,-225 -1243.33,0 -2486.67,0 -3730,0 0,193 0,386 0,579 -21.33,0 -42.67,0 -64,0 -21.33,32 -42.67,64 -64,96 -10.73,32.68 -21.64,65.31 -32.26,98.02 -10.92,42.33 -21.83,84.65 -32.74,126.98 0,32.33 0,64.67 0,97 21.67,10.67 43.33,21.33 65,32 21.33,-10.67 42.67,-21.33 64,-32 10.67,21.46 21.53,42.84 32.08,64.34 10.64,42.89 21.28,85.77 31.92,128.66 -10.67,21.33 -21.33,42.67 -32,64 -10.67,0 -21.33,0 -32,0 -32.04,43.11 -64.2,86.15 -96.16,129.31 -10.95,21.23 -21.89,42.46 -32.84,63.69 -42.67,10.67 -85.33,21.33 -128,32 -21.67,32 -43.33,64 -65,96 0.1,32.45 -0.1,64.91 0.1,97.34 10.98,53.56 21.95,107.11 32.93,160.66 10.67,10.67 21.33,21.33 32,32 -10.67,10.67 -21.33,21.33 -32,32 0,32 0,64 0,96 10.67,0 21.33,0 32,0 0,21.67 0,43.33 0,65 -10.67,0 -21.33,0 -32,0 0,10.67 0,21.33 0,32 10.67,10.67 21.33,21.33 32,32 10.67,-10.67 21.33,-21.33 32,-32 21.33,10.67 42.67,21.33 64,32 0,32.33 0,64.67 0,97 -21.33,21.33 -42.67,42.67 -64,64 10.67,10.67 21.33,21.33 32,32 -10.73,32.1 -21.35,64.25 -32.16,96.31 -10.61,21.57 -21.23,43.13 -31.84,64.69 0,32 0,64 0,96 -10.67,32.33 -21.33,64.67 -32,97 0,10.67 0,21.33 0,32 728.67,0 1457.33,0 2186,0 214.45,-10.66 428.9,-21.37 643.35,-32 589.55,0 1179.1,0 1768.65,0 0,21.33 0,42.67 0,64 -11,10.67 -22,21.33 -33,32 11,10.67 22,21.33 33,32 0,10.67 0,21.33 0,32 -11,0 -22,0 -33,0 0,11 0,22 0,33 -10.67,10.67 -21.33,21.33 -32,32 0,-10.67 0,-21.33 0,-32 -10.67,0 -21.33,0 -32,0 0,10.67 0,21.33 0,32 -10.67,-10.67 -21.33,-21.33 -32,-32 0,32 0,64 0,96 -10.67,10.67 -21.33,21.33 -32,32 10.67,10.67 21.33,21.33 32,32 -10.67,0 -21.33,0 -32,0 0,11 0,22 0,33 -21.67,10.67 -43.33,21.33 -65,32 11,10.67 22,21.33 33,32 0,10.67 0,21.33 0,32 10.67,0 21.33,0 32,0 -10.67,10.67 -21.33,21.33 -32,32 10.67,10.67 21.33,21.33 32,32 -10.67,10.67 -21.33,21.33 -32,32 10.67,0 21.33,0 32,0 10.67,11 21.33,22 32,33 0,10.67 0,21.33 0,32 -10.67,10.67 -21.33,21.33 -32,32 10.67,0 21.33,0 32,0 10.67,21.33 21.33,42.67 32,64 -10.67,0 -21.33,0 -32,0 21.33,21.33 42.67,42.67 64,64 -10.67,0 -21.33,0 -32,0 10.67,32.33 21.33,64.67 32,97 -10.67,32 -21.33,64 -32,96 -10.67,0 -21.33,0 -32,0 0,11 0,22 0,33 -21.33,10.67 -42.67,21.33 -64,32 -11,21.33 -22,42.67 -33,64 11,10.67 22,21.33 33,32 -11,10.67 -22,21.33 -33,32 0,21.67 0,43.33 0,65 -10.67,10.67 -21.33,21.33 -32,32 -10.67,32 -21.33,64 -32,96 -10.67,0 -21.33,0 -32,0 -10.88,21.95 -21.54,44.02 -32.55,65.9 -32.15,53.03 -64.3,106.07 -96.45,159.1 -21.33,10.67 -42.67,21.33 -64,32 -18.14,18.75 -36.27,37.51 -54.83,55.83 -3.06,3.06 -6.11,6.11 -9.17,9.17 10.67,42.67 21.33,85.33 32,128 -10.67,32.33 -21.33,64.67 -32,97 -21.67,10.67 -43.33,21.33 -65,32 -10.67,21.33 -21.33,42.67 -32,64 -10.67,11 -21.33,22 -32,33 0,64 0,128 0,192 10.69,11.13 21.61,22.09 32.16,33.31 10.61,21.23 21.23,42.46 31.84,63.69 0,21.33 0,42.67 0,64 21.67,0 43.33,0 65,0 -10.67,10.67 -21.33,21.33 -32,32 10.67,10.67 21.33,21.33 32,32 0,-10.67 0,-21.33 0,-32 10.67,10.67 21.33,21.33 32,32 10.67,-10.67 21.33,-21.33 32,-32 10.67,10.67 21.33,21.33 32,32 -10.67,11 -21.33,22 -32,33 10.67,0 21.33,0 32,0 -10.67,10.67 -21.33,21.33 -32,32 10.67,0 21.33,0 32,0 -10.67,10.67 -21.33,21.33 -32,32 32.33,0 64.67,0 97,0 0,10.67 0,21.33 0,32 10.67,10.67 21.33,21.33 32,32 0,-10.67 0,-21.33 0,-32 21.33,0 42.67,0 64,0 0,32.33 0,64.67 0,97 10.67,0 21.33,0 32,0 0,-11 0,-22 0,-33 21.33,-10.67 42.67,-21.33 64,-32 0,10.67 0,21.33 0,32 21.67,0 43.33,0 65,0 0,11 0,22 0,33 10.67,0 21.33,0 32,0 -10.67,0 -21.33,0 -32,0 10.67,10.67 21.33,21.33 32,32 -10.67,10.67 -21.33,21.33 -32,32 10.67,10.67 21.33,21.33 32,32 21.33,-21.33 42.67,-42.67 64,-64 0,-10.67 0,-21.33 0,-32 10.67,10.67 21.33,21.33 32,32 -10.67,21.33 -21.33,42.67 -32,64 10.67,-10.67 21.33,-21.33 32,-32 11,21.33 22,42.67 33,64 0,10.67 0,21.33 0,32 10.67,-10.67 21.33,-21.33 32,-32 10.67,0 21.33,0 32,0 0,21.67 0,43.33 0,65 10.67,-11 21.33,-22 32,-33 0,21.67 0,43.33 0,65 10.67,0 21.33,0 32,0 0,21.33 0,42.67 0,64 10.67,10.67 21.33,21.33 32,32 18.25,-18.3 36.51,-36.6 55.18,-54.48 3.27,-3.17 6.55,-6.35 9.82,-9.52 10.67,21.33 21.33,42.67 32,64 -10.67,0 -21.33,0 -32,0 10.67,0 21.33,0 32,0 10.67,10.67 21.33,21.33 32,32 -21.33,10.67 -42.67,21.33 -64,32 10.67,11 21.33,22 32,33 10.67,-11 21.33,-22 32,-33 0,32.33 0,64.67 0,97 -10.67,10.67 -21.33,21.33 -32,32 21.33,0 42.67,0 64,0 21.33,10.67 42.67,21.33 64,32 0,32.33 0,64.67 0,97 -10.67,0 -21.33,0 -32,0 10.67,10.67 21.33,21.33 32,32 -10.69,10.79 -21.62,21.41 -32.16,32.31 -10.61,21.23 -21.23,42.46 -31.84,63.69 10.67,10.67 21.33,21.33 32,32 10.67,0 21.33,0 32,0 -10.67,0 -21.33,0 -32,0 0,21.67 0,43.33 0,65 21.67,0 43.33,0 65,0 0,53.33 0,106.67 0,160 21.33,11 42.67,22 64,33 -10.67,10.67 -21.33,21.33 -32,32 0,10.67 0,21.33 0,32 32,-10.67 64,-21.33 96,-32 -21.33,21.33 -42.67,42.67 -64,64 10.67,32.33 21.33,64.67 32,97 0,10.67 0,21.33 0,32 -21.33,0 -42.67,0 -64,0 10.67,21.33 21.33,42.67 32,64 10.67,0 21.33,0 32,0 0,10.67 0,21.33 0,32 10.67,0 21.33,0 32,0 -10.67,10.67 -21.33,21.33 -32,32 -10.67,0 -21.33,0 -32,0 10.67,10.67 21.33,21.33 32,32 10.67,0 21.33,0 32,0 -10.67,21.67 -21.33,43.33 -32,65 21.33,-10.67 42.67,-21.33 64,-32 10.67,0 21.33,0 32,0 11,21.33 22,42.67 33,64 10.67,0 21.33,0 32,0 10.67,10.67 21.33,21.33 32,32 -32.33,10.67 -64.67,21.33 -97,32 11,10.67 22,21.33 33,32 0,11 0,22 0,33 10.67,-11 21.33,-22 32,-33 10.67,11 21.33,22 32,33 -10.67,10.67 -21.33,21.33 -32,32 21.33,10.67 42.67,21.33 64,32 -10.67,10.67 -21.33,21.33 -32,32 10.67,10.67 21.33,21.33 32,32 10.67,-10.67 21.33,-21.33 32,-32 0,10.67 0,21.33 0,32 21.33,10.67 42.67,21.33 64,32 11,10.67 22,21.33 33,32 -11,11 -22,22 -33,33 -32,10.67 -64,21.33 -96,32 21.33,0 42.67,0 64,0 0,10.67 0,21.33 0,32 -10.67,0 -21.33,0 -32,0 0,10.67 0,21.33 0,32 21.33,-10.67 42.67,-21.33 64,-32 0,10.67 0,21.33 0,32 -21.33,10.67 -42.67,21.33 -64,32 10.67,10.67 21.33,21.33 32,32 -21.33,0 -42.67,0 -64,0 10.67,11 21.33,22 32,33 -10.67,0 -21.33,0 -32,0 0,10.67 0,21.33 0,32 -10.67,-10.67 -21.33,-21.33 -32,-32 0,10.67 0,21.33 0,32 0,-10.67 0,-21.33 0,-32 -10.67,10.67 -21.33,21.33 -32,32 0,10.67 0,21.33 0,32 -10.67,0 -21.33,0 -32,0 10.67,10.67 21.33,21.33 32,32 -21.67,-10.67 -43.33,-21.33 -65,-32 0,-10.67 0,-21.33 0,-32 -10.67,0 -21.33,0 -32,0 0,32 0,64 0,96 10.67,0 21.33,0 32,0 -10.67,10.67 -21.33,21.33 -32,32 0,-10.67 0,-21.33 0,-32 -10.67,10.67 -21.33,21.33 -32,32 -10.67,0 -21.33,0 -32,0 0,10.67 0,21.33 0,32 10.67,0 21.33,0 32,0 -10.67,11 -21.33,22 -32,33 -10.67,-11 -21.33,-22 -32,-33 -10.67,11 -21.33,22 -32,33 10.67,10.67 21.33,21.33 32,32 -32.33,-10.67 -64.67,-21.33 -97,-32 0,10.67 0,21.33 0,32 -10.67,0 -21.33,0 -32,0 0,10.67 0,21.33 0,32 10.67,0 21.33,0 32,0 -10.67,0 -21.33,0 -32,0 -10.67,-10.67 -21.33,-21.33 -32,-32 -10.67,10.67 -21.33,21.33 -32,32 0,-10.67 0,-21.33 0,-32 0,32 0,64 0,96 -10.67,0 -21.33,0 -32,0 -10.67,-10.67 -21.33,-21.33 -32,-32 0,10.67 0,21.33 0,32 -11,-10.67 -22,-21.33 -33,-32 0,32.33 0,64.67 0,97 -10.67,-21.67 -21.33,-43.33 -32,-65 -10.67,21.67 -21.33,43.33 -32,65 10.67,10.67 21.33,21.33 32,32 -10.67,0 -21.33,0 -32,0 0,10.67 0,21.33 0,32 -10.67,10.67 -21.33,21.33 -32,32 10.67,21.33 21.33,42.67 32,64 -21.33,-10.67 -42.67,-21.33 -64,-32 -21.33,10.67 -42.67,21.33 -64,32 10.67,10.67 21.33,21.33 32,32 -10.67,11 -21.33,22 -32,33 -11,-21.67 -22,-43.33 -33,-65 -21.33,10.67 -42.67,21.33 -64,32 0,-10.67 0,-21.33 0,-32 -10.67,10.67 -21.33,21.33 -32,32 10.67,11 21.33,22 32,33 -10.67,10.67 -21.33,21.33 -32,32 -32.33,0 -64.67,0 -97,0 11,10.67 22,21.33 33,32 -11,10.67 -22,21.33 -33,32 21.67,10.67 43.33,21.33 65,32 -32.33,0 -64.67,0 -97,0 21.67,21.67 43.33,43.33 65,65 0,10.67 0,21.33 0,32 -11,0 -22,0 -33,0 0,-10.67 0,-21.33 0,-32 -10.67,10.67 -21.33,21.33 -32,32 0,21.33 0,42.67 0,64 -32,0 -64,0 -96,0 -10.67,10.67 -21.33,21.33 -32,32 10.67,21.33 21.33,42.67 32,64 -10.67,0 -21.33,0 -32,0 10.67,11 21.33,22 32,33 -10.67,10.67 -21.33,21.33 -32,32 -10.67,-10.67 -21.33,-21.33 -32,-32 -21.67,0 -43.33,0 -65,0 0,21.33 0,42.67 0,64 -21.33,0 -42.67,0 -64,0 10.67,10.67 21.33,21.33 32,32 0,10.67 0,21.33 0,32 -32,10.67 -64,21.33 -96,32 0,11 0,22 0,33 10.67,0 21.33,0 32,0 10.67,10.67 21.33,21.33 32,32 0,10.67 0,21.33 0,32 -10.67,10.67 -21.33,21.33 -32,32 10.67,21.33 21.33,42.67 32,64 0,10.67 0,21.33 0,32 -21.33,-10.67 -42.67,-21.33 -64,-32 -11,10.67 -22,21.33 -33,32 -10.67,0 -21.33,0 -32,0 0,11 0,22 0,33 -10.67,0 -21.33,0 -32,0 21.33,21.33 42.67,42.67 64,64 -10.67,10.67 -21.33,21.33 -32,32 0,-10.67 0,-21.33 0,-32 -21.33,0 -42.67,0 -64,0 10.67,10.67 21.33,21.33 32,32 -10.67,10.67 -21.33,21.33 -32,32 -10.67,-21.33 -21.33,-42.67 -32,-64 -32.33,10.67 -64.67,21.33 -97,32 0,-10.67 0,-21.33 0,-32 -10.67,0 -21.33,0 -32,0 0,-10.67 0,-21.33 0,-32 -21.33,-10.67 -42.67,-21.33 -64,-32 0,-11 0,-22 0,-33 0,21.67 0,43.33 0,65 10.67,0 21.33,0 32,0 -32,21.33 -64,42.67 -96,64 10.67,10.67 21.33,21.33 32,32 0,32.33 0,64.67 0,97 -10.67,10.67 -21.33,21.33 -32,32 -11,-10.67 -22,-21.33 -33,-32 0,21.33 0,42.67 0,64 -10.67,0 -21.33,0 -32,0 10.67,10.67 21.33,21.33 32,32 0,10.67 0,21.33 0,32 11,0 22,0 33,0 0,10.67 0,21.33 0,32 -21.67,0 -43.33,0 -65,0 10.67,11 21.33,22 32,33 0,10.67 0,21.33 0,32 11,0 22,0 33,0 0,32 0,64 0,96 -21.67,0 -43.33,0 -65,0 -10.67,21.33 -21.33,42.67 -32,64 10.77,0.1 21.59,-0.15 32.33,0.11 32.22,10.97 64.45,21.93 96.67,32.89 10.67,21.33 21.33,42.67 32,64 10.67,10.67 21.33,21.33 32,32 0,64.33 0,128.67 0,193 10.67,0 21.33,0 32,0 10.67,10.67 21.33,21.33 32,32 21.67,-32 43.33,-64 65,-96 10.67,42.67 21.33,85.33 32,128 21.33,0 42.67,0 64,0 10.67,-10.67 21.33,-21.33 32,-32 53.67,-10.67 107.33,-21.33 161,-32 21.33,-10.67 42.67,-21.33 64,-32 21.67,0 43.33,0 65,0 21.45,10.69 42.85,21.5 64.33,32.11 31.89,10.63 63.78,21.26 95.67,31.89 32.33,-10.67 64.67,-21.33 97,-32 21.33,10.67 42.67,21.33 64,32 19.98,40.09 40.08,80.12 60.44,120.02 2.32,3.99 3.55,8.76 7.29,11.71 31.09,31.09 62.18,62.18 93.27,93.27 21.37,32.44 42.84,64.83 64.16,97.31 10.61,21.23 21.23,42.46 31.84,63.69 0,53.67 0,107.33 0,161 -21.33,0 -42.67,0 -64,0 0,32 0,64 0,96 10.67,0 21.33,0 32,0 0,21.67 0,43.33 0,65 -21.33,21.33 -42.67,42.67 -64,64 -21.33,0 -42.67,0 -64,0 0,10.67 0,21.33 0,32 -10.67,0 -21.33,0 -32,0 -11,10.67 -22,21.33 -33,32 0,21.33 0,42.67 0,64 -10.67,21.67 -21.33,43.33 -32,65 -32,32 -64,64 -96,96 0,10.67 0,21.33 0,32 10.67,11 21.33,22 32,33 0,10.67 0,21.33 0,32 -10.67,10.67 -21.33,21.33 -32,32 0,10.67 0,21.33 0,32 -21.67,10.67 -43.33,21.33 -65,32 0,10.67 0,21.33 0,32 11,10.67 22,21.33 33,32 -11,11 -22,22 -33,33 -10.67,0 -21.33,0 -32,0 21.67,10.67 43.33,21.33 65,32 -11,0 -22,0 -33,0 -32,32 -64,64 -96,96 10.69,10.79 21.62,21.41 32.16,32.31 10.61,21.57 21.23,43.13 31.84,64.69 0,21.33 0,42.67 0,64 10.67,10.67 21.33,21.33 32,32 -10.67,21.33 -21.33,42.67 -32,64 10.67,11 21.33,22 32,33 -10.67,0 -21.33,0 -32,0 10.67,10.67 21.33,21.33 32,32 11,0 22,0 33,0 10.67,10.67 21.33,21.33 32,32 -10.67,10.67 -21.33,21.33 -32,32 10.67,0 21.33,0 32,0 -10.67,10.67 -21.33,21.33 -32,32 10.67,10.67 21.33,21.33 32,32 -10.67,0 -21.33,0 -32,0 10.67,10.67 21.33,21.33 32,32 0,11 0,22 0,33 10.67,0 21.33,0 32,0 0,21.33 0,42.67 0,64 32,21.33 64,42.67 96,64 0,21.67 0,43.33 0,65 -10.67,0 -21.33,0 -32,0 0,32 0,64 0,96 10.67,0 21.33,0 32,0 0,10.67 0,21.33 0,32 21.67,10.67 43.33,21.33 65,32 10.67,11 21.33,22 32,33 -10.67,10.67 -21.33,21.33 -32,32 10.67,10.67 21.33,21.33 32,32 -10.67,0 -21.33,0 -32,0 10.67,0 21.33,0 32,0 10.67,21.33 21.33,42.67 32,64 0,21.33 0,42.67 0,64 -10.67,11 -21.33,22 -32,33 -21.33,0 -42.67,0 -64,0 10.67,21.33 21.33,42.67 32,64 -21.67,-10.67 -43.33,-21.33 -65,-32 -10.67,0 -21.33,0 -32,0 -32.07,21.43 -64.25,42.73 -96.25,64.25 -10.58,10.58 -21.17,21.17 -31.75,31.75 -21.67,-10.67 -43.33,-21.33 -65,-32 0,21.33 0,42.67 0,64 10.67,0 21.33,0 32,0 0,10.67 0,21.33 0,32 -21.33,11 -42.67,22 -64,33 0,10.67 0,21.33 0,32 -21.33,0 -42.67,0 -64,0 -10.67,10.67 -21.33,21.33 -32,32 -10.67,-10.67 -21.33,-21.33 -32,-32 0,21.33 0,42.67 0,64 -21.67,10.67 -43.33,21.33 -65,32 21.67,0 43.33,0 65,0 0,10.67 0,21.33 0,32 -21.67,0 -43.33,0 -65,0 -10.67,11 -21.33,22 -32,33 0,-11 0,-22 0,-33 -21.33,0 -42.67,0 -64,0 -10.67,21.67 -21.33,43.33 -32,65 10.67,10.67 21.33,21.33 32,32 0,10.67 0,21.33 0,32 -10.67,0 -21.33,0 -32,0 -11,-10.67 -22,-21.33 -33,-32 -10.67,0 -21.33,0 -32,0 -21.33,21.33 -42.67,42.67 -64,64 -10.67,0 -21.33,0 -32,0 0,10.67 0,21.33 0,32 -21.33,-10.67 -42.67,-21.33 -64,-32 0,10.67 0,21.33 0,32 -11,11 -22,22 -33,33 11,10.67 22,21.33 33,32 -11,0 -22,0 -33,0 -10.67,10.67 -21.33,21.33 -32,32 -10.67,-10.67 -21.33,-21.33 -32,-32 -21.33,10.67 -42.67,21.33 -64,32 0,21.33 0,42.67 0,64 -21.67,10.67 -43.33,21.33 -65,32 0,21.67 0,43.33 0,65 -10.67,-11 -21.33,-22 -32,-33 0,-53.33 0,-106.67 0,-160 -10.67,0 -21.33,0 -32,0 -21.33,21.33 -42.67,42.67 -64,64 -10.67,0 -21.33,0 -32,0 -10.67,21.33 -21.33,42.67 -32,64 -11,10.67 -22,21.33 -33,32 -21.33,0 -42.67,0 -64,0 21.33,11 42.67,22 64,33 -21.33,0 -42.67,0 -64,0 -21.33,21.33 -42.67,42.67 -64,64 0,32 0,64 0,96 -10.67,-10.67 -21.33,-21.33 -32,-32 0,-10.67 0,-21.33 0,-32 -21.67,10.67 -43.33,21.33 -65,32 10.67,21.33 21.33,42.67 32,64 -21.33,11 -42.67,22 -64,33 -10.67,10.67 -21.33,21.33 -32,32 10.69,10.79 21.62,21.41 32.16,32.31 10.61,21.23 21.23,42.46 31.84,63.69 21.67,10.67 43.33,21.33 65,32 -21.67,21.67 -43.33,43.33 -65,65 0,10.67 0,21.33 0,32 -10.67,0 -21.33,0 -32,0 -21.33,10.67 -42.67,21.33 -64,32 0,-10.67 0,-21.33 0,-32 -10.67,-10.67 -21.33,-21.33 -32,-32 -10.67,0 -21.33,0 -32,0 -21.67,53.67 -43.33,107.33 -65,161 -21.33,0 -42.67,0 -64,0 0,10.67 0,21.33 0,32 -21.33,21.33 -42.67,42.67 -64,64 -21.67,0 -43.33,0 -65,0 0,-21.33 0,-42.67 0,-64 -42.67,0 -85.33,0 -128,0 10.67,21.33 21.33,42.67 32,64 -10.67,0 -21.33,0 -32,0 -10.69,10.79 -21.62,21.41 -32.16,32.31 -10.95,21.23 -21.89,42.46 -32.84,63.69 11,11 22,22 33,33 0,10.67 0,21.33 0,32 -21.67,0 -43.33,0 -65,0 -10.79,10.69 -21.41,21.62 -32.31,32.16 -21.23,10.61 -42.46,21.23 -63.69,31.84 -10.67,-10.67 -21.33,-21.33 -32,-32 -11,0 -22,0 -33,0 -10.67,-10.67 -21.33,-21.33 -32,-32 10.67,-10.67 21.33,-21.33 32,-32 -10.67,0 -21.33,0 -32,0 -10.67,-11 -21.33,-22 -32,-33 -10.79,11.02 -21.4,22.29 -32.31,33.16 -21.23,10.61 -42.46,21.23 -63.69,31.84 0,21.33 0,42.67 0,64 -10.67,21.33 -21.33,42.67 -32,64 10.67,10.67 21.33,21.33 32,32 0,11 0,22 0,33 -10.67,0 -21.33,0 -32,0 -21.67,-11 -43.33,-22 -65,-33 -10.67,-10.67 -21.33,-21.33 -32,-32 -10.67,10.67 -21.33,21.33 -32,32 0,11 0,22 0,33 -10.67,10.67 -21.33,21.33 -32,32 10.67,10.67 21.33,21.33 32,32 0,10.67 0,21.33 0,32 -10.67,10.67 -21.33,21.33 -32,32 -10.67,0 -21.33,0 -32,0 -10.67,-10.67 -21.33,-21.33 -32,-32 -11,10.67 -22,21.33 -33,32 -42.67,-21.33 -85.33,-42.67 -128,-64 -10.67,10.67 -21.33,21.33 -32,32 -11,32.33 -22,64.67 -33,97 -10.67,0 -21.33,0 -32,0 -21.33,10.67 -42.67,21.33 -64,32 -10.67,10.67 -21.33,21.33 -32,32 -10.67,-10.67 -21.33,-21.33 -32,-32 0,-32.33 0,-64.67 0,-97 -21.67,0 -43.33,0 -65,0 0,-53.67 0,-107.33 0,-161 -32,21.67 -64,43.33 -96,65 -10.67,0 -21.33,0 -32,0 -10.67,-10.67 -21.33,-21.33 -32,-32 0,-11 0,-22 0,-33 -40.16,-19.71 -80.28,-39.53 -120.25,-59.63 -2.92,-1.61 -6.25,-2.81 -8.91,-4.68 -10.61,-21.23 -21.23,-42.46 -31.84,-63.69 -10.67,-10.67 -21.33,-21.33 -32,-32 -10.67,0 -21.33,0 -32,0 -11,21.33 -22,42.67 -33,64 -10.67,10.67 -21.33,21.33 -32,32 -32,0 -64,0 -96,0 -32.43,-10.73 -64.91,-21.34 -97.31,-32.16 -21.35,-10.63 -42.64,-21.39 -64.02,-31.95 -32.23,-10.63 -64.45,-21.26 -96.67,-31.89 0,-21.67 0,-43.33 0,-65 -21.33,-21.33 -42.67,-42.67 -64,-64 0,-21.33 0,-42.67 0,-64 -21.33,0 -42.67,0 -64,0 -32.33,-10.67 -64.67,-21.33 -97,-32 -42.67,0 -85.33,0 -128,0 -10.67,-10.67 -21.33,-21.33 -32,-32 0,-21.67 0,-43.33 0,-65 -43,0 -86,0 -129,0 -10.67,-21.33 -21.33,-42.67 -32,-64 -21.33,0 -42.67,0 -64,0 -21.77,21.39 -43.46,42.88 -65.28,64.21 -42.57,32.26 -85.15,64.53 -127.72,96.79 0,10.67 0,21.33 0,32 21.33,10.67 42.67,21.33 64,32 0,10.67 0,21.33 0,32 -32.33,0 -64.67,0 -97,0 -10.67,-21.33 -21.33,-42.67 -32,-64 -21.33,0 -42.67,0 -64,0 -10.67,-10.67 -21.33,-21.33 -32,-32 -21.33,10.67 -42.67,21.33 -64,32 -64.33,0 -128.67,0 -193,0 0,-21.33 0,-42.67 0,-64 -21.67,0 -43.33,0 -65,0 -21.33,10.67 -42.67,21.33 -64,32 -21.33,-10.67 -42.67,-21.33 -64,-32 -53.67,32 -107.33,64 -161,96 -10.67,-10.67 -21.33,-21.33 -32,-32 10.67,-21.33 21.33,-42.67 32,-64 -10.67,-11 -21.33,-22 -32,-33 -10.67,0 -21.33,0 -32,0 -32.33,21.67 -64.67,43.33 -97,65 -21.33,-21.67 -42.67,-43.33 -64,-65 -32.33,0 -64.67,0 -97,0 -10.67,-10.67 -21.33,-21.33 -32,-32 0,-21.33 0,-42.67 0,-64 -10.67,-10.67 -21.33,-21.33 -32,-32 -32,0 -64,0 -96,0 -10.67,10.67 -21.33,21.33 -32,32 -11.23,-0.1 -22.48,0.15 -33.69,-0.11 -64.11,-10.63 -128.21,-21.26 -192.31,-31.89 -10.67,10.67 -21.33,21.33 -32,32 0,21.33 0,42.67 0,64 -64.33,0 -128.67,0 -193,0 -21.33,10.67 -42.67,21.33 -64,32 -21.33,-10.67 -42.67,-21.33 -64,-32 -32.33,10.67 -64.67,21.33 -97,32 -32,-10.67 -64,-21.33 -96,-32 -32.33,21.67 -64.67,43.33 -97,65 -21.33,-11 -42.67,-22 -64,-33 -21.33,11 -42.67,22 -64,33 -21.67,32 -43.33,64 -65,96 -21.33,0 -42.67,0 -64,0 -10.67,-53.67 -21.33,-107.33 -32,-161 -10.67,-10.67 -21.33,-21.33 -32,-32 -53.67,-10.67 -107.33,-21.33 -161,-32 -10.67,-21.33 -21.33,-42.67 -32,-64 -43,0 -86,0 -129,0 -10.67,-21.67 -21.33,-43.33 -32,-65 -32,0 -64,0 -96,0 -32.33,32.33 -64.67,64.67 -97,97 -21.33,10.67 -42.67,21.33 -64,32 -10.67,10.67 -21.33,21.33 -32,32 -10.67,0 -21.33,0 -32,0 0,32.33 0,64.67 0,97 -10.67,0 -21.33,0 -32,0 -11,21.33 -22,42.67 -33,64 -10.77,-0.1 -21.59,0.15 -32.33,-0.11 -31.89,-10.63 -63.78,-21.26 -95.67,-31.89 -32.33,21.33 -64.67,42.67 -97,64 0,21.33 0,42.67 0,64 -10.67,21.67 -21.33,43.33 -32,65 -43,21.33 -86,42.67 -129,64 0,-10.67 0,-21.33 0,-32 -21.33,0 -42.67,0 -64,0 -10.67,-10.67 -21.33,-21.33 -32,-32 -21.33,0 -42.67,0 -64,0 0,-11 0,-22 0,-33 10.67,-10.67 21.33,-21.33 32,-32 0,-10.67 0,-21.33 0,-32 -32.33,0 -64.67,0 -97,0 -42.74,32.43 -85.56,64.76 -128.25,97.25 -10.58,10.58 -21.17,21.17 -31.75,31.75 -43,10.67 -86,21.33 -129,32 -32,-10.67 -64,-21.33 -96,-32 -11,10.67 -22,21.33 -33,32 0,10.67 0,21.33 0,32 32.33,21.33 64.67,42.67 97,64 0,21.67 0,43.33 0,65 -10.79,10.69 -21.41,21.62 -32.31,32.16 -21.57,10.61 -43.13,21.23 -64.69,31.84 -21.33,21.33 -42.67,42.67 -64,64 -21.36,43.12 -42.83,86.18 -64.11,129.33 -10.63,31.89 -21.26,63.78 -31.89,95.67 -32.33,11 -64.67,22 -97,33 -10.67,0 -21.33,0 -32,0 -21.33,21.33 -42.67,42.67 -64,64 -10.67,32 -21.33,64 -32,96 -11,10.67 -22,21.33 -33,32 -32,-10.67 -64,-21.33 -96,-32 -10.67,0 -21.33,0 -32,0 -21.33,53.67 -42.67,107.33 -64,161 -32.33,32 -64.67,64 -97,96 -10.67,32.33 -21.33,64.67 -32,97 -10.67,10.67 -21.33,21.33 -32,32 -32.33,10.67 -64.67,21.33 -97,32 -21.33,-10.67 -42.67,-21.33 -64,-32 -10.67,0 -21.33,0 -32,0 -21.33,-53.67 -42.67,-107.33 -64,-161 -75.33,-75 -150.67,-150 -226,-225 -10.67,-32 -21.33,-64 -32,-96 0,-64.33 0,-128.67 0,-193 -10.67,-10.67 -21.33,-21.33 -32,-32 -10.77,-0.1 -21.59,0.15 -32.33,-0.11 -31.89,-10.63 -63.78,-21.26 -95.67,-31.89 -21.67,10.67 -43.33,21.33 -65,32 -10.67,0 -21.33,0 -32,0 -10.67,10.67 -21.33,21.33 -32,32 10.67,43 21.33,86 32,129 -10.67,10.67 -21.33,21.33 -32,32 0,10.67 0,21.33 0,32 -10.67,0 -21.33,0 -32,0 -10.67,10.67 -21.33,21.33 -32,32 -21.67,-10.67 -43.33,-21.33 -65,-32 -85.67,10.67 -171.33,21.33 -257,32 -32,10.67 -64,21.33 -96,32 0,10.67 0,21.33 0,32 -11,10.67 -22,21.33 -33,32 32.33,32.33 64.67,64.67 97,97 -10.67,21.33 -21.33,42.67 -32,64 -10.67,0 -21.33,0 -32,0 -32.33,-21.33 -64.67,-42.67 -97,-64 -32,0 -64,0 -96,0 -21.85,10.82 -43.81,21.43 -65.58,32.39 -31.92,21.24 -63.78,42.59 -95.73,63.77 -21.23,10.61 -42.46,21.23 -63.69,31.84 -11,0 -22,0 -33,0 -21.33,-10.67 -42.67,-21.33 -64,-32 -21.33,10.67 -42.67,21.33 -64,32 -19.71,40.16 -39.53,80.28 -59.63,120.25 -1.45,2.92 -2.91,5.83 -4.37,8.75 -21.67,0 -43.33,0 -65,0 -32,-10.67 -64,-21.33 -96,-32 -32.33,0 -64.67,0 -97,0 -21.33,-21.33 -42.67,-42.67 -64,-64 -21.33,0 -42.67,0 -64,0 -15.38,-15.72 -30.37,-31.82 -46.36,-46.93 -6.22,-6.02 -12.43,-12.05 -18.64,-18.07 -10.67,0 -21.33,0 -32,0 -32,21.67 -64,43.33 -96,65 -43.11,0 -86.24,0.1 -129.35,-0.1 -64.21,-10.98 -128.43,-21.96 -192.65,-32.94 -10.67,-21.33 -21.33,-42.67 -32,-64 -75,0 -150,0 -225,0 -10.67,10.67 -21.33,21.33 -32,32 -21.33,53.67 -42.67,107.33 -64,161 -24.6,24.35 -49.47,48.44 -73.89,72.98 -29.04,29.34 -58.07,58.68 -87.11,88.02 -128.67,-21.33 -257.33,-42.67 -386,-64 -53.67,32 -107.33,64 -161,96 -32.11,-0.1 -64.24,0.1 -96.34,-0.1 -53.56,-10.64 -107.11,-21.29 -160.66,-31.93 -32.43,10.73 -64.91,21.34 -97.31,32.16 -21.23,10.61 -42.46,21.23 -63.69,31.84 -10.79,10.69 -21.41,21.62 -32.31,32.16 -21.23,10.61 -42.46,21.23 -63.69,31.84 -21.72,21.77 -43.56,43.45 -65.2,65.29 -53.27,74.9 -106.53,149.81 -159.8,224.71 -32.33,85.67 -64.67,171.33 -97,257 -10.67,10.67 -21.33,21.33 -32,32 -21.33,0 -42.67,0 -64,0 -32.33,10.67 -64.67,21.33 -97,32 -10.67,11 -21.33,22 -32,33 -0.1,10.77 0.16,21.6 -0.12,32.33 -31.96,85.56 -63.92,171.11 -95.88,256.67 -32.33,43 -64.67,86 -97,129 -10.67,0 -21.33,0 -32,0 -64.36,31.95 -128.78,63.78 -193,96 0,21.33 0,42.67 0,64 21.33,53.67 42.67,107.33 64,161 -10.67,32.33 -21.33,64.67 -32,97 10.67,10.67 21.33,21.33 32,32 0,42.67 0,85.33 0,128 -42.71,64.45 -85.51,128.83 -128.16,193.31 -21.28,42.9 -42.56,85.79 -63.84,128.69 -11,0 -22,0 -33,0 0,10.67 0,21.33 0,32 -42.67,21.33 -85.33,42.67 -128,64 -21.67,21.67 -43.33,43.33 -65,65 -139.33,0 -278.67,0 -418,0 -10.67,10.67 -21.33,21.33 -32,32 10.67,32 21.33,64 32,96 -10.67,21.33 -21.33,42.67 -32,64 -85.67,21.67 -171.33,43.33 -257,65 -10.67,21.33 -21.33,42.67 -32,64 0,32.33 0,64.67 0,97 -10.76,21.42 -21.36,42.92 -32.21,64.28 -32.26,42.57 -64.53,85.15 -96.79,127.72 -32,0 -64,0 -96,0 -43,43 -86,86 -129,129 -21.33,32.33 -42.67,64.67 -64,97 0,10.67 0,21.33 0,32 -10.67,21.33 -21.33,42.67 -32,64 0,32 0,64 0,96 -21.67,32.33 -43.33,64.67 -65,97 -10.67,43 -21.33,86 -32,129 -21.33,21.33 -42.67,42.67 -64,64 0,10.67 0,21.33 0,32 -10.67,21.33 -21.33,42.67 -32,64 10.97,10.86 21.73,21.94 32.82,32.66 53.39,42.78 106.79,85.56 160.18,128.34 21.33,32.33 42.67,64.67 64,97 0,10.67 0,21.33 0,32 -21.33,21.33 -42.67,42.67 -64,64 -10.77,-0.1 -21.59,0.15 -32.33,-0.11 -96.66,-32.01 -193.35,-63.97 -290,-96.02 -53.22,-21.62 -106.45,-43.25 -159.67,-64.87 0,-10.67 0,-21.33 0,-32 -18.75,-18.14 -37.51,-36.27 -55.83,-54.83 -24.52,-24.6 -48.77,-49.46 -73.17,-74.17 -32.33,0 -64.67,0 -97,0 0,-32 0,-64 0,-96 -32,0 -64,0 -96,0 10.67,-10.67 21.33,-21.33 32,-32 -10.67,-10.67 -21.33,-21.33 -32,-32 -10.67,10.67 -21.33,21.33 -32,32 -32.33,-10.67 -64.67,-21.33 -97,-32 21.67,-10.67 43.33,-21.33 65,-32 0,-11 0,-22 0,-33 -11,-10.67 -22,-21.33 -33,-32 -10.67,-32 -21.33,-64 -32,-96 -10.67,0 -21.33,0 -32,0 0,-21.67 0,-43.33 0,-65 -32,-32 -64,-64 -96,-96 -10.67,10.67 -21.33,21.33 -32,32 0,-10.67 0,-21.33 0,-32 -32.33,-21.33 -64.67,-42.67 -97,-64 0,-10.67 0,-21.33 0,-32 -32,0 -64,0 -96,0 -10.67,-11 -21.33,-22 -32,-33 -21.67,0 -43.33,0 -65,0 -21.33,-21.33 -42.67,-42.67 -64,-64 -43,0 -86,0 -129,0 -21.33,-10.67 -42.67,-21.33 -64,-32 -10.67,-21.33 -21.33,-42.67 -32,-64 -21.33,0 -42.67,0 -64,0 0,-11 0,-22 0,-33 -11,11 -22,22 -33,33 -10.67,-11 -21.33,-22 -32,-33 -21.33,0 -42.67,0 -64,0 0,11 0,22 0,33 -21.33,0 -42.67,0 -64,0 -11,10.67 -22,21.33 -33,32 -10.67,-10.67 -21.33,-21.33 -32,-32 -32,-11 -64,-22 -96,-33 0,-21.33 0,-42.67 0,-64 -10.67,10.67 -21.33,21.33 -32,32 -18.25,-18.3 -36.51,-36.6 -55.18,-54.48 -3.27,-3.17 -6.55,-6.35 -9.82,-9.52 -10.67,0 -21.33,0 -32,0 0,-32 0,-64 0,-96 -42.67,0 -85.33,0 -128,0 -21.67,-11 -43.33,-22 -65,-33 -32,11 -64,22 -96,33 0,-11 0,-22 0,-33 -10.67,-10.67 -21.33,-21.33 -32,-32 0,-21.33 0,-42.67 0,-64 -32.33,0 -64.67,0 -97,0 -10.67,-10.67 -21.33,-21.33 -32,-32 -10.67,0 -21.33,0 -32,0 0,-10.67 0,-21.33 0,-32 -10.67,0 -21.33,0 -32,0 10.67,-11 21.33,-22 32,-33 -10.67,0 -21.33,0 -32,0 -10.67,-10.67 -21.33,-21.33 -32,-32 -32.33,0 -64.67,0 -97,0 -10.67,-10.67 -21.33,-21.33 -32,-32 -10.67,0 -21.33,0 -32,0 -10.67,10.67 -21.33,21.33 -32,32 -21.67,-21.33 -43.33,-42.67 -65,-64 -10.67,10.67 -21.33,21.33 -32,32 -21.33,0 -42.67,0 -64,0 -10.67,-10.67 -21.33,-21.33 -32,-32 0,-10.67 0,-21.33 0,-32 -10.77,-0.1 -21.59,0.15 -32.33,-0.11 -32.23,-10.63 -64.45,-21.26 -96.67,-31.89 -32,0 -64,0 -96,0 -10.67,-10.67 -21.33,-21.33 -32,-32 -32.33,0 -64.67,0 -97,0 0,-11 0,-22 0,-33 -21.33,0 -42.67,0 -64,0 -10.8,11.02 -21.4,22.3 -32.31,33.16 -21.57,10.61 -43.13,21.23 -64.69,31.84 0,-10.67 0,-21.33 0,-32 -21.33,0 -42.67,0 -64,0 -21.33,-11 -42.67,-22 -64,-33 -10.67,0 -21.33,0 -32,0 -21.67,11 -43.33,22 -65,33 -53.67,-32.33 -107.33,-64.67 -161,-97 -10.67,10.67 -21.33,21.33 -32,32 -21.33,-21.33 -42.67,-42.67 -64,-64 10.67,0 21.33,0 32,0 -10.67,-10.67 -21.33,-21.33 -32,-32 -10.67,10.67 -21.33,21.33 -32,32 -10.67,0 -21.33,0 -32,0 -10.67,-21.33 -21.33,-42.67 -32,-64 -11,10.67 -22,21.33 -33,32 0,-10.67 0,-21.33 0,-32 -10.67,0 -21.33,0 -32,0 0,-10.67 0,-21.33 0,-32 10.67,0 21.33,0 32,0 -32,0 -64,0 -96,0 -21.33,-21.67 -42.67,-43.33 -64,-65 -10.67,10.67 -21.33,21.33 -32,32 -21.67,-10.67 -43.33,-21.33 -65,-32 10.67,0 21.33,0 32,0 -21.33,-10.67 -42.67,-21.33 -64,-32 10.67,0 21.33,0 32,0 -42.67,-21.33 -85.33,-42.67 -128,-64 -32.33,0 -64.67,0 -97,0 0,-10.67 0,-21.33 0,-32 10.67,-11 21.33,-22 32,-33 -21.33,0 -42.67,0 -64,0 0,11 0,22 0,33 -10.67,0 -21.33,0 -32,0 -21.67,-21.67 -43.33,-43.33 -65,-65 0,-10.67 0,-21.33 0,-32 -10.67,0 -21.33,0 -32,0 -10.67,-21.33 -21.33,-42.67 -32,-64 -10.67,0 -21.33,0 -32,0 0,-10.67 0,-21.33 0,-32 -10.67,-21.67 -21.33,-43.33 -32,-65 -21.33,0 -42.67,0 -64,0 -11,-21.33 -22,-42.67 -33,-64 -10.67,0 -21.33,0 -32,0 0,-10.67 0,-21.33 0,-32 -21.33,0 -42.67,0 -64,0 -10.67,-10.67 -21.33,-21.33 -32,-32 0,10.67 0,21.33 0,32 -21.33,0 -42.67,0 -64,0 -18.75,-18.14 -37.51,-36.27 -55.83,-54.83 -3.06,-3.06 -6.11,-6.11 -9.17,-9.17 10.67,21.33 21.33,42.67 32,64 -21.33,0 -42.67,0 -64,0 -10.67,-10.67 -21.33,-21.33 -32,-32 -21.33,0 -42.67,0 -64,0 0,-10.67 0,-21.33 0,-32 -18.75,18.14 -37.51,36.27 -55.83,54.83 -13.73,13.73 -27.45,27.45 -41.17,41.17 0,-10.67 0,-21.33 0,-32 10.67,-10.67 21.33,-21.33 32,-32 -10.67,-10.67 -21.33,-21.33 -32,-32 -10.67,0 -21.33,0 -32,0 -21.33,-11 -42.67,-22 -64,-33 0,11 0,22 0,33 0,-11 0,-22 0,-33 -11,-10.67 -22,-21.33 -33,-32 -10.67,0 -21.33,0 -32,0 -10.67,-10.67 -21.33,-21.33 -32,-32 -10.67,10.67 -21.33,21.33 -32,32 -21.33,0 -42.67,0 -64,0 -10.67,-10.67 -21.33,-21.33 -32,-32 -11,0 -22,0 -33,0 0,-10.67 0,-21.33 0,-32 11,0 22,0 33,0 -11,0 -22,0 -33,0 -21.33,-21.33 -42.67,-42.67 -64,-64 10.67,0 21.33,0 32,0 -10.67,-10.67 -21.33,-21.33 -32,-32 0,-21.67 0,-43.33 0,-65 -10.67,-10.67 -21.33,-21.33 -32,-32 0,10.67 0,21.33 0,32 -21.33,-10.67 -42.67,-21.33 -64,-32 -10.67,0 -21.33,0 -32,0 -11,-10.67 -22,-21.33 -33,-32 -10.67,0 -21.33,0 -32,0 -21.33,-21.33 -42.67,-42.67 -64,-64 -10.67,0 -21.33,0 -32,0 0,-21.67 0,-43.33 0,-65 -10.67,-10.67 -21.33,-21.33 -32,-32 0,-10.67 0,-21.33 0,-32 -11,0 -22,0 -33,0 0,-10.67 0,-21.33 0,-32 -10.67,0 -21.33,0 -32,0 -21.33,10.67 -42.67,21.33 -64,32 0,-10.67 0,-21.33 0,-32 -10.67,10.67 -21.33,21.33 -32,32 0,-10.67 0,-21.33 0,-32 -21.67,-10.67 -43.33,-21.33 -65,-32 -42.67,0 -85.33,0 -128,0 -21.33,-21.67 -42.67,-43.33 -64,-65 0,11 0,22 0,33 -21.67,-11 -43.33,-22 -65,-33 -32,0 -64,0 -96,0 0,21.67 0,43.33 0,65 -21.33,0 -42.67,0 -64,0 -24.35,-12.1 -48.88,-23.84 -73.11,-36.18 -18.63,-9.61 -37.26,-19.21 -55.89,-28.82 0,-10.67 0,-21.33 0,-32 -10.67,0 -21.33,0 -32,0 0,-10.67 0,-21.33 0,-32 -21.67,0 -43.33,0 -65,0 11,0 22,0 33,0 0,-21.33 0,-42.67 0,-64 -32.33,0 -64.67,0 -97,0 10.67,-10.67 21.33,-21.33 32,-32 -21.33,0 -42.67,0 -64,0 0,-11 0,-22 0,-33 -32.33,-32 -64.67,-64 -97,-96 0,-10.67 0,-21.33 0,-32 -21.33,-10.67 -42.67,-21.33 -64,-32 0,-21.67 0,-43.33 0,-65 -21.33,-10.67 -42.67,-21.33 -64,-32 0,-10.67 0,-21.33 0,-32 -32.33,-64.33 -64.67,-128.67 -97,-193 -42.67,0 -85.33,0 -128,0 -43.12,-21.36 -86.18,-42.83 -129.33,-64.11 -31.89,-10.63 -63.78,-21.26 -95.67,-31.89 0,-10.67 0,-21.33 0,-32 -21.67,-11 -43.33,-22 -65,-33 -32,0 -64,0 -96,0 0,11 0,22 0,33 -21.51,10.82 -43.14,21.45 -64.59,32.39 -32.2,21.3 -64.53,42.46 -96.66,63.86 -10.58,10.58 -21.17,21.17 -31.75,31.75 -43,0 -86,0 -129,0 -21.33,10.67 -42.67,21.33 -64,32 -10.67,-10.67 -21.33,-21.33 -32,-32 -53.67,-10.67 -107.33,-21.33 -161,-32 -10.77,0.1 -21.6,-0.17 -32.33,0.13 -53.55,21.29 -107.11,42.58 -160.67,63.87 -21.33,-10.67 -42.67,-21.33 -64,-32 -32,0 -64,0 -96,0 -21.67,-10.67 -43.33,-21.33 -65,-32 -32,0 -64,0 -96,0 -43,-21.33 -86,-42.67 -129,-64 -21.33,10.67 -42.67,21.33 -64,32 -21.33,-10.67 -42.67,-21.33 -64,-32 -11,0 -22,0 -33,0 0,-10.67 0,-21.33 0,-32 -42.67,-21.67 -85.33,-43.33 -128,-65 -64.33,-10.67 -128.67,-21.33 -193,-32 0,-32 0,-64 0,-96 -10.67,-11 -21.33,-22 -32,-33 -32.33,0 -64.67,0 -97,0 10.67,-21.33 21.33,-42.67 32,-64 -10.67,-21.33 -21.33,-42.67 -32,-64 -21.33,-21.33 -42.67,-42.67 -64,-64 0,-21.67 0,-43.33 0,-65 -10.67,-21.33 -21.33,-42.67 -32,-64 0,-10.67 0,-21.33 0,-32 32,-43 64,-86 96,-129 43,-10.67 86,-21.33 129,-32 10.73,-32.1 21.35,-64.25 32.16,-96.31 10.61,-21.57 21.23,-43.13 31.84,-64.69 32.33,-21.33 64.67,-42.67 97,-64 10.67,-43 21.33,-86 32,-129 0,-10.67 0,-21.33 0,-32 10.67,-10.67 21.33,-21.33 32,-32 43.11,0 86.24,0.1 129.35,-0.1 63.88,-10.65 127.77,-21.29 191.65,-31.94 21.67,-43 43.33,-86 65,-129 32,-32 64,-64 96,-96 10.67,-32.33 21.33,-64.67 32,-97 -10.67,-10.67 -21.33,-21.33 -32,-32 0,-10.67 0,-21.33 0,-32 -32.11,-21.37 -64.16,-42.85 -96.31,-64.16 -21.8,-10.66 -43.5,-21.54 -65.35,-32.07 -31.78,-10.92 -63.56,-21.85 -95.34,-32.77 -85.67,0 -171.33,0 -257,0 -75,-21.33 -150,-42.67 -225,-64 -43.11,0.1 -86.24,-0.1 -129.34,0.1 -53.56,10.64 -107.11,21.29 -160.66,31.93 -53.33,32.33 -106.67,64.67 -160,97 -11,42.67 -22,85.33 -33,128 -10.67,0 -21.33,0 -32,0 -21.33,-10.67 -42.67,-21.33 -64,-32 -43,0 -86,0 -129,0 -53.33,-53.67 -106.67,-107.33 -160,-161 0,-64.33 0,-128.67 0,-193 -11,-42.67 -22,-85.33 -33,-128 0,-43 0,-86 0,-129 -32,-96.33 -64,-192.67 -96,-289 0,-32.45 0.1,-64.91 -0.1,-97.35 -10.7,-64.32 -21.26,-128.68 -32.05,-192.98 -10.63,-31.89 -21.26,-63.78 -31.89,-95.67 10.67,-21.33 21.33,-42.67 32,-64 21.33,-10.67 42.67,-21.33 64,-32 10.67,-11 21.33,-22 32,-33 53.67,0 107.33,0 161,0 21.33,-21.33 42.67,-42.67 64,-64 0,-96.33 0,-192.67 0,-289 -10.67,-21.67 -21.33,-43.33 -32,-65 -10.69,-10.79 -21.62,-21.41 -32.16,-32.31 -21.28,-42.57 -42.56,-85.13 -63.84,-127.69 -53.67,-32.33 -107.33,-64.67 -161,-97 10.67,-32 21.33,-64 32,-96 -10.67,-10.67 -21.33,-21.33 -32,-32 0,-11 0,-22 0,-33 -21.33,-21.33 -42.67,-42.67 -64,-64 10.67,-53.67 21.33,-107.33 32,-161 -10.67,-21.33 -21.33,-42.67 -32,-64 0,-10.67 0,-21.33 0,-32 -21.67,-21.33 -43.33,-42.67 -65,-64 -10.67,-21.67 -21.33,-43.33 -32,-65 10.67,-10.67 21.33,-21.33 32,-32 -21.33,-21.33 -42.67,-42.67 -64,-64 10.67,-10.67 21.33,-21.33 32,-32 -10.67,0 -21.33,0 -32,0 -10.67,-21.67 -21.33,-43.33 -32,-65 -10.67,0 -21.33,0 -32,0 -18.25,-18.3 -36.51,-36.6 -55.18,-54.48 -3.27,-3.17 -6.55,-6.35 -9.82,-9.52 0,-10.67 0,-21.33 0,-32 -21.33,-10.67 -42.67,-21.33 -64,-32 -10.67,-10.67 -21.33,-21.33 -32,-32 0,10.67 0,21.33 0,32 -32,-21.67 -64,-43.33 -96,-65 10.67,-10.67 21.33,-21.33 32,-32 -10.67,-10.67 -21.33,-21.33 -32,-32 0,-10.67 0,-21.33 0,-32 -11,0 -22,0 -33,0 11,-10.67 22,-21.33 33,-32 0,-10.67 0,-21.33 0,-32 -11,-10.67 -22,-21.33 -33,-32 11,-11 22,-22 33,-33 -11,0 -22,0 -33,0 0,-21.33 0,-42.67 0,-64 -10.67,-21.33 -21.33,-42.67 -32,-64 0,-21.67 0,-43.33 0,-65 10.67,-10.67 21.33,-21.33 32,-32 -10.67,0 -21.33,0 -32,0 10.67,-10.67 21.33,-21.33 32,-32 0,-10.67 0,-21.33 0,-32 11,-10.67 22,-21.33 33,-32 0,-53.67 0,-107.33 0,-161 -11,-10.67 -22,-21.33 -33,-32 11,-10.67 22,-21.33 33,-32 -11,-10.67 -22,-21.33 -33,-32 0,-21.67 0,-43.33 0,-65 11,0 22,0 33,0 -11,0 -22,0 -33,0 0,-10.67 0,-21.33 0,-32 11,-21.33 22,-42.67 33,-64 0,-10.67 0,-21.33 0,-32 0,10.67 0,21.33 0,32 0,-21.33 0,-42.67 0,-64 z"
         id="path58" />
    </g>
  </g>
</svg>
