<?xml version="1.0" encoding="UTF-8" standalone="no"?>
<!-- Created with Inkscape (http://www.inkscape.org/) -->

<svg
   xmlns:dc="http://purl.org/dc/elements/1.1/"
   xmlns:cc="http://creativecommons.org/ns#"
   xmlns:rdf="http://www.w3.org/1999/02/22-rdf-syntax-ns#"
   xmlns:svg="http://www.w3.org/2000/svg"
   xmlns="http://www.w3.org/2000/svg"
   xmlns:sodipodi="http://sodipodi.sourceforge.net/DTD/sodipodi-0.dtd"
   xmlns:inkscape="http://www.inkscape.org/namespaces/inkscape"
   width="34.603405mm"
   height="34.125mm"
   viewBox="0 0 34.603405 34.125"
   version="1.1"
   id="svg1111"
   inkscape:version="0.92.5 (2060ec1f9f, 2020-04-08)"
   sodipodi:docname="ms.svg">
  <defs
     id="defs1105" />
  <sodipodi:namedview
     id="base"
     pagecolor="#ffffff"
     bordercolor="#666666"
     borderopacity="1.0"
     inkscape:pageopacity="0.0"
     inkscape:pageshadow="2"
     inkscape:zoom="0.35"
     inkscape:cx="522.53511"
     inkscape:cy="387.34535"
     inkscape:document-units="mm"
     inkscape:current-layer="layer1"
     showgrid="false"
     inkscape:window-width="1366"
     inkscape:window-height="704"
     inkscape:window-x="0"
     inkscape:window-y="0"
     inkscape:window-maximized="1" />
  <metadata
     id="metadata1108">
    <rdf:RDF>
      <cc:Work
         rdf:about="">
        <dc:format>image/svg+xml</dc:format>
        <dc:type
           rdf:resource="http://purl.org/dc/dcmitype/StillImage" />
        <dc:title></dc:title>
      </cc:Work>
    </rdf:RDF>
  </metadata>
  <g
     inkscape:label="Layer 1"
     inkscape:groupmode="layer"
     id="layer1"
     transform="translate(65.682653,-217.19346)">
    <g
       transform="matrix(9.9994773e-4,0,0,9.9994773e-4,-146.18135,106.22606)"
       id="MatoGrosso_do_Sul">
      <path
         inkscape:connector-curvature="0"
         style="fill:#999999;stroke:#ffffff;stroke-width:282.23678589;stroke-miterlimit:4;stroke-dasharray:none;stroke-opacity:1"
         d="m 81302,122857 c 236.092,-493.21 472.213,-986.41 708.284,-1479.63 160.578,-353.45 321.145,-706.91 481.716,-1060.37 118,0 236,0 354,0 21.333,-32 42.667,-64 64,-96 -10.667,0 -21.333,0 -32,0 10.666,-21.67 21.334,-43.33 32,-65 -32.209,-32.13 -64.126,-64.55 -97,-96 -10.667,0 -21.333,0 -32,0 0,-128.67 0,-257.33 0,-386 -75,0 -150,0 -225,0 332.332,-1071.67 664.668,-2143.33 997,-3215 160.666,-10.67 321.334,-21.33 482,-32 0,-11 0,-22 0,-33 -21.332,-10.67 -42.668,-21.33 -64,-32 -10.665,-10.67 -21.335,-21.33 -32,-32 0,-21.33 0,-42.67 0,-64 -10.665,-10.67 -21.335,-21.33 -32,-32 -10.665,10.67 -21.335,21.33 -32,32 -21.665,-10.67 -43.335,-21.33 -65,-32 0,10.67 0,21.33 0,32 -117.668,-107.33 -235.332,-214.67 -353,-322 -11.343,-44.47 -23.158,-88.83 -34.189,-133.39 -20.935,-94.87 -41.875,-189.74 -62.811,-284.61 -193.001,-364.33 -385.999,-728.67 -579,-1093 64.333,0 128.667,0 193,0 0,-32 0,-64 0,-96 -64.332,-53.67 -128.668,-107.33 -193,-161 21.668,-64.33 43.332,-128.67 65,-193 -21.668,-21.33 -43.332,-42.67 -65,-64 -10.667,0 -21.333,0 -32,0 -21.333,-43 -42.667,-86 -64,-129 -10.667,0 -21.333,0 -32,0 -21.666,-53.67 -43.334,-107.33 -65,-161 -21.332,-10.67 -42.668,-21.33 -64,-32 -10.668,-21.33 -21.332,-42.67 -32,-64 10.666,-21.67 21.334,-43.33 32,-65 0,-32 0,-64 0,-96 -10.665,10.67 -21.335,21.33 -32,32 0,-10.67 0,-21.33 0,-32 10.668,-21.33 21.332,-42.67 32,-64 -21.333,0 -42.667,0 -64,0 10.667,0 21.333,0 32,0 10.666,-21.67 21.334,-43.33 32,-65 -21.333,11 -42.667,22 -64,33 0,-11 0,-22 0,-33 10.665,-10.67 21.335,-21.33 32,-32 0,-10.67 0,-21.33 0,-32 -21.332,-10.67 -42.668,-21.33 -64,-32 0,-10.67 0,-21.33 0,-32 11.301,0.23 22.668,-0.48 33.927,0.38 53.023,10.54 106.048,21.08 159.073,31.62 21.333,-43 42.667,-86 64,-129 21.332,-10.67 42.668,-21.33 64,-32 21.335,21.33 42.665,42.67 64,64 0,43 0,86 0,129 21.665,10.67 43.335,21.33 65,32 0,43 0,86 0,129 10.666,42.67 21.334,85.33 32,128 10.667,0 21.333,0 32,0 0,21.67 0,43.33 0,65 10.667,0 21.333,0 32,0 0,32 0,64 0,96 10.665,10.67 21.335,21.33 32,32 0,11 0,22 0,33 11,0 22,0 33,0 -21.916,21.08 -43.603,42.39 -65,64 0,32 0,64 0,96 -10.665,10.67 -21.335,21.33 -32,32 21.333,11 42.667,22 64,33 0,10.67 0,21.33 0,32 11,0 22,0 33,0 0,10.67 0,21.33 0,32 31.999,-10.67 64.001,-21.33 96,-32 0,-10.67 0,-21.33 0,-32 10.667,0 21.333,0 32,0 21.668,21.33 43.332,42.67 65,64 10.668,21.33 21.332,42.67 32,64 10.665,10.67 21.335,21.33 32,32 -10.667,0 -21.333,0 -32,0 10.666,21.67 21.334,43.33 32,65 21.332,10.67 42.668,21.33 64,32 -10.665,10.67 -21.335,21.33 -32,32 -10.667,0 -21.333,0 -32,0 10.667,32 21.333,64 32,96 0,11 0,22 0,33 43,-11 86,-22 129,-33 10.668,32.33 21.332,64.67 32,97 21.333,0 42.667,0 64,0 11.066,10.84 21.705,22.17 33.043,32.69 31.984,21.1 63.971,42.21 95.957,63.31 -10.999,21.67 -22.001,43.33 -33,65 43.001,21.33 85.999,42.67 129,64 53.666,-10.67 107.334,-21.33 161,-32 0,32 0,64 0,96 21.335,32.33 42.665,64.67 64,97 21.665,10.67 43.335,21.33 65,32 10.668,-21.33 21.332,-42.67 32,-64 -10.668,-32.33 -21.332,-64.67 -32,-97 21.333,0 42.667,0 64,0 21.333,-32 42.667,-64 64,-96 21.332,10.67 42.668,21.33 64,32 0,-10.67 0,-21.33 0,-32 10.998,-10.67 22.002,-21.33 33,-32 0,-11 0,-22 0,-33 21.333,11 42.667,22 64,33 21.335,-32.33 42.665,-64.67 64,-97 10.667,0 21.333,0 32,0 21.412,21.59 43.068,42.94 65,64 10.665,-10.67 21.335,-21.33 32,-32 10.665,10.67 21.335,21.33 32,32 0,-10.67 0,-21.33 0,-32 21.333,0 42.667,0 64,0 0,-10.67 0,-21.33 0,-32 21.665,-10.67 43.335,-21.33 65,-32 10.665,-10.67 21.335,-21.33 32,-32 10.665,10.67 21.335,21.33 32,32 10.665,-10.67 21.335,-21.33 32,-32 10.667,0 21.333,0 32,0 -10.665,10.67 -21.335,21.33 -32,32 10.665,10.67 21.335,21.33 32,32 0,-21.33 0,-42.67 0,-64 32.332,10.67 64.668,21.33 97,32 21.332,-10.67 42.668,-21.33 64,-32 32,0 64,0 96,0 0,-10.67 0,-21.33 0,-32 -21.333,0 -42.667,0 -64,0 -10.666,-21.67 -21.334,-43.33 -32,-65 10.665,10.67 21.335,21.33 32,32 21.335,-21.33 42.665,-42.67 64,-64 10.998,10.67 22.002,21.33 33,32 0,-10.67 0,-21.33 0,-32 42.667,0 85.333,0 128,0 32.332,-10.67 64.668,-21.33 97,-32 32,0 64,0 96,0 21.335,-21.33 42.665,-42.67 64,-64 43.001,21.33 85.999,42.67 129,64 0,-10.67 0,-21.33 0,-32 32,0 64,0 96,0 0,-32.33 0,-64.67 0,-97 21.665,-10.67 43.335,-21.33 65,-32 10.668,-21.33 21.332,-42.67 32,-64 21.333,0 42.667,0 64,0 10.665,-10.67 21.335,-21.33 32,-32 10.998,10.67 22.002,21.33 33,32 10.667,0 21.333,0 32,0 10.668,-64.33 21.332,-128.67 32,-193 21.333,0 42.667,0 64,0 0,-10.67 0,-21.33 0,-32 10.668,-21.33 21.332,-42.67 32,-64 21.667,0 43.333,0 65,0 21.331,-21.67 42.669,-43.33 64,-65 10.667,-32 21.333,-64 32,-96 32.333,-43 64.667,-86 97,-129 0,-10.67 0,-21.33 0,-32 -21.665,10.67 -43.335,21.33 -65,32 -10.665,-10.67 -21.335,-21.33 -32,-32 0,-10.67 0,-21.33 0,-32 10.665,-10.67 21.335,-21.33 32,-32 -10.666,-21.67 -21.334,-43.33 -32,-65 10.667,0 21.333,0 32,0 10.668,-21.33 21.332,-42.67 32,-64 21.667,0 43.333,0 65,0 21.333,-32 42.667,-64 64,-96 32.099,-11.06 64.234,-22.02 96.308,-33.15 21.563,-10.62 43.129,-21.23 64.692,-31.85 21.332,10.67 42.668,21.33 64,32 21.332,-10.67 42.668,-21.33 64,-32 11,-32 22,-64 33,-96 10.667,0 21.333,0 32,0 10.668,-21.33 21.332,-42.67 32,-64 -10.667,-11 -21.333,-22 -32,-33 10.668,-21.33 21.332,-42.67 32,-64 10.665,10.67 21.335,21.33 32,32 10.665,-10.67 21.335,-21.33 32,-32 -10.668,-21.33 -21.332,-42.67 -32,-64 10.665,-10.67 21.335,-21.33 32,-32 21.333,0 42.667,0 64,0 11,-11 22,-22 33,-33 0,-10.67 0,-21.33 0,-32 -21.665,-10.67 -43.335,-21.33 -65,-32 10.665,-10.67 21.335,-21.33 32,-32 11,0 22,0 33,0 10.665,-10.67 21.335,-21.33 32,-32 -10.665,-10.67 -21.335,-21.33 -32,-32 -11,0 -22,0 -33,0 -21.332,-10.67 -42.668,-21.33 -64,-32 21.333,-11 42.667,-22 64,-33 0,-32 0,-64 0,-96 42.999,-10.67 86.001,-21.33 129,-32 21.332,10.67 42.668,21.33 64,32 11,0 22,0 33,0 -11.001,-21.33 -21.999,-42.67 -33,-64 11.392,-11.17 22.376,-22.82 34.034,-33.69 31.653,-21.11 63.31,-42.21 94.966,-63.31 0,-10.67 0,-21.33 0,-32 -10.665,-10.67 -21.335,-21.33 -32,-32 21.332,-10.67 42.668,-21.33 64,-32 0,-21.67 0,-43.33 0,-65 32.333,0 64.667,0 97,0 0,-21.33 0,-42.67 0,-64 21.333,0 42.667,0 64,0 10.665,10.67 21.335,21.33 32,32 43,0 86,0 129,0 -10.998,10.67 -22.002,21.33 -33,32 21.665,-10.67 43.335,-21.33 65,-32 10.665,10.67 21.335,21.33 32,32 0,11 0,22 0,33 21.332,10.67 42.668,21.33 64,32 10.665,-10.67 21.335,-21.33 32,-32 -10.667,-11 -21.333,-22 -32,-33 10.667,0 21.333,0 32,0 10.999,21.67 22.001,43.33 33,65 10.665,-10.67 21.335,-21.33 32,-32 -10.667,-11 -21.333,-22 -32,-33 0,-10.67 0,-21.33 0,-32 10.794,10.69 21.39,21.59 32.305,32.16 21.233,10.94 42.465,21.89 63.695,32.84 0,-11 0,-22 0,-33 21.333,0 42.667,0 64,0 0,11 0,22 0,33 64.333,0 128.667,0 193,0 -10.666,-21.67 -21.334,-43.33 -32,-65 11.014,0.23 22.136,-0.46 33.081,0.36 31.973,10.55 63.946,21.09 95.919,31.64 32.002,-21.33 63.998,-42.67 96,-64 10.665,10.67 21.335,21.33 32,32 10.665,-10.67 21.335,-21.33 32,-32 11,0 22,0 33,0 0,-10.67 0,-21.33 0,-32 10.667,0 21.333,0 32,0 -10.668,-21.33 -21.332,-42.67 -32,-64 10.665,10.67 21.335,21.33 32,32 10.668,-21.33 21.332,-42.67 32,-64 0,21.33 0,42.67 0,64 10.667,0 21.333,0 32,0 32.335,21.33 64.665,42.67 97,64 0,-10.67 0,-21.33 0,-32 10.667,0 21.333,0 32,0 0,21.33 0,42.67 0,64 21.332,-10.67 42.668,-21.33 64,-32 0,21.33 0,42.67 0,64 10.667,11 21.333,22 32,33 21.665,-21.67 43.335,-43.33 65,-65 21.332,-10.67 42.668,-21.33 64,-32 10.665,10.67 21.335,21.33 32,32 10.668,-21.33 21.332,-42.67 32,-64 21.333,0 42.667,0 64,0 11.001,-21.33 21.999,-42.67 33,-64 0,-10.67 0,-21.33 0,-32 32,-11 64,-22 96,-33 0,-10.67 0,-21.33 0,-32 10.667,0 21.333,0 32,0 0,-10.67 0,-21.33 0,-32 21.332,10.67 42.668,21.33 64,32 0,10.67 0,21.33 0,32 -10.665,-10.67 -21.335,-21.33 -32,-32 0,10.67 0,21.33 0,32 21.665,21.67 43.335,43.33 65,65 0,-10.67 0,-21.33 0,-32 21.333,0 42.667,0 64,0 0,-11 0,-22 0,-33 10.665,-10.67 21.335,-21.33 32,-32 10.667,0 21.333,0 32,0 10.665,10.67 21.335,21.33 32,32 10.998,-10.67 22.002,-21.33 33,-32 10.667,0 21.333,0 32,0 10.668,-21.33 21.332,-42.67 32,-64 -10.665,-10.67 -21.335,-21.33 -32,-32 0,-10.67 0,-21.33 0,-32 32,0 64,0 96,0 -10.667,0 -21.333,0 -32,0 10.667,-11 21.333,-22 32,-33 21.667,11 43.333,22 65,33 -10.999,-21.67 -22.001,-43.33 -33,-65 0,-10.67 0,-21.33 0,-32 10.998,10.67 22.002,21.33 33,32 0,-21.33 0,-42.67 0,-64 21.333,0 42.667,0 64,0 10.665,10.67 21.335,21.33 32,32 21.333,0 42.667,0 64,0 0,-10.67 0,-21.33 0,-32 21.665,10.67 43.335,21.33 65,32 -11.001,-21.33 -21.999,-42.67 -33,-64 11,0 22,0 33,0 10.665,-10.67 21.335,-21.33 32,-32 21.332,10.67 42.668,21.33 64,32 0,-43 0,-86 0,-129 10.665,10.67 21.335,21.33 32,32 10.665,-10.67 21.335,-21.33 32,-32 10.665,10.67 21.335,21.33 32,32 21.665,-10.67 43.335,-21.33 65,-32 10.667,0 21.333,0 32,0 10.665,10.67 21.335,21.33 32,32 0,-21.33 0,-42.67 0,-64 10.667,0 21.333,0 32,0 10.665,-10.67 21.335,-21.33 32,-32 10.667,0 21.333,0 32,0 10.998,-10.67 22.002,-21.33 33,-32 10.665,10.67 21.335,21.33 32,32 31.999,10.67 64.001,21.33 96,32 21.665,-10.67 43.335,-21.33 65,-32 21.333,0 42.667,0 64,0 10.668,21.33 21.332,42.67 32,64 10.667,0 21.333,0 32,0 -10.668,-21.33 -21.332,-42.67 -32,-64 10.667,0 21.333,0 32,0 21.668,21.33 43.332,42.67 65,64 21.332,10.67 42.668,21.33 64,32 21.331,21.67 42.669,43.33 64,65 -21.333,0 -42.667,0 -64,0 0,21.33 0,42.67 0,64 10.665,-10.67 21.335,-21.33 32,-32 0,42.67 0,85.33 0,128 10.665,-10.67 21.335,-21.33 32,-32 0,21.67 0,43.33 0,65 10.667,-11 21.333,-22 32,-33 10.667,0 21.333,0 32,0 0,32.33 0,64.67 0,97 11.001,-21.33 21.999,-42.67 33,-64 10.665,10.67 21.335,21.33 32,32 42.667,0 85.333,0 128,0 -10.665,10.67 -21.335,21.33 -32,32 21.333,32 42.667,64 64,96 21.665,-10.67 43.335,-21.33 65,-32 0,-21.33 0,-42.67 0,-64 21.332,10.67 42.668,21.33 64,32 43,0 86,0 129,0 -10.665,10.67 -21.335,21.33 -32,32 -11,0 -22,0 -33,0 0,10.67 0,21.33 0,32 21.665,-10.67 43.335,-21.33 65,-32 -10.665,10.67 -21.335,21.33 -32,32 10.667,11 21.333,22 32,33 21.333,-11 42.667,-22 64,-33 -10.665,-10.67 -21.335,-21.33 -32,-32 10.665,-10.67 21.335,-21.33 32,-32 21.335,32.33 42.665,64.67 64,97 11,-11 22,-22 33,-33 10.666,21.67 21.334,43.33 32,65 10.665,10.67 21.335,21.33 32,32 10.665,-10.67 21.335,-21.33 32,-32 10.667,0 21.333,0 32,0 -10.665,10.67 -21.335,21.33 -32,32 10.665,10.67 21.335,21.33 32,32 10.665,-10.67 21.335,-21.33 32,-32 32.333,0 64.667,0 97,0 -10.668,21.33 -21.332,42.67 -32,64 32.002,32.33 63.998,64.67 96,97 0,-11 0,-22 0,-33 10.665,-10.67 21.335,-21.33 32,-32 10.666,21.67 21.334,43.33 32,65 10.667,-11 21.333,-22 32,-33 11,0 22,0 33,0 10.667,11 21.333,22 32,33 10.667,0 21.333,0 32,0 10.665,10.67 21.335,21.33 32,32 10.667,0 21.333,0 32,0 10.668,21.33 21.332,42.67 32,64 21.668,-21.33 43.332,-42.67 65,-64 10.668,21.33 21.332,42.67 32,64 21.335,-21.33 42.665,-42.67 64,-64 10.668,21.33 21.332,42.67 32,64 11.001,-21.33 21.999,-42.67 33,-64 10.668,21.33 21.332,42.67 32,64 21.335,-21.33 42.665,-42.67 64,-64 0,21.33 0,42.67 0,64 21.332,10.67 42.668,21.33 64,32 0,-32 0,-64 0,-96 10.668,21.33 21.332,42.67 32,64 32.393,31.94 64.944,63.72 97,96 0,-21.33 0,-42.67 0,-64 32.126,32.21 64.554,64.12 96,97 21.667,-11 43.333,-22 65,-33 -11,11 -22,22 -33,33 11,0 22,0 33,0 -11.001,21.33 -21.999,42.67 -33,64 10.998,10.67 22.002,21.33 33,32 -11,0 -22,0 -33,0 10.998,10.67 22.002,21.33 33,32 -11,0 -22,0 -33,0 0,21.67 0,43.33 0,65 10.998,10.67 22.002,21.33 33,32 0,-10.67 0,-21.33 0,-32 10.667,0 21.333,0 32,0 0,32 0,64 0,96 10.667,0 21.333,0 32,0 10.665,10.67 21.335,21.33 32,32 0,-10.67 0,-21.33 0,-32 21.335,21.33 42.665,42.67 64,64 -10.667,0 -21.333,0 -32,0 21.665,10.67 43.335,21.33 65,32 0,11 0,22 0,33 10.665,10.67 21.335,21.33 32,32 21.333,0 42.667,0 64,0 0,21.33 0,42.67 0,64 21.333,0 42.667,0 64,0 0,10.67 0,21.33 0,32 10.998,-10.67 22.002,-21.33 33,-32 0,10.67 0,21.33 0,32 10.665,-10.67 21.335,-21.33 32,-32 10.667,0 21.333,0 32,0 10.665,-10.67 21.335,-21.33 32,-32 32,32 64,64 96,96 0,11 0,22 0,33 11,0 22,0 33,0 0,10.67 0,21.33 0,32 42.667,0 85.333,0 128,0 10.665,10.67 21.335,21.33 32,32 21.665,-10.67 43.335,-21.33 65,-32 21.332,10.67 42.668,21.33 64,32 0,10.67 0,21.33 0,32 10.667,0 21.333,0 32,0 10.665,-10.67 21.335,-21.33 32,-32 10.794,10.69 21.381,21.59 32.308,32.15 21.563,10.62 43.129,21.23 64.692,31.85 10.667,0 21.333,0 32,0 0,32.33 0,64.67 0,97 21.333,0 42.667,0 64,0 0,-11 0,-22 0,-33 0,11 0,22 0,33 21.332,10.67 42.668,21.33 64,32 0,-10.67 0,-21.33 0,-32 -10.667,0 -21.333,0 -32,0 10.667,-11 21.333,-22 32,-33 11,11 22,22 33,33 32,-11 64,-22 96,-33 10.667,0 21.333,0 32,0 -10.667,11 -21.333,22 -32,33 21.332,10.67 42.668,21.33 64,32 -10.665,10.67 -21.335,21.33 -32,32 10.665,-10.67 21.335,-21.33 32,-32 0,10.67 0,21.33 0,32 21.667,0 43.333,0 65,0 0,-10.67 0,-21.33 0,-32 10.665,10.67 21.335,21.33 32,32 -10.665,10.67 -21.335,21.33 -32,32 10.665,10.67 21.335,21.33 32,32 10.667,0 21.333,0 32,0 0,10.67 0,21.33 0,32 10.667,0 21.333,0 32,0 0,21.67 0,43.33 0,65 10.665,-10.67 21.335,-21.33 32,-32 -10.665,10.67 -21.335,21.33 -32,32 10.665,10.67 21.335,21.33 32,32 0,-10.67 0,-21.33 0,-32 10.665,10.67 21.335,21.33 32,32 0,-10.67 0,-21.33 0,-32 11,0 22,0 33,0 0,10.67 0,21.33 0,32 21.332,10.67 42.668,21.33 64,32 0,10.67 0,21.33 0,32 -10.665,-10.67 -21.335,-21.33 -32,-32 0,10.67 0,21.33 0,32 32,0 64,0 96,0 0,10.67 0,21.33 0,32 10.667,0 21.333,0 32,0 0,10.67 0,21.33 0,32 21.665,-10.67 43.335,-21.33 65,-32 10.665,10.67 21.335,21.33 32,32 0,11 0,22 0,33 10.667,0 21.333,0 32,0 -10.665,10.67 -21.335,21.33 -32,32 10.667,0 21.333,0 32,0 0,-10.67 0,-21.33 0,-32 10.665,10.67 21.335,21.33 32,32 32.333,0 64.667,0 97,0 0,10.67 0,21.33 0,32 21.332,10.67 42.668,21.33 64,32 21.335,-21.33 42.665,-42.67 64,-64 10.666,-21.67 21.334,-43.33 32,-65 11,11 22,22 33,33 0,-11 0,-22 0,-33 10.667,11 21.333,22 32,33 10.667,-11 21.333,-22 32,-33 10.667,11 21.333,22 32,33 0,-11 0,-22 0,-33 21.084,21.91 42.393,43.6 64,65 32.333,0 64.667,0 97,0 0,-10.67 0,-21.33 0,-32 0,10.67 0,21.33 0,32 21.333,0 42.667,0 64,0 10.665,-10.67 21.335,-21.33 32,-32 0,10.67 0,21.33 0,32 0,-10.67 0,-21.33 0,-32 10.667,0 21.333,0 32,0 0,-11 0,-22 0,-33 11,11 22,22 33,33 0,-11 0,-22 0,-33 21.333,11 42.667,22 64,33 10.665,10.67 21.335,21.33 32,32 0,-10.67 0,-21.33 0,-32 10.666,-21.67 21.334,-43.33 32,-65 10.665,10.67 21.335,21.33 32,32 10.668,-21.33 21.332,-42.67 32,-64 10.998,10.67 22.002,21.33 33,32 0,-10.67 0,-21.33 0,-32 21.333,0 42.667,0 64,0 10.665,-10.67 21.335,-21.33 32,-32 64.333,0 128.667,0 193,0 10.668,21.33 21.332,42.67 32,64 21.332,-10.67 42.668,-21.33 64,-32 32.332,10.67 64.668,21.33 97,32 21.332,-10.67 42.668,-21.33 64,-32 11.014,-0.23 22.136,0.46 33.081,-0.36 31.973,-10.55 63.946,-21.09 95.919,-31.64 0,-21.33 0,-42.67 0,-64 10.667,0 21.333,0 32,0 21.331,-21.67 42.669,-43.33 64,-65 10.667,0 21.333,0 32,0 21.668,-21.33 43.332,-42.67 65,-64 32,0 64,0 96,0 0,-10.67 0,-21.33 0,-32 10.665,-10.67 21.335,-21.33 32,-32 -10.667,0 -21.333,0 -32,0 10.666,-21.67 21.334,-43.33 32,-65 0,-10.67 0,-21.33 0,-32 10.668,-21.33 21.332,-42.67 32,-64 32.332,-10.67 64.668,-21.33 97,-32 21.333,0 42.667,0 64,0 21.665,-10.67 43.335,-21.33 65,-32 0,-21.67 0,-43.33 0,-65 10.796,11.02 21.374,22.26 32.307,33.15 21.23,10.62 42.463,21.23 63.693,31.85 0,-10.67 0,-21.33 0,-32 10.667,0 21.333,0 32,0 21.667,-11 43.333,-22 65,-33 10.665,-10.67 21.335,-21.33 32,-32 21.332,10.67 42.668,21.33 64,32 32.098,-10.73 64.234,-21.35 96.308,-32.15 42.895,-21.29 85.793,-42.57 128.692,-63.85 10.665,-10.67 21.335,-21.33 32,-32 21.332,10.67 42.668,21.33 64,32 0,10.67 0,21.33 0,32 10.998,-10.67 22.002,-21.33 33,-32 10.668,21.33 21.332,42.67 32,64 32.002,-21.33 63.998,-42.67 96,-64 10.667,0 21.333,0 32,0 10.998,10.67 22.002,21.33 33,32 32,0 64,0 96,0 21.332,10.67 42.668,21.33 64,32 11,0 22,0 33,0 0,10.67 0,21.33 0,32 10.667,0 21.333,0 32,0 -10.666,21.67 -21.334,43.33 -32,65 10.667,0 21.333,0 32,0 0,10.67 0,21.33 0,32 10.668,21.33 21.332,42.67 32,64 53.666,10.67 107.334,21.33 161,32 10.665,10.67 21.335,21.33 32,32 10.665,-10.67 21.335,-21.33 32,-32 10.665,10.67 21.335,21.33 32,32 0,11 0,22 0,33 21.335,21.33 42.665,42.67 64,64 32.332,10.67 64.668,21.33 97,32 0,21.33 0,42.67 0,64 -10.665,-10.67 -21.335,-21.33 -32,-32 0,21.67 0,43.33 0,65 10.665,10.67 21.335,21.33 32,32 -10.665,10.67 -21.335,21.33 -32,32 10.667,0 21.333,0 32,0 0,10.67 0,21.33 0,32 10.667,0 21.333,0 32,0 -10.667,32 -21.333,64 -32,96 -10.667,11 -21.333,22 -32,33 21.742,11.01 43.73,21.58 65.318,32.88 31.561,21.04 63.123,42.08 94.682,63.12 0,-10.67 0,-21.33 0,-32 0,10.67 0,21.33 0,32 11,0 22,0 33,0 21.332,10.67 42.668,21.33 64,32 53.667,0 107.333,0 161,0 10.665,-10.67 21.335,-21.33 32,-32 32,0 64,0 96,0 10.794,-10.69 21.381,-21.59 32.308,-32.15 21.563,-10.62 43.129,-21.23 64.692,-31.85 10.666,-21.67 21.334,-43.33 32,-65 21.333,0 42.667,0 64,0 10.665,-10.67 21.335,-21.33 32,-32 21.667,0 43.333,0 65,0 10.665,-10.67 21.335,-21.33 32,-32 10.667,0 21.333,0 32,0 10.793,-10.69 21.386,-21.59 32.307,-32.15 21.23,-10.62 42.463,-21.23 63.693,-31.85 10.665,10.67 21.335,21.33 32,32 21.667,0 43.333,0 65,0 10.665,10.67 21.335,21.33 32,32 10.665,-10.67 21.335,-21.33 32,-32 10.668,21.33 21.332,42.67 32,64 21.665,-10.67 43.335,-21.33 65,-32 10.665,10.67 21.335,21.33 32,32 0,-10.67 0,-21.33 0,-32 0,10.67 0,21.33 0,32 10.665,-10.67 21.335,-21.33 32,-32 21.333,0 42.667,0 64,0 21.665,10.67 43.335,21.33 65,32 10.67,-10.67 21.33,-21.33 32,-32 -10.67,-10.67 -21.33,-21.33 -32,-32 10.67,-21.33 21.33,-42.67 32,-64 0,-10.67 0,-21.33 0,-32 32,-32.33 64,-64.67 96,-97 0,-32 0,-64 0,-96 10.67,-21.67 21.33,-43.33 32,-65 0,-10.67 0,-21.33 0,-32 -10.67,0 -21.33,0 -32,0 0,-42.67 0,-85.33 0,-128 10.67,10.67 21.33,21.33 32,32 0,-10.67 0,-21.33 0,-32 10.67,0 21.33,0 32,0 21.86,-42.9 43.56,-85.89 65,-129 42.67,-10.67 85.33,-21.33 128,-32 10.67,0 21.33,0 32,0 11,10.67 22,21.33 33,32 10.67,-10.67 21.33,-21.33 32,-32 10.67,0 21.33,0 32,0 0,-10.67 0,-21.33 0,-32 32,-11 64,-22 96,-33 44.81,-43.02 88.19,-87.48 132.26,-131.26 63.24,-63.24 126.49,-126.49 189.74,-189.74 10.67,-21.33 21.33,-42.67 32,-64 10.67,-11 21.33,-22 32,-33 64.33,-21.33 128.67,-42.67 193,-64 -10.67,-32 -21.33,-64 -32,-96 10.67,-32.33 21.33,-64.67 32,-97 10.67,-10.67 21.33,-21.33 32,-32 10.67,-32 21.33,-64 32,-96 21.67,-10.67 43.33,-21.33 65,-32 32,0 64,0 96,0 21.76,-32.4 43.38,-64.9 65.24,-97.24 10.59,-10.59 21.17,-21.17 31.76,-31.76 0,-21.33 0,-42.67 0,-64 21.33,0 42.67,0 64,0 21.33,-21.67 42.67,-43.33 64,-65 43,-10.67 86,-21.33 129,-32 21.33,10.67 42.67,21.33 64,32 0,21.67 0,43.33 0,65 21.67,10.67 43.33,21.33 65,32 -32.33,664.33 -64.67,1328.67 -97,1993 -10.67,0 -21.33,0 -32,0 -21.33,10.67 -42.67,21.33 -64,32 -21.67,-10.67 -43.33,-21.33 -65,-32 -21.33,21.67 -42.67,43.33 -64,65 -85.67,0 -171.33,0 -257,0 -10.67,10.67 -21.33,21.33 -32,32 -54.18,21.64 -108.52,42.92 -162.6,64.8 -20.8,10.4 -41.6,20.8 -62.4,31.2 0,32.33 0,64.67 0,97 -11.12,10.69 -22.06,21.59 -33.31,32.15 -21.23,10.62 -42.46,21.23 -63.69,31.85 0,10.67 0,21.33 0,32 -10.69,10.79 -21.59,21.38 -32.15,32.31 -21.29,42.89 -42.57,85.79 -63.85,128.69 0,10.67 0,21.33 0,32 -21.47,42.97 -42.91,85.96 -64.93,128.64 -10.74,14.04 -22.06,27.67 -33.02,41.55 -31.68,39.6 -63.37,79.21 -95.05,118.81 0,21.67 0,43.33 0,65 -10.69,10.79 -21.59,21.39 -32.16,32.31 -10.95,21.23 -21.89,42.46 -32.84,63.69 0,21.33 0,42.67 0,64 11,21.67 22,43.33 33,65 -11,10.67 -22,21.33 -33,32 11,0 22,0 33,0 -11,21.33 -22,42.67 -33,64 11,10.67 22,21.33 33,32 0,-10.67 0,-21.33 0,-32 10.67,0 21.33,0 32,0 10.67,-10.67 21.33,-21.33 32,-32 10.67,10.67 21.33,21.33 32,32 32.33,0 64.67,0 97,0 0,-10.67 0,-21.33 0,-32 32,0 64,0 96,0 10.67,21.33 21.33,42.67 32,64 10.67,0 21.33,0 32,0 -10.67,-10.67 -21.33,-21.33 -32,-32 10.67,0 21.33,0 32,0 0,21.33 0,42.67 0,64 21.67,-10.67 43.33,-21.33 65,-32 10.67,10.67 21.33,21.33 32,32 0,11 0,22 0,33 10.67,-11 21.33,-22 32,-33 0,11 0,22 0,33 10.67,0 21.33,0 32,0 0,10.67 0,21.33 0,32 10.67,0 21.33,0 32,0 10.67,10.67 21.33,21.33 32,32 0,21.33 0,42.67 0,64 10.67,-10.67 21.33,-21.33 32,-32 11,0 22,0 33,0 0,21.33 0,42.67 0,64 10.67,0 21.33,0 32,0 0,11 0,22 0,33 21.33,0 42.67,0 64,0 -10.67,10.67 -21.33,21.33 -32,32 10.67,0 21.33,0 32,0 0,10.67 0,21.33 0,32 21.33,21.33 42.67,42.67 64,64 53.67,-10.67 107.33,-21.33 161,-32 10.67,0 21.33,0 32,0 11,10.67 22,21.33 33,32 10.67,-10.67 21.33,-21.33 32,-32 10.67,0 21.33,0 32,0 0,10.67 0,21.33 0,32 21.33,0 42.67,0 64,0 10.67,21.67 21.33,43.33 32,65 10.67,-21.67 21.33,-43.33 32,-65 21.66,-20.79 43,-41.91 64.23,-63.13 5.93,-4.08 12.88,-6.62 19.21,-10.09 15.19,-7.59 30.37,-15.19 45.56,-22.78 0,-10.67 0,-21.33 0,-32 43,0 86,0 129,0 10.67,10.67 21.33,21.33 32,32 0,-10.67 0,-21.33 0,-32 21.33,0 42.67,0 64,0 0,10.67 0,21.33 0,32 10.67,21.33 21.33,42.67 32,64 32.33,10.67 64.67,21.33 97,32 0,10.67 0,21.33 0,32 21.33,0 42.67,0 64,0 10.67,-10.67 21.33,-21.33 32,-32 10.67,0 21.33,0 32,0 0,21.67 0,43.33 0,65 21.67,0 43.33,0 65,0 21.33,10.67 42.67,21.33 64,32 21.33,0 42.67,0 64,0 10.67,10.67 21.33,21.33 32,32 11,0 22,0 33,0 10.79,10.69 21.39,21.59 32.31,32.15 21.23,10.62 42.46,21.23 63.69,31.85 10.67,-10.67 21.33,-21.33 32,-32 10.67,0 21.33,0 32,0 10.67,-21.33 21.33,-42.67 32,-64 11,-10.67 22,-21.33 33,-32 0,-32.33 0,-64.67 0,-97 10.67,0 21.33,0 32,0 0,-10.67 0,-21.33 0,-32 10.67,10.67 21.33,21.33 32,32 0,-10.67 0,-21.33 0,-32 10.67,-10.67 21.33,-21.33 32,-32 0,10.67 0,21.33 0,32 10.67,-10.67 21.33,-21.33 32,-32 0,10.67 0,21.33 0,32 10.67,0 21.33,0 32,0 0,-10.67 0,-21.33 0,-32 11,21.33 22,42.67 33,64 10.67,-10.67 21.33,-21.33 32,-32 0,10.67 0,21.33 0,32 10.67,0 21.33,0 32,0 32,21.33 64,42.67 96,64 32.33,-10.67 64.67,-21.33 97,-32 32,10.67 64,21.33 96,32 10.67,0 21.33,0 32,0 11,-10.67 22,-21.33 33,-32 42.67,-10.67 85.33,-21.33 128,-32 64.44,10.72 128.9,21.3 193.33,32.11 32.22,10.63 64.45,21.26 96.67,31.89 10.67,0 21.33,0 32,0 39.53,20.49 79.15,40.82 119.07,60.54 5.75,3.85 12.08,5.27 18.93,4.46 7.33,0 14.67,0 22,0 11,21.33 22,42.67 33,64 32,10.67 64,21.33 96,32 160.67,0 321.33,0 482,0 -21.33,21.33 -42.67,42.67 -64,64 -53.67,0 -107.33,0 -161,0 -10.8,11.03 -21.37,22.26 -32.31,33.15 -21.23,10.62 -42.46,21.23 -63.69,31.85 -10.67,21.33 -21.33,42.67 -32,64 10.67,32.38 21.79,64.64 32.18,97.09 10.6,63.97 21.21,127.94 31.82,191.91 0,32.33 0,64.67 0,97 32,96.33 64,192.67 96,289 0,43 0,86 0,129 11,42.67 22,85.33 33,128 0,64.33 0,128.67 0,193 53.33,53.67 106.67,107.33 160,161 43,0 86,0 129,0 21.33,10.67 42.67,21.33 64,32 10.67,0 21.33,0 32,0 11,-42.67 22,-85.33 33,-128 53.33,-32.33 106.67,-64.67 160,-97 53.67,-10.67 107.33,-21.33 161,-32 43,0 86,0 129,0 75,21.33 150,42.67 225,64 85.67,0 171.33,0 257,0 32.1,11.06 64.23,22.02 96.31,33.15 21.97,10.97 44.2,21.46 66.01,32.73 31.56,21.04 63.12,42.08 94.68,63.12 0,10.67 0,21.33 0,32 10.67,10.67 21.33,21.33 32,32 -10.67,32.33 -21.33,64.67 -32,97 -32,32 -64,64 -96,96 -21.67,43 -43.33,86 -65,129 -64,10.67 -128,21.33 -192,32 -43,0 -86,0 -129,0 -10.67,10.67 -21.33,21.33 -32,32 -0.21,11.1 0.43,22.29 -0.33,33.34 -10.56,42.55 -21.11,85.11 -31.67,127.66 -32.33,21.33 -64.67,42.67 -97,64 -10.76,22.16 -22,44.1 -32.47,66.39 -10.51,31.54 -21.02,63.07 -31.53,94.61 -43,10.67 -86,21.33 -129,32 -32,43 -64,86 -96,129 0,10.67 0,21.33 0,32 10.67,21.33 21.33,42.67 32,64 0,21.67 0,43.33 0,65 21.33,21.33 42.67,42.67 64,64 10.67,21.33 21.33,42.67 32,64 -10.67,21.33 -21.33,42.67 -32,64 32.33,0 64.67,0 97,0 10.67,11 21.33,22 32,33 0,32 0,64 0,96 64.33,10.67 128.67,21.33 193,32 42.67,21.67 85.33,43.33 128,65 0,10.67 0,21.33 0,32 11,0 22,0 33,0 21.33,10.67 42.67,21.33 64,32 21.33,-10.67 42.67,-21.33 64,-32 43,21.33 86,42.67 129,64 32,0 64,0 96,0 21.67,10.67 43.33,21.33 65,32 32,0 64,0 96,0 21.33,10.67 42.67,21.33 64,32 53.67,-21.33 107.33,-42.67 161,-64 11.3,0.23 22.67,-0.48 33.92,0.38 53.03,10.54 106.05,21.08 159.08,31.62 10.67,10.67 21.33,21.33 32,32 21.33,-10.67 42.67,-21.33 64,-32 43,0 86,0 129,0 11.07,-10.84 21.71,-22.17 33.05,-32.69 32.09,-21.15 64.13,-42.37 96.26,-63.46 21.23,-10.62 42.46,-21.23 63.69,-31.85 0,-11 0,-22 0,-33 32,0 64,0 96,0 21.67,11 43.33,22 65,33 0,10.67 0,21.33 0,32 32.1,10.73 64.24,21.35 96.31,32.15 42.89,21.29 85.79,42.57 128.69,63.85 42.67,0 85.33,0 128,0 32.33,64.33 64.67,128.67 97,193 0,10.67 0,21.33 0,32 21.33,10.67 42.67,21.33 64,32 0,21.67 0,43.33 0,65 21.33,10.67 42.67,21.33 64,32 0,10.67 0,21.33 0,32 32.33,32 64.67,64 97,96 0,11 0,22 0,33 21.33,0 42.67,0 64,0 -10.67,10.67 -21.33,21.33 -32,32 32.33,0 64.67,0 97,0 0,21.33 0,42.67 0,64 -11,0 -22,0 -33,0 21.67,0 43.33,0 65,0 0,10.67 0,21.33 0,32 10.67,0 21.33,0 32,0 0,10.67 0,21.33 0,32 35.09,18.15 70.16,36.34 105.72,53.54 7.76,3.82 15.52,7.64 23.28,11.46 21.33,0 42.67,0 64,0 0,-21.67 0,-43.33 0,-65 32,0 64,0 96,0 21.67,11 43.33,22 65,33 0,-11 0,-22 0,-33 21.33,21.67 42.67,43.33 64,65 42.67,0 85.33,0 128,0 21.67,10.67 43.33,21.33 65,32 0,10.67 0,21.33 0,32 10.67,-10.67 21.33,-21.33 32,-32 0,10.67 0,21.33 0,32 21.33,-10.67 42.67,-21.33 64,-32 10.67,0 21.33,0 32,0 0,10.67 0,21.33 0,32 11,0 22,0 33,0 0,10.67 0,21.33 0,32 10.67,10.67 21.33,21.33 32,32 0,21.67 0,43.33 0,65 10.67,0 21.33,0 32,0 21.33,21.33 42.67,42.67 64,64 10.67,0 21.33,0 32,0 11,10.67 22,21.33 33,32 10.67,0 21.33,0 32,0 21.33,10.67 42.67,21.33 64,32 0,-10.67 0,-21.33 0,-32 10.67,10.67 21.33,21.33 32,32 0,21.67 0,43.33 0,65 10.67,10.67 21.33,21.33 32,32 -10.67,0 -21.33,0 -32,0 21.33,21.33 42.67,42.67 64,64 11,0 22,0 33,0 -11,0 -22,0 -33,0 0,10.67 0,21.33 0,32 11,0 22,0 33,0 10.67,10.67 21.33,21.33 32,32 21.33,0 42.67,0 64,0 10.67,-10.67 21.33,-21.33 32,-32 10.67,10.67 21.33,21.33 32,32 10.67,0 21.33,0 32,0 11,10.67 22,21.33 33,32 0,11 0,22 0,33 0,-11 0,-22 0,-33 21.33,11 42.67,22 64,33 10.67,0 21.33,0 32,0 10.67,10.67 21.33,21.33 32,32 -10.67,10.67 -21.33,21.33 -32,32 0,10.67 0,21.33 0,32 32.21,-32.12 64.12,-64.55 97,-96 0,10.67 0,21.33 0,32 21.33,0 42.67,0 64,0 10.67,10.67 21.33,21.33 32,32 21.33,0 42.67,0 64,0 -10.67,-21.33 -21.33,-42.67 -32,-64 21.41,21.59 43.07,42.94 65,64 21.33,0 42.67,0 64,0 0,-10.67 0,-21.33 0,-32 10.67,10.67 21.33,21.33 32,32 21.33,0 42.67,0 64,0 0,10.67 0,21.33 0,32 10.67,0 21.33,0 32,0 11,21.33 22,42.67 33,64 21.33,0 42.67,0 64,0 10.67,21.67 21.33,43.33 32,65 0,10.67 0,21.33 0,32 10.67,0 21.33,0 32,0 10.67,21.33 21.33,42.67 32,64 10.67,0 21.33,0 32,0 0,10.67 0,21.33 0,32 21.67,21.67 43.33,43.33 65,65 10.67,0 21.33,0 32,0 0,-11 0,-22 0,-33 21.33,0 42.67,0 64,0 -10.67,11 -21.33,22 -32,33 0,10.67 0,21.33 0,32 32.33,0 64.67,0 97,0 42.67,21.33 85.33,42.67 128,64 -10.67,0 -21.33,0 -32,0 21.33,10.67 42.67,21.33 64,32 -10.67,0 -21.33,0 -32,0 21.67,10.67 43.33,21.33 65,32 10.67,-10.67 21.33,-21.33 32,-32 21.33,21.67 42.67,43.33 64,65 32,0 64,0 96,0 -10.67,0 -21.33,0 -32,0 0,10.67 0,21.33 0,32 10.67,0 21.33,0 32,0 0,10.67 0,21.33 0,32 11,-10.67 22,-21.33 33,-32 10.67,21.33 21.33,42.67 32,64 10.67,0 21.33,0 32,0 10.67,-10.67 21.33,-21.33 32,-32 10.67,10.67 21.33,21.33 32,32 -10.67,0 -21.33,0 -32,0 21.33,21.33 42.67,42.67 64,64 10.67,-10.67 21.33,-21.33 32,-32 53.67,32.33 107.33,64.67 161,97 21.67,-11 43.33,-22 65,-33 10.67,0 21.33,0 32,0 21.33,11 42.67,22 64,33 21.33,0 42.67,0 64,0 0,10.67 0,21.33 0,32 21.67,-10.67 43.33,-21.33 65,-32 10.67,-11 21.33,-22 32,-33 21.33,0 42.67,0 64,0 0,11 0,22 0,33 32.33,0 64.67,0 97,0 10.67,10.67 21.33,21.33 32,32 32,0 64,0 96,0 32.33,10.67 64.67,21.33 97,32 10.67,0 21.33,0 32,0 0,10.67 0,21.33 0,32 10.67,10.67 21.33,21.33 32,32 21.33,0 42.67,0 64,0 10.67,-10.67 21.33,-21.33 32,-32 21.67,21.33 43.33,42.67 65,64 10.67,-10.67 21.33,-21.33 32,-32 10.67,0 21.33,0 32,0 10.67,10.67 21.33,21.33 32,32 32.33,0 64.67,0 97,0 10.67,10.67 21.33,21.33 32,32 10.67,0 21.33,0 32,0 -10.67,11 -21.33,22 -32,33 10.67,0 21.33,0 32,0 0,10.67 0,21.33 0,32 10.67,0 21.33,0 32,0 10.67,10.67 21.33,21.33 32,32 32.33,0 64.67,0 97,0 0,21.33 0,42.67 0,64 10.67,10.67 21.33,21.33 32,32 0,11 0,22 0,33 32,-11 64,-22 96,-33 21.67,11 43.33,22 65,33 42.67,0 85.33,0 128,0 0,32 0,64 0,96 10.67,0 21.33,0 32,0 21.91,21.08 43.6,42.39 65,64 10.67,-10.67 21.33,-21.33 32,-32 0,21.33 0,42.67 0,64 32,11 64,22 96,33 10.67,10.67 21.33,21.33 32,32 11,-10.67 22,-21.33 33,-32 21.33,0 42.67,0 64,0 0,-11 0,-22 0,-33 21.33,0 42.67,0 64,0 10.67,11 21.33,22 32,33 11,-11 22,-22 33,-33 0,11 0,22 0,33 21.33,0 42.67,0 64,0 10.67,21.33 21.33,42.67 32,64 21.33,10.67 42.67,21.33 64,32 43,0 86,0 129,0 21.33,21.33 42.67,42.67 64,64 21.67,0 43.33,0 65,0 10.67,11 21.33,22 32,33 32,0 64,0 96,0 0,10.67 0,21.33 0,32 32.33,21.33 64.67,42.67 97,64 0,10.67 0,21.33 0,32 10.67,-10.67 21.33,-21.33 32,-32 32,32 64,64 96,96 0,21.67 0,43.33 0,65 10.67,0 21.33,0 32,0 10.67,32 21.33,64 32,96 11,10.67 22,21.33 33,32 0,11 0,22 0,33 -21.67,10.67 -43.33,21.33 -65,32 32.33,10.67 64.67,21.33 97,32 10.67,-10.67 21.33,-21.33 32,-32 10.67,10.67 21.33,21.33 32,32 -10.67,10.67 -21.33,21.33 -32,32 32,0 64,0 96,0 0,32 0,64 0,96 32.33,0 64.67,0 97,0 42.7,43.29 85.05,86.96 129,129 0,10.67 0,21.33 0,32 -21.67,10.67 -43.33,21.33 -65,32 -21.33,21.67 -42.67,43.33 -64,65 0,21.33 0,42.67 0,64 53.67,75 107.33,150 161,225 10.67,21.33 21.33,42.67 32,64 0,53.67 0,107.33 0,161 -32.33,0 -64.67,0 -97,0 -32,-10.67 -64,-21.33 -96,-32 -10.67,0 -21.33,0 -32,0 -21.67,10.67 -43.33,21.33 -65,32 -10.81,21.91 -22.08,43.61 -32.61,65.65 -31.8,85.45 -63.6,170.9 -95.39,256.35 -10.69,10.79 -21.59,21.39 -32.16,32.31 -21.62,42.56 -43.23,85.13 -64.84,127.69 -10.67,53.67 -21.33,107.33 -32,161 -10.67,10.67 -21.33,21.33 -32,32 0,11 0,22 0,33 32,32 64,64 96,96 -21.33,32 -42.67,64 -64,96 10.67,21.67 21.33,43.33 32,65 0,10.67 0,21.33 0,32 21.67,21.33 43.33,42.67 65,64 0,96.67 0,193.33 0,290 11.01,21.74 21.58,43.73 32.88,65.32 21.04,31.56 42.08,63.12 63.12,94.68 0,32.33 0,64.67 0,97 -32,75 -64,150 -96,225 21.33,53.67 42.67,107.33 64,161 0,42.67 0,85.33 0,128 -10.67,32.33 -21.33,64.67 -32,97 -10.67,10.67 -21.33,21.33 -32,32 21.37,32.11 42.85,64.15 64.15,96.31 10.62,21.56 21.23,43.13 31.85,64.69 0,21.33 0,42.67 0,64 -43.19,86.18 -86.61,172.25 -129.64,258.51 -31.88,74.87 -63.99,149.65 -95.72,224.57 -21.28,64.07 -42.44,128.18 -63.79,192.23 -10.62,21.56 -21.23,43.13 -31.85,64.69 -53.67,42.67 -107.33,85.33 -161,128 -21.33,10.67 -42.67,21.33 -64,32 -21.67,21.67 -43.33,43.33 -65,65 -21.33,10.67 -42.67,21.33 -64,32 -11.02,0.23 -22.14,-0.46 -33.09,0.36 -32.65,10.67 -65.18,21.71 -97.9,32.14 -42.01,10.5 -84.01,21 -126.01,31.5 -64.33,0 -128.67,0 -193,0 -96.67,21.33 -193.33,42.67 -290,64 -48.73,32.96 -97.27,66.18 -146.53,98.34 -15.49,10.22 -30.98,20.44 -46.47,30.66 -10.67,0 -21.33,0 -32,0 -10.67,10.67 -21.33,21.33 -32,32 -10.67,43 -21.33,86 -32,129 -21.33,10.67 -42.67,21.33 -64,32 -53.67,96.33 -107.33,192.67 -161,289 0,10.67 0,21.33 0,32 -21.42,11.08 -42.91,22.04 -64.28,33.21 -43.12,32.22 -86.5,64.11 -129.46,96.53 -21.13,21.2 -42.4,42.26 -63.44,63.55 -53.61,85.9 -107.21,171.81 -160.82,257.71 -10.67,32 -21.33,64 -32,96 -32.33,32 -64.67,64 -97,96 -75,43 -150,86 -225,129 -21.33,21.33 -42.67,42.67 -64,64 0,11 0,22 0,33 -21.33,21.33 -42.67,42.67 -64,64 -53.67,118 -107.33,236 -161,354 -10.67,53.33 -21.33,106.67 -32,160 21.33,32.33 42.67,64.67 64,97 0,21.45 0.1,42.89 -0.1,64.34 -10.64,53.55 -21.29,107.11 -31.93,160.66 0,53.67 0,107.33 0,161 10.67,32 21.33,64 32,96 21.33,21.33 42.67,42.67 64,64 -10.67,75 -21.33,150 -32,225 -10.67,21.67 -21.33,43.33 -32,65 -64.33,42.67 -128.67,85.33 -193,128 -75,0 -150,0 -225,0 -21.33,10.67 -42.67,21.33 -64,32 -43,53.67 -86,107.33 -129,161 -10.67,32.33 -21.33,64.67 -32,97 -21.33,32 -42.67,64 -64,96 0,32.33 0,64.67 0,97 -21.67,53.33 -43.33,106.67 -65,160 -32,11 -64,22 -96,33 -10.67,21.33 -21.33,42.67 -32,64 -11.01,0.23 -22.14,-0.46 -33.09,0.36 -31.97,10.55 -63.94,21.09 -95.91,31.64 -43,0 -86,0 -129,0 -10.69,10.79 -21.59,21.39 -32.15,32.31 -10.62,21.23 -21.23,42.46 -31.85,63.69 10.67,53.67 21.33,107.33 32,161 -10.67,21.67 -21.33,43.33 -32,65 10.84,11.06 22.15,21.72 32.7,33.03 21.44,31.65 42.87,63.31 64.3,94.97 10.67,64.33 21.33,128.67 32,193 10.67,10.67 21.33,21.33 32,32 -10.96,54.66 -21.55,109.39 -32.75,164 -10.41,42 -20.84,84 -31.25,126 0,32 0,64 0,96 -15.53,14.71 -30.2,30.39 -46.98,43.72 -59.34,49.76 -118.68,99.52 -178.02,149.28 -11.29,43.7 -22.17,87.52 -33.72,131.15 -21.25,63.57 -42.34,127.18 -63.28,190.85 -32.05,32.11 -64.22,64.1 -96.19,96.28 -21.7,31.98 -43.27,64.05 -65.05,95.97 -10.72,10.94 -21.22,22.09 -32.07,32.9 -42.56,21.29 -85.13,42.57 -127.69,63.85 -32.45,0 -64.89,0.1 -97.34,-0.1 -64.22,-10.64 -128.44,-21.29 -192.66,-31.94 -10.67,0 -21.33,0 -32,0 -21.33,10.67 -42.67,21.33 -64,32 -21.93,42.99 -43.55,86.17 -65.69,129.05 -21.11,31.98 -42.21,63.96 -63.31,95.95 10.67,21.33 21.33,42.67 32,64 53.67,43 107.33,86 161,129 0,32 0,64 0,96 21.33,43 42.67,86 64,129 0,43 0,86 0,129 -42.67,75 -85.33,150 -128,225 -21.67,21.33 -43.33,42.67 -65,64 -10.67,21.33 -21.33,42.67 -32,64 -64.33,21.67 -128.67,43.33 -193,65 -32,21.33 -64,42.67 -96,64 -32.33,75 -64.67,150 -97,225 0,21.33 0,42.67 0,64 -10.67,32.33 -21.33,64.67 -32,97 -75,53.33 -150,106.67 -225,160 -21.33,32.33 -42.67,64.67 -64,97 -21.33,10.67 -42.67,21.33 -64,32 0,10.67 0,21.33 0,32 -21.67,0 -43.33,0 -65,0 -53.33,64.33 -106.67,128.67 -160,193 -11.87,35.39 -24.38,70.58 -35.79,106.12 -41.74,136.29 -83.47,272.59 -125.21,408.88 -53.67,75 -107.33,150 -161,225 -32.21,32.12 -64.12,64.55 -97,96 -10.67,32.33 -21.33,64.67 -32,97 -75,53.33 -150,106.67 -225,160 -40.06,41.75 -81.43,82.2 -122.23,123.23 -4.85,3.89 -7.86,9.12 -10.27,14.77 -9.17,18.33 -18.33,36.67 -27.5,55 -11,0 -22,0 -33,0 -10.67,10.67 -21.33,21.33 -32,32 -32.1,11.06 -64.23,22.02 -96.31,33.15 -42.9,21.28 -85.79,42.57 -128.69,63.85 -53.67,10.67 -107.33,21.33 -161,32 -32,32.33 -64,64.67 -96,97 -32.44,21.37 -64.83,42.84 -97.31,64.15 -21.64,10.96 -43.52,21.48 -65.01,32.73 -31.55,21.04 -63.12,42.08 -94.68,63.12 -64.33,21.67 -128.67,43.33 -193,65 -43,32 -86,64 -129,96 -32,10.67 -64,21.33 -96,32 -86,53.67 -172,107.33 -258,161 -10.67,21.33 -21.33,42.67 -32,64 -53.33,43 -106.67,86 -160,129 -21.67,43 -43.33,86 -65,129 -10.67,0 -21.33,0 -32,0 -42.67,21.33 -85.33,42.67 -128,64 -86,21.33 -172,42.67 -258,64 -10.67,10.67 -21.33,21.33 -32,32 -10.67,0 -21.33,0 -32,0 -64.33,32.33 -128.67,64.67 -193,97 -21.43,32.07 -42.71,64.24 -64.24,96.24 -10.58,10.59 -21.17,21.17 -31.76,31.76 -64.33,21.67 -128.67,43.33 -193,65 -42.82,43.01 -86.2,85.45 -129.21,128.28 -31.96,43.02 -64.06,85.95 -95.95,129.03 -10.95,21.23 -21.89,42.46 -32.84,63.69 0,21.67 0,43.33 0,65 11,10.67 22,21.33 33,32 -32.33,53.33 -64.67,106.67 -97,160 -10.67,0 -21.33,0 -32,0 -75,96.67 -150,193.33 -225,290 -32.21,32.12 -64.12,64.55 -97,96 -64,0 -128,0 -192,0 0,10.67 0,21.33 0,32 -11.11,0.1 -22.22,-0.15 -33.33,0.11 -127.22,42.69 -254.42,85.47 -381.71,127.96 -9.85,3.68 -18.99,9.1 -28.55,13.51 -34.27,16.91 -68.56,33.82 -102.63,51.11 -5.61,4.57 -10.37,10.21 -15.66,15.19 -5.93,6.06 -12.19,11.85 -17.82,18.17 -21.44,31.98 -42.87,63.96 -64.3,95.95 -42.67,10.67 -85.33,21.33 -128,32 -10.67,0 -21.33,0 -32,0 0,10.67 0,21.33 0,32 -32.33,32.33 -64.67,64.67 -97,97 -32.09,10.75 -64.25,21.32 -96.3,32.18 -53.69,31.96 -107.29,64.06 -161.02,95.95 -54.08,21.94 -108.3,43.52 -162.29,65.68 -42.13,21.06 -84.26,42.12 -126.39,63.19 -21.67,32 -43.33,64 -65,96 0,11 0,22 0,33 -21.33,21.33 -42.67,42.67 -64,64 -21.75,11.01 -43.73,21.59 -65.32,32.88 -31.89,21.04 -63.79,42.08 -95.68,63.12 -10.67,43 -21.33,86 -32,129 -32,43 -64,86 -96,129 0,203.33 0,406.67 0,610 -43,43 -86,86 -129,129 0,21.33 0,42.67 0,64 -43,64.33 -86,128.67 -129,193 -21.39,75.1 -42.69,150.23 -64.13,225.32 -21.28,53.56 -42.58,107.12 -63.87,160.68 0,10.67 0,21.33 0,32 -21.42,43.08 -42.71,86.23 -64.2,129.28 -53.6,74.91 -107.2,149.81 -160.8,224.72 -10.67,10.67 -21.33,21.33 -32,32 -75.33,21.33 -150.67,42.67 -226,64 -96.33,64.33 -192.67,128.67 -289,193 -85.67,43 -171.33,86 -257,129 -43,-10.67 -86,-21.33 -129,-32 -10.79,10.69 -21.39,21.59 -32.31,32.15 -21.23,10.62 -42.46,21.23 -63.69,31.85 0,10.67 0,21.33 0,32 -43,75 -86,150 -129,225 0,64.33 0,128.67 0,193 -21.33,64.45 -42.81,128.86 -64.06,193.34 -10.83,64.77 -21.31,129.61 -32.36,194.33 -10.53,42.44 -21.05,84.89 -31.58,127.33 -11.07,21.72 -22.57,43.25 -33.36,65.09 -10.55,32.35 -21.54,64.58 -31.82,97 -10.6,63.64 -21.21,127.27 -31.82,190.91 0,11 0,22 0,33 -32,53.33 -64,106.67 -96,160 -10.67,64.33 -21.33,128.67 -32,193 -11,32.33 -21.999,64.67 -33,97 10.998,10.67 22,21.33 33,32 -11,21.33 -21.999,42.67 -33,64 11.001,32.33 22,64.67 33,97 0,42.67 0,85.33 0,128 -32.332,96.67 -64.668,193.33 -97,290 -10.668,21.33 -21.332,42.67 -32,64 -32.333,32 -64.667,64 -97,96 -64.335,32.33 -128.665,64.67 -193,97 -117.665,85.67 -235.335,171.33 -353,257 -42.999,10.67 -86.001,21.33 -129,32 -10.667,0 -21.333,0 -32,0 -10.665,10.67 -21.335,21.33 -32,32 -43,-32 -86,-64 -129,-96 0,-21.33 0,-42.67 0,-64 -10.666,-21.67 -21.334,-43.33 -32,-65 0,-21.33 0,-42.67 0,-64 -31.999,-10.67 -64.001,-21.33 -96,-32 -21.665,10.67 -43.335,21.33 -65,32 -21.335,-21.33 -42.665,-42.67 -64,-64 -21.332,-10.67 -42.668,-21.33 -64,-32 -32.335,-32.33 -64.665,-64.67 -97,-97 -21.332,-10.67 -42.668,-21.33 -64,-32 -21.332,-53.67 -42.668,-107.33 -64,-161 0,-21.33 0,-42.67 0,-64 -10.794,-10.69 -21.381,-21.59 -32.308,-32.15 -21.693,-10.61 -43.279,-21.43 -65.029,-31.92 -53.219,-10.99 -106.443,-21.95 -159.663,-32.93 -32.333,-32 -64.667,-64 -97,-96 0,10.67 0,21.33 0,32 -21.333,0 -42.667,0 -64,0 -21.665,-10.67 -43.335,-21.33 -65,-32 -10.667,0 -21.333,0 -32,0 -21.332,-10.67 -42.668,-21.33 -64,-32 -32.332,10.67 -64.668,21.33 -97,32 0,-10.67 0,-21.33 0,-32 11.001,-21.33 21.999,-42.67 33,-64 -32.333,-11 -64.667,-22 -97,-33 0,-21.33 0,-42.67 0,-64 -21.332,10.67 -42.668,21.33 -64,32 -10.665,10.67 -21.335,21.33 -32,32 -10.667,0 -21.333,0 -32,0 -11.001,-21.33 -21.999,-42.67 -33,-64 -10.667,0 -21.333,0 -32,0 -10.665,-10.67 -21.335,-21.33 -32,-32 -21.333,0 -42.667,0 -64,0 -10.668,-21.33 -21.332,-42.67 -32,-64 -21.667,0 -43.333,0 -65,0 -10.667,-11 -21.333,-22 -32,-33 -21.433,32.4 -42.711,64.9 -64.243,97.24 -21.246,21.26 -42.503,42.51 -63.757,63.76 0,21.67 0,43.33 0,65 -10.998,10.67 -22.002,21.33 -33,32 -64.333,10.67 -128.667,21.33 -193,32 0,-21.33 0,-42.67 0,-64 -21.333,0 -42.667,0 -64,0 -10.665,10.67 -21.335,21.33 -32,32 -10.667,0 -21.333,0 -32,0 -10.665,10.67 -21.335,21.33 -32,32 -21.667,0 -43.333,0 -65,0 0,10.67 0,21.33 0,32 -21.332,10.67 -42.668,21.33 -64,32 -10.665,10.67 -21.335,21.33 -32,32 -31.999,-10.67 -64.001,-21.33 -96,-32 -21.668,21.33 -43.332,42.67 -65,64 0,21.67 0,43.33 0,65 -10.665,-10.67 -21.335,-21.33 -32,-32 -31.999,10.67 -64.001,21.33 -96,32 -10.999,-21.67 -22.001,-43.33 -33,-65 -10.667,0 -21.333,0 -32,0 -10.666,21.67 -21.334,43.33 -32,65 -21.333,0 -42.667,0 -64,0 0,21.33 0,42.67 0,64 -21.333,0 -42.667,0 -64,0 0,21.33 0,42.67 0,64 -10.998,10.67 -22.002,21.33 -33,32 11.001,32.33 21.999,64.67 33,97 -21.667,0 -43.333,0 -65,0 0,10.67 0,21.33 0,32 -10.665,-10.67 -21.335,-21.33 -32,-32 -32,0 -64,0 -96,0 -21.665,-10.67 -43.335,-21.33 -65,-32 -10.665,10.67 -21.335,21.33 -32,32 -21.332,-10.67 -42.668,-21.33 -64,-32 -10.794,10.69 -21.381,21.59 -32.308,32.15 -64.448,31.51 -128.516,63.79 -192.692,95.85 -10.667,0 -21.333,0 -32,0 -10.999,21.67 -22.001,43.33 -33,65 -21.332,-10.67 -42.668,-21.33 -64,-32 0,-11 0,-22 0,-33 -10.667,11 -21.333,22 -32,33 -21.333,-11 -42.667,-22 -64,-33 -10.668,-21.33 -21.332,-42.67 -32,-64 -10.998,-10.67 -22.002,-21.33 -33,-32 -21.335,21.33 -42.665,42.67 -64,64 -10.667,0 -21.333,0 -32,0 0,10.67 0,21.33 0,32 -21.333,11 -42.667,22 -64,33 -11,0 -22,0 -33,0 -10.667,-11 -21.333,-22 -32,-33 -10.667,11 -21.333,22 -32,33 -31.999,10.67 -64.001,21.33 -96,32 0,-10.67 0,-21.33 0,-32 -21.667,0 -43.333,0 -65,0 -10.665,10.67 -21.335,21.33 -32,32 0,10.67 0,21.33 0,32 -64.333,0 -128.667,0 -193,0 -31.999,-10.67 -64.001,-21.33 -96,-32 0,-10.67 0,-21.33 0,-32 -10.667,0 -21.333,0 -32,0 0,-11 0,-22 0,-33 -10.667,0 -21.333,0 -32,0 -11.391,-10.84 -22.401,-22.13 -34.034,-32.69 -31.653,-21.11 -63.31,-42.21 -94.966,-63.31 -21.333,0 -42.667,0 -64,0 -32.332,53.67 -64.668,107.33 -97,161 -10.667,0 -21.333,0 -32,0 -21.332,-10.67 -42.668,-21.33 -64,-32 -10.667,-11 -21.333,-22 -32,-33 -21.667,0 -43.333,0 -65,0 0,-21.33 0,-42.67 0,-64 -10.667,0 -21.333,0 -32,0 -10.665,10.67 -21.335,21.33 -32,32 -10.667,0 -21.333,0 -32,0 -10.665,-10.67 -21.335,-21.33 -32,-32 -11,0 -22,0 -33,0 -10.665,-10.67 -21.335,-21.33 -32,-32 0,-32.33 0,-64.67 0,-97 -21.333,0 -42.667,0 -64,0 10.668,-21.33 21.332,-42.67 32,-64 -32.002,-21.33 -63.998,-42.67 -96,-64 10.673,-21.45 21.521,-42.82 32.083,-64.33 10.636,-42.89 21.278,-85.78 31.917,-128.67 -10.668,-21.33 -21.332,-42.67 -32,-64 0,-64.33 0,-128.67 0,-193 -10.665,-10.67 -21.335,-21.33 -32,-32 21.333,-43 42.667,-86 64,-129 0,-32.33 0,-64.67 0,-97 -21.335,-21.33 -42.665,-42.67 -64,-64 10.667,0 21.333,0 32,0 -10.668,-21.33 -21.332,-42.67 -32,-64 10.668,-32.33 21.332,-64.67 32,-97 10.665,-10.67 21.335,-21.33 32,-32 -10.665,-10.67 -21.335,-21.33 -32,-32 -10.667,0 -21.333,0 -32,0 -10.665,10.67 -21.335,21.33 -32,32 -21.916,-21.08 -43.603,-42.39 -65,-64 10.667,-32 21.333,-64 32,-96 -10.667,-11 -21.333,-22 -32,-33 -10.667,0 -21.333,0 -32,0 0,-42.67 0,-85.33 0,-128 -10.666,-21.67 -21.334,-43.33 -32,-65 -10.667,11 -21.333,22 -32,33 -10.667,-11 -21.333,-22 -32,-33 -21.665,-10.67 -43.335,-21.33 -65,-32 0,-10.67 0,-21.33 0,-32 -31.999,10.67 -64.001,21.33 -96,32 -10.665,-10.67 -21.335,-21.33 -32,-32 0,-53.67 0,-107.33 0,-161 10.668,-21.33 21.332,-42.67 32,-64 0,-10.67 0,-21.33 0,-32 10.665,-10.67 21.335,-21.33 32,-32 -21.331,-21.67 -42.669,-43.33 -64,-65 0,-21.33 0,-42.67 0,-64 -10.668,-21.33 -21.332,-42.67 -32,-64 -0.235,-11.01 0.477,-22.15 -0.369,-33.09 -10.942,-32.07 -21.769,-64.18 -32.785,-96.22 -10.614,-21.23 -21.231,-42.46 -31.846,-63.69 -10.667,0 -21.333,0 -32,0 0,-21.33 0,-42.67 0,-64 21.333,0 42.667,0 64,0 11.001,-32.33 21.999,-64.67 33,-97 -10.998,-10.67 -22.002,-21.33 -33,-32 53.669,-64.33 107.331,-128.67 161,-193 10.666,-53.67 21.334,-107.33 32,-161 -10.668,-21.33 -21.332,-42.67 -32,-64 -10.667,0 -21.333,0 -32,0 0,-21.33 0,-42.67 0,-64 -21.335,-32.33 -42.665,-64.67 -64,-97 -32.335,-21.33 -64.665,-42.67 -97,-64 10.668,-21.33 21.332,-42.67 32,-64 -10.668,-32.33 -21.332,-64.67 -32,-97 0,-10.67 0,-21.33 0,-32 32.332,-10.67 64.668,-21.33 97,-32 21.335,-21.33 42.665,-42.67 64,-64 -10.667,-11 -21.333,-22 -32,-33 -10.667,0 -21.333,0 -32,0 -10.665,-10.67 -21.335,-21.33 -32,-32 10.665,-10.67 21.335,-21.33 32,-32 -21.667,-32 -43.333,-64 -65,-96 21.667,0 43.333,0 65,0 10.666,-21.67 21.334,-43.33 32,-65 10.665,-10.67 21.335,-21.33 32,-32 -32,-32 -64,-64 -96,-96 0,-32.33 0,-64.67 0,-97 -42.768,-20.95 -85.405,-42.17 -128.003,-63.45 -5.9,-1.24 -12.263,-0.19 -18.343,-0.56 -6.513,0.38 -13.36,-1.06 -19.511,1.61 -30.714,10.14 -61.429,20.27 -92.143,30.4 0,-53.67 0,-107.33 0,-161 -32.223,-64.22 -64.049,-128.64 -96,-193 10.667,0 21.333,0 32,0 0,-32 0,-64 0,-96 -10.665,-10.67 -21.335,-21.33 -32,-32 10.665,-10.67 21.335,-21.33 32,-32 -21.095,-21.78 -42.143,-43.63 -63.918,-64.72 -14.422,-7.65 -29.341,-14.53 -43.956,-21.88 -7.042,-3.46 -14.085,-6.93 -21.126,-10.4 10.999,-42.67 22.001,-85.33 33,-128 -11,-11 -22,-22 -33,-33 21.665,-10.67 43.335,-21.33 65,-32 -21.666,-42.67 -43.334,-85.33 -65,-128 0,-21.67 0,-43.33 0,-65 -21.333,0 -42.667,0 -64,0 10.665,-10.67 21.335,-21.33 32,-32 -10.665,-10.67 -21.335,-21.33 -32,-32 10.668,-21.33 21.332,-42.67 32,-64 -10.668,-32.33 -21.332,-64.67 -32,-97 0,-21.33 0,-42.67 0,-64 -21.332,-10.67 -42.668,-21.33 -64,-32 10.666,-21.67 21.334,-43.33 32,-65 -10.667,-32 -21.333,-64 -32,-96 10.665,-10.67 21.335,-21.33 32,-32 0,-53.67 0,-107.33 0,-161 10.665,-10.67 21.335,-21.33 32,-32 0,-21.33 0,-42.67 0,-64 21.333,-11 42.667,-22 64,-33 0,-21.33 0,-42.67 0,-64 10.998,-10.67 22.002,-21.33 33,-32 21.332,10.67 42.668,21.33 64,32 0,-10.67 0,-21.33 0,-32 -10.665,-10.67 -21.335,-21.33 -32,-32 0,-10.67 0,-21.33 0,-32 10.665,-10.67 21.335,-21.33 32,-32 0.228,-11.35 -0.464,-22.8 0.358,-34.08 10.546,-31.64 21.095,-63.28 31.642,-94.92 -10.667,-32 -21.333,-64 -32,-96 10.667,-11 21.333,-22 32,-33 -10.668,-21.33 -21.332,-42.67 -32,-64 0,-32 0,-64 0,-96 -10.667,-11 -21.333,-22 -32,-33 0,-32 0,-64 0,-96 -32.442,-32.05 -64.765,-64.22 -97.285,-96.19 -31.974,-21.7 -64.043,-43.26 -95.958,-65.05 -10.582,-10.59 -21.173,-21.17 -31.757,-31.76 -21.667,0 -43.333,0 -65,0 -21.386,-42.5 -42.431,-85.18 -63.502,-127.84 -4.832,-4.5 -12.114,-6.33 -17.899,-9.79 -37.2,-18.46 -74.398,-36.92 -111.599,-55.37 -31.999,-85.67 -64.001,-171.33 -96,-257 0,-21.33 0,-42.67 0,-64 -10.666,-21.67 -21.334,-43.33 -32,-65 10.668,-21.33 21.332,-42.67 32,-64 10.667,0 21.333,0 32,0 0.227,-11.01 -0.461,-22.14 0.357,-33.09 10.546,-31.97 21.094,-63.94 31.643,-95.91 -10.666,-42.67 -21.334,-85.33 -32,-128 -10.665,-10.67 -21.335,-21.33 -32,-32 10.667,-11 21.333,-22 32,-33 -10.665,-10.67 -21.335,-21.33 -32,-32 -32.332,-10.67 -64.668,-21.33 -97,-32 -10.665,10.67 -21.335,21.33 -32,32 -10.665,-10.67 -21.335,-21.33 -32,-32 -10.665,10.67 -21.335,21.33 -32,32 -10.793,-10.69 -21.386,-21.59 -32.307,-32.15 -21.233,-10.61 -42.463,-21.23 -63.693,-31.85 10.668,-21.33 21.332,-42.67 32,-64 0,-10.67 0,-21.33 0,-32 -42.999,-21.67 -86.001,-43.33 -129,-65 -10.764,-32.57 -21.866,-65.04 -32.414,-97.67 -10.532,-42.44 -21.058,-84.89 -31.586,-127.33 -21.335,-21.33 -42.665,-42.67 -64,-64 -64.333,0 -128.667,0 -193,0 -32.332,-10.67 -64.668,-21.33 -97,-32 -10.665,10.67 -21.335,21.33 -32,32 -10.665,-10.67 -21.335,-21.33 -32,-32 -21.665,10.67 -43.335,21.33 -65,32 -10.665,10.67 -21.335,21.33 -32,32 -32,0 -64,0 -96,0 -21.335,-21.33 -42.665,-42.67 -64,-64 -32.332,10.67 -64.668,21.33 -97,32 0,21.33 0,42.67 0,64 -10.667,0 -21.333,0 -32,0 -10.665,-10.67 -21.335,-21.33 -32,-32 -42.999,-10.67 -86.001,-21.33 -129,-32 -21.332,-10.67 -42.668,-21.33 -64,-32 -10.667,0 -21.333,0 -32,0 -10.665,10.67 -21.335,21.33 -32,32 -21.667,0 -43.333,0 -65,0 -10.665,10.67 -21.335,21.33 -32,32 10.665,-10.67 21.335,-21.33 32,-32 -21.333,0 -42.667,0 -64,0 -32.335,-21.33 -64.665,-42.67 -97,-64 -10.667,0 -21.333,0 -32,0 0,10.67 0,21.33 0,32 -10.665,10.67 -21.335,21.33 -32,32 -42.667,0 -85.333,0 -128,0 -10.998,10.67 -22.002,21.33 -33,32 -10.665,-10.67 -21.335,-21.33 -32,-32 0,-10.67 0,-21.33 0,-32 -21.333,0 -42.667,0 -64,0 0,10.67 0,21.33 0,32 -10.668,-21.33 -21.332,-42.67 -32,-64 -10.665,10.67 -21.335,21.33 -32,32 -21.667,0 -43.333,0 -65,0 0,-10.67 0,-21.33 0,-32 -31.998,-21.67 -64.002,-43.33 -96,-65 0,-21.33 0,-42.67 0,-64 -10.665,-10.67 -21.335,-21.33 -32,-32 -32.333,0 -64.667,0 -97,0 -10.665,-10.67 -21.335,-21.33 -32,-32 -10.665,10.67 -21.335,21.33 -32,32 -21.331,-21.67 -42.669,-43.33 -64,-65 -21.665,-10.67 -43.335,-21.33 -65,-32 -10.665,-10.67 -21.335,-21.33 -32,-32 -10.665,10.67 -21.335,21.33 -32,32 -21.335,-21.33 -42.665,-42.67 -64,-64 0,-10.67 0,-21.33 0,-32 -10.667,0 -21.333,0 -32,0 -11.001,-21.33 -21.999,-42.67 -33,-64 0,-11 0,-22 0,-33 -10.667,0 -21.333,0 -32,0 0,-10.67 0,-21.33 0,-32 -10.665,10.67 -21.335,21.33 -32,32 -10.665,-10.67 -21.335,-21.33 -32,-32 -10.667,-32 -21.333,-64 -32,-96 0,-43 0,-86 0,-129 -21.332,-10.67 -42.668,-21.33 -64,-32 10.667,0 21.333,0 32,0 -10.665,-10.67 -21.335,-21.33 -32,-32 0,-10.67 0,-21.33 0,-32 -21.665,-10.67 -43.335,-21.33 -65,-32 10.667,-11 21.333,-22 32,-33 0,-32 0,-64 0,-96 -10.665,10.67 -21.335,21.33 -32,32 -32,0 -64,0 -96,0 0,10.67 0,21.33 0,32 -10.665,-10.67 -21.335,-21.33 -32,-32 -10.665,10.67 -21.335,21.33 -32,32 -10.998,-10.67 -22.002,-21.33 -33,-32 -10.665,10.67 -21.335,21.33 -32,32 -10.665,-10.67 -21.335,-21.33 -32,-32 0,10.67 0,21.33 0,32 -10.667,0 -21.333,0 -32,0 0,-10.67 0,-21.33 0,-32 -10.667,0 -21.333,0 -32,0 0,10.67 0,21.33 0,32 -10.665,-10.67 -21.335,-21.33 -32,-32 -11.001,21.33 -21.999,42.67 -33,64 -32,0 -64,0 -96,0 -10.667,11 -21.333,22 -32,33 0,10.67 0,21.33 0,32 -21.667,0 -43.333,0 -65,0 0,21.33 0,42.67 0,64 -10.665,10.67 -21.335,21.33 -32,32 0,10.67 0,21.33 0,32 10.667,11 21.333,22 32,33 -10.667,0 -21.333,0 -32,0 0,21.33 0,42.67 0,64 -21.332,-10.67 -42.668,-21.33 -64,-32 0,21.33 0,42.67 0,64 10.667,0 21.333,0 32,0 -32.002,21.33 -63.998,42.67 -96,64 0,21.67 0,43.33 0,65 -10.665,10.67 -21.335,21.33 -32,32 10.665,10.67 21.335,21.33 32,32 -10.667,0 -21.333,0 -32,0 -11.001,21.33 -21.999,42.67 -33,64 -10.665,-10.67 -21.335,-21.33 -32,-32 -10.667,0 -21.333,0 -32,0 0,10.67 0,21.33 0,32 -10.667,0 -21.333,0 -32,0 -10.665,10.67 -21.335,21.33 -32,32 -10.665,-10.67 -21.335,-21.33 -32,-32 0,10.67 0,21.33 0,32 -10.665,10.67 -21.335,21.33 -32,32 0,11 0,22 0,33 -32.335,21.33 -64.665,42.67 -97,64 -21.333,0 -42.667,0 -64,0 10.667,32 21.333,64 32,96 -10.667,0 -21.333,0 -32,0 -10.794,-10.69 -21.381,-21.59 -32.308,-32.15 -42.632,-20.96 -85.264,-41.93 -127.637,-63.39 -4.353,-4.88 -6.26,-11.96 -9.667,-17.69 -7.796,-15.59 -15.592,-31.18 -23.388,-46.77 0,-21.67 0,-43.33 0,-65 -10.665,10.67 -21.335,21.33 -32,32 0,-10.67 0,-21.33 0,-32 -21.667,0 -43.333,0 -65,0 0,10.67 0,21.33 0,32 10.667,11 21.333,22 32,33 0,10.67 0,21.33 0,32 -10.667,0 -21.333,0 -32,0 0,10.67 0,21.33 0,32 -32,32 -64,64 -96,96 -21.332,-10.67 -42.668,-21.33 -64,-32 10.665,-10.67 21.335,-21.33 32,-32 -21.412,-21.59 -43.067,-42.94 -65,-64 -10.665,10.67 -21.335,21.33 -32,32 -21.333,0 -42.667,0 -64,0 0,10.67 0,21.33 0,32 -21.332,10.67 -42.668,21.33 -64,32 -10.667,0 -21.333,0 -32,0 0,-10.67 0,-21.33 0,-32 -11,0 -22,0 -33,0 10.998,-10.67 22.002,-21.33 33,-32 -11,0 -22,0 -33,0 -21.332,10.67 -42.668,21.33 -64,32 0,53.67 0,107.33 0,161 -21.332,10.67 -42.668,21.33 -64,32 -10.794,10.69 -21.381,21.59 -32.308,32.15 -21.566,10.61 -43.129,21.23 -64.692,31.85 -10.667,0 -21.333,0 -32,0 -10.668,-21.33 -21.332,-42.67 -32,-64 -10.667,0 -21.333,0 -32,0 -21.332,-10.67 -42.668,-21.33 -64,-32 -10.998,-10.67 -22.002,-21.33 -33,-32 10.999,-21.67 22.001,-43.33 33,-65 -11.001,-21.33 -21.999,-42.67 -33,-64 -10.667,0 -21.333,0 -32,0 -21.332,10.67 -42.668,21.33 -64,32 0,10.67 0,21.33 0,32 -10.667,11 -21.333,22 -32,33 -17.997,-18.64 -35.965,-37.32 -54.807,-55.12 -2.523,-3.08 -9.569,-7.99 -9.162,-9.88 10.657,0 21.313,0 31.969,0 -11,0 -22,0 -33,0 -10.665,-10.67 -21.335,-21.33 -32,-32 -10.665,10.67 -21.335,21.33 -32,32 -21.333,0 -42.667,0 -64,0 -10.693,-10.8 -21.591,-21.39 -32.154,-32.31 -10.614,-21.23 -21.231,-42.46 -31.846,-63.69 -21.665,10.67 -43.335,21.33 -65,32 -21.333,0 -42.667,0 -64,0 -10.665,-10.67 -21.335,-21.33 -32,-32 10.665,-10.67 21.335,-21.33 32,-32 -10.667,-11 -21.333,-22 -32,-33 -21.665,21.67 -43.335,43.33 -65,65 -10.665,-10.67 -21.335,-21.33 -32,-32 -10.665,10.67 -21.335,21.33 -32,32 -21.333,0 -42.667,0 -64,0 -10.665,10.67 -21.335,21.33 -32,32 -10.665,-10.67 -21.335,-21.33 -32,-32 0,-10.67 0,-21.33 0,-32 -21.667,0 -43.333,0 -65,0 10.668,21.33 21.332,42.67 32,64 -32,0 -64,0 -96,0 -10.665,10.67 -21.335,21.33 -32,32 -10.665,-10.67 -21.335,-21.33 -32,-32 -10.998,10.67 -22.002,21.33 -33,32 -10.667,0 -21.333,0 -32,0 -10.665,-10.67 -21.335,-21.33 -32,-32 10.668,-32.33 21.332,-64.67 32,-97 -21.333,11 -42.667,22 -64,33 -32,-11 -64,-22 -96,-33 -21.667,11 -43.333,22 -65,33 -10.667,-11 -21.333,-22 -32,-33 -10.667,11 -21.333,22 -32,33 -21.333,0 -42.667,0 -64,0 -10.998,10.67 -22.002,21.33 -33,32 0,-10.67 0,-21.33 0,-32 -10.667,-11 -21.333,-22 -32,-33 0,-10.67 0,-21.33 0,-32 -10.665,-10.67 -21.335,-21.33 -32,-32 -10.665,10.67 -21.335,21.33 -32,32 -10.667,0 -21.333,0 -32,0 0,-10.67 0,-21.33 0,-32 0,21.33 0,42.67 0,64 10.667,11 21.333,22 32,33 -21.333,0 -42.667,0 -64,0 0,10.67 0,21.33 0,32 -32.335,21.33 -64.665,42.67 -97,64 -21.335,-21.33 -42.665,-42.67 -64,-64 -32.333,0 -64.667,0 -97,0 0,-10.67 0,-21.33 0,-32 -10.665,10.67 -21.335,21.33 -32,32 0,-10.67 0,-21.33 0,-32 -10.667,-11 -21.333,-22 -32,-33 -10.667,0 -21.333,0 -32,0 0,-10.67 0,-21.33 0,-32 -21.332,10.67 -42.668,21.33 -64,32 0,11 0,22 0,33 -21.665,10.67 -43.335,21.33 -65,32 10.998,10.67 22.002,21.33 33,32 -11,0 -22,0 -33,0 -21.332,-10.67 -42.668,-21.33 -64,-32 0,-10.67 0,-21.33 0,-32 -10.665,10.67 -21.335,21.33 -32,32 0,-10.67 0,-21.33 0,-32 -10.667,0 -21.333,0 -32,0 -10.667,-11 -21.333,-22 -32,-33 -11,11 -22,22 -33,33 -21.333,0 -42.667,0 -64,0 0,-11 0,-22 0,-33 -10.667,0 -21.333,0 -32,0 10.668,-21.33 21.332,-42.67 32,-64 -21.333,0 -42.667,0 -64,0 0,-10.67 0,-21.33 0,-32 -10.665,10.67 -21.335,21.33 -32,32 0,-10.67 0,-21.33 0,-32 -32.332,-10.67 -64.668,-21.33 -97,-32 -21.332,10.67 -42.668,21.33 -64,32 10.665,-10.67 21.335,-21.33 32,-32 -21.333,0 -42.667,0 -64,0 -21.335,-21.33 -42.665,-42.67 -64,-64 -10.998,10.67 -22.002,21.33 -33,32 0,10.67 0,21.33 0,32 0,-21.33 0,-42.67 0,-64 -10.665,10.67 -21.335,21.33 -32,32 -10.665,-10.67 -21.335,-21.33 -32,-32 -21.332,10.67 -42.668,21.33 -64,32 -10.667,0 -21.333,0 -32,0 0,-10.67 0,-21.33 0,-32 -21.667,0 -43.333,0 -65,0 -21.331,-21.67 -42.669,-43.33 -64,-65 -10.667,0 -21.333,0 -32,0 -10.794,10.69 -21.39,21.59 -32.306,32.16 -21.566,10.94 -43.131,21.89 -64.694,32.84 -42.667,-11 -85.333,-22 -128,-33 -10.667,0 -21.333,0 -32,0 -11.001,-21.33 -21.999,-42.67 -33,-64 0,-42.67 0,-85.33 0,-128 -10.665,10.67 -21.335,21.33 -32,32 0,-10.67 0,-21.33 0,-32 -10.667,0 -21.333,0 -32,0 0,-11 0,-22 0,-33 -10.667,0 -21.333,0 -32,0 0,-10.67 0,-21.33 0,-32 -10.667,0 -21.333,0 -32,0 10.665,-10.67 21.335,-21.33 32,-32 -10.668,-21.33 -21.332,-42.67 -32,-64 0,-21.67 0,-43.33 0,-65 -42.999,21.67 -86.001,43.33 -129,65 -42.667,0 -85.333,0 -128,0 -21.582,-20.7 -42.882,-41.7 -63.696,-63.17 -11.102,-11.28 -22.204,-22.55 -33.304,-33.83 -10.665,10.67 -21.335,21.33 -32,32 -21.333,0 -42.667,0 -64,0 0,11 0,22 0,33 -10.998,10.67 -22.002,21.33 -33,32 0,10.67 0,21.33 0,32 -21.335,-21.33 -42.665,-42.67 -64,-64 -10.665,10.67 -21.335,21.33 -32,32 -10.667,0 -21.333,0 -32,0 0,21.33 0,42.67 0,64 10.667,0 21.333,0 32,0 0,21.33 0,42.67 0,64 -21.333,11 -42.667,22 -64,33 -21.667,0 -43.333,0 -65,0 -31.998,-21.67 -64.002,-43.33 -96,-65 -10.665,10.67 -21.335,21.33 -32,32 -10.668,32.33 -21.332,64.67 -32,97 -10.667,0 -21.333,0 -32,0 -11.001,-21.33 -21.999,-42.67 -33,-64 -10.667,0 -21.333,0 -32,0 -10.666,-21.67 -21.334,-43.33 -32,-65 -10.665,-10.67 -21.335,-21.33 -32,-32 -53.668,21.33 -107.332,42.67 -161,64 10.667,11 21.333,22 32,33 -21.333,-11 -42.667,-22 -64,-33 -21.333,0 -42.667,0 -64,0 -10.998,-10.67 -22.002,-21.33 -33,-32 -64,0 -128,0 -192,0 10.668,-21.33 21.332,-42.67 32,-64 -10.665,-10.67 -21.335,-21.33 -32,-32 -11.001,-32.33 -21.999,-64.67 -33,-97 -21.333,0 -42.667,0 -64,0 -10.665,-10.67 -21.335,-21.33 -32,-32 -10.668,21.33 -21.332,42.67 -32,64 -21.333,0 -42.667,0 -64,0 -10.998,-10.67 -22.002,-21.33 -33,-32 -10.665,10.67 -21.335,21.33 -32,32 10.668,-53.33 21.332,-106.67 32,-160 -10.667,-11 -21.333,-22 -32,-33 -21.333,0 -42.667,0 -64,0 0,-21.33 0,-42.67 0,-64 10.668,-21.33 21.332,-42.67 32,-64 53.668,-32.33 107.332,-64.67 161,-97 0,-42.67 0,-85.33 0,-128 21.335,-21.33 42.665,-42.67 64,-64 21.334,-75.33 42.666,-150.67 64,-226 0,-21.33 0,-42.67 0,-64 -10.667,0 -21.333,0 -32,0 -10.665,-10.67 -21.335,-21.33 -32,-32 32.335,-21.33 64.665,-42.67 97,-64 21.333,0 42.667,0 64,0 10.667,-11 21.333,-22 32,-33 -10.794,-10.69 -21.381,-21.59 -32.308,-32.15 -85.566,-42.61 -171.129,-85.23 -256.692,-127.85 0,-10.67 0,-21.33 0,-32 49.392,-16.96 98.705,-34.16 148.383,-50.28 14.872,-4.91 29.744,-9.81 44.617,-14.72 32.001,-64.33 63.999,-128.67 96,-193 0,-32 0,-64 0,-96 -21.333,0 -42.667,0 -64,0 -31.563,-31.25 -63.659,-61.98 -94.269,-94.18 -5.297,-4.5 -1.662,-12.61 -2.731,-18.82 0.672,-6.29 -1.536,-13.27 1.5,-19 10.168,-20.33 20.332,-40.67 30.5,-61 64.333,-43 128.667,-86 193,-129 21.668,-21.33 43.332,-42.67 65,-64 0,-10.67 0,-21.33 0,-32 -64.335,-32.33 -128.665,-64.67 -193,-97 -31.892,-64.22 -64.558,-128.05 -97,-192 21.668,-32.33 43.332,-64.67 65,-97 31.999,-10.67 64.001,-21.33 96,-32 0,-10.67 0,-21.33 0,-32 -21.331,-21.67 -42.669,-43.33 -64,-65 -53.668,-21.33 -107.332,-42.67 -161,-64 -10.667,-32 -21.333,-64 -32,-96 0,-32.33 0,-64.67 0,-97 10.667,-32 21.333,-64 32,-96 21.332,-10.67 42.668,-21.33 64,-32 21.707,-32.44 43.508,-64.83 65.154,-97.31 10.614,-21.23 21.231,-42.46 31.846,-63.69 0,-21.33 0,-42.67 0,-64 21.529,-54.4 43.393,-108.68 64.711,-163.16 10.428,-31.61 20.861,-63.22 31.289,-94.84 64.333,-75 128.667,-150 193,-225 10.737,-21.72 21.87,-43.26 32.357,-65.09 10.546,-31.97 21.094,-63.94 31.643,-95.91 -10.665,-10.67 -21.335,-21.33 -32,-32 -64.333,-10.67 -128.667,-21.33 -193,-32 -42.665,-42.67 -85.335,-85.33 -128,-128 10.781,-11.04 21.42,-22.23 32.286,-33.19 96.236,-64.27 192.476,-128.54 288.714,-192.81 10.668,-21.33 21.332,-42.67 32,-64 0,-53.67 0,-107.33 0,-161 -21.332,-85.67 -42.668,-171.33 -64,-257 0,-10.67 0,-21.33 0,-32 32.332,-53.67 64.668,-107.33 97,-161 -32.332,-53.67 -64.668,-107.33 -97,-161 -10.666,-42.67 -21.334,-85.33 -32,-128 32.002,-21.33 63.998,-42.67 96,-64 32.332,-53.67 64.668,-107.33 97,-161 21.331,-21.67 42.669,-43.33 64,-65 -10.668,-21.33 -21.332,-42.67 -32,-64 0,-53.67 0,-107.33 0,-161 -21.333,0 -42.667,0 -64,0 -21.665,21.67 -43.335,43.33 -65,65 -21.333,0 -42.667,0 -64,0 -10.692,-10.8 -21.592,-21.39 -32.153,-32.31 -21.279,-42.9 -42.566,-85.79 -63.847,-128.69 -11.126,-10.69 -22.059,-21.59 -33.307,-32.15 -21.23,-10.62 -42.463,-21.23 -63.693,-31.85 -21.332,10.67 -42.668,21.33 -64,32 -21.332,-10.67 -42.668,-21.33 -64,-32 10.666,-21.67 21.334,-43.33 32,-65 96.417,-64.21 192.685,-128.64 289,-193 10.667,-32 21.333,-64 32,-96 -10.668,-21.33 -21.332,-42.67 -32,-64 -53.667,-43 -107.333,-86 -161,-129 -21.333,0 -42.667,0 -64,0 -32.002,21.33 -63.998,42.67 -96,64 -21.667,0 -43.333,0 -65,0 -21.332,-10.67 -42.668,-21.33 -64,-32 0.09,-10.77 -0.17,-21.55 0.127,-32.32 21.293,-53.56 42.582,-107.12 63.873,-160.68 42.77,-20.93 85.391,-42.19 128.001,-63.43 4.568,-0.88 9.442,1.27 14.132,1.61 59.957,9.93 119.912,19.88 179.867,29.82 21.333,0 42.667,0 64,0 0,-10.67 0,-21.33 0,-32 -21.343,-42.47 -42.432,-85.08 -63.41,-127.73 -5.157,-7.62 -11.47,-14.43 -17.09,-21.73 -37.499,-46.52 -75.001,-93.03 -112.5,-139.54 -10.666,-21.67 -21.334,-43.33 -32,-65 -10.665,-10.67 -21.335,-21.33 -32,-32 -21.333,0 -42.667,0 -64,0 -32.334,64.33 -64.666,128.67 -97,193 -53.667,0 -107.333,0 -161,0 0,-32 0,-64 0,-96 21.936,-64.36 43.859,-128.72 65,-193.34 0,-10.55 0,-21.11 0,-31.66 -32.333,0 -64.667,0 -97,0 -32,-43 -64,-86 -96,-129 0,-32.33 0,-64.67 0,-97 21.333,-32 42.667,-64 64,-96 -32.001,-96.33 -63.999,-192.67 -96,-289 10.667,-43 21.333,-86 32,-129 31.999,-53.67 64.001,-107.33 96,-161 0,-21.33 0,-42.67 0,-64 -42.668,-64.33 -85.332,-128.67 -128,-193 -64.333,-10.67 -128.667,-21.33 -193,-32 -43.002,-32.33 -85.998,-64.67 -129,-97 -21.333,-75 -42.667,-150 -64,-225 10.674,-32.12 21.461,-64.2 32.067,-96.34 10.642,-53.55 21.288,-107.11 31.933,-160.66 0,-21.33 0,-42.67 0,-64 -21.335,-21.33 -42.665,-42.67 -64,-64 -32.333,0 -64.667,0 -97,0 -32,32 -64,64 -96,96 0,10.67 0,21.33 0,32 -32.335,-21.33 -64.665,-42.67 -97,-64 -10.667,-43 -21.333,-86 -32,-129 10.695,-10.79 21.589,-21.39 32.157,-32.31 10.95,-21.23 21.895,-42.46 32.843,-63.69 42.666,-10.67 85.334,-21.33 128,-32 10.666,-21.67 21.334,-43.33 32,-65 -21.335,-21.33 -42.665,-42.67 -64,-64 -43,0 -86,0 -129,0 -10.665,-10.67 -21.335,-21.33 -32,-32 0,-10.67 0,-21.33 0,-32 10.697,-11.12 21.582,-22.07 32.157,-33.31 10.95,-21.23 21.895,-42.46 32.843,-63.69 32,0 64,0 96,0 31.999,-10.67 64.001,-21.33 96,-32 11,-32 22,-64 33,-96 31.998,-21.67 64.002,-43.33 96,-65 64.333,-10.67 128.667,-21.33 193,-32 0.09,-10.77 -0.17,-21.55 0.127,-32.32 21.293,-53.56 42.582,-107.12 63.873,-160.68 21.665,-10.67 43.335,-21.33 65,-32 53.333,0 106.667,0 160,0 21.665,-10.67 43.335,-21.33 65,-32 21.333,-43 42.667,-86 64,-129 21.332,-10.67 42.668,-21.33 64,-32 10.667,0 21.333,0 32,0 21.665,10.67 43.335,21.33 65,32 32.002,32.33 63.998,64.67 96,97 21.333,-43 42.667,-86 64,-129 42.998,-53.67 86.002,-107.33 129,-161 10.668,-21.33 21.332,-42.67 32,-64 -439.333,-343 -878.667,-686 -1318,-1029 160.667,-343 321.333,-686 482,-1029 z"
         id="path60" />
    </g>
  </g>
</svg>
