<?xml version="1.0" encoding="UTF-8" standalone="no"?>
<!-- Created with Inkscape (http://www.inkscape.org/) -->

<svg
   xmlns:dc="http://purl.org/dc/elements/1.1/"
   xmlns:cc="http://creativecommons.org/ns#"
   xmlns:rdf="http://www.w3.org/1999/02/22-rdf-syntax-ns#"
   xmlns:svg="http://www.w3.org/2000/svg"
   xmlns="http://www.w3.org/2000/svg"
   xmlns:sodipodi="http://sodipodi.sourceforge.net/DTD/sodipodi-0.dtd"
   xmlns:inkscape="http://www.inkscape.org/namespaces/inkscape"
   width="54.297398mm"
   height="52.605862mm"
   viewBox="0 0 54.297398 52.605862"
   version="1.1"
   id="svg976"
   inkscape:version="0.92.5 (2060ec1f9f, 2020-04-08)"
   sodipodi:docname="mt.svg">
  <defs
     id="defs970" />
  <sodipodi:namedview
     id="base"
     pagecolor="#ffffff"
     bordercolor="#666666"
     borderopacity="1.0"
     inkscape:pageopacity="0.0"
     inkscape:pageshadow="2"
     inkscape:zoom="0.35"
     inkscape:cx="616.89497"
     inkscape:cy="176.55551"
     inkscape:document-units="mm"
     inkscape:current-layer="layer1"
     showgrid="false"
     inkscape:window-width="1366"
     inkscape:window-height="704"
     inkscape:window-x="0"
     inkscape:window-y="0"
     inkscape:window-maximized="1" />
  <metadata
     id="metadata973">
    <rdf:RDF>
      <cc:Work
         rdf:about="">
        <dc:format>image/svg+xml</dc:format>
        <dc:type
           rdf:resource="http://purl.org/dc/dcmitype/StillImage" />
        <dc:title></dc:title>
      </cc:Work>
    </rdf:RDF>
  </metadata>
  <g
     inkscape:label="Layer 1"
     inkscape:groupmode="layer"
     id="layer1"
     transform="translate(90.6487,-142.94112)">
    <g
       transform="matrix(9.9994773e-4,0,0,9.9994773e-4,-154.76523,79.867565)"
       id="MatoGrosso">
      <path
         inkscape:connector-curvature="0"
         style="fill:#999999;stroke:#ffffff;stroke-width:282.23678589;stroke-miterlimit:4;stroke-dasharray:none;stroke-opacity:1"
         d="m 64261,72698 c 0,-32 0,-64 0,-96 53.667,0 107.333,0 161,0 10.667,-21.667 21.333,-43.333 32,-65 21.333,-10.667 42.667,-21.333 64,-32 32.333,0 64.667,0 97,0 32,10.667 64,21.333 96,32 10.667,11 21.333,22 32,33 11,-11 22,-22 33,-33 -11,-21.333 -22,-42.667 -33,-64 10.965,-53.852 22.211,-107.647 33,-161.535 0,-31.822 0,-63.643 0,-95.465 -11,-10.667 -22,-21.333 -33,-32 -10.667,-32.333 -21.333,-64.667 -32,-97 -11.082,-11.556 -23.197,-22.213 -33.585,-34.377 -20.805,-31.208 -41.61,-62.415 -62.415,-93.623 0,-64.333 0,-128.667 0,-193 10.667,-32.333 21.333,-64.667 32,-97 10.034,-1.299 25.288,2.621 32,-2 0,-20.667 0,-41.333 0,-62 21.333,-21.333 42.667,-42.667 64,-64 0,-32.333 0,-64.667 0,-97 11.611,-32.941 22.202,-66.286 34.472,-98.967 42.177,-85.011 84.352,-170.022 126.528,-255.033 14.507,-15.136 30.819,-28.73 42.723,-46.15 28.76,-37.949 57.518,-75.9 86.277,-113.85 -21.667,-21.667 -43.333,-43.333 -65,-65 -10.667,-32 -21.333,-64 -32,-96 -32,-32.333 -64,-64.667 -96,-97 -10.667,-42.667 -21.333,-85.333 -32,-128 -10.667,-10.667 -21.333,-21.333 -32,-32 0,-21.667 0,-43.333 0,-65 -32.333,0 -64.667,0 -97,0 -43,-21.333 -86,-42.667 -129,-64 -11.347,-1.771 -25.689,3.687 -35,-3 -9.667,-9.667 -19.333,-19.333 -29,-29 1836.678,0.1 3673.357,-0.192 5510.034,0.144 886.369,10.614 1772.737,21.288 2659.107,31.856 2143.327,-0.08 4286.672,0.167 6429.988,-0.125 95.957,-10.625 191.914,-21.25 287.871,-31.875 21.333,-10.667 42.667,-21.333 64,-32 32.333,0 64.667,0 97,0 73.738,-75.513 149.092,-149.419 223.797,-223.969 11.777,-11.377 22.996,-23.438 35.162,-34.347 32.066,-21.772 64.728,-42.782 96.407,-65.05 10.212,-10.212 20.423,-20.423 30.634,-30.634 -1.347,-10.581 2.693,-24.503 -2.016,-33 -42.328,-21 -84.656,-42 -126.984,-63 -42.856,10.624 -85.628,21.585 -128.535,32 -11.866,1.017 -24.659,-2.12 -35.933,1.733 -41.512,20.753 -83.021,41.511 -124.532,62.267 -32.333,-10.667 -64.667,-21.333 -97,-32 -10.667,-10.667 -21.333,-21.333 -32,-32 43.793,-98.111 87.085,-196.453 131.196,-294.418 10.144,-20.723 21.076,-41.099 30.638,-62.082 10.391,-31.166 20.777,-62.334 31.166,-93.5 10.667,-11 21.333,-22 32,-33 0,-21.333 0,-42.667 0,-64 -10.843,-21.434 -21.283,-43.072 -32.378,-64.378 -21.207,-21.207 -42.415,-42.415 -63.622,-63.622 10.625,-43.189 21.584,-86.295 32,-129.535 0,-21.155 0,-42.31 0,-63.465 -10.847,-22.543 -22.526,-44.72 -32.834,-67.5 -10.391,-31.166 -20.777,-62.334 -31.166,-93.5 21.333,-43 42.667,-86 64,-129 11.082,-11.562 23.212,-22.216 33.591,-34.393 21.214,-32.247 43.261,-63.989 63.923,-96.574 10.624,-20.808 21.024,-41.731 31.82,-62.451 42.556,-53.193 85.111,-106.388 127.666,-159.582 0,-21.667 0,-43.333 0,-65 10.667,-21.333 21.333,-42.667 32,-64 -10.667,-21.333 -21.333,-42.667 -32,-64 10.667,-21.667 21.333,-43.333 32,-65 43,-21.333 86,-42.667 129,-64 10.667,-10.667 21.333,-21.333 32,-32 -10.667,-32.333 -21.333,-64.667 -32,-97 -10.667,-10.667 -21.333,-21.333 -32,-32 0,-21.333 0,-42.667 0,-64 10.667,-21.333 21.333,-42.667 32,-64 -10.667,-64.333 -21.333,-128.667 -32,-193 21.333,-32.333 42.667,-64.667 64,-97 -21.333,-64.333 -42.667,-128.667 -64,-193 10.667,-32 21.333,-64 32,-96 42.667,-21.333 85.333,-42.667 128,-64 11,-21.667 22,-43.333 33,-65 -11,-32 -22,-64 -33,-96 11,-32.333 22,-64.667 33,-97 -17.444,-33.728 -34.317,-67.773 -53.728,-100.438 -35.757,-62.854 -71.515,-125.708 -107.272,-188.562 -10.667,-32 -21.333,-64 -32,-96 -0.09,-21.84 0.173,-43.68 -0.13,-65.519 -10.62,-42.495 -21.247,-84.987 -31.87,-127.481 -32.694,-43.773 -65.966,-87.139 -98.294,-131.17 -31.57,-52.942 -63.137,-105.886 -94.706,-158.83 0,-75 0,-150 0,-225 -21.667,-21.333 -43.333,-42.667 -65,-64 0,-21.333 0,-42.667 0,-64 10.907,-1.362 25.202,2.72 34,-2.031 10.333,-20.99 20.667,-41.979 31,-62.969 64.333,-32 128.667,-64 193,-96 53.333,-53.667 106.667,-107.333 160,-161 21.667,-32 43.333,-64 65,-96 0,-64.333 0,-128.667 0,-193 52.564,-54.663 107.104,-107.38 160.241,-161.478 21.584,-42.842 43.173,-85.681 64.759,-128.522 53.667,-53.667 107.333,-107.333 161,-161 0,-32 0,-64 0,-96 -10.991,-21.531 -22.334,-42.882 -33.104,-64.525 -11.265,-55.654 -21.747,-111.477 -33.52,-167.022 -10.128,-40.817 -20.251,-81.635 -30.376,-122.453 21.434,-106.98 42.766,-213.98 64,-321 53.667,-107.333 107.333,-214.667 161,-322 58.742,-58.707 118.166,-116.738 176.433,-175.916 5.522,-5.695 11.045,-11.389 16.567,-17.084 0.688,-9.93 -1.371,-24.323 1.02,-31.485 22.391,11.503 45.336,21.995 67.337,34.214 84.214,52.757 168.429,105.514 252.643,158.271 43.419,83.121 84.09,167.631 126.025,251.502 11.658,23.5 23.316,46.999 34.975,70.498 53.667,53.333 107.333,106.667 161,160 43.044,75.178 86.264,150.256 129.198,225.497 42.602,107.167 85.201,214.335 127.802,321.503 0.169,16.209 -0.963,32.544 2.354,48.546 9.883,69.484 19.764,138.969 29.646,208.454 11,10.667 22,21.333 33,32 21.333,0 42.667,0 64,0 21.333,11 42.667,22 64,33 10.646,21.534 21.681,42.875 32.082,64.529 23.081,147.41 45.541,294.919 69.029,442.264 9.296,56.069 18.593,112.138 27.889,168.207 53.667,96.333 107.333,192.667 161,289 10.644,32.524 21.596,64.947 32.048,97.533 10.636,117.669 21.398,235.326 31.952,353.002 0,32.155 0,64.31 0,96.465 43,42.667 86,85.333 129,128 42.667,86 85.333,172 128,258 75,64 150,128 225,192 10.667,86 21.333,172 32,258 10.848,21.431 21.274,43.075 32.384,64.373 10.874,10.541 21.744,21.085 32.616,31.627 43.123,11.032 86.558,21.135 129.485,32.754 21.172,10.749 42.343,21.498 63.515,32.246 32,53.333 64,106.667 96,160 0,32.333 0,64.667 0,97 -21.338,53.52 -42.918,106.944 -64.104,160.525 -10.634,53.491 -21.264,106.983 -31.896,160.475 -21.667,32.333 -43.333,64.667 -65,97 0,32 0,64 0,96 21.667,43 43.333,86 65,129 0,21.333 0,42.667 0,64 -32.333,53.667 -64.667,107.333 -97,161 0.845,12.272 -1.847,25.109 1.661,36.984 10.111,30.339 20.226,60.677 30.339,91.016 43,53.667 86,107.333 129,161 0,21.667 0,43.333 0,65 -10.667,21.333 -21.333,42.667 -32,64 1.797,10.914 -3.726,25.738 3.01,34.014 31.387,21.199 63.363,41.645 94.356,63.352 10.212,10.212 20.423,20.423 30.634,30.634 -10.667,32.333 -21.333,64.667 -32,97 -21.333,21.333 -42.667,42.667 -64,64 10.667,32.333 21.333,64.667 32,97 1.344,10.588 -2.686,24.49 2.011,33.01 42.229,21.199 84.561,42.192 126.989,62.99 -10.667,75 -21.333,150 -32,225 11.077,11.565 23.219,22.207 33.581,34.395 20.802,31.538 41.613,63.07 62.419,94.605 21.333,64.333 42.667,128.667 64,193 -10.667,53.667 -21.333,107.333 -32,161 10.667,32 21.333,64 32,96 43,0 86,0 129,0 53.667,-21.333 107.333,-42.667 161,-64 75.754,43.263 151.81,86.025 227.372,129.606 31.211,21.129 62.419,42.263 93.628,63.394 53.667,0 107.333,0 161,0 21.333,21.333 42.667,42.667 64,64 -0.09,42.84 0.172,85.68 -0.129,128.519 -10.62,42.828 -21.247,85.654 -31.871,128.481 11.263,10.786 21.677,22.648 33.493,32.74 21.274,10.587 42.743,20.784 63.883,31.64 31.877,32.205 63.749,64.413 95.624,96.62 53.842,0.07 107.684,-0.139 161.525,0.104 53.491,10.634 106.983,21.264 160.475,31.896 10.667,32.333 21.333,64.667 32,97 10.667,10.667 21.333,21.333 32,32 21.918,-0.228 43.902,0.46 65.779,-0.353 53.073,-10.551 106.147,-21.098 159.221,-31.647 10.667,-11 21.333,-22 32,-33 22.227,11.169 44.02,23.293 66.531,33.839 32.107,10.795 64.498,20.841 96.416,32.14 20.791,10.505 41.772,20.634 62.431,31.399 15.532,15.82 32.16,30.69 45.313,48.657 81.435,101.323 162.873,202.643 244.309,303.965 64,32.333 128,64.667 192,97 11.141,32.134 21.944,64.386 33.295,96.447 21.233,32.186 42.47,64.369 63.705,96.553 21.333,10.667 42.667,21.333 64,32 0,32.333 0,64.667 0,97 21.667,10.667 43.333,21.333 65,32 10.667,21.333 21.333,42.667 32,64 0,21.333 0,42.667 0,64 -32.333,43 -64.667,86 -97,129 10.667,32 21.333,64 32,96 -10.667,21.667 -21.333,43.333 -32,65 2.095,11.935 -4.729,27.55 4.511,36.536 30.597,30.723 61.615,61.021 92.489,91.464 10.667,21.667 21.333,43.333 32,65 64.283,32.101 128.448,64.441 193,96 64.333,-10.667 128.667,-21.333 193,-32 21.333,10.667 42.667,21.333 64,32 96.514,10.647 193.01,21.45 289.535,32 11.863,-1.015 24.649,2.114 35.922,-1.727 20.182,-10.089 40.362,-20.182 60.543,-30.273 21.524,10.675 42.909,21.629 64.519,32.129 42.828,10.62 85.654,21.247 128.481,31.871 21.423,32.89 43.661,65.326 64.567,98.503 32.145,85.165 64.289,170.331 96.433,255.497 10.094,1.158 24.831,-2.326 32,1.758 0,74.414 0,148.828 0,223.242 10.667,21.333 21.333,42.667 32,64 0,21.667 0,43.333 0,65 10.667,21.333 21.333,42.667 32,64 12.295,-0.847 25.155,1.856 37.05,-1.677 30.795,-10.218 61.683,-20.155 92.395,-30.62 31.852,-21.234 63.703,-42.469 95.555,-63.703 1.007,-10.498 -2.013,-25.014 1.508,-33.004 31.67,-0.07 63.341,0.171 95.011,-0.125 42.828,-10.62 85.654,-21.247 128.481,-31.871 623.452,53.723 1246.876,107.836 1870.347,161.314 181.083,10.628 362.174,21.114 543.252,31.834 578.846,53.661 1157.684,107.412 1736.536,161.016 1255.094,96.512 2510.222,192.649 3765.295,289.395 417.128,42.822 834.226,85.994 1251.372,128.597 192.776,10.687 385.561,21.235 578.332,32.017 808.39,65.482 1616.748,131.364 2425.159,196.591 826.957,64.349 1653.877,129.141 2480.847,193.206 1154.17,86.298 2308.34,172.663 3462.56,258.178 264.78,19.568 529.53,39.532 794.32,58.853 85.35,0.05 170.7,-0.106 256.05,0.08 585.49,43.404 1170.97,87.124 1756.48,130.325 1249.43,85.445 2498.88,170.533 3748.3,256.197 244.58,21.481 489.16,43.096 733.75,64.488 394.34,21.918 788.71,43.346 1183.03,65.57 353.57,22.117 707.17,43.709 1060.71,66.188 955.89,63.053 1911.77,126.102 2867.66,189.153 0,21.333 0,42.667 0,64 -32.33,32.335 -64.67,64.665 -97,97 -32,64.333 -64,128.667 -96,193 0,42.667 0,85.333 0,128 -21.67,32.332 -43.33,64.668 -65,97 0,21.333 0,42.667 0,64 -21.33,32.335 -42.67,64.665 -64,97 0,42.667 0,85.333 0,128 -10.67,32.332 -21.33,64.668 -32,97 -21.33,21.335 -42.67,42.665 -64,64 -43,21.333 -86,42.667 -129,64 -21.33,21.668 -42.67,43.332 -64,65 -10.67,31.999 -21.33,64.001 -32,96 -21.67,21.331 -43.33,42.669 -65,64 -21.33,43.001 -42.67,85.999 -64,129 -10.63,53.852 -21.54,107.65 -32,161.535 1.3,9.858 -2.62,24.928 2,31.465 9.59,1.155 23.2,-2.321 30.25,1.758 10.59,74.413 21.16,148.828 31.75,223.242 -21.34,53.852 -42.91,107.612 -64.1,161.525 -10.74,53.648 -21.19,107.355 -32.11,160.966 -32.26,74.838 -64.53,149.672 -96.79,224.509 0.84,12.273 -1.85,25.109 1.66,36.984 10.11,30.339 20.23,60.677 30.34,91.016 -11.55,11.091 -22.24,23.181 -34.38,33.606 -31.2,21.132 -62.41,42.261 -93.62,63.394 -11,21.333 -22,42.667 -33,64 -42.67,21.332 -85.33,42.668 -128,64 -21.33,107.334 -42.67,214.666 -64,322 10.67,31.999 21.33,64.001 32,96 -10.67,10.665 -21.33,21.335 -32,32 -12.6,0.887 -25.81,-1.926 -37.99,1.713 -30.33,10.43 -60.67,20.858 -91.01,31.287 0,32 0,64 0,96 -10.67,31.999 -21.33,64.001 -32,96 10.67,32.332 21.33,64.668 32,97 -21.33,32.002 -42.67,63.998 -64,96 -10.67,32.332 -21.33,64.668 -32,97 -11,10.667 -22,21.333 -33,32 -32,0 -64,0 -96,0 -11.29,22.082 -21.78,44.61 -33.61,66.396 -21.28,31.646 -42.34,63.438 -63.77,94.982 -31.87,31.879 -63.75,63.746 -95.62,95.622 0,21.667 0,43.333 0,65 32,21.333 64,42.667 96,64 0,32 0,64 0,96 11,21.667 22,43.333 33,65 0.11,21.502 -0.23,43.007 0.17,64.508 10.61,31.831 21.22,63.661 31.83,95.492 -32.33,53.668 -64.67,107.332 -97,161 0,32.333 0,64.667 0,97 -21.33,0 -42.67,0 -64,0 -10.67,10.665 -21.33,21.335 -32,32 -1.01,11.709 2.11,24.338 -1.73,35.457 -10.09,20.181 -20.18,40.363 -30.27,60.543 0,53.667 0,107.333 0,161 21.33,10.668 42.67,21.332 64,32 10.67,21.332 21.33,42.668 32,64 0,21.667 0,43.333 0,65 -32.07,32.174 -64.35,64.151 -96.3,96.445 -21.57,32.182 -43.13,64.372 -64.7,96.555 21.67,53.666 43.33,107.334 65,161 -10.67,21.332 -21.33,42.668 -32,64 10.67,31.999 21.33,64.001 32,96 0,43 0,86 0,129 10.67,21.332 21.33,42.668 32,64 0,43 0,86 0,129 -10.67,21.332 -21.33,42.668 -32,64 -1.8,10.92 3.75,25.765 -3.03,34.031 -31.32,20.991 -62.65,41.978 -93.97,62.969 -10.67,31.999 -21.33,64.001 -32,96 -21.33,10.668 -42.67,21.332 -64,32 -0.11,21.836 0.23,43.674 -0.17,65.508 -10.61,31.831 -21.22,63.661 -31.83,95.492 10.62,43.19 21.58,86.295 32,129.535 0.11,21.324 -0.23,42.651 0.17,63.973 10.61,31.831 21.22,63.661 31.83,95.492 -10.81,44.549 -22.54,88.896 -32.76,133.575 -10.41,62.808 -20.83,125.617 -31.24,188.425 -21.77,10.844 -43.74,21.276 -65.38,32.378 -31.87,31.879 -63.75,63.746 -95.62,95.622 -10.67,21.665 -21.33,43.335 -32,65 -0.11,21.502 0.22,43.007 -0.17,64.508 -10.93,32.628 -21.26,65.489 -32.58,97.965 -21.41,42.176 -42.83,84.353 -64.25,126.527 0,43 0,86 0,129 -21.33,42.668 -42.67,85.332 -64,128 0,96.667 0,193.333 0,290 10.67,21.332 21.33,42.668 32,64 -10.67,42.999 -21.33,86.001 -32,129 32,64.333 64,128.667 96,193 15.37,0.561 31.16,-1.915 45.99,3.232 38.52,9.602 76.98,19.41 115.55,28.768 32.15,0 64.31,0 96.46,0 10.67,10.665 21.33,21.335 32,32 0,43 0,86 0,129 -10.67,21.332 -21.33,42.668 -32,64 10.67,31.999 21.33,64.001 32,96 0,43 0,86 0,129 -10.8,11.254 -22.61,21.696 -32.76,33.469 -10.74,20.846 -21.49,41.688 -32.24,62.531 -21.44,11.174 -43.07,21.965 -64.38,33.378 -53.34,53.41 -107.09,106.406 -160.62,159.622 1.03,11.713 -2.15,24.386 1.77,35.482 21.27,41.742 42.35,83.58 63.23,125.518 10.67,53.666 21.33,107.334 32,161 21.33,42.668 42.67,85.332 64,128 0,53.667 0,107.333 0,161 10.67,10.665 21.33,21.335 32,32 32.33,0 64.67,0 97,0 32,32.333 64,64.667 96,97 0,32 0,64 0,96 -32,10.667 -64,21.333 -96,32 -10.67,21.665 -21.33,43.335 -32,65 21.33,32.002 42.67,63.998 64,96 0,32.333 0,64.667 0,97 -43,42.667 -86,85.333 -129,128 -10.67,21.665 -21.33,43.335 -32,65 10.67,10.665 21.33,21.335 32,32 -0.84,12.273 1.85,25.109 -1.66,36.984 -10.11,30.339 -20.23,60.677 -30.34,91.016 1.48,11.124 -2.99,24.715 2.27,34.273 31.58,31.577 63.16,63.15 94.73,94.727 -0.22,32.671 0.45,65.401 -0.35,98.036 -10.85,63.838 -21.94,127.636 -32.65,191.499 0,32.155 0,64.31 0,96.465 -10.67,21.332 -21.33,42.668 -32,64 0,53.667 0,107.333 0,161 -10.67,21.332 -21.33,42.668 -32,64 10.67,32.332 21.33,64.668 32,97 43,-11 86,-22 129,-33 10.67,10.998 21.33,22.002 32,33 0,42.667 0,85.333 0,128 21.33,32.335 42.67,64.665 64,97 0,21.333 0,42.667 0,64 -21.33,21.335 -42.67,42.665 -64,64 0,43 0,86 0,129 10.67,10.665 21.33,21.335 32,32 -10.67,32.332 -21.33,64.668 -32,97 21.35,32.193 43.01,64.185 64.17,96.506 10.95,31.83 21.89,63.662 32.83,95.494 -11,53.667 -22,107.333 -33,161 21.67,10.666 43.33,21.334 65,32 -10.62,43.19 -21.58,86.295 -32,129.535 -0.68,9.765 1.36,23.924 -1.02,30.965 -21.32,-10.499 -42.65,-21.001 -63.98,-31.5 -21.33,10.668 -42.67,21.332 -64,32 10.67,42.999 21.33,86.001 32,129 -21.33,32.002 -42.67,63.998 -64,96 -10.67,53.666 -21.33,107.334 -32,161 -21.67,21.331 -43.33,42.669 -65,64 -10.67,32.332 -21.33,64.668 -32,97 32.33,21.335 64.67,42.665 97,64 0,21.333 0,42.667 0,64 -12.6,-0.861 -25.78,1.869 -37.99,-1.661 -30.33,-10.111 -60.67,-20.226 -91.01,-30.339 -10.78,11.262 -22.65,21.671 -32.74,33.488 -10.41,21.175 -20.84,42.343 -31.26,63.512 10.67,21.332 21.33,42.668 32,64 0,43 0,86 0,129 75,-11 150,-22 225,-33 10.67,10.998 21.33,22.002 32,33 0,21.333 0,42.667 0,64 -10.67,21.332 -21.33,42.668 -32,64 10.67,42.999 21.33,86.001 32,129 21.33,0 42.67,0 64,0 -10.67,31.999 -21.33,64.001 -32,96 21.67,21.665 43.33,43.335 65,65 0,42.667 0,85.333 0,128 -11,21.333 -22,42.667 -33,64 32.33,0 64.67,0 97,0 -21.33,43.001 -42.67,85.999 -64,129 0,21.333 0,42.667 0,64 10.67,10.998 21.33,22.002 32,33 10.47,-1.007 23.85,2.016 32.5,-1.516 10.5,-31.827 21,-63.657 31.5,-95.484 43,0 86,0 129,0 -1.8,10.92 3.75,25.765 -3.03,34.031 -31.32,20.991 -62.65,41.978 -93.97,62.969 1.63,10.465 -3.29,25.369 2.52,33 52.82,20.999 105.65,42.001 158.48,63 53.67,0 107.33,0 161,0 21.33,-10.668 42.67,-21.332 64,-32 10.67,21.332 21.33,42.668 32,64 0,21.667 0,43.333 0,65 10.67,21.332 21.33,42.668 32,64 0,21.333 0,42.667 0,64 -10.84,22.219 -22.57,44.044 -32.83,66.518 -20.9,63.547 -41.96,127.04 -63.17,190.482 0,64.333 0,128.667 0,193 -32.33,10.668 -64.67,21.332 -97,32 -21.33,32.335 -42.67,64.665 -64,97 -11.71,-1.009 -24.34,2.106 -35.46,-1.727 -20.18,-10.089 -40.36,-20.181 -60.54,-30.273 -21.67,10.666 -43.33,21.334 -65,32 10.67,31.999 21.33,64.001 32,96 21.67,10.666 43.33,21.334 65,32 -1.02,12.04 2.12,25.007 -1.73,36.457 -10.09,20.181 -20.18,40.363 -30.27,60.543 -43,10.667 -86,21.333 -129,32 -10.67,10.665 -21.33,21.335 -32,32 21.33,43.001 42.67,85.999 64,129 10.67,10.665 21.33,21.335 32,32 -0.23,21.918 0.46,43.902 -0.35,65.779 -10.55,53.073 -21.1,106.147 -31.65,159.221 10.67,42.999 21.33,86.001 32,129 -21.33,42.668 -42.67,85.332 -64,128 11.34,1.793 25.75,-3.736 35,3.047 20.33,20.652 40.67,41.3 61,61.953 0,64.333 0,128.667 0,193 -21.49,32.105 -42.75,64.367 -64.38,96.378 -10.54,10.544 -21.08,21.081 -31.62,31.622 0,53.667 0,107.333 0,161 -11.08,11.565 -23.22,22.212 -33.59,34.4 -20.95,31.646 -41.67,63.44 -62.79,94.976 -21.54,21.21 -43.08,42.416 -64.62,63.624 -10.67,21.332 -21.33,42.668 -32,64 -32,21.333 -64,42.667 -96,64 0.1,43.173 -0.17,86.347 0.13,129.519 10.62,42.829 21.25,85.653 31.87,128.481 -10.67,21.332 -21.33,42.668 -32,64 -21.67,10.666 -43.33,21.334 -65,32 -21.33,43.001 -42.67,85.999 -64,129 -32,32 -64,64 -96,96 -43,21.667 -86,43.333 -129,65 -32,42.667 -64,85.333 -96,128 -11,107.333 -22,214.667 -33,322 -21.33,32.002 -42.67,63.998 -64,96 -10.74,53.833 -21.32,107.698 -32.17,161.508 -21.28,64.164 -42.55,128.329 -63.83,192.492 -32.33,42.668 -64.67,85.332 -97,128 -21.33,-10.668 -42.67,-21.332 -64,-32 -21.67,10.666 -43.33,21.334 -65,32 -11.34,1.832 -25.87,-3.829 -35.02,3.141 -9.83,10.488 -20.56,20.309 -29.72,31.331 -10.42,20.842 -20.84,41.686 -31.26,62.528 32,42.667 64,85.333 96,128 -10.67,53.666 -21.33,107.334 -32,161 10.67,21.665 21.33,43.335 32,65 -10.67,31.999 -21.33,64.001 -32,96 21.67,42.999 43.33,86.001 65,129 0,139.333 0,278.667 0,418 -32.33,32.002 -64.67,63.998 -97,96 0,32.333 0,64.667 0,97 21.33,32.002 42.67,63.998 64,96 0,43 0,86 0,129 32.33,75.001 64.67,149.999 97,225 -11.08,32.615 -21.41,65.509 -32.97,97.942 -10.35,20.685 -20.68,41.373 -31.03,62.058 -43,32.333 -86,64.667 -129,97 -32,0 -64,0 -96,0 -21.67,-21.331 -43.33,-42.669 -65,-64 -21.33,0 -42.67,0 -64,0 0.1,21.506 -0.17,43.014 0.13,64.519 10.58,42.683 21.5,85.281 31.87,128.016 0,32.155 0,64.31 0,96.465 -21.33,21.335 -42.67,42.665 -64,64 -53.13,107.797 -107.32,215.07 -161.17,322.508 -21.59,64.627 -42.61,129.479 -64.57,193.964 -10.42,20.842 -20.84,41.686 -31.26,62.528 10.67,53.666 21.33,107.334 32,161 -10.67,31.999 -21.33,64.001 -32,96 -21.67,10.666 -43.33,21.334 -65,32 10.62,43.19 21.58,86.295 32,129.535 -0.99,11.549 2.08,23.991 -1.72,34.964 -20.56,41.932 -41.32,83.766 -62.28,125.501 21.33,32.002 42.67,63.998 64,96 0,21.667 0,43.333 0,65 21.67,21.331 43.33,42.669 65,64 10.67,21.332 21.33,42.668 32,64 -10.67,32.332 -21.33,64.668 -32,97 10.67,42.666 21.33,85.334 32,128 -53.67,85.999 -107.33,172.001 -161,258 10.67,53.333 21.33,106.667 32,160 -42.67,85.665 -85.33,171.335 -128,257 -10.91,1.362 -25.2,-2.72 -34,2.031 -10.34,20.989 -20.66,41.981 -31,62.969 10.67,31.999 21.33,64.001 32,96 -1.01,11.73 2.12,24.384 -1.75,35.52 -10.22,20.613 -20.12,41.387 -30.63,61.858 -10.66,11.134 -22.37,21.429 -32.36,33.098 -10.59,20.949 -20.8,42.085 -31.64,62.902 -10.54,10.544 -21.08,21.081 -31.62,31.622 0,32.333 0,64.667 0,97 21.33,32.002 42.67,63.998 64,96 -10.67,21.665 -21.33,43.335 -32,65 -32,21.333 -64,42.667 -96,64 -32.33,53.668 -64.67,107.332 -97,161 0,53.333 0,106.667 0,159.998 -10.67,32.33 -21.33,64.67 -32,97 21.33,21.33 42.67,42.67 64,64 -1.3,10.03 2.62,25.29 -2,32 -11.92,1.66 -26.02,-3.91 -36.03,4.03 -62.32,41.66 -124.65,83.31 -186.97,124.97 -10.91,1.79 -25.73,-3.72 -34,3 -20.66,31 -41.34,62 -62,93 0,32.33 0,64.67 0,97 -148.52,84.33 -296.87,168.97 -444.94,254.1 -11.37,6.29 -24.98,7.01 -37.31,10.9 -32.25,8 -64.5,16 -96.75,24 -32,-10.67 -64,-21.33 -96,-32 -10.99,-21.53 -22.33,-42.88 -33.1,-64.52 -10.64,-53.49 -21.27,-106.99 -31.9,-160.48 -32,-21.33 -64,-42.67 -96,-64 -21.67,0 -43.33,0 -65,0 -10.84,21.44 -21.29,43.07 -32.38,64.38 -21.38,21.28 -42.57,42.76 -64.06,63.92 -31.85,21.57 -63.71,43.13 -95.56,64.7 -32.33,-21.67 -64.67,-43.33 -97,-65 -43,10.67 -86,21.33 -129,32 -21.33,43 -42.67,86 -64,129 -21.33,0 -42.67,0 -64,0 -10.84,21.44 -21.29,43.07 -32.38,64.38 -21.54,21.54 -43.08,43.08 -64.62,64.62 -64.33,-10.67 -128.67,-21.33 -193,-32 -32,32 -64,64 -96,96 -21.33,53.67 -42.67,107.33 -64,161 -43,10.67 -86,21.33 -129,32 -32,75 -64,150 -96,225 -11,10.67 -22,21.33 -33,32 -42.67,0 -85.33,0 -128,0 -32.33,21.33 -64.67,42.67 -97,64 0,43 0,86 0,129 -21.33,32.33 -42.67,64.67 -64,97 0,32 0,64 0,96 10.67,21.33 21.33,42.67 32,64 21.67,10.67 43.33,21.33 65,32 -1.84,11.23 3.81,26.5 -3.06,35.01 -32.34,21.07 -64.19,42.96 -96.87,63.46 -20.35,10.18 -40.72,20.35 -61.07,30.53 -10.67,32.33 -21.33,64.67 -32,97 0,53.33 0,106.67 0,160 21.33,21.67 42.67,43.33 64,65 0,21.33 0,42.67 0,64 -43,64.33 -86,128.67 -129,193 1.01,11.71 -2.11,24.34 1.73,35.46 10.09,20.18 20.18,40.36 30.27,60.54 -1.55,12.02 3.38,25.98 -3,36.55 -20.33,30.81 -40.67,61.63 -61,92.45 10.67,32 21.33,64 32,96 0,21.67 0,43.33 0,65 -10.67,10.67 -21.33,21.33 -32,32 -32,10.67 -64,21.33 -96,32 -10.67,21.33 -21.33,42.67 -32,64 0.84,12.29 -1.83,25.14 1.66,37.03 10.11,30.66 20.23,61.31 30.34,91.97 0,21.33 0,42.67 0,64 -43,0 -86,0 -129,0 -10.67,-32 -21.33,-64 -32,-96 -21.33,0 -42.67,0 -64,0 -1.3,10.03 2.62,25.29 -2,32 -9.1,1.04 -24.02,-2.09 -29.47,1.58 16.04,47.8 31.22,95.91 49.52,142.92 25.98,69.83 51.96,139.67 77.95,209.5 -0.11,21.5 0.23,43.01 -0.17,64.51 -10.61,31.83 -21.22,63.66 -31.83,95.49 -10.84,11.29 -22.69,21.78 -32.89,33.6 -53.37,96.13 -106.74,192.27 -160.11,288.4 0,21.33 0,42.67 0,64 -43,21.33 -86,42.67 -129,64 -32.42,54.7 -65.43,109.06 -97.47,163.97 -10.34,20.79 -20.31,41.76 -30.91,62.41 -32.21,31.87 -64.41,63.75 -96.62,95.62 -10.67,32 -21.33,64 -32,96 -10.67,11 -21.33,22 -32,33 -32,-32.33 -64,-64.67 -96,-97 -64.33,0 -128.67,0 -193,0 -10.67,21.33 -21.33,42.67 -32,64 0,32.33 0,64.67 0,97 -21.67,-10.67 -43.33,-21.33 -65,-32 -21.33,10.67 -42.67,21.33 -64,32 -21.33,53.67 -42.67,107.33 -64,161 -21.87,10.64 -43.54,21.69 -65.53,32.08 -74.82,10.64 -149.65,21.28 -224.47,31.92 -32,-10.67 -64,-21.33 -96,-32 -21.67,0 -43.33,0 -65,0 -10.67,10.67 -21.33,21.33 -32,32 -10.67,-10.67 -21.33,-21.33 -32,-32 -32,21.33 -64,42.67 -96,64 -107.33,-21.33 -214.67,-42.67 -322,-64 -21.33,10.67 -42.67,21.33 -64,32 -75,0 -150,0 -225,0 10.67,32 21.33,64 32,96 -10.67,43 -21.33,86 -32,129 -10.03,1.3 -25.29,-2.62 -32,2 0,20.67 0,41.33 0,62 -43,32.33 -86,64.67 -129,97 0,32 0,64 0,96 -32.28,32.06 -64.06,64.61 -96,97 -11.61,32.93 -22.19,66.27 -34.47,98.93 -10.18,20.35 -20.35,40.72 -30.53,61.07 -0.86,12.6 1.87,25.78 -1.66,37.99 -10.11,30.33 -20.23,60.67 -30.34,91.01 -1.79,10.92 3.71,25.72 -3,34.03 -31,20.99 -62,41.98 -93,62.97 -11,-11 -22,-22 -33,-33 -31.45,32.88 -63.87,64.79 -96,97 -32.33,-10.67 -64.67,-21.33 -97,-32 -64.14,32.12 -128.35,64.08 -192.44,96.3 -32.19,21.57 -64.37,43.13 -96.56,64.7 -21.33,0 -42.67,0 -64,0 -21.43,10.84 -43.06,21.3 -64.38,32.37 -10.87,10.55 -21.75,21.09 -32.62,31.63 -11.71,-1.01 -24.34,2.11 -35.46,-1.73 -20.18,-10.09 -40.36,-20.18 -60.54,-30.27 -21.33,10.67 -42.67,21.33 -64,32 0,32 0,64 0,96 -32.33,10.67 -64.67,21.33 -97,32 10.67,21.67 21.33,43.33 32,65 -10.67,21.33 -21.33,42.67 -32,64 0,53.67 0,107.33 0,161 -32,0 -64,0 -96,0 1.39,11.46 -2.86,24.79 2.25,35.02 31.25,42 62.5,83.99 93.75,125.98 -1.3,10.03 2.62,25.29 -2,32 -20.67,0 -41.33,0 -62,0 -21.33,-21.67 -42.67,-43.33 -64,-65 -10.91,1.36 -25.2,-2.72 -34,2.03 -10.33,20.99 -20.67,41.98 -31,62.97 -1,10.17 2,24.33 -1.5,32 -31.5,0 -63,0 -94.5,0 -21.67,21.33 -43.33,42.67 -65,64 -42.67,0 -85.33,0 -128,0 -1.3,-10.03 2.62,-25.29 -2,-32 -11.93,1.64 -26.01,-3.88 -36.06,4 -30.32,20 -60.63,40 -90.94,60 0,21.67 0,43.33 0,65 -10.59,1.93 -25.99,-3.91 -33.5,3 -10.17,20.33 -20.33,40.67 -30.5,61 10.67,10.67 21.33,21.33 32,32 0,32.33 0,64.67 0,97 -10.67,10.67 -21.33,21.33 -32,32 0,32 0,64 0,96 21.33,21.33 42.67,42.67 64,64 -21.33,11 -42.67,22 -64,33 1.77,11.35 -3.69,25.69 3,35 20.33,20.33 40.67,40.67 61,61 53.67,0 107.33,0 161,0 0,32.33 0,64.67 0,97 11.56,11.08 22.21,23.21 34.39,33.58 31.54,20.81 63.07,41.61 94.61,62.42 -11,10.67 -22,21.33 -33,32 0.69,9.52 -1.38,25.55 1.03,31 10.66,-10.33 21.32,-20.67 31.97,-31 21.33,10.67 42.67,21.33 64,32 -21.33,11 -42.67,22 -64,33 10.67,10.67 21.33,21.33 32,32 0,21.33 0,42.67 0,64 -10.67,21.33 -21.33,42.67 -32,64 -32.33,0 -64.67,0 -97,0 0,21.67 0,43.33 0,65 10.17,1 24.33,-2 32,1.5 0,31.5 0,63 0,94.5 -10.67,10.67 -21.33,21.33 -32,32 0,21.33 0,42.67 0,64 -21.33,-10.67 -42.67,-21.33 -64,-32 0,21.67 0,43.33 0,65 -21.33,-21.67 -42.67,-43.33 -64,-65 -10.35,1.32 -26.02,-2.67 -33,2.03 0,20.99 0,41.98 0,62.97 11,10.67 22,21.33 33,32 -21.67,0 -43.33,0 -65,0 10.67,21.33 21.33,42.67 32,64 -10.67,10.67 -21.33,21.33 -32,32 -21.33,0 -42.67,0 -64,0 -21.33,-21.33 -42.67,-42.67 -64,-64 -10.67,0 -21.33,0 -32,0 10.67,43 21.33,86 32,129 -32.33,-21.67 -64.67,-43.33 -97,-65 -21.33,0 -42.67,0 -64,0 10.67,21.67 21.33,43.33 32,65 -10.67,10.67 -21.33,21.33 -32,32 1.3,10.03 -2.62,25.29 2,32 20.67,0 41.33,0 62,0 10.67,43 21.33,86 32,129 -10.67,10.67 -21.33,21.33 -32,32 -10.84,-21.77 -21.28,-43.74 -32.38,-65.38 -10.54,-10.54 -21.08,-21.08 -31.62,-31.62 -21.6,21.41 -42.92,43.08 -64,65 21.33,32 42.67,64 64,96 -10.67,-10.67 -21.33,-21.33 -32,-32 -43.1,21.13 -86.1,42.46 -129,64 1.3,10.03 -2.62,25.29 2,32 20.67,0 41.33,0 62,0 -10.67,10.67 -21.33,21.33 -32,32 0,43 0,86 0,129 -21.33,0 -42.67,0 -64,0 -10.67,21.33 -21.33,42.67 -32,64 0,32.33 0,64.67 0,97 -11.39,1.76 -25.69,-3.67 -35.09,3 -9.97,9.67 -19.94,19.33 -29.91,29 -10.67,-10.67 -21.33,-21.33 -32,-32 -32,32 -64,64 -96,96 -10.03,1.32 -25.35,-2.66 -32,2.03 0,20.99 0,41.98 0,62.97 -10.02,-1.33 -25.4,2.7 -32,-2.06 -1.34,-9.67 2.7,-24.7 -2.06,-30.94 -11.33,2.12 -26.42,-4.63 -34.94,4.12 -9.33,9.63 -18.67,19.26 -28,28.88 -10.67,-11 -21.33,-22 -32,-33 -10.67,21.67 -21.33,43.33 -32,65 -21.33,0 -42.67,0 -64,0 -21.67,10.67 -43.33,21.33 -65,32 9.81,0.67 26.31,-1.34 31.95,1 -11.21,10.48 -21.69,21.92 -33.42,31.74 -20.84,10.42 -41.69,20.83 -62.53,31.26 0,21.33 0,42.67 0,64 -11.34,1.81 -25.81,-3.78 -35,3.09 -9.67,9.97 -19.33,19.94 -29,29.91 -10.03,-1.32 -25.35,2.66 -32,-2.03 0,-20.99 0,-41.98 0,-62.97 -10.36,1.3 -25.96,-2.63 -33,2 -1.3,9.37 2.62,23.95 -2,30 -8.84,0.68 -24.23,-1.36 -28.98,1.02 21.32,21.32 42.65,42.65 63.98,63.98 -11,21.33 -22,42.67 -33,64 10.36,1.3 25.96,-2.63 33,2 -1.3,9.37 2.63,23.98 -2.02,30 -42.32,0 -84.65,0 -126.98,0 10.58,1.36 24.53,-2.71 33,2.03 10.33,20.99 20.67,41.98 31,62.97 -10.02,-1.33 -25.4,2.7 -32,-2.06 -1.3,-9.68 2.62,-24.58 -2,-30.94 -9.36,1.31 -24.01,-2.65 -30,2.03 0,20.99 0,41.98 0,62.97 -10.67,-10.67 -21.33,-21.33 -32,-32 -1.77,11.35 3.69,25.69 -3,35 -9.67,9.67 -19.33,19.33 -29,29 -10.67,-10.67 -21.33,-21.33 -32,-32 -32.33,0 -64.67,0 -97,0 -10.67,-10.67 -21.33,-21.33 -32,-32 -10.67,10.67 -21.33,21.33 -32,32 -0.67,-9.52 1.34,-25.5 -1,-31 -10.33,10.33 -20.67,20.67 -31,31 0,21.33 0,42.67 0,64 10.67,10.67 21.33,21.33 32,32 -10.03,1.3 -25.29,-2.62 -32,2 0,20.67 0,41.33 0,62 -11,11 -22,22 -33,33 -10.03,1.3 -25.29,-2.62 -32,2 -1.3,9.37 2.62,23.95 -2,30 -9.57,0.85 -22.53,-1.69 -30,1.26 0,53.25 0,106.49 0,159.74 -10.67,10.67 -21.33,21.33 -32,32 -1.01,11.71 2.11,24.34 -1.73,35.46 -10.09,20.18 -20.18,40.36 -30.27,60.54 -1.3,-10.03 2.62,-25.29 -2,-32 -9.37,1.3 -23.98,-2.63 -30,2.02 0,42.32 0,84.65 0,126.98 10.67,10.67 21.33,21.33 32,32 -10.67,10.67 -21.33,21.33 -32,32 0,21.33 0,42.67 0,64 -9.52,0.67 -25.5,-1.34 -31,1 10.33,10.33 20.67,20.67 31,31 -10.02,1.33 -25.4,-2.7 -32,2.06 -1.34,9.67 2.7,24.7 -2.06,30.94 -9.58,0.68 -23.59,-1.35 -30.42,1 10.82,21 21.65,42 32.48,63 -10.36,1.3 -25.96,-2.63 -33,2 1.33,9.36 -2.69,24.06 2.06,30 9.68,1.3 24.58,-2.62 30.94,2 0,20.67 0,41.33 0,62 0.67,-9.52 -1.34,-25.5 1,-31 10.33,10.33 20.67,20.67 31,31 -1.76,11.39 3.67,25.69 -3,35.09 -9.67,9.97 -19.33,19.94 -29,29.91 -10.36,1.3 -25.96,-2.63 -33,2 0,10 0,20 0,30 0,-8.73 0,-27.91 0,-30 0,20.67 0,41.33 0,62 -10.67,-10.67 -21.33,-21.33 -32,-32 -9.52,0.67 -25.5,-1.34 -31,1 10.33,10.33 20.67,20.67 31,31 -21.33,0 -42.67,0 -64,0 10.67,10.67 21.33,21.33 32,32 -10.03,1.3 -25.29,-2.62 -32,2 -1.29,9.37 2.61,23.95 -2,30 -20.67,0 -41.33,0 -62,0 10.67,10.67 21.33,21.33 32,32 -21.67,0 -43.33,0 -65,0 -10.67,11 -21.33,22 -32,33 -0.11,21.5 0.23,43.01 -0.17,64.51 -10.61,31.83 -21.22,63.66 -31.83,95.49 -10.03,1.3 -25.29,-2.62 -32,2 -2.01,11.13 4.43,25.66 -4.03,34.19 -9.51,10.12 -19.88,19.62 -28.71,30.28 -10.42,20.84 -20.83,41.69 -31.26,62.53 -10.67,-10.67 -21.33,-21.33 -32,-32 -11,10.67 -22,21.33 -33,32 -0.11,21.5 0.22,43.01 -0.17,64.51 -10.61,32.16 -21.22,64.33 -31.83,96.49 0,21.33 0,42.67 0,64 -10.17,1 -24.33,-2 -32,1.5 0,31.5 0,63 0,94.5 -10.79,11.58 -22.6,22.38 -32.74,34.47 -10.42,20.84 -20.83,41.69 -31.26,62.53 -21.67,0 -43.33,0 -65,0 11,32 22,64 33,96 -21.67,11 -43.33,22 -65,33 -1.93,10.59 3.91,25.99 -3,33.5 -20.33,10.17 -40.67,20.33 -61,30.5 0,21.33 0,42.67 0,64 10.67,-10.67 21.33,-21.33 32,-32 1.3,10.03 -2.62,25.29 2,32 8.86,0.67 24.17,-1.34 29,1 -10.33,10.33 -20.67,20.67 -31,31 -1.3,10.03 2.62,25.29 -2,32 -8.93,0.35 -23.63,-0.7 -29,0.52 21.11,10.99 42.4,21.63 63.38,32.86 10.54,10.54 21.08,21.08 31.62,31.62 -10.67,10.67 -21.33,21.33 -32,32 10.03,1.3 25.29,-2.62 32,2 -1.3,9.37 2.62,23.95 -2,30 -9.37,1.29 -23.95,-2.61 -30,2 0,20.67 0,41.33 0,62 21.67,0 43.33,0 65,0 -11,10.67 -22,21.33 -33,32 -8.73,0 -27.91,0 -30,0 9.36,1.31 24.01,-2.65 30,2.03 0,20.99 0,41.98 0,62.97 -10.67,10.67 -21.33,21.33 -32,32 0,-8.73 0,-27.91 0,-30 -2.04,11.04 4.45,25.62 -4,34 -9.33,9.33 -18.67,18.67 -28,28 10.03,1.3 25.29,-2.62 32,2 -1.3,9.37 2.62,23.95 -2,30 -9.37,1.3 -23.95,-2.62 -30,2 -1.3,9.37 2.62,23.95 -2,30 -9.36,1.33 -24.06,-2.69 -30,2.06 -2.08,11.34 4.52,26.27 -4,34.94 -20,20 -40,40 -60,60 10.67,10.67 21.33,21.33 32,32 -10.67,10.67 -21.33,21.33 -32,32 10.03,1.31 25.32,-2.64 32,2.02 0,42.32 0,84.65 0,126.98 -0.34,-9.61 0.67,-24.92 -0.5,-31 -10.5,21 -21,42 -31.5,63 -1.01,11.71 2.11,24.34 -1.73,35.46 -10.09,20.18 -20.18,40.36 -30.27,60.54 0,32.33 0,64.67 0,97 0,-8.71 0,-28 0,-29.97 -1.13,11.34 2.59,23.9 -2.28,34.42 -10.23,19.85 -20.46,39.7 -30.7,59.55 1.33,10.02 -2.7,25.4 2.06,32 10.31,0 20.63,0 30.94,0 -10.35,1.32 -26.02,-2.67 -33,2.03 0,20.99 0,41.98 0,62.97 11,10.67 22,21.33 33,32 -11,10.67 -22,21.33 -33,32 11,10.67 22,21.33 33,32 0,53.67 0,107.33 0,161 -11,10.67 -22,21.33 -33,32 -1.77,11.35 3.69,25.69 -3,35 -9.67,9.67 -19.33,19.33 -29,29 9.52,0.67 25.5,-1.34 31,1 -10.33,10.33 -20.67,20.67 -31,31 0,21.67 0,43.33 0,65 10.67,21.33 21.33,42.67 32,64 0,21.33 0,42.67 0,64 9.82,0.69 26.3,-1.38 31.97,1.03 -10.66,10.66 -21.31,21.31 -31.97,31.97 11,10.67 22,21.33 33,32 -1.81,11.34 3.78,25.81 -3.09,35 -9.97,9.67 -19.94,19.33 -29.91,29 10.36,1.3 25.96,-2.63 33,2 2.04,11.04 -4.45,25.62 4,34 9.33,9.33 18.67,18.67 28,28 -10.67,10.67 -21.33,21.33 -32,32 32,21.67 64,43.33 96,65 0.68,-9.52 -1.36,-25.54 1.02,-31 10.89,10.48 21,21.95 32.45,31.74 20.84,10.42 41.69,20.83 62.53,31.26 1.81,11.32 -3.78,25.79 3.08,34.97 20.87,20.11 41.52,40.45 61.92,61.03 10.58,1.36 24.53,-2.71 33,2.03 10.33,20.99 20.67,41.98 31,62.97 9.52,0.67 25.5,-1.34 31,1 -10.33,10.33 -20.67,20.67 -31,31 21.33,21.33 42.67,42.67 64,64 -10.67,10.67 -21.33,21.33 -32,32 10.67,21.67 21.33,43.33 32,65 21.67,21.33 43.33,42.67 65,64 1.01,11.71 -2.11,24.34 1.73,35.46 10.09,20.18 20.18,40.36 30.27,60.54 -10.67,53.67 -21.33,107.33 -32,161 21.33,21.33 42.67,42.67 64,64 1.8,11.67 -3.72,26.37 3,36 9.67,9.67 19.33,19.33 29,29 -10.67,32 -21.33,64 -32,96 53.67,32.33 107.33,64.67 161,97 21.33,42.67 42.67,85.33 64,128 10.78,11.26 22.65,21.67 32.74,33.49 10.41,21.17 20.84,42.34 31.26,63.51 0,96.33 0,192.67 0,289 -160.67,0 -321.33,0 -482,0 -32,-10.67 -64,-21.33 -96,-32 -11,-21.33 -22,-42.67 -33,-64 -12.54,-1.29 -26.39,2.97 -37.91,-2.94 -40.7,-20.08 -81.04,-40.94 -121.44,-61.55 -11.87,-1.85 -24.46,1.22 -36.19,-1.68 -31.86,-10.3 -63.5,-21.38 -95.49,-31.17 -63.66,-10.55 -127.32,-21.1 -190.97,-31.66 -42.67,10.67 -85.33,21.33 -128,32 -11,10.67 -22,21.33 -33,32 -12.27,-0.84 -25.11,1.85 -36.99,-1.66 -30.33,-10.11 -60.67,-20.23 -91.01,-30.34 -32.33,10.67 -64.67,21.33 -97,32 -32,-21.33 -64,-42.67 -96,-64 -10.03,-1.3 -25.29,2.62 -32,-2 -0.67,-8.86 1.34,-24.17 -1,-29 -10.33,10.33 -20.67,20.67 -31,31 -11,-21.33 -22,-42.67 -33,-64 -1.3,10.03 2.62,25.29 -2,32 -9.37,-1.3 -23.95,2.62 -30,-2 -0.67,-8.86 1.34,-24.17 -1,-29 -10.33,10.33 -20.67,20.67 -31,31 -0.67,-9.52 1.34,-25.5 -1,-31 -10.33,10.33 -20.67,20.67 -31,31 -0.67,9.52 1.34,25.5 -1,31 -10.33,-10.33 -20.67,-20.67 -31,-31 -1.3,10.03 2.62,25.29 -2,32 -9.5,1.01 -23.03,-2.02 -30,1.52 0,31.82 0,63.65 0,95.48 -11.12,11.26 -23.32,21.64 -33.74,33.47 -10.42,20.84 -20.83,41.69 -31.26,62.53 -11.35,1.77 -25.69,-3.69 -35,3 -9.67,9.67 -19.33,19.33 -29,29 -21.44,-10.84 -43.07,-21.29 -64.38,-32.38 -10.54,-10.54 -21.08,-21.08 -31.62,-31.62 -11.67,-1.8 -26.37,3.72 -36,-3 -9.67,-9.67 -19.33,-19.33 -29,-29 -21.33,0 -42.67,0 -64,0 -21.33,-10.67 -42.67,-21.33 -64,-32 -21.67,0 -43.33,0 -65,0 0,-21.67 0,-43.33 0,-65 -11.35,1.77 -25.69,-3.69 -35,3 -9.67,9.67 -19.33,19.33 -29,29 -21.33,0 -42.67,0 -64,0 -1.01,-10.47 2.02,-23.85 -1.52,-32.5 -31.82,-10.5 -63.65,-21 -95.48,-31.5 -10.67,-21.33 -21.33,-42.67 -32,-64 -1.3,-10.03 2.62,-25.29 -2,-32 -20.67,0 -41.33,0 -62,0 -0.67,9.52 1.34,25.5 -1,31 -10.33,-10.33 -20.67,-20.67 -31,-31 -43,0 -86,0 -129,0 -1.94,10.6 3.93,26 -3.02,33.52 -20.44,10.3 -41.05,20.29 -61.36,30.86 -21.28,21.47 -42.83,42.66 -64.62,63.62 -10.67,21.67 -21.33,43.33 -32,65 -10.67,-21.67 -21.33,-43.33 -32,-65 -21.33,0 -42.67,0 -64,0 -1.3,-10.03 2.62,-25.29 -2,-32 -11.04,2.04 -25.62,-4.45 -34,4 -9.33,9.33 -18.67,18.67 -28,28 -11,-10.67 -22,-21.33 -33,-32 -15.38,0.3 -31.01,-1.36 -46.03,2.79 -48.99,9.74 -97.98,19.47 -146.97,29.21 -21.33,-21.33 -42.67,-42.67 -64,-64 -1.3,-10.03 2.62,-25.29 -2,-32 -8.86,-0.67 -24.17,1.34 -29,-1 10.33,-10.33 20.67,-20.67 31,-31 -21.33,0 -42.67,0 -64,0 -1.3,-10.36 2.63,-25.96 -2,-33 -9.37,-1.29 -23.95,2.61 -30,-2 0,-20.67 0,-41.33 0,-62 -11.67,1.8 -26.37,-3.72 -36,3 -9.67,9.67 -19.33,19.33 -29,29 0,-21.33 0,-42.67 0,-64 -10.67,-10.67 -21.33,-21.33 -32,-32 -10.03,-1.3 -25.29,2.62 -32,-2 -1.3,-9.37 2.62,-23.95 -2,-30 -9.36,-1.33 -24.06,2.69 -30,-2.06 -0.67,-9.14 1.34,-24.89 -1,-29.91 -10.33,10.66 -20.67,21.32 -31,31.97 -1.8,-11.67 3.72,-26.37 -3,-36 -9.67,-9.67 -19.33,-19.33 -29,-29 -21.67,10.67 -43.33,21.33 -65,32 0,-21.33 0,-42.67 0,-64 -9.52,0.67 -25.5,-1.34 -31,1 10.33,10.33 20.67,20.67 31,31 -10.59,-1.93 -25.99,3.91 -33.5,-3 -10.17,-20.33 -20.33,-40.67 -30.5,-61 -32,0 -64,0 -96,0 -1.01,10.16 2.02,24.36 -1.52,32 -31.82,0 -63.65,0 -95.48,0 -10.67,-10.67 -21.33,-21.33 -32,-32 -10.67,10.67 -21.33,21.33 -32,32 -10.03,1.3 -25.29,-2.62 -32,2 -0.69,8.85 1.38,24.21 -1.03,29 -10.66,-10.33 -21.32,-20.67 -31.97,-31 11,-21.33 22,-42.67 33,-64 -9.83,-0.67 -26.26,1.34 -31.97,-1 10.66,-10.33 21.32,-20.67 31.97,-31 -11,-21.67 -22,-43.33 -33,-65 0,-21.33 0,-42.67 0,-64 11.17,-21.44 21.97,-43.07 33.38,-64.38 10.54,-10.54 21.08,-21.08 31.62,-31.62 0,-21.67 0,-43.33 0,-65 42.67,-53.33 85.33,-106.67 128,-160 21.87,-42.9 43.54,-85.9 65,-129 1.01,-11.72 -2.11,-24.36 1.73,-35.49 20.75,-41.84 41.52,-83.67 62.27,-125.51 10.67,-10.67 21.33,-21.33 32,-32 1.94,-10.6 -3.93,-26 3.02,-33.52 20.44,-10.3 41.04,-20.3 61.36,-30.85 10.87,-10.55 21.75,-21.09 32.62,-31.63 0,-32.33 0,-64.67 0,-97 23.71,-11.47 46.82,-24.24 70.96,-34.77 51.34,-20.41 102.69,-40.82 154.04,-61.23 10.67,-10.67 21.33,-21.33 32,-32 85.67,0 171.33,0 257,0 21.33,-21.67 42.67,-43.33 64,-65 21.67,10.67 43.33,21.33 65,32 21.33,-10.67 42.67,-21.33 64,-32 10.67,0 21.33,0 32,0 32.33,-664.33 64.67,-1328.67 97,-1993 -21.67,-10.67 -43.33,-21.33 -65,-32 0,-21.67 0,-43.33 0,-65 -21.33,-10.67 -42.67,-21.33 -64,-32 -43,10.67 -86,21.33 -129,32 -21.33,21.67 -42.67,43.33 -64,65 -21.33,0 -42.67,0 -64,0 0,21.33 0,42.67 0,64 -11.09,11.56 -23.21,22.23 -33.61,34.39 -21.12,31.54 -42.26,63.07 -63.39,94.61 -32,0 -64,0 -96,0 -21.67,10.67 -43.33,21.33 -65,32 -10.67,32 -21.33,64 -32,96 -10.67,10.67 -21.33,21.33 -32,32 -10.67,32.33 -21.33,64.67 -32,97 10.67,32 21.33,64 32,96 -64.33,21.33 -128.67,42.67 -193,64 -10.8,11.58 -22.6,22.39 -32.74,34.48 -10.58,20.95 -20.8,42.08 -31.64,62.9 -99.28,99.08 -198.16,198.57 -297.71,297.38 -8.08,7.86 -16.03,15.87 -24.42,23.41 -31.83,10.95 -63.66,21.89 -95.49,32.83 -1.3,10.03 2.62,25.29 -2,32 -11.04,2.04 -25.62,-4.45 -34,4 -9.33,9.33 -18.67,18.67 -28,28 -11,-10.67 -22,-21.33 -33,-32 -15.02,0.52 -30.46,-1.85 -44.94,3.24 -38.35,9.59 -76.71,19.17 -115.06,28.76 -21.46,43.1 -43.13,86.1 -65,129 -10.03,1.3 -25.29,-2.62 -32,2 -0.67,8.86 1.34,24.17 -1,29 -10.33,-10.33 -20.67,-20.67 -31,-31 0,42.67 0,85.33 0,128 10.01,1.32 25.37,-2.66 31.98,2.03 -1.09,11.37 2.51,23.87 -2.2,34.48 -9.92,20.17 -19.85,40.33 -29.78,60.49 0,32 0,64 0,96 -32,32.33 -64,64.67 -96,97 -1.01,11.71 2.11,24.34 -1.73,35.46 -10.09,20.18 -20.18,40.36 -30.27,60.54 10.67,10.67 21.33,21.33 32,32 -10.67,10.67 -21.33,21.33 -32,32 -21.665,-10.67 -43.335,-21.33 -65,-32 -21.333,0 -42.667,0 -64,0 -10.665,10.67 -21.335,21.33 -32,32 0,-8.73 0,-27.91 0,-30 -0.669,8.86 1.337,24.17 -1,29 -10.332,-10.33 -20.668,-20.67 -31,-31 -21.665,10.67 -43.335,21.33 -65,32 -10.668,-21.33 -21.332,-42.67 -32,-64 -10.665,10.67 -21.335,21.33 -32,32 -10.665,-10.67 -21.335,-21.33 -32,-32 -21.667,0 -43.333,0 -65,0 -10.665,-10.67 -21.335,-21.33 -32,-32 -21.434,10.84 -43.071,21.29 -64.378,32.38 -10.544,10.54 -21.081,21.08 -31.622,31.62 -11.347,1.77 -25.69,-3.69 -35,3 -9.666,9.67 -19.335,19.33 -29,29 -21.667,0 -43.333,0 -65,0 -10.665,10.67 -21.335,21.33 -32,32 -21.333,0 -42.667,0 -64,0 -10.666,21.67 -21.334,43.33 -32,65 -21.767,10.84 -43.74,21.28 -65.378,32.38 -10.544,10.54 -21.081,21.08 -31.622,31.62 -32,0 -64,0 -96,0 -10.665,10.67 -21.335,21.33 -32,32 -53.667,0 -107.333,0 -161,0 -21.332,-10.67 -42.668,-21.33 -64,-32 -10.362,-1.3 -25.962,2.63 -33,-2 0,-10 0,-20 0,-30 -0.995,9.42 2.001,26.27 -1.516,30.99 -32.531,-21.38 -64.528,-43.65 -97.411,-64.46 -20.356,-10.18 -40.717,-20.35 -61.073,-30.53 10.667,-11 21.333,-22 32,-33 10.667,-32 21.333,-64 32,-96 -10.034,-1.3 -25.289,2.62 -32,-2 -1.295,-9.37 2.615,-23.95 -2,-30 -8.855,-0.67 -24.171,1.34 -29,-1 10.332,-10.33 20.668,-20.67 31,-31 -10.665,-10.67 -21.335,-21.33 -32,-32 0,-21.67 0,-43.33 0,-65 10.665,10.67 21.335,21.33 32,32 0,-21.33 0,-42.67 0,-64 -32.332,-10.67 -64.668,-21.33 -97,-32 -21.335,-21.33 -42.665,-42.67 -64,-64 -1.795,-11.67 3.72,-26.37 -3,-36 -9.666,-9.67 -19.335,-19.33 -29,-29 -10.665,10.67 -21.335,21.33 -32,32 -10.665,-10.67 -21.335,-21.33 -32,-32 -53.666,-10.67 -107.334,-21.33 -161,-32 -10.668,-21.33 -21.332,-42.67 -32,-64 -1.299,-10.03 2.621,-25.29 -2,-32 -9.275,-0.69 -22.95,1.37 -29.5,-1.02 10.499,-21.32 21.001,-42.65 31.5,-63.98 -10.034,-1.3 -25.289,2.62 -32,-2 -1.345,-9.37 2.722,-24.09 -2.09,-30.02 -11.66,-1.13 -24.477,2.56 -35.359,-2.21 -19.851,-9.92 -39.702,-19.84 -59.551,-29.77 -32,0 -64,0 -96,0 -10.998,-10.67 -22.002,-21.33 -33,-32 -11.997,1.56 -25.964,-3.39 -36.5,3 -30.501,20.33 -60.998,40.67 -91.5,61 -10.668,-21.33 -21.332,-42.67 -32,-64 -10.998,10.67 -22.002,21.33 -33,32 -1.933,-10.59 3.912,-25.99 -3,-33.5 -20.332,-10.17 -40.668,-20.33 -61,-30.5 -11.261,10.79 -21.678,22.64 -33.487,32.74 -42.684,21.12 -85.281,42.42 -128.021,63.43 -31.831,10.61 -63.661,21.22 -95.492,31.83 -21.332,-10.67 -42.668,-21.33 -64,-32 -11.259,10.79 -21.687,22.63 -33.485,32.75 -21.173,10.75 -42.343,21.5 -63.515,32.25 -10.034,1.3 -25.289,-2.62 -32,2 -0.678,9.27 1.351,22.95 -1.004,29.49 -21.104,-10.66 -42.403,-20.94 -63.369,-31.87 -10.539,-10.88 -21.083,-21.75 -31.627,-32.62 0,21.67 0,43.33 0,65 -21.665,10.67 -43.335,21.33 -65,32 -21.502,0.11 -43.007,-0.22 -64.508,0.17 -32.165,10.61 -64.328,21.22 -96.492,31.83 -10.668,21.33 -21.332,42.67 -32,64 -1.004,11.73 2.097,24.36 -1.725,35.51 -10.091,20.49 -20.185,40.99 -30.275,61.49 9.522,0.67 25.504,-1.34 31,1 -10.332,10.33 -20.668,20.67 -31,31 -1,10.17 2.001,24.33 -1.5,32 -31.5,0 -63,0 -94.5,0 -21.668,21.33 -43.332,42.67 -65,64 -11.341,1.79 -25.749,-3.74 -35,3.05 -20.332,20.65 -40.668,41.3 -61,61.95 -10.034,1.3 -25.287,-2.62 -32,2 0,20.67 0,41.33 0,62 -32.332,10.67 -64.668,21.33 -97,32 -11.709,1.01 -24.338,-2.11 -35.457,1.73 -20.181,10.09 -40.363,20.18 -60.543,30.27 -32.332,-10.67 -64.668,-21.33 -97,-32 -21.332,10.67 -42.668,21.33 -64,32 -10.668,-21.33 -21.332,-42.67 -32,-64 -64.333,0 -128.667,0 -193,0 -10.665,10.67 -21.335,21.33 -32,32 -21.333,0 -42.667,0 -64,0 -0.689,9.52 1.378,25.55 -1.031,31 -10.655,-10.33 -21.314,-20.67 -31.969,-31 -10.668,21.33 -21.332,42.67 -32,64 -10.665,-10.67 -21.335,-21.33 -32,-32 -10.666,21.67 -21.334,43.33 -32,65 -0.68,9.52 1.359,25.54 -1.017,31 -10.896,-10.49 -21.025,-21.94 -32.452,-31.76 -20.846,-10.74 -41.688,-21.49 -62.531,-32.24 -0.69,9.82 1.379,26.3 -1.031,31.97 -10.657,-10.66 -21.313,-21.31 -31.969,-31.97 -1.304,10.36 2.628,25.96 -2,33 -9.371,1.3 -23.95,-2.62 -30,2 0,10 0,20 0,30 -0.669,-9.52 1.337,-25.5 -1,-31 -10.332,10.33 -20.668,20.67 -31,31 -21.333,0 -42.667,0 -64,0 0,-8.73 0,-27.91 0,-30 -1.01,9.5 2.02,23.03 -1.516,30 -31.828,0 -63.656,0 -95.484,0 -21.595,-21.41 -42.924,-43.08 -64,-65 -0.67,9.83 1.337,26.26 -1,31.97 -10.333,-10.66 -20.667,-21.31 -31,-31.97 -10.667,11 -21.333,22 -32,33 -10.667,-11 -21.333,-22 -32,-33 -0.69,9.82 1.379,26.3 -1.031,31.97 -10.657,-10.66 -21.313,-21.31 -31.969,-31.97 -10.844,21.77 -21.276,43.74 -32.378,65.38 -21.209,21.21 -42.417,42.41 -63.622,63.62 -21.332,-10.67 -42.668,-21.33 -64,-32 -1.01,-10.16 2.021,-24.36 -1.516,-32 -31.828,0 -63.656,0 -95.484,0 -10.665,-10.67 -21.335,-21.33 -32,-32 -1.299,10.03 2.621,25.29 -2,32 -8.855,-0.67 -24.171,1.34 -29,-1 10.332,-10.33 20.668,-20.67 31,-31 -10.019,-1.33 -25.404,2.7 -32,-2.06 -2.081,-11.34 4.52,-26.27 -4,-34.94 -9.333,-9.33 -18.668,-18.67 -28,-28 -21.665,10.67 -43.335,21.33 -65,32 -1.299,-10.03 2.621,-25.29 -2,-32 -9.371,-1.3 -23.95,2.62 -30,-2 -1,-9.5 2,-23 -1.5,-30 -31.5,0 -63,0 -94.5,0 0.669,-9.52 -1.337,-25.5 1,-31 10.332,10.33 20.668,20.67 31,31 -1.933,-10.59 3.912,-25.99 -3,-33.5 -20.332,-10.17 -40.668,-20.33 -61,-30.5 -1.335,-10.02 2.696,-25.4 -2.062,-32 -9.679,1.3 -24.583,-2.62 -30.938,2 -0.669,8.86 1.337,24.17 -1,29 -10.332,-10.33 -20.668,-20.67 -31,-31 -0.669,9.52 1.337,25.5 -1,31 -10.332,-10.33 -20.668,-20.67 -31,-31 10.665,-10.67 21.335,-21.33 32,-32 -10.665,10.67 -21.335,21.33 -32,32 0,-21.67 0,-43.33 0,-65 -10.034,-1.3 -25.289,2.62 -32,-2 -1.295,-9.37 2.615,-23.95 -2,-30 -11.043,-2.04 -25.617,4.45 -34,-4 -9.333,-9.33 -18.668,-18.67 -28,-28 10.665,-10.67 21.335,-21.33 32,-32 -10.665,-10.67 -21.335,-21.33 -32,-32 -1.317,10.03 2.659,25.35 -2.031,32 -20.99,0 -41.979,0 -62.969,0 -0.669,-9.52 1.337,-25.5 -1,-31 -10.332,10.33 -20.668,20.67 -31,31 10.665,-10.67 21.335,-21.33 32,-32 -21.332,-10.67 -42.668,-21.33 -64,-32 10.667,-11 21.333,-22 32,-33 -12.268,0.88 -25.135,-1.9 -36.982,1.71 -30.338,10.43 -60.678,20.86 -91.018,31.29 -11,-11 -22,-22 -33,-33 -10.667,11 -21.333,22 -32,33 10.034,1.3 25.289,-2.62 32,2 -0.676,9.28 1.345,22.92 -1,29.5 -20.999,-10.5 -42.001,-21 -63,-31.5 0,-11 0,-22 0,-33 -1.304,10.36 2.628,25.96 -2,33 -20.667,0 -41.333,0 -62,0 0,-32.33 0,-64.67 0,-97 -11.73,-1.01 -24.384,2.12 -35.52,-1.75 -20.613,-10.22 -41.387,-20.12 -61.858,-30.63 -10.544,-10.54 -21.081,-21.08 -31.622,-31.62 -10.665,10.67 -21.335,21.33 -32,32 -10.034,-1.3 -25.289,2.62 -32,-2 -1.915,-9.93 3.888,-24.64 -3,-31.5 -20.332,-10.17 -40.668,-20.33 -61,-30.5 -21.665,10.67 -43.335,21.33 -65,32 -10.665,-10.67 -21.335,-21.33 -32,-32 -42.667,0 -85.333,0 -128,0 -1.335,-10.02 2.696,-25.4 -2.062,-32 -9.665,-1.34 -24.698,2.7 -30.938,-2.06 -2.156,-12.25 5.347,-28.5 -6,-36.94 -30,-30 -60,-60 -90,-90 -10.665,10.67 -21.335,21.33 -32,32 -11.347,1.77 -25.69,-3.69 -35,3 -9.666,9.67 -19.335,19.33 -29,29 -0.689,-9.52 1.378,-25.55 -1.031,-31 -10.655,10.33 -21.314,20.67 -31.969,31 -1.299,-10.03 2.621,-25.29 -2,-32 -20.667,0 -41.333,0 -62,0 0,-21.33 0,-42.67 0,-64 -21.333,0 -42.667,0 -64,0 -10.665,-10.67 -21.335,-21.33 -32,-32 -1.362,-10.91 2.72,-25.2 -2.031,-34 -20.989,-10.34 -41.981,-20.66 -62.969,-31 9.523,-0.67 25.503,1.34 31,-1 -21.001,-21 -41.998,-42 -63,-63 -0.669,9.52 1.337,25.5 -1,31 -10.332,-10.33 -20.668,-20.67 -31,-31 -10.166,-1 -24.334,2 -32,-1.5 0,-31.5 0,-63 0,-94.5 -10.034,1.3 -25.289,-2.62 -32,2 -0.69,8.85 1.378,24.21 -1.031,29 -10.655,-10.33 -21.314,-20.67 -31.969,-31 0,-21.67 0,-43.33 0,-65 9.826,-0.67 26.258,1.34 31.969,-1 -10.655,-10.33 -21.314,-20.67 -31.969,-31 9.826,-0.67 26.258,1.34 31.969,-1 -10.655,-10.33 -21.314,-20.67 -31.969,-31 11.001,-21.33 21.999,-42.67 33,-64 -9.82,-0.69 -26.3,1.38 -31.969,-1.03 10.656,-10.66 21.313,-21.31 31.969,-31.97 -21.667,11 -43.333,22 -65,33 -31.445,-32.88 -63.874,-64.79 -96,-97 0,21.33 0,42.67 0,64 -32.056,-32.28 -64.607,-64.06 -97,-96 -10.668,-21.33 -21.332,-42.67 -32,-64 0,32 0,64 0,96 -21.332,-10.67 -42.668,-21.33 -64,-32 0,-21.33 0,-42.67 0,-64 -21.335,21.33 -42.665,42.67 -64,64 -10.668,-21.33 -21.332,-42.67 -32,-64 -11.001,21.33 -21.999,42.67 -33,64 -10.668,-21.33 -21.332,-42.67 -32,-64 -21.335,21.33 -42.665,42.67 -64,64 -10.668,-21.33 -21.332,-42.67 -32,-64 -21.668,21.33 -43.332,42.67 -65,64 -10.668,-21.33 -21.332,-42.67 -32,-64 -11.347,-1.77 -25.69,3.69 -35,-3 -9.666,-9.67 -19.335,-19.33 -29,-29 -11.335,-1.81 -25.808,3.78 -35,-3.09 -9.667,-9.97 -19.333,-19.94 -29,-29.91 -11.658,1.84 -26.49,-3.82 -36,3.09 -9.667,9.97 -19.333,19.94 -29,29.91 -10.666,-21.67 -21.334,-43.33 -32,-65 -10.665,10.67 -21.335,21.33 -32,32 0,11 0,22 0,33 -32.002,-32.33 -63.998,-64.67 -96,-97 10.668,-21.33 21.332,-42.67 32,-64 -32.333,0 -64.667,0 -97,0 -10.665,10.67 -21.335,21.33 -32,32 -10.665,-10.67 -21.335,-21.33 -32,-32 10.665,-10.67 21.335,-21.33 32,-32 -11.347,1.77 -25.69,-3.69 -35,3 -9.666,9.67 -19.335,19.33 -29,29 -10.783,-11.26 -22.648,-21.67 -32.732,-33.49 -10.422,-21.17 -20.847,-42.34 -31.268,-63.51 -11,11 -22,22 -33,33 -21.335,-32.33 -42.665,-64.67 -64,-97 -10.665,10.67 -21.335,21.33 -32,32 10.665,10.67 21.335,21.33 32,32 -21.333,11 -42.667,22 -64,33 -10.667,-11 -21.333,-22 -32,-33 10.665,-10.67 21.335,-21.33 32,-32 -21.665,10.67 -43.335,21.33 -65,32 1.335,-10.02 -2.696,-25.4 2.062,-32 11.337,-2.08 26.27,4.52 34.938,-4 9.333,-9.33 18.668,-18.67 28,-28 -43,0 -86,0 -129,0 -21.332,-10.67 -42.668,-21.33 -64,-32 0,21.33 0,42.67 0,64 -21.665,10.67 -43.335,21.33 -65,32 -21.333,-32 -42.667,-64 -64,-96 10.665,-10.67 21.335,-21.33 32,-32 -42.667,0 -85.333,0 -128,0 -10.665,-10.67 -21.335,-21.33 -32,-32 -11.001,21.33 -21.999,42.67 -33,64 0,-32.33 0,-64.67 0,-97 -11.335,1.81 -25.808,-3.78 -35,3.09 -9.667,9.97 -19.333,19.94 -29,29.91 0,-21.67 0,-43.33 0,-65 -10.665,10.67 -21.335,21.33 -32,32 0,-42.67 0,-85.33 0,-128 -10.665,10.67 -21.335,21.33 -32,32 0,-21.33 0,-42.67 0,-64 21.333,0 42.667,0 64,0 -21.331,-21.67 -42.669,-43.33 -64,-65 -21.435,-10.84 -43.072,-21.29 -64.381,-32.38 -21.544,-21.2 -43.081,-42.41 -64.619,-63.62 -9.948,0.67 -24.253,-1.34 -31.5,1 10.501,21 20.998,42 31.5,63 -10.59,-1.93 -25.987,3.91 -33.5,-3 -10.168,-20.33 -20.332,-40.67 -30.5,-61 -21.333,0 -42.667,0 -64,0 -21.665,10.67 -43.335,21.33 -65,32 -31.999,-10.67 -64.001,-21.33 -96,-32 -10.665,-10.67 -21.335,-21.33 -32,-32 -10.998,10.67 -22.002,21.33 -33,32 -11.347,1.77 -25.69,-3.69 -35,3 -9.666,9.67 -19.335,19.33 -29,29 -10.034,1.3 -25.287,-2.62 -32,2 0,20.67 0,41.33 0,62 -10.665,-10.67 -21.335,-21.33 -32,-32 -11.727,1 -24.358,-2.1 -35.505,1.73 -20.502,10.08 -40.998,20.18 -61.495,30.27 -10.665,-10.67 -21.335,-21.33 -32,-32 -10.665,10.67 -21.335,21.33 -32,32 -10.665,-10.67 -21.335,-21.33 -32,-32 0,43 0,86 0,129 -21.332,-10.67 -42.668,-21.33 -64,-32 -10.665,10.67 -21.335,21.33 -32,32 -10.268,0.67 -24.956,-1.34 -32.484,1 10.829,21 21.655,42 32.484,63 -21.665,-10.67 -43.335,-21.33 -65,-32 -1.299,10.03 2.621,25.29 -2,32 -20.667,0 -41.333,0 -62,0 -10.665,-10.67 -21.335,-21.33 -32,-32 -21.333,0 -42.667,0 -64,0 0,21.33 0,42.67 0,64 -10.998,-10.67 -22.002,-21.33 -33,-32 1.032,11.72 -2.159,24.4 1.778,35.5 10.409,20.5 20.816,41 31.222,61.5 -21.667,-11 -43.333,-22 -65,-33 -10.667,11 -21.333,22 -32,33 9.166,0 26.335,0 30.5,0 -31.5,0 -63,0 -94.5,0 1.771,11.35 -3.687,25.69 3,35 9.666,9.67 19.335,19.33 29,29 -10.668,21.33 -21.332,42.67 -32,64 -11.39,1.76 -25.694,-3.67 -35.094,3 -9.968,9.67 -19.939,19.33 -29.906,29 -10.665,-10.67 -21.335,-21.33 -32,-32 -11.347,1.77 -25.69,-3.69 -35,3 -9.666,9.67 -19.335,19.33 -29,29 -1.304,10.36 2.628,25.96 -2,33 -20.667,0 -41.333,0 -62,0 -0.679,9.51 1.357,25.57 -1.016,30.98 -21.326,-21.33 -42.657,-42.65 -63.984,-63.98 0.669,-9.52 -1.337,-25.5 1,-31 10.332,10.33 20.668,20.67 31,31 -1.933,-10.59 3.912,-25.99 -3,-33.5 -20.332,-10.17 -40.668,-20.33 -61,-30.5 -1.299,10.03 2.621,25.29 -2,32 -9.371,1.3 -23.95,-2.62 -30,2 -0.996,9.82 1.995,22.48 -1.5,30.52 -31.5,10.82 -63,21.65 -94.5,32.48 -1.038,11.7 2.168,24.38 -1.781,35.46 -10.408,20.18 -20.811,40.36 -31.219,60.54 -21.333,0 -42.667,0 -64,0 -10.668,21.33 -21.332,42.67 -32,64 -10.665,-10.67 -21.335,-21.33 -32,-32 -21.434,10.84 -43.071,21.29 -64.378,32.38 -21.544,21.54 -43.081,43.08 -64.622,64.62 -10.667,-11 -21.333,-22 -32,-33 0,-21.33 0,-42.67 0,-64 -21.332,10.67 -42.668,21.33 -64,32 0,-21.33 0,-42.67 0,-64 -10.034,1.3 -25.289,-2.62 -32,2 0,10 0,20 0,30 -32.335,-21.33 -64.665,-42.67 -97,-64 -10.034,-1.3 -25.287,2.62 -32,-2 0,-20.67 0,-41.33 0,-62 -10.668,21.33 -21.332,42.67 -32,64 -10.665,-10.67 -21.335,-21.33 -32,-32 10.668,21.33 21.332,42.67 32,64 -10.034,1.3 -25.289,-2.62 -32,2 -1.33,9.36 2.689,24.06 -2.062,30 -11.337,2.08 -26.27,-4.52 -34.938,4 -9.333,9.33 -18.668,18.67 -28,28 -10.665,-10.67 -21.335,-21.33 -32,-32 -32.002,21.33 -63.998,42.67 -96,64 -32.332,-10.67 -64.668,-21.33 -97,-32 -9.943,0.69 -24.281,-1.36 -31.5,1.02 10.499,21.32 21.001,42.65 31.5,63.98 -64.333,0 -128.667,0 -193,0 -1.304,-10.36 2.628,-25.96 -2,-33 -20.667,0 -41.333,0 -62,0 -0.678,10.26 1.35,24.98 -1.005,32.48 -21.105,-10.99 -42.396,-21.62 -63.373,-32.86 -10.544,-10.54 -21.081,-21.08 -31.622,-31.62 1.759,11.39 -3.67,25.69 3,35.09 9.667,9.97 19.333,19.94 29,29.91 -10.665,10.67 -21.335,21.33 -32,32 -10.999,-21.67 -22.001,-43.33 -33,-65 -9.516,0.69 -25.546,-1.38 -31,1.03 10.333,10.66 20.667,21.31 31,31.97 -10.665,10.67 -21.335,21.33 -32,32 -21.332,-10.67 -42.668,-21.33 -64,-32 -1.795,-11.67 3.72,-26.37 -3,-36 -9.666,-9.67 -19.335,-19.33 -29,-29 -21.665,10.67 -43.335,21.33 -65,32 10.998,-10.67 22.002,-21.33 33,-32 -43,0 -86,0 -129,0 -10.665,-10.67 -21.335,-21.33 -32,-32 -21.333,0 -42.667,0 -64,0 0,21.33 0,42.67 0,64 -32.333,0 -64.667,0 -97,0 0,21.67 0,43.33 0,65 -21.332,10.67 -42.668,21.33 -64,32 10.665,10.67 21.335,21.33 32,32 -1.797,10.91 3.726,25.74 -3.01,34.01 -31.111,20.81 -62.358,41.41 -93.368,62.37 -10.879,10.87 -21.746,21.75 -32.622,32.62 11.001,21.33 21.999,42.67 33,64 -12.04,-1.02 -25.007,2.12 -36.457,-1.73 -20.181,-10.09 -40.363,-20.18 -60.543,-30.27 -42.999,10.67 -86.001,21.33 -129,32 0,32 0,64 0,96 -21.333,11 -42.667,22 -64,33 21.332,10.67 42.668,21.33 64,32 11.671,1.8 26.37,-3.72 36,3 9.666,9.67 19.335,19.33 29,29 -10.665,10.67 -21.335,21.33 -32,32 -11.671,1.8 -26.37,-3.72 -36,3 -9.666,9.67 -19.335,19.33 -29,29 21.665,10.67 43.335,21.33 65,32 -1.801,11.38 3.767,25.81 -3.094,35.09 -9.969,9.97 -19.937,19.94 -29.906,29.91 -21.333,0 -42.667,0 -64,0 -10.665,10.67 -21.335,21.33 -32,32 10.668,21.33 21.332,42.67 32,64 -10.665,10.67 -21.335,21.33 -32,32 -10.665,-10.67 -21.335,-21.33 -32,-32 -10.668,21.33 -21.332,42.67 -32,64 10.667,11 21.333,22 32,33 -10.668,21.33 -21.332,42.67 -32,64 -10.484,1 -23.815,-2 -32.516,1.5 -10.828,31.5 -21.656,63 -32.484,94.5 -21.332,10.67 -42.668,21.33 -64,32 -21.332,-10.67 -42.668,-21.33 -64,-32 -22.539,10.86 -44.733,22.5 -67.496,32.86 -31.169,10.71 -62.335,21.43 -93.504,32.14 -21.333,32 -42.667,64 -64,96 -21.667,0 -43.333,0 -65,0 -10.668,21.33 -21.332,42.67 -32,64 -9.943,0.69 -24.281,-1.36 -31.5,1.02 10.499,21.32 21.001,42.65 31.5,63.98 -10.665,10.67 -21.335,21.33 -32,32 1.771,11.35 -3.687,25.69 3,35 9.666,9.67 19.335,19.33 29,29 21.665,-10.67 43.335,-21.33 65,-32 -1.407,11.46 2.884,24.82 -2.273,35.02 -31.576,42 -63.152,83.99 -94.727,125.98 -10.667,32 -21.333,64 -32,96 -21.331,21.67 -42.669,43.33 -64,65 -21.667,0 -43.333,0 -65,0 -10.668,21.33 -21.332,42.67 -32,64 -1.299,10.03 2.621,25.29 -2,32 -20.667,0 -41.333,0 -62,0 -10.668,64.33 -21.332,128.67 -32,193 -11.39,-1.76 -25.694,3.67 -35.094,-3 -9.968,-9.67 -19.939,-19.33 -29.906,-29 -10.665,10.67 -21.335,21.33 -32,32 -21.333,0 -42.667,0 -64,0 -10.668,21.33 -21.332,42.67 -32,64 -21.665,10.67 -43.335,21.33 -65,32 0,32.33 0,64.67 0,97 -32,0 -64,0 -96,0 -0.68,9.95 1.354,24.27 -1.008,31.5 -42.665,-21.16 -85.327,-42.34 -127.992,-63.5 -21.335,21.33 -42.665,42.67 -64,64 -32,0 -64,0 -96,0 -32.332,10.67 -64.668,21.33 -97,32 -42.667,0 -85.333,0 -128,0 -0.689,9.52 1.378,25.55 -1.031,31 -10.655,-10.33 -21.314,-20.67 -31.969,-31 -21.335,21.33 -42.665,42.67 -64,64 -10.665,-10.67 -21.335,-21.33 -32,-32 10.666,21.67 21.334,43.33 32,65 21.333,0 42.667,0 64,0 -1,10.17 2.001,24.33 -1.5,32 -31.5,0 -63,0 -94.5,0 -21.332,10.67 -42.668,21.33 -64,32 -32.332,-10.67 -64.668,-21.33 -97,-32 0,21.33 0,42.67 0,64 -10.665,-10.67 -21.335,-21.33 -32,-32 10.665,-10.67 21.335,-21.33 32,-32 -11.347,1.77 -25.69,-3.69 -35,3 -9.666,9.67 -19.335,19.33 -29,29 -10.665,-10.67 -21.335,-21.33 -32,-32 -11.262,10.78 -21.671,22.65 -33.488,32.74 -21.175,10.41 -42.343,20.84 -63.512,31.26 -1.299,10.03 2.621,25.29 -2,32 -20.667,0 -41.333,0 -62,0 -0.669,9.52 1.337,25.5 -1,31 -10.332,-10.33 -20.668,-20.67 -31,-31 -10.665,10.67 -21.335,21.33 -32,32 -21.917,-21.08 -43.596,-42.4 -65,-64 -10.904,1.81 -25.772,-3.75 -34,3.03 -20.668,31.32 -41.332,62.65 -62,93.97 -21.333,-11 -42.667,-22 -64,-33 -1.839,11.66 3.819,26.49 -3.094,36 -9.968,9.67 -19.939,19.33 -29.906,29 -0.675,9.95 1.344,24.25 -1,31.5 -20.999,-10.5 -42.001,-21 -63,-31.5 -21.333,32 -42.667,64 -64,96 -21.333,0 -42.667,0 -64,0 10.668,32.33 21.332,64.67 32,97 -10.668,21.33 -21.332,42.67 -32,64 -21.665,-10.67 -43.335,-21.33 -65,-32 -21.335,-32.33 -42.665,-64.67 -64,-97 0,-32 0,-64 0,-96 -53.666,10.67 -107.334,21.33 -161,32 -43.001,-21.33 -85.999,-42.67 -129,-64 10.999,-21.67 22.001,-43.33 33,-65 -32.439,-21.49 -65.039,-42.74 -97.378,-64.38 -10.544,-10.54 -21.081,-21.08 -31.622,-31.62 -21.333,0 -42.667,0 -64,0 -10.668,-32.33 -21.332,-64.67 -32,-97 -43,11 -86,22 -129,33 -0.861,-12.6 1.869,-25.78 -1.661,-37.99 -10.111,-30.33 -20.226,-60.67 -30.339,-91.01 11.347,-1.77 25.69,3.69 35,-3 9.666,-9.67 19.335,-19.33 29,-29 -21.332,-10.67 -42.668,-21.33 -64,-32 -10.666,-21.67 -21.334,-43.33 -32,-65 9.516,-0.68 25.538,1.36 30.996,-1.02 -10.476,-10.89 -21.95,-21.01 -31.739,-32.46 -10.584,-20.95 -20.789,-42.09 -31.638,-62.9 -21.544,-21.2 -43.081,-42.41 -64.619,-63.62 -10.034,1.3 -25.289,-2.62 -32,2 -0.996,9.81 1.995,22.49 -1.5,30.5 -31.499,10.5 -63.001,21 -94.5,31.5 -1.335,-10.02 2.696,-25.4 -2.062,-32 -9.679,-1.3 -24.583,2.62 -30.938,-2 -1.911,-9.96 3.882,-24.62 -3,-31.55 -20.333,-10.48 -40.667,-20.97 -61,-31.45 10.665,-10.67 21.335,-21.33 32,-32 0,-32 0,-64 0,-96 21.404,-21.6 43.083,-42.92 65,-64 -10.347,-1.34 -26.078,2.7 -33,-2.06 -2.081,-11.34 4.52,-26.27 -4,-34.94 -9.333,-9.33 -18.668,-18.67 -28,-28 0,-32 0,-64 0,-96 -10.027,-1.32 -25.347,2.66 -32,-2.03 0,-20.99 0,-41.98 0,-62.97 -10.34,-1.3 -24.766,2.62 -32.498,-2.01 -10.469,-42.18 -21.25,-84.29 -31.502,-126.53 0,-42.82 0,-85.64 0,-128.46 -21.665,-10.67 -43.335,-21.33 -65,-32 0,-43 0,-86 0,-129 -21.335,-21.33 -42.665,-42.67 -64,-64 -21.332,10.67 -42.668,21.33 -64,32 -21.333,43 -42.667,86 -64,129 -203.668,-182.33 -407.332,-364.67 -611,-547 -149.998,96.67 -300.002,193.33 -450,290 -32.332,10.67 -64.668,21.33 -97,32 0,-21.33 0,-42.67 0,-64 -10.665,10.67 -21.335,21.33 -32,32 -10.665,-10.67 -21.335,-21.33 -32,-32 -11.379,-1.8 -25.81,3.77 -35.094,-3.09 -9.969,-9.97 -19.937,-19.94 -29.906,-29.91 -11.709,-1.01 -24.338,2.11 -35.457,-1.73 -20.181,-10.09 -40.363,-20.18 -60.543,-30.27 0,-42.67 0,-85.33 0,-128 -21.331,-21.67 -42.669,-43.33 -64,-65 -21.667,0 -43.333,0 -65,0 -21.331,21.67 -42.669,43.33 -64,65 -53.666,-21.67 -107.334,-43.33 -161,-65 0,-53.33 0,-106.67 0,-160 -10.667,-11 -21.333,-22 -32,-33 -21.333,11 -42.667,22 -64,33 -21.076,-21.92 -42.405,-43.59 -64,-65 10.667,-32 21.333,-64 32,-96 -53.666,10.67 -107.334,21.33 -161,32 -31.999,-10.67 -64.001,-21.33 -96,-32 10.666,-21.67 21.334,-43.33 32,-65 -10.668,-21.33 -21.332,-42.67 -32,-64 -43,0 -86,0 -129,0 -1.299,-10.03 2.621,-25.29 -2,-32 -20.667,0 -41.333,0 -62,0 -0.685,9.94 1.365,24.28 -1.016,31.5 -21.327,-10.5 -42.657,-21 -63.984,-31.5 -1.299,-10.03 2.621,-25.29 -2,-32 -9.372,-1.29 -23.948,2.62 -30,-2 0,-20.67 0,-41.33 0,-62 -21.333,-11 -42.667,-22 -64,-33 0,-42.67 0,-85.33 0,-128 -21.665,10.67 -43.335,21.33 -65,32 -10.665,-10.67 -21.335,-21.33 -32,-32 1.771,-11.35 -3.687,-25.69 3,-35 9.666,-9.67 19.335,-19.33 29,-29 -21.333,-11 -42.667,-22 -64,-33 -1.939,-10.6 3.926,-26 -3.015,-33.52 -20.446,-10.3 -41.055,-20.29 -61.363,-30.86 -10.544,-10.54 -21.081,-21.08 -31.622,-31.62 10.665,-10.67 21.335,-21.33 32,-32 -32.332,-21.67 -64.668,-43.33 -97,-65 -1.299,-10.03 2.621,-25.29 -2,-32 -11.076,-2.48 -27.933,5.84 -34,-6 -20,-30 -40,-60 -60,-90 -10.034,-1.3 -25.287,2.62 -32,-2 0,-20.67 0,-41.33 0,-62 -12.013,-1.57 -26.024,3.42 -36.547,-3.05 -30.816,-20.65 -61.637,-41.3 -92.453,-61.95 -10.667,-85.67 -21.333,-171.33 -32,-257 21.333,-32 42.667,-64 64,-96 -10.667,-11 -21.333,-22 -32,-33 -12.268,0.88 -25.135,-1.9 -36.982,1.71 -30.338,10.43 -60.678,20.86 -91.018,31.29 -10.359,-1.31 -25.99,2.65 -33,-2.02 0,-42.32 0,-84.65 0,-126.98 -10.03,-1.31 -25.317,2.64 -32,-2.02 0,-42.32 0,-84.65 0,-126.98 21.668,-21.33 43.332,-42.67 65,-64 -21.667,0 -43.333,0 -65,0 0,-21.33 0,-42.67 0,-64 21.667,0 43.333,0 65,0 -1.317,-10.03 2.659,-25.35 -2.031,-32 -20.99,0 -41.979,0 -62.969,0 0,-32.33 0,-64.67 0,-97 10.799,-11.25 22.61,-21.7 32.757,-33.47 10.75,-20.84 21.494,-41.69 32.243,-62.53 -21.667,0 -43.333,0 -65,0 -21.331,-21.67 -42.669,-43.33 -64,-65 -1.299,-10.03 2.621,-25.29 -2,-32 -20.667,0 -41.333,0 -62,0 0,-21.33 0,-42.67 0,-64 10.668,-21.33 21.332,-42.67 32,-64 -10.667,-11 -21.333,-22 -32,-33 -11,11 -22,22 -33,33 -10.667,-11 -21.333,-22 -32,-33 10.668,-21.33 21.332,-42.67 32,-64 -10.665,-10.67 -21.335,-21.33 -32,-32 10.795,-11.26 22.635,-21.69 32.754,-33.49 10.75,-21.17 21.499,-42.34 32.246,-63.51 -11,0 -22,0 -33,0 10.999,-42.67 22.001,-85.33 33,-128 -9.826,-0.67 -26.258,1.34 -31.969,-1 10.655,-10.33 21.314,-20.67 31.969,-31 -10.998,-10.67 -22.002,-21.33 -33,-32 11,-11 22,-22 33,-33 -9.826,-0.67 -26.258,1.34 -31.969,-1 10.655,-10.33 21.314,-20.67 31.969,-31 -21.667,-32 -43.333,-64 -65,-96 0,-53.67 0,-107.33 0,-161 21.667,0 43.333,0 65,0 -0.115,-21.5 0.23,-43.01 -0.172,-64.51 -11.557,-33.09 -22.052,-66.6 -34.292,-99.42 -10.182,-20.35 -20.356,-40.71 -30.536,-61.07 10.626,-43.19 21.583,-86.3 32,-129.54 0.273,-22 -0.558,-44.06 0.436,-66.02 10.83,-63.67 21.887,-127.29 32.564,-190.98 0,-21.15 0,-42.31 0,-63.46 42.666,-96.67 85.334,-193.33 128,-290 10.799,-11.25 22.61,-21.7 32.757,-33.47 10.75,-20.84 21.494,-41.69 32.243,-62.53 42.668,-21.33 85.332,-42.67 128,-64 10.668,-32.33 21.332,-64.67 32,-97 43.001,-21.33 85.999,-42.67 129,-64 21.335,-21.33 42.665,-42.67 64,-64 21.667,-43 43.333,-86 65,-129 0,-21.33 0,-42.67 0,-64 -22.045,-33.38 -45.013,-66.2 -66.472,-99.94 -20.847,-41.69 -41.686,-83.37 -62.528,-125.06 21.332,-53.67 42.668,-107.33 64,-161 1.759,-11.39 -3.67,-25.69 3,-35.09 9.667,-9.97 19.333,-19.94 29,-29.91 11,11 22,22 33,33 11.565,-11.41 22.151,-23.91 34.377,-34.58 31.208,-20.81 62.417,-41.61 93.623,-62.42 -10.665,-10.67 -21.335,-21.33 -32,-32 10.633,-53.85 21.539,-107.65 32,-161.54 0,-31.82 0,-63.64 0,-95.46 -21.335,-32.33 -42.665,-64.67 -64,-97 0,-42.67 0,-85.33 0,-128 -32.332,10.67 -64.668,21.33 -97,32 -42.667,0 -85.333,0 -128,0 -32.335,-21.33 -64.665,-42.67 -97,-64 -10.668,64.33 -21.332,128.67 -32,193 -21.335,21.33 -42.665,42.67 -64,64 -43.001,21.33 -85.999,42.67 -129,64 -557.869,-32.01 -1115.733,-64.1 -1673.604,-96.06 -1082.156,-42.98 -2164.309,-86.02 -3246.466,-128.96 -1103.643,-21.33 -2207.287,-42.65 -3310.93,-63.98 -54.4,-631.39 -109.224,-1262.75 -163.355,-1894.17 -52.879,-654.94 -105.763,-1309.89 -158.645,-1964.83 -514.333,-600 -1028.667,-1200 -1543,-1800 96.847,-10.65 193.677,-21.45 290.535,-32 406.822,0 813.643,0 1220.465,0 -42.667,-782.67 -85.333,-1565.331 -128,-2347.998 -32.333,11 -64.667,22 -97,33 -42.667,-21.667 -85.333,-43.333 -128,-65 -10.667,-53.333 -21.333,-106.667 -32,-160 -11,-21.667 -22,-43.333 -33,-65 10.268,-0.675 24.956,1.344 32.484,-1 -10.828,-21 -21.656,-42 -32.484,-63 0,-21.333 0,-42.667 0,-64 -10.667,-11 -21.333,-22 -32,-33 9.523,-0.669 25.503,1.337 31,-1 -10.333,-10.333 -20.667,-20.667 -31,-31 0,-21.333 0,-42.667 0,-64 -10.667,-10.667 -21.333,-21.333 -32,-32 0,-21.667 0,-43.333 0,-65 -32,-10.667 -64,-21.333 -96,-32 0.669,-9.523 -1.337,-25.503 1,-31 10.333,10.333 20.667,20.667 31,31 0,-21.333 0,-42.667 0,-64 -32.333,-21.333 -64.667,-42.667 -97,-64 10.667,-10.667 21.333,-21.333 32,-32 -10.027,-1.317 -25.346,2.659 -32,-2.031 0,-20.99 0,-41.979 0,-62.969 -10.667,-10.667 -21.333,-21.333 -32,-32 -21.333,0 -42.667,0 -64,0 10.667,-10.667 21.333,-21.333 32,-32 -1.299,-10.034 2.621,-25.288 -2,-32 -9.372,-1.295 -23.949,2.616 -30,-2 -1.295,-9.372 2.616,-23.949 -2,-30 -8.855,-0.669 -24.171,1.337 -29,-1 10.333,-10.333 20.667,-20.667 31,-31 0,-43 0,-86 0,-129 10.667,10.667 21.333,21.333 32,32 0,-43 0,-86 0,-129 -10.667,11 -21.333,22 -32,33 -0.67,-9.826 1.337,-26.258 -1,-31.969 -10.333,10.656 -20.667,21.313 -31,31.969 0,-21.667 0,-43.333 0,-65 -11,10.667 -22,21.333 -33,32 0,-21.333 0,-42.667 0,-64 -10.667,10.667 -21.333,21.333 -32,32 -10.667,-10.667 -21.333,-21.333 -32,-32 10.667,-10.667 21.333,-21.333 32,-32 -21.333,-10.667 -42.667,-21.333 -64,-32 -10.844,-21.767 -21.276,-43.739 -32.378,-65.378 -10.541,-10.541 -21.081,-21.081 -31.622,-31.622 -1.771,-11.347 3.687,-25.689 -3,-35 -9.667,-9.667 -19.333,-19.333 -29,-29 0,-21.333 0,-42.667 0,-64 -11,-10.667 -22,-21.333 -33,-32 11,-11 22,-22 33,-33 -11,-21.333 -22,-42.667 -33,-64 1.356,-10.578 -2.712,-24.53 2.031,-33 20.99,-10.333 41.979,-20.667 62.969,-31 -1.356,-10.578 2.712,-24.53 -2.031,-33 -20.99,-10.333 -41.979,-20.667 -62.969,-31 0,-21.667 0,-43.333 0,-65 -10.667,-10.667 -21.333,-21.333 -32,-32 0,-43 0,-86 0,-129 -32,0 -64,0 -96,0 0,-32 0,-64 0,-96 21.333,-21.333 42.667,-42.667 64,-64 -1.021,-12.04 2.123,-25.007 -1.727,-36.457 -10.089,-20.182 -20.182,-40.362 -30.273,-60.543 21.333,-10.667 42.667,-21.333 64,-32 -21.333,-21.333 -42.667,-42.667 -64,-64 21.333,-10.667 42.667,-21.333 64,-32 -10.667,-11 -21.333,-22 -32,-33 1.771,-11.347 -3.687,-25.689 3,-35 9.667,-9.667 19.333,-19.333 29,-29 11.73,-1.015 24.385,2.122 35.52,-1.747 20.611,-10.227 41.386,-20.125 61.858,-30.631 31.874,-31.874 63.748,-63.748 95.622,-95.622 1.033,-12.043 -2.148,-25.033 1.75,-36.471 10.224,-20.295 20.125,-40.753 30.631,-60.905 21.538,-21.209 43.079,-42.416 64.619,-63.624 1.004,-11.727 -2.097,-24.359 1.725,-35.505 10.092,-20.498 20.184,-40.997 30.275,-61.495 0,-21.333 0,-42.667 0,-64 10.667,-10.667 21.333,-21.333 32,-32 0,8.735 0,27.909 0,30 1.295,-9.372 -2.615,-23.949 2,-30 20.667,0 41.333,0 62,0 -1.771,-11.347 3.687,-25.689 -3,-35 -9.667,-9.667 -19.333,-19.333 -29,-29 -43,0 -86,0 -129,0 -21.333,-32.333 -42.667,-64.667 -64,-97 10.667,10.667 21.333,21.333 32,32 10.667,-21.333 21.333,-42.667 32,-64 9.826,-0.67 26.258,1.337 31.969,-1 -10.656,-10.333 -21.313,-20.667 -31.969,-31 -1.299,-10.034 2.621,-25.288 -2,-32 -20.667,0 -41.333,0 -62,0 -21.333,-11 -42.667,-22 -64,-33 -9.516,0.69 -25.546,-1.378 -31,1.031 10.333,10.656 20.667,21.313 31,31.969 -10.24,-0.846 -23.859,1.687 -32,-1.258 0,-53.247 0,-106.495 0,-159.742 -10.667,-21.333 -21.333,-42.667 -32,-64 10.667,-11 21.333,-22 32,-33 -1.317,-10.027 2.659,-25.346 -2.031,-32 -20.99,0 -41.979,0 -62.969,0 -10.667,10.667 -21.333,21.333 -32,32 -0.67,9.826 1.337,26.258 -1,31.969 -10.333,-10.656 -20.667,-21.313 -31,-31.969 21.333,-21.333 42.667,-42.667 64,-64 0,-21.333 0,-42.667 0,-64 11,-10.667 22,-21.333 33,-32 -53.667,0 -107.333,0 -161,0 32,-32.333 64,-64.667 96,-97 -0.675,-9.948 1.344,-24.253 -1,-31.5 -21,10.5 -42,21 -63,31.5 -10.667,-10.667 -21.333,-21.333 -32,-32 1,-10.166 -2.001,-24.334 1.5,-32 31.5,0 63,0 94.5,0 10.667,-10.667 21.333,-21.333 32,-32 -21.333,-10.667 -42.667,-21.333 -64,-32 1.304,-10.362 -2.628,-25.961 2,-33 20.667,0 41.333,0 62,0 -10.667,-10.667 -21.333,-21.333 -32,-32 -32,0 -64,0 -96,0 -10.667,-10.667 -21.333,-21.333 -32,-32 -10.667,10.667 -21.333,21.333 -32,32 -11,-10.667 -22,-21.333 -33,-32 -32,0 -64,0 -96,0 21.333,-21.333 42.667,-42.667 64,-64 -10.667,-10.667 -21.333,-21.333 -32,-32 -32,0 -64,0 -96,0 0,21.333 0,42.667 0,64 -10.915,-1.343 -25.148,2.681 -34,-2 -10.334,-20.666 -20.666,-41.334 -31,-62 -21.333,0 -42.667,0 -64,0 10.667,-21.667 21.333,-43.333 32,-65 -21.333,0 -42.667,0 -64,0 10.667,-10.667 21.333,-21.333 32,-32 -21.333,0 -42.667,0 -64,0 -10.667,-10.667 -21.333,-21.333 -32,-32 -11,10.667 -22,21.333 -33,32 -10.034,-1.299 -25.288,2.621 -32,-2 0,-20.667 0,-41.333 0,-62 -10.667,10.667 -21.333,21.333 -32,32 0,-21.333 0,-42.667 0,-64 -21.333,-21.667 -42.667,-43.333 -64,-65 -10.667,21.667 -21.333,43.333 -32,65 -11.671,1.795 -26.37,-3.72 -36,3 -9.667,9.667 -19.333,19.333 -29,29 -10.034,-1.299 -25.288,2.621 -32,-2 0,-10 0,-20 0,-30 -0.678,9.94 1.35,24.279 -1.004,31.492 -21.105,-10.664 -42.403,-20.943 -63.372,-31.873 -21.209,-21.538 -42.416,-43.079 -63.624,-64.619 -11,-32 -22,-64 -33,-96 -10.667,10.667 -21.333,21.333 -32,32 0,21.333 0,42.667 0,64 -21.333,-21.333 -42.667,-42.667 -64,-64 0,-21.333 0,-42.667 0,-64 -10.667,-10.667 -21.333,-21.333 -32,-32 1.299,-10.034 -2.621,-25.288 2,-32 9.358,-1.33 24.064,2.689 30,-2.062 1.301,-9.679 -2.623,-24.582 2,-30.938 11.043,-2.035 25.616,4.454 34,-4 9.333,-9.333 18.667,-18.667 28,-28 -10.667,-10.667 -21.333,-21.333 -32,-32 8.735,0 27.909,0 30,0 -8.855,-0.669 -24.171,1.337 -29,-1 10.333,-10.333 20.667,-20.667 31,-31 9.523,-0.669 25.503,1.337 31,-1 -10.333,-10.333 -20.667,-20.667 -31,-31 10.667,-10.667 21.333,-21.333 32,-32 0,-21.667 0,-43.333 0,-65 21.667,-10.667 43.333,-21.333 65,-32 1.299,-10.034 -2.621,-25.288 2,-32 9.372,-1.295 23.949,2.616 30,-2 1.295,-9.372 -2.615,-23.949 2,-30 20.667,0 41.333,0 62,0 10.667,-21.667 21.333,-43.333 32,-65 10.667,11 21.333,22 32,33 0,-21.667 0,-43.333 0,-65 11,-10.667 22,-21.333 33,-32 0.997,-10.475 -1.996,-23.826 1.5,-32.5 31.5,-10.5 63,-21 94.5,-31.5 21.333,10.667 42.667,21.333 64,32 11.671,-1.795 26.37,3.72 36,-3 9.667,-9.667 19.333,-19.333 29,-29 12.002,-1.566 25.989,3.404 36.515,-3.021 30.613,-20.464 61.359,-40.729 91.858,-61.363 10.541,-10.874 21.085,-21.744 31.627,-32.616 10.362,-1.304 25.961,2.628 33,-2 1.295,-9.372 -2.615,-23.949 2,-30 20.667,0 41.333,0 62,0 0,-32 0,-64 0,-96 43,-32.333 86,-64.667 129,-97 32,-10.667 64,-21.333 96,-32 0.68,9.516 -1.359,25.538 1.017,30.996 10.896,-10.472 21.006,-21.95 32.455,-31.731 20.844,-10.419 41.685,-20.844 62.528,-31.265 11,10.667 22,21.333 33,32 42.667,-10.667 85.333,-21.333 128,-32 1.484,-11.124 -2.99,-24.715 2.273,-34.273 31.576,-31.576 63.151,-63.151 94.727,-94.727 10.034,-1.299 25.288,2.621 32,-2 1.295,-9.372 -2.615,-23.949 2,-30 20.667,0 41.333,0 62,0 10.667,-21.333 21.333,-42.667 32,-64 0,-43 0,-86 0,-129 21.667,-10.667 43.333,-21.333 65,-32 -21.667,-21.333 -43.333,-42.667 -65,-64 0,-32.333 0,-64.667 0,-97 10.034,-1.299 25.288,2.621 32,-2 1.33,-9.358 -2.689,-24.064 2.062,-30 9.887,-0.843 23.138,1.679 30.938,-1.25 0,-52.917 0,-105.833 0,-158.75 -11,-21.667 -22,-43.333 -33,-65 10.915,-1.343 25.148,2.681 34,-2 10.334,-20.666 20.666,-41.334 31,-62 0,-21.333 0,-42.667 0,-64 0.669,9.523 -1.337,25.503 1,31 10.333,-10.333 20.667,-20.667 31,-31 0,-32.333 0,-64.667 0,-97 21.333,0 42.667,0 64,0 10.667,-32 21.333,-64 32,-96 10.359,-1.313 25.99,2.647 33,-2.016 0,-42.328 0,-84.656 0,-126.984 10.034,-1.299 25.288,2.621 32,-2 0,-20.667 0,-41.333 0,-62 21.333,-32.333 42.667,-64.667 64,-97 0,-32 0,-64 0,-96 21.333,0 42.667,0 64,0 43,-53.667 86,-107.333 129,-161 -21.333,-10.667 -42.667,-21.333 -64,-32 10.667,-21.333 21.333,-42.667 32,-64 -10.667,-11 -21.333,-22 -32,-33 0,-21.333 0,-42.667 0,-64 -11,-10.667 -22,-21.333 -33,-32 11,-10.667 22,-21.333 33,-32 0,-21.333 0,-42.667 0,-64 21.333,0 42.667,0 64,0 21.333,-32.333 42.667,-64.667 64,-97 10.59,-1.933 25.987,3.912 33.5,-3 10.167,-20.333 20.333,-40.667 30.5,-61 0,-21.667 0,-43.333 0,-65 21.667,0 43.333,0 65,0 10.667,-10.667 21.333,-21.333 32,-32 10.166,-1 24.334,2.001 32,-1.5 0,-31.5 0,-63 0,-94.5 10.783,-11.262 22.648,-21.672 32.732,-33.488 10.423,-21.171 20.846,-42.341 31.268,-63.512 11,-10.667 22,-21.333 33,-32 1.771,-11.347 -3.687,-25.689 3,-35 9.667,-9.667 19.333,-19.333 29,-29 32,10.667 64,21.333 96,32 10.667,-10.667 21.333,-21.333 32,-32 21.667,0 43.333,0 65,0 10.667,10.667 21.333,21.333 32,32 10.667,-21.333 21.333,-42.667 32,-64 21.333,0 42.667,0 64,0 21.667,-64.333 43.333,-128.667 65,-193 32,-32.333 64,-64.667 96,-97 10.667,-32 21.333,-64 32,-96 -10.667,-75 -21.333,-150 -32,-225 10.633,-53.852 21.538,-107.65 32,-161.535 0,-42.822 0,-85.643 0,-128.465 -21.333,-53.333 -42.667,-106.667 -64,-160 0,-32.333 0,-64.667 0,-97 21.333,-53.333 42.667,-106.667 64,-160 0,-43 0,-86 0,-129 21.333,-32.333 42.667,-64.667 64,-97 0,-21.333 0,-42.667 0,-64 -10.667,-21.333 -21.333,-42.667 -32,-64 21.667,-21.667 43.333,-43.333 65,-65 21.333,-10.667 42.667,-21.333 64,-32 10.475,-0.997 23.826,1.996 32.5,-1.5 10.5,-31.5 21,-63 31.5,-94.5 0,-21.333 0,-42.667 0,-64 41.935,-44.058 86.307,-85.691 129,-129 43,-10.667 86,-21.333 129,-32 32,-43 64,-86 96,-129 32,-10.667 64,-21.333 96,-32 0,-21.333 0,-42.667 0,-64 10.362,-1.304 25.961,2.628 33,-2 1,-9.5 -2.001,-23.001 1.5,-30 31.5,0 63,0 94.5,0 10.667,-11 21.333,-22 32,-33 0.675,10.268 -1.344,24.956 1,32.484 21,-10.828 42,-21.656 63,-32.484 11.589,11.12 22.342,23.294 34.472,33.735 20.844,10.419 41.685,20.844 62.528,31.265 21.431,-10.848 43.075,-21.274 64.373,-32.384 10.666,-11.456 22.346,-22.125 32.362,-34.088 10.419,-20.844 20.844,-41.685 31.265,-62.528 -10.667,-53.667 -21.333,-107.333 -32,-161 21.667,-21.333 43.333,-42.667 65,-64 0,-21.333 0,-42.667 0,-64 10.667,-10.667 21.333,-21.333 32,-32 10.027,-1.317 25.346,2.659 32,-2.031 0,-20.99 0,-41.979 0,-62.969 21.333,-21.333 42.667,-42.667 64,-64 1.793,-11.341 -3.736,-25.748 3.047,-35 20.651,-20.333 41.302,-40.667 61.953,-61 32,-11 64,-22 96,-33 -182.333,-150 -364.667,-300 -547,-450 -10.034,-1.299 -25.288,2.621 -32,-2 0,-20.667 0,-41.333 0,-62 -10.667,-21.333 -21.333,-42.667 -32,-64 -0.861,-12.604 1.87,-25.778 -1.661,-37.984 -10.111,-30.339 -20.226,-60.677 -30.339,-91.016 0,-21.333 0,-42.667 0,-64 10.667,-10.667 21.333,-21.333 32,-32 0,-96.667 0,-193.333 0,-290 -21.333,-32 -42.667,-64 -64,-96 -10.471,-1.007 -23.855,2.016 -32.5,-1.516 -10.5,-31.828 -21,-63.656 -31.5,-95.484 -32.333,-21.333 -64.667,-42.667 -97,-64 -10.034,-1.299 -25.288,2.621 -32,-2 -1.295,-9.372 2.616,-23.949 -2,-30 -9.372,-1.295 -23.949,2.616 -30,-2 -2.012,-11.1 4.42,-25.622 -4,-34.125 -9.333,-9.625 -18.667,-19.25 -28,-28.875 0,-21.333 0,-42.667 0,-64 -21.667,0 -43.333,0 -65,0 21.841,-42.266 43.723,-84.552 64.496,-127.336 -0.189,-10.99 2.888,-25.663 -1.527,-34.664 -20.99,-10.333 -41.979,-20.667 -62.969,-31 21.667,0 43.333,0 65,0 -1.771,-11.347 3.687,-25.689 -3,-35 -9.667,-9.667 -19.333,-19.333 -29,-29 10.667,-10.667 21.333,-21.333 32,-32 -32.333,-21.667 -64.667,-43.333 -97,-65 10.034,-1.299 25.288,2.621 32,-2 0,-20.667 0,-41.333 0,-62 -10.667,-21.333 -21.333,-42.667 -32,-64 10.667,-21.333 21.333,-42.667 32,-64 -10.667,-11 -21.333,-22 -32,-33 -10.909,-1.794 -25.727,3.718 -34,-3 -20.666,-31 -41.334,-62 -62,-93 -21.667,10.667 -43.333,21.333 -65,32 -10.667,-10.667 -21.333,-21.333 -32,-32 -10.667,10.667 -21.333,21.333 -32,32 -10.667,-10.667 -21.333,-21.333 -32,-32 -10.667,10.667 -21.333,21.333 -32,32 -43.102,-21.128 -86.104,-42.457 -129,-64 0,-21.667 0,-43.333 0,-65 -10.667,-10.667 -21.333,-21.333 -32,-32 -1.299,-10.034 2.621,-25.288 -2,-32 -9.372,-1.295 -23.949,2.616 -30,-2 -1.295,-9.372 2.616,-23.949 -2,-30 -9.372,1.295 -23.949,-2.616 -30,2 0,10 0,20 0,30 0,-32 0,-64 0,-96 -10.667,-10.667 -21.333,-21.333 -32,-32 -11,10.667 -22,21.333 -33,32 21.667,-10.667 43.333,-21.333 65,-32 -10.667,-21.667 -21.333,-43.333 -32,-65 9.523,-0.669 25.503,1.337 31,-1 -10.333,-10.333 -20.667,-20.667 -31,-31 10.667,-10.667 21.333,-21.333 32,-32 -10.667,-10.667 -21.333,-21.333 -32,-32 10.034,-1.299 25.288,2.621 32,-2 -1.312,-9.365 2.652,-24.007 -2.031,-30 -20.99,0 -41.979,0 -62.969,0 11,-10.667 22,-21.333 33,-32 -1.34,-10.347 2.703,-26.078 -2.062,-33 -9.679,-1.301 -24.582,2.623 -30.938,-2 1.33,-9.358 -2.689,-24.064 2.062,-30 9.679,-1.3 24.582,2.623 30.938,-2 0,-20.667 0,-41.333 0,-62 -10.365,-1.313 -25.978,2.646 -33.009,-2.015 -0.08,-20.831 0.221,-41.664 -0.159,-62.493 -10.607,-32.165 -21.221,-64.328 -31.832,-96.492 10.667,-10.667 21.333,-21.333 32,-32 -21.333,-10.667 -42.667,-21.333 -64,-32 10.667,-10.667 21.333,-21.333 32,-32 0,-32.333 0,-64.667 0,-97 -10.667,-10.667 -21.333,-21.333 -32,-32 10.164,-1.005 24.349,2.011 32,-1.508 0,-63.831 0,-127.661 0,-191.492 9.523,-0.669 25.503,1.337 31,-1 -10.333,-10.333 -20.667,-20.667 -31,-31 10.667,-21.333 21.333,-42.667 32,-64 -9.523,-0.669 -25.503,1.337 -31,-1 10.333,-10.333 20.667,-20.667 31,-31 -10.667,-21.667 -21.333,-43.333 -32,-65 10.667,-10.667 21.333,-21.333 32,-32 -10.667,-10.667 -21.333,-21.333 -32,-32 10.667,-10.667 21.333,-21.333 32,-32 21.667,0 43.333,0 65,0 -10.667,-10.667 -21.333,-21.333 -32,-32 21.333,0 42.667,0 64,0 -10.667,-11 -21.333,-22 -32,-33 9.523,-0.669 25.503,1.337 31,-1 -10.333,-10.333 -20.667,-20.667 -31,-31 10.667,-10.667 21.333,-21.333 32,-32 0.669,9.523 -1.337,25.503 1,31 10.333,-10.333 20.667,-20.667 31,-31 10.034,-1.299 25.288,2.621 32,-2 1.006,-9.805 -2.015,-22.521 1.516,-30.5 31.828,-10.5 63.656,-21 95.484,-31.5 1.559,-12.021 -3.394,-26.003 3.02,-36.563 20.462,-30.932 40.733,-61.991 61.358,-92.815 21.207,-21.207 42.415,-42.415 63.622,-63.622 0,-21.333 0,-42.667 0,-64 10.667,10.667 21.333,21.333 32,32 25.004,-23.672 49.012,-48.349 73.003,-73.035 8.474,-8.222 16.495,-17.114 25.469,-24.7 20.844,-10.419 41.685,-20.844 62.528,-31.265 21.667,-53.667 43.333,-107.333 65,-161 32,0 64,0 96,0 21.333,-21.333 42.667,-42.667 64,-64 11.39,-1.759 25.694,3.67 35.094,-3 9.968,-9.667 19.937,-19.333 29.906,-29 1.004,-11.727 -2.097,-24.359 1.725,-35.505 10.092,-20.498 20.184,-40.997 30.275,-61.495 0,-32 0,-64 0,-96 -10.667,-32 -21.333,-64 -32,-96 10.667,-11 21.333,-22 32,-33 -9.523,-0.669 -25.503,1.337 -31,-1 10.333,-10.333 20.667,-20.667 31,-31 -0.112,-21.502 0.224,-43.007 -0.168,-64.508 -10.607,-32.165 -21.221,-64.328 -31.832,-96.492 -32.333,-10.667 -64.667,-21.333 -97,-32 -21.333,-21.333 -42.667,-42.667 -64,-64 0,-21.333 0,-42.667 0,-64 -10.667,-21.667 -21.333,-43.333 -32,-65 0,-21.333 0,-42.667 0,-64 -21.667,-32 -43.333,-64 -65,-96 0,-53.667 0,-107.333 0,-161 11.671,-1.795 26.369,3.72 36,-3 20.333,-20.333 40.667,-40.667 61,-61 -10.019,-1.335 -25.404,2.696 -32,-2.062 -1.318,-9.672 2.66,-24.64 -2.031,-30.938 -20.99,0 -41.979,0 -62.969,0 -10.667,-21.333 -21.333,-42.667 -32,-64 -1.771,-11.347 3.687,-25.689 -3,-35 -9.667,-9.667 -19.333,-19.333 -29,-29 1.299,-10.034 -2.621,-25.288 2,-32 20.667,0 41.333,0 62,0 -10.667,-21.667 -21.333,-43.333 -32,-65 10.667,11 21.333,22 32,33 11,-32.333 22,-64.667 33,-97 -21.667,-10.667 -43.333,-21.333 -65,-32 -1.299,10.034 2.621,25.288 -2,32 -42,0 -84,0 -126,0 -0.348,-9.608 0.693,-24.939 -0.516,-31 -10.828,21 -21.656,42 -32.484,63 -10.59,-1.933 -25.987,3.912 -33.5,-3 -10.167,-20.333 -20.333,-40.667 -30.5,-61 -10.667,10.667 -21.333,21.333 -32,32 -43,10.667 -86,21.333 -129,32 -10.667,-42.667 -21.333,-85.333 -32,-128 -10.667,-11 -21.333,-22 -32,-33 -10.667,11 -21.333,22 -32,33 -1.299,10.034 2.621,25.288 -2,32 -20.667,0 -41.333,0 -62,0 -11,-10.667 -22,-21.333 -33,-32 -10.667,10.667 -21.333,21.333 -32,32 -21.333,-10.667 -42.667,-21.333 -64,-32 -21.333,10.667 -42.667,21.333 -64,32 -21.667,-21.667 -43.333,-43.333 -65,-65 -32,11 -64,22 -96,33 -10.59,1.933 -25.987,-3.912 -33.5,3 -10.167,20.333 -20.333,40.667 -30.5,61 -21.667,-10.667 -43.333,-21.333 -65,-32 -11.723,-1.013 -24.369,2.117 -35.499,-1.742 -41.935,-20.883 -83.763,-41.982 -125.501,-63.258 -53.333,0 -106.667,0 -160,0 -10.667,-10.667 -21.333,-21.333 -32,-32 0,-42.667 0,-85.333 0,-128 -21.667,0 -43.333,0 -65,0 -10.667,-11 -21.333,-22 -32,-33 -10.667,11 -21.333,22 -32,33 -11.94,2.089 -27.538,-4.717 -36.547,4.5 -30.817,30.5 -61.635,61 -92.453,91.5 -21.333,-10.667 -42.667,-21.333 -64,-32 10.667,10.667 21.333,21.333 32,32 -10.667,32.333 -21.333,64.667 -32,97 9.523,0.669 25.503,-1.337 31,1 -10.333,10.333 -20.667,20.667 -31,31 -32,-21.667 -64,-43.333 -96,-65 -32.333,0 -64.667,0 -97,0 -10.667,-10.667 -21.333,-21.333 -32,-32 -1.771,-11.347 3.687,-25.689 -3,-35 -9.667,-9.667 -19.333,-19.333 -29,-29 -1.317,-10.027 2.659,-25.346 -2.031,-32 -20.99,0 -41.979,0 -62.969,0 11,-32.333 22,-64.667 33,-97 -11.582,-10.792 -22.381,-22.594 -34.472,-32.735 -20.844,-10.419 -41.685,-20.844 -62.528,-31.265 -10.667,10.667 -21.333,21.333 -32,32 -10.667,0 -21.333,0 -32,0 10.667,-42.667 21.333,-85.333 32,-128 -11.335,-1.814 -25.808,3.785 -35,-3.094 -9.667,-9.968 -19.333,-19.937 -29,-29.906 0,-32 0,-64 0,-96 -1544.086,-0.08 -3088.181,0.167 -4632.262,-0.125 -192.246,-10.625 -384.492,-21.25 -576.738,-31.875 1,-10.166 -2.001,-24.334 1.5,-32 31.5,0 63,0 94.5,0 0,-32.333 0,-64.667 0,-97 11,-10.667 22,-21.333 33,-32 0.112,-21.502 -0.224,-43.007 0.168,-64.508 10.61,-32.164 21.221,-64.328 31.832,-96.492 0,-21.333 0,-42.667 0,-64 -10.034,-1.299 -25.288,2.621 -32,-2 0,-20.667 0,-41.333 0,-62 -11,-11 -22,-22 -33,-33 10.498,-1.002 25.003,2.003 33,-1.5 0,-63.5 0,-127 0,-190.5 21.333,-11 42.667,-22 64,-33 0,-32 0,-64 0,-96 10.667,-21.333 21.333,-42.667 32,-64 -10.667,-21.667 -21.333,-43.333 -32,-65 21.333,-21.333 42.667,-42.667 64,-64 1.771,11.347 -3.687,25.689 3,35 9.667,9.667 19.333,19.333 29,29 1.322,10.355 -2.666,26.02 2.031,33 20.99,0 41.979,0 62.969,0 -11,-21.667 -22,-43.333 -33,-65 11,-32 22,-64 33,-96 -11,-10.667 -22,-21.333 -33,-32 0,-21.667 0,-43.333 0,-65 -10.667,-21.333 -21.333,-42.667 -32,-64 1.356,-10.578 -2.712,-24.53 2.031,-33 20.99,-10.333 41.979,-20.667 62.969,-31 -1.34,-10.347 2.703,-26.078 -2.062,-33 -11.337,-2.081 -26.269,4.52 -34.938,-4 -20,-20 -40,-40 -60,-60 0,-32 0,-64 0,-96 10.667,-10.667 21.333,-21.333 32,-32 10.164,-1.005 24.349,2.011 32,-1.508 0,-63.831 0,-127.661 0,-191.492 -10.667,-10.667 -21.333,-21.333 -32,-32 21.667,-32.333 43.333,-64.667 65,-97 -11,-21.333 -22,-42.667 -33,-64 11,-10.667 22,-21.333 33,-32 -11,-32.333 -22,-64.667 -33,-97 21.667,-21.333 43.333,-42.667 65,-64 0,-21.667 0,-43.333 0,-65 -21.667,-21.333 -43.333,-42.667 -65,-64 0,-64.333 0,-128.667 0,-193 21.667,-42.667 43.333,-85.333 65,-128 -10.667,-10.667 -21.333,-21.333 -32,-32 10.667,-11 21.333,-22 32,-33 10.667,-53.333 21.333,-106.667 32,-160 -21.333,0 -42.667,0 -64,0 1.795,-11.671 -3.72,-26.37 3,-36 9.667,-9.667 19.333,-19.333 29,-29 -21.767,-10.844 -43.739,-21.276 -65.378,-32.378 -10.539,-10.543 -21.081,-21.081 -31.622,-31.622 -10.59,-1.933 -25.987,3.912 -33.5,-3 -10.167,-20.333 -20.333,-40.667 -30.5,-61 0,-43 0,-86 0,-129 -10.475,-0.997 -23.826,1.996 -32.5,-1.5 -10.5,-31.5 -21,-63 -31.5,-94.5 -32.333,0 -64.667,0 -97,0 -10.667,-21.667 -21.333,-43.333 -32,-65 -10.59,-1.933 -25.987,3.912 -33.5,-3 -10.167,-20.333 -20.333,-40.667 -30.5,-61 21.333,-10.667 42.667,-21.333 64,-32 -40.025,-60.924 -80.278,-121.698 -121.461,-181.848 -11.238,-15.675 -18.325,-33.745 -27.319,-50.712 -4.074,-8.147 -8.147,-16.293 -12.22,-24.44 0,-64.333 0,-128.667 0,-193 43,-10.667 86,-21.333 129,-32 -10.667,-11 -21.333,-22 -32,-33 0,-32 0,-64 0,-96 -32.333,-10.667 -64.667,-21.333 -97,-32 -1,-10.166 2.001,-24.334 -1.5,-32 -31.5,0 -63,0 -94.5,0 0.401,-15.694 -1.506,-31.66 2.787,-46.994 9.739,-48.847 19.666,-97.656 29.213,-146.541 0,-21.488 0,-42.977 0,-64.465 10.667,-21.333 21.333,-42.667 32,-64 0,-21.333 0,-42.667 0,-64 9.807,-1.007 25.185,2.016 31.5,-1.516 -10.5,-31.828 -21,-63.656 -31.5,-95.484 10.667,-10.667 21.333,-21.333 32,-32 1.808,-10.904 -3.75,-25.773 3.031,-34 31.323,-20.667 62.646,-41.333 93.969,-62 21.333,-53.667 42.667,-107.333 64,-161 1.933,-10.59 -3.912,-25.987 3,-33.5 20.333,-10.167 40.667,-20.333 61,-30.5 0,-32.333 0,-64.667 0,-97 -10.667,-10.667 -21.333,-21.333 -32,-32 10.667,-21.333 21.333,-42.667 32,-64 10.362,-1.304 25.961,2.628 33,-2 -2.051,-11.095 4.524,-25.763 -4.125,-34.125 -9.625,-9.625 -19.25,-19.25 -28.875,-28.875 11,-10.667 22,-21.333 33,-32 0,-42.667 0,-85.333 0,-128 21.333,-21.667 42.667,-43.333 64,-65 0,-42.667 0,-85.333 0,-128 -10.667,-32.333 -21.333,-64.667 -32,-97 0,-32 0,-64 0,-96 -21.667,-10.667 -43.333,-21.333 -65,-32 11,-21.667 22,-43.333 33,-65 -1.35,-10.575 2.699,-24.516 -2.02,-32.991 -42.425,-20.803 -84.755,-41.803 -126.98,-63.009 32,-43 64,-86 96,-129 0,-32 0,-64 0,-96 -42.667,-21.333 -85.333,-42.667 -128,-64 -21.667,0 -43.333,0 -65,0 -10.667,-11 -21.333,-22 -32,-33 43,-21.333 86,-42.667 129,-64 10.667,10.667 21.333,21.333 32,32 21.333,0 42.667,0 64,0 11,-21.333 22,-42.667 33,-64 32,-10.667 64,-21.333 96,-32 -0.113,-21.836 0.226,-43.674 -0.169,-65.508 -10.612,-31.83 -21.221,-63.661 -31.831,-95.492 21.333,0 42.667,0 64,0 21.333,-43 42.667,-86 64,-129 11,-10.667 22,-21.333 33,-32 -10.362,-1.304 -25.961,2.628 -33,-2 -0.669,-8.855 1.337,-24.171 -1,-29 -10.333,10.333 -20.667,20.667 -31,31 -10.59,-1.933 -25.987,3.912 -33.5,-3 -10.167,-20.333 -20.333,-40.667 -30.5,-61 10.633,-53.852 21.538,-107.65 32,-161.535 -1.297,-9.858 2.618,-24.928 -2,-31.465 -9.372,-1.295 -23.949,2.616 -30,-2 -1.295,-9.372 2.616,-23.949 -2,-30 -9.368,-1.304 -23.978,2.634 -30,-2.016 0,-42.328 0,-84.656 0,-126.984 -10.034,-1.299 -25.288,2.621 -32,-2 0,-20.667 0,-41.333 0,-62 -21.667,10.667 -43.333,21.333 -65,32 -32,-32 -64,-64 -96,-96 1.308,-10.669 -2.64,-25.45 2.016,-33.5 42.328,-10.5 84.656,-21 126.984,-31.5 -64.333,-32 -128.667,-64 -193,-96 -21.918,-21.076 -43.595,-42.403 -65,-64 -1.795,-11.671 3.72,-26.37 -3,-36 -9.667,-9.667 -19.333,-19.333 -29,-29 32.333,-32 64.667,-64 97,-96 10.027,-1.317 25.346,2.659 32,-2.031 0,-20.99 0,-41.979 0,-62.969 10.667,-10.667 21.333,-21.333 32,-32 -21.333,-32 -42.667,-64 -64,-96 21.333,-10.667 42.667,-21.333 64,-32 -21.434,-10.843 -43.072,-21.283 -64.378,-32.378 -21.539,-21.543 -43.081,-43.081 -64.622,-64.622 -32,0 -64,0 -96,0 -21.667,-10.667 -43.333,-21.333 -65,-32 -0.675,-9.948 1.344,-24.253 -1,-31.5 -21,10.5 -42,21 -63,31.5 0,-43 0,-86 0,-129 10.843,-21.434 21.283,-43.072 32.378,-64.378 10.539,-10.543 21.081,-21.081 31.622,-31.622 -10.667,-21.333 -21.333,-42.667 -32,-64 10.667,-32.333 21.333,-64.667 32,-97 -0.675,-9.948 1.344,-24.253 -1,-31.5 -21,10.5 -42,21 -63,31.5 -10.667,-10.667 -21.333,-21.333 -32,-32 z"
         id="path56" />
    </g>
  </g>
</svg>
