<?xml version="1.0" encoding="UTF-8" standalone="no"?>
<!-- Created with Inkscape (http://www.inkscape.org/) -->

<svg
   xmlns:dc="http://purl.org/dc/elements/1.1/"
   xmlns:cc="http://creativecommons.org/ns#"
   xmlns:rdf="http://www.w3.org/1999/02/22-rdf-syntax-ns#"
   xmlns:svg="http://www.w3.org/2000/svg"
   xmlns="http://www.w3.org/2000/svg"
   xmlns:sodipodi="http://sodipodi.sourceforge.net/DTD/sodipodi-0.dtd"
   xmlns:inkscape="http://www.inkscape.org/namespaces/inkscape"
   width="19.330296mm"
   height="11.423053mm"
   viewBox="0 0 19.330296 11.423053"
   version="1.1"
   id="svg256"
   inkscape:version="0.92.5 (2060ec1f9f, 2020-04-08)"
   sodipodi:docname="pb.svg">
  <defs
     id="defs250" />
  <sodipodi:namedview
     id="base"
     pagecolor="#ffffff"
     bordercolor="#666666"
     borderopacity="1.0"
     inkscape:pageopacity="0.0"
     inkscape:pageshadow="2"
     inkscape:zoom="0.35"
     inkscape:cx="-866.32746"
     inkscape:cy="-132.69884"
     inkscape:document-units="mm"
     inkscape:current-layer="layer1"
     showgrid="false"
     inkscape:window-width="1366"
     inkscape:window-height="704"
     inkscape:window-x="0"
     inkscape:window-y="0"
     inkscape:window-maximized="1" />
  <metadata
     id="metadata253">
    <rdf:RDF>
      <cc:Work
         rdf:about="">
        <dc:format>image/svg+xml</dc:format>
        <dc:type
           rdf:resource="http://purl.org/dc/dcmitype/StillImage" />
        <dc:title></dc:title>
      </cc:Work>
    </rdf:RDF>
  </metadata>
  <g
     inkscape:label="Layer 1"
     inkscape:groupmode="layer"
     id="layer1"
     transform="translate(-301.78724,-102.30038)">
    <g
       transform="matrix(9.9994773e-4,0,0,9.9994773e-4,129.59278,45.630459)"
       id="Paraiba">
      <path
         inkscape:connector-curvature="0"
         id="path96"
         d="m 172553,61123 c 10.67,-10.667 21.33,-21.333 32,-32 43,-10.667 86,-21.333 129,-32 0,-11 0,-22 0,-33 32.33,0 64.67,0 97,0 0,-21.333 0,-42.667 0,-64 21.33,0 42.67,0 64,0 21.33,-10.667 42.67,-21.333 64,-32 10.67,-10.667 21.33,-21.333 32,-32 0,-10.667 0,-21.333 0,-32 11,-10.667 22,-21.333 33,-32 0,-11 0,-22 0,-33 -11,-10.667 -22,-21.333 -33,-32 22.59,-22.269 45.23,-44.481 67.79,-66.786 20.4,-20.405 40.81,-40.809 61.21,-61.214 21.33,-11 42.67,-22 64,-33 0,-10.667 0,-21.333 0,-32 -10.67,-10.667 -21.33,-21.333 -32,-32 21.33,0 42.67,0 64,0 21.67,10.667 43.33,21.333 65,32 0,-21.333 0,-42.667 0,-64 -21.67,-10.667 -43.33,-21.333 -65,-32 -10.67,-21.667 -21.33,-43.333 -32,-65 -21.33,0 -42.67,0 -64,0 0,-21.333 0,-42.667 0,-64 -10.67,-10.667 -21.33,-21.333 -32,-32 0,-21.333 0,-42.667 0,-64 -10.67,-10.667 -21.33,-21.333 -32,-32 -10.67,-32.333 -21.33,-64.667 -32,-97 0,-10.667 0,-21.333 0,-32 10.67,-32 21.33,-64 32,-96 10.67,0 21.33,0 32,0 -10.67,0 -21.33,0 -32,0 21.33,-11 42.67,-22 64,-33 10.67,-10.667 21.33,-21.333 32,-32 0,-21.333 0,-42.667 0,-64 -21.33,-10.667 -42.67,-21.333 -64,-32 0,-21.667 0,-43.333 0,-65 42.67,-42.667 85.33,-85.333 128,-128 0,-21.333 0,-42.667 0,-64 -21.33,-21.667 -42.67,-43.333 -64,-65 21.33,-10.667 42.67,-21.333 64,-32 0,-10.667 0,-21.333 0,-32 11,-10.667 22,-21.333 33,-32 0,-10.667 0,-21.333 0,-32 21.33,-32.333 42.67,-64.667 64,-97 -10.67,-10.667 -21.33,-21.333 -32,-32 10.67,-21.333 21.33,-42.667 32,-64 21.9,-22.215 43.75,-44.482 65.68,-66.665 42.44,-42.112 84.88,-84.223 127.32,-126.335 0,-32.333 0,-64.667 0,-97 21.33,-10.667 42.67,-21.333 64,-32 0,-21.333 0,-42.667 0,-64 53.67,-43 107.33,-86 161,-129 10.67,0 21.33,0 32,0 -21.33,-21.333 -42.67,-42.667 -64,-64 -21.67,10.667 -43.33,21.333 -65,32 -64.33,0 -128.67,0 -193,0 0,-10.667 0,-21.333 0,-32 -21.33,0 -42.67,0 -64,0 -10.67,-10.667 -21.33,-21.333 -32,-32 10.67,0 21.33,0 32,0 10.67,-10.667 21.33,-21.333 32,-32 0,-11 0,-22 0,-33 21.67,0 43.33,0 65,0 0,-21.333 0,-42.667 0,-64 10.67,0 21.33,0 32,0 10.67,-10.667 21.33,-21.333 32,-32 32,0 64,0 96,0 -10.67,-10.667 -21.33,-21.333 -32,-32 10.67,-10.667 21.33,-21.333 32,-32 11,0 22,0 33,0 21.33,10.667 42.67,21.333 64,32 10.67,0 21.33,0 32,0 10.67,10.667 21.33,21.333 32,32 21.67,-21.333 43.33,-42.667 65,-64 10.67,0 21.33,0 32,0 22.12,-11.086 44.28,-22.093 66.38,-33.228 20.54,-10.591 41.08,-21.181 61.62,-31.772 -22.42,33.946 -44.78,67.932 -67.23,101.852 -20.26,30.383 -40.51,60.765 -60.77,91.148 10.67,21.667 21.33,43.333 32,65 -10.67,32 -21.33,64 -32,96 32,-10.667 64,-21.333 96,-32 21.33,0 42.67,0 64,0 11.05,10.688 22.05,21.436 33.13,32.087 31.96,21.305 63.91,42.609 95.87,63.913 32,-10.667 64,-21.333 96,-32 11,0 22,0 33,0 11.39,11.431 22.86,22.775 34.19,34.263 9.94,10.246 19.87,20.491 29.81,30.737 10.67,21.333 21.33,42.667 32,64 10.67,10.667 21.33,21.333 32,32 0,21.333 0,42.667 0,64 10.67,0 21.33,0 32,0 11,11 22,22 33,33 42.67,0 85.33,0 128,0 21.67,21.333 43.33,42.667 65,64 10.67,21.333 21.33,42.667 32,64 32,0 64,0 96,0 0,32.333 0,64.667 0,97 53.67,-32.333 107.33,-64.667 161,-97 10.67,0 21.33,0 32,0 21.33,-10.667 42.67,-21.333 64,-32 10.67,10.667 21.33,21.333 32,32 43,0 86,0 129,0 21.33,21.333 42.67,42.667 64,64 43,0 86,0 129,0 21.33,-10.667 42.67,-21.333 64,-32 21.67,43 43.33,86 65,129 32,0 64,0 96,0 21.33,-21.333 42.67,-42.667 64,-64 11,-21.667 22,-43.333 33,-65 21.33,-10.667 42.67,-21.333 64,-32 10.67,-32 21.33,-64 32,-96 10.67,-10.667 21.33,-21.333 32,-32 10.67,0 21.33,0 32,0 0,-11 0,-22 0,-33 10.67,0 21.33,0 32,0 0,-21.333 0,-42.667 0,-64 11,0 22,0 33,0 0,21.333 0,42.667 0,64 21.33,11 42.67,22 64,33 -10.67,21.333 -21.33,42.667 -32,64 21.33,0 42.67,0 64,0 10.67,-10.667 21.33,-21.333 32,-32 10.67,0 21.33,0 32,0 -10.67,-32.333 -21.33,-64.667 -32,-97 21.67,-21.333 43.33,-42.667 65,-64 -11,-10.667 -22,-21.333 -33,-32 53.67,0 107.33,0 161,0 10.67,-10.667 21.33,-21.333 32,-32 10.67,-21.667 21.33,-43.333 32,-65 11,-10.667 22,-21.333 33,-32 0,10.667 0,21.333 0,32 21.33,21.667 42.67,43.333 64,65 21.33,0 42.67,0 64,0 21.67,-11 43.33,-22 65,-33 21.33,-21.333 42.67,-42.667 64,-64 21.33,0 42.67,0 64,0 10.67,-10.667 21.33,-21.333 32,-32 -10.67,-10.667 -21.33,-21.333 -32,-32 0,-43 0,-86 0,-129 43,21.333 86,42.667 129,64 10.67,-10.667 21.33,-21.333 32,-32 21.33,-10.667 42.67,-21.333 64,-32 0,-10.667 0,-21.333 0,-32 10.67,-21.333 21.33,-42.667 32,-64 -10.67,-10.667 -21.33,-21.333 -32,-32 10.67,-21.667 21.33,-43.333 32,-65 21.67,-10.667 43.33,-21.333 65,-32 10.67,0 21.33,0 32,0 -10.67,-10.667 -21.33,-21.333 -32,-32 21.33,-32 42.67,-64 64,-96 85.67,0 171.33,0 257,0 -10.67,0 -21.33,0 -32,0 -10.67,-21.667 -21.33,-43.333 -32,-65 0,-21.333 0,-42.667 0,-64 10.67,-10.667 21.33,-21.333 32,-32 -21.33,-21.667 -42.67,-43.333 -64,-65 21.33,-10.667 42.67,-21.333 64,-32 -21.33,-10.667 -42.67,-21.333 -64,-32 21.33,-21.333 42.67,-42.667 64,-64 10.67,0 21.33,0 32,0 0,-21.667 0,-43.333 0,-65 10.67,-10.667 21.33,-21.333 32,-32 53.67,-32 107.33,-64 161,-96 10.67,0 21.33,0 32,0 10.67,10.667 21.33,21.333 32,32 32.33,10.667 64.67,21.333 97,32 53.67,0 107.33,0 161,0 10.67,-21.333 21.33,-42.667 32,-64 64.33,0 128.67,0 193,0 21.33,-21.333 42.67,-42.667 64,-64 21.33,-11 42.67,-22 64,-33 21.67,11 43.33,22 65,33 32,0 64,0 96,0 0,-21.667 0,-43.333 0,-65 53.67,0 107.33,0 161,0 0,-10.667 0,-21.333 0,-32 21.33,0 42.67,0 64,0 10.67,10.667 21.33,21.333 32,32 43,-10.667 86,-21.333 129,-32 0,-42.667 0,-85.333 0,-128 10.67,-11 21.33,-22 32,-33 85.67,0 171.33,0 257,0 21.67,-42.667 43.33,-85.333 65,-128 42.67,0 85.33,0 128,0 32.33,-32.333 64.67,-64.667 97,-97 42.67,-10.667 85.33,-21.333 128,-32 10.67,-10.667 21.33,-21.333 32,-32 21.67,10.667 43.33,21.333 65,32 21.33,0 42.67,0 64,0 21.33,-42.667 42.67,-85.333 64,-128 11,-11 22,-22 33,-33 10.67,0 21.33,0 32,0 21.33,11 42.67,22 64,33 10.67,21.333 21.33,42.667 32,64 32.33,-10.667 64.67,-21.333 97,-32 21.33,10.667 42.67,21.333 64,32 32,0 64,0 96,0 -10.67,10.667 -21.33,21.333 -32,32 10.67,53.667 21.33,107.333 32,161 0,21.333 0,42.667 0,64 10.67,21.333 21.33,42.667 32,64 -21.33,53.667 -42.67,107.333 -64,161 21.33,10.667 42.67,21.333 64,32 11,0 22,0 33,0 -11,32.333 -22,64.667 -33,97 -10.67,10.667 -21.33,21.333 -32,32 -32,10.667 -64,21.333 -96,32 0,21.333 0,42.667 0,64 -21.39,10.677 -42.75,21.407 -64.15,32.051 -32.28,10.983 -64.57,21.966 -96.85,32.949 -10.67,10.667 -21.33,21.333 -32,32 -10.67,0 -21.33,0 -32,0 -53.67,53.667 -107.33,107.333 -161,161 0,53.333 0,106.667 0,160 -21.33,0 -42.67,0 -64,0 -32.33,-10.667 -64.67,-21.333 -97,-32 -21.33,10.667 -42.67,21.333 -64,32 -10.67,32.333 -21.33,64.667 -32,97 -10.67,10.667 -21.33,21.333 -32,32 -43,21.333 -86,42.667 -129,64 -10.67,0 -21.33,0 -32,0 -10.67,32.333 -21.33,64.667 -32,97 0,42.667 0,85.333 0,128 -21.67,21.667 -43.33,43.333 -65,65 0,21.333 0,42.667 0,64 -10.67,10.667 -21.33,21.333 -32,32 0,21.333 0,42.667 0,64 10.67,21.667 21.33,43.333 32,65 11,10.667 22,21.333 33,32 -11,32 -22,64 -33,96 -10.67,96.667 -21.33,193.333 -32,290 -32,32 -64,64 -96,96 -85.67,0 -171.33,0 -257,0 -21.67,32.333 -43.33,64.667 -65,97 0,10.667 0,21.333 0,32 10.67,10.667 21.33,21.333 32,32 -10.67,43 -21.33,86 -32,129 0,21.333 0,42.667 0,64 10.67,0 21.33,0 32,0 0,64.333 0,128.667 0,193 11,21.333 22,42.667 33,64 -11,21.333 -22,42.667 -33,64 11,11 22,22 33,33 -21.67,53.333 -43.33,106.667 -65,160 118,-21.333 236,-42.667 354,-64 21.39,0.01 42.77,-0.03 64.16,0.02 85.94,10.661 171.89,21.321 257.84,31.981 42.67,-21.333 85.33,-42.667 128,-64 43,10.667 86,21.333 129,32 -10.67,21.333 -21.33,42.667 -32,64 21.33,21.667 42.67,43.333 64,65 21.33,10.667 42.67,21.333 64,32 0,42.667 0,85.333 0,128 -10.67,21.667 -21.33,43.333 -32,65 21.33,21.333 42.67,42.667 64,64 0,10.667 0,21.333 0,32 11,10.667 22,21.333 33,32 0,21.667 0,43.333 0,65 32,21.333 64,42.667 96,64 64.33,0 128.67,0 193,0 64.33,-43 128.67,-86 193,-129 32,-42.667 64,-85.333 96,-128 10.67,0 21.33,0 32,0 75.33,-21.667 150.67,-43.333 226,-65 21.39,-10.676 42.75,-21.408 64.15,-32.05 31.95,-10.65 63.9,-21.3 95.85,-31.95 10.76,-10.724 21.45,-21.516 32.25,-32.197 53.58,-42.934 107.17,-85.869 160.75,-128.803 21.33,0 42.67,0 64,0 11.01,21.72 22.08,43.415 33.05,65.15 10.65,31.95 21.3,63.9 31.95,95.85 0,21.333 0,42.667 0,64 10.67,21.667 21.33,43.333 32,65 0,10.667 0,21.333 0,32 21.33,0 42.67,0 64,0 -10.67,10.667 -21.33,21.333 -32,32 0,10.667 0,21.333 0,32 32.33,-32 64.67,-64 97,-96 42.67,-21.667 85.33,-43.333 128,-65 10.67,0 21.33,0 32,0 107.33,-42.667 214.67,-85.333 322,-128 107,96.333 214,192.667 321,289 0,85.667 0,171.333 0,257 64.33,-10.667 128.67,-21.333 193,-32 -21.33,75 -42.67,150 -64,225 -21.33,32.333 -42.67,64.667 -64,97 0,21.333 0,42.667 0,64 -10.67,32 -21.33,64 -32,96 32,53.667 64,107.333 96,161 43,21.667 86,43.333 129,65 10.67,0 21.33,0 32,0 32,-86 64,-172 96,-258 53.67,0 107.33,0 161,0 32,10.667 64,21.333 96,32 43,0 86,0 129,0 64.33,-96.333 128.67,-192.667 193,-289 0,-10.667 0,-21.333 0,-32 -10.67,-21.333 -21.33,-42.667 -32,-64 11.39,-11.431 22.86,-22.775 34.19,-34.263 9.94,-10.246 19.87,-20.491 29.81,-30.737 21.67,0 43.33,0 65,0 21.33,-21.333 42.67,-42.667 64,-64 32,-10.667 64,-21.333 96,-32 10.67,-10.667 21.33,-21.333 32,-32 11,-64.333 22,-128.667 33,-193 -11,-32.333 -22,-64.667 -33,-97 -21.33,-21.333 -42.67,-42.667 -64,-64 -10.67,0 -21.33,0 -32,0 0,-10.667 0,-21.333 0,-32 -10.67,0 -21.33,0 -32,0 -21.33,-10.667 -42.67,-21.333 -64,-32 -21.67,-32.333 -43.33,-64.667 -65,-97 21.67,-21.333 43.33,-42.667 65,-64 10.67,-75 21.33,-150 32,-225 32,-64.333 64,-128.667 96,-193 -10.67,-21.333 -21.33,-42.667 -32,-64 21.33,-10.667 42.67,-21.333 64,-32 10.67,10.667 21.33,21.333 32,32 53.67,21.333 107.33,42.667 161,64 21.33,32 42.67,64 64,96 11,-10.667 22,-21.333 33,-32 21.33,10.667 42.67,21.333 64,32 0,-10.716 0,-21.445 0,-32.153 -10.65,-42.616 -21.31,-85.231 -31.96,-127.847 0,-64.333 0,-128.667 0,-193 -10.67,-10.667 -21.33,-21.333 -32,-32 -11,0 -22,0 -33,0 -21.33,-11 -42.67,-22 -64,-33 -10.67,-10.667 -21.33,-21.333 -32,-32 -10.67,-32 -21.33,-64 -32,-96 -21.37,-10.702 -42.77,-21.357 -64.13,-32.088 -32.29,-21.637 -64.58,-43.275 -96.87,-64.912 -10.67,0 -21.33,0 -32,0 0,-32 0,-64 0,-96 -10.67,-32 -21.33,-64 -32,-96 0,-21.667 0,-43.333 0,-65 10.73,-21.42 21.4,-42.87 32.16,-64.271 31.95,-53.576 63.89,-107.153 95.84,-160.729 0,-21.333 0,-42.667 0,-64 11,-53.667 22,-107.333 33,-161 64,10.667 128,21.333 192,32 43,0 86,0 129,0 53.67,-107 107.33,-214 161,-321 53.67,21.333 107.33,42.667 161,64 32,-10.667 64,-21.333 96,-32 53.67,-32.333 107.33,-64.667 161,-97 22.27,22.589 44.48,45.233 66.79,67.786 20.4,20.405 40.81,40.809 61.21,61.214 0,64.333 0,128.667 0,193 -21.33,32 -42.67,64 -64,96 0,43 0,86 0,129 10.67,0 21.33,0 32,0 32.38,10.697 64.78,21.338 97.14,32.07 21.29,10.644 42.57,21.287 63.86,31.93 10.67,53.667 21.33,107.333 32,161 43,-10.667 86,-21.333 129,-32 75,0 150,0 225,0 43,-10.667 86,-21.333 129,-32 53.33,0 106.67,0 160,0 10.67,-10.667 21.33,-21.333 32,-32 11,0 22,0 33,0 21.33,-11 42.67,-22 64,-33 10.67,-10.667 21.33,-21.333 32,-32 10.67,0 21.33,0 32,0 0,10.667 0,21.333 0,32 10.67,0 21.33,0 32,0 0,-10.667 0,-21.333 0,-32 21.67,43 43.33,86 65,129 21.33,21.333 42.67,42.667 64,64 43,10.667 86,21.333 129,32 0,32.333 0,64.667 0,97 10.67,10.667 21.33,21.333 32,32 42.67,10.667 85.33,21.333 128,32 21.67,0 43.33,0 65,0 32,10.667 64,21.333 96,32 139.33,-10.667 278.67,-21.333 418,-32 118,0 236,0 354,0 10.67,-10.667 21.33,-21.333 32,-32 75,-10.667 150,-21.333 225,-32 21.33,0 42.67,0 64,0 43,-43 86,-86 129,-129 21.33,10.667 42.67,21.333 64,32 10.67,0 21.33,0 32,0 0,-10.667 0,-21.333 0,-32 11,0 22,0 33,0 32,10.667 64,21.333 96,32 21.33,11 42.67,22 64,33 32.33,0 64.67,0 97,0 21.33,21.333 42.67,42.667 64,64 0,10.667 0,21.333 0,32 10.67,10.667 21.33,21.333 32,32 32.33,0 64.67,0 97,0 0,10.667 0,21.333 0,32 10.67,0 21.33,0 32,0 10.67,-21.333 21.33,-42.667 32,-64 32,0 64,0 96,0 0,-10.667 0,-21.333 0,-32 11,10.667 22,21.333 33,32 32,0 64,0 96,0 10.67,10.667 21.33,21.333 32,32 0,-10.667 0,-21.333 0,-32 10.67,10.667 21.33,21.333 32,32 21.67,0 43.33,0 65,0 10.67,-10.667 21.33,-21.333 32,-32 10.67,0 21.33,0 32,0 21.33,10.667 42.67,21.333 64,32 10.67,-10.667 21.33,-21.333 32,-32 0,10.667 0,21.333 0,32 21.67,0 43.33,0 65,0 32,10.667 64,21.333 96,32 10.67,0 21.33,0 32,0 32.38,21.684 64.74,43.415 97.14,65.07 21.29,10.644 42.57,21.287 63.86,31.93 32.33,42.667 64.67,85.333 97,128 21.33,10.667 42.67,21.333 64,32 85.67,0 171.33,0 257,0 32.33,-21.333 64.67,-42.667 97,-64 42.67,0 85.33,0 128,0 10.67,-21.333 21.33,-42.667 32,-64 10.67,0 21.33,0 32,0 11.03,32.045 22.01,64.11 33.07,96.141 10.64,21.62 21.29,43.239 31.93,64.859 10.72,0.03 21.44,-0.05 32.15,0.04 42.95,10.654 85.9,21.308 128.85,31.962 21.33,-10.667 42.67,-21.333 64,-32 10.67,0 21.33,0 32,0 21.33,-32.333 42.67,-64.667 64,-97 21.67,0 43.33,0 65,0 10.67,-42.667 21.33,-85.333 32,-128 10.67,0 21.33,0 32,0 10.67,-11 21.33,-22 32,-33 10.67,0 21.33,0 32,0 43,43 86,86 129,129 10.67,0 21.33,0 32,0 32,-10.667 64,-21.333 96,-32 21.67,-21.333 43.33,-42.667 65,-64 21.33,0 42.67,0 64,0 32.38,-11.03 64.78,-22.008 97.14,-33.07 21.29,-10.644 42.57,-21.287 63.86,-31.93 10.67,-10.667 21.33,-21.333 32,-32 10.67,10.667 21.33,21.333 32,32 0,236 0,472 0,708 21.69,53.379 43.36,106.77 65.07,160.141 10.64,21.62 21.29,43.239 31.93,64.859 21.33,10.667 42.67,21.333 64,32 -10.67,10.667 -21.33,21.333 -32,32 0,21.333 0,42.667 0,64 10.67,21.667 21.33,43.333 32,65 -10.67,10.667 -21.33,21.333 -32,32 10.67,10.667 21.33,21.333 32,32 -10.67,32 -21.33,64 -32,96 10.67,0 21.33,0 32,0 0,21.667 0,43.333 0,65 -10.67,0 -21.33,0 -32,0 32,0 64,0 96,0 0,85.667 0,171.333 0,257 21.67,53.667 43.33,107.333 65,161 0,21.333 0,42.667 0,64 32,32 64,64 96,96 21.81,11.223 43.58,22.516 65.41,33.696 21.2,10.435 42.39,20.869 63.59,31.304 -11.39,22.137 -22.86,44.234 -34.2,66.396 -10.27,20.535 -20.53,41.069 -30.8,61.604 0,10.667 0,21.333 0,32 10.67,32.333 21.33,64.667 32,97 21.67,21.333 43.33,42.667 65,64 -10.67,10.667 -21.33,21.333 -32,32 -21.67,11 -43.33,22 -65,33 10.67,0 21.33,0 32,0 0,10.667 0,21.333 0,32 11,0 22,0 33,0 0,-10.667 0,-21.333 0,-32 10.67,0 21.33,0 32,0 0,42.667 0,85.333 0,128 -10.67,0 -21.33,0 -32,0 0,10.667 0,21.333 0,32 -11,0 -22,0 -33,0 0,-10.667 0,-21.333 0,-32 -10.67,-10.667 -21.33,-21.333 -32,-32 0,10.667 0,21.333 0,32 10.67,32.333 21.33,64.667 32,97 11,0 22,0 33,0 10.67,-21.667 21.33,-43.333 32,-65 21.33,-21.333 42.67,-42.667 64,-64 0,-32 0,-64 0,-96 -10.67,-21.667 -21.33,-43.333 -32,-65 21.33,0 42.67,0 64,0 0,107.333 0,214.667 0,322 -21.33,10.667 -42.67,21.333 -64,32 0,21.333 0,42.667 0,64 10.67,21.667 21.33,43.333 32,65 10.67,10.667 21.33,21.333 32,32 -10.67,42.667 -21.33,85.333 -32,128 21.33,21.667 42.67,43.333 64,65 0,32 0,64 0,96 21.67,21.333 43.33,42.667 65,64 21.33,0 42.67,0 64,0 0,86 0,172 0,258 -10.67,21.333 -21.33,42.667 -32,64 -10.67,43 -21.33,86 -32,129 10.67,42.667 21.33,85.333 32,128 0,53.667 0,107.333 0,161 10.67,10.667 21.33,21.333 32,32 -10.67,21.333 -21.33,42.667 -32,64 10.67,21.667 21.33,43.333 32,65 -10.67,42.667 -21.33,85.333 -32,128 10.67,21.667 21.33,43.333 32,65 -10.68,21.386 -21.41,42.749 -32.05,64.15 -10.65,31.95 -21.3,63.9 -31.95,95.85 0,107.333 0,214.667 0,322 10.67,10.667 21.33,21.333 32,32 -21.33,21.333 -42.67,42.667 -64,64 10.67,43 21.33,86 32,129 -21.67,21.333 -43.33,42.667 -65,64 -10.67,32.333 -21.33,64.667 -32,97 -21.33,0 -42.67,0 -64,0 -21.33,-10.667 -42.67,-21.333 -64,-32 -21.67,10.667 -43.33,21.333 -65,32 -32,-21.667 -64,-43.333 -96,-65 -10.67,21.667 -21.33,43.333 -32,65 -10.67,0 -21.33,0 -32,0 0,-10.667 0,-21.333 0,-32 -21.67,0 -43.33,0 -65,0 -11.42,-11.733 -22.75,-23.552 -34.23,-35.229 -9.92,-9.924 -19.85,-19.847 -29.77,-29.771 -32,21.667 -64,43.333 -96,65 -11,0 -22,0 -33,0 -21.33,-32.333 -42.67,-64.667 -64,-97 -21.33,-21.333 -42.67,-42.667 -64,-64 0,-10.667 0,-21.333 0,-32 -10.67,-21.667 -21.33,-43.333 -32,-65 10.67,-21.333 21.33,-42.667 32,-64 0,-21.333 0,-42.667 0,-64 -32.41,-21.734 -64.85,-43.432 -97.25,-65.189 -42.58,-31.937 -85.17,-63.874 -127.75,-95.811 -21.67,-21.333 -43.33,-42.667 -65,-64 -32,-21.667 -64,-43.333 -96,-65 -10.67,-10.667 -21.33,-21.333 -32,-32 -10.67,0 -21.33,0 -32,0 -11,10.667 -22,21.333 -33,32 -21.33,11 -42.67,22 -64,33 -32,-11 -64,-22 -96,-33 -10.67,0 -21.33,0 -32,0 -32.33,-10.667 -64.67,-21.333 -97,-32 -10.67,0 -21.33,0 -32,0 -21.33,-10.667 -42.67,-21.333 -64,-32 -21.67,10.667 -43.33,21.333 -65,32 -10.67,0 -21.33,0 -32,0 -21.33,-10.667 -42.67,-21.333 -64,-32 -43,-10.667 -86,-21.333 -129,-32 -21.33,-10.667 -42.67,-21.333 -64,-32 -64.33,21.333 -128.67,42.667 -193,64 -32,32.333 -64,64.667 -96,97 -53.67,0 -107.33,0 -161,0 10.67,10.667 21.33,21.333 32,32 0,10.667 0,21.333 0,32 -32.33,0 -64.67,0 -97,0 0,32 0,64 0,96 -32,0 -64,0 -96,0 -10.67,10.667 -21.33,21.333 -32,32 -43,21.667 -86,43.333 -129,65 -10.67,21.333 -21.33,42.667 -32,64 -10.67,0 -21.33,0 -32,0 -21.33,-10.667 -42.67,-21.333 -64,-32 -11,-21.333 -22,-42.667 -33,-64 -21.33,0 -42.67,0 -64,0 -42.67,-11 -85.33,-22 -128,-33 -32.33,11 -64.67,22 -97,33 -10.67,53.333 -21.33,106.667 -32,160 0,21.667 0,43.333 0,65 10.67,21.333 21.33,42.667 32,64 -32,32 -64,64 -96,96 0,32.333 0,64.667 0,97 -11,32 -22,64 -33,96 -10.67,11 -21.33,22 -32,33 0,10.667 0,21.333 0,32 10.67,10.667 21.33,21.333 32,32 21.67,-10.667 43.33,-21.333 65,-32 -10.67,21.333 -21.33,42.667 -32,64 0,10.667 0,21.333 0,32 -11,0 -22,0 -33,0 -10.67,21.333 -21.33,42.667 -32,64 32.33,43 64.67,86 97,129 -21.67,0 -43.33,0 -65,0 -10.67,10.667 -21.33,21.333 -32,32 -42.67,10.667 -85.33,21.333 -128,32 -21.67,-10.667 -43.33,-21.333 -65,-32 -53.33,0 -106.67,0 -160,0 -11,10.667 -22,21.333 -33,32 0,11 0,22 0,33 -53.33,53.333 -106.67,106.667 -160,160 -64.33,0 -128.67,0 -193,0 -10.67,-10.667 -21.33,-21.333 -32,-32 -21.67,10.667 -43.33,21.333 -65,32 0,10.667 0,21.333 0,32 -10.67,0 -21.33,0 -32,0 -32,11 -64,22 -96,33 -10.67,0 -21.33,0 -32,0 0,10.667 0,21.333 0,32 -11,10.667 -22,21.333 -33,32 -10.67,0 -21.33,0 -32,0 -32,21.333 -64,42.667 -96,64 -21.67,0 -43.33,0 -65,0 -32,21.667 -64,43.333 -96,65 -21.33,0 -42.67,0 -64,0 -21.67,-11 -43.33,-22 -65,-33 -32,11 -64,22 -96,33 -21.33,0 -42.67,0 -64,0 -11,10.667 -22,21.333 -33,32 0,32 0,64 0,96 -32,21.333 -64,42.667 -96,64 -53.67,-10.667 -107.33,-21.333 -161,-32 -10.67,10.667 -21.33,21.333 -32,32 -42.67,0 -85.33,0 -128,0 -21.67,21.667 -43.33,43.333 -65,65 -10.67,0 -21.33,0 -32,0 -10.67,21.333 -21.33,42.667 -32,64 -10.67,-10.667 -21.33,-21.333 -32,-32 -32.33,0 -64.67,0 -97,0 -21.33,-21.333 -42.67,-42.667 -64,-64 -10.67,0 -21.33,0 -32,0 -10.67,10.667 -21.33,21.333 -32,32 -32.33,-32.333 -64.67,-64.667 -97,-97 -53.67,-10.667 -107.33,-21.333 -161,-32 -21.33,10.667 -42.67,21.333 -64,32 -96.33,0 -192.67,0 -289,0 -32.33,10.667 -64.67,21.333 -97,32 -10.67,-32 -21.33,-64 -32,-96 -10.67,-10.667 -21.33,-21.333 -32,-32 -53.67,42.667 -107.33,85.333 -161,128 -10.67,11 -21.33,22 -32,33 0,10.667 0,21.333 0,32 21.33,10.667 42.67,21.333 64,32 0,10.667 0,21.333 0,32 -10.67,21.333 -21.33,42.667 -32,64 -32,0 -64,0 -96,0 -32.33,-21.333 -64.67,-42.667 -97,-64 -10.67,-10.667 -21.33,-21.333 -32,-32 -96.33,0 -192.67,0 -289,0 -10.67,-10.667 -21.33,-21.333 -32,-32 -21.67,10.667 -43.33,21.333 -65,32 -32,0 -64,0 -96,0 -21.33,10.667 -42.67,21.333 -64,32 -21.67,0 -43.33,0 -65,0 -10.67,10.667 -21.33,21.333 -32,32 0,75 0,150 0,225 -10.67,10.667 -21.33,21.333 -32,32 10.67,11 21.33,22 32,33 0,21.333 0,42.667 0,64 -10.67,0 -21.33,0 -32,0 -10.67,21.333 -21.33,42.667 -32,64 0,10.667 0,21.333 0,32 -32.33,0 -64.67,0 -97,0 -21.33,11 -42.67,22 -64,33 -10.67,-11 -21.33,-22 -32,-33 -21.33,11 -42.67,22 -64,33 -64.95,-32.63 -129.88,-65.3 -194.84,-97.905 -21.05,-10.365 -42.11,-20.73 -63.16,-31.095 -21.33,10.667 -42.67,21.333 -64,32 -21.33,21.333 -42.67,42.667 -64,64 10.67,32.333 21.33,64.667 32,97 -10.67,21.333 -21.33,42.667 -32,64 10.67,10.667 21.33,21.333 32,32 -10.67,10.667 -21.33,21.333 -32,32 -10.67,-10.667 -21.33,-21.333 -32,-32 -43,-10.667 -86,-21.333 -129,-32 -10.67,32.333 -21.33,64.667 -32,97 0,21.333 0,42.667 0,64 -10.67,10.667 -21.33,21.333 -32,32 0,107.333 0,214.667 0,322 -32.33,21.333 -64.67,42.667 -97,64 -10.67,10.667 -21.33,21.333 -32,32 0,10.667 0,21.333 0,32 10.67,0 21.33,0 32,0 0,21.333 0,42.667 0,64 21.33,0 42.67,0 64,0 11,11 22,22 33,33 0,21.333 0,42.667 0,64 -21.67,10.667 -43.33,21.333 -65,32 -42.72,10.687 -85.44,21.344 -128.15,32.049 -32.28,10.651 -64.57,21.301 -96.85,31.951 -10.67,11 -21.33,22 -32,33 10.67,32 21.33,64 32,96 -32,0 -64,0 -96,0 -21.33,-10.667 -42.67,-21.333 -64,-32 0,10.667 0,21.333 0,32 10.67,10.667 21.33,21.333 32,32 -10.67,0 -21.33,0 -32,0 0,10.667 0,21.333 0,32 -32.33,0 -64.67,0 -97,0 -10.67,11 -21.33,22 -32,33 -10.67,21.333 -21.33,42.667 -32,64 -10.67,10.667 -21.33,21.333 -32,32 -21.67,-10.667 -43.33,-21.333 -65,-32 -42.67,0 -85.33,0 -128,0 -11,21.333 -22,42.667 -33,64 -75,32.333 -150,64.667 -225,97 -32,21.333 -64,42.667 -96,64 -32,0 -64,0 -96,0 -11,21.333 -22,42.667 -33,64 -32,32.333 -64,64.667 -96,97 -32.33,10.667 -64.67,21.333 -97,32 0,21.333 0,42.667 0,64 -10.67,10.667 -21.33,21.333 -32,32 -42.67,0 -85.33,0 -128,0 -21.67,10.667 -43.33,21.333 -65,32 -42.67,-21.333 -85.33,-42.667 -128,-64 -32.33,-43 -64.67,-86 -97,-129 -10.72,-0.02 -21.44,0.03 -32.16,-0.03 -64.28,-10.658 -128.56,-21.316 -192.84,-31.974 -10.67,-32 -21.33,-64 -32,-96 -43,-43 -86,-86 -129,-129 0,-64.333 0,-128.667 0,-193 -32,11 -64,22 -96,33 -21.33,-11 -42.67,-22 -64,-33 -11,-10.667 -22,-21.333 -33,-32 0,-10.667 0,-21.333 0,-32 21.67,-10.667 43.33,-21.333 65,-32 -10.67,-21.333 -21.33,-42.667 -32,-64 10.67,-21.667 21.33,-43.333 32,-65 10.67,0 21.33,0 32,0 0,-10.667 0,-21.333 0,-32 -10.67,-32 -21.33,-64 -32,-96 10.67,-21.667 21.33,-43.333 32,-65 -21.33,-32 -42.67,-64 -64,-96 0,-21.333 0,-42.667 0,-64 10.67,-32.333 21.33,-64.667 32,-97 0,-42.667 0,-85.333 0,-128 -10.98,-11.284 -21.88,-22.64 -32.91,-33.878 -10.69,-10.374 -21.39,-20.748 -32.09,-31.122 -21.33,0 -42.67,0 -64,0 0,-10.667 0,-21.333 0,-32 -10.67,0 -21.33,0 -32,0 -10.67,-10.667 -21.33,-21.333 -32,-32 0,-32.333 0,-64.667 0,-97 -21.33,-10.667 -42.67,-21.333 -64,-32 -21.67,10.667 -43.33,21.333 -65,32 0,21.667 0,43.333 0,65 -21.33,0 -42.67,0 -64,0 0,-10.667 0,-21.333 0,-32 -10.67,10.667 -21.33,21.333 -32,32 -10.67,-10.667 -21.33,-21.333 -32,-32 -32.33,0 -64.67,0 -97,0 -21.33,10.667 -42.67,21.333 -64,32 -21.33,-10.667 -42.67,-21.333 -64,-32 -43,0 -86,0 -129,0 -32,21.333 -64,42.667 -96,64 0,-10.667 0,-21.333 0,-32 -21.67,0 -43.33,0 -65,0 10.67,-32.333 21.33,-64.667 32,-97 0,-10.667 0,-21.333 0,-32 11,0 22,0 33,0 32,-10.667 64,-21.333 96,-32 10.67,-10.667 21.33,-21.333 32,-32 10.67,0 21.33,0 32,0 0,-10.667 0,-21.333 0,-32 -10.67,-10.667 -21.33,-21.333 -32,-32 10.67,-11 21.33,-22 32,-33 -21.33,0 -42.67,0 -64,0 0,-10.667 0,-21.333 0,-32 21.33,0 42.67,0 64,0 0,-10.667 0,-21.333 0,-32 32.33,0 64.67,0 97,0 64.33,-43 128.67,-86 193,-129 0,-21.333 0,-42.667 0,-64 -10.67,-10.667 -21.33,-21.333 -32,-32 10.67,-10.667 21.33,-21.333 32,-32 32,-10.667 64,-21.333 96,-32 0,-32.333 0,-64.667 0,-97 -21.33,0 -42.67,0 -64,0 -10.67,-10.667 -21.33,-21.333 -32,-32 21.33,-10.667 42.67,-21.333 64,-32 10.67,-10.667 21.33,-21.333 32,-32 10.67,10.667 21.33,21.333 32,32 32.33,-21.333 64.67,-42.667 97,-64 10.67,-11 21.33,-22 32,-33 10.67,0 21.33,0 32,0 11.42,11.733 22.75,23.552 34.23,35.229 9.92,9.924 19.85,19.847 29.77,29.771 0,-10.667 0,-21.333 0,-32 10.67,-11 21.33,-22 32,-33 11,0 22,0 33,0 10.67,-21.333 21.33,-42.667 32,-64 -10.67,0 -21.33,0 -32,0 0,-10.667 0,-21.333 0,-32 32,-43 64,-86 96,-129 -21.33,-21.333 -42.67,-42.667 -64,-64 0,-32 0,-64 0,-96 -32.33,-32.333 -64.67,-64.667 -97,-97 -10.67,-21.333 -21.33,-42.667 -32,-64 0,-10.667 0,-21.333 0,-32 -16.01,-16.026 -32.09,-31.977 -47.92,-48.171 -16.03,-16.277 -32.05,-32.553 -48.08,-48.829 0,-42.667 0,-85.333 0,-128 21.33,-11 42.67,-22 64,-33 21.33,-64 42.67,-128 64,-192 21.67,-21.667 43.33,-43.333 65,-65 32,-21.333 64,-42.667 96,-64 21.33,-32.333 42.67,-64.667 64,-97 32.33,0 64.67,0 97,0 21.33,-21.333 42.67,-42.667 64,-64 32.33,0 64.67,0 97,0 21.33,-21.333 42.67,-42.667 64,-64 43,-10.667 86,-21.333 129,-32 0,-10.667 0,-21.333 0,-32 32,-11 64,-22 96,-33 10.67,11 21.33,22 32,33 21.33,-21.667 42.67,-43.333 64,-65 0,-10.667 0,-21.333 0,-32 -10.67,0 -21.33,0 -32,0 0,-21.333 0,-42.667 0,-64 -21.33,-10.667 -42.67,-21.333 -64,-32 -10.67,-11 -21.33,-22 -32,-33 -10.67,-21.333 -21.33,-42.667 -32,-64 10.67,-10.667 21.33,-21.333 32,-32 0,-10.667 0,-21.333 0,-32 -21.33,0 -42.67,0 -64,0 21.33,-32.333 42.67,-64.667 64,-97 -21.33,-21.333 -42.67,-42.667 -64,-64 -32.33,-21.333 -64.67,-42.667 -97,-64 -10.67,0 -21.33,0 -32,0 0,10.667 0,21.333 0,32 -21.33,0 -42.67,0 -64,0 -10.67,-21.333 -21.33,-42.667 -32,-64 0,-10.667 0,-21.333 0,-32 -21.67,-11 -43.33,-22 -65,-33 -32,0 -64,0 -96,0 -21.67,-10.667 -43.33,-21.333 -65,-32 -10.67,-10.667 -21.33,-21.333 -32,-32 -10.67,10.667 -21.33,21.333 -32,32 -10.67,-21.333 -21.33,-42.667 -32,-64 -32.33,0 -64.67,0 -97,0 -11.77,-23.601 -23.64,-47.152 -35.34,-70.787 -9.55,-19.404 -19.11,-38.809 -28.66,-58.213 -32.05,-21.351 -64.07,-42.749 -96.14,-64.07 -21.66,-10.679 -43.35,-21.308 -64.99,-32.018 -31.96,-21.638 -63.91,-43.275 -95.87,-64.912 -75,0 -150,0 -225,0 -10.67,21.667 -21.33,43.333 -32,65 -75,0 -150,0 -225,0 -21.68,32.051 -43.42,64.072 -65.07,96.141 -10.64,21.62 -21.29,43.239 -31.93,64.859 10.67,21.333 21.33,42.667 32,64 -64.33,32 -128.67,64 -193,96 -32,0 -64,0 -96,0 -10.67,11 -21.33,22 -32,33 -21.33,-11 -42.67,-22 -64,-33 -11,0 -22,0 -33,0 -10.67,11 -21.33,22 -32,33 -42.67,-11 -85.33,-22 -128,-33 -32.33,11 -64.67,22 -97,33 -10.67,10.667 -21.33,21.333 -32,32 10.67,21.333 21.33,42.667 32,64 0,21.333 0,42.667 0,64 -10.67,10.667 -21.33,21.333 -32,32 -10.67,32.333 -21.33,64.667 -32,97 -10.67,0 -21.33,0 -32,0 -10.67,10.667 -21.33,21.333 -32,32 0,10.667 0,21.333 0,32 -11.73,11.42 -23.55,22.752 -35.23,34.229 -9.92,9.924 -19.85,19.847 -29.77,29.771 0,43 0,86 0,129 -44.72,14.88 -89.39,29.88 -134.17,44.591 -19.61,6.469 -39.22,12.939 -58.83,19.409 -32,21.667 -64,43.333 -96,65 -32.33,10.667 -64.67,21.333 -97,32 0,21.333 0,42.667 0,64 -10.67,10.667 -21.33,21.333 -32,32 -21.33,10.667 -42.67,21.333 -64,32 -21.33,-10.667 -42.67,-21.333 -64,-32 -11,10.667 -22,21.333 -33,32 -10.67,-21.333 -21.33,-42.667 -32,-64 -32,21.333 -64,42.667 -96,64 0,21.667 0,43.333 0,65 -43,10.667 -86,21.333 -129,32 0,32 0,64 0,96 -21.33,11 -42.67,22 -64,33 -10.67,0 -21.33,0 -32,0 -10.67,32 -21.33,64 -32,96 -11,0 -22,0 -33,0 -10.67,21.333 -21.33,42.667 -32,64 -10.67,10.667 -21.33,21.333 -32,32 0,11 0,22 0,33 -10.67,10.667 -21.33,21.333 -32,32 21.33,10.667 42.67,21.333 64,32 10.67,10.667 21.33,21.333 32,32 0,21.333 0,42.667 0,64 -21.33,11 -42.67,22 -64,33 0,10.667 0,21.333 0,32 -21.33,-21.667 -42.67,-43.333 -64,-65 0,-21.333 0,-42.667 0,-64 -10.67,0 -21.33,0 -32,0 0,-21.333 0,-42.667 0,-64 -10.67,-10.667 -21.33,-21.333 -32,-32 -21.67,0 -43.33,0 -65,0 -21.33,32 -42.67,64 -64,96 -53.67,0 -107.33,0 -161,0 -21.33,10.667 -42.67,21.333 -64,32 -10.69,10.714 -21.43,21.388 -32.09,32.126 -32.31,42.958 -64.61,85.916 -96.91,128.874 -21.33,10.667 -42.67,21.333 -64,32 -10.67,10.667 -21.33,21.333 -32,32 11.39,11.431 22.86,22.775 34.19,34.263 9.94,10.246 19.87,20.491 29.81,30.737 -53.67,0 -107.33,0 -161,0 0,32 0,64 0,96 -32,21.333 -64,42.667 -96,64 0,21.667 0,43.333 0,65 -21.33,10.667 -42.67,21.333 -64,32 -11.73,11.42 -23.55,22.752 -35.23,34.229 -9.92,9.924 -19.85,19.847 -29.77,29.771 -21.33,-10.667 -42.67,-21.333 -64,-32 -10.67,10.667 -21.33,21.333 -32,32 -21.33,0 -42.67,0 -64,0 0,-21.333 0,-42.667 0,-64 -21.72,-10.677 -43.42,-21.406 -65.15,-32.05 -31.95,-10.65 -63.9,-21.3 -95.85,-31.95 -43,32 -86,64 -129,96 -10.67,10.667 -21.33,21.333 -32,32 0,43 0,86 0,129 10.67,21.333 21.33,42.667 32,64 0,10.667 0,21.333 0,32 -10.67,10.667 -21.33,21.333 -32,32 -64.33,-10.667 -128.67,-21.333 -193,-32 -10.67,-10.667 -21.33,-21.333 -32,-32 0,-10.667 0,-21.333 0,-32 -21.33,-21.333 -42.67,-42.667 -64,-64 -11,-21.667 -22,-43.333 -33,-65 -10.67,0 -21.33,0 -32,0 -21.33,-10.667 -42.67,-21.333 -64,-32 -21.33,21.333 -42.67,42.667 -64,64 -32.38,21.684 -64.74,43.415 -97.14,65.07 -21.29,10.644 -42.57,21.287 -63.86,31.93 -21.33,21.333 -42.67,42.667 -64,64 -21.67,0 -43.33,0 -65,0 0,10.667 0,21.333 0,32 -42.67,0 -85.33,0 -128,0 -21.67,11 -43.33,22 -65,33 -11.42,-11.733 -22.75,-23.552 -34.23,-35.229 -20.59,-20.59 -41.18,-41.181 -61.77,-61.771 -10.67,-43 -21.33,-86 -32,-129 10.67,-21.333 21.33,-42.667 32,-64 -10.67,-10.667 -21.33,-21.333 -32,-32 10.67,-10.667 21.33,-21.333 32,-32 -32,0 -64,0 -96,0 21.33,-32.333 42.67,-64.667 64,-97 -21.33,-21.333 -42.67,-42.667 -64,-64 10.67,-21.333 21.33,-42.667 32,-64 -10.67,0 -21.33,0 -32,0 0,-32.333 0,-64.667 0,-97 -11,-10.667 -22,-21.333 -33,-32 -10.67,10.667 -21.33,21.333 -32,32 -10.67,-10.667 -21.33,-21.333 -32,-32 -10.67,10.667 -21.33,21.333 -32,32 -21.33,-32 -42.67,-64 -64,-96 -11.73,11.42 -23.55,22.752 -35.23,34.229 -9.92,9.924 -19.85,19.847 -29.77,29.771 0,10.667 0,21.333 0,32 -10.67,10.667 -21.33,21.333 -32,32 -43,11 -86,22 -129,33 11,10.667 22,21.333 33,32 -11,21.333 -22,42.667 -33,64 -32,0 -64,0 -96,0 -10.67,-21.333 -21.33,-42.667 -32,-64 -32.33,0 -64.67,0 -97,0 -21.33,21.333 -42.67,42.667 -64,64 -32,0 -64,0 -96,0 -10.67,10.667 -21.33,21.333 -32,32 0,21.667 0,43.333 0,65 -32.33,0 -64.67,0 -97,0 -21.33,10.667 -42.67,21.333 -64,32 -21.67,-10.667 -43.33,-21.333 -65,-32 -32,10.667 -64,21.333 -96,32 -10.67,-10.667 -21.33,-21.333 -32,-32 -10.67,10.667 -21.33,21.333 -32,32 0,-21.667 0,-43.333 0,-65 -11,21.667 -22,43.333 -33,65 -21.33,0 -42.67,0 -64,0 0,-21.667 0,-43.333 0,-65 -21.33,-10.667 -42.67,-21.333 -64,-32 0,-21.333 0,-42.667 0,-64 -10.67,-21.333 -21.33,-42.667 -32,-64 -10.67,0 -21.33,0 -32,0 0,-32.333 0,-64.667 0,-97 -32.33,-10.667 -64.67,-21.333 -97,-32 0,-10.667 0,-21.333 0,-32 -10.67,0 -21.33,0 -32,0 0,-10.667 0,-21.333 0,-32 -21.33,-21.667 -42.67,-43.333 -64,-65 -10.67,0 -21.33,0 -32,0 -21.67,-42.667 -43.33,-85.333 -65,-128 -21.33,0 -42.67,0 -64,0 -10.67,-21.667 -21.33,-43.333 -32,-65 -21.67,0 -43.33,0 -65,0 0,-10.667 0,-21.333 0,-32 11,-10.667 22,-21.333 33,-32 0,-32 0,-64 0,-96 10.67,-10.667 21.33,-21.333 32,-32 32,0 64,0 96,0 10.67,-11 21.33,-22 32,-33 32.33,-10.667 64.67,-21.333 97,-32 0,-10.667 0,-21.333 0,-32 10.67,-10.667 21.33,-21.333 32,-32 -10.67,-10.667 -21.33,-21.333 -32,-32 10.67,-10.667 21.33,-21.333 32,-32 0,-21.667 0,-43.333 0,-65 -10.67,-10.667 -21.33,-21.333 -32,-32 21.33,0 42.67,0 64,0 -10.67,-10.667 -21.33,-21.333 -32,-32 10.67,-21.333 21.33,-42.667 32,-64 21.33,-21.667 42.67,-43.333 64,-65 -10.67,-21.333 -21.33,-42.667 -32,-64 -10.67,-10.667 -21.33,-21.333 -32,-32 0,-10.667 0,-21.333 0,-32 64.33,-10.667 128.67,-21.333 193,-32 0,-11 0,-22 0,-33 10.67,-10.667 21.33,-21.333 32,-32 0,-10.667 0,-21.333 0,-32 21.33,0 42.67,0 64,0 0,-32 0,-64 0,-96 -21.33,0 -42.67,0 -64,0 10.67,-21.667 21.33,-43.333 32,-65 10.67,-10.667 21.33,-21.333 32,-32 11,-32 22,-64 33,-96 21.33,-32.333 42.67,-64.667 64,-97 21.33,-21.333 42.67,-42.667 64,-64 0,-43 0,-86 0,-129 10.67,-10.667 21.33,-21.333 32,-32 11,-21.333 22,-42.667 33,-64 -11,-32.333 -22,-64.667 -33,-97 0,-21.333 0,-42.667 0,-64 -10.67,0 -21.33,0 -32,0 -10.67,-21.333 -21.33,-42.667 -32,-64 10.67,-10.667 21.33,-21.333 32,-32 -10.67,-10.667 -21.33,-21.333 -32,-32 -43,21.333 -86,42.667 -129,64 -21.33,-10.667 -42.67,-21.333 -64,-32 -10.67,-10.667 -21.33,-21.333 -32,-32 -21.33,-11 -42.67,-22 -64,-33 0,-21.333 0,-42.667 0,-64 -10.67,-10.667 -21.33,-21.333 -32,-32 10.67,-21.333 21.33,-42.667 32,-64 -10.67,-10.667 -21.33,-21.333 -32,-32 -21.67,0 -43.33,0 -65,0 -10.67,-11 -21.33,-22 -32,-33 -32,0 -64,0 -96,0 -32.33,11 -64.67,22 -97,33 0,-21.667 0,-43.333 0,-65 10.67,-10.667 21.33,-21.333 32,-32 -10.67,-10.667 -21.33,-21.333 -32,-32 10.67,-10.667 21.33,-21.333 32,-32 0,-43 0,-86 0,-129 11,-10.667 22,-21.333 33,-32 10.68,-21.386 21.41,-42.749 32.05,-64.15 10.65,-32.283 21.3,-64.567 31.95,-96.85 0,-10.667 0,-21.333 0,-32 -21.75,-21.729 -43.46,-43.509 -65.24,-65.207 -10.59,-10.264 -21.17,-20.529 -31.76,-30.793 11,-21.667 22,-43.333 33,-65 0,-10.667 0,-21.333 0,-32 -32.33,-10.667 -64.67,-21.333 -97,-32 0,-21.333 0,-42.667 0,-64 -32,-10.667 -64,-21.333 -96,-32 -11,0 -22,0 -33,0 -21.37,-11.034 -42.77,-22.028 -64.13,-33.087 -31.96,-21.305 -63.91,-42.609 -95.87,-63.913 -11,0 -22,0 -33,0 -10.67,-10.667 -21.33,-21.333 -32,-32 10.67,-10.667 21.33,-21.333 32,-32 11,0 22,0 33,0 10.67,-21.667 21.33,-43.333 32,-65 10.67,0 21.33,0 32,0 -10.67,-10.667 -21.33,-21.333 -32,-32 0,-10.667 0,-21.333 0,-32 -21.67,0 -43.33,0 -65,0 -10.67,-21.333 -21.33,-42.667 -32,-64 21.67,-10.667 43.33,-21.333 65,-32 -11,-21.667 -22,-43.333 -33,-65 0,-21.333 0,-42.667 0,-64 -10.67,-10.667 -21.33,-21.333 -32,-32 z"
         style="fill:#999999;stroke:#ffffff;stroke-width:282.23678589;stroke-miterlimit:4;stroke-dasharray:none;stroke-opacity:1" />
    </g>
  </g>
</svg>
