<?xml version="1.0" encoding="UTF-8" standalone="no"?>
<!-- Created with Inkscape (http://www.inkscape.org/) -->

<svg
   xmlns:dc="http://purl.org/dc/elements/1.1/"
   xmlns:cc="http://creativecommons.org/ns#"
   xmlns:rdf="http://www.w3.org/1999/02/22-rdf-syntax-ns#"
   xmlns:svg="http://www.w3.org/2000/svg"
   xmlns="http://www.w3.org/2000/svg"
   xmlns:sodipodi="http://sodipodi.sourceforge.net/DTD/sodipodi-0.dtd"
   xmlns:inkscape="http://www.inkscape.org/namespaces/inkscape"
   width="31.704063mm"
   height="11.097112mm"
   viewBox="0 0 31.704063 11.097112"
   version="1.1"
   id="svg346"
   inkscape:version="0.92.5 (2060ec1f9f, 2020-04-08)"
   sodipodi:docname="pe.svg">
  <defs
     id="defs340" />
  <sodipodi:namedview
     id="base"
     pagecolor="#ffffff"
     bordercolor="#666666"
     borderopacity="1.0"
     inkscape:pageopacity="0.0"
     inkscape:pageshadow="2"
     inkscape:zoom="0.35"
     inkscape:cx="-1177.2297"
     inkscape:cy="-73.314795"
     inkscape:document-units="mm"
     inkscape:current-layer="layer1"
     showgrid="false"
     inkscape:window-width="1366"
     inkscape:window-height="704"
     inkscape:window-x="0"
     inkscape:window-y="0"
     inkscape:window-maximized="1" />
  <metadata
     id="metadata343">
    <rdf:RDF>
      <cc:Work
         rdf:about="">
        <dc:format>image/svg+xml</dc:format>
        <dc:type
           rdf:resource="http://purl.org/dc/dcmitype/StillImage" />
        <dc:title></dc:title>
      </cc:Work>
    </rdf:RDF>
  </metadata>
  <g
     inkscape:label="Layer 1"
     inkscape:groupmode="layer"
     id="layer1"
     transform="translate(-384.04678,-118.33835)">
    <g
       transform="matrix(9.9994773e-4,0,0,9.9994773e-4,224.21818,55.559749)"
       id="Pernambuco">
      <path
         inkscape:connector-curvature="0"
         id="path82"
         d="m 160271,69901 c 32,0 64,0 96,0 43,-21.667 86,-43.333 129,-65 10.74,-10.807 21.62,-21.497 32.28,-32.376 31.91,-42.542 63.81,-85.083 95.72,-127.624 53.67,0 107.33,0 161,0 21.67,-11 43.33,-22 65,-33 10.67,-10.667 21.33,-21.333 32,-32 21.33,0 42.67,0 64,0 21.33,-21.333 42.67,-42.667 64,-64 -10.67,-32 -21.33,-64 -32,-96 0,-21.667 0,-43.333 0,-65 10.67,0 21.33,0 32,0 10.67,-10.667 21.33,-21.333 32,-32 21.67,0 43.33,0 65,0 32,-32 64,-64 96,-96 21.67,-43 43.33,-86 65,-129 0,-21.333 0,-42.667 0,-64 21.33,0 42.67,0 64,0 10.67,10.667 21.33,21.333 32,32 10.67,0 21.33,0 32,0 21.33,-10.667 42.67,-21.333 64,-32 11,-21.667 22,-43.333 33,-65 10.67,0 21.33,0 32,0 10.67,-10.667 21.33,-21.333 32,-32 10.67,-32 21.33,-64 32,-96 0,-32.333 0,-64.667 0,-97 43,11 86,22 129,33 10.7,-53.739 21.33,-107.497 32.07,-161.223 10.65,-32.259 21.29,-64.518 31.93,-96.777 53.67,-10.667 107.33,-21.333 161,-32 10.67,-32 21.33,-64 32,-96 10.67,0 21.33,0 32,0 21.33,-10.667 42.67,-21.333 64,-32 21.67,21.333 43.33,42.667 65,64 0,10.667 0,21.333 0,32 10.74,10.698 21.41,21.492 32.2,32.131 31.93,21.289 63.87,42.579 95.8,63.869 21.67,21.667 43.33,43.333 65,65 21.33,-21.667 42.67,-43.333 64,-65 10.67,-21.333 21.33,-42.667 32,-64 0,-42.667 0,-85.333 0,-128 10.67,-11 21.33,-22 32,-33 10.67,0 21.33,0 32,0 0,-32 0,-64 0,-96 -10.67,0 -21.33,0 -32,0 10.67,-21.333 21.33,-42.667 32,-64 32.33,0 64.67,0 97,0 10.67,10.667 21.33,21.333 32,32 10.67,21.333 21.33,42.667 32,64 0,10.667 0,21.333 0,32 32.33,0 64.67,0 97,0 32,-32 64,-64 96,-96 -10.67,-43 -21.33,-86 -32,-129 10.67,-10.667 21.33,-21.333 32,-32 0,-10.667 0,-21.333 0,-32 43,-10.667 86,-21.333 129,-32 0,-21.667 0,-43.333 0,-65 10.67,0 21.33,0 32,0 0,-21.333 0,-42.667 0,-64 10.67,-10.667 21.33,-21.333 32,-32 -10.67,-43 -21.33,-86 -32,-129 21.33,-10.667 42.67,-21.333 64,-32 10.67,-10.667 21.33,-21.333 32,-32 32.33,-10.667 64.67,-21.333 97,-32 21.33,-21.333 42.67,-42.667 64,-64 32,0 64,0 96,0 0,-11 0,-22 0,-33 11,-21.333 22,-42.667 33,-64 10.67,-10.667 21.33,-21.333 32,-32 10.67,-21.333 21.33,-42.667 32,-64 21.33,0 42.67,0 64,0 10.67,-10.667 21.33,-21.333 32,-32 0,-21.667 0,-43.333 0,-65 11,-10.667 22,-21.333 33,-32 21.33,0 42.67,0 64,0 10.67,-10.667 21.33,-21.333 32,-32 0,-10.667 0,-21.333 0,-32 10.67,-10.667 21.33,-21.333 32,-32 53.67,21.333 107.33,42.667 161,64 0,-10.667 0,-21.333 0,-32 10.67,-10.667 21.33,-21.333 32,-32 0,-21.667 0,-43.333 0,-65 -10.67,-10.667 -21.33,-21.333 -32,-32 -10.67,-21.333 -21.33,-42.667 -32,-64 10.71,-43.07 21.33,-86.165 32.09,-129.219 21.34,-53.745 42.75,-107.467 64.06,-161.227 10.62,-31.852 21.23,-63.703 31.85,-95.554 53.67,-96.333 107.33,-192.667 161,-289 0,-32.489 0,-64.983 0,-97.469 10.65,-128.589 21.35,-257.176 31.96,-385.766 0,-21.255 0,-42.51 0,-63.765 -10.67,-32 -21.33,-64 -32,-96 0,-11 0,-22 0,-33 -32,-32 -64,-64 -96,-96 -10.67,0 -21.33,0 -32,0 -86,-32.333 -172,-64.667 -258,-97 -42.67,-10.667 -85.33,-21.333 -128,-32 -32.33,-32 -64.67,-64 -97,-96 -10.67,-64.333 -21.33,-128.667 -32,-193 21.33,-64.333 42.67,-128.667 64,-193 32.33,-64.333 64.67,-128.667 97,-193 0,-75 0,-150 0,-225 -10.67,-10.667 -21.33,-21.333 -32,-32 0,-10.667 0,-21.333 0,-32 -53.73,-64.384 -107.41,-128.806 -161.17,-193.166 -10.61,-10.612 -21.22,-21.223 -31.83,-31.834 -32.33,-86 -64.67,-172 -97,-258 0,-21.333 0,-42.667 0,-64 10.67,-21.333 21.33,-42.667 32,-64 53.67,-10.667 107.33,-21.333 161,-32 21.67,-11 43.33,-22 65,-33 10.67,-21.333 21.33,-42.667 32,-64 160.67,-64.333 321.33,-128.667 482,-193 75,-10.667 150,-21.333 225,-32 203.67,0 407.33,0 611,0 85.67,-21.333 171.33,-42.667 257,-64 43,21.333 86,42.667 129,64 21.33,0 42.67,0 64,0 10.7,10.742 21.49,21.405 32.13,32.196 42.96,64.268 85.91,128.536 128.87,192.804 150.23,-32.036 300.45,-64.125 450.69,-96.127 117.77,-21.625 235.54,-43.249 353.31,-64.873 85.67,0 171.33,0 257,0 21.33,-21.333 42.67,-42.667 64,-64 43,10.667 86,21.333 129,32 32,-10.667 64,-21.333 96,-32 75,-85.667 150,-171.333 225,-257 11,0 22,0 33,0 21.33,10.667 42.67,21.333 64,32 53.67,-21.333 107.33,-42.667 161,-64 10.67,-10.667 21.33,-21.333 32,-32 32,10.667 64,21.333 96,32 64.33,0 128.67,0 193,0 53.82,-10.682 107.64,-21.426 161.47,-32.068 74.84,-10.978 149.69,-21.955 224.53,-32.932 32.33,0 64.67,0 97,0 32,-10.667 64,-21.333 96,-32 10.67,0 21.33,0 32,0 21.33,21.667 42.67,43.333 64,65 32.33,21.333 64.67,42.667 97,64 32,0 64,0 96,0 10.67,10.667 21.33,21.333 32,32 11,0 22,0 33,0 21.33,32.333 42.67,64.667 64,97 21.33,21.333 42.67,42.667 64,64 32.45,21.436 64.95,42.806 97.38,64.284 42.54,32.239 85.08,64.477 127.62,96.716 10.67,0 21.33,0 32,0 21.67,21.333 43.33,42.667 65,64 10.67,21.333 21.33,42.667 32,64 21.33,21.333 42.67,42.667 64,64 43,11 86,22 129,33 10.67,0 21.33,0 32,0 61.32,30.459 122.72,60.764 183.93,91.464 3.11,1.475 6.15,3.237 9.31,4.536 10.58,0 21.17,0 31.76,0 43.05,32.397 86.15,64.728 129.17,97.166 33.92,33.922 67.8,67.889 101.91,101.62 30.31,30.072 60.61,60.143 90.92,90.214 21.33,11 42.67,22 64,33 0,10.74 -0.1,21.5 0.1,32.228 10.64,42.591 21.29,85.181 31.94,127.772 21.33,32.333 42.67,64.667 64,97 11,10.667 22,21.333 33,32 10.67,0 21.33,0 32,0 10.67,10.667 21.33,21.333 32,32 -10.67,0 -21.33,0 -32,0 -22.15,21.851 -44.39,43.611 -66.47,65.52 -10.18,10.494 -20.35,20.987 -30.53,31.48 0,32 0,64 0,96 -10.67,10.667 -21.33,21.333 -32,32 0,21.667 0,43.333 0,65 43,0 86,0 129,0 10.67,-11 21.33,-22 32,-33 10.67,11 21.33,22 32,33 0,10.667 0,21.333 0,32 32,10.667 64,21.333 96,32 0,32 0,64 0,96 -10.67,10.667 -21.33,21.333 -32,32 21.67,0 43.33,0 65,0 10.67,-10.667 21.33,-21.333 32,-32 21.33,0 42.67,0 64,0 21.33,-10.667 42.67,-21.333 64,-32 32.33,10.667 64.67,21.333 97,32 21.33,32.333 42.67,64.667 64,97 43,0 86,0 129,0 21.33,10.667 42.67,21.333 64,32 10.67,32 21.33,64 32,96 32.33,21.667 64.67,43.333 97,65 0,21.333 0,42.667 0,64 10.67,21.333 21.33,42.667 32,64 10.67,43 21.33,86 32,129 0,21.333 0,42.667 0,64 10.67,21.667 21.33,43.333 32,65 -21.33,21.333 -42.67,42.667 -64,64 10.67,10.667 21.33,21.333 32,32 43,-32 86,-64 129,-96 21.33,-32.333 42.67,-64.667 64,-97 43,10.667 86,21.333 129,32 10.67,-10.667 21.33,-21.333 32,-32 10.67,0 21.33,0 32,0 10.67,32.333 21.33,64.667 32,97 0,10.667 0,21.333 0,32 32,10.667 64,21.333 96,32 11,-10.667 22,-21.333 33,-32 21.33,0 42.67,0 64,0 0,-21.667 0,-43.333 0,-65 10.67,-10.667 21.33,-21.333 32,-32 21.33,-42.667 42.67,-85.333 64,-128 -10.67,-21.667 -21.33,-43.333 -32,-65 10.67,-21.333 21.33,-42.667 32,-64 0,-21.333 0,-42.667 0,-64 10.67,0 21.33,0 32,0 11,-10.667 22,-21.333 33,-32 10.67,10.667 21.33,21.333 32,32 10.67,0 21.33,0 32,0 0,-21.667 0,-43.333 0,-65 21.33,0 42.67,0 64,0 10.67,11 21.33,22 32,33 21.67,-11 43.33,-22 65,-33 0,-32 0,-64 0,-96 21.33,-21.333 42.67,-42.667 64,-64 21.33,10.667 42.67,21.333 64,32 53.67,0 107.33,0 161,0 10.67,-32.333 21.33,-64.667 32,-97 0,-21.333 0,-42.667 0,-64 -21.33,-10.667 -42.67,-21.333 -64,-32 10.67,-21.333 21.33,-42.667 32,-64 10.67,0 21.33,0 32,0 0,10.667 0,21.333 0,32 43,0 86,0 129,0 10.67,-10.667 21.33,-21.333 32,-32 0,-11 0,-22 0,-33 10.67,11 21.33,22 32,33 21.33,-11 42.67,-22 64,-33 21.67,0 43.33,0 65,0 10.67,-21.333 21.33,-42.667 32,-64 10.67,-10.667 21.33,-21.333 32,-32 -10.67,-10.667 -21.33,-21.333 -32,-32 21.33,-10.667 42.67,-21.333 64,-32 10.67,0 21.33,0 32,0 0,-11 0,-22 0,-33 21.67,0 43.33,0 65,0 10.67,21.667 21.33,43.333 32,65 21.33,0 42.67,0 64,0 21.67,42.667 43.33,85.333 65,128 10.67,0 21.33,0 32,0 21.33,21.667 42.67,43.333 64,65 0,10.667 0,21.333 0,32 10.67,0 21.33,0 32,0 0,10.667 0,21.333 0,32 32.33,10.667 64.67,21.333 97,32 0,32.333 0,64.667 0,97 10.67,0 21.33,0 32,0 10.67,21.333 21.33,42.667 32,64 0,21.333 0,42.667 0,64 21.33,10.667 42.67,21.333 64,32 0,21.667 0,43.333 0,65 21.33,0 42.67,0 64,0 11,-21.667 22,-43.333 33,-65 0,21.667 0,43.333 0,65 10.67,-10.667 21.33,-21.333 32,-32 10.67,10.667 21.33,21.333 32,32 32,-10.667 64,-21.333 96,-32 21.67,10.667 43.33,21.333 65,32 21.33,-10.667 42.67,-21.333 64,-32 32.33,0 64.67,0 97,0 0,-21.667 0,-43.333 0,-65 10.67,-10.667 21.33,-21.333 32,-32 32,0 64,0 96,0 21.33,-21.333 42.67,-42.667 64,-64 32.33,0 64.67,0 97,0 10.67,21.333 21.33,42.667 32,64 32,0 64,0 96,0 11,-21.333 22,-42.667 33,-64 -11,-10.667 -22,-21.333 -33,-32 43,-11 86,-22 129,-33 10.67,-10.667 21.33,-21.333 32,-32 0,-10.667 0,-21.333 0,-32 15.69,-15.63 31.2,-31.433 47.2,-46.742 5.94,-5.753 11.87,-11.505 17.8,-17.258 21.33,32 42.67,64 64,96 10.67,-10.667 21.33,-21.333 32,-32 10.67,10.667 21.33,21.333 32,32 10.67,-10.667 21.33,-21.333 32,-32 11,10.667 22,21.333 33,32 0,32.333 0,64.667 0,97 10.67,0 21.33,0 32,0 -10.67,21.333 -21.33,42.667 -32,64 21.33,21.333 42.67,42.667 64,64 -21.33,32.333 -42.67,64.667 -64,97 32,0 64,0 96,0 -10.67,10.667 -21.33,21.333 -32,32 10.67,10.667 21.33,21.333 32,32 -10.67,21.333 -21.33,42.667 -32,64 10.67,43 21.33,86 32,129 22.14,22.19 44.38,44.28 66.46,66.534 9.84,10.155 19.69,20.311 29.54,30.466 21.67,-11 43.33,-22 65,-33 42.67,0 85.33,0 128,0 0,-10.667 0,-21.333 0,-32 21.67,0 43.33,0 65,0 21.33,-21.333 42.67,-42.667 64,-64 21.39,-10.719 42.83,-21.369 64.2,-32.131 32.26,-21.623 64.53,-43.246 96.8,-64.869 21.33,-21.333 42.67,-42.667 64,-64 21.33,10.667 42.67,21.333 64,32 10.67,0 21.33,0 32,0 11,21.667 22,43.333 33,65 21.33,21.333 42.67,42.667 64,64 0,10.667 0,21.333 0,32 10.67,10.667 21.33,21.333 32,32 64.33,10.667 128.67,21.333 193,32 10.67,-10.667 21.33,-21.333 32,-32 0,-10.667 0,-21.333 0,-32 -10.67,-21.333 -21.33,-42.667 -32,-64 0,-43 0,-86 0,-129 10.74,-10.705 21.41,-21.479 32.19,-32.14 42.94,-31.954 85.87,-63.907 128.81,-95.86 32.07,10.711 64.16,21.344 96.21,32.104 21.6,10.632 43.19,21.264 64.79,31.896 0,21.333 0,42.667 0,64 21.33,0 42.67,0 64,0 10.67,-10.667 21.33,-21.333 32,-32 21.33,10.667 42.67,21.333 64,32 15.69,-15.63 31.2,-31.433 47.2,-46.742 6.02,-5.768 11.92,-11.693 18.01,-17.363 21.26,-10.632 42.53,-21.263 63.79,-31.895 0,-21.667 0,-43.333 0,-65 32,-21.333 64,-42.667 96,-64 0,-32 0,-64 0,-96 53.67,0 107.33,0 161,0 -15.61,-16.039 -31.04,-32.253 -46.97,-47.974 -5.68,-5.675 -11.35,-11.351 -17.03,-17.026 10.67,-10.667 21.33,-21.333 32,-32 21.33,-10.667 42.67,-21.333 64,-32 32.4,-43.048 64.73,-86.154 97.17,-129.166 10.61,-10.612 21.22,-21.223 31.83,-31.834 21.33,-10.667 42.67,-21.333 64,-32 53.67,0 107.33,0 161,0 21.33,-32 42.67,-64 64,-96 21.67,0 43.33,0 65,0 10.67,10.667 21.33,21.333 32,32 0,21.333 0,42.667 0,64 10.67,0 21.33,0 32,0 0,21.333 0,42.667 0,64 21.33,21.667 42.67,43.333 64,65 0,-10.667 0,-21.333 0,-32 21.33,-11 42.67,-22 64,-33 0,-21.333 0,-42.667 0,-64 -10.67,-10.667 -21.33,-21.333 -32,-32 -21.33,-10.667 -42.67,-21.333 -64,-32 10.67,-10.667 21.33,-21.333 32,-32 0,-11 0,-22 0,-33 10.67,-10.667 21.33,-21.333 32,-32 10.67,-21.333 21.33,-42.667 32,-64 11,0 22,0 33,0 10.67,-32 21.33,-64 32,-96 10.67,0 21.33,0 32,0 21.33,-11 42.67,-22 64,-33 0,-32 0,-64 0,-96 43,-10.667 86,-21.333 129,-32 0,-21.667 0,-43.333 0,-65 32,-21.333 64,-42.667 96,-64 10.67,21.333 21.33,42.667 32,64 11,-10.667 22,-21.333 33,-32 21.33,10.667 42.67,21.333 64,32 21.33,-10.667 42.67,-21.333 64,-32 10.67,-10.667 21.33,-21.333 32,-32 0,-21.333 0,-42.667 0,-64 32.33,-10.667 64.67,-21.333 97,-32 32,-21.667 64,-43.333 96,-65 52.07,-17.177 104.16,-34.306 156.15,-51.718 12.29,-4.094 24.57,-8.188 36.85,-12.282 0,-43 0,-86 0,-129 15.69,-15.63 31.2,-31.433 47.2,-46.742 5.94,-5.753 11.87,-11.505 17.8,-17.258 0,-10.667 0,-21.333 0,-32 10.67,-10.667 21.33,-21.333 32,-32 10.67,0 21.33,0 32,0 10.67,-32.333 21.33,-64.667 32,-97 10.67,-10.667 21.33,-21.333 32,-32 0,-21.333 0,-42.667 0,-64 -10.67,-21.333 -21.33,-42.667 -32,-64 10.67,-10.667 21.33,-21.333 32,-32 32.33,-11 64.67,-22 97,-33 42.67,11 85.33,22 128,33 10.67,-11 21.33,-22 32,-33 11,0 22,0 33,0 21.33,11 42.67,22 64,33 10.67,-11 21.33,-22 32,-33 32,0 64,0 96,0 64.33,-32 128.67,-64 193,-96 -10.67,-21.333 -21.33,-42.667 -32,-64 10.72,-21.726 21.37,-43.496 32.13,-65.195 21.62,-31.935 43.25,-63.87 64.87,-95.805 75,0 150,0 225,0 10.67,-21.667 21.33,-43.333 32,-65 75,0 150,0 225,0 32.08,21.692 64.11,43.459 96.21,65.104 21.66,10.684 43.35,21.298 64.99,32.027 31.93,21.289 63.87,42.579 95.8,63.869 16.5,33.483 32.89,67.017 49.68,100.356 4.77,9.548 9.55,19.096 14.32,28.644 32.33,0 64.67,0 97,0 10.67,21.333 21.33,42.667 32,64 10.67,-10.667 21.33,-21.333 32,-32 10.67,10.667 21.33,21.333 32,32 21.67,10.667 43.33,21.333 65,32 32,0 64,0 96,0 21.67,11 43.33,22 65,33 0,10.667 0,21.333 0,32 10.67,21.333 21.33,42.667 32,64 21.33,0 42.67,0 64,0 0,-10.667 0,-21.333 0,-32 10.67,0 21.33,0 32,0 32.33,21.333 64.67,42.667 97,64 21.33,21.333 42.67,42.667 64,64 -21.33,32.333 -42.67,64.667 -64,97 21.33,0 42.67,0 64,0 0,10.667 0,21.333 0,32 -10.67,10.667 -21.33,21.333 -32,32 10.67,21.333 21.33,42.667 32,64 10.67,11 21.33,22 32,33 21.33,10.667 42.67,21.333 64,32 0,21.333 0,42.667 0,64 10.67,0 21.33,0 32,0 0,10.667 0,21.333 0,32 -21.33,21.667 -42.67,43.333 -64,65 -10.67,-11 -21.33,-22 -32,-33 -32,11 -64,22 -96,33 0,10.667 0,21.333 0,32 -43,10.667 -86,21.333 -129,32 -21.33,21.333 -42.67,42.667 -64,64 -32.33,0 -64.67,0 -97,0 -21.33,21.333 -42.67,42.667 -64,64 -32.33,0 -64.67,0 -97,0 -21.33,32.333 -42.67,64.667 -64,97 -32,21.333 -64,42.667 -96,64 -21.67,21.667 -43.33,43.333 -65,65 -21.33,64 -42.67,128 -64,192 -21.33,11 -42.67,22 -64,33 0,42.667 0,85.333 0,128 23.68,23.982 47.22,48.094 70.99,71.988 8.34,8.337 16.67,16.675 25.01,25.012 0,10.667 0,21.333 0,32 10.67,21.333 21.33,42.667 32,64 32.33,32.333 64.67,64.667 97,97 0,32 0,64 0,96 21.33,21.333 42.67,42.667 64,64 -32,43 -64,86 -96,129 0,10.667 0,21.333 0,32 10.67,0 21.33,0 32,0 -10.67,21.333 -21.33,42.667 -32,64 -11,0 -22,0 -33,0 -10.67,11 -21.33,22 -32,33 0,10.667 0,21.333 0,32 -15.63,-15.685 -31.43,-31.201 -46.74,-47.203 -5.75,-5.932 -11.51,-11.865 -17.26,-17.797 -10.67,0 -21.33,0 -32,0 -10.74,11.03 -21.4,22.165 -32.2,33.13 -32.26,21.29 -64.53,42.58 -96.8,63.87 -10.67,-10.667 -21.33,-21.333 -32,-32 -10.67,10.667 -21.33,21.333 -32,32 -21.33,10.667 -42.67,21.333 -64,32 10.67,10.667 21.33,21.333 32,32 21.33,0 42.67,0 64,0 0,32.333 0,64.667 0,97 -32,10.667 -64,21.333 -96,32 -10.67,10.667 -21.33,21.333 -32,32 10.67,10.667 21.33,21.333 32,32 0,21.333 0,42.667 0,64 -64.33,43 -128.67,86 -193,129 -32.33,0 -64.67,0 -97,0 0,10.667 0,21.333 0,32 -21.33,0 -42.67,0 -64,0 0,10.667 0,21.333 0,32 21.33,0 42.67,0 64,0 -10.67,11 -21.33,22 -32,33 10.67,10.667 21.33,21.333 32,32 0,10.667 0,21.333 0,32 -10.67,0 -21.33,0 -32,0 -10.67,10.667 -21.33,21.333 -32,32 -32,10.667 -64,21.333 -96,32 -11,0 -22,0 -33,0 0,10.737 0.1,21.506 -0.1,32.223 -10.65,32.259 -21.29,64.518 -31.93,96.777 21.67,0 43.33,0 65,0 0,10.667 0,21.333 0,32 32,-21.333 64,-42.667 96,-64 43,0 86,0 129,0 21.33,10.667 42.67,21.333 64,32 21.33,-10.667 42.67,-21.333 64,-32 32.33,0 64.67,0 97,0 10.67,10.667 21.33,21.333 32,32 10.67,-10.667 21.33,-21.333 32,-32 0,10.667 0,21.333 0,32 21.33,0 42.67,0 64,0 0,-21.667 0,-43.333 0,-65 21.67,-10.667 43.33,-21.333 65,-32 21.33,10.667 42.67,21.333 64,32 0,32.333 0,64.667 0,97 10.67,10.667 21.33,21.333 32,32 10.67,0 21.33,0 32,0 0,10.667 0,21.333 0,32 21.33,0 42.67,0 64,0 11.58,11.304 23.31,22.461 34.8,33.858 10.07,10.381 20.13,20.761 30.2,31.142 0,42.667 0,85.333 0,128 -10.67,32.333 -21.33,64.667 -32,97 0,21.333 0,42.667 0,64 21.33,32 42.67,64 64,96 -10.67,21.667 -21.33,43.333 -32,65 10.67,32 21.33,64 32,96 0,10.667 0,21.333 0,32 -10.67,0 -21.33,0 -32,0 -10.67,21.667 -21.33,43.333 -32,65 10.67,21.333 21.33,42.667 32,64 -21.67,10.667 -43.33,21.333 -65,32 0,10.667 0,21.333 0,32 11,10.667 22,21.333 33,32 21.33,11 42.67,22 64,33 32,-11 64,-22 96,-33 0,64.333 0,128.667 0,193 43,43 86,86 129,129 10.67,32 21.33,64 32,96 64.33,10.667 128.67,21.333 193,32 10.67,0 21.33,0 32,0 32.33,43 64.67,86 97,129 42.67,21.333 85.33,42.667 128,64 21.67,-10.667 43.33,-21.333 65,-32 42.67,0 85.33,0 128,0 10.67,-10.667 21.33,-21.333 32,-32 0,-21.333 0,-42.667 0,-64 32.33,-10.667 64.67,-21.333 97,-32 32,-32.333 64,-64.667 96,-97 11,-21.333 22,-42.667 33,-64 32,0 64,0 96,0 32,-21.333 64,-42.667 96,-64 75,-32.333 150,-64.667 225,-97 11,-21.333 22,-42.667 33,-64 42.67,0 85.33,0 128,0 21.67,10.667 43.33,21.333 65,32 10.67,-10.667 21.33,-21.333 32,-32 10.67,-21.333 21.33,-42.667 32,-64 10.67,-11 21.33,-22 32,-33 32.33,0 64.67,0 97,0 0,-10.667 0,-21.333 0,-32 10.67,0 21.33,0 32,0 -10.67,-10.667 -21.33,-21.333 -32,-32 0,-10.667 0,-21.333 0,-32 21.33,10.667 42.67,21.333 64,32 32,0 64,0 96,0 -10.67,-32 -21.33,-64 -32,-96 10.67,-11 21.33,-22 32,-33 32.49,-10.694 64.95,-21.476 97.46,-32.114 42.51,-10.629 85.03,-21.257 127.54,-31.886 21.67,-10.667 43.33,-21.333 65,-32 0,-21.333 0,-42.667 0,-64 -11,-11 -22,-22 -33,-33 -21.33,0 -42.67,0 -64,0 0,-21.333 0,-42.667 0,-64 -10.67,0 -21.33,0 -32,0 0,-10.667 0,-21.333 0,-32 10.74,-10.698 21.4,-21.493 32.2,-32.13 32.26,-21.29 64.53,-42.58 96.8,-63.87 0,-107.333 0,-214.667 0,-322 10.67,-10.667 21.33,-21.333 32,-32 0,-21.333 0,-42.667 0,-64 10.67,-32.333 21.33,-64.667 32,-97 43,10.667 86,21.333 129,32 10.67,10.667 21.33,21.333 32,32 10.67,-10.667 21.33,-21.333 32,-32 -10.67,-10.667 -21.33,-21.333 -32,-32 10.67,-21.333 21.33,-42.667 32,-64 -10.67,-32.333 -21.33,-64.667 -32,-97 21.33,-21.333 42.67,-42.667 64,-64 21.33,-10.667 42.67,-21.333 64,-32 31.29,15.446 62.68,30.696 93.8,46.476 54.73,27.508 109.47,55.016 164.2,82.524 21.33,-11 42.67,-22 64,-33 10.67,11 21.33,22 32,33 21.33,-11 42.67,-22 64,-33 32.33,0 64.67,0 97,0 0,-10.667 0,-21.333 0,-32 10.67,-21.333 21.33,-42.667 32,-64 10.67,0 21.33,0 32,0 0,-21.333 0,-42.667 0,-64 -10.67,-11 -21.33,-22 -32,-33 10.67,-10.667 21.33,-21.333 32,-32 0,-75 0,-150 0,-225 10.67,-10.667 21.33,-21.333 32,-32 21.67,0 43.33,0 65,0 21.33,-10.667 42.67,-21.333 64,-32 32,0 64,0 96,0 21.67,-10.667 43.33,-21.333 65,-32 10.67,10.667 21.33,21.333 32,32 96.33,0 192.67,0 289,0 10.74,10.698 21.4,21.493 32.2,32.13 32.26,21.29 64.53,42.58 96.8,63.87 32,0 64,0 96,0 10.67,-21.333 21.33,-42.667 32,-64 0,-10.667 0,-21.333 0,-32 -21.33,-10.667 -42.67,-21.333 -64,-32 0,-10.667 0,-21.333 0,-32 10.8,-11.083 21.5,-22.285 32.37,-33.293 53.54,-42.569 107.09,-85.138 160.63,-127.707 10.67,10.667 21.33,21.333 32,32 10.67,32 21.33,64 32,96 32.33,-10.667 64.67,-21.333 97,-32 96.33,0 192.67,0 289,0 21.33,-10.667 42.67,-21.333 64,-32 53.67,10.667 107.33,21.333 161,32 32.33,32.333 64.67,64.667 97,97 10.67,-10.667 21.33,-21.333 32,-32 10.67,0 21.33,0 32,0 21.33,21.333 42.67,42.667 64,64 32.33,0 64.67,0 97,0 10.67,10.667 21.33,21.333 32,32 10.67,-21.333 21.33,-42.667 32,-64 10.67,0 21.33,0 32,0 21.67,-21.667 43.33,-43.333 65,-65 42.67,0 85.33,0 128,0 10.67,-10.667 21.33,-21.333 32,-32 53.67,10.667 107.33,21.333 161,32 32,-21.333 64,-42.667 96,-64 0,-32 0,-64 0,-96 11,-10.667 22,-21.333 33,-32 21.33,0 42.67,0 64,0 32,-11 64,-22 96,-33 21.67,11 43.33,22 65,33 21.33,0 42.67,0 64,0 32,-21.667 64,-43.333 96,-65 21.67,0 43.33,0 65,0 32,-21.333 64,-42.667 96,-64 10.67,0 21.33,0 32,0 11,-10.667 22,-21.333 33,-32 0,-10.667 0,-21.333 0,-32 10.67,0 21.33,0 32,0 32,-11 64,-22 96,-33 10.67,0 21.33,0 32,0 0,-10.667 0,-21.333 0,-32 21.67,-10.667 43.33,-21.333 65,-32 10.67,10.667 21.33,21.333 32,32 64.33,0 128.67,0 193,0 53.33,-53.333 106.67,-106.667 160,-160 0,-11 0,-22 0,-33 11,-10.667 22,-21.333 33,-32 53.33,0 106.67,0 160,0 21.67,10.667 43.33,21.333 65,32 42.67,-10.667 85.33,-21.333 128,-32 10.67,-10.667 21.33,-21.333 32,-32 21.67,0 43.33,0 65,0 -32.33,-43 -64.67,-86 -97,-129 10.67,-21.333 21.33,-42.667 32,-64 11,0 22,0 33,0 0,-10.667 0,-21.333 0,-32 10.67,-21.333 21.33,-42.667 32,-64 -21.67,10.667 -43.33,21.333 -65,32 -10.67,-10.667 -21.33,-21.333 -32,-32 0,-10.667 0,-21.333 0,-32 10.67,-11 21.33,-22 32,-33 11,-32 22,-64 33,-96 0,-32.333 0,-64.667 0,-97 32,-32 64,-64 96,-96 -10.67,-21.333 -21.33,-42.667 -32,-64 0,-21.742 -0.1,-43.496 0,-65.231 10.65,-53.256 21.3,-106.513 31.95,-159.769 32.33,-11 64.67,-22 97,-33 42.67,11 85.33,22 128,33 21.33,0 42.67,0 64,0 11,21.333 22,42.667 33,64 21.33,10.667 42.67,21.333 64,32 10.67,0 21.33,0 32,0 10.67,-21.333 21.33,-42.667 32,-64 43,-21.667 86,-43.333 129,-65 10.67,-10.667 21.33,-21.333 32,-32 32,0 64,0 96,0 0,-32 0,-64 0,-96 32.33,0 64.67,0 97,0 0,-10.667 0,-21.333 0,-32 -10.67,-10.667 -21.33,-21.333 -32,-32 53.67,0 107.33,0 161,0 32,-32.333 64,-64.667 96,-97 64.33,-21.333 128.67,-42.667 193,-64 21.33,10.667 42.67,21.333 64,32 43,10.667 86,21.333 129,32 21.33,10.667 42.67,21.333 64,32 10.67,0 21.33,0 32,0 21.67,-10.667 43.33,-21.333 65,-32 21.33,10.667 42.67,21.333 64,32 10.74,0.05 21.51,-0.1 32.22,0.07 32.26,10.642 64.52,21.284 96.78,31.926 10.67,0 21.33,0 32,0 32,11 64,22 96,33 21.33,-11 42.67,-22 64,-33 11,-10.667 22,-21.333 33,-32 10.67,0 21.33,0 32,0 10.74,10.699 21.41,21.49 32.19,32.132 31.94,21.623 63.87,43.245 95.81,64.868 21.74,21.372 43.42,42.809 65.19,64.141 42.74,32.034 85.44,64.121 128.2,96.121 32.2,21.579 64.41,43.159 96.61,64.738 0,21.333 0,42.667 0,64 -10.67,21.333 -21.33,42.667 -32,64 10.67,21.667 21.33,43.333 32,65 0,10.667 0,21.333 0,32 21.33,21.333 42.67,42.667 64,64 21.33,32.333 42.67,64.667 64,97 11,0 22,0 33,0 32,-21.667 64,-43.333 96,-65 15.63,15.685 31.43,31.201 46.74,47.203 5.75,5.932 11.51,11.865 17.26,17.797 21.67,0 43.33,0 65,0 0,10.667 0,21.333 0,32 10.67,0 21.33,0 32,0 10.67,-21.667 21.33,-43.333 32,-65 32,21.667 64,43.333 96,65 21.67,-10.667 43.33,-21.333 65,-32 21.33,10.667 42.67,21.333 64,32 10.67,0 21.33,0 32,0 10.67,10.667 21.33,21.333 32,32 -21.33,0 -42.67,0 -64,0 16.52,33.053 33.13,66.058 49.36,99.254 4.95,9.956 9.74,20.031 14.81,29.912 10.61,10.612 21.22,21.223 31.83,31.834 0,21.333 0,42.667 0,64 21.67,21.333 43.33,42.667 65,64 0,21.667 0,43.333 0,65 -21.67,32 -43.33,64 -65,96 -21.33,64.333 -42.67,128.667 -64,193 -10.67,0 -21.33,0 -32,0 -10.67,10.667 -21.33,21.333 -32,32 10.67,10.667 21.33,21.333 32,32 21.33,0 42.67,0 64,0 -10.67,21.667 -21.33,43.333 -32,65 10.68,21.412 21.44,42.79 32.07,64.223 10.65,31.926 21.29,63.851 31.93,95.777 -21.33,75 -42.67,150 -64,225 0,32.333 0,64.667 0,97 -21.33,0 -42.67,0 -64,0 0,10.667 0,21.333 0,32 10.67,21.333 21.33,42.667 32,64 0,21.667 0,43.333 0,65 10.67,0 21.33,0 32,0 0,53.333 0,106.667 0,160 21.33,21.667 42.67,43.333 64,65 0,42.744 0,85.493 0,128.233 -10.69,74.997 -21.31,150.006 -32.03,224.995 -10.64,42.924 -21.29,85.848 -31.94,128.772 0,32.333 0,64.667 0,97 -43,42.667 -86,85.333 -129,128 0,21.333 0,42.667 0,64 -32.05,75.15 -64.15,150.276 -96.16,225.442 -43.01,118.079 -86.08,236.138 -129.06,354.228 -10.59,32.11 -21.19,64.22 -31.78,96.33 0,32 0,64 0,96 -10.67,32.333 -21.33,64.667 -32,97 10.67,0 21.33,0 32,0 -32,53.333 -64,106.667 -96,160 -10.71,32.399 -21.34,64.833 -32.11,97.21 -10.63,21.264 -21.26,42.527 -31.89,63.79 0,10.667 0,21.333 0,32 21.33,10.667 42.67,21.333 64,32 -21.33,53.667 -42.67,107.333 -64,161 0,10.667 0,21.333 0,32 10.67,0 21.33,0 32,0 10.67,11 21.33,22 32,33 -10.67,10.667 -21.33,21.333 -32,32 -21.67,0 -43.33,0 -65,0 -10.67,10.667 -21.33,21.333 -32,32 21.67,21.333 43.33,42.667 65,64 -43,96.333 -86,192.667 -129,289 -10.67,43 -21.33,86 -32,129 -16.57,33.114 -33.04,66.277 -49.89,99.247 -5.04,9.918 -10.07,19.835 -15.11,29.753 0,32 0,64 0,96 -10.67,10.667 -21.33,21.333 -32,32 0,21.667 0,43.333 0,65 10.67,21.333 21.33,42.667 32,64 -10.67,10.667 -21.33,21.333 -32,32 0,32.333 0,64.667 0,97 -10.67,0 -21.33,0 -32,0 -10.67,-11 -21.33,-22 -32,-33 -15.61,16.039 -31.04,32.253 -46.97,47.974 -5.7,5.759 -11.54,11.404 -17.14,17.235 -10.96,21.264 -21.93,42.527 -32.89,63.791 -10.67,10.667 -21.33,21.333 -32,32 0,32.333 0,64.667 0,97 -32,53.333 -64,106.667 -96,160 -10.67,10.667 -21.33,21.333 -32,32 10.67,32.333 21.33,64.667 32,97 -21.33,10.667 -42.67,21.333 -64,32 -11,21.333 -22,42.667 -33,64 11,21.667 22,43.333 33,65 0,10.667 0,21.333 0,32 -11,10.667 -22,21.333 -33,32 -10.67,21.333 -21.33,42.667 -32,64 10.67,21.667 21.33,43.333 32,65 -32,42.667 -64,85.333 -96,128 0,21.667 0,43.333 0,65 10.67,0 21.33,0 32,0 -10.67,21.333 -21.33,42.667 -32,64 -10.67,0 -21.33,0 -32,0 -32.33,42.667 -64.67,85.333 -97,128 0,32.333 0,64.667 0,97 11,32 22,64 33,96 0,11 0,22 0,33 -21.67,10.667 -43.33,21.333 -65,32 -21.33,64.333 -42.67,128.667 -64,193 0,-21.667 0,-43.333 0,-65 -32.33,-21.333 -64.67,-42.667 -97,-64 -75,0 -150,0 -225,0 -21.33,-10.667 -42.67,-21.333 -64,-32 -21.33,10.667 -42.67,21.333 -64,32 -43,-21.333 -86,-42.667 -129,-64 -32,0 -64,0 -96,0 -86.22,-21.738 -172.46,-43.421 -258.68,-65.193 -74.77,-21.269 -149.55,-42.538 -224.32,-63.807 -10.67,-21.333 -21.33,-42.667 -32,-64 -42.67,0 -85.33,0 -128,0 0,10.667 0,21.333 0,32 -32.33,0 -64.67,0 -97,0 -10.67,-10.667 -21.33,-21.333 -32,-32 0,-10.667 0,-21.333 0,-32 -10.67,0 -21.33,0 -32,0 10.67,-21.667 21.33,-43.333 32,-65 -32,0 -64,0 -96,0 0,10.667 0,21.333 0,32 -21.67,0 -43.33,0 -65,0 0,11 0,22 0,33 -10.67,-11 -21.33,-22 -32,-33 0,-10.667 0,-21.333 0,-32 -10.67,10.667 -21.33,21.333 -32,32 0,-10.667 0,-21.333 0,-32 -21.33,0 -42.67,0 -64,0 -21.67,21.667 -43.33,43.333 -65,65 0,-21.667 0,-43.333 0,-65 -15.63,15.685 -31.43,31.201 -46.74,47.203 -5.75,5.932 -11.51,11.865 -17.26,17.797 -21.33,0 -42.67,0 -64,0 -10.67,21.333 -21.33,42.667 -32,64 -21.67,0 -43.33,0 -65,0 -10.67,10.667 -21.33,21.333 -32,32 -10.67,21.333 -21.33,42.667 -32,64 -32.33,0 -64.67,0 -97,0 -23.68,23.982 -47.22,48.094 -70.99,71.988 -8.34,8.337 -16.67,16.675 -25.01,25.012 -32,0 -64,0 -96,0 -21.67,21.333 -43.33,42.667 -65,64 -32,0 -64,0 -96,0 -10.67,21.667 -21.33,43.333 -32,65 -21.67,-11 -43.33,-22 -65,-33 -10.67,11 -21.33,22 -32,33 -21.33,0 -42.67,0 -64,0 -21.33,10.667 -42.67,21.333 -64,32 -22.63,-11.187 -45.34,-22.232 -67.93,-33.51 -20.36,-10.496 -40.71,-20.993 -61.07,-31.49 -10.67,-10.667 -21.33,-21.333 -32,-32 -10.67,0 -21.33,0 -32,0 10.67,-10.667 21.33,-21.333 32,-32 -10.67,-10.667 -21.33,-21.333 -32,-32 10.67,-21.333 21.33,-42.667 32,-64 0,-21.667 0,-43.333 0,-65 0,10.667 0,21.333 0,32 -10.67,-21.333 -21.33,-42.667 -32,-64 -11,0 -22,0 -33,0 -21.33,21.333 -42.67,42.667 -64,64 -21.33,-10.667 -42.67,-21.333 -64,-32 -10.67,21.667 -21.33,43.333 -32,65 -32.33,0 -64.67,0 -97,0 -21.33,-21.667 -42.67,-43.333 -64,-65 -43,10.667 -86,21.333 -129,32 -10.67,-10.667 -21.33,-21.333 -32,-32 -10.67,10.667 -21.33,21.333 -32,32 -21.33,0 -42.67,0 -64,0 0,11 0,22 0,33 -10.67,21.333 -21.33,42.667 -32,64 -32.33,0 -64.67,0 -97,0 -10.67,10.667 -21.33,21.333 -32,32 -21.33,10.667 -42.67,21.333 -64,32 0,10.667 0,21.333 0,32 -43,0 -86,0 -129,0 -21.33,21.667 -42.67,43.333 -64,65 -43,-10.667 -86,-21.333 -129,-32 -53.67,10.667 -107.33,21.333 -161,32 -32,42.667 -64,85.333 -96,128 -64.33,21.667 -128.67,43.333 -193,65 -10.67,21.333 -21.33,42.667 -32,64 10.67,21.333 21.33,42.667 32,64 21.33,10.667 42.67,21.333 64,32 10.67,21.667 21.33,43.333 32,65 -10.67,10.667 -21.33,21.333 -32,32 0,10.667 0,21.333 0,32 -21.33,21.333 -42.67,42.667 -64,64 -21.33,10.667 -42.67,21.333 -64,32 0,11 0,22 0,33 -64.33,0 -128.67,0 -193,0 -10.67,10.667 -21.33,21.333 -32,32 -21.67,0 -43.33,0 -65,0 -10.67,32 -21.33,64 -32,96 -10.67,10.667 -21.33,21.333 -32,32 -10.67,0 -21.33,0 -32,0 0,21.667 0,43.333 0,65 -21.33,21.333 -42.67,42.667 -64,64 -53.67,0 -107.33,0 -161,0 0,21.333 0,42.667 0,64 10.67,10.667 21.33,21.333 32,32 0,32.333 0,64.667 0,97 21.33,0 42.67,0 64,0 10.67,10.667 21.33,21.333 32,32 0,21.333 0,42.667 0,64 21.67,10.667 43.33,21.333 65,32 0,11 0,22 0,33 -32.33,10.667 -64.67,21.333 -97,32 -10.67,-10.667 -21.33,-21.333 -32,-32 0,10.667 0,21.333 0,32 -10.67,0 -21.33,0 -32,0 0,-10.667 0,-21.333 0,-32 -10.67,0 -21.33,0 -32,0 -10.67,-11 -21.33,-22 -32,-33 -21.67,11 -43.33,22 -65,33 -10.67,0 -21.33,0 -32,0 0,10.667 0,21.333 0,32 -10.67,-10.667 -21.33,-21.333 -32,-32 -10.67,10.667 -21.33,21.333 -32,32 0,-10.667 0,-21.333 0,-32 -21.33,21.333 -42.67,42.667 -64,64 -11,21.333 -22,42.667 -33,64 -10.67,10.667 -21.33,21.333 -32,32 -10.67,0 -21.33,0 -32,0 -21.33,-10.667 -42.67,-21.333 -64,-32 0,10.667 0,21.333 0,32 10.67,11 21.33,22 32,33 -21.33,21.333 -42.67,42.667 -64,64 -21.67,-10.667 -43.33,-21.333 -65,-32 -21.33,10.667 -42.67,21.333 -64,32 -21.33,0 -42.67,0 -64,0 -10.67,-10.667 -21.33,-21.333 -32,-32 -11,21.333 -22,42.667 -33,64 -10.67,-10.667 -21.33,-21.333 -32,-32 0,-21.333 0,-42.667 0,-64 -21.33,0 -42.67,0 -64,0 0,10.667 0,21.333 0,32 -21.33,10.667 -42.67,21.333 -64,32 0,10.667 0,21.333 0,32 -11,0 -22,0 -33,0 -21.33,21.333 -42.67,42.667 -64,64 -10.67,-10.667 -21.33,-21.333 -32,-32 -10.67,0 -21.33,0 -32,0 -10.67,21.667 -21.33,43.333 -32,65 0,10.667 0,21.333 0,32 -15.69,15.63 -31.2,31.433 -47.2,46.742 -5.94,5.753 -11.87,11.505 -17.8,17.258 -107,32 -214,64 -321,96 0,43 0,86 0,129 10.67,0 21.33,0 32,0 0,21.333 0,42.667 0,64 -10.67,0 -21.33,0 -32,0 -21.33,10.667 -42.67,21.333 -64,32 -11,0 -22,0 -33,0 -21.33,11 -42.67,22 -64,33 0,-21.667 0,-43.333 0,-65 -10.67,0 -21.33,0 -32,0 0,-10.667 0,-21.333 0,-32 -10.67,10.667 -21.33,21.333 -32,32 0,-10.667 0,-21.333 0,-32 -10.67,10.667 -21.33,21.333 -32,32 -11,-10.667 -22,-21.333 -33,-32 0,-10.667 0,-21.333 0,-32 -10.67,0 -21.33,0 -32,0 -10.67,-10.667 -21.33,-21.333 -32,-32 0,10.667 0,21.333 0,32 -21.33,-10.667 -42.67,-21.333 -64,-32 -32.33,-43 -64.67,-86 -97,-129 -21.33,-10.667 -42.67,-21.333 -64,-32 -96.33,-10.667 -192.67,-21.333 -289,-32 -64.33,32 -128.67,64 -193,96 -64.33,0 -128.67,0 -193,0 -10.67,-21.333 -21.33,-42.667 -32,-64 -10.67,-10.667 -21.33,-21.333 -32,-32 -32.33,0 -64.67,0 -97,0 -10.67,10.667 -21.33,21.333 -32,32 10.67,0 21.33,0 32,0 -32,10.667 -64,21.333 -96,32 -10.67,0 -21.33,0 -32,0 -21.67,21.667 -43.33,43.333 -65,65 -21.33,42.667 -42.67,85.333 -64,128 10.67,10.667 21.33,21.333 32,32 0,10.667 0,21.333 0,32 -32,21.667 -64,43.333 -96,65 0,21.333 0,42.667 0,64 10.67,10.667 21.33,21.333 32,32 0,10.667 0,21.333 0,32 -10.67,0 -21.33,0 -32,0 -11,11 -22,22 -33,33 -10.67,0 -21.33,0 -32,0 -32,-32.333 -64,-64.667 -96,-97 -43,-21.333 -86,-42.667 -129,-64 -32,-53.667 -64,-107.333 -96,-161 -43,0 -86,0 -129,0 -10.67,-21.333 -21.33,-42.667 -32,-64 0,21.333 0,42.667 0,64 -10.67,-21.333 -21.33,-42.667 -32,-64 10.67,-32.333 21.33,-64.667 32,-97 -32,-42.667 -64,-85.333 -96,-128 -11,-10.667 -22,-21.333 -33,-32 -42.67,-21.667 -85.33,-43.333 -128,-65 -10.67,0 -21.33,0 -32,0 -21.67,32.333 -43.33,64.667 -65,97 -21.39,10.718 -42.83,21.371 -64.2,32.13 -32.26,21.29 -64.53,42.58 -96.8,63.87 -10.67,-10.667 -21.33,-21.333 -32,-32 0,-32 0,-64 0,-96 21.67,-21.667 43.33,-43.333 65,-65 -64.33,-42.667 -128.67,-85.333 -193,-128 -21.67,10.667 -43.33,21.333 -65,32 -32,32 -64,64 -96,96 0,-53.667 0,-107.333 0,-161 -10.67,0 -21.33,0 -32,0 -10.67,-21.333 -21.33,-42.667 -32,-64 0,-21.333 0,-42.667 0,-64 -53.67,-53.667 -107.33,-107.333 -161,-161 -32.4,-43.048 -64.73,-86.154 -97.17,-129.166 -21.27,-21.278 -42.55,-42.556 -63.83,-63.834 0,-21.333 0,-42.667 0,-64 -21.33,0 -42.67,0 -64,0 -10.67,-21.333 -21.33,-42.667 -32,-64 -107.33,-43 -214.67,-86 -322,-129 -21.41,-21.365 -42.74,-42.825 -64.2,-64.131 -32.26,-21.623 -64.53,-43.246 -96.8,-64.869 -53.33,0 -106.67,0 -160,0 -43,-42.667 -86,-85.333 -129,-128 10.67,-11 21.33,-22 32,-33 0,-42.667 0,-85.333 0,-128 -32,0 -64,0 -96,0 -21.67,-10.667 -43.33,-21.333 -65,-32 -10.67,0 -21.33,0 -32,0 -21.33,-10.667 -42.67,-21.333 -64,-32 -32.33,32 -64.67,64 -97,96 -32,-10.667 -64,-21.333 -96,-32 -21.33,10.667 -42.67,21.333 -64,32 -21.67,21.333 -43.33,42.667 -65,64 -10.67,21.667 -21.33,43.333 -32,65 10.67,10.667 21.33,21.333 32,32 -10.67,10.667 -21.33,21.333 -32,32 -42.67,0 -85.33,0 -128,0 -21.67,-10.667 -43.33,-21.333 -65,-32 -10.67,-10.667 -21.33,-21.333 -32,-32 10.67,-11 21.33,-22 32,-33 0,-10.667 0,-21.333 0,-32 -42.67,21.667 -85.33,43.333 -128,65 0,-21.667 0,-43.333 0,-65 -21.67,10.667 -43.33,21.333 -65,32 0,-10.667 0,-21.333 0,-32 16.04,-15.61 32.25,-31.042 47.97,-46.974 5.68,-5.675 11.35,-11.351 17.03,-17.026 0,-32 0,-64 0,-96 -21.67,-11 -43.33,-22 -65,-33 -10.67,-21.333 -21.33,-42.667 -32,-64 0,-10.667 0,-21.333 0,-32 -21.33,-21.333 -42.67,-42.667 -64,-64 -10.67,-21.667 -21.33,-43.333 -32,-65 -10.67,-10.667 -21.33,-21.333 -32,-32 0,-10.667 0,-21.333 0,-32 -11,0 -22,0 -33,0 -10.67,-10.667 -21.33,-21.333 -32,-32 0,-21.333 0,-42.667 0,-64 -21.33,-21.667 -42.67,-43.333 -64,-65 -10.67,10.667 -21.33,21.333 -32,32 -21.33,0 -42.67,0 -64,0 -32.33,32.333 -64.67,64.667 -97,97 -10.67,0 -21.33,0 -32,0 -32,21.333 -64,42.667 -96,64 10.67,10.667 21.33,21.333 32,32 0,21.667 0,43.333 0,65 -21.67,21.333 -43.33,42.667 -65,64 11,10.667 22,21.333 33,32 -11,64.333 -22,128.667 -33,193 -10.67,10.667 -21.33,21.333 -32,32 -10.67,21.333 -21.33,42.667 -32,64 -21.33,21.667 -42.67,43.333 -64,65 -21.67,10.667 -43.33,21.333 -65,32 0,10.737 0.1,21.506 -0.1,32.223 -10.65,32.259 -21.29,64.518 -31.93,96.777 -10.67,-11 -21.33,-22 -32,-33 -21.33,11 -42.67,22 -64,33 -10.67,21.333 -21.33,42.667 -32,64 -43,43 -86,86 -129,129 -10.67,21.333 -21.33,42.667 -32,64 -21.33,21.333 -42.67,42.667 -64,64 0,10.667 0,21.333 0,32 -21.67,21.667 -43.33,43.333 -65,65 -10.67,32 -21.33,64 -32,96 -21.33,10.667 -42.67,21.333 -64,32 -53.67,0 -107.33,0 -161,0 -10.67,21.333 -21.33,42.667 -32,64 -32.33,0 -64.67,0 -97,0 -21.33,11 -42.67,22 -64,33 -42.67,0 -85.33,0 -128,0 -16.04,15.61 -32.25,31.042 -47.97,46.974 -59.35,59.342 -118.69,118.684 -178.03,178.026 -21.33,42.667 -42.67,85.333 -64,128 0,32.333 0,64.667 0,97 -42.67,42.667 -85.33,85.333 -128,128 -32.33,11 -64.67,22 -97,33 -53.67,53.333 -107.33,106.667 -161,160 -21.37,-64.402 -42.68,-128.828 -64.1,-193.214 -53.63,-117.595 -107.27,-235.191 -160.9,-352.786 10.67,-21.667 21.33,-43.333 32,-65 -21.33,-53.333 -42.67,-106.667 -64,-160 -21.33,-32.333 -42.67,-64.667 -64,-97 -21.33,-21.333 -42.67,-42.667 -64,-64 -11,-43 -22,-86 -33,-129 32.33,-32 64.67,-64 97,-96 -21.33,0 -42.67,0 -64,0 -11,-21.333 -22,-42.667 -33,-64 11,-21.667 22,-43.333 33,-65 32,-21.333 64,-42.667 96,-64 10.67,-10.667 21.33,-21.333 32,-32 0,-10.737 0.1,-21.506 -0.1,-32.223 -10.65,-32.259 -21.29,-64.518 -31.93,-96.777 -32,-32 -64,-64 -96,-96 0,-21.667 0,-43.333 0,-65 -32.33,0 -64.67,0 -97,0 -21.33,10.667 -42.67,21.333 -64,32 -10.67,0 -21.33,0 -32,0 -75.33,75.333 -150.67,150.667 -226,226 -32.07,-11.045 -64.16,-22.013 -96.21,-33.105 -32.98,-16.481 -65.92,-33.057 -99.04,-49.251 -9.97,-4.941 -20.01,-9.782 -29.94,-14.785 -42.65,-32.017 -85.36,-63.967 -127.98,-96.025 -32.27,-32.278 -64.55,-64.556 -96.83,-96.834 -21.36,-32.075 -42.79,-64.11 -64.1,-96.211 -10.64,-21.596 -21.27,-43.193 -31.9,-64.789 0,-10.667 0,-21.333 0,-32 10.67,-10.667 21.33,-21.333 32,-32 0,-10.667 0,-21.333 0,-32 10.81,-10.744 21.5,-21.622 32.38,-32.283 42.87,-32.239 85.75,-64.478 128.62,-96.717 10.67,-21.333 21.33,-42.667 32,-64 10.67,-43 21.33,-86 32,-129 -21.4,-21.372 -42.75,-42.812 -64.19,-64.14 -42.94,-31.954 -85.87,-63.907 -128.81,-95.86 -64.33,-11 -128.67,-22 -193,-33 -32,11 -64,22 -96,33 -53.7,85.741 -107.44,171.452 -161.11,257.21 -10.63,21.264 -21.26,42.527 -31.89,63.79 0,96.667 0,193.333 0,290 -21.33,42.667 -42.67,85.333 -64,128 -11,0 -22,0 -33,0 -21.33,10.667 -42.67,21.333 -64,32 -42.67,-21.333 -85.33,-42.667 -128,-64 -30.89,-61.365 -61.92,-122.653 -92.57,-184.139 -1.44,-3.041 -3.17,-6.014 -4.43,-9.096 0,-31.922 0,-63.843 0,-95.765 -10.7,-53.739 -21.33,-107.497 -32.07,-161.223 -10.65,-32.259 -21.29,-64.518 -31.93,-96.777 -21.67,-21.333 -43.33,-42.667 -65,-64 -32,-10.667 -64,-21.333 -96,-32 -43,-43 -86,-86 -129,-129 -42.71,-32.064 -85.49,-64.061 -128.17,-96.166 -10.61,-10.612 -21.22,-21.223 -31.83,-31.834 -11.15,-0.04 -22.32,0.09 -33.47,-0.07 -74.84,-10.645 -149.69,-21.289 -224.53,-31.934 -21.33,0 -42.67,0 -64,0 -21.33,10.667 -42.67,21.333 -64,32 -64.33,10.667 -128.67,21.333 -193,32 -32.33,10.667 -64.67,21.333 -97,32 -21.33,0 -42.67,0 -64,0 -10.67,-10.667 -21.33,-21.333 -32,-32 -21.33,-10.667 -42.67,-21.333 -64,-32 -21.67,-43 -43.33,-86 -65,-129 -42.67,-21.333 -85.33,-42.667 -128,-64 -21.67,-21.333 -43.33,-42.667 -65,-64 -10.74,-0.04 -21.5,0.08 -32.23,-0.06 -44.19,-11.363 -88.35,-22.841 -132.57,-34.131 -41.63,-10.305 -83.25,-20.696 -124.89,-30.948 -53.66,-10.689 -107.35,-21.288 -160.99,-32.033 -42.44,-10.61 -84.88,-21.219 -127.32,-31.829 0,-10.667 0,-21.333 0,-32 -21.67,-21.667 -43.33,-43.333 -65,-65 -15.61,16.039 -31.04,32.253 -46.97,47.974 -5.68,5.675 -11.35,11.351 -17.03,17.026 -32,10.667 -64,21.333 -96,32 -32.33,-10.667 -64.67,-21.333 -97,-32 0,10.667 0,21.333 0,32 -10.67,0 -21.33,0 -32,0 -21.33,-21.333 -42.67,-42.667 -64,-64 -11,-21.667 -22,-43.333 -33,-65 0,-64.333 0,-128.667 0,-193 11,-10.667 22,-21.333 33,-32 -11,-21.333 -22,-42.667 -33,-64 -10.67,-10.667 -21.33,-21.333 -32,-32 -21.33,-10.667 -42.67,-21.333 -64,-32 -10.67,-32.333 -21.33,-64.667 -32,-97 0,-21.333 0,-42.667 0,-64 -10.67,-21.333 -21.33,-42.667 -32,-64 -10.67,-11 -21.33,-22 -32,-33 -86,0 -172,0 -258,0 -42.67,-42.667 -85.33,-85.333 -128,-128 -21.67,0 -43.33,0 -65,0 -42.67,10.667 -85.33,21.333 -128,32 -10.67,0 -21.33,0 -32,0 -11,32 -22,64 -33,96 -42.67,0 -85.33,0 -128,0 -10.67,11 -21.33,22 -32,33 0,21.333 0,42.667 0,64 -32.33,21.333 -64.67,42.667 -97,64 -64.33,21.333 -128.67,42.667 -193,64 -10.67,11 -21.33,22 -32,33 -42.67,10.667 -85.33,21.333 -128,32 -16.04,15.61 -32.25,31.042 -47.97,46.974 -5.68,5.675 -11.35,11.351 -17.03,17.026 0,10.667 0,21.333 0,32 -64.33,21.333 -128.67,42.667 -193,64 -32,0 -64,0 -96,0 -32.33,11 -64.67,22 -97,33 -64,0 -128,0 -192,0 -11,32 -22,64 -33,96 21.67,43 43.33,86 65,129 10.67,53.667 21.33,107.333 32,161 0,32 0,64 0,96 10.67,32 21.33,64 32,96 -15.61,16.039 -31.04,32.253 -46.97,47.974 -16.35,16.342 -32.69,32.684 -49.03,49.026 -21.74,-0.02 -43.49,0.04 -65.23,-0.03 -74.93,-10.656 -149.85,-21.311 -224.77,-31.967 -64.33,42.667 -128.67,85.333 -193,128 -21.33,0 -42.67,0 -64,0 -21.33,-10.667 -42.67,-21.333 -64,-32 -86.07,21.365 -172.16,42.678 -258.22,64.076 -31.93,10.975 -63.85,21.949 -95.78,32.924 -10.67,10.667 -21.33,21.333 -32,32 0,42.667 0,85.333 0,128 32,64.333 64,128.667 96,193 10.67,43 21.33,86 32,129 -32,64.333 -64,128.667 -96,193 -21.33,10.667 -42.67,21.333 -64,32 -11,32 -22,64 -33,96 -10.86,11.251 -21.83,22.399 -32.61,33.714 -64.13,74.762 -128.26,149.524 -192.39,224.286 -32.07,10.712 -64.17,21.342 -96.21,32.105 -21.26,10.632 -42.53,21.263 -63.79,31.895 -107.33,0 -214.67,0 -322,0 -43,43 -86,86 -129,129 -64,32 -128,64 -192,96 -53.67,0 -107.33,0 -161,0 -10.67,-21.333 -21.33,-42.667 -32,-64 -32.33,-21.333 -64.67,-42.667 -97,-64 -32,-32.333 -64,-64.667 -96,-97 -10.67,0 -21.33,0 -32,0 -11,-10.667 -22,-21.333 -33,-32 -32,0 -64,0 -96,0 -43,43 -86,86 -129,129 -21.34,64.079 -42.75,128.139 -64.05,192.231 -10.65,53.59 -21.3,107.179 -31.95,160.769 10.67,43 21.33,86 32,129 -10.67,32.08 -21.43,64.138 -32.04,96.232 -21.32,117.922 -42.64,235.845 -63.96,353.768 -21.67,21.333 -43.33,42.667 -65,64 -21.33,64.333 -42.67,128.667 -64,193 0,43 0,86 0,129 -43,42.667 -86,85.333 -129,128 -10.74,-0.05 -21.51,0.1 -32.22,-0.07 -31.93,-10.642 -63.85,-21.284 -95.78,-31.926 -32.33,-32 -64.67,-64 -97,-96 -21.33,0 -42.67,0 -64,0 -21.33,21.333 -42.67,42.667 -64,64 -32.39,64.394 -64.7,128.826 -97.13,193.196 -21.29,31.935 -42.58,63.869 -63.87,95.804 -10.67,-10.667 -21.33,-21.333 -32,-32 -32.33,-10.667 -64.67,-21.333 -97,-32 -21.33,0 -42.67,0 -64,0 -32.33,10.667 -64.67,21.333 -97,32 -10.67,10.667 -21.33,21.333 -32,32 -10.67,43 -21.33,86 -32,129 -10.67,0 -21.33,0 -32,0 -22.14,22.19 -44.38,44.28 -66.46,66.534 -9.84,10.155 -19.69,20.311 -29.54,30.466 -32.33,0 -64.67,0 -97,0 -53.67,21.333 -107.33,42.667 -161,64 -71.5,-17.884 -143,-35.781 -214.55,-53.471 -14.15,-3.509 -28.3,-7.019 -42.45,-10.529 -53.67,-32.333 -107.33,-64.667 -161,-97 -10.67,-10.667 -21.33,-21.333 -32,-32 -42.67,0 -85.33,0 -128,0 -43,21.333 -86,42.667 -129,64 21.33,-42.667 42.67,-85.333 64,-128 0,-32.333 0,-64.667 0,-97 21.67,-10.667 43.33,-21.333 65,-32 10.67,0 21.33,0 32,0 0,-32 0,-64 0,-96 -10.67,-21.667 -21.33,-43.333 -32,-65 21.33,-21.333 42.67,-42.667 64,-64 -10.67,-21.333 -21.33,-42.667 -32,-64 10.67,-11 21.33,-22 32,-33 -32.33,-42.667 -64.67,-85.333 -97,-128 11,-10.667 22,-21.333 33,-32 10.67,0 21.33,0 32,0 0,-10.667 0,-21.333 0,-32 32,10.667 64,21.333 96,32 21.33,-10.667 42.67,-21.333 64,-32 0,-21.667 0,-43.333 0,-65 32.33,-10.667 64.67,-21.333 97,-32 10.67,-10.667 21.33,-21.333 32,-32 0,-21.333 0,-42.667 0,-64 -10.67,0 -21.33,0 -32,0 0,-21.667 0,-43.333 0,-65 -10.67,-21.333 -21.33,-42.667 -32,-64 21.33,-32 42.67,-64 64,-96 0,-11 0,-22 0,-33 10.67,-21.333 21.33,-42.667 32,-64 0,-32 0,-64 0,-96 10.67,-21.667 21.33,-43.333 32,-65 -21.33,-10.667 -42.67,-21.333 -64,-32 -10.67,-21.333 -21.33,-42.667 -32,-64 -43,0 -86,0 -129,0 -32.07,-21.362 -64.11,-42.784 -96.21,-64.108 -21.26,-10.964 -42.53,-21.928 -63.79,-32.892 -11,0 -22,0 -33,0 0,-21.333 0,-42.667 0,-64 -10.67,0 -21.33,0 -32,0 -21.33,-10.667 -42.67,-21.333 -64,-32 -21.33,10.667 -42.67,21.333 -64,32 0,-10.667 0,-21.333 0,-32 -21.67,0 -43.33,0 -65,0 -10.67,-21.333 -21.33,-42.667 -32,-64 -21.33,-10.667 -42.67,-21.333 -64,-32 10.67,-21.667 21.33,-43.333 32,-65 -10.67,-10.667 -21.33,-21.333 -32,-32 0,-32 0,-64 0,-96 -10.67,-11 -21.33,-22 -32,-33 0,-21.333 0,-42.667 0,-64 -16.57,-33.114 -33.04,-66.277 -49.89,-99.247 -15.92,-31.143 -31.45,-62.482 -47.11,-93.753 0,-53.667 0,-107.333 0,-161 -21.33,0 -42.67,0 -64,0 0,-42.667 0,-85.333 0,-128 -32.33,-10.667 -64.67,-21.333 -97,-32 0,-21.667 0,-43.333 0,-65 -21.33,-21.333 -42.67,-42.667 -64,-64 0,-43 0,-86 0,-129 -10.67,0 -21.33,0 -32,0 -21.33,-21.333 -42.67,-42.667 -64,-64 0,-21.333 0,-42.667 0,-64 -43,10.667 -86,21.333 -129,32 -21.33,0 -42.67,0 -64,0 0,-21.333 0,-42.667 0,-64 -32.33,-11 -64.67,-22 -97,-33 -21.33,11 -42.67,22 -64,33 -10.67,0 -21.33,0 -32,0 -32.33,21.333 -64.67,42.667 -97,64 -21.33,-10.667 -42.67,-21.333 -64,-32 10.67,-43 21.33,-86 32,-129 -10.67,-42.667 -21.33,-85.333 -32,-128 -64.33,0 -128.67,0 -193,0 -10.67,10.667 -21.33,21.333 -32,32 0,-10.667 0,-21.333 0,-32 -32,0 -64,0 -96,0 -11,-21.667 -22,-43.333 -33,-65 -10.67,-10.667 -21.33,-21.333 -32,-32 0,-10.667 0,-21.333 0,-32 -10.67,-10.667 -21.33,-21.333 -32,-32 -10.67,-21.333 -21.33,-42.667 -32,-64 0,-11 0,-22 0,-33 10.67,-10.667 21.33,-21.333 32,-32 0,-10.667 0,-21.333 0,-32 10.67,-21.333 21.33,-42.667 32,-64 -75,10.667 -150,21.333 -225,32 -10.67,-10.667 -21.33,-21.333 -32,-32 -10.67,10.667 -21.33,21.333 -32,32 -10.67,-10.667 -21.33,-21.333 -32,-32 -10.67,10.667 -21.33,21.333 -32,32 -11,-10.667 -22,-21.333 -33,-32 -10.67,10.667 -21.33,21.333 -32,32 -32,-10.667 -64,-21.333 -96,-32 -10.67,0 -21.33,0 -32,0 -10.67,10.667 -21.33,21.333 -32,32 0,10.667 0,21.333 0,32 -32.33,0 -64.67,0 -97,0 -21.33,21.333 -42.67,42.667 -64,64 -21.67,11 -43.33,22 -65,33 -10.67,0 -21.33,0 -32,0 -32,-21.667 -64,-43.333 -96,-65 -32.33,0 -64.67,0 -97,0 -42.67,-32 -85.33,-64 -128,-96 z"
         style="fill:#999999;stroke:#ffffff;stroke-width:282.23678589;stroke-miterlimit:4;stroke-dasharray:none;stroke-opacity:1" />
    </g>
  </g>
</svg>
