<?xml version="1.0" encoding="UTF-8" standalone="no"?>
<!-- Created with Inkscape (http://www.inkscape.org/) -->

<svg
   xmlns:dc="http://purl.org/dc/elements/1.1/"
   xmlns:cc="http://creativecommons.org/ns#"
   xmlns:rdf="http://www.w3.org/1999/02/22-rdf-syntax-ns#"
   xmlns:svg="http://www.w3.org/2000/svg"
   xmlns="http://www.w3.org/2000/svg"
   xmlns:sodipodi="http://sodipodi.sourceforge.net/DTD/sodipodi-0.dtd"
   xmlns:inkscape="http://www.inkscape.org/namespaces/inkscape"
   width="26.966394mm"
   height="40.359215mm"
   viewBox="0 0 26.966394 40.359215"
   version="1.1"
   id="svg526"
   inkscape:version="0.92.5 (2060ec1f9f, 2020-04-08)"
   sodipodi:docname="pi.svg">
  <defs
     id="defs520" />
  <sodipodi:namedview
     id="base"
     pagecolor="#ffffff"
     bordercolor="#666666"
     borderopacity="1.0"
     inkscape:pageopacity="0.0"
     inkscape:pageshadow="2"
     inkscape:zoom="0.35"
     inkscape:cx="-29.039883"
     inkscape:cy="287.69794"
     inkscape:document-units="mm"
     inkscape:current-layer="layer1"
     showgrid="false"
     inkscape:window-width="1366"
     inkscape:window-height="704"
     inkscape:window-x="0"
     inkscape:window-y="0"
     inkscape:window-maximized="1" />
  <metadata
     id="metadata523">
    <rdf:RDF>
      <cc:Work
         rdf:about="">
        <dc:format>image/svg+xml</dc:format>
        <dc:type
           rdf:resource="http://purl.org/dc/dcmitype/StillImage" />
        <dc:title></dc:title>
      </cc:Work>
    </rdf:RDF>
  </metadata>
  <g
     inkscape:label="Layer 1"
     inkscape:groupmode="layer"
     id="layer1"
     transform="translate(-80.254898,-184.5942)">
    <g
       transform="matrix(9.9994773e-4,0,0,9.9994773e-4,-57.876186,143.99767)"
       id="Piaui">
      <path
         inkscape:connector-curvature="0"
         style="fill:#999999;stroke:#ffffff;stroke-width:282.23678589;stroke-miterlimit:4;stroke-dasharray:none;stroke-opacity:1"
         d="m 138535,77489 c -10.67,-64.333 -21.33,-128.667 -32,-193 10.67,-21.332 21.33,-42.668 32,-64 0,-21.667 0,-43.333 0,-65 32.33,0 64.67,0 97,0 10.67,-31.999 21.33,-64.001 32,-96 10.67,-10.665 21.33,-21.335 32,-32 0,-10.667 0,-21.333 0,-32 21.33,-11.001 42.67,-21.999 64,-33 18.42,-55.435 36.86,-110.86 56.07,-166.027 2.98,-8.658 5.95,-17.315 8.93,-25.973 10.67,-10.998 21.33,-22.002 32,-33 21.33,-64.001 42.67,-127.999 64,-192 -21.33,-21.668 -42.67,-43.332 -64,-65 10.67,0 21.33,0 32,0 0.1,-21.444 -0.11,-42.889 0.1,-64.333 10.64,-42.888 21.28,-85.778 31.92,-128.667 0,-10.667 0,-21.333 0,-32 21.33,-21.335 42.67,-42.665 64,-64 0,-21.667 0,-43.333 0,-65 10.67,-31.999 21.33,-64.001 32,-96 0,-10.667 0,-21.333 0,-32 11,-21.333 22,-42.667 33,-64 -11,-32.333 -22,-64.667 -33,-97 -21.33,-21.335 -42.67,-42.665 -64,-64 0,-53.667 0,-107.333 0,-161 -10.67,-10.665 -21.33,-21.335 -32,-32 0,-10.667 0,-21.333 0,-32 21.33,-32.335 42.67,-64.665 64,-97 0.21,-11.1 -0.43,-22.282 0.33,-33.33 10.56,-42.223 21.11,-84.447 31.67,-126.67 0,-11 0,-22 0,-33 11.13,-10.695 22.06,-21.588 33.31,-32.154 21.23,-10.614 42.46,-21.231 63.69,-31.846 10.67,-31.999 21.33,-64.001 32,-96 0,-21.667 0,-43.333 0,-65 -10.67,-21.332 -21.33,-42.668 -32,-64 10.67,-10.665 21.33,-21.335 32,-32 -10.67,-21.332 -21.33,-42.668 -32,-64 0,-11 0,-22 0,-33 -10.67,-10.665 -21.33,-21.335 -32,-32 10.67,-10.665 21.33,-21.335 32,-32 -21.33,-10.668 -42.67,-21.332 -64,-32 21.33,-32.335 42.67,-64.665 64,-97 -10.67,-42.666 -21.33,-85.334 -32,-128 10.67,-32.332 21.33,-64.668 32,-97 0,-10.667 0,-21.333 0,-32 10.67,0 21.33,0 32,0 0,-10.667 0,-21.333 0,-32 -10.67,-21.332 -21.33,-42.668 -32,-64 -21.59,-21.412 -42.93,-43.074 -64,-65 10.67,-10.665 21.33,-21.335 32,-32 -10.67,-21.332 -21.33,-42.668 -32,-64 0,-21.333 0,-42.667 0,-64 21.33,-21.668 42.67,-43.332 64,-65 -10.67,-21.332 -21.33,-42.668 -32,-64 21.33,-10.668 42.67,-21.332 64,-32 0.23,-11.014 -0.46,-22.136 0.36,-33.081 10.55,-31.973 21.09,-63.946 31.64,-95.919 21.67,-10.666 43.33,-21.334 65,-32 0,-10.667 0,-21.333 0,-32 21.33,-10.668 42.67,-21.332 64,-32 -10.67,-21.332 -21.33,-42.668 -32,-64 10.67,-10.998 21.33,-22.002 32,-33 -10.67,0 -21.33,0 -32,0 10.67,-10.665 21.33,-21.335 32,-32 -10.67,-10.665 -21.33,-21.335 -32,-32 0,-10.667 0,-21.333 0,-32 -10.67,0 -21.33,0 -32,0 10.67,-10.665 21.33,-21.335 32,-32 -10.67,0 -21.33,0 -32,0 0,-32.333 0,-64.667 0,-97 -32.33,-42.668 -64.67,-85.332 -97,-128 -10.67,-21.665 -21.33,-43.335 -32,-65 -32.21,-32.126 -64.12,-64.551 -97,-96 -21.33,0 -42.67,0 -64,0 -21.33,-10.668 -42.67,-21.332 -64,-32 -10.67,-10.665 -21.33,-21.335 -32,-32 -10.67,10.665 -21.33,21.335 -32,32 -11,-10.667 -22,-21.333 -33,-32 11,-21.667 22,-43.333 33,-65 -11,0 -22,0 -33,0 0,-21.333 0,-42.667 0,-64 -10.67,0 -21.33,0 -32,0 0,-10.667 0,-21.333 0,-32 -10.67,-21.332 -21.33,-42.668 -32,-64 0,-11 0,-22 0,-33 21.33,0 42.67,0 64,0 0,-21.333 0,-42.667 0,-64 -10.67,-21.332 -21.33,-42.668 -32,-64 0,-21.333 0,-42.667 0,-64 10.67,-32.332 21.33,-64.668 32,-97 -10.67,0 -21.33,0 -32,0 0,-32 0,-64 0,-96 -10.67,-32.332 -21.33,-64.668 -32,-97 10.67,0 21.33,0 32,0 10.67,-10.665 21.33,-21.335 32,-32 -32.13,-32.209 -64.55,-64.122 -96,-97 -10.67,-31.999 -21.33,-64.001 -32,-96 -10.67,-10.665 -21.33,-21.335 -32,-32 0,-64.333 0,-128.667 0,-193 10.67,0 21.33,0 32,0 0,-21.333 0,-42.667 0,-64 -10.67,0 -21.33,0 -32,0 0,-32.333 0,-64.667 0,-97 -21.41,-21.59 -43.07,-42.937 -65,-64 11,-21.333 22,-42.667 33,-64 -11,-21.667 -22,-43.333 -33,-65 0,-21.333 0,-42.667 0,-64 -32,-21.333 -64,-42.667 -96,-64 -10.67,-32.332 -21.33,-64.668 -32,-97 -21.67,-21.331 -43.33,-42.669 -65,-64 -0.23,-11.014 0.46,-22.138 -0.36,-33.083 -10.61,-32.072 -21.1,-64.18 -31.79,-96.224 -10.61,-21.233 -21.23,-42.463 -31.85,-63.693 21.33,-21.335 42.67,-42.665 64,-64 0,-53.667 0,-107.333 0,-161 21.67,-10.666 43.33,-21.334 65,-32 -10.67,-10.665 -21.33,-21.335 -32,-32 10.69,-11.126 21.59,-22.058 32.15,-33.307 10.61,-21.233 21.23,-42.463 31.85,-63.693 10.67,-10.665 21.33,-21.335 32,-32 10.67,0 21.33,0 32,0 10.67,-10.665 21.33,-21.335 32,-32 0,-10.667 0,-21.333 0,-32 -21.33,-11.001 -42.67,-21.999 -64,-33 -10.67,-10.665 -21.33,-21.335 -32,-32 10.67,-21.332 21.33,-42.668 32,-64 21.33,-10.668 42.67,-21.332 64,-32 11,-21.333 22,-42.667 33,-64 0,-11 0,-22 0,-33 10.67,0 21.33,0 32,0 32,-32 64,-64 96,-96 21.33,10.668 42.67,21.332 64,32 11,-42.667 22,-85.333 33,-128 21.33,-11.001 42.67,-21.999 64,-33 21.33,0 42.67,0 64,0 -10.67,-21.332 -21.33,-42.668 -32,-64 21.33,-10.668 42.67,-21.332 64,-32 21.67,0 43.33,0 65,0 32,-75 64,-150 96,-225 10.67,-10.665 21.33,-21.335 32,-32 -10.67,-10.998 -21.33,-22.002 -32,-33 10.73,-32.098 21.35,-64.233 32.15,-96.307 10.61,-21.233 21.23,-42.463 31.85,-63.693 11,0 22,0 33,0 0,-10.667 0,-21.333 0,-32 32,10.667 64,21.333 96,32 21.33,-21.668 42.67,-43.332 64,-65 -42.67,-21.332 -85.33,-42.668 -128,-64 0,-10.667 0,-21.333 0,-32 42.88,-32.297 86.03,-64.255 128.74,-96.759 10.42,-10.741 20.84,-21.495 31.26,-32.241 0,-21.333 0,-42.667 0,-64 11,-10.667 22,-21.333 33,-32 -11,-21.333 -22,-42.667 -33,-64 11.17,-11.392 22.82,-22.376 33.69,-34.034 21.11,-31.653 42.21,-63.31 63.31,-94.966 -10.67,-10.665 -21.33,-21.335 -32,-32 10.67,-32.332 21.33,-64.668 32,-97 -10.67,-42.666 -21.33,-85.334 -32,-128 10.69,-10.794 21.59,-21.381 32.15,-32.308 10.61,-21.566 21.23,-43.129 31.85,-64.692 0,-32 0,-64 0,-96 21.33,-10.668 42.67,-21.332 64,-32 -10.67,-10.665 -21.33,-21.335 -32,-32 21.67,-10.999 43.33,-22.001 65,-33 10.67,0 21.33,0 32,0 10.67,-10.665 21.33,-21.335 32,-32 -10.67,-21.332 -21.33,-42.668 -32,-64 21.33,-10.668 42.67,-21.332 64,-32 0,-43 0,-86 0,-129 21.33,-21.335 42.67,-42.665 64,-64 0,-32.333 0,-64.667 0,-97 21.67,-21.331 43.33,-42.669 65,-64 0,-64.333 0,-128.667 0,-193 85.67,-74.998 171.33,-150.002 257,-225 -10.67,-21.332 -21.33,-42.668 -32,-64 10.69,-10.794 21.59,-21.381 32.15,-32.308 10.61,-21.566 21.23,-43.129 31.85,-64.692 21.33,0 42.67,0 64,0 10.67,-21.332 21.33,-42.668 32,-64 -10.67,-31.999 -21.33,-64.001 -32,-96 17.44,-35.513 34.8,-71.066 53.19,-106.099 3.94,-7.633 7.87,-15.267 11.81,-22.901 -11,-21.333 -22,-42.667 -33,-64 21.67,-42.999 43.33,-86.001 65,-129 0,-32 0,-64 0,-96 10.67,-10.998 21.33,-22.002 32,-33 -21.33,-32.002 -42.67,-63.998 -64,-96 21.33,-21.335 42.67,-42.665 64,-64 21.33,0 42.67,0 64,0 0,-10.667 0,-21.333 0,-32 -32,-21.667 -64,-43.333 -96,-65 21.43,-32.069 42.71,-64.238 64.24,-96.243 10.59,-10.582 21.17,-21.173 31.76,-31.757 0,-11 0,-22 0,-33 -10.67,-10.665 -21.33,-21.335 -32,-32 21.33,-21.335 42.67,-42.665 64,-64 0,-32 0,-64 0,-96 11,0 22,0 33,0 21.33,-11.001 42.67,-21.999 64,-33 0,-10.667 0,-21.333 0,-32 -32.33,-21.335 -64.67,-42.665 -97,-64 32.33,-10.668 64.67,-21.332 97,-32 0,-10.667 0,-21.333 0,-32 -21.33,-11.001 -42.67,-21.999 -64,-33 -11,-21.333 -22,-42.667 -33,-64 11,0 22,0 33,0 10.67,-10.665 21.33,-21.335 32,-32 0,-21.333 0,-42.667 0,-64 21.33,-10.668 42.67,-21.332 64,-32 10.67,-21.665 21.33,-43.335 32,-65 -10.67,-31.999 -21.33,-64.001 -32,-96 21.33,-10.668 42.67,-21.332 64,-32 0,-21.667 0,-43.333 0,-65 10.67,10.665 21.33,21.335 32,32 11,-10.667 22,-21.333 33,-32 -11,-10.667 -22,-21.333 -33,-32 11,-21.333 22,-42.667 33,-64 -11,-21.333 -22,-42.667 -33,-64 11,-11 22,-22 33,-33 0,11 0,22 0,33 10.67,0 21.33,0 32,0 0,-11 0,-22 0,-33 -10.67,-21.332 -21.33,-42.668 -32,-64 10.67,-21.332 21.33,-42.668 32,-64 21.33,-10.668 42.67,-21.332 64,-32 0,-32.333 0,-64.667 0,-97 10.67,0 21.33,0 32,0 21.67,-10.666 43.33,-21.334 65,-32 -21.67,-10.666 -43.33,-21.334 -65,-32 0,-10.667 0,-21.333 0,-32 10.67,0 21.33,0 32,0 21.67,10.666 43.33,21.334 65,32 10.67,0 21.33,0 32,0 -10.67,-21.332 -21.33,-42.668 -32,-64 10.67,-10.998 21.33,-22.002 32,-33 21.33,0 42.67,0 64,0 10.67,-10.665 21.33,-21.335 32,-32 0,-10.667 0,-21.333 0,-32 10.67,0 21.33,0 32,0 11,-10.667 22,-21.333 33,-32 0,-21.333 0,-42.667 0,-64 10.67,-21.665 21.33,-43.335 32,-65 10.67,0 21.33,0 32,0 21.33,10.668 42.67,21.332 64,32 43,-42.667 86,-85.333 129,-128 10.67,-21.332 21.33,-42.668 32,-64 21.33,-11.001 42.67,-21.999 64,-33 43,0 86,0 129,0 21.33,-10.668 42.67,-21.332 64,-32 32.33,10.668 64.67,21.332 97,32 32,-32 64,-64 96,-96 10.67,0 21.33,0 32,0 21.67,10.666 43.33,21.334 65,32 0,10.667 0,21.333 0,32 10.67,0 21.33,0 32,0 21.33,-21.335 42.67,-42.665 64,-64 32,-10.667 64,-21.333 96,-32 11,-32.333 22,-64.667 33,-97 32,-21.333 64,-42.667 96,-64 10.67,10.665 21.33,21.335 32,32 21.67,0 43.33,0 65,0 10.67,-10.665 21.33,-21.335 32,-32 64.33,-21.334 128.67,-42.666 193,-64 32,10.667 64,21.333 96,32 10.67,0 21.33,0 32,0 21.67,10.666 43.33,21.334 65,32 42.67,-31.998 85.33,-64.002 128,-96 21.33,0 42.67,0 64,0 21.67,-21.665 43.33,-43.335 65,-65 32,0 64,0 96,0 22.16,-10.762 44.1,-22.001 66.39,-32.465 31.54,-10.513 63.08,-21.023 94.61,-31.535 10.67,10.665 21.33,21.335 32,32 10.69,-10.793 21.59,-21.386 32.15,-32.307 31.94,-64.404 64.91,-128.292 96.85,-192.693 10.67,-10.665 21.33,-21.335 32,-32 21.33,10.668 42.67,21.332 64,32 21.67,-10.666 43.33,-21.334 65,-32 10.67,-21.332 21.33,-42.668 32,-64 10.67,-10.998 21.33,-22.002 32,-33 0,-10.667 0,-21.333 0,-32 10.8,-10.692 21.39,-21.592 32.31,-32.153 42.9,-21.282 85.79,-42.566 128.69,-63.847 10.67,-21.332 21.33,-42.668 32,-64 42.67,10.666 85.33,21.334 128,32 10.67,10.665 21.33,21.335 32,32 64.33,-21.334 128.67,-42.666 193,-64 21.67,42.665 43.33,85.335 65,128 21.33,10.668 42.67,21.332 64,32 43,0 86,0 129,0 10.67,-53.333 21.33,-106.667 32,-160 10.67,-10.998 21.33,-22.002 32,-33 10.67,-42.666 21.33,-85.334 32,-128 10.67,0 21.33,0 32,0 21.67,-10.666 43.33,-21.334 65,-32 10.67,-10.998 21.33,-22.002 32,-33 32,-10.667 64,-21.333 96,-32 32.33,-53.668 64.67,-107.332 97,-161 0,-10.667 0,-21.333 0,-32 32.07,-21.431 64.24,-42.715 96.24,-64.243 10.59,-10.582 21.17,-21.173 31.76,-31.757 10.67,-32.332 21.33,-64.668 32,-97 53.67,-10.666 107.33,-21.334 161,-32 10.67,0 21.33,0 32,0 11,-42.667 22,-85.333 33,-128 21.33,-21.668 42.67,-43.332 64,-65 21.33,0 42.67,0 64,0 0,-10.667 0,-21.333 0,-32 43,-21.333 86,-42.667 129,-64 42.67,-10.666 85.33,-21.334 128,-32 53.67,-53.665 107.33,-107.335 161,-161 32.33,-10.668 64.67,-21.332 97,-32 21.33,0 42.67,0 64,0 53.67,-21.666 107.33,-43.334 161,-65 32,21.667 64,43.333 96,65 10.67,0 21.33,0 32,0 32.33,-53.668 64.67,-107.332 97,-161 21.33,-21.335 42.67,-42.665 64,-64 -0.23,-11.014 0.46,-22.136 -0.36,-33.081 -10.55,-31.973 -21.09,-63.946 -31.64,-95.919 21.33,-42.668 42.67,-85.332 64,-128 0,-32.333 0,-64.667 0,-97 43,0 86,0 129,0 53.67,-64.332 107.33,-128.668 161,-193 0,-43 0,-86 0,-129 21.33,-10.668 42.67,-21.332 64,-32 21.33,0 42.67,0 64,0 0,-53.333 0,-106.667 0,-160 21.67,-32.332 43.33,-64.668 65,-97 42.67,-21.332 85.33,-42.668 128,-64 10.67,-32.332 21.33,-64.668 32,-97 10.67,-10.665 21.33,-21.335 32,-32 11,0 22,0 33,0 0,32.333 0,64.667 0,97 21.33,0 42.67,0 64,0 10.67,-21.665 21.33,-43.335 32,-65 -32,-42.667 -64,-85.333 -96,-128 0,-21.667 0,-43.333 0,-65 42.67,0 85.33,0 128,0 21.33,32.335 42.67,64.665 64,97 11,0 22,0 33,0 10.67,-21.332 21.33,-42.668 32,-64 0,-43 0,-86 0,-129 10.67,-21.332 21.33,-42.668 32,-64 21.33,0 42.67,0 64,0 10.67,-10.998 21.33,-22.002 32,-33 75,-10.667 150,-21.333 225,-32 21.67,-21.331 43.33,-42.669 65,-64 21.33,0 42.67,0 64,0 21.33,10.668 42.67,21.332 64,32 0,21.333 0,42.667 0,64 21.67,10.999 43.33,22.001 65,33 10.67,0 21.33,0 32,0 10.67,-21.665 21.33,-43.335 32,-65 10.67,-10.665 21.33,-21.335 32,-32 53.67,10.666 107.33,21.334 161,32 43,-32 86,-64 129,-96 53.33,-10.668 106.67,-21.332 160,-32 10.67,-21.665 21.33,-43.335 32,-65 21.91,-21.082 43.61,-42.388 65,-64 32,21.333 64,42.667 96,64 21.67,-21.331 43.33,-42.669 65,-64 53.33,0 106.67,0 160,0 21.67,-10.666 43.33,-21.334 65,-32 10.67,0 21.33,0 32,0 0,10.667 0,21.333 0,32 10.67,10.665 21.33,21.335 32,32 43,-10.667 86,-21.333 129,-32 21.71,10.739 43.26,21.863 65.08,32.358 31.64,10.546 63.28,21.095 94.92,31.642 32.33,32.335 64.67,64.665 97,97 32,10.667 64,21.333 96,32 21.67,21.331 43.33,42.669 65,64 21.33,0 42.67,0 64,0 0,-10.667 0,-21.333 0,-32 21.33,0 42.67,0 64,0 10.67,10.665 21.33,21.335 32,32 0.23,11.014 -0.46,22.136 0.36,33.081 10.55,31.973 21.09,63.946 31.64,95.919 11,10.667 22,21.333 33,32 53.33,21.334 106.67,42.666 160,64 11.02,11.128 22.26,22.051 33.15,33.307 21.28,42.564 42.57,85.127 63.85,127.693 42.67,21.666 85.33,43.334 128,65 0,-11 0,-22 0,-33 21.67,-10.666 43.33,-21.334 65,-32 32,10.667 64,21.333 96,32 21.33,0 42.67,0 64,0 21.67,-10.666 43.33,-21.334 65,-32 10.67,0 21.33,0 32,0 0,-32 0,-64 0,-96 43,10.667 86,21.333 129,32 21.33,-43.001 42.67,-85.999 64,-129 64.33,10.668 128.67,21.332 193,32 42.67,-10.666 85.33,-21.334 128,-32 32.33,-21.335 64.67,-42.665 97,-64 10.67,-21.332 21.33,-42.668 32,-64 11.39,-0.224 22.83,0.463 34.18,-0.373 63.61,-10.876 127.21,-21.752 190.82,-32.627 53.67,10.999 107.33,22.001 161,33 32,21.333 64,42.667 96,64 32.33,0 64.67,0 97,0 42.67,-21.332 85.33,-42.668 128,-64 32.33,-32.335 64.67,-64.665 97,-97 32,0 64,0 96,0 21.67,21.331 43.33,42.669 65,64 21.44,-0.06 42.89,0.11 64.33,-0.08 42.89,-10.639 85.78,-21.278 128.67,-31.917 10.67,0 21.33,0 32,0 21.33,-21.335 42.67,-42.665 64,-64 10.67,-42.999 21.33,-86.001 32,-129 53.67,-21.332 107.33,-42.668 161,-64 43,-53.667 86,-107.333 129,-161 10.67,-31.999 21.33,-64.001 32,-96 0.12,-21.694 -0.23,-43.415 0.18,-65.092 10.6,-63.97 21.21,-127.939 31.82,-191.908 32,-43 64,-86 96,-129 0,-53.667 0,-107.333 0,-161 21.67,-42.665 43.33,-85.335 65,-128 -21.67,-10.666 -43.33,-21.334 -65,-32 0,-11 0,-22 0,-33 10.8,-10.692 21.38,-21.592 32.31,-32.152 21.56,-10.618 43.13,-21.231 64.69,-31.848 -10.67,-31.999 -21.33,-64.001 -32,-96 10.67,-32.332 21.33,-64.668 32,-97 -21.67,-31.998 -43.33,-64.002 -65,-96 0,-10.667 0,-21.333 0,-32 32.33,-53.668 64.67,-107.332 97,-161 0,-32.333 0,-64.667 0,-97 42.67,-42.665 85.33,-85.335 128,-128 0,-10.667 0,-21.333 0,-32 -10.67,-10.998 -21.33,-22.002 -32,-33 -21.33,11.001 -42.67,21.999 -64,33 -10.67,-10.998 -21.33,-22.002 -32,-33 10.76,-32.571 21.87,-65.035 32.42,-97.67 10.52,-42.443 21.05,-84.886 31.58,-127.33 -10.67,-21.332 -21.33,-42.668 -32,-64 0,-21.333 0,-42.667 0,-64 -10.69,-10.794 -21.59,-21.381 -32.15,-32.308 -10.61,-21.565 -21.23,-43.129 -31.85,-64.692 0,-10.667 0,-21.333 0,-32 -11.01,-0.226 -22.14,0.46 -33.08,-0.356 -64.03,-21.061 -128,-42.273 -191.92,-63.644 -32.33,-43.002 -64.67,-85.998 -97,-129 -32,0 -64,0 -96,0 -32.39,-31.941 -64.94,-63.723 -97,-96 -10.67,-64.333 -21.33,-128.667 -32,-193 0,-10.667 0,-21.333 0,-32 -40.17,-19.972 -80.25,-40.122 -120.01,-60.881 -5.66,-4.261 -12.27,-4.602 -19.08,-4.119 -39.3,0 -78.61,0 -117.91,0 -21.33,-21.335 -42.67,-42.665 -64,-64 -11,-43 -22,-86 -33,-129 -32,-32 -64,-64 -96,-96 0,-10.667 0,-21.333 0,-32 10.8,-10.693 21.39,-21.591 32.31,-32.154 21.23,-10.617 42.46,-21.231 63.69,-31.846 0,-11 0,-22 0,-33 11,-10.667 22,-21.333 33,-32 0,-42.667 0,-85.333 0,-128 -53.67,-53.665 -107.33,-107.335 -161,-161 -0.1,-21.444 0.11,-42.889 -0.1,-64.333 -10.64,-42.889 -21.28,-85.778 -31.92,-128.667 -10.67,-10.665 -21.33,-21.335 -32,-32 0,-21.667 0,-43.333 0,-65 32,-53.333 64,-106.667 96,-160 -32,-64.333 -64,-128.667 -96,-193 10.67,-32.332 21.33,-64.668 32,-97 -10.66,-21.459 -21.54,-42.811 -32.07,-64.336 -10.99,-53.553 -21.95,-107.11 -32.93,-160.664 11,-21.333 22,-42.667 33,-64 0,-10.667 0,-21.333 0,-32 32,0 64,0 96,0 -0.1,-21.777 0.13,-43.554 -0.1,-65.33 -21.31,-74.889 -42.61,-149.779 -63.91,-224.67 10.67,-53.333 21.33,-106.667 32,-160 0,-10.667 0,-21.333 0,-32 -21.08,-21.915 -42.4,-43.601 -64,-65 0,-21.333 0,-42.667 0,-64 10.69,-10.794 21.59,-21.381 32.15,-32.308 10.61,-21.565 21.23,-43.129 31.85,-64.692 53.67,-10.666 107.33,-21.334 161,-32 21.33,0 42.67,0 64,0 10.74,-21.714 21.87,-43.256 32.36,-65.081 10.55,-31.973 21.09,-63.946 31.64,-95.919 32.33,-21.335 64.67,-42.665 97,-64 10.67,-64.333 21.33,-128.667 32,-193 32,-32 64,-64 96,-96 0.21,-11.103 -0.43,-22.287 0.33,-33.338 10.56,-42.554 21.11,-85.108 31.67,-127.662 11,-10.667 22,-21.333 33,-32 42.67,-10.666 85.33,-21.334 128,-32 21.67,-21.665 43.33,-43.335 65,-65 10.67,-42.666 21.33,-85.334 32,-128 10.67,-10.665 21.33,-21.335 32,-32 42.67,-10.999 85.33,-22.001 128,-33 21.67,-10.666 43.33,-21.334 65,-32 0,-21.333 0,-42.667 0,-64 64.28,-32.098 128.45,-64.446 193,-96 10.66,-21.793 21.54,-43.48 32.07,-65.337 10.65,-53.22 21.29,-106.441 31.93,-159.663 0,-32.333 0,-64.667 0,-97 -21.33,-53.668 -42.67,-107.332 -64,-161 0,-21.333 0,-42.667 0,-64 42.67,-53.665 85.33,-107.335 128,-161 0,-32.112 0.1,-64.225 -0.1,-96.337 -10.81,-53.901 -21.25,-107.894 -32.29,-161.739 -10.55,-32.02 -21.54,-63.921 -31.82,-96.016 -10.6,-63.97 -21.21,-127.939 -31.82,-191.908 -21.67,-32.332 -43.33,-64.668 -65,-97 -10.67,0 -21.33,0 -32,0 0,-64.333 0,-128.667 0,-193 -32,-75 -64,-150 -96,-225 0,-21.446 -0.1,-42.892 0.1,-64.337 10.65,-53.554 21.29,-107.108 31.93,-160.663 -21.33,-21.335 -42.67,-42.665 -64,-64 0,-10.667 0,-21.333 0,-32 -43,-43 -86,-86 -129,-129 0,-53.667 0,-107.333 0,-161 -10.67,-31.999 -21.33,-64.001 -32,-96 -53.67,-53.665 -107.33,-107.335 -161,-161 -10.67,0 -21.33,0 -32,0 -10.67,-31.999 -21.33,-64.001 -32,-96 0,-32.333 0,-64.667 0,-97 32,-32 64,-64 96,-96 11,-21.667 22,-43.333 33,-65 0,-21.333 0,-42.667 0,-64 -32.4,-21.433 -64.9,-42.711 -97.24,-64.243 -10.61,-10.71 -21.43,-21.219 -31.91,-32.065 -10.61,-21.565 -21.23,-43.129 -31.85,-64.692 10.67,-21.332 21.33,-42.668 32,-64 21.33,-21.335 42.67,-42.665 64,-64 21.67,-10.999 43.33,-22.001 65,-33 0,-10.667 0,-21.333 0,-32 10.94,-11.203 22.44,-21.912 33.02,-33.437 52.99,-74.524 105.99,-149.042 158.98,-223.563 20.66,-39.861 41.15,-79.809 61.03,-120.062 4.26,-5.776 4.35,-12.525 3.97,-19.4 -0.14,-7.613 0.35,-15.307 -0.33,-22.868 -10.56,-42.223 -21.11,-84.447 -31.67,-126.67 21.33,-32.335 42.67,-64.665 64,-97 0,-32 0,-64 0,-96 10.67,0 21.33,0 32,0 0,-32.333 0,-64.667 0,-97 -32,-21.333 -64,-42.667 -96,-64 -11,-21.333 -22,-42.667 -33,-64 11,-43 22,-86 33,-129 -21.78,-21.38 -43.43,-42.888 -65.29,-64.191 -64.23,-42.942 -128.47,-85.874 -192.71,-128.809 0,-10.667 0,-21.333 0,-32 -10.67,0 -21.33,0 -32,0 -21.33,10.668 -42.67,21.332 -64,32 -21.33,0 -42.67,0 -64,0 0,-85.667 0,-171.333 0,-257 -32.33,-53.668 -64.67,-107.332 -97,-161 0,-21.446 0.1,-42.892 -0.1,-64.337 -10.65,-53.554 -21.29,-107.108 -31.93,-160.663 0,-32 0,-64 0,-96 10.67,-32.332 21.33,-64.668 32,-97 64.6,-75.229 129.04,-150.601 193.74,-225.741 21.09,-21.081 42.17,-42.171 63.26,-63.259 64.33,0 128.67,0 193,0 0,-10.667 0,-21.333 0,-32 -32,-21.667 -64,-43.333 -96,-65 10.67,-21.332 21.33,-42.668 32,-64 10.67,-10.665 21.33,-21.335 32,-32 32.33,-10.668 64.67,-21.332 97,-32 21.33,-21.668 42.67,-43.332 64,-65 0,-32 0,-64 0,-96 21.33,-64.334 42.67,-128.666 64,-193 10.67,-10.665 21.33,-21.335 32,-32 21.67,-64.332 43.33,-128.668 65,-193 21.33,0 42.67,0 64,0 10.67,10.665 21.33,21.335 32,32 10.67,0 21.33,0 32,0 21.35,-64.441 43.03,-128.767 65,-193 75,-53.667 150,-107.333 225,-161 21.33,-21.335 42.67,-42.665 64,-64 0,-64.333 0,-128.667 0,-193 64.33,-107.001 128.67,-213.999 193,-321 21.59,-21.413 42.93,-43.073 64,-65 -10.74,-21.711 -21.87,-43.254 -32.36,-65.073 -10.55,-31.643 -21.09,-63.285 -31.64,-94.927 10.69,-10.794 21.59,-21.381 32.15,-32.308 10.61,-21.565 21.23,-43.129 31.85,-64.692 0,-21.333 0,-42.667 0,-64 -21.33,-43.001 -42.67,-85.999 -64,-129 0,-21.333 0,-42.667 0,-64 10.67,-21.332 21.33,-42.668 32,-64 32.06,-32.434 64.21,-64.785 96.21,-97.274 32.27,-42.574 64.53,-85.149 96.79,-127.726 21.33,0 42.67,0 64,0 10.67,-21.665 21.33,-43.335 32,-65 0.23,-11.01 -0.48,-22.136 0.37,-33.072 10.87,-31.644 21.76,-63.284 32.63,-94.928 32.11,-21.706 64.16,-43.511 96.31,-65.154 21.23,-10.617 42.46,-21.231 63.69,-31.846 21.93,-21.76 44.21,-43.2 65.93,-65.165 42.35,-53.283 84.71,-106.555 127.07,-159.835 0,-32 0,-64 0,-96 10.67,-21.665 21.33,-43.335 32,-65 32.33,-21.335 64.67,-42.665 97,-64 0,-32 0,-64 0,-96 10.67,-21.665 21.33,-43.335 32,-65 10.67,10.665 21.33,21.335 32,32 10.67,0 21.33,0 32,0 0,32.333 0,64.667 0,97 21.67,21.331 43.33,42.669 65,64 21.33,0 42.67,0 64,0 21.33,-10.668 42.67,-21.332 64,-32 21.67,-31.998 43.33,-64.002 65,-96 21.33,0 42.67,0 64,0 0,21.333 0,42.667 0,64 10.67,10.665 21.33,21.335 32,32 21.33,-10.668 42.67,-21.332 64,-32 11,-21.333 22,-42.667 33,-64 0,-21.667 0,-43.333 0,-65 32,10.667 64,21.333 96,32 21.33,0 42.67,0 64,0 43,-32 86,-64 129,-96 10.8,10.692 21.39,21.592 32.31,32.153 42.9,21.282 85.79,42.566 128.69,63.847 10.67,0 21.33,0 32,0 22.09,-10.907 43.97,-22.278 66.21,-32.878 52.93,-21.039 105.86,-42.083 158.79,-63.122 53.67,10.666 107.33,21.334 161,32 10.67,-10.665 21.33,-21.335 32,-32 0,10.667 0,21.333 0,32 10.67,-21.332 21.33,-42.668 32,-64 -10.67,-32.332 -21.33,-64.668 -32,-97 21.33,-10.668 42.67,-21.332 64,-32 0,-10.667 0,-21.333 0,-32 53.67,-10.666 107.33,-21.334 161,-32 21.33,-43.001 42.67,-85.999 64,-129 21.33,-10.668 42.67,-21.332 64,-32 0,-32 0,-64 0,-96 11,-21.667 22,-43.333 33,-65 10.67,-10.665 21.33,-21.335 32,-32 21.33,0 42.67,0 64,0 0,-32 0,-64 0,-96 -53.67,0 -107.33,0 -161,0 0,-21.667 0,-43.333 0,-65 32.06,-32.277 64.61,-64.059 97,-96 53.67,0 107.33,0 161,0 21.46,-10.66 42.81,-21.542 64.34,-32.067 53.55,-10.646 107.11,-21.288 160.66,-31.933 32,0 64,0 96,0 21.33,-10.668 42.67,-21.332 64,-32 21.67,-32.332 43.33,-64.668 65,-97 10.67,0 21.33,0 32,0 0.23,-11.014 -0.46,-22.138 0.36,-33.084 10.61,-32.071 21.1,-64.179 31.79,-96.223 10.61,-21.232 21.23,-42.463 31.85,-63.693 10.67,0 21.33,0 32,0 21.67,10.666 43.33,21.334 65,32 10.67,0 21.33,0 32,0 0,-64.333 0,-128.667 0,-193 21.33,-21.335 42.67,-42.665 64,-64 0,-43 0,-86 0,-129 10.8,-10.692 21.38,-21.592 32.31,-32.152 42.84,-21.08 85.72,-42.113 128.28,-63.745 6.33,-7.446 11.84,-15.78 17.86,-23.563 26.25,-35.27 52.54,-70.508 78.7,-105.847 10.61,-21.232 21.23,-42.463 31.85,-63.693 43.11,-32.037 86.13,-64.201 129.31,-96.154 21.23,-10.617 42.46,-21.231 63.69,-31.846 11,-53.667 22,-107.333 33,-161 0,-10.667 0,-21.333 0,-32 32,-32.333 64,-64.667 96,-97 -10.67,-31.999 -21.33,-64.001 -32,-96 -11.24,-11.322 -21.96,-23.212 -33.56,-34.159 -42.69,-31.896 -85.65,-63.486 -128.18,-95.585 -10.6,-10.812 -21.67,-21.212 -31.95,-32.3 -21.2,-32.053 -42.25,-64.209 -63.55,-96.197 -21.59,-21.248 -43.17,-42.508 -64.76,-63.759 10.67,-42.666 21.33,-85.334 32,-128 0,-32.333 0,-64.667 0,-97 32.33,-10.668 64.67,-21.332 97,-32 0,-10.667 0,-21.333 0,-32 -10.67,-21.665 -21.33,-43.335 -32,-65 0,-53.333 0,-106.667 0,-160 47.22,-47.583 94.03,-95.584 142.06,-142.355 6.31,-6.215 12.63,-12.43 18.94,-18.645 21.33,10.668 42.67,21.332 64,32 21.33,43.001 42.67,85.999 64,129 53.67,42.665 107.33,85.335 161,128 32,10.667 64,21.333 96,32 11,0 22,0 33,0 64,64.333 128,128.667 192,193 43,21.667 86,43.333 129,65 0,10.667 0,21.333 0,32 43.11,32.037 86.13,64.2 129.31,96.154 64.23,32.284 128.46,64.564 192.69,96.846 11.01,-0.228 22.13,0.462 33.08,-0.358 31.64,-10.546 63.28,-21.095 94.92,-31.642 10.67,0 21.33,0 32,0 32.33,21.335 64.67,42.665 97,64 42.67,0 85.33,0 128,0 21.67,-21.331 43.33,-42.669 65,-64 21.45,0.04 42.89,-0.09 64.34,0.07 53.55,10.646 107.11,21.288 160.66,31.933 10.67,10.665 21.33,21.335 32,32 10.67,-10.665 21.33,-21.335 32,-32 21.33,10.668 42.67,21.332 64,32 32.33,-10.668 64.67,-21.332 97,-32 42.67,21.332 85.33,42.668 128,64 11,0 22,0 33,0 42.67,21.332 85.33,42.668 128,64 10.67,-10.665 21.33,-21.335 32,-32 11,0 22,0 33,0 0,43 0,86 0,129 10.67,0 21.33,0 32,0 0,10.667 0,21.333 0,32 32,21.333 64,42.667 96,64 43,0 86,0 129,0 0,21.667 0,43.333 0,65 21.33,32.002 42.67,63.998 64,96 0,21.333 0,42.667 0,64 10.67,21.665 21.33,43.335 32,65 -10.67,0 -21.33,0 -32,0 10.67,10.665 21.33,21.335 32,32 -10.67,21.332 -21.33,42.668 -32,64 0,10.667 0,21.333 0,32 -10.67,21.665 -21.33,43.335 -32,65 10.67,0 21.33,0 32,0 0,32 0,64 0,96 -21.33,10.668 -42.67,21.332 -64,32 0,10.667 0,21.333 0,32 -21.67,0 -43.33,0 -65,0 0,21.667 0,43.333 0,65 -53.33,53.335 -106.67,106.665 -160,160 -10.67,21.665 -21.33,43.335 -32,65 0,32 0,64 0,96 -96.67,171.665 -193.33,343.335 -290,515 -21.33,53.334 -42.67,106.666 -64,160 0,10.667 0,21.333 0,32 -21.33,21.668 -42.67,43.332 -64,65 0,21.333 0,42.667 0,64 -11,21.333 -22,42.667 -33,64 0,11 0,22 0,33 32.33,-11.001 64.67,-21.999 97,-33 0,53.667 0,107.333 0,161 10.67,0 21.33,0 32,0 10.67,21.665 21.33,43.335 32,65 64.33,0 128.67,0 193,0 0,64 0,128 0,192 21.33,21.668 42.67,43.332 64,65 11,42.667 22,85.333 33,128 0,10.667 0,21.333 0,32 21.33,-10.668 42.67,-21.332 64,-32 21.33,0 42.67,0 64,0 -32,10.667 -64,21.333 -96,32 -10.67,10.998 -21.33,22.002 -32,33 0,53.333 0,106.667 0,160 -21.67,32.332 -43.33,64.668 -65,97 -42.67,0 -85.33,0 -128,0 0,10.667 0,21.333 0,32 -11,10.667 -22,21.333 -33,32 0,10.667 0,21.333 0,32 42.9,21.864 85.89,43.552 129,65 21.33,53.334 42.67,106.666 64,160 -10.67,75 -21.33,150 -32,225 -10.67,10.998 -21.33,22.002 -32,33 10.8,10.692 21.38,21.592 32.31,32.152 21.56,10.618 43.13,21.231 64.69,31.848 53.33,0 106.67,0 160,0 21.67,21.331 43.33,42.669 65,64 32,0 64,0 96,0 32.33,21.668 64.67,43.332 97,65 0,10.667 0,21.333 0,32 -21.67,0 -43.33,0 -65,0 -10.67,10.665 -21.33,21.335 -32,32 -10.67,53.666 -21.33,107.334 -32,161 21.33,21.335 42.67,42.665 64,64 -21.43,32.069 -42.71,64.238 -64.24,96.243 -53.59,53.582 -107.17,107.173 -160.76,160.757 0,10.667 0,21.333 0,32 21.33,-21.335 42.67,-42.665 64,-64 0,10.667 0,21.333 0,32 11,0 22,0 33,0 10.67,32.332 21.33,64.668 32,97 0,10.667 0,21.333 0,32 21.33,21.335 42.67,42.665 64,64 0,10.667 0,21.333 0,32 21.06,42.821 42.11,85.656 63.68,128.215 4.46,5.47 10.03,10.046 14.92,15.162 16.8,16.541 33.6,33.081 50.4,49.623 21.33,43.001 42.67,85.999 64,129 -21.33,53.668 -42.67,107.332 -64,161 -10.67,0 -21.33,0 -32,0 0,10.667 0,21.333 0,32 -11,0 -22,0 -33,0 0,10.667 0,21.333 0,32 -10.67,10.665 -21.33,21.335 -32,32 21.46,43.103 43.12,86.108 65,129 -32.33,21.335 -64.67,42.665 -97,64 0,10.667 0,21.333 0,32 10.67,0 21.33,0 32,0 42.77,-20.94 85.4,-42.161 128,-63.446 5.86,-1.273 12.2,-0.199 18.25,-0.554 15.58,0 31.17,0 46.75,0 21.33,-10.668 42.67,-21.332 64,-32 11,10.667 22,21.333 33,32 10.67,-10.665 21.33,-21.335 32,-32 0,10.667 0,21.333 0,32 21.33,10.668 42.67,21.332 64,32 11.01,0.227 22.14,-0.461 33.09,0.357 31.97,10.546 63.94,21.094 95.91,31.643 32,0 64,0 96,0 10.67,10.665 21.33,21.335 32,32 0,10.667 0,21.333 0,32 -21.33,21.668 -42.67,43.332 -64,65 10.67,21.332 21.33,42.668 32,64 -21.33,64.334 -42.67,128.666 -64,193 -10.67,10.665 -21.33,21.335 -32,32 21.33,32.335 42.67,64.665 64,97 0,21.333 0,42.667 0,64 21.45,10.673 42.82,21.521 64.33,32.083 42.89,10.639 85.78,21.278 128.67,31.917 -21.37,21.45 -42.9,42.751 -64.18,64.291 -53.6,85.905 -107.21,171.807 -160.82,257.709 21.33,128.667 42.67,257.333 64,386 0,32 0,64 0,96 -21.33,10.668 -42.67,21.332 -64,32 -21.33,43.001 -42.67,85.999 -64,129 -21.67,21.331 -43.33,42.669 -65,64 0,53.667 0,107.333 0,161 -21.33,42.668 -42.67,85.332 -64,128 0,53.667 0,107.333 0,161 -21.33,32.335 -42.67,64.665 -64,97 0,42.667 0,85.333 0,128 -21.67,21.665 -43.33,43.335 -65,65 -10.67,31.999 -21.33,64.001 -32,96 -10.67,0 -21.33,0 -32,0 -10.67,32.332 -21.33,64.668 -32,97 -32.33,0 -64.67,0 -97,0 11,10.667 22,21.333 33,32 21.33,0 42.67,0 64,0 0,21.333 0,42.667 0,64 -10.67,31.999 -21.33,64.001 -32,96 0,21.667 0,43.333 0,65 42.67,21.332 85.33,42.668 128,64 32.62,43.213 64.94,86.677 97.74,129.739 10.42,10.417 20.84,20.842 31.26,31.261 -43.28,53.889 -86.32,107.975 -129.74,161.742 -42.42,42.416 -84.84,84.84 -127.26,127.258 -10.67,21.665 -21.33,43.335 -32,65 0,10.667 0,21.333 0,32 -21.67,10.666 -43.33,21.334 -65,32 0,10.667 0,21.333 0,32 21.79,10.671 43.49,21.517 65.33,32.083 42.56,10.639 85.11,21.279 127.67,31.917 0,10.667 0,21.333 0,32 -21.33,11.001 -42.67,21.999 -64,33 -10.67,31.999 -21.33,64.001 -32,96 0,10.667 0,21.333 0,32 -21.67,10.666 -43.33,21.334 -65,32 11,53.667 22,107.333 33,161 -21.67,21.331 -43.33,42.669 -65,64 32.33,43.002 64.67,85.998 97,129 -10.67,21.332 -21.33,42.668 -32,64 21.33,32.335 42.67,64.665 64,97 0,21.333 0,42.667 0,64 21.33,0 42.67,0 64,0 0,10.667 0,21.333 0,32 10.67,10.665 21.33,21.335 32,32 10.67,-21.332 21.33,-42.668 32,-64 21.67,10.666 43.33,21.334 65,32 53.67,74.998 107.33,150.002 161,225 10.67,-10.665 21.33,-21.335 32,-32 10.67,0 21.33,0 32,0 0,21.333 0,42.667 0,64 21.33,11.001 42.67,21.999 64,33 0,32 0,64 0,96 -10.67,42.999 -21.33,86.001 -32,129 53.67,0 107.33,0 161,0 0,21.333 0,42.667 0,64 10.67,0 21.33,0 32,0 0,10.667 0,21.333 0,32 10.67,10.665 21.33,21.335 32,32 0,21.667 0,43.333 0,65 43,21.333 86,42.667 129,64 21.33,-21.335 42.67,-42.665 64,-64 10.67,0 21.33,0 32,0 10.67,31.999 21.33,64.001 32,96 21.67,-10.666 43.33,-21.334 65,-32 0,32 0,64 0,96 42.67,21.666 85.33,43.334 128,65 10.67,31.999 21.33,64.001 32,96 11,-10.667 22,-21.333 33,-32 10.67,0 21.33,0 32,0 21.33,32.002 42.67,63.998 64,96 32,0 64,0 96,0 11,21.667 22,43.333 33,65 -11,32 -22,64 -33,96 11,43 22,86 33,129 -32.33,21.335 -64.67,42.665 -97,64 32.33,21.335 64.67,42.665 97,64 10.67,0 21.33,0 32,0 10.67,21.665 21.33,43.335 32,65 -21.33,10.668 -42.67,21.332 -64,32 0,43 0,86 0,129 21.33,10.668 42.67,21.332 64,32 0,21.333 0,42.667 0,64 -10.67,31.999 -21.33,64.001 -32,96 -21.67,10.999 -43.33,22.001 -65,33 -10.67,31.999 -21.33,64.001 -32,96 10.84,11.065 22.16,21.716 32.7,33.043 21.47,32.094 43.04,64.129 64.45,96.264 10.61,21.232 21.23,42.463 31.85,63.693 -10.67,10.665 -21.33,21.335 -32,32 -32.33,0 -64.67,0 -97,0 -10.67,10.665 -21.33,21.335 -32,32 0,10.667 0,21.333 0,32 10.67,21.665 21.33,43.335 32,65 21.09,21.323 42.54,42.296 64.05,63.181 4.01,5.564 6.34,12.258 9.68,18.27 7.75,15.517 15.51,31.031 23.27,46.549 0,11 0,22 0,33 -21.67,21.331 -43.33,42.669 -65,64 0,53.667 0,107.333 0,161 -10.67,10.665 -21.33,21.335 -32,32 10.67,21.332 21.33,42.668 32,64 0,21.333 0,42.667 0,64 32.33,21.668 64.67,43.332 97,65 0,42.667 0,85.333 0,128 21.14,43.097 42.44,86.11 64,129 -10.67,42.999 -21.33,86.001 -32,129 -10.67,21.332 -21.33,42.668 -32,64 -32.33,10.668 -64.67,21.332 -97,32 -10.67,10.665 -21.33,21.335 -32,32 10.67,21.457 21.52,42.824 32.09,64.333 10.97,42.89 21.94,85.778 32.91,128.667 21.33,32.002 42.67,63.998 64,96 -10.67,21.665 -21.33,43.335 -32,65 21.46,85.635 42.79,171.303 64,257 -10.67,53.666 -21.33,107.334 -32,161 11.05,32.826 21.72,65.781 33.01,98.524 20.99,52.828 41.99,105.649 62.99,158.476 -10.67,31.999 -21.33,64.001 -32,96 32.33,32.335 64.67,64.665 97,97 0,85.667 0,171.333 0,257 -11,32.333 -22,64.667 -33,97 -10.67,10.665 -21.33,21.335 -32,32 0,10.667 0,21.333 0,32 -21.33,21.335 -42.67,42.665 -64,64 0,53.667 0,107.333 0,161 32,-10.667 64,-21.333 96,-32 21.67,21.331 43.33,42.669 65,64 21.33,75.001 42.67,149.999 64,225 21.33,43.001 42.67,85.999 64,129 -10.67,31.999 -21.33,64.001 -32,96 0,118 0,236 0,354 43,53.667 86,107.333 129,161 21.33,53.668 42.67,107.332 64,161 10.8,10.692 21.38,21.592 32.31,32.152 21.56,10.618 43.13,21.231 64.69,31.848 10.67,10.665 21.33,21.335 32,32 0,53.667 0,107.333 0,161 -10.67,53.333 -21.33,106.667 -32,160 -21.67,10.999 -43.33,22.001 -65,33 0,21.445 -0.1,42.891 0.1,64.336 10.99,53.553 21.95,107.11 32.93,160.664 0,75 0,150 0,225 10.67,42.666 21.33,85.334 32,128 0,43 0,86 0,129 64.33,64.335 128.67,128.665 193,193 21.33,53.668 42.67,107.332 64,161 0,10.667 0,21.333 0,32 21.33,21.335 42.67,42.665 64,64 0,10.667 0,21.333 0,32 -21.33,43.001 -42.67,85.999 -64,129 42.9,42.766 85.34,85.992 128,129 86,0 172,0 258,0 32,32 64,64 96,96 32.4,21.433 64.9,42.711 97.24,64.243 10.59,10.582 21.17,21.173 31.76,31.757 65.78,11.167 131.51,22.65 197.32,33.614 73.68,10.449 147.33,21.018 221.02,31.386 42.55,0 85.11,0 127.66,0 21.67,10.666 43.33,21.334 65,32 32,32 64,64 96,96 0.23,11.014 -0.46,22.136 0.36,33.081 10.55,31.973 21.09,63.946 31.64,95.919 11,10.667 22,21.333 33,32 10.67,32.332 21.33,64.668 32,97 10.67,10.665 21.33,21.335 32,32 21.33,0 42.67,0 64,0 21.33,-21.668 42.67,-43.332 64,-65 21.67,-10.666 43.33,-21.334 65,-32 32,10.667 64,21.333 96,32 0,11 0,22 0,33 -51.78,51.808 -103.48,103.704 -155.85,154.926 -6.1,4.489 -8.22,11.854 -11.65,18.277 -8.5,17.266 -17,34.533 -25.5,51.797 -10.67,0 -21.33,0 -32,0 -21.33,10.668 -42.67,21.332 -64,32 0,42.667 0,85.333 0,128 -10.67,21.665 -21.33,43.335 -32,65 21.33,53.334 42.67,106.666 64,160 -10.67,21.665 -21.33,43.335 -32,65 0,75 0,150 0,225 32,10.667 64,21.333 96,32 0,10.667 0,21.333 0,32 -32,10.667 -64,21.333 -96,32 0,11 0,22 0,33 -10.67,-10.998 -21.33,-22.002 -32,-33 0,21.667 0,43.333 0,65 10.67,0 21.33,0 32,0 0,10.667 0,21.333 0,32 -21.33,21.335 -42.67,42.665 -64,64 0,10.667 0,21.333 0,32 -21.67,42.999 -43.33,86.001 -65,129 -21.33,10.668 -42.67,21.332 -64,32 0,10.667 0,21.333 0,32 -32.33,43.002 -64.67,85.998 -97,129 11,21.333 22,42.667 33,64 -21.67,64.332 -43.33,128.668 -65,193 0,21.333 0,42.667 0,64 -10.67,10.998 -21.33,22.002 -32,33 -10.7,53.901 -21.72,107.745 -32.2,161.683 -10.61,85.106 -21.2,170.211 -31.8,255.317 10.67,42.999 21.33,86.001 32,129 -10.67,21.332 -21.33,42.668 -32,64 -43,21.667 -86,43.333 -129,65 10.67,21.332 21.33,42.668 32,64 -21.33,85.667 -42.67,171.333 -64,257 -160.67,64.332 -321.33,128.668 -482,193 -10.67,21.332 -21.33,42.668 -32,64 -21.67,10.999 -43.33,22.001 -65,33 -53.67,10.666 -107.33,21.334 -161,32 -10.67,21.332 -21.33,42.668 -32,64 0,21.333 0,42.667 0,64 32.33,86.001 64.67,171.999 97,258 11.52,11.826 23.69,23.049 34.76,35.304 52.75,63.231 105.49,126.462 158.24,189.696 0,10.667 0,21.333 0,32 10.67,10.665 21.33,21.335 32,32 0,75 0,150 0,225 -32.35,64.451 -64.83,128.84 -97.11,193.326 -21.3,64.224 -42.59,128.45 -63.89,192.674 10.67,64.333 21.33,128.667 32,193 32.33,32.002 64.67,63.998 97,96 42.77,10.719 85.57,21.338 128.32,32.121 85.89,32.292 171.79,64.585 257.68,96.879 10.67,0 21.33,0 32,0 32,32 64,64 96,96 0.23,11.344 -0.47,22.798 0.36,34.073 10.55,31.642 21.09,63.285 31.64,94.927 -0.13,22.176 0.26,44.365 -0.21,66.532 -10.56,128.191 -21.38,256.368 -31.79,384.566 0,31.967 0,63.935 0,95.902 -53.67,96.332 -107.33,192.668 -161,289 -11.04,32.827 -21.72,65.783 -33.01,98.527 -21,52.944 -42.13,105.836 -63.07,158.806 -10.64,42.888 -21.28,85.778 -31.92,128.667 10.67,21.332 21.33,42.668 32,64 10.67,10.665 21.33,21.335 32,32 0,21.667 0,43.333 0,65 -10.67,10.665 -21.33,21.335 -32,32 0,10.667 0,21.333 0,32 -53.67,-21.332 -107.33,-42.668 -161,-64 -10.67,10.665 -21.33,21.335 -32,32 0,10.667 0,21.333 0,32 -10.67,10.665 -21.33,21.335 -32,32 -21.33,0 -42.67,0 -64,0 -11,10.667 -22,21.333 -33,32 0,21.667 0,43.333 0,65 -10.67,10.665 -21.33,21.335 -32,32 -21.33,0 -42.67,0 -64,0 -10.67,21.332 -21.33,42.668 -32,64 -10.69,10.794 -21.59,21.39 -32.16,32.305 -10.94,21.233 -21.89,42.465 -32.84,63.695 0,11 0,22 0,33 -32,0 -64,0 -96,0 -21.33,21.335 -42.67,42.665 -64,64 -32.33,10.668 -64.67,21.332 -97,32 -10.8,10.693 -21.39,21.591 -32.31,32.154 -21.23,10.614 -42.46,21.231 -63.69,31.846 10.67,42.999 21.33,86.001 32,129 -10.67,10.665 -21.33,21.335 -32,32 0,21.333 0,42.667 0,64 -10.67,0 -21.33,0 -32,0 0,21.667 0,43.333 0,65 -43,10.667 -86,21.333 -129,32 0,10.667 0,21.333 0,32 -10.67,10.665 -21.33,21.335 -32,32 10.67,42.999 21.33,86.001 32,129 -32,32 -64,64 -96,96 -32.33,0 -64.67,0 -97,0 0,-10.667 0,-21.333 0,-32 -10.67,-21.332 -21.33,-42.668 -32,-64 -10.67,-10.665 -21.33,-21.335 -32,-32 -32.33,0 -64.67,0 -97,0 -10.67,21.332 -21.33,42.668 -32,64 10.67,0 21.33,0 32,0 0,32 0,64 0,96 -10.67,0 -21.33,0 -32,0 -10.67,10.998 -21.33,22.002 -32,33 0,42.667 0,85.333 0,128 -10.67,21.332 -21.33,42.668 -32,64 -21.33,21.668 -42.67,43.332 -64,65 -21.78,-21.713 -43.43,-43.556 -65.29,-65.19 -31.97,-21.375 -64.04,-42.591 -95.95,-64.053 -10.59,-10.582 -21.17,-21.173 -31.76,-31.757 0,-10.667 0,-21.333 0,-32 -21.67,-21.331 -43.33,-42.669 -65,-64 -21.33,10.668 -42.67,21.332 -64,32 -10.67,0 -21.33,0 -32,0 -10.67,31.999 -21.33,64.001 -32,96 -53.67,10.666 -107.33,21.334 -161,32 -10.68,32.449 -21.46,64.866 -32.07,97.337 -10.65,53.554 -21.29,107.108 -31.93,160.663 -43,-11 -86,-22 -129,-33 0,32.333 0,64.667 0,97 -10.67,31.999 -21.33,64.001 -32,96 -10.67,10.665 -21.33,21.335 -32,32 -10.67,0 -21.33,0 -32,0 -11,21.667 -22,43.333 -33,65 -21.33,10.668 -42.67,21.332 -64,32 -10.67,0 -21.33,0 -32,0 -10.67,-10.665 -21.33,-21.335 -32,-32 -21.33,0 -42.67,0 -64,0 0,21.333 0,42.667 0,64 -21.67,42.999 -43.33,86.001 -65,129 -32,32 -64,64 -96,96 -21.67,0 -43.33,0 -65,0 -10.67,10.665 -21.33,21.335 -32,32 -10.67,0 -21.33,0 -32,0 0,21.667 0,43.333 0,65 10.67,31.999 21.33,64.001 32,96 -21.33,21.335 -42.67,42.665 -64,64 -21.33,0 -42.67,0 -64,0 -10.79,10.694 -21.39,21.59 -32.31,32.155 -21.56,10.95 -43.13,21.896 -64.69,32.845 -53.67,0 -107.33,0 -161,0 -32.28,42.883 -64.26,86.019 -96.74,128.74 -10.55,10.451 -20.9,21.096 -31.57,31.415 -42.9,21.618 -85.79,43.231 -128.69,64.845 -64.33,0 -128.67,0 -193,0 0,10.667 0,21.333 0,32 -21.33,21.335 -42.67,42.665 -64,64 -10.73,32.431 -21.34,64.903 -32.15,97.307 -21.48,43.221 -43.37,86.252 -64.62,129.583 -21.4,53.038 -42.82,106.073 -64.23,159.11 -10.67,-10.665 -21.33,-21.335 -32,-32 -43.28,53.888 -86.32,107.975 -129.74,161.741 -21.09,21.081 -42.17,42.171 -63.26,63.259 -21.33,0 -42.67,0 -64,0 -10.67,31.999 -21.33,64.001 -32,96 -10.67,0 -21.33,0 -32,0 0,11 0,22 0,33 -11,10.667 -22,21.333 -33,32 0,21.333 0,42.667 0,64 -10.67,21.332 -21.33,42.668 -32,64 -10.67,0 -21.33,0 -32,0 -10.67,42.999 -21.33,86.001 -32,129 -21.33,10.668 -42.67,21.332 -64,32 0,43 0,86 0,129 -32.33,10.668 -64.67,21.332 -97,32 -10.67,-21.332 -21.33,-42.668 -32,-64 -53.67,0 -107.33,0 -161,0 -10.67,21.332 -21.33,42.668 -32,64 -21.33,0 -42.67,0 -64,0 0,21.333 0,42.667 0,64 -11.39,0.216 -22.83,-0.45 -34.18,0.361 -63.61,10.55 -127.21,21.094 -190.82,31.639 0,21.667 0,43.333 0,65 -10.67,21.332 -21.33,42.668 -32,64 -75,0 -150,0 -225,0 -0.22,11.102 0.44,22.291 -0.35,33.338 -10.88,42.555 -21.77,85.108 -32.65,127.662 0,75 0,150 0,225 -42.89,32.285 -86.02,64.268 -128.75,96.749 -21.42,21.413 -42.83,42.835 -64.25,64.251 -10.67,0 -21.33,0 -32,0 -32,32 -64,64 -96,96 0,32 0,64 0,96 -32.33,32.335 -64.67,64.665 -97,97 -21.33,96.334 -42.67,192.666 -64,289 -21.33,0 -42.67,0 -64,0 -21.67,-10.666 -43.33,-21.334 -65,-32 -10.67,0 -21.33,0 -32,0 -21.33,21.668 -42.67,43.332 -64,65 -32,10.667 -64,21.333 -96,32 -11,21.333 -22,42.667 -33,64 -10.67,10.665 -21.33,21.335 -32,32 -10.67,0 -21.33,0 -32,0 -21.33,-21.335 -42.67,-42.665 -64,-64 -32.33,0 -64.67,0 -97,0 -21.33,-32.335 -42.67,-64.665 -64,-97 -43,32.333 -86,64.667 -129,97 -42.67,-21.332 -85.33,-42.668 -128,-64 -21.67,10.666 -43.33,21.334 -65,32 -42.67,0 -85.33,0 -128,0 -53.67,31.999 -107.33,64.001 -161,96 -32,10.667 -64,21.333 -96,32 -96.67,0 -193.33,0 -290,0 -21.33,10.668 -42.67,21.332 -64,32 -21.33,0 -42.67,0 -64,0 -21.67,-10.666 -43.33,-21.334 -65,-32 -10.67,0 -21.33,0 -32,0 -21.74,11.018 -43.74,21.578 -65.33,32.889 -31.96,21.464 -64.01,42.793 -95.91,64.354 -10.59,10.582 -21.17,21.173 -31.76,31.757 -32,0 -64,0 -96,0 -32.33,10.668 -64.67,21.332 -97,32 -10.67,0 -21.33,0 -32,0 -10.67,21.332 -21.33,42.668 -32,64 -53.67,32.332 -107.33,64.668 -161,97 0,42.667 0,85.333 0,128 -10.67,0 -21.33,0 -32,0 -10.8,11.026 -21.37,22.264 -32.31,33.153 -43.22,21.559 -86.64,42.748 -129.73,64.538 -31.72,21.205 -63.54,42.258 -95.2,63.552 -10.59,10.582 -21.17,21.173 -31.76,31.757 0,43 0,86 0,129 -10.8,10.692 -21.38,21.592 -32.31,32.152 -21.56,10.621 -43.13,21.231 -64.69,31.848 -10.67,10.665 -21.33,21.335 -32,32 -32,-10.667 -64,-21.333 -96,-32 -21.67,10.666 -43.33,21.334 -65,32 -10.67,10.998 -21.33,22.002 -32,33 10.67,21.332 21.33,42.668 32,64 -10.67,21.332 -21.33,42.668 -32,64 -42.67,10.666 -85.33,21.334 -128,32 -43,-10.667 -86,-21.333 -129,-32 -32,10.667 -64,21.333 -96,32 -32.33,-10.668 -64.67,-21.332 -97,-32 -10.69,10.794 -21.59,21.381 -32.15,32.308 -10.7,21.647 -21.26,43.369 -32.06,64.966 -32.27,42.574 -64.53,85.149 -96.79,127.726 -10.67,-10.665 -21.33,-21.335 -32,-32 -21.33,10.668 -42.67,21.332 -64,32 -21.67,0 -43.33,0 -65,0 -32,10.667 -64,21.333 -96,32 -21.33,0 -42.67,0 -64,0 0,-10.667 0,-21.333 0,-32 -32.33,-10.668 -64.67,-21.332 -97,-32 -10.67,-10.665 -21.33,-21.335 -32,-32 0,43 0,86 0,129 -42.67,42.665 -85.33,85.335 -128,128 -21.67,10.666 -43.33,21.334 -65,32 0,32.333 0,64.667 0,97 -10.67,10.665 -21.33,21.335 -32,32 -64.33,10.668 -128.67,21.332 -193,32 -21.33,0 -42.67,0 -64,0 0,-32 0,-64 0,-96 -21.67,-32.332 -43.33,-64.668 -65,-97 0,-32 0,-64 0,-96 -10.67,-21.665 -21.33,-43.335 -32,-65 -10.67,0 -21.33,0 -32,0 -21.33,21.668 -42.67,43.332 -64,65 -21.33,0 -42.67,0 -64,0 -32.33,-43.002 -64.67,-85.998 -97,-129 -21.33,-10.668 -42.67,-21.332 -64,-32 -32.33,0 -64.67,0 -97,0 -32,-21.333 -64,-42.667 -96,-64 0,-11 0,-22 0,-33 -10.67,-21.455 -21.52,-42.821 -32.08,-64.333 -10.64,-42.555 -21.28,-85.111 -31.92,-127.667 0,-21.667 0,-43.333 0,-65 10.67,-31.999 21.33,-64.001 32,-96 -10.67,-10.665 -21.33,-21.335 -32,-32 0,-11 0,-22 0,-33 -21.67,-21.331 -43.33,-42.669 -65,-64 -21.33,-10.668 -42.67,-21.332 -64,-32 -32,10.667 -64,21.333 -96,32 -11.72,0.219 -23.5,-0.451 -35.18,0.361 -63.61,10.55 -127.21,21.094 -190.82,31.639 0,-32 0,-64 0,-96 -42.67,0 -85.33,0 -128,0 0,-10.667 0,-21.333 0,-32 -21.33,-10.668 -42.67,-21.332 -64,-32 -11,0 -22,0 -33,0 0,-11 0,-22 0,-33 -10.67,0 -21.33,0 -32,0 -10.67,-10.665 -21.33,-21.335 -32,-32 -10.67,10.665 -21.33,21.335 -32,32 -10.67,0 -21.33,0 -32,0 0,21.667 0,43.333 0,65 -21.67,-21.665 -43.33,-43.335 -65,-65 -21.33,0 -42.67,0 -64,0 -21.33,53.668 -42.67,107.332 -64,161 -32.33,21.335 -64.67,42.665 -97,64 -10.69,-10.793 -21.59,-21.386 -32.15,-32.307 -10.61,-21.233 -21.23,-42.463 -31.85,-63.693 -32,0 -64,0 -96,0 -21.67,10.666 -43.33,21.334 -65,32 -42.67,0 -85.33,0 -128,0 -10.67,21.332 -21.33,42.668 -32,64 -21.67,0 -43.33,0 -65,0 -10.67,-42.666 -21.33,-85.334 -32,-128 -10.67,0 -21.33,0 -32,0 -21.33,-10.668 -42.67,-21.332 -64,-32 -21.67,-32.332 -43.33,-64.668 -65,-97 -42.67,0 -85.33,0 -128,0 -32.33,-32.002 -64.67,-63.998 -97,-96 -32.23,-54.223 -64.76,-108.279 -96.81,-162.608 -10.69,-21.06 -20.86,-42.435 -31.9,-63.288 -42.77,-53.365 -85.53,-106.736 -128.29,-160.104 -21.33,-10.668 -42.67,-21.332 -64,-32 -10.67,0 -21.33,0 -32,0 -21.67,-10.666 -43.33,-21.334 -65,-32 -32.1,10.733 -64.24,21.345 -96.31,32.154 -21.23,10.614 -42.46,21.231 -63.69,31.846 -64.33,64.335 -128.67,128.665 -193,193 -11.35,0.229 -22.8,-0.463 -34.08,0.358 -31.64,10.546 -63.28,21.095 -94.92,31.642 -10.67,0 -21.33,0 -32,0 -32.39,32.104 -64.88,64.113 -97.21,96.275 -31.93,42.906 -63.86,85.817 -95.79,128.725 -21.41,10.762 -42.91,21.338 -64.26,32.22 -64.35,53.65 -128.64,107.372 -193.03,160.969 -32.23,21.277 -64.47,42.542 -96.71,63.811 -110.44,36.944 -220.73,74.358 -331.29,110.951 -18.24,6.017 -36.47,12.032 -54.71,18.049 -21.33,21.335 -42.67,42.665 -64,64 -21.33,43.001 -42.67,85.999 -64,129 -32.33,21.335 -64.67,42.665 -97,64 -53.33,85.668 -106.67,171.332 -160,257 0.1,21.778 -0.11,43.556 0.1,65.333 10.64,42.555 21.28,85.111 31.92,127.667 0,43 0,86 0,129 21.33,10.668 42.67,21.332 64,32 -10.67,0 -21.33,0 -32,0 0,10.667 0,21.333 0,32 -10.67,21.665 -21.33,43.335 -32,65 32,10.667 64,21.333 96,32 43,75 86,150 129,225 0,53.667 0,107.333 0,161 21.33,64.001 42.67,127.999 64,192 21.33,11.001 42.67,21.999 64,33 11,10.667 22,21.333 33,32 64,21.333 128,42.667 192,64 11,21.333 22,42.667 33,64 32,0 64,0 96,0 21.33,21.668 42.67,43.332 64,65 21.67,10.666 43.33,21.334 65,32 21.33,21.335 42.67,42.665 64,64 0,10.667 0,21.333 0,32 -21.33,21.668 -42.67,43.332 -64,65 0,21.333 0,42.667 0,64 -10.67,21.332 -21.33,42.668 -32,64 -32.33,10.668 -64.67,21.332 -97,32 0,21.667 0,43.333 0,65 -21.33,0 -42.67,0 -64,0 0,32 0,64 0,96 21.33,0 42.67,0 64,0 10.67,10.665 21.33,21.335 32,32 0,10.667 0,21.333 0,32 -21.33,43.001 -42.67,85.999 -64,129 32,32 64,64 96,96 21.67,10.999 43.33,22.001 65,33 10.67,21.332 21.33,42.668 32,64 -10.67,42.999 -21.33,86.001 -32,129 -32.33,21.335 -64.67,42.665 -97,64 -10.67,31.999 -21.33,64.001 -32,96 0,21.667 0,43.333 0,65 -96.33,0 -192.67,0 -289,0 -10.84,11.06 -22.15,21.717 -32.7,33.032 -21.44,31.653 -42.87,63.311 -64.3,94.968 10.67,21.665 21.33,43.335 32,65 0,32.113 0.1,64.227 0,96.34 -10.65,74.886 -21.3,149.773 -31.95,224.66 -32.09,43.072 -64.08,86.219 -96.24,129.243 -64.26,64.246 -128.51,128.503 -192.76,192.757 0,96.333 0,192.667 0,289 -21.44,21.383 -42.76,42.891 -64.29,64.191 -32.3,21.709 -64.71,43.257 -96.95,65.052 -31.92,31.917 -63.84,63.838 -95.76,95.757 -11,32.333 -22,64.667 -33,97 -21.33,21.335 -42.67,42.665 -64,64 -10.67,53.666 -21.33,107.334 -32,161 0,10.667 0,21.333 0,32 -75,0 -150,0 -225,0 -64.31,-32.381 -128.56,-64.886 -193,-97 -21.33,0 -42.67,0 -64,0 -10.67,21.79 -21.51,43.496 -32.09,65.333 -10.97,42.556 -21.94,85.111 -32.91,127.667 11,53.667 22,107.333 33,161 0,10.667 0,21.333 0,32 -31.56,31.256 -63.66,61.98 -94.27,94.183 -5.72,5.981 -5.57,15.397 -8.73,22.879 -30,100.313 -60,200.625 -90,300.938 -11,21.333 -22,42.667 -33,64 -10.67,10.998 -21.33,22.002 -32,33 -32,0 -64,0 -96,0 -10.69,10.794 -21.59,21.39 -32.16,32.306 -31.05,61.372 -62.64,122.476 -92.72,184.333 -2.15,4.751 -3.75,10.391 -10.12,8.361 -8.67,0 -17.33,0 -26,0 -21.33,10.668 -42.67,21.332 -64,32 -21.33,0 -42.67,0 -64,0 -43.12,-21.234 -86.3,-42.368 -129.13,-64.194 -32.38,-21.44 -64.56,-43.232 -96.87,-64.806 -10.67,0 -21.33,0 -32,0 -32,21.667 -64,43.333 -96,65 -11.01,-0.234 -22.14,0.475 -33.09,-0.368 -31.97,-10.879 -63.94,-21.754 -95.91,-32.632 -32,-21.333 -64,-42.667 -96,-64 -32.33,-64.335 -64.67,-128.665 -97,-193 -21.33,-21.335 -42.67,-42.665 -64,-64 -21.33,-10.668 -42.67,-21.332 -64,-32 -21.67,0 -43.33,0 -65,0 -14.68,15.048 -30.37,29.177 -43.63,45.549 -60.71,70.717 -121.29,141.566 -182.11,212.19 -10.42,10.417 -20.84,20.842 -31.26,31.261 -32,10.667 -64,21.333 -96,32 -43,-10.667 -86,-21.333 -129,-32 -10.67,0 -21.33,0 -32,0 -10.69,10.794 -21.59,21.381 -32.15,32.308 -10.61,21.566 -21.23,43.129 -31.85,64.692 -21.67,21.331 -43.33,42.669 -65,64 -32,10.667 -64,21.333 -96,32 -32.33,0 -64.67,0 -97,0 -42.67,-31.998 -85.33,-64.002 -128,-96 -43,0 -86,0 -129,0 -21.33,10.668 -42.67,21.332 -64,32 -21.67,42.665 -43.33,85.335 -65,128 -10.79,10.695 -21.39,21.589 -32.31,32.157 -21.23,10.95 -42.46,21.895 -63.69,32.843 -32,0 -64,0 -96,0 -21.67,10.666 -43.33,21.334 -65,32 -10.67,10.665 -21.33,21.335 -32,32 0,10.667 0,21.333 0,32 -10.67,0 -21.33,0 -32,0 21.33,64.334 42.67,128.666 64,193 -10.67,31.999 -21.33,64.001 -32,96 0,11 0,22 0,33 -32,10.667 -64,21.333 -96,32 -43,-10.667 -86,-21.333 -129,-32 -21.33,10.668 -42.67,21.332 -64,32 -10.67,10.665 -21.33,21.335 -32,32 -32.33,10.668 -64.67,21.332 -97,32 -10.67,10.665 -21.33,21.335 -32,32 0,32.333 0,64.667 0,97 -43,0 -86,0 -129,0 -32,64.333 -64,128.667 -96,193 0,32 0,64 0,96 -21.44,21.388 -42.78,42.869 -64.27,64.206 -42.91,32.265 -85.82,64.529 -128.73,96.794 -10.67,-21.665 -21.33,-43.335 -32,-65 -10.67,0 -21.33,0 -32,0 -32.33,32.335 -64.67,64.665 -97,97 -21.33,0 -42.67,0 -64,0 -10.67,10.665 -21.33,21.335 -32,32 -10.67,0 -21.33,0 -32,0 -32.33,32.335 -64.67,64.665 -97,97 -64.33,-53.669 -128.67,-107.331 -193,-161 0,-10.667 0,-21.333 0,-32 -11.01,-0.235 -22.13,0.478 -33.07,-0.369 -31.64,-10.874 -63.29,-21.753 -94.93,-32.631 -32.33,0 -64.67,0 -97,0 -21.33,-32.002 -42.67,-63.998 -64,-96 -21.33,-10.668 -42.67,-21.332 -64,-32 -11.13,-10.695 -22.06,-21.588 -33.31,-32.154 -21.23,-10.614 -42.46,-21.231 -63.69,-31.846 -10.67,-10.998 -21.33,-22.002 -32,-33 -21.33,0 -42.67,0 -64,0 -32.33,11.001 -64.67,21.999 -97,33 -10.67,-10.998 -21.33,-22.002 -32,-33 -64.45,-0.03 -128.89,0.06 -193.34,-0.04 -85.67,-10.642 -171.32,-21.389 -257,-31.958 -10.55,0 -21.11,0 -31.66,0 0,-10.667 0,-21.333 0,-32 -10.67,-10.665 -21.33,-21.335 -32,-32 -43,0 -86,0 -129,0 -10.67,-10.665 -21.33,-21.335 -32,-32 -21.33,-53.668 -42.67,-107.332 -64,-161 0,-10.667 0,-21.333 0,-32 -32.45,-10.675 -64.87,-21.458 -97.34,-32.067 -53.55,-10.642 -107.11,-21.288 -160.66,-31.933 -53.67,-42.998 -107.33,-86.002 -161,-129 -21.33,-96.334 -42.67,-192.666 -64,-289 0,-11 0,-22 0,-33 -10.69,-10.793 -21.59,-21.386 -32.15,-32.307 -10.61,-21.233 -21.23,-42.463 -31.85,-63.693 -21.33,0 -42.67,0 -64,0 -21.67,-10.666 -43.33,-21.334 -65,-32 -10.67,0 -21.33,0 -32,0 -21.33,-21.335 -42.67,-42.665 -64,-64 -0.33,-12.497 0.72,-25.082 -0.65,-37.52 -10.44,-73.495 -20.9,-146.987 -31.35,-220.48 -10.67,-31.999 -21.33,-64.001 -32,-96 10.67,-21.665 21.33,-43.335 32,-65 0,-32 0,-64 0,-96 -10.67,-21.332 -21.33,-42.668 -32,-64 21.43,-32.402 42.71,-64.904 64.24,-97.243 45.49,-45.326 90.66,-90.973 136.35,-136.089 8.14,-7.888 16.28,-15.778 24.41,-23.668 0,-21.667 0,-43.333 0,-65 -43,-32 -86,-64 -129,-96 -10.67,-32.332 -21.33,-64.668 -32,-97 10.67,-53.333 21.33,-106.667 32,-160 -10.67,-21.665 -21.33,-43.335 -32,-65 -43,-32 -86,-64 -129,-96 -21.33,-43.001 -42.67,-85.999 -64,-129 -21.33,-10.668 -42.67,-21.332 -64,-32 -11.39,-10.844 -22.41,-22.133 -34.04,-32.691 -31.72,-21.211 -63.55,-42.25 -95.2,-63.556 -10.59,-10.911 -21.17,-21.837 -31.76,-32.753 0,-53.333 0,-106.667 0,-160 -11.24,-11.321 -21.96,-23.212 -33.55,-34.157 -42.49,-31.613 -84.97,-63.23 -127.45,-94.843 -21.33,-32.002 -42.67,-63.998 -64,-96 0,-96.667 0,-193.333 0,-290 -21.76,-32.071 -43.39,-64.232 -65.24,-96.245 -21.25,-21.585 -42.51,-43.168 -63.76,-64.755 -10.67,0 -21.33,0 -32,0 -53.67,32.332 -107.33,64.668 -161,97 -21.33,0 -42.67,0 -64,0 -32.33,32.002 -64.67,63.998 -97,96 -21.33,10.668 -42.67,21.332 -64,32 -64.33,0 -128.67,0 -193,0 -21.33,32.335 -42.67,64.665 -64,97 10.74,21.714 21.87,43.256 32.36,65.081 10.55,31.973 21.09,63.946 31.64,95.919 -10.67,31.999 -21.33,64.001 -32,96 -21.33,21.335 -42.67,42.665 -64,64 -75,43 -150,86 -225,129 -75,-10.667 -150,-21.333 -225,-32 -64.33,-32.334 -128.67,-64.666 -193,-97 -76.17,22.098 -152.44,43.848 -228.54,66.17 -31.16,10.277 -62.31,20.554 -93.46,30.83 z"
         id="path70" />
    </g>
  </g>
</svg>
