<?xml version="1.0" encoding="UTF-8" standalone="no"?>
<!-- Created with Inkscape (http://www.inkscape.org/) -->

<svg
   xmlns:dc="http://purl.org/dc/elements/1.1/"
   xmlns:cc="http://creativecommons.org/ns#"
   xmlns:rdf="http://www.w3.org/1999/02/22-rdf-syntax-ns#"
   xmlns:svg="http://www.w3.org/2000/svg"
   xmlns="http://www.w3.org/2000/svg"
   xmlns:sodipodi="http://sodipodi.sourceforge.net/DTD/sodipodi-0.dtd"
   xmlns:inkscape="http://www.inkscape.org/namespaces/inkscape"
   width="31.979776mm"
   height="20.96981mm"
   viewBox="0 0 31.979776 20.96981"
   version="1.1"
   id="svg1336"
   inkscape:version="0.92.5 (2060ec1f9f, 2020-04-08)"
   sodipodi:docname="pr.svg">
  <defs
     id="defs1330" />
  <sodipodi:namedview
     id="base"
     pagecolor="#ffffff"
     bordercolor="#666666"
     borderopacity="1.0"
     inkscape:pageopacity="0.0"
     inkscape:pageshadow="2"
     inkscape:zoom="0.35"
     inkscape:cx="220.43422"
     inkscape:cy="496.77085"
     inkscape:document-units="mm"
     inkscape:current-layer="layer1"
     showgrid="false"
     inkscape:window-width="1366"
     inkscape:window-height="704"
     inkscape:window-x="0"
     inkscape:window-y="0"
     inkscape:window-maximized="1" />
  <metadata
     id="metadata1333">
    <rdf:RDF>
      <cc:Work
         rdf:about="">
        <dc:format>image/svg+xml</dc:format>
        <dc:type
           rdf:resource="http://purl.org/dc/dcmitype/StillImage" />
        <dc:title></dc:title>
      </cc:Work>
    </rdf:RDF>
  </metadata>
  <g
     inkscape:label="Layer 1"
     inkscape:groupmode="layer"
     id="layer1"
     transform="translate(-14.248207,-259.30081)">
    <g
       transform="matrix(9.9994773e-4,0,0,9.9994773e-4,-82.802101,122.12318)"
       id="Parana">
      <path
         inkscape:connector-curvature="0"
         style="fill:#999999;fill-opacity:1;stroke:#ffffff;stroke-width:282.23678589;stroke-miterlimit:4;stroke-dasharray:none;stroke-opacity:1"
         d="m 97540,151634 c 10.665,-10.67 21.335,-21.33 32,-32 0,-21.33 0,-42.67 0,-64 31.852,-64.16 63.578,-128.38 95.701,-192.4 21.625,-32.29 43.556,-64.38 65.299,-96.6 31.998,-21.67 64.002,-43.33 96,-65 43.041,-53.75 86.137,-107.45 129.148,-161.22 21.378,-32.19 42.993,-64.24 64.221,-96.52 21.21,-42.76 42.42,-85.51 63.631,-128.26 11,-64 22,-128 33,-192 21.335,-32.33 42.665,-64.67 64,-97 10.667,-32 21.333,-64 32,-96 21.335,-32.33 42.665,-64.67 64,-97 21.667,0 43.333,0 65,0 10.668,-21.33 21.332,-42.67 32,-64 -10.667,-43 -21.333,-86 -32,-129 -11.001,-21.33 -21.999,-42.67 -33,-64 -21.335,-21.33 -42.665,-42.67 -64,-64 -10.666,-21.67 -21.334,-43.33 -32,-65 10.668,-21.33 21.332,-42.67 32,-64 -10.667,-32 -21.333,-64 -32,-96 0,-32.33 0,-64.67 0,-97 31.999,-85.67 64.001,-171.33 96,-257 0,-64.33 0,-128.67 0,-193 21.667,-43 43.333,-86 65,-129 32.297,-128.68 64.075,-257.5 96.085,-386.25 42.989,-128.24 86.218,-256.41 128.915,-384.75 21.333,-11 42.667,-22 64,-33 10.817,-21.81 21.913,-43.48 32.553,-65.37 21.597,-53.64 43.395,-107.2 64.867,-160.89 10.826,-32.24 21.357,-64.57 32.374,-96.74 21.07,-53 42.138,-106 63.206,-159 10.659,-117.76 21.382,-235.51 32,-353.27 0,-21.58 0,-43.15 0,-64.73 -21.462,-75.6 -43.08,-151.16 -64.441,-226.78 -10.518,-42.41 -21.04,-84.81 -31.559,-127.22 21.333,-75 42.667,-150 64,-225 42.998,-42.67 86.002,-85.33 129,-128 32,-43 64,-86 96,-129 21.485,-53.9 42.774,-107.89 64.38,-161.74 10.871,-21.09 21.745,-42.17 32.62,-63.26 -21.666,-85.67 -43.334,-171.33 -65,-257 -21.335,-32.33 -42.665,-64.67 -64,-97 -53.668,-53.33 -107.332,-106.67 -161,-160 -10.668,-32.33 -21.332,-64.67 -32,-97 0,-64.33 0,-128.67 0,-193 -21.334,-53.33 -42.666,-106.67 -64,-160 0,-21.67 0,-43.33 0,-65 -10.665,-10.67 -21.335,-21.33 -32,-32 21.333,-43 42.667,-86 64,-129 42.667,-32 85.333,-64 128,-96 32.409,-43.05 64.731,-86.17 97.189,-129.19 10.605,-10.6 21.206,-21.21 31.811,-31.81 10.753,0 21.507,0.1 32.26,-0.1 42.913,-10.65 85.827,-21.29 128.74,-31.94 117.665,-85.67 235.335,-171.33 353,-257 64.335,-32.33 128.665,-64.67 193,-97 32.333,-32 64.667,-64 97,-96 10.684,-21.42 21.455,-42.8 32.085,-64.25 32.302,-96.58 64.609,-193.17 96.915,-289.75 0,-42.67 0,-85.33 0,-128 -11,-32.33 -21.999,-64.67 -33,-97 11.001,-21.33 22,-42.67 33,-64 -11,-10.67 -22.002,-21.33 -33,-32 11.001,-32.42 22.11,-64.81 33.04,-97.26 10.66,-64.25 21.31,-128.49 31.96,-192.74 32,-53.33 64,-106.67 96,-160 0.13,-11.42 -0.27,-22.87 0.21,-34.28 10.6,-63.57 21.19,-127.15 31.79,-190.72 10.83,-32.56 21.35,-65.25 32.38,-97.74 10.87,-21.18 21.9,-42.29 32.68,-63.52 10.69,-43.35 21.64,-86.64 32.15,-130.02 10.6,-63.91 21.19,-127.81 31.79,-191.72 21.33,-64.33 42.67,-128.67 64,-193 0,-64.33 0,-128.67 0,-193 43,-75 86,-150 129,-225 0,-10.67 0,-21.33 0,-32 21.33,-10.67 42.67,-21.33 64,-32 10.67,-10.67 21.33,-21.33 32,-32 43,10.67 86,21.33 129,32 85.67,-43 171.33,-86 257,-129 96.33,-64.33 192.67,-128.67 289,-193 75.33,-21.33 150.67,-42.67 226,-64 10.71,-10.75 21.5,-21.42 32.16,-32.22 53.61,-74.93 107.23,-149.85 160.84,-224.78 21.33,-43 42.67,-86 64,-129 0,-10.67 0,-21.33 0,-32 21.35,-53.76 42.77,-107.48 64.07,-161.26 21.31,-74.91 42.62,-149.83 63.93,-224.74 43,-64.33 86,-128.67 129,-193 0,-21.33 0,-42.67 0,-64 43,-43 86,-86 129,-129 0,-203.33 0,-406.67 0,-610 32,-43 64,-86 96,-129 10.67,-43 21.33,-86 32,-129 32.6,-21.43 65.06,-43.08 97.74,-64.37 21.08,-10.54 42.17,-21.08 63.26,-31.63 21.33,-21.33 42.67,-42.67 64,-64 0,-11 0,-22 0,-33 21.67,-32 43.33,-64 65,-96 43.05,-21.46 86,-43.14 129.13,-64.45 53.29,-21.52 106.58,-43.03 159.87,-64.55 53.67,-32 107.33,-64 161,-96 32,-10.67 64,-21.33 96,-32 32.33,-32.33 64.67,-64.67 97,-97 0,-10.67 0,-21.33 0,-32 10.75,0 21.51,0.1 32.26,-0.1 42.58,-10.65 85.16,-21.29 127.74,-31.94 21.67,-32.33 43.33,-64.67 65,-97 10.67,-10.67 21.33,-21.33 32,-32 43.17,-21.59 86.31,-43.24 129.76,-64.25 128.17,-42.64 256.16,-85.82 384.24,-128.75 11,0 22,0 33,0 0,-10.67 0,-21.33 0,-32 64,0 128,0 192,0 21.36,-20.59 42.58,-41.32 63.42,-62.43 11.26,-11.25 22.53,-22.49 33.74,-33.78 74.95,-96.6 149.89,-193.19 224.84,-289.79 10.67,0 21.33,0 32,0 32.33,-53.33 64.67,-106.67 97,-160 21.48,64.28 42.84,128.61 64,193 21.33,-32.33 42.67,-64.67 64,-97 43,-10.67 86,-21.33 129,-32 36.92,-36.87 73.82,-73.75 110.31,-111.04 6.1,-6.02 11.91,-12.45 18.2,-18.21 21.49,-10.58 42.99,-21.17 64.49,-31.75 0,-10.67 0,-21.33 0,-32 42.67,-21.33 85.33,-42.67 128,-64 11,-10.67 22,-21.33 33,-32 75,-11 150,-22 225,-33 32,11 64,22 96,33 75,53.33 150,106.67 225,160 21.33,11 42.67,22 64,33 53.67,-21.67 107.33,-43.33 161,-65 43,0 86,0 129,0 10.67,10.67 21.33,21.33 32,32 43,11 86,22 129,33 42.67,21.33 85.33,42.67 128,64 32.33,0 64.67,0 97,0 64.33,-21.33 128.67,-42.67 193,-64 96.51,-64.4 192.94,-128.95 289.5,-193.26 21.17,-10.91 42.33,-21.82 63.5,-32.74 10.67,0 21.33,0 32,0 21.67,32.33 43.33,64.67 65,97 42.67,43 85.33,86 128,129 10.67,0 21.33,0 32,0 21.73,10.73 43.51,21.37 65.22,32.15 31.93,21.27 63.85,42.57 95.78,63.85 10.67,0 21.33,0 32,0 53.67,-32 107.33,-64 161,-96 21.33,0 42.67,0 64,0 0,-11 0,-22 0,-33 21.67,0 43.33,0 65,0 10.67,11 21.33,22 32,33 10.67,0 21.33,0 32,0 21.72,10.79 43.33,21.82 65.13,32.45 53.29,21.18 106.58,42.36 159.87,63.55 75,0 150,0 225,0 32.33,10.67 64.67,21.33 97,32 21.33,-21.33 42.67,-42.67 64,-64 21.43,-10.67 42.79,-21.48 64.26,-32.06 42.91,-10.65 85.83,-21.29 128.74,-31.94 10.7,10.75 21.51,21.41 32.15,32.22 21.28,31.93 42.57,63.85 63.85,95.78 0,53.67 0,107.33 0,161 10.67,0 21.33,0 32,0 45.62,-22.73 91.39,-45.16 136.92,-68.07 18.77,-9.67 37.51,-19.43 56.34,-28.99 42.91,-10.65 85.83,-21.29 128.74,-31.94 -10.67,-64.33 -21.33,-128.67 -32,-193 0,-10.75 -0.1,-21.51 0.1,-32.26 10.65,-42.58 21.29,-85.16 31.94,-127.74 0.1,-11.08 -0.11,-22.17 0.1,-33.25 10.64,-31.92 21.28,-63.83 31.92,-95.75 21.74,-32.05 43.38,-64.18 65.19,-96.19 10.6,-10.94 21.21,-21.87 31.81,-32.81 21.33,-10.67 42.67,-21.33 64,-32 10.67,0 21.33,0 32,0 21.75,10.96 43.65,21.65 65.32,32.79 53.22,32.08 106.45,64.14 159.68,96.21 53.67,0 107.33,0 161,0 43,10.67 86,21.33 129,32 53.33,32 106.67,64 160,96 32.33,0 64.67,0 97,0 64.51,53.88 129.15,107.6 193.57,161.57 19.44,19.34 38.79,38.76 57.74,58.57 23.06,23.46 46.5,46.54 69.69,69.86 32.33,10.67 64.67,21.33 97,32 10.75,0 21.51,0.1 32.26,-0.1 117.91,-31.99 235.83,-63.95 353.74,-95.93 21.33,10.67 42.67,21.33 64,32 10.67,0 21.33,0 32,0 10.67,10.67 21.33,21.33 32,32 21.67,0 43.33,0 65,0 0,10.75 -0.1,21.51 0.1,32.26 10.65,42.91 21.29,85.83 31.94,128.74 10.67,21.33 21.33,42.67 32,64 32,0 64,0 96,0 32.33,-21.33 64.67,-42.67 97,-64 75,0 150,0 225,0 21.4,10.73 42.85,21.35 64.21,32.16 42.93,31.95 85.86,63.89 128.79,95.84 32.23,10.83 64.59,21.36 96.75,32.38 21.42,10.87 42.83,21.75 64.25,32.62 10.67,-11 21.33,-22 32,-33 42.67,-10.67 85.33,-21.33 128,-32 10.67,10.67 21.33,21.33 32,32 21.67,0 43.33,0 65,0 42.67,-21.33 85.33,-42.67 128,-64 11,0 22,0 33,0 32,-43 64,-86 96,-129 32,0 64,0 96,0 43,21.67 86,43.33 129,65 21.33,0 42.67,0 64,0 21.67,-10.67 43.33,-21.33 65,-32 42.67,10.67 85.33,21.33 128,32 21.75,0 43.51,-0.1 65.26,0.1 42.58,10.65 85.16,21.29 127.74,31.94 10.75,-0.1 21.5,0.11 32.25,-0.1 32.25,-10.64 64.5,-21.28 96.75,-31.92 21.33,10.67 42.67,21.33 64,32 21.33,21.33 42.67,42.67 64,64 11,0 22,0 33,0 10.67,43 21.33,86 32,129 32,21.33 64,42.67 96,64 10.75,0.1 21.5,-0.11 32.25,0.1 32.48,10.8 65.08,21.31 97.49,32.29 21.16,10.6 42.35,21.12 63.48,31.78 32.26,21.61 64.52,43.23 96.78,64.85 64.33,21.33 128.67,42.67 193,64 85.67,0 171.33,0 257,0 85.67,43 171.33,86 257,129 21.33,0 42.67,0 64,0 21.67,-11 43.33,-22 65,-33 32,0 64,0 96,0 21.33,32.33 42.67,64.67 64,97 11,0 22,0 33,0 21.33,-10.67 42.67,-21.33 64,-32 53.67,0 107.33,0 161,0 10.75,10.7 21.41,21.5 32.22,32.15 64.26,42.95 128.52,85.9 192.78,128.85 21.33,42.67 42.67,85.33 64,128 10.67,10.67 21.33,21.33 32,32 10.67,32.33 21.33,64.67 32,97 32.33,10.67 64.67,21.33 97,32 -0.11,21.67 0.22,43.36 -0.16,65.01 -10.62,64 -21.23,127.99 -31.84,191.99 10.67,10.67 21.33,21.33 32,32 64.33,0 128.67,0 193,0 20.43,20.31 40.73,40.76 60.67,61.56 3.22,5.6 10.01,2.79 15.33,3.44 17.33,0 34.67,0 52,0 32.33,-11 64.67,-22 97,-33 42.67,-75 85.33,-150 128,-225 20.15,-20.27 40.43,-40.42 61.07,-60.19 2.73,-4.55 7.53,-3.99 12.18,-3.81 29.25,0 58.5,0 87.75,0 10.67,21.33 21.33,42.67 32,64 32.57,11.16 65.24,22.04 97.74,33.37 21.08,10.54 42.17,21.08 63.26,31.63 21.33,-10.67 42.67,-21.33 64,-32 21.67,-21.67 43.33,-43.33 65,-65 42.67,10.67 85.33,21.33 128,32 21.67,11 43.33,22 65,33 10.67,10.67 21.33,21.33 32,32 10.67,21.33 21.33,42.67 32,64 10.67,10.67 21.33,21.33 32,32 21.33,10.67 42.67,21.33 64,32 21.67,-21.33 43.33,-42.67 65,-64 10.67,0 21.33,0 32,0 32,21.33 64,42.67 96,64 21.33,-10.67 42.67,-21.33 64,-32 32.33,10.67 64.67,21.33 97,32 10.67,-21.33 21.33,-42.67 32,-64 10.67,0 21.33,0 32,0 0,-32 0,-64 0,-96 10.67,-11 21.33,-22 32,-33 21.67,0 43.33,0 65,0 21.33,-10.67 42.67,-21.33 64,-32 32.33,21.67 64.67,43.33 97,65 0,10.67 0,21.33 0,32 21.33,21.33 42.67,42.67 64,64 10.67,21.33 21.33,42.67 32,64 53.67,0 107.33,0 161,0 10.67,-21.33 21.33,-42.67 32,-64 21.33,0 42.67,0 64,0 21.33,-10.67 42.67,-21.33 64,-32 43,21.33 86,42.67 129,64 10.67,10.67 21.33,21.33 32,32 0,10.67 0,21.33 0,32 10.67,0 21.33,0 32,0 21.67,-10.67 43.33,-21.33 65,-32 21.33,10.67 42.67,21.33 64,32 32.33,0 64.67,0 97,0 32,-10.67 64,-21.33 96,-32 21.33,-21.33 42.67,-42.67 64,-64 32.33,10.67 64.67,21.33 97,32 32,0 64,0 96,0 21.33,-32 42.67,-64 64,-96 21.67,0 43.33,0 65,0 21.33,10.67 42.67,21.33 64,32 32.33,-32.33 64.67,-64.67 97,-97 0,-10.67 0,-21.33 0,-32 32,10.67 64,21.33 96,32 21.33,0 42.67,0 64,0 11,32.33 22,64.67 33,97 21.33,0 42.67,0 64,0 10.67,-10.67 21.33,-21.33 32,-32 -10.67,-21.67 -21.33,-43.33 -32,-65 0,-10.67 0,-21.33 0,-32 10.67,-10.67 21.33,-21.33 32,-32 32,21.33 64,42.67 96,64 0,11 0,22 0,33 11,21.33 22,42.67 33,64 -11,32 -22,64 -33,96 -10.67,10.67 -21.33,21.33 -32,32 0,11 0,22 0,33 32.33,32 64.67,64 97,96 32,0 64,0 96,0 21.4,10.73 42.85,21.37 64.22,32.15 32.26,21.61 64.52,43.23 96.78,64.85 0,10.67 0,21.33 0,32 -10.67,0 -21.33,0 -32,0 0,10.67 0,21.33 0,32 -10.67,21.33 -21.33,42.67 -32,64 0,43 0,86 0,129 21.33,0 42.67,0 64,0 21.33,21.33 42.67,42.67 64,64 10.67,-10.67 21.33,-21.33 32,-32 20.79,20.05 41.46,40.22 61.76,60.77 3.3,5.38 10,2.54 15.24,3.23 17.33,0 34.67,0 52,0 32.33,-10.67 64.67,-21.33 97,-32 21.33,21.33 42.67,42.67 64,64 10.67,0 21.33,0 32,0 0,11 0,22 0,33 10.67,10.67 21.33,21.33 32,32 10.67,0 21.33,0 32,0 10.67,10.67 21.33,21.33 32,32 21.67,0 43.33,0 65,0 21.33,10.67 42.67,21.33 64,32 21.33,-10.67 42.67,-21.33 64,-32 21.67,0 43.33,0 65,0 21.33,21.33 42.67,42.67 64,64 -21.33,32.33 -42.67,64.67 -64,97 10.67,10.67 21.33,21.33 32,32 21.33,10.67 42.67,21.33 64,32 10.67,21.33 21.33,42.67 32,64 10.67,-10.67 21.33,-21.33 32,-32 0,10.67 0,21.33 0,32 11,10.67 22,21.33 33,32 32,0 64,0 96,0 -10.67,11 -21.33,22 -32,33 10.7,10.76 21.52,21.4 32.14,32.23 31.95,53.26 63.91,106.51 95.86,159.77 0,32.33 0,64.67 0,97 11,10.67 22,21.33 33,32 10.67,0 21.33,0 32,0 -10.67,21.33 -21.33,42.67 -32,64 10.67,11 21.33,22 32,33 21.33,42.67 42.67,85.33 64,128 0,32.33 0,64.67 0,97 10.67,21.33 21.33,42.67 32,64 0,21.33 0,42.67 0,64 -10.67,21.67 -21.33,43.33 -32,65 -10.67,-11 -21.33,-22 -32,-33 0,32.33 0,64.67 0,97 32,0 64,0 96,0 32.33,21.33 64.67,42.67 97,64 0,10.67 0,21.33 0,32 10.67,10.67 21.33,21.33 32,32 -10.67,11 -21.33,22 -32,33 -10.67,-11 -21.33,-22 -32,-33 -32.33,11 -64.67,22 -97,33 0,10.67 0,21.33 0,32 32.33,0 64.67,0 97,0 0,21.33 0,42.67 0,64 10.67,0 21.33,0 32,0 10.67,10.67 21.33,21.33 32,32 10.67,0 21.33,0 32,0 0,21.33 0,42.67 0,64 21.33,0 42.67,0 64,0 -10.67,11 -21.33,22 -32,33 10.67,10.67 21.33,21.33 32,32 -10.67,0 -21.33,0 -32,0 -10.67,-10.67 -21.33,-21.33 -32,-32 -10.67,0 -21.33,0 -32,0 -21.33,21.33 -42.67,42.67 -64,64 0,53.67 0,107.33 0,161 -21.67,-10.67 -43.33,-21.33 -65,-32 0,21.33 0,42.67 0,64 -10.67,10.67 -21.33,21.33 -32,32 10.67,21.33 21.33,42.67 32,64 -10.67,0 -21.33,0 -32,0 -10.67,11 -21.33,22 -32,33 10.75,10.7 21.4,21.51 32.22,32.15 32.26,21.28 64.52,42.57 96.78,63.85 -10.67,10.67 -21.33,21.33 -32,32 10.67,21.33 21.33,42.67 32,64 -10.67,21.67 -21.33,43.33 -32,65 10.67,10.67 21.33,21.33 32,32 0,10.67 0,21.33 0,32 -21.67,21.33 -43.33,42.67 -65,64 -10.67,21.67 -21.33,43.33 -32,65 10.67,10.67 21.33,21.33 32,32 0,21.33 0,42.67 0,64 11,0 22,0 33,0 0,10.67 0,21.33 0,32 -11,10.67 -22,21.33 -33,32 21.67,11 43.33,22 65,33 0,10.67 0,21.33 0,32 21.33,10.67 42.67,21.33 64,32 0,10.67 0,21.33 0,32 10.67,0 21.33,0 32,0 0,21.33 0,42.67 0,64 10.67,0 21.33,0 32,0 10.67,11 21.33,22 32,33 11,0 22,0 33,0 0,10.67 0,21.33 0,32 10.67,0 21.33,0 32,0 0,10.67 0,21.33 0,32 10.67,10.67 21.33,21.33 32,32 -10.67,21.33 -21.33,42.67 -32,64 0,10.67 0,21.33 0,32 10.67,21.67 21.33,43.33 32,65 -10.67,0 -21.33,0 -32,0 -21.67,-10.67 -43.33,-21.33 -65,-32 0,32 0,64 0,96 -10.67,10.67 -21.33,21.33 -32,32 21.67,10.67 43.33,21.33 65,32 -11,10.67 -22,21.33 -33,32 0,11 0,22 0,33 11,21.33 22,42.67 33,64 0,43 0,86 0,129 -43.1,21.13 -86.11,42.45 -129,64 -10.67,0 -21.33,0 -32,0 0,10.67 0,21.33 0,32 10.67,10.67 21.33,21.33 32,32 -21.33,-10.67 -42.67,-21.33 -64,-32 -10.67,0 -21.33,0 -32,0 21.33,10.67 42.67,21.33 64,32 -10.67,10.67 -21.33,21.33 -32,32 -10.67,0 -21.33,0 -32,0 10.67,11 21.33,22 32,33 0,21.33 0,42.67 0,64 10.67,10.67 21.33,21.33 32,32 10.67,21.33 21.33,42.67 32,64 21.33,-21.33 42.67,-42.67 64,-64 0,32 0,64 0,96 16.86,17.36 33.5,34.93 51.12,51.53 15.53,14.92 30.64,30.26 45.88,45.47 0,10.67 0,21.33 0,32 10.67,0 21.33,0 32,0 21.33,10.67 42.67,21.33 64,32 0,-10.67 0,-21.33 0,-32 21.67,-10.67 43.33,-21.33 65,-32 0,10.67 0,21.33 0,32 10.67,0 21.33,0 32,0 0,10.67 0,21.33 0,32 10.67,10.67 21.33,21.33 32,32 -32.33,0 -64.67,0 -97,0 11,21.67 22,43.33 33,65 10.67,-11 21.33,-22 32,-33 10.67,11 21.33,22 32,33 0,10.67 0,21.33 0,32 10.67,0 21.33,0 32,0 0,10.67 0,21.33 0,32 -21.33,0 -42.67,0 -64,0 0,10.67 0,21.33 0,32 10.67,0 21.33,0 32,0 21.33,10.67 42.67,21.33 64,32 0,10.67 0,21.33 0,32 -10.67,11 -21.33,22 -32,33 0,10.67 0,21.33 0,32 10.67,0 21.33,0 32,0 10.67,10.67 21.33,21.33 32,32 0,10.67 0,21.33 0,32 10.67,0 21.33,0 32,0 -10.67,10.67 -21.33,21.33 -32,32 -10.67,0 -21.33,0 -32,0 10.67,0 21.33,0 32,0 -10.67,10.67 -21.33,21.33 -32,32 32.33,0 64.67,0 97,0 0,11 0,22 0,33 10.67,0 21.33,0 32,0 0,21.33 0,42.67 0,64 21.33,21.33 42.67,42.67 64,64 21.33,10.67 42.67,21.33 64,32 0,10.67 0,21.33 0,32 11,0 22,0 33,0 -11,11 -22,22 -33,33 11,10.67 22,21.33 33,32 0,10.67 0,21.33 0,32 10.75,0.1 21.5,-0.11 32.25,0.1 31.92,10.64 63.83,21.28 95.75,31.92 -10.67,10.67 -21.33,21.33 -32,32 10.67,0 21.33,0 32,0 -10.67,10.67 -21.33,21.33 -32,32 32,10.67 64,21.33 96,32 0,11 0,22 0,33 11,-11 22,-22 33,-33 10.67,11 21.33,22 32,33 10.67,-11 21.33,-22 32,-33 10.67,11 21.33,22 32,33 0,10.67 0,21.33 0,32 32.33,21.33 64.67,42.67 97,64 10.67,0 21.33,0 32,0 0,10.67 0,21.33 0,32 10.67,10.67 21.33,21.33 32,32 -21.33,11 -42.67,22 -64,33 0,75 0,150 0,225 -21.67,10.67 -43.33,21.33 -65,32 11.02,10.86 21.73,22.04 32.93,32.69 42.69,31.77 85.38,63.54 128.07,95.31 0,11 0,22 0,33 21.33,0 42.67,0 64,0 10.67,10.67 21.33,21.33 32,32 -10.67,10.67 -21.33,21.33 -32,32 10.67,0 21.33,0 32,0 11,10.67 22,21.33 33,32 -11,21.33 -22,42.67 -33,64 16.93,16.45 34.08,32.69 50.3,49.85 4.9,5.05 9.8,10.1 14.7,15.15 0,21.33 0,42.67 0,64 10.67,10.67 21.33,21.33 32,32 10.67,-10.67 21.33,-21.33 32,-32 10.67,0 21.33,0 32,0 21.67,21.33 43.33,42.67 65,64 10.67,0 21.33,0 32,0 0,21.67 0,43.33 0,65 32,0 64,0 96,0 10.67,10.67 21.33,21.33 32,32 21.67,0 43.33,0 65,0 10.67,10.67 21.33,21.33 32,32 -32.33,32 -64.67,64 -97,96 -10.67,0 -21.33,0 -32,0 -38.01,57.67 -76.04,115.33 -114.48,172.72 -4.5,6.76 -9.01,13.52 -13.52,20.28 0,10.67 0,21.33 0,32 10.67,11 21.33,22 32,33 10.67,-21.67 21.33,-43.33 32,-65 10.67,0 21.33,0 32,0 0,10.67 0,21.33 0,32 -10.67,21.67 -21.33,43.33 -32,65 -21.33,21.33 -42.67,42.67 -64,64 10.67,10.67 21.33,21.33 32,32 -10.67,21.33 -21.33,42.67 -32,64 10.67,0 21.33,0 32,0 0,21.67 0,43.33 0,65 -10.67,0 -21.33,0 -32,0 -20.79,20.05 -41.46,40.22 -61.76,60.77 -5.39,3.29 -2.55,9.99 -3.24,15.23 0,17.33 0,34.67 0,52 -32,10.67 -64,21.33 -96,32 -10.67,0 -21.33,0 -32,0 10.67,21.67 21.33,43.33 32,65 0,21.33 0,42.67 0,64 10.67,10.67 21.33,21.33 32,32 -10.67,10.67 -21.33,21.33 -32,32 -10.67,21.67 -21.33,43.33 -32,65 -11,-10.67 -22,-21.33 -33,-32 -10.67,10.67 -21.33,21.33 -32,32 -10.67,0 -21.33,0 -32,0 0,21.33 0,42.67 0,64 10.67,21.33 21.33,42.67 32,64 0,11 0,22 0,33 -10.67,0 -21.33,0 -32,0 21.33,10.67 42.67,21.33 64,32 -21.33,21.33 -42.67,42.67 -64,64 0,10.67 0,21.33 0,32 10.67,10.67 21.33,21.33 32,32 -10.67,32.33 -21.33,64.67 -32,97 10.67,0 21.33,0 32,0 0,10.67 0,21.33 0,32 10.67,0 21.33,0 32,0 0,10.67 0,21.33 0,32 -10.67,21.33 -21.33,42.67 -32,64 10.67,0 21.33,0 32,0 0,10.67 0,21.33 0,32 11,0 22,0 33,0 32,32.33 64,64.67 96,97 32.33,0 64.67,0 97,0 21.33,10.67 42.67,21.33 64,32 53.67,0 107.33,0 161,0 0,-21.33 0,-42.67 0,-64 21.33,0 42.67,0 64,0 0,-10.67 0,-21.33 0,-32 10.67,-11 21.33,-22 32,-33 85.67,0 171.33,0 257,0 10.67,11 21.33,22 32,33 21.67,10.67 43.33,21.33 65,32 10.67,-21.67 21.33,-43.33 32,-65 10.67,0 21.33,0 32,0 0,11 0,22 0,33 21.33,0 42.67,0 64,0 0,-11 0,-22 0,-33 10.67,0 21.33,0 32,0 11,21.67 22,43.33 33,65 10.67,0 21.33,0 32,0 10.67,-10.67 21.33,-21.33 32,-32 10.67,0 21.33,0 32,0 10.67,-21.67 21.33,-43.33 32,-65 10.67,-10.67 21.33,-21.33 32,-32 0,-21.33 0,-42.67 0,-64 11,-10.67 22,-21.33 33,-32 -11,10.67 -22,21.33 -33,32 -10.67,-10.67 -21.33,-21.33 -32,-32 10.67,-10.67 21.33,-21.33 32,-32 11,0 22,0 33,0 21.33,10.67 42.67,21.33 64,32 21.33,-10.67 42.67,-21.33 64,-32 10.67,0 21.33,0 32,0 0,10.67 0,21.33 0,32 -10.67,0 -21.33,0 -32,0 -10.67,32 -21.33,64 -32,96 21.33,-10.67 42.67,-21.33 64,-32 11,0 22,0 33,0 0,21.33 0,42.67 0,64 21.33,0 42.67,0 64,0 0,10.67 0,21.33 0,32 21.33,0 42.67,0 64,0 10.67,21.67 21.33,43.33 32,65 21.67,-21.67 43.33,-43.33 65,-65 32,0 64,0 96,0 10.67,11 21.33,22 32,33 10.67,0 21.33,0 32,0 0,-11 0,-22 0,-33 10.96,-0.11 21.95,0.23 32.89,-0.17 53.37,-10.62 106.74,-21.22 160.11,-31.83 21.67,10.67 43.33,21.33 65,32 10.67,0 21.33,0 32,0 -21.67,-21.33 -43.33,-42.67 -65,-64 11,-10.67 22,-21.33 33,-32 21.33,21.33 42.67,42.67 64,64 21.33,-21.33 42.67,-42.67 64,-64 10.67,10.67 21.33,21.33 32,32 10.67,21.33 21.33,42.67 32,64 21.67,0 43.33,0 65,0 21.33,11 42.67,22 64,33 10.67,32 21.33,64 32,96 21.67,-10.67 43.33,-21.33 65,-32 10.67,-21.33 21.33,-42.67 32,-64 10.67,0 21.33,0 32,0 0,21.33 0,42.67 0,64 10.67,0 21.33,0 32,0 21.43,-10.67 42.79,-21.48 64.26,-32.06 42.91,-10.65 85.83,-21.29 128.74,-31.94 21.33,21.33 42.67,42.67 64,64 0,-43 0,-86 0,-129 21.67,10.67 43.33,21.33 65,32 10.67,11 21.33,22 32,33 -10.67,10.67 -21.33,21.33 -32,32 10.67,0 21.33,0 32,0 -10.67,10.67 -21.33,21.33 -32,32 10.67,10.67 21.33,21.33 32,32 -10.67,0 -21.33,0 -32,0 21.33,10.67 42.67,21.33 64,32 10.67,-21.33 21.33,-42.67 32,-64 21.33,-10.67 42.67,-21.33 64,-32 0,-10.67 0,-21.33 0,-32 21.67,0 43.33,0 65,0 21.33,-21.67 42.67,-43.33 64,-65 10.67,10.67 21.33,21.33 32,32 10.67,-10.67 21.33,-21.33 32,-32 21.67,21.67 43.33,43.33 65,65 10.67,-11 21.33,-22 32,-33 10.67,21.67 21.33,43.33 32,65 10.67,10.67 21.33,21.33 32,32 0,10.67 0,21.33 0,32 10.67,21.33 21.33,42.67 32,64 21.33,0 42.67,0 64,0 0,11 0,22 0,33 11,0 22,0 33,0 0,10.67 0,21.33 0,32 10.67,0 21.33,0 32,0 10.67,10.67 21.33,21.33 32,32 0,10.67 0,21.33 0,32 32,0 64,0 96,0 0,-10.67 0,-21.33 0,-32 10.67,10.67 21.33,21.33 32,32 0,10.67 0,21.33 0,32 -10.67,10.67 -21.33,21.33 -32,32 0,21.67 0,43.33 0,65 -10.67,0 -21.33,0 -32,0 0,21.33 0,42.67 0,64 -21.33,10.67 -42.67,21.33 -64,32 -10.75,10.7 -21.41,21.5 -32.22,32.15 -32.26,21.61 -64.52,43.23 -96.78,64.85 0,32 0,64 0,96 -10.67,10.67 -21.33,21.33 -32,32 -10.67,21.33 -21.33,42.67 -32,64 10.67,21.67 21.33,43.33 32,65 -10.67,10.67 -21.33,21.33 -32,32 32,0 64,0 96,0 0,21.33 0,42.67 0,64 -20.43,20.31 -40.73,40.76 -60.67,61.56 -1.77,1.85 -5.11,4.36 -0.33,3.44 9.67,0 19.33,0 29,0 -10.67,21.33 -21.33,42.67 -32,64 0,-10.67 0,-21.33 0,-32 -10.67,0 -21.33,0 -32,0 0,53.33 0,106.67 0,160 10.67,11 21.33,22 32,33 -10.67,10.67 -21.33,21.33 -32,32 10.67,10.67 21.33,21.33 32,32 -10.67,10.67 -21.33,21.33 -32,32 0,21.33 0,42.67 0,64 -10.67,21.67 -21.33,43.33 -32,65 -21.33,10.67 -42.67,21.33 -64,32 0,10.67 0,21.33 0,32 -11,0 -22,0 -33,0 0,43 0,86 0,129 11,0 22,0 33,0 0,10.67 0,21.33 0,32 10.67,10.67 21.33,21.33 32,32 0,21.33 0,42.67 0,64 21.33,0 42.67,0 64,0 0,10.67 0,21.33 0,32 10.67,11 21.33,22 32,33 0,21.33 0,42.67 0,64 37.06,37.12 74.15,74.22 111.64,110.9 5.79,5.7 11.57,11.4 17.36,17.1 10.67,0 21.33,0 32,0 10.67,-21.33 21.33,-42.67 32,-64 10.7,-10.75 21.51,-21.41 32.15,-32.22 21.28,-31.93 42.57,-63.85 63.85,-95.78 11,-11 22,-22 33,-33 21.33,0 42.67,0 64,0 0,-21.42 -0.1,-42.84 0.1,-64.26 10.65,-42.91 21.29,-85.83 31.94,-128.74 64.33,-42.67 128.67,-85.33 193,-128 21.33,0 42.67,0 64,0 11,-10.67 22,-21.33 33,-32 32.23,10.83 64.58,21.36 96.74,32.37 21.08,10.54 42.17,21.08 63.26,31.63 0,10.67 0,21.33 0,32 10.67,0 21.33,0 32,0 32.33,32.33 64.67,64.67 97,97 0,21.33 0,42.67 0,64 21.33,0 42.67,0 64,0 0,10.67 0,21.33 0,32 10.67,-10.67 21.33,-21.33 32,-32 10.67,0 21.33,0 32,0 0,32 0,64 0,96 -10.67,0 -21.33,0 -32,0 0,21.67 0,43.33 0,65 21.67,-21.67 43.33,-43.33 65,-65 10.67,-21.33 21.33,-42.67 32,-64 21.33,-21.33 42.67,-42.67 64,-64 0,-10.67 0,-21.33 0,-32 10.67,0 21.33,0 32,0 10.67,21.33 21.33,42.67 32,64 11,0 22,0 33,0 0,-32.33 0,-64.67 0,-97 10.67,-10.67 21.33,-21.33 32,-32 0,-21.33 0,-42.67 0,-64 21.33,0 42.67,0 64,0 0,-21.33 0,-42.67 0,-64 10.67,-10.67 21.33,-21.33 32,-32 10.67,21.33 21.33,42.67 32,64 20.79,20.05 41.46,40.22 61.76,60.77 5.39,3.29 2.55,9.99 3.24,15.23 0,6.67 0,13.33 0,20 10.67,0 21.33,0 32,0 -10.67,10.67 -21.33,21.33 -32,32 0,11 0,22 0,33 21.33,10.67 42.67,21.33 64,32 10.67,0 21.33,0 32,0 0,10.67 0,21.33 0,32 -10.67,10.67 -21.33,21.33 -32,32 10.67,32.33 21.33,64.67 32,97 -10.67,21.33 -21.33,42.67 -32,64 10.67,10.67 21.33,21.33 32,32 0,10.67 0,21.33 0,32 21.33,32.33 42.67,64.67 64,97 0,10.67 0,21.33 0,32 21.67,21.33 43.33,42.67 65,64 0,10.67 0,21.33 0,32 34.66,17.33 69.4,34.53 103.74,52.49 8.09,4.17 16.17,8.34 24.26,12.51 -10.67,10.67 -21.33,21.33 -32,32 -10.67,0 -21.33,0 -32,0 0,21.33 0,42.67 0,64 -10.67,21.33 -21.33,42.67 -32,64 -32.33,10.67 -64.67,21.33 -97,32 11,21.67 22,43.33 33,65 21.33,10.67 42.67,21.33 64,32 21.33,0 42.67,0 64,0 10.67,21.33 21.33,42.67 32,64 11.05,10.91 21.83,22.1 33.05,32.83 53.31,42.73 106.63,85.45 159.95,128.17 43.1,-21.13 86.11,-42.45 129,-64 10.67,10.67 21.33,21.33 32,32 10.67,-10.67 21.33,-21.33 32,-32 21.67,0 43.33,0 65,0 0,-32.33 0,-64.67 0,-97 21.33,10.67 42.67,21.33 64,32 10.67,-10.67 21.33,-21.33 32,-32 21.33,0 42.67,0 64,0 -10.67,10.67 -21.33,21.33 -32,32 10.67,11 21.33,22 32,33 -96.55,85.91 -193.2,171.71 -289.69,257.69 -21.1,21.1 -42.21,42.21 -63.31,63.31 0,21.33 0,42.67 0,64 10.67,0 21.33,0 32,0 -11.05,10.91 -21.83,22.1 -33.05,32.83 -53.37,42.8 -106.8,85.53 -160.14,128.36 -32.27,32.27 -64.54,64.54 -96.81,96.81 -42.92,64.63 -85.68,129.37 -128.7,193.93 -32.11,42.35 -64.2,84.72 -96.3,127.07 -10.67,53.67 -21.33,107.33 -32,161 -10.67,10.67 -21.33,21.33 -32,32 -21.42,0 -42.84,-0.1 -64.26,0.1 -42.91,10.65 -85.83,21.29 -128.74,31.94 -43,21.33 -86,42.67 -129,64 -42.67,11 -85.33,22 -128,33 53.67,32 107.33,64 161,96 -21.67,53.67 -43.33,107.33 -65,161 -10.67,0 -21.33,0 -32,0 0,32 0,64 0,96 -10.67,0 -21.33,0 -32,0 -10.67,11 -21.33,22 -32,33 -10.67,21.33 -21.33,42.67 -32,64 -64.33,0 -128.67,0 -193,0 -32.33,10.67 -64.67,21.33 -97,32 -53.33,43 -106.67,86 -160,129 -43,53.33 -86,106.67 -129,160 -53.77,96.81 -107.48,193.66 -161.28,290.46 -85.57,139.18 -171.15,278.36 -256.72,417.54 -10.67,64.33 -21.33,128.67 -32,193 0,21.33 0,42.67 0,64 -10.67,-10.67 -21.33,-21.33 -32,-32 -11,10.67 -22,21.33 -33,32 -21.33,10.67 -42.67,21.33 -64,32 0,21.33 0,42.67 0,64 -10.67,21.67 -21.33,43.33 -32,65 10.67,10.67 21.33,21.33 32,32 -21.33,43 -42.67,86 -64,129 -21.33,75 -42.67,150 -64,225 -11,10.67 -22,21.33 -33,32 11,10.67 22,21.33 33,32 -11,0 -22,0 -33,0 -10.67,10.67 -21.33,21.33 -32,32 -10.67,-10.67 -21.33,-21.33 -32,-32 0,10.67 0,21.33 0,32 -21.33,0 -42.67,0 -64,0 0,-10.67 0,-21.33 0,-32 -10.67,0 -21.33,0 -32,0 0,-10.67 0,-21.33 0,-32 -16.93,-16.45 -34.08,-32.69 -50.3,-49.85 -4.9,-5.05 -9.8,-10.1 -14.7,-15.15 -32,21.67 -64,43.33 -96,65 0,10.67 0,21.33 0,32 -21.33,0 -42.67,0 -64,0 0,10.67 0,21.33 0,32 -450.33,0 -900.67,0 -1351,0 21.33,10.67 42.67,21.33 64,32 -21.33,0 -42.67,0 -64,0 0,-10.67 0,-21.33 0,-32 -10.67,0 -21.33,0 -32,0 -21.33,21.33 -42.67,42.67 -64,64 0,10.67 0,21.33 0,32 -10.67,0 -21.33,0 -32,0 -11,11 -22,22 -33,33 -10.67,0 -21.33,0 -32,0 0,10.67 0,21.33 0,32 -32,0 -64,0 -96,0 -10.67,-21.67 -21.33,-43.33 -32,-65 -11,0 -22,0 -33,0 -10.67,21.67 -21.33,43.33 -32,65 -10.67,0 -21.33,0 -32,0 -10.67,10.67 -21.33,21.33 -32,32 -21.33,-21.33 -42.67,-42.67 -64,-64 0,-21.67 0,-43.33 0,-65 -11,10.67 -22,21.33 -33,32 -21.33,0 -42.67,0 -64,0 0,11 0,22 0,33 -10.67,0 -21.33,0 -32,0 -10.67,-21.67 -21.33,-43.33 -32,-65 -10.67,10.67 -21.33,21.33 -32,32 -21.67,-10.67 -43.33,-21.33 -65,-32 -10.67,10.67 -21.33,21.33 -32,32 10.67,0 21.33,0 32,0 -10.67,0 -21.33,0 -32,0 -10.67,21.67 -21.33,43.33 -32,65 0,-10.67 0,-21.33 0,-32 -10.67,0 -21.33,0 -32,0 0,10.67 0,21.33 0,32 -10.67,-10.67 -21.33,-21.33 -32,-32 -10.67,0 -21.33,0 -32,0 -10.67,-11 -21.33,-22 -32,-33 -11,0 -22,0 -33,0 -10.67,11 -21.33,22 -32,33 -21.33,0 -42.67,0 -64,0 0,10.67 0,21.33 0,32 -21.33,0 -42.67,0 -64,0 -11,10.67 -22,21.33 -33,32 -21.33,10.67 -42.67,21.33 -64,32 -21.33,0 -42.67,0 -64,0 10.67,10.67 21.33,21.33 32,32 -10.67,10.67 -21.33,21.33 -32,32 -21.33,11 -42.67,22 -64,33 0,32 0,64 0,96 -21.67,0 -43.33,0 -65,0 10.67,0 21.33,0 32,0 -10.67,10.67 -21.33,21.33 -32,32 0,10.67 0,21.33 0,32 -10.67,-10.67 -21.33,-21.33 -32,-32 0,10.67 0,21.33 0,32 -10.67,-10.67 -21.33,-21.33 -32,-32 -10.67,0 -21.33,0 -32,0 -10.67,10.67 -21.33,21.33 -32,32 0,10.67 0,21.33 0,32 10.67,11 21.33,22 32,33 -10.67,0 -21.33,0 -32,0 10.67,0 21.33,0 32,0 0,10.67 0,21.33 0,32 -21.67,0 -43.33,0 -65,0 11,10.67 22,21.33 33,32 -11,10.67 -22,21.33 -33,32 0,-10.67 0,-21.33 0,-32 -21.33,0 -42.67,0 -64,0 -32,21.33 -64,42.67 -96,64 -10.67,10.67 -21.33,21.33 -32,32 -11,0 -22,0 -33,0 0,11 0,22 0,33 -10.67,0 -21.33,0 -32,0 0,10.67 0,21.33 0,32 -10.67,-10.67 -21.33,-21.33 -32,-32 10.67,10.67 21.33,21.33 32,32 -10.67,0 -21.33,0 -32,0 0,10.67 0,21.33 0,32 -10.67,0 -21.33,0 -32,0 0,10.67 0,21.33 0,32 -32.33,0 -64.67,0 -97,0 0,10.67 0,21.33 0,32 -10.67,-10.67 -21.33,-21.33 -32,-32 0,-10.67 0,-21.33 0,-32 -10.67,21.33 -21.33,42.67 -32,64 -21.33,-10.67 -42.67,-21.33 -64,-32 0,21.33 0,42.67 0,64 0,-10.67 0,-21.33 0,-32 -10.67,10.67 -21.33,21.33 -32,32 -10.67,0 -21.33,0 -32,0 -11,10.67 -22,21.33 -33,32 0,-21.33 0,-42.67 0,-64 -32,0 -64,0 -96,0 -10.67,21.33 -21.33,42.67 -32,64 -21.67,21.67 -43.33,43.33 -65,65 -10.67,-10.67 -21.33,-21.33 -32,-32 0,10.67 0,21.33 0,32 -10.67,10.67 -21.33,21.33 -32,32 10.67,0 21.33,0 32,0 -10.67,10.67 -21.33,21.33 -32,32 -10.67,0 -21.33,0 -32,0 10.67,21.33 21.33,42.67 32,64 0,-10.67 0,-21.33 0,-32 0,10.67 0,21.33 0,32 -10.67,11 -21.33,22 -32,33 -10.67,0 -21.33,0 -32,0 0,10.67 0,21.33 0,32 -10.67,-10.67 -21.33,-21.33 -32,-32 -10.67,10.67 -21.33,21.33 -32,32 -11,-10.67 -22,-21.33 -33,-32 0,10.67 0,21.33 0,32 -10.67,-21.67 -21.33,-43.33 -32,-65 -10.67,0 -21.33,0 -32,0 0,11 0,22 0,33 10.67,10.67 21.33,21.33 32,32 -32,0 -64,0 -96,0 10.67,0 21.33,0 32,0 -10.67,21.33 -21.33,42.67 -32,64 -21.67,-10.67 -43.33,-21.33 -65,-32 -21.33,-32.33 -42.67,-64.67 -64,-97 0,21.67 0,43.33 0,65 -10.67,0 -21.33,0 -32,0 0,-10.67 0,-21.33 0,-32 -21.33,0 -42.67,0 -64,0 0,10.67 0,21.33 0,32 -10.67,-21.67 -21.33,-43.33 -32,-65 -11,0 -22,0 -33,0 0,-10.67 0,-21.33 0,-32 0,10.67 0,21.33 0,32 -10.67,0 -21.33,0 -32,0 -21.33,-10.67 -42.67,-21.33 -64,-32 10.67,-10.67 21.33,-21.33 32,-32 0,-21.33 0,-42.67 0,-64 -10.67,0 -21.33,0 -32,0 0,21.33 0,42.67 0,64 -21.33,10.67 -42.67,21.33 -64,32 0,-21.33 0,-42.67 0,-64 -11,0 -22,0 -33,0 0,-10.67 0,-21.33 0,-32 -10.67,0 -21.33,0 -32,0 0,10.67 0,21.33 0,32 -10.67,-10.67 -21.33,-21.33 -32,-32 -10.67,10.67 -21.33,21.33 -32,32 -10.67,-10.67 -21.33,-21.33 -32,-32 -10.67,0 -21.33,0 -32,0 21.33,-21.67 42.67,-43.33 64,-65 -21.33,0 -42.67,0 -64,0 -10.67,-21.33 -21.33,-42.67 -32,-64 -21.67,-10.67 -43.33,-21.33 -65,-32 -21.33,21.33 -42.67,42.67 -64,64 -10.67,0 -21.33,0 -32,0 -10.67,-21.33 -21.33,-42.67 -32,-64 21.33,-21.33 42.67,-42.67 64,-64 -43,0 -86,0 -129,0 0,-32.33 0,-64.67 0,-97 -21.33,-10.67 -42.67,-21.33 -64,-32 -10.67,-21.33 -21.33,-42.67 -32,-64 -10.67,0 -21.33,0 -32,0 0,10.67 0,21.33 0,32 10.67,0 21.33,0 32,0 0,21.33 0,42.67 0,64 -10.67,0 -21.33,0 -32,0 -10.67,-32 -21.33,-64 -32,-96 -11,10.67 -22,21.33 -33,32 0,10.67 0,21.33 0,32 -21.33,-10.67 -42.67,-21.33 -64,-32 -10.67,-32.33 -21.33,-64.67 -32,-97 -10.67,11 -21.33,22 -32,33 -10.67,0 -21.33,0 -32,0 -10.67,-21.67 -21.33,-43.33 -32,-65 0,-21.33 0,-42.67 0,-64 -11,10.67 -22,21.33 -33,32 -10.67,0 -21.33,0 -32,0 21.67,-10.67 43.33,-21.33 65,-32 0,-21.33 0,-42.67 0,-64 -11,-10.67 -22,-21.33 -33,-32 0,21.33 0,42.67 0,64 -10.67,0 -21.33,0 -32,0 -10.67,-10.67 -21.33,-21.33 -32,-32 -10.67,0 -21.33,0 -32,0 -20.43,-20.31 -40.73,-40.76 -60.67,-61.56 -3,-2.17 -3.93,-4.32 -0.33,-6.44 9.67,-9.67 19.33,-19.33 29,-29 -43,-10.67 -86,-21.33 -129,-32 -10.67,10.67 -21.33,21.33 -32,32 -21.33,-21.33 -42.67,-42.67 -64,-64 -32.33,10.67 -64.67,21.33 -97,32 -10.67,-10.67 -21.33,-21.33 -32,-32 10.67,-10.67 21.33,-21.33 32,-32 -10.67,-10.67 -21.33,-21.33 -32,-32 -21.33,10.67 -42.67,21.33 -64,32 -10.67,10.67 -21.33,21.33 -32,32 21.33,10.67 42.67,21.33 64,32 -43,43 -86,86 -129,129 10.67,-21.67 21.33,-43.33 32,-65 0,-32 0,-64 0,-96 -10.67,-10.67 -21.33,-21.33 -32,-32 -32,-10.67 -64,-21.33 -96,-32 0,10.67 0,21.33 0,32 -21.33,0 -42.67,0 -64,0 0,10.67 0,21.33 0,32 10.67,21.33 21.33,42.67 32,64 -10.67,10.67 -21.33,21.33 -32,32 -32.33,-21.33 -64.67,-42.67 -97,-64 -21.33,0 -42.67,0 -64,0 -21.67,10.67 -43.33,21.33 -65,32 -21.33,0 -42.67,0 -64,0 -10.67,10.67 -21.33,21.33 -32,32 0,11 0,22 0,33 -0.1,-11.08 0.11,-22.17 -0.1,-33.25 -10.64,-31.92 -21.28,-63.83 -31.92,-95.75 -10.67,32 -21.33,64 -32,96 -32.33,21.67 -64.67,43.33 -97,65 -10.67,-10.67 -21.33,-21.33 -32,-32 -10.67,21.33 -21.33,42.67 -32,64 -21.33,-32.33 -42.67,-64.67 -64,-97 -21.67,21.67 -43.33,43.33 -65,65 0.1,-10.75 -0.11,-21.5 0.1,-32.25 10.64,-32.25 21.28,-64.5 31.92,-96.75 -10.67,-10.67 -21.33,-21.33 -32,-32 -21.33,10.67 -42.67,21.33 -64,32 -10.67,-10.67 -21.33,-21.33 -32,-32 -21.33,21.33 -42.67,42.67 -64,64 10.67,0 21.33,0 32,0 10.67,10.67 21.33,21.33 32,32 10.67,0 21.33,0 32,0 0,-10.67 0,-21.33 0,-32 10.67,10.67 21.33,21.33 32,32 -10.67,21.67 -21.33,43.33 -32,65 -32,32 -64,64 -96,96 -11,-10.67 -22,-21.33 -33,-32 0,-10.67 0,-21.33 0,-32 -21.33,0 -42.67,0 -64,0 -10.67,-10.67 -21.33,-21.33 -32,-32 -10.67,0 -21.33,0 -32,0 -10.67,10.67 -21.33,21.33 -32,32 -11,-21.33 -22,-42.67 -33,-64 0,-21.67 0,-43.33 0,-65 -32,-10.67 -64,-21.33 -96,-32 0,32.33 0,64.67 0,97 -21.33,-11 -42.67,-22 -64,-33 -21.75,11.02 -43.46,22.13 -65.25,33.08 -31.92,10.64 -63.83,21.28 -95.75,31.92 -32.33,21.33 -64.67,42.67 -97,64 0,21.33 0,42.67 0,64 -21.33,0 -42.67,0 -64,0 10.67,21.67 21.33,43.33 32,65 0,10.67 0,21.33 0,32 -10.67,10.67 -21.33,21.33 -32,32 10.67,10.67 21.33,21.33 32,32 0,10.67 0,21.33 0,32 -10.67,0 -21.33,0 -32,0 0,10.67 0,21.33 0,32 21.33,0 42.67,0 64,0 0,11 0,22 0,33 -10.67,-11 -21.33,-22 -32,-33 -10.67,11 -21.33,22 -32,33 -10.67,-11 -21.33,-22 -32,-33 -21.33,-10.67 -42.67,-21.33 -64,-32 -10.67,-10.67 -21.33,-21.33 -32,-32 0,-10.67 0,-21.33 0,-32 -11,10.67 -22,21.33 -33,32 0,-10.67 0,-21.33 0,-32 11,-21.33 22,-42.67 33,-64 -11,-21.67 -22,-43.33 -33,-65 -53.33,-32 -106.67,-64 -160,-96 0,-10.67 0,-21.33 0,-32 -11,10.67 -22,21.33 -33,32 -42.67,0 -85.33,0 -128,0 -10.67,-21.33 -21.33,-42.67 -32,-64 -11,-11 -22,-22 -33,-33 11,-10.67 22,-21.33 33,-32 -21.67,-10.67 -43.33,-21.33 -65,-32 0,10.67 0,21.33 0,32 0,-10.67 0,-21.33 0,-32 -21.33,0 -42.67,0 -64,0 0,-10.67 0,-21.33 0,-32 -10.67,0 -21.33,0 -32,0 0,21.33 0,42.67 0,64 -10.67,-10.67 -21.33,-21.33 -32,-32 10.67,0 21.33,0 32,0 -21.33,0 -42.67,0 -64,0 -11,-10.67 -22,-21.33 -33,-32 -10.67,10.67 -21.33,21.33 -32,32 -10.67,-10.67 -21.33,-21.33 -32,-32 -64.22,32.22 -128.64,64.05 -193,96 0,-32 0,-64 0,-96 -10.67,0 -21.33,0 -32,0 -10.67,-32.33 -21.33,-64.67 -32,-97 -10.67,0 -21.33,0 -32,0 -32.33,32.33 -64.67,64.67 -97,97 0,32 0,64 0,96 10.67,11 21.33,22 32,33 11,0 22,0 33,0 21.33,-11 42.67,-22 64,-33 21.33,0 42.67,0 64,0 0,21.67 0,43.33 0,65 -10.67,10.67 -21.33,21.33 -32,32 -10.75,0.1 -21.5,-0.11 -32.25,0.1 -32.25,10.64 -64.5,21.28 -96.75,31.92 -21.42,0 -42.84,0.1 -64.26,-0.1 -42.58,-10.65 -85.16,-21.29 -127.74,-31.94 -21.67,21.33 -43.33,42.67 -65,64 -10.67,21.33 -21.33,42.67 -32,64 -21.33,21.67 -42.67,43.33 -64,65 21.33,42.67 42.67,85.33 64,128 -10.67,0 -21.33,0 -32,0 -10.67,11 -21.33,22 -32,33 -21.67,10.67 -43.33,21.33 -65,32 -10.67,10.67 -21.33,21.33 -32,32 -10.78,21.47 -21.42,43.02 -32.29,64.45 -21.24,32.18 -42.47,64.37 -63.71,96.55 -10.67,10.67 -21.33,21.33 -32,32 -43,21.33 -86,42.67 -129,64 32.33,64.33 64.67,128.67 97,193 -11,10.67 -22,21.33 -33,32 -42.67,0 -85.33,0 -128,0 0,-32 0,-64 0,-96 -10.67,-10.67 -21.33,-21.33 -32,-32 -64.33,10.67 -128.67,21.33 -193,32 -19.55,19.66 -39.21,39.22 -59.22,58.41 -3.07,2.92 -5.9,6.24 -10,7.7 -19.93,9.97 -39.86,19.92 -59.78,29.89 -10.67,32.33 -21.33,64.67 -32,97 -10.67,10.67 -21.33,21.33 -32,32 -10.86,-11.02 -22.03,-21.74 -32.7,-32.93 -32.1,-42.69 -64.2,-85.38 -96.3,-128.07 -10.67,0 -21.33,0 -32,0 -21.48,64.28 -42.84,128.61 -64,193 -10.67,10.67 -21.33,21.33 -32,32 -32.33,0 -64.67,0 -97,0 0,-53.67 0,-107.33 0,-161 -32,-32 -64,-64 -96,-96 -10.67,0 -21.33,0 -32,0 -11,10.67 -22,21.33 -33,32 21.67,43 43.33,86 65,129 -10.67,21.33 -21.33,42.67 -32,64 -11,0 -22,0 -33,0 -10.67,-21.33 -21.33,-42.67 -32,-64 -32,0 -64,0 -96,0 0,-32.33 0,-64.67 0,-97 -32.33,-21.33 -64.67,-42.67 -97,-64 -10.67,-10.67 -21.33,-21.33 -32,-32 -85.67,32 -171.33,64 -257,96 -10.75,-10.7 -21.4,-21.51 -32.22,-32.15 -32.26,-21.28 -64.52,-42.57 -96.78,-63.85 -10.67,32 -21.33,64 -32,96 -10.67,0 -21.33,0 -32,0 0,21.33 0,42.67 0,64 -19.34,20.04 -38.77,39.99 -58.56,59.59 -2.85,2.72 -5.37,5.96 -9.22,7.27 -20.41,10.05 -40.81,20.09 -61.22,30.14 -21.33,0 -42.67,0 -64,0 0,10.67 0,21.33 0,32 -10.67,0 -21.33,0 -32,0 -10.67,-10.67 -21.33,-21.33 -32,-32 -21.67,10.67 -43.33,21.33 -65,32 0,10.67 0,21.33 0,32 -10.67,0 -21.33,0 -32,0 -21.33,10.67 -42.67,21.33 -64,32 -43,0 -86,0 -129,0 -10.67,21.67 -21.33,43.33 -32,65 -10.67,10.67 -21.33,21.33 -32,32 -32,10.67 -64,21.33 -96,32 0,10.67 0,21.33 0,32 -11,0 -22,0 -33,0 -10.67,21.33 -21.33,42.67 -32,64 10.67,0 21.33,0 32,0 0,11 0,22 0,33 -21.33,21.33 -42.67,42.67 -64,64 21.33,21.33 42.67,42.67 64,64 -32,10.67 -64,21.33 -96,32 -10.67,10.67 -21.33,21.33 -32,32 0,21.67 0,43.33 0,65 -21.33,-10.67 -42.67,-21.33 -64,-32 0,10.67 0,21.33 0,32 10.67,10.67 21.33,21.33 32,32 -21.67,10.67 -43.33,21.33 -65,32 0,10.67 0,21.33 0,32 11,21.67 22,43.33 33,65 32,10.67 64,21.33 96,32 -10.67,10.67 -21.33,21.33 -32,32 0,10.67 0,21.33 0,32 21.33,0 42.67,0 64,0 21.33,10.67 42.67,21.33 64,32 -10.67,10.67 -21.33,21.33 -32,32 10.67,10.67 21.33,21.33 32,32 -21.33,11 -42.67,22 -64,33 0,10.67 0,21.33 0,32 -10.67,0 -21.33,0 -32,0 0,21.33 0,42.67 0,64 10.67,10.67 21.33,21.33 32,32 10.67,21.67 21.33,43.33 32,65 10.67,0 21.33,0 32,0 11,21.33 22,42.67 33,64 10.67,0 21.33,0 32,0 0,10.67 0,21.33 0,32 21.33,10.67 42.67,21.33 64,32 -10.67,10.67 -21.33,21.33 -32,32 0,10.67 0,21.33 0,32 21.33,11 42.67,22 64,33 -10.67,10.67 -21.33,21.33 -32,32 0,32 0,64 0,96 -21.33,10.67 -42.67,21.33 -64,32 10.67,21.67 21.33,43.33 32,65 -10.67,10.67 -21.33,21.33 -32,32 0,10.67 0,21.33 0,32 -32.33,0 -64.67,0 -97,0 -10.67,10.67 -21.33,21.33 -32,32 -21.33,0 -42.67,0 -64,0 0,10.67 0,21.33 0,32 -10.67,0 -21.33,0 -32,0 0,21.67 0,43.33 0,65 -32.33,0 -64.67,0 -97,0 -10.67,-11 -21.33,-22 -32,-33 -21.33,11 -42.67,22 -64,33 0,-11 0,-22 0,-33 -10.75,0.1 -21.5,-0.12 -32.25,0.1 -32.25,10.97 -64.5,21.94 -96.75,32.91 -21.33,0 -42.67,0 -64,0 -21.33,10.67 -42.67,21.33 -64,32 -21.67,0 -43.33,0 -65,0 -21.33,21.33 -42.67,42.67 -64,64 21.33,21.33 42.67,42.67 64,64 0,21.67 0,43.33 0,65 -10.67,10.67 -21.33,21.33 -32,32 -21.33,10.67 -42.67,21.33 -64,32 10.67,-21.33 21.33,-42.67 32,-64 -43,-21.67 -86,-43.33 -129,-65 -10.67,-32 -21.33,-64 -32,-96 -21.33,-21.33 -42.67,-42.67 -64,-64 0,-21.67 0,-43.33 0,-65 -10.67,-21.33 -21.33,-42.67 -32,-64 -10.67,-10.67 -21.33,-21.33 -32,-32 -32.33,0 -64.67,0 -97,0 10.67,-21.33 21.33,-42.67 32,-64 -10.67,-11 -21.33,-22 -32,-33 -10.67,-21.33 -21.33,-42.67 -32,-64 -21.33,-10.67 -42.67,-21.33 -64,-32 -32.33,10.67 -64.67,21.33 -97,32 -160.67,0 -321.33,0 -482,0 -21.42,-21.37 -42.74,-42.84 -64.22,-64.15 -32.26,-21.61 -64.52,-43.23 -96.78,-64.85 -43,32.33 -86,64.67 -129,97 -21.42,0 -42.84,0.1 -64.26,-0.1 -42.58,-10.65 -85.16,-21.29 -127.74,-31.94 -86,21.33 -172,42.67 -258,64 -21.33,0 -42.67,0 -64,0 -32,-10.67 -64,-21.33 -96,-32 -32.33,21.33 -64.67,42.67 -97,64 -21.33,-10.67 -42.67,-21.33 -64,-32 -21.67,21.33 -43.33,42.67 -65,64 -10.67,0 -21.33,0 -32,0 -10.67,-10.67 -21.33,-21.33 -32,-32 0,-10.67 0,-21.33 0,-32 -32,-10.67 -64,-21.33 -96,-32 -43,0 -86,0 -129,0 -32,-21.33 -64,-42.67 -96,-64 -10.67,10.67 -21.33,21.33 -32,32 -21.67,-10.67 -43.33,-21.33 -65,-32 -21.33,0 -42.67,0 -64,0 0,-11 0,-22 0,-33 -43,11 -86,22 -129,33 -10.67,-21.67 -21.33,-43.33 -32,-65 0,-10.67 0,-21.33 0,-32 -21.33,0 -42.67,0 -64,0 0,-10.67 0,-21.33 0,-32 -21.67,-10.67 -43.33,-21.33 -65,-32 -10.67,-10.67 -21.33,-21.33 -32,-32 -10.67,0 -21.33,0 -32,0 -10.67,-10.67 -21.33,-21.33 -32,-32 -21.33,0 -42.67,0 -64,0 -10.67,-21.67 -21.33,-43.33 -32,-65 -11,0 -22,0 -33,0 -10.67,-10.67 -21.33,-21.33 -32,-32 0,-32 0,-64 0,-96 -21.33,-11 -42.67,-22 -64,-33 -21.33,0 -42.67,0 -64,0 -10.67,-10.67 -21.33,-21.33 -32,-32 -43,0 -86,0 -129,0 -43,-42.67 -86,-85.33 -129,-128 -21.33,21.33 -42.67,42.67 -64,64 -32.33,10.67 -64.67,21.33 -97,32 -32,0 -64,0 -96,0 -10.67,-10.67 -21.33,-21.33 -32,-32 -21.33,0 -42.67,0 -64,0 -21.67,10.67 -43.33,21.33 -65,32 -10.67,0 -21.33,0 -32,0 0,-10.67 0,-21.33 0,-32 -32,-32 -64,-64 -96,-96 -32.33,0 -64.67,0 -97,0 -21.33,10.67 -42.67,21.33 -64,32 -10.67,-21.67 -21.33,-43.33 -32,-65 -10.67,21.67 -21.33,43.33 -32,65 -21.67,-21.67 -43.33,-43.33 -65,-65 -21.33,11 -42.67,22 -64,33 -10.67,0 -21.33,0 -32,0 -16.45,-16.93 -32.69,-34.08 -49.85,-50.3 -5.05,-4.9 -10.1,-9.8 -15.15,-14.7 -10.67,10.67 -21.33,21.33 -32,32 -21.33,11 -42.67,22 -64,33 -75,0 -150,0 -225,0 -21.33,-32.33 -42.67,-64.67 -64,-97 -21.67,0 -43.33,0 -65,0 -42.67,-32 -85.33,-64 -128,-96 -32.57,10.83 -65.24,21.36 -97.74,32.37 -21.08,10.54 -42.17,21.08 -63.26,31.63 -10.67,-10.67 -21.33,-21.33 -32,-32 -10.67,10.67 -21.33,21.33 -32,32 -21.67,-10.67 -43.33,-21.33 -65,-32 -21.33,21.33 -42.67,42.67 -64,64 -10.67,-10.67 -21.33,-21.33 -32,-32 -21.33,0 -42.67,0 -64,0 0,-10.67 0,-21.33 0,-32 -11.09,-10.69 -22.05,-21.52 -33.24,-32.12 -21.25,-10.96 -42.51,-21.92 -63.76,-32.88 0,-10.67 0,-21.33 0,-32 -10.67,-10.67 -21.33,-21.33 -32,-32 -21.33,-10.67 -42.67,-21.33 -64,-32 -32.33,-32 -64.67,-64 -97,-96 -32,10.67 -64,21.33 -96,32 -10.67,0 -21.33,0 -32,0 -10.67,-10.67 -21.33,-21.33 -32,-32 -11,10.67 -22,21.33 -33,32 -10.67,-21.67 -21.33,-43.33 -32,-65 -21.33,-10.67 -42.67,-21.33 -64,-32 -10.67,10.67 -21.33,21.33 -32,32 -10.67,0 -21.33,0 -32,0 -11,11 -22,22 -33,33 -10.67,0 -21.33,0 -32,0 -21.33,-11 -42.67,-22 -64,-33 -21.33,11 -42.67,22 -64,33 -11,0 -22,0 -33,0 -10.67,-11 -21.33,-22 -32,-33 -64.33,0 -128.67,0 -193,0 -42.67,21.67 -85.33,43.33 -128,65 -53.67,0 -107.33,0 -161,0 -10.67,-10.67 -21.33,-21.33 -32,-32 -21.33,10.67 -42.67,21.33 -64,32 -11,0 -22,0 -33,0 -21.33,10.67 -42.67,21.33 -64,32 -64.33,-32.33 -128.67,-64.67 -193,-97 -64.33,43 -128.67,86 -193,129 -32.23,10.82 -64.58,21.36 -96.74,32.37 -42.76,21.2 -85.51,42.42 -128.26,63.63 -21.33,0 -42.67,0 -64,0 -21.33,-21.33 -42.67,-42.67 -64,-64 -11,0 -22,0 -33,0 -21.33,-10.67 -42.67,-21.33 -64,-32 -21.33,-21.33 -42.67,-42.67 -64,-64 -10.67,-21.67 -21.33,-43.33 -32,-65 -10.67,0 -21.33,0 -32,0 -11,11 -22,22 -33,33 -10.67,0 -21.33,0 -32,0 -10.67,-11 -21.33,-22 -32,-33 -21.33,0 -42.67,0 -64,0 -21.67,-21.33 -43.33,-42.67 -65,-64 -10.67,0 -21.33,0 -32,0 0,-10.67 0,-21.33 0,-32 -42.67,-21.33 -85.33,-42.67 -128,-64 -21.67,-21.67 -43.33,-43.33 -65,-65 -10.67,0 -21.33,0 -32,0 0,-10.67 0,-21.33 0,-32 -10.67,-10.67 -21.33,-21.33 -32,-32 0,-10.67 0,-21.33 0,-32 -21.33,-32.33 -42.67,-64.67 -64,-97 -10.67,0 -21.33,0 -32,0 0,-21.33 0,-42.67 0,-64 -43,21.33 -86,42.67 -129,64 -10.67,0 -21.33,0 -32,0 -10.67,-10.67 -21.33,-21.33 -32,-32 -21.67,0 -43.33,0 -65,0 0,-10.67 0,-21.33 0,-32 -21.33,0 -42.67,0 -64,0 0,10.67 0,21.33 0,32 -10.67,-10.67 -21.33,-21.33 -32,-32 -10.67,10.67 -21.33,21.33 -32,32 -21.67,-21.33 -43.33,-42.67 -65,-64 -10.75,10.7 -21.41,21.5 -32.22,32.15 -64.26,42.95 -128.52,85.9 -192.78,128.85 -10.67,10.67 -21.33,21.33 -32,32 -21.33,0 -42.67,0 -64,0 -32.33,21.33 -64.67,42.67 -97,64 -21.33,0 -42.67,0 -64,0 -32,10.67 -64,21.33 -96,32 -43,-10.67 -86,-21.33 -129,-32 -42.67,0 -85.33,0 -128,0 0,-10.67 0,-21.33 0,-32 -32.33,-21.33 -64.67,-42.67 -97,-64 -10.67,0 -21.33,0 -32,0 -10.67,-32.33 -21.33,-64.67 -32,-97 -32.33,10.67 -64.67,21.33 -97,32 -32,0 -64,0 -96,0 -21.67,-10.67 -43.33,-21.33 -65,-32 -10.67,-10.67 -21.33,-21.33 -32,-32 10.67,0 21.33,0 32,0 -21.33,-21.33 -42.67,-42.67 -64,-64 21.33,-32.33 42.67,-64.67 64,-97 -21.33,-10.67 -42.67,-21.33 -64,-32 0,-21.33 0,-42.67 0,-64 -10.67,0 -21.33,0 -32,0 -21.33,-32.33 -42.67,-64.67 -64,-97 -10.75,-10.7 -21.4,-21.51 -32.22,-32.15 -32.26,-21.28 -64.52,-42.57 -96.78,-63.85 -21.54,-42.9 -42.88,-85.89 -64,-129 -10.67,0 -21.33,0 -32,0 -32.33,-21.33 -64.67,-42.67 -97,-64 0,-10.67 0,-21.33 0,-32 10.67,-10.67 21.33,-21.33 32,-32 -10.67,-21.67 -21.33,-43.33 -32,-65 10.67,-32 21.33,-64 32,-96 11,0 22,0 33,0 0,-21.33 0,-42.67 0,-64 -11,-21.67 -22,-43.33 -33,-65 -21.33,0 -42.67,0 -64,0 0,-10.67 0,-21.33 0,-32 -10.67,10.67 -21.33,21.33 -32,32 0,-21.33 0,-42.67 0,-64 -10.67,10.67 -21.33,21.33 -32,32 -10.67,-10.67 -21.33,-21.33 -32,-32 0,-10.67 0,-21.33 0,-32 -21.67,0 -43.33,0 -65,0 10.67,-10.67 21.33,-21.33 32,-32 -10.67,0 -21.33,0 -32,0 10.67,-10.67 21.33,-21.33 32,-32 -21.33,-11 -42.67,-22 -64,-33 0,-10.67 0,-21.33 0,-32 -10.67,10.67 -21.33,21.33 -32,32 -10.67,-10.67 -21.33,-21.33 -32,-32 0,-21.33 0,-42.67 0,-64 -10.67,10.67 -21.33,21.33 -32,32 -11,0 -22,0 -33,0 0,-21.33 0,-42.67 0,-64 -32,-10.67 -64,-21.33 -96,-32 0,-10.67 0,-21.33 0,-32 10.67,0 21.33,0 32,0 -10.67,-11 -21.33,-22 -32,-33 -10.67,-42.67 -21.33,-85.33 -32,-128 21.33,0 42.67,0 64,0 0,-21.33 0,-42.67 0,-64 10.67,21.33 21.33,42.67 32,64 10.67,0 21.33,0 32,0 -10.67,-21.33 -21.33,-42.67 -32,-64 10.67,-11 21.33,-22 32,-33 -10.67,0 -21.33,0 -32,0 -21.33,11 -42.67,22 -64,33 10.67,-21.67 21.33,-43.33 32,-65 10.67,0 21.33,0 32,0 10.67,-10.67 21.33,-21.33 32,-32 -32,0 -64,0 -96,0 0,-21.33 0,-42.67 0,-64 -10.67,10.67 -21.33,21.33 -32,32 -10.67,-10.67 -21.33,-21.33 -32,-32 21.33,0 42.67,0 64,0 0,-10.67 0,-21.33 0,-32 10.67,0 21.33,0 32,0 10.67,-11 21.33,-22 32,-33 -21.33,0 -42.67,0 -64,0 10.67,-21.33 21.33,-42.67 32,-64 -21.33,0 -42.67,0 -64,0 10.67,0 21.33,0 32,0 0,-10.67 0,-21.33 0,-32 -10.67,-21.33 -21.33,-42.67 -32,-64 -10.67,10.67 -21.33,21.33 -32,32 0,-10.67 0,-21.33 0,-32 10.67,-21.67 21.33,-43.33 32,-65 10.67,0 21.33,0 32,0 0,-10.67 0,-21.33 0,-32 10.67,-10.67 21.33,-21.33 32,-32 21.33,10.67 42.67,21.33 64,32 0,-10.67 0,-21.33 0,-32 -21.33,0 -42.67,0 -64,0 10.67,-21.33 21.33,-42.67 32,-64 0,-10.67 0,-21.33 0,-32 -32,0 -64,0 -96,0 21.33,-11 42.67,-22 64,-33 0,-10.67 0,-21.33 0,-32 -42.67,-21.33 -85.33,-42.67 -128,-64 10.67,-10.67 21.33,-21.33 32,-32 21.33,0 42.67,0 64,0 -10.67,-10.67 -21.33,-21.33 -32,-32 21.33,0 42.67,0 64,0 -32,-21.67 -64,-43.33 -96,-65 -21.67,11 -43.33,22 -65,33 11,-32.33 22,-64.67 33,-97 0,-10.67 0,-21.33 0,-32 -21.67,0 -43.33,0 -65,0 10.67,-10.67 21.33,-21.33 32,-32 -21.33,-10.67 -42.67,-21.33 -64,-32 21.33,0 42.67,0 64,0 -10.67,-21.67 -21.33,-43.33 -32,-65 21.67,10.67 43.33,21.33 65,32 0,11 0,22 0,33 10.67,-11 21.33,-22 32,-33 0,-10.67 0,-21.33 0,-32 10.67,-10.67 21.33,-21.33 32,-32 -21.33,-10.67 -42.67,-21.33 -64,-32 0,-10.67 0,-21.33 0,-32 -11,-21.67 -22,-43.33 -33,-65 -21.33,-10.67 -42.67,-21.33 -64,-32 -21.33,10.67 -42.67,21.33 -64,32 10.67,-21.33 21.33,-42.67 32,-64 10.67,0 21.33,0 32,0 0,-10.67 0,-21.33 0,-32 -10.67,10.67 -21.33,21.33 -32,32 -10.67,-10.67 -21.33,-21.33 -32,-32 10.67,-21.33 21.33,-42.67 32,-64 -10.67,-10.67 -21.33,-21.33 -32,-32 -32.33,21.33 -64.67,42.67 -97,64 0,-10.67 0,-21.33 0,-32 -10.67,10.67 -21.33,21.33 -32,32 0,-10.67 0,-21.33 0,-32 10.67,-10.67 21.33,-21.33 32,-32 -10.67,-11 -21.33,-22 -32,-33 -21.33,11 -42.67,22 -64,33 -10.67,0 -21.33,0 -32,0 0,-11 0,-22 0,-33 -10.67,0 -21.33,0 -32,0 0,11 0,22 0,33 -11,0 -22,0 -33,0 11,21.33 22,42.67 33,64 -11,21.33 -22,42.67 -33,64 -10.67,-10.67 -21.33,-21.33 -32,-32 0,-21.33 0,-42.67 0,-64 -10.67,-21.67 -21.33,-43.33 -32,-65 -21.33,0 -42.67,0 -64,0 0,-10.67 0,-21.33 0,-32 10.67,-10.67 21.33,-21.33 32,-32 -32.33,-21.33 -64.67,-42.67 -97,-64 -10.67,-10.67 -21.33,-21.33 -32,-32 -10.67,-21.67 -21.33,-43.33 -32,-65 -21.33,-10.67 -42.67,-21.33 -64,-32 -43,43 -86,86 -129,129 -21.33,-21.33 -42.67,-42.67 -64,-64 -10.67,-21.67 -21.33,-43.33 -32,-65 -21.33,0 -42.67,0 -64,0 -11,32.33 -21.999,64.67 -33,97 0,53.33 0,106.67 0,160 -10.667,0 -21.333,0 -32,0 0,11 0,22 0,33 -21.335,-32.33 -42.665,-64.67 -64,-97 -21.332,-53.67 -42.668,-107.33 -64,-161 0,-21.33 0,-42.67 0,-64 42.665,-53.67 85.335,-107.33 128,-161 0,-32 0,-64 0,-96 -10.665,-10.67 -21.335,-21.33 -32,-32 -10.667,0 -21.333,0 -32,0 -53.722,42.74 -107.499,85.41 -161.188,128.19 -31.936,32.27 -63.875,64.54 -95.812,96.81 -11.085,-0.1 -22.17,0.11 -33.254,-0.1 -31.914,-10.64 -63.831,-21.28 -95.746,-31.92 -21.332,10.67 -42.668,21.33 -64,32 -10.668,21.33 -21.332,42.67 -32,64 10.667,0 21.333,0 32,0 42.668,21.33 85.332,42.67 128,64 0,11 0,22 0,33 10.665,10.67 21.335,21.33 32,32 -42.667,0 -85.333,0 -128,0 -43.002,-32.33 -85.998,-64.67 -129,-97 -10.667,0 -21.333,0 -32,0 -10.665,10.67 -21.335,21.33 -32,32 0,43 0,86 0,129 -21.333,0 -42.667,0 -64,0 -21.668,-21.33 -43.332,-42.67 -65,-64 -21.333,-43 -42.667,-86 -64,-129 -21.333,0 -42.667,0 -64,0 -53.668,32.33 -107.332,64.67 -161,97 -32.001,53.33 -63.999,106.67 -96,160 -11,0 -22,0 -33,0 -32.002,-21.33 -63.998,-42.67 -96,-64 -21.332,10.67 -42.668,21.33 -64,32 0,32.33 0,64.67 0,97 -11.001,21.33 -21.999,42.67 -33,64 -53.332,42.67 -106.668,85.33 -160,128 10.667,43 21.333,86 32,129 -10.665,10.67 -21.335,21.33 -32,32 -10.667,0 -21.333,0 -32,0 -21.666,-53.67 -43.334,-107.33 -65,-161 -31.998,-42.67 -64.002,-85.33 -96,-128 -21.401,-10.73 -42.847,-21.37 -64.222,-32.15 -32.262,-21.61 -64.52,-43.23 -96.778,-64.85 -31.998,21.67 -64.002,43.33 -96,65 -11,0 -22,0 -33,0 -10.666,-21.67 -21.334,-43.33 -32,-65 10.668,-21.33 21.332,-42.67 32,-64 -42.668,-21.33 -85.332,-42.67 -128,-64 -10.753,0 -21.507,-0.1 -32.26,0.1 -42.913,10.65 -85.827,21.29 -128.74,31.94 0,-85.67 0,-171.33 0,-257 -10.668,-32.33 -21.332,-64.67 -32,-97 0,-64.33 0,-128.67 0,-193 -32.335,-21.33 -64.665,-42.67 -97,-64 0,-32 0,-64 0,-96 21.667,-11 43.333,-22 65,-33 z"
         id="path64" />
    </g>
  </g>
</svg>
