<?xml version="1.0" encoding="UTF-8" standalone="no"?>
<!-- Created with Inkscape (http://www.inkscape.org/) -->

<svg
   xmlns:dc="http://purl.org/dc/elements/1.1/"
   xmlns:cc="http://creativecommons.org/ns#"
   xmlns:rdf="http://www.w3.org/1999/02/22-rdf-syntax-ns#"
   xmlns:svg="http://www.w3.org/2000/svg"
   xmlns="http://www.w3.org/2000/svg"
   xmlns:sodipodi="http://sodipodi.sourceforge.net/DTD/sodipodi-0.dtd"
   xmlns:inkscape="http://www.inkscape.org/namespaces/inkscape"
   width="19.178991mm"
   height="13.256235mm"
   viewBox="0 0 19.178991 13.256235"
   version="1.1"
   id="svg1246"
   inkscape:version="0.92.5 (2060ec1f9f, 2020-04-08)"
   sodipodi:docname="rj.svg">
  <defs
     id="defs1240" />
  <sodipodi:namedview
     id="base"
     pagecolor="#ffffff"
     bordercolor="#666666"
     borderopacity="1.0"
     inkscape:pageopacity="0.0"
     inkscape:pageshadow="2"
     inkscape:zoom="0.35"
     inkscape:cx="127.67235"
     inkscape:cy="482.19401"
     inkscape:document-units="mm"
     inkscape:current-layer="layer1"
     showgrid="false"
     inkscape:window-width="1366"
     inkscape:window-height="704"
     inkscape:window-x="0"
     inkscape:window-y="0"
     inkscape:window-maximized="1" />
  <metadata
     id="metadata1243">
    <rdf:RDF>
      <cc:Work
         rdf:about="">
        <dc:format>image/svg+xml</dc:format>
        <dc:type
           rdf:resource="http://purl.org/dc/dcmitype/StillImage" />
        <dc:title></dc:title>
      </cc:Work>
    </rdf:RDF>
  </metadata>
  <g
     inkscape:label="Layer 1"
     inkscape:groupmode="layer"
     id="layer1"
     transform="translate(-38.791453,-263.1576)">
    <g
       transform="matrix(9.9994773e-4,0,0,9.9994773e-4,-104.38492,134.58177)"
       id="Rio_deJaneiro">
      <path
         inkscape:connector-curvature="0"
         id="path90"
         d="m 143583,140702 c 10.67,-10.67 21.33,-21.33 32,-32 0,-21.33 0,-42.67 0,-64 21.67,-10.67 43.33,-21.33 65,-32 10.67,0 21.33,0 32,0 0,-10.67 0,-21.33 0,-32 10.67,0 21.33,0 32,0 10.67,-11 21.33,-22 32,-33 21.33,0 42.67,0 64,0 11,-10.67 22,-21.33 33,-32 -11,-21.33 -22,-42.67 -33,-64 21.67,-10.67 43.33,-21.33 65,-32 -10.67,-10.67 -21.33,-21.33 -32,-32 21.33,-11 42.67,-22 64,-33 -10.67,-10.67 -21.33,-21.33 -32,-32 10.67,-10.67 21.33,-21.33 32,-32 -10.67,0 -21.33,0 -32,0 10.67,-21.33 21.33,-42.67 32,-64 -10.67,0 -21.33,0 -32,0 0,-10.67 0,-21.33 0,-32 -10.67,0 -21.33,0 -32,0 10.67,-10.67 21.33,-21.33 32,-32 0,-32.33 0,-64.67 0,-97 10.67,-10.67 21.33,-21.33 32,-32 0,-10.67 0,-21.33 0,-32 10.67,-10.67 21.33,-21.33 32,-32 0,-21.67 0,-43.33 0,-65 10.67,-10.67 21.33,-21.33 32,-32 0,-10.67 0,-21.33 0,-32 -10.67,0 -21.33,0 -32,0 10.67,-21.33 21.33,-42.67 32,-64 -10.67,-10.67 -21.33,-21.33 -32,-32 10.67,-11 21.33,-22 32,-33 0,-21.33 0,-42.67 0,-64 64.33,0 128.67,0 193,0 0,-10.67 0,-21.33 0,-32 10.67,-10.67 21.33,-21.33 32,-32 -10.67,-10.67 -21.33,-21.33 -32,-32 21.33,-21.67 42.67,-43.33 64,-65 32.33,-21.33 64.67,-42.67 97,-64 10.67,-10.67 21.33,-21.33 32,-32 10.67,10.67 21.33,21.33 32,32 32.33,0 64.67,0 97,0 21.33,-32 42.67,-64 64,-96 21.33,21.33 42.67,42.67 64,64 32.33,-21.33 64.67,-42.67 97,-64 0,-11 0,-22 0,-33 10.67,-10.67 21.33,-21.33 32,-32 42.67,-21.33 85.33,-42.67 128,-64 11,0 22,0 33,0 32,-21.33 64,-42.67 96,-64 32.33,21.33 64.67,42.67 97,64 21.33,-10.67 42.67,-21.33 64,-32 21.33,-21.67 42.67,-43.33 64,-65 21.67,-10.67 43.33,-21.33 65,-32 21.33,-21.33 42.67,-42.67 64,-64 32,0 64,0 96,0 10.67,10.67 21.33,21.33 32,32 -10.67,21.33 -21.33,42.67 -32,64 10.67,0 21.33,0 32,0 0,11 0,22 0,33 11,0 22,0 33,0 0,10.67 0,21.33 0,32 32,-10.67 64,-21.33 96,-32 10.67,0 21.33,0 32,0 10.67,-11 21.33,-22 32,-33 10.67,-21.33 21.33,-42.67 32,-64 11,-10.67 22,-21.33 33,-32 32,0 64,0 96,0 0,10.67 0,21.33 0,32 43,0 86,0 129,0 75,-32 150,-64 225,-96 10.67,10.67 21.33,21.33 32,32 -10.67,10.67 -21.33,21.33 -32,32 10.67,0 21.33,0 32,0 0,-10.67 0,-21.33 0,-32 32,-21.33 64,-42.67 96,-64 21.67,0 43.33,0 65,0 0,10.67 0,21.33 0,32 21.33,-10.67 42.67,-21.33 64,-32 21.33,-43 42.67,-86 64,-129 21.67,0 43.33,0 65,0 0,-21.33 0,-42.67 0,-64 -21.67,0 -43.33,0 -65,0 10.67,-11 21.33,-22 32,-33 -10.67,-10.67 -21.33,-21.33 -32,-32 0,-10.67 0,-21.33 0,-32 10.67,-21.33 21.33,-42.67 32,-64 21.67,0 43.33,0 65,0 -10.67,-10.67 -21.33,-21.33 -32,-32 32,-32.33 64,-64.67 96,-97 32.33,0 64.67,0 97,0 10.67,-10.67 21.33,-21.33 32,-32 -10.67,0 -21.33,0 -32,0 0,-10.67 0,-21.33 0,-32 10.67,0 21.33,0 32,0 21.33,-10.67 42.67,-21.33 64,-32 10.67,-10.67 21.33,-21.33 32,-32 0,-21.67 0,-43.33 0,-65 10.67,0 21.33,0 32,0 11,-10.67 22,-21.33 33,-32 0,-21.33 0,-42.67 0,-64 -22.08,-21.76 -44.21,-43.48 -66.25,-65.27 -20.92,-21.25 -41.83,-42.49 -62.75,-63.73 10.67,-10.67 21.33,-21.33 32,-32 -10.67,-10.67 -21.33,-21.33 -32,-32 -10.67,0 -21.33,0 -32,0 -10.67,-10.67 -21.33,-21.33 -32,-32 0,-21.33 0,-42.67 0,-64 -11,0 -22,0 -33,0 -10.67,10.67 -21.33,21.33 -32,32 -10.67,-21.67 -21.33,-43.33 -32,-65 -32,0 -64,0 -96,0 -11,11 -22,22 -33,33 -32,-21.67 -64,-43.33 -96,-65 -21.33,10.67 -42.67,21.33 -64,32 0,11 0,22 0,33 -10.67,-21.67 -21.33,-43.33 -32,-65 -21.67,0 -43.33,0 -65,0 -10.67,-10.67 -21.33,-21.33 -32,-32 -10.67,10.67 -21.33,21.33 -32,32 -10.67,-21.33 -21.33,-42.67 -32,-64 -21.33,10.67 -42.67,21.33 -64,32 -11,-10.67 -22,-21.33 -33,-32 0,21.33 0,42.67 0,64 -10.67,-10.67 -21.33,-21.33 -32,-32 0,10.67 0,21.33 0,32 10.67,21.67 21.33,43.33 32,65 -21.33,0 -42.67,0 -64,0 0,-32.33 0,-64.67 0,-97 -10.67,0 -21.33,0 -32,0 10.67,-21.33 21.33,-42.67 32,-64 -21.33,0 -42.67,0 -64,0 -21.67,-10.67 -43.33,-21.33 -65,-32 -10.67,0 -21.33,0 -32,0 0,10.67 0,21.33 0,32 -21.33,10.67 -42.67,21.33 -64,32 0,10.67 0,21.33 0,32 10.67,10.67 21.33,21.33 32,32 0,10.67 0,21.33 0,32 -10.67,0 -21.33,0 -32,0 -10.67,-10.67 -21.33,-21.33 -32,-32 -21.67,0 -43.33,0 -65,0 -21.33,10.67 -42.67,21.33 -64,32 -10.67,11 -21.33,22 -32,33 -10.67,0 -21.33,0 -32,0 -10.67,10.67 -21.33,21.33 -32,32 -21.67,-10.67 -43.33,-21.33 -65,-32 -10.67,-11 -21.33,-22 -32,-33 -10.67,0 -21.33,0 -32,0 10.67,11 21.33,22 32,33 -32,42.67 -64,85.33 -96,128 -10.67,0 -21.33,0 -32,0 -10.67,-10.67 -21.33,-21.33 -32,-32 -32.33,0 -64.67,0 -97,0 10.67,10.67 21.33,21.33 32,32 -10.67,0 -21.33,0 -32,0 0,-10.67 0,-21.33 0,-32 21.33,-21.33 42.67,-42.67 64,-64 -21.33,0 -42.67,0 -64,0 -21.33,-21.67 -42.67,-43.33 -64,-65 -21.67,11 -43.33,22 -65,33 -10.67,-21.67 -21.33,-43.33 -32,-65 -21.33,43 -42.67,86 -64,129 -10.67,0 -21.33,0 -32,0 -10.67,-21.33 -21.33,-42.67 -32,-64 -11,-11 -22,-22 -33,-33 0,11 0,22 0,33 -10.67,10.67 -21.33,21.33 -32,32 -21.33,-21.67 -42.67,-43.33 -64,-65 -10.67,11 -21.33,22 -32,33 -10.67,-11 -21.33,-22 -32,-33 -10.67,0 -21.33,0 -32,0 0,-42.67 0,-85.33 0,-128 10.67,-32.33 21.33,-64.67 32,-97 -10.67,-10.67 -21.33,-21.33 -32,-32 -11,10.67 -22,21.33 -33,32 -10.67,-10.67 -21.33,-21.33 -32,-32 -32,10.67 -64,21.33 -96,32 0,-21.33 0,-42.67 0,-64 10.67,-10.67 21.33,-21.33 32,-32 -10.67,-21.33 -21.33,-42.67 -32,-64 -10.67,-11 -21.33,-22 -32,-33 -10.67,0 -21.33,0 -32,0 -11,-10.67 -22,-21.33 -33,-32 -21.33,0 -42.67,0 -64,0 0,-32 0,-64 0,-96 -10.67,0 -21.33,0 -32,0 -10.67,-10.67 -21.33,-21.33 -32,-32 10.67,-21.67 21.33,-43.33 32,-65 0,-10.72 0,-21.45 0,-32.16 -10.65,-42.61 -21.31,-85.23 -31.96,-127.84 -43,-43 -86,-86 -129,-129 -21.33,0 -42.67,0 -64,0 -21.67,-10.67 -43.33,-21.33 -65,-32 -42.67,0 -85.33,0 -128,0 10.67,-21.67 21.33,-43.33 32,-65 10.67,-10.67 21.33,-21.33 32,-32 10.67,0 21.33,0 32,0 10.67,-10.67 21.33,-21.33 32,-32 11,0 22,0 33,0 21.33,-10.67 42.67,-21.33 64,-32 21.33,0 42.67,0 64,0 21.67,-21.33 43.33,-42.67 65,-64 10.67,0 21.33,0 32,0 32,21.33 64,42.67 96,64 21.67,-10.67 43.33,-21.33 65,-32 21.33,10.67 42.67,21.33 64,32 21.33,0 42.67,0 64,0 10.67,10.67 21.33,21.33 32,32 0,-10.67 0,-21.33 0,-32 21.67,-21.33 43.33,-42.67 65,-64 0,-10.67 0,-21.33 0,-32 32,-11 64,-22 96,-33 0,-21.33 0,-42.67 0,-64 10.67,-10.67 21.33,-21.33 32,-32 32.33,-10.67 64.67,-21.33 97,-32 10.67,0 21.33,0 32,0 10.67,10.67 21.33,21.33 32,32 21.33,-10.67 42.67,-21.33 64,-32 10.67,10.67 21.33,21.33 32,32 32.33,-10.67 64.67,-21.33 97,-32 0,10.67 0,21.33 0,32 21.33,0 42.67,0 64,0 0,-10.67 0,-21.33 0,-32 21.67,-10.67 43.33,-21.33 65,-32 0,-11 0,-22 0,-33 32,-10.67 64,-21.33 96,-32 43,-42.67 86,-85.33 129,-128 10.67,10.67 21.33,21.33 32,32 0,-21.33 0,-42.67 0,-64 10.67,-21.67 21.33,-43.33 32,-65 21.33,0 42.67,0 64,0 10.67,-10.67 21.33,-21.33 32,-32 21.67,10.67 43.33,21.33 65,32 42.67,0 85.33,0 128,0 0,21.67 0,43.33 0,65 21.67,0 43.33,0 65,0 11.48,-11.79 22.87,-23.68 34.41,-35.41 20.53,-20.53 41.06,-41.06 61.59,-61.59 10.67,10.67 21.33,21.33 32,32 43,0 86,0 129,0 10.67,10.67 21.33,21.33 32,32 10.67,-10.67 21.33,-21.33 32,-32 21.33,0 42.67,0 64,0 11,-21.33 22,-42.67 33,-64 0,10.67 0,21.33 0,32 10.67,-10.67 21.33,-21.33 32,-32 21.33,0 42.67,0 64,0 10.67,10.67 21.33,21.33 32,32 0,-10.67 0,-21.33 0,-32 10.67,43 21.33,86 32,129 10.67,-11 21.33,-22 32,-33 11,11 22,22 33,33 10.67,-11 21.33,-22 32,-33 21.33,-10.67 42.67,-21.33 64,-32 0,-10.67 0,-21.33 0,-32 21.33,-10.67 42.67,-21.33 64,-32 0,10.67 0,21.33 0,32 11,0 22,0 33,0 21.33,-10.67 42.67,-21.33 64,-32 10.67,-21.33 21.33,-42.67 32,-64 32.33,0 64.67,0 97,0 10.67,-11 21.33,-22 32,-33 10.67,-21.33 21.33,-42.67 32,-64 10.67,10.67 21.33,21.33 32,32 10.67,-10.67 21.33,-21.33 32,-32 21.33,0 42.67,0 64,0 0,-42.67 0,-85.33 0,-128 11,10.67 22,21.33 33,32 21.33,-10.67 42.67,-21.33 64,-32 0,-21.67 0,-43.33 0,-65 21.33,10.67 42.67,21.33 64,32 0,11 0,22 0,33 10.67,-11 21.33,-22 32,-33 10.67,0 21.33,0 32,0 0,-21.33 0,-42.67 0,-64 11.05,0 22.11,0 33.16,0 42.61,-10.65 85.23,-21.31 127.84,-31.96 0,-10.67 0,-21.33 0,-32 32.33,0 64.67,0 97,0 21.33,21.33 42.67,42.67 64,64 10.67,-10.67 21.33,-21.33 32,-32 10.67,0 21.33,0 32,0 10.67,-10.67 21.33,-21.33 32,-32 11,0 22,0 33,0 0,-10.67 0,-21.33 0,-32 32,-10.67 64,-21.33 96,-32 10.67,0 21.33,0 32,0 21.72,-11.01 43.42,-22.08 65.15,-33.05 63.95,-21.32 127.9,-42.63 191.85,-63.95 11,-10.67 22,-21.33 33,-32 21.33,0 42.67,0 64,0 0,-21.33 0,-42.67 0,-64 10.67,10.67 21.33,21.33 32,32 0,-10.67 0,-21.33 0,-32 10.67,0 21.33,0 32,0 10.67,-11 21.33,-22 32,-33 21.67,11 43.33,22 65,33 22.16,-11.4 44.28,-22.88 66.47,-34.24 20.51,-10.25 41.02,-20.51 61.53,-30.76 21.67,0 43.33,0 65,0 42.67,-32 85.33,-64 128,-96 21.67,0 43.33,0 65,0 0,10.67 0,21.33 0,32 10.67,10.67 21.33,21.33 32,32 -10.67,0 -21.33,0 -32,0 21.33,10.67 42.67,21.33 64,32 0,10.67 0,21.33 0,32 10.67,0 21.33,0 32,0 10.67,11 21.33,22 32,33 21.33,-32.33 42.67,-64.67 64,-97 32.33,0 64.67,0 97,0 10.67,-10.67 21.33,-21.33 32,-32 21.33,0 42.67,0 64,0 11,21.33 22,42.67 33,64 0,10.67 0,21.33 0,32 10.67,-10.67 21.33,-21.33 32,-32 0,-21.33 0,-42.67 0,-64 21.33,0 42.67,0 64,0 0,-10.67 0,-21.33 0,-32 21.33,0 42.67,0 64,0 21.67,21.33 43.33,42.67 65,64 10.67,-10.67 21.33,-21.33 32,-32 0,21.33 0,42.67 0,64 10.67,0 21.33,0 32,0 0,-21.33 0,-42.67 0,-64 10.67,0 21.33,0 32,0 10.67,-21.33 21.33,-42.67 32,-64 10.67,0 21.33,0 32,0 11,-11 22,-22 33,-33 0,32.33 0,64.67 0,97 21.33,10.67 42.67,21.33 64,32 10.67,10.67 21.33,21.33 32,32 10.67,-10.67 21.33,-21.33 32,-32 53.67,-10.67 107.33,-21.33 161,-32 10.67,-21.33 21.33,-42.67 32,-64 10.67,0 21.33,0 32,0 10.67,10.67 21.33,21.33 32,32 0,10.67 0,21.33 0,32 64.33,0 128.67,0 193,0 43,-21.33 86,-42.67 129,-64 10.67,-11 21.33,-22 32,-33 21.33,0 42.67,0 64,0 43.09,-32.06 86.16,-64.15 129.27,-96.18 31.91,-21.27 63.82,-42.55 95.73,-63.82 0,-10.67 0,-21.33 0,-32 21.67,-11 43.33,-22 65,-33 10.67,0 21.33,0 32,0 10.67,11 21.33,22 32,33 21.33,0 42.67,0 64,0 10.67,-11 21.33,-22 32,-33 11,11 22,22 33,33 21.33,10.67 42.67,21.33 64,32 32,-10.67 64,-21.33 96,-32 21.67,0 43.33,0 65,0 10.67,-11 21.33,-22 32,-33 10.67,11 21.33,22 32,33 10.67,-11 21.33,-22 32,-33 10.67,11 21.33,22 32,33 0,10.67 0,21.33 0,32 10.67,10.67 21.33,21.33 32,32 11,0 22,0 33,0 10.67,10.67 21.33,21.33 32,32 10.67,0 21.33,0 32,0 10.67,-10.67 21.33,-21.33 32,-32 0,10.67 0,21.33 0,32 10.67,10.67 21.33,21.33 32,32 43,-32 86,-64 129,-96 10.67,0 21.33,0 32,0 0,10.67 0,21.33 0,32 21.33,10.67 42.67,21.33 64,32 32.33,0 64.67,0 97,0 0,43 0,86 0,129 -32.33,21.33 -64.67,42.67 -97,64 0,10.67 0,21.33 0,32 10.67,32.33 21.33,64.67 32,97 11,21.33 22,42.67 33,64 21.33,-10.67 42.67,-21.33 64,-32 0,-21.67 0,-43.33 0,-65 32,-10.67 64,-21.33 96,-32 43,0 86,0 129,0 0,10.67 0,21.33 0,32 43,-10.67 86,-21.33 129,-32 21.33,-32 42.67,-64 64,-96 10.67,-10.67 21.33,-21.33 32,-32 -10.67,-11 -21.33,-22 -32,-33 0,-10.67 0,-21.33 0,-32 21.39,-10.68 42.75,-21.41 64.15,-32.05 32.29,-10.65 64.57,-21.3 96.85,-31.95 10.67,0 21.33,0 32,0 42.67,-32 85.33,-64 128,-96 11,0 22,0 33,0 21.39,-11.01 42.75,-22.08 64.15,-33.05 64.29,-21.32 128.57,-42.63 192.85,-63.95 42.67,-42.67 85.33,-85.33 128,-128 0,-11 0,-22 0,-33 53.67,-21.33 107.33,-42.67 161,-64 85.67,-21.33 171.33,-42.67 257,-64 43,-21.67 86,-43.33 129,-65 10.67,-10.67 21.33,-21.33 32,-32 64.33,-32 128.67,-64 193,-96 64.33,-21.67 128.67,-43.33 193,-65 10.67,-10.67 21.33,-21.33 32,-32 32.44,-10.69 64.86,-21.43 97.32,-32.08 42.56,-10.64 85.12,-21.28 127.68,-31.92 21.67,-10.67 43.33,-21.33 65,-32 21.33,0 42.67,0 64,0 21.33,-10.67 42.67,-21.33 64,-32 0,-21.67 0,-43.33 0,-65 75.2,-32.08 150.39,-64.19 225.6,-96.24 107.14,-42.92 214.27,-85.84 321.4,-128.76 10.67,-10.67 21.33,-21.33 32,-32 107.33,-32 214.67,-64 322,-96 10.67,-21.67 21.33,-43.33 32,-65 10.67,0 21.33,0 32,0 32,-10.67 64,-21.33 96,-32 32.33,0 64.67,0 97,0 42.67,-10.67 85.33,-21.33 128,-32 0,-10.67 0,-21.33 0,-32 64.33,-21.33 128.67,-42.67 193,-64 0,-53.67 0,-107.33 0,-161 -10.67,-10.67 -21.33,-21.33 -32,-32 -10.67,10.67 -21.33,21.33 -32,32 -10.67,-21.33 -21.33,-42.67 -32,-64 10.67,0 21.33,0 32,0 -10.67,-11 -21.33,-22 -32,-33 -21.67,-10.67 -43.33,-21.33 -65,-32 -32,0 -64,0 -96,0 -10.67,10.67 -21.33,21.33 -32,32 -10.67,0 -21.33,0 -32,0 -10.67,-10.67 -21.33,-21.33 -32,-32 0,-21.33 0,-42.67 0,-64 -32.33,0 -64.67,0 -97,0 -10.67,-10.67 -21.33,-21.33 -32,-32 21.33,-21.33 42.67,-42.67 64,-64 -10.67,0 -21.33,0 -32,0 -10.67,-11 -21.33,-22 -32,-33 32,-42.67 64,-85.33 96,-128 11.05,-10.69 22.05,-21.44 33.13,-32.09 31.96,-21.64 63.91,-43.27 95.87,-64.91 -10.67,-10.67 -21.33,-21.33 -32,-32 0,-10.67 0,-21.33 0,-32 32,-10.67 64,-21.33 96,-32 0,-10.67 0,-21.33 0,-32 10.67,-11 21.33,-22 32,-33 0,-10.67 0,-21.33 0,-32 11,-10.67 22,-21.33 33,-32 21.33,0 42.67,0 64,0 10.67,-32 21.33,-64 32,-96 21.33,-10.67 42.67,-21.33 64,-32 11,-11 22,-22 33,-33 -21.67,-32 -43.33,-64 -65,-96 0,-10.67 0,-21.33 0,-32 -32,-10.67 -64,-21.33 -96,-32 10.67,-21.67 21.33,-43.33 32,-65 0,-21.33 0,-42.67 0,-64 10.67,-10.67 21.33,-21.33 32,-32 0,-32.33 0,-64.67 0,-97 10.67,-10.67 21.33,-21.33 32,-32 10.67,10.67 21.33,21.33 32,32 21.67,0 43.33,0 65,0 21.33,-21.33 42.67,-42.67 64,-64 -21.33,-10.67 -42.67,-21.33 -64,-32 -10.67,0 -21.33,0 -32,0 21.33,-10.67 42.67,-21.33 64,-32 0,-10.67 0,-21.33 0,-32 21.33,-10.67 42.67,-21.33 64,-32 -10.67,-21.67 -21.33,-43.33 -32,-65 10.67,-10.67 21.33,-21.33 32,-32 -10.67,-10.67 -21.33,-21.33 -32,-32 21.33,-10.67 42.67,-21.33 64,-32 -10.67,-10.67 -21.33,-21.33 -32,-32 -10.67,0 -21.33,0 -32,0 0,-11 0,-22 0,-33 10.67,-21.33 21.33,-42.67 32,-64 0,-42.67 0,-85.33 0,-128 10.99,-11.29 21.9,-22.66 32.93,-33.91 10.69,-10.36 21.38,-20.73 32.07,-31.09 21.33,-10.67 42.67,-21.33 64,-32 21.33,-21.33 42.67,-42.67 64,-64 -10.67,-10.67 -21.33,-21.33 -32,-32 10.67,-21.67 21.33,-43.33 32,-65 -10.67,-10.67 -21.33,-21.33 -32,-32 0,10.67 0,21.33 0,32 -10.67,-10.67 -21.33,-21.33 -32,-32 0,-21.33 0,-42.67 0,-64 10.67,-10.67 21.33,-21.33 32,-32 -21.33,-43 -42.67,-86 -64,-129 10.67,0 21.33,0 32,0 0,-10.67 0,-21.33 0,-32 10.67,-10.67 21.33,-21.33 32,-32 0,-10.67 0,-21.33 0,-32 11.48,-11.79 22.87,-23.68 34.41,-35.41 9.87,-9.87 19.73,-19.73 29.59,-29.59 10.67,-21.33 21.33,-42.67 32,-64 11,0 22,0 33,0 0,-43 0,-86 0,-129 42.67,0 85.33,0 128,0 0,-10.67 0,-21.33 0,-32 10.67,-10.67 21.33,-21.33 32,-32 0,-21.33 0,-42.67 0,-64 21.67,0 43.33,0 65,0 0,-10.67 0,-21.33 0,-32 32,-32.33 64,-64.67 96,-97 0,-32 0,-64 0,-96 10.67,10.67 21.33,21.33 32,32 21.67,0 43.33,0 65,0 0,-10.67 0,-21.33 0,-32 -11.45,-11.14 -22.98,-22.2 -34.37,-33.39 -20.88,-21.2 -41.75,-42.41 -62.63,-63.61 -21.33,0 -42.67,0 -64,0 -10.67,-10.67 -21.33,-21.33 -32,-32 -11,0 -22,0 -33,0 -21.33,-21.33 -42.67,-42.67 -64,-64 0,-10.67 0,-21.33 0,-32 -21.33,-11 -42.67,-22 -64,-33 0,-10.67 0,-21.33 0,-32 21.33,-21.33 42.67,-42.67 64,-64 21.33,-10.67 42.67,-21.33 64,-32 11,10.67 22,21.33 33,32 10.67,0 21.33,0 32,0 0,-10.67 0,-21.33 0,-32 16.18,-16.19 32.43,-32.32 48.43,-48.69 15.86,-16.1 31.71,-32.21 47.57,-48.31 10.67,11 21.33,22 32,33 32.33,0 64.67,0 97,0 32,-11 64,-22 96,-33 10.67,-10.67 21.33,-21.33 32,-32 21.67,0 43.33,0 65,0 32,10.67 64,21.33 96,32 10.67,-10.67 21.33,-21.33 32,-32 32.33,10.67 64.67,21.33 97,32 0,-21.33 0,-42.67 0,-64 10.67,-10.67 21.33,-21.33 32,-32 0,10.67 0,21.33 0,32 10.67,-21.33 21.33,-42.67 32,-64 -10.67,-10.67 -21.33,-21.33 -32,-32 10.67,-11 21.33,-22 32,-33 0,-21.33 0,-42.67 0,-64 21.33,-10.67 42.67,-21.33 64,-32 -10.67,-10.67 -21.33,-21.33 -32,-32 10.67,-10.67 21.33,-21.33 32,-32 21.67,-10.67 43.33,-21.33 65,-32 11.48,-11.79 22.87,-23.68 34.41,-35.41 9.87,-9.87 19.73,-19.73 29.59,-29.59 -21.33,-21.33 -42.67,-42.67 -64,-64 21.33,-43 42.67,-86 64,-129 -10.67,-10.67 -21.33,-21.33 -32,-32 43,0 86,0 129,0 10.67,-10.67 21.33,-21.33 32,-32 21.33,0 42.67,0 64,0 10.67,-10.67 21.33,-21.33 32,-32 -10.67,-10.67 -21.33,-21.33 -32,-32 10.67,-10.67 21.33,-21.33 32,-32 10.67,0 21.33,0 32,0 21.67,-11 43.33,-22 65,-33 10.67,21.67 21.33,43.33 32,65 21.33,10.67 42.67,21.33 64,32 10.67,10.67 21.33,21.33 32,32 0,10.67 0,21.33 0,32 21.67,10.67 43.33,21.33 65,32 10.67,-10.67 21.33,-21.33 32,-32 -10.67,21.67 -21.33,43.33 -32,65 21.33,0 42.67,0 64,0 10.67,-11 21.33,-22 32,-33 43,0 86,0 129,0 0,11 0,22 0,33 21.33,0 42.67,0 64,0 0,21.33 0,42.67 0,64 10.67,-10.67 21.33,-21.33 32,-32 10.67,10.67 21.33,21.33 32,32 0,21.33 0,42.67 0,64 -10.67,32.33 -21.33,64.67 -32,97 10.67,21.33 21.33,42.67 32,64 0,10.67 0,21.33 0,32 21.67,-10.67 43.33,-21.33 65,-32 21.33,10.67 42.67,21.33 64,32 -10.67,0 -21.33,0 -32,0 -10.67,32 -21.33,64 -32,96 0,11 0,22 0,33 10.67,0 21.33,0 32,0 -10.67,32 -21.33,64 -32,96 -11,10.67 -22,21.33 -33,32 -10.67,0 -21.33,0 -32,0 10.67,32.33 21.33,64.67 32,97 21.67,10.67 43.33,21.33 65,32 0,42.67 0,85.33 0,128 10.67,0 21.33,0 32,0 0,21.67 0,43.33 0,65 -10.67,0 -21.33,0 -32,0 0,21.33 0,42.67 0,64 -10.67,10.67 -21.33,21.33 -32,32 21.33,10.67 42.67,21.33 64,32 -10.67,11 -21.33,22 -32,33 -10.67,0 -21.33,0 -32,0 0,10.67 0,21.33 0,32 10.67,21.33 21.33,42.67 32,64 0,21.33 0,42.67 0,64 -10.67,0 -21.33,0 -32,0 0,-10.67 0,-21.33 0,-32 -11,0 -22,0 -33,0 0,21.33 0,42.67 0,64 11,0 22,0 33,0 0,11 0,22 0,33 10.67,0 21.33,0 32,0 -21.67,42.67 -43.33,85.33 -65,128 0,10.67 0,21.33 0,32 43,0 86,0 129,0 0,11 0,22 0,33 -21.33,10.67 -42.67,21.33 -64,32 0,10.67 0,21.33 0,32 21.33,0 42.67,0 64,0 0,-10.67 0,-21.33 0,-32 21.33,0 42.67,0 64,0 10.67,10.67 21.33,21.33 32,32 11,0 22,0 33,0 0,10.67 0,21.33 0,32 10.67,-10.67 21.33,-21.33 32,-32 10.67,0 21.33,0 32,0 0,10.67 0,21.33 0,32 21.33,10.67 42.67,21.33 64,32 0,10.67 0,21.33 0,32 32.33,0 64.67,0 97,0 32,21.67 64,43.33 96,65 32.33,-11 64.67,-22 97,-33 10.67,21.67 21.33,43.33 32,65 21.33,10.67 42.67,21.33 64,32 0,10.67 0,21.33 0,32 10.67,10.67 21.33,21.33 32,32 10.67,-21.33 21.33,-42.67 32,-64 11,21.33 22,42.67 33,64 32,-10.67 64,-21.33 96,-32 21.33,21.33 42.67,42.67 64,64 0,-21.33 0,-42.67 0,-64 10.67,0 21.33,0 32,0 11,10.67 22,21.33 33,32 32,0 64,0 96,0 0,21.67 0,43.33 0,65 23.87,11.9 47.68,23.91 71.59,35.73 19.13,9.43 38.27,18.85 57.41,28.27 10.67,10.67 21.33,21.33 32,32 21.33,0 42.67,0 64,0 21.33,-21.33 42.67,-42.67 64,-64 11,0 22,0 33,0 0,-10.67 0,-21.33 0,-32 10.67,10.67 21.33,21.33 32,32 10.67,-10.67 21.33,-21.33 32,-32 10.67,10.67 21.33,21.33 32,32 21.33,0 42.67,0 64,0 0,-10.67 0,-21.33 0,-32 10.67,10.67 21.33,21.33 32,32 11.05,0 22.11,-0.1 33.16,0 42.61,10.65 85.23,21.31 127.84,31.96 10.67,0 21.33,0 32,0 11,10.67 22,21.33 33,32 10.67,0 21.33,0 32,0 0,10.67 0,21.33 0,32 10.67,-10.67 21.33,-21.33 32,-32 21.33,32 42.67,64 64,96 21.33,0 42.67,0 64,0 11,11 22,22 33,33 0,-11 0,-22 0,-33 21.33,0 42.67,0 64,0 10.67,-21.33 21.33,-42.67 32,-64 43,0 86,0 129,0 0,10.67 0,21.33 0,32 10.67,0 21.33,0 32,0 0,10.67 0,21.33 0,32 21.33,0 42.67,0 64,0 10.67,11 21.33,22 32,33 21.67,0 43.33,0 65,0 0,10.67 0,21.33 0,32 0,-10.67 0,-21.33 0,-32 10.67,0 21.33,0 32,0 0,-11 0,-22 0,-33 0,11 0,22 0,33 10.67,-11 21.33,-22 32,-33 -10.67,11 -21.33,22 -32,33 42.67,0 85.33,0 128,0 21.67,-11 43.33,-22 65,-33 10.67,-10.67 21.33,-21.33 32,-32 21.33,0 42.67,0 64,0 32.33,-10.67 64.67,-21.33 97,-32 10.67,-10.67 21.33,-21.33 32,-32 10.67,10.67 21.33,21.33 32,32 10.67,0 21.33,0 32,0 10.67,10.67 21.33,21.33 32,32 10.67,0 21.33,0 32,0 21.67,10.67 43.33,21.33 65,32 21.33,32.33 42.67,64.67 64,97 21.33,-10.67 42.67,-21.33 64,-32 32.33,0 64.67,0 97,0 10.67,32 21.33,64 32,96 0,21.67 0,43.33 0,65 10.67,10.67 21.33,21.33 32,32 10.67,0 21.33,0 32,0 10.67,-10.67 21.33,-21.33 32,-32 0,10.67 0,21.33 0,32 11,0 22,0 33,0 0,10.67 0,21.33 0,32 10.67,0 21.33,0 32,0 0,10.67 0,21.33 0,32 10.67,0 21.33,0 32,0 0,21.33 0,42.67 0,64 -10.67,43 -21.33,86 -32,129 10.67,32 21.33,64 32,96 -10.67,0 -21.33,0 -32,0 -21.67,53.67 -43.33,107.33 -65,161 -10.67,0 -21.33,0 -32,0 -21.33,10.67 -42.67,21.33 -64,32 -10.67,32.33 -21.33,64.67 -32,97 -32.33,42.67 -64.67,85.33 -97,128 -22.34,22.66 -44.61,45.37 -66.99,67.99 -17.02,17.04 -34.05,34.07 -51.2,50.97 -24.94,24.68 -49.87,49.36 -74.81,74.04 -10.67,43 -21.33,86 -32,129 0,53.67 0,107.33 0,161 33.85,67.39 67.76,134.76 101.58,202.16 9.14,18.28 18.28,36.56 27.42,54.84 21.33,10.67 42.67,21.33 64,32 21.33,0 42.67,0 64,0 11,10.67 22,21.33 33,32 0,-10.67 0,-21.33 0,-32 0,10.72 0,21.45 0,32.16 -21.66,117.95 -43.31,235.89 -64.97,353.84 0,64.33 0,128.67 0,193 32.34,118.05 64.71,236.1 97.04,354.16 42.69,192.83 85.41,385.65 128.09,578.48 10.96,53.45 21.91,106.91 32.87,160.36 0,43 0,86 0,129 -21.92,43.2 -43.9,86.38 -65.79,129.6 -10.4,21.14 -20.81,42.27 -31.21,63.4 -38.78,19.41 -77.57,38.79 -116.41,58.07 -46.91,23.34 -93.83,46.65 -140.73,70.01 -53.66,32.34 -107.34,64.66 -160.99,97.01 -75.09,53.41 -150.19,106.78 -225.26,160.2 -42.87,32.24 -85.74,64.47 -128.61,96.71 -75.05,32.01 -150.09,64.06 -225.15,96.05 -64.33,21.68 -128.68,43.32 -193,65.01 -74.95,31.98 -149.9,63.96 -224.85,95.94 -216.91,54.31 -433.82,108.64 -650.73,162.93 -83.09,20.69 -166.18,41.38 -249.27,62.07 -85.67,32.33 -171.33,64.67 -257,97 -64.33,32 -128.67,64 -193,96 -43,10.67 -86,21.33 -129,32 -32.05,21.68 -64.08,43.42 -96.15,65.07 -107.28,53.31 -214.57,106.62 -321.85,159.93 -75,64.33 -150,128.67 -225,193 -21.33,0 -42.67,0 -64,0 -21.61,21.92 -43.17,43.9 -64.82,65.79 -10.72,10.4 -21.45,20.81 -32.18,31.21 0,21.33 0,42.67 0,64 11,0 22,0 33,0 -11,10.67 -22,21.33 -33,32 11,10.67 22,21.33 33,32 -32.33,21.67 -64.67,43.33 -97,65 -10.67,0 -21.33,0 -32,0 -43,21.33 -86,42.67 -129,64 -32.72,32.74 -65.48,65.43 -98.17,98.2 -20.61,20.93 -41.22,41.87 -61.83,62.8 0,21.33 0,42.67 0,64 -11,32 -22,64 -33,96 -10.67,0 -21.33,0 -32,0 -10.67,11 -21.33,22 -32,33 -21.33,0 -42.67,0 -64,0 -21.33,10.67 -42.67,21.33 -64,32 -21.67,42.67 -43.33,85.33 -65,128 -10.67,11 -21.33,22 -32,33 -10.67,21.33 -21.33,42.67 -32,64 -10.67,0 -21.33,0 -32,0 -10.67,-21.33 -21.33,-42.67 -32,-64 -21.67,10.67 -43.33,21.33 -65,32 -21.33,21.33 -42.67,42.67 -64,64 -10.68,21.39 -21.41,42.75 -32.05,64.15 -21.32,64.29 -42.63,128.57 -63.95,192.85 -11,21.67 -22,43.33 -33,65 0,85.67 0,171.33 0,257 21.67,85.67 43.33,171.33 65,257 10.67,21.33 21.33,42.67 32,64 32,0 64,0 96,0 0,10.67 0,21.33 0,32 21.67,32.33 43.33,64.67 65,97 21.33,21.33 42.67,42.67 64,64 21.33,0 42.67,0 64,0 10.67,-10.67 21.33,-21.33 32,-32 -10.67,-10.67 -21.33,-21.33 -32,-32 21.67,0 43.33,0 65,0 0,-10.67 0,-21.33 0,-32 21.33,10.67 42.67,21.33 64,32 10.67,-10.67 21.33,-21.33 32,-32 0,-21.67 0,-43.33 0,-65 10.67,11 21.33,22 32,33 0,-11 0,-22 0,-33 10.67,11 21.33,22 32,33 -10.67,10.67 -21.33,21.33 -32,32 21.33,10.67 42.67,21.33 64,32 -10.67,10.67 -21.33,21.33 -32,32 -10.67,0 -21.33,0 -32,0 -10.67,21.33 -21.33,42.67 -32,64 0,-10.67 0,-21.33 0,-32 -10.67,0 -21.33,0 -32,0 10.67,21.33 21.33,42.67 32,64 -10.67,-10.67 -21.33,-21.33 -32,-32 -10.67,10.67 -21.33,21.33 -32,32 -10.67,0 -21.33,0 -32,0 -11,-10.67 -22,-21.33 -33,-32 -21.33,10.67 -42.67,21.33 -64,32 -10.67,21.67 -21.33,43.33 -32,65 0,32 0,64 0,96 -21.33,-10.67 -42.67,-21.33 -64,-32 0,10.67 0,21.33 0,32 -43,10.67 -86,21.33 -129,32 -21.33,43 -42.67,86 -64,129 0,32 0,64 0,96 10.67,-10.67 21.33,-21.33 32,-32 -10.67,10.67 -21.33,21.33 -32,32 0,11 0,22 0,33 -10.67,10.67 -21.33,21.33 -32,32 -11,0 -22,0 -33,0 -10.67,10.67 -21.33,21.33 -32,32 0,-10.67 0,-21.33 0,-32 -10.67,0 -21.33,0 -32,0 -32,32 -64,64 -96,96 -11,32.33 -22,64.67 -33,97 0,21.33 0,42.67 0,64 11,21.33 22,42.67 33,64 10.67,0 21.33,0 32,0 0,10.67 0,21.33 0,32 10.67,11 21.33,22 32,33 11.48,-11.79 22.87,-23.68 34.41,-35.41 9.87,-9.87 19.73,-19.73 29.59,-29.59 0,10.67 0,21.33 0,32 -10.67,11 -21.33,22 -32,33 21.33,0 42.67,0 64,0 -10.67,10.67 -21.33,21.33 -32,32 -10.67,-10.67 -21.33,-21.33 -32,-32 -10.67,10.67 -21.33,21.33 -32,32 10.67,0 21.33,0 32,0 -10.67,10.67 -21.33,21.33 -32,32 0,10.67 0,21.33 0,32 10.67,0 21.33,0 32,0 0,32.33 0,64.67 0,97 -10.67,-21.67 -21.33,-43.33 -32,-65 -32.33,-10.67 -64.67,-21.33 -97,-32 11,-10.67 22,-21.33 33,-32 -21.77,-10.7 -43.52,-21.46 -65.3,-32.12 -53.23,-21.63 -106.47,-43.25 -159.7,-64.88 -332.39,-21.34 -664.78,-42.67 -997.16,-64.01 -117.95,-10.67 -235.89,-21.33 -353.84,-31.99 -182.33,0 -364.67,0 -547,0 -21.33,10.67 -42.67,21.33 -64,32 -32,-10.67 -64,-21.33 -96,-32 -193,0 -386,0 -579,0 -64.33,10.67 -128.67,21.33 -193,32 -10.67,10.67 -21.33,21.33 -32,32 0,21.67 0,43.33 0,65 -21.33,0 -42.67,0 -64,0 -32.33,-11 -64.67,-22 -97,-33 -150.05,11.01 -300.11,22 -450.16,33.02 -96.39,10.68 -192.78,21.33 -289.16,32.03 -74.89,10.65 -149.79,21.3 -224.68,31.95 -53.67,-10.67 -107.33,-21.33 -161,-32 -64.33,0 -128.67,0 -193,0 -21.33,10.67 -42.67,21.33 -64,32 -21.67,0 -43.33,0 -65,0 -10.67,10.67 -21.33,21.33 -32,32 -10.67,-10.67 -21.33,-21.33 -32,-32 -10.67,0 -21.33,0 -32,0 -10.67,10.67 -21.33,21.33 -32,32 0,-10.67 0,-21.33 0,-32 10.67,0 21.33,0 32,0 -21.67,-21.33 -43.33,-42.67 -65,-64 -42.67,-11 -85.33,-22 -128,-33 -43,0 -86,0 -129,0 -10.67,-10.67 -21.33,-21.33 -32,-32 0,-10.67 0,-21.33 0,-32 -32,0 -64,0 -96,0 21.33,-10.67 42.67,-21.33 64,-32 0,-21.33 0,-42.67 0,-64 10.67,10.67 21.33,21.33 32,32 10.67,0 21.33,0 32,0 -10.67,10.67 -21.33,21.33 -32,32 21.33,0 42.67,0 64,0 11,-10.67 22,-21.33 33,-32 0,-21.33 0,-42.67 0,-64 -21.67,0 -43.33,0 -65,0 -10.67,-11 -21.33,-22 -32,-33 -10.67,0 -21.33,0 -32,0 -10.67,11 -21.33,22 -32,33 -10.67,-21.67 -21.33,-43.33 -32,-65 21.33,-10.67 42.67,-21.33 64,-32 0,-10.67 0,-21.33 0,-32 -21.33,-10.67 -42.67,-21.33 -64,-32 10.67,-10.67 21.33,-21.33 32,-32 10.67,0 21.33,0 32,0 10.67,10.67 21.33,21.33 32,32 11.91,-24.13 23.72,-48.32 35.71,-72.42 9.43,-18.86 18.86,-37.72 28.29,-56.58 21.67,-21.33 43.33,-42.67 65,-64 -10.67,-10.67 -21.33,-21.33 -32,-32 0,-10.67 0,-21.33 0,-32 21.33,-21.67 42.67,-43.33 64,-65 32,-21.33 64,-42.67 96,-64 -21.33,-10.67 -42.67,-21.33 -64,-32 -10.67,-10.67 -21.33,-21.33 -32,-32 21.33,-21.67 42.67,-43.33 64,-65 0,-10.67 0,-21.33 0,-32 10.67,-10.67 21.33,-21.33 32,-32 53.67,-32 107.33,-64 161,-96 0,-32.33 0,-64.67 0,-97 -10.67,-10.67 -21.33,-21.33 -32,-32 0,-10.67 0,-21.33 0,-32 10.67,-10.67 21.33,-21.33 32,-32 -10.67,-10.67 -21.33,-21.33 -32,-32 10.67,-11 21.33,-22 32,-33 -21.33,0 -42.67,0 -64,0 0,-10.67 0,-21.33 0,-32 -10.67,10.67 -21.33,21.33 -32,32 -11,-10.67 -22,-21.33 -33,-32 -10.67,0 -21.33,0 -32,0 -32,-10.67 -64,-21.33 -96,-32 -10.67,10.67 -21.33,21.33 -32,32 -32.33,0 -64.67,0 -97,0 10.67,21.67 21.33,43.33 32,65 -10.67,-11 -21.33,-22 -32,-33 -10.67,11 -21.33,22 -32,33 0,10.67 0,21.33 0,32 -21.33,21.33 -42.67,42.67 -64,64 -21.67,-10.67 -43.33,-21.33 -65,-32 -10.67,-10.67 -21.33,-21.33 -32,-32 -21.33,10.67 -42.67,21.33 -64,32 0,10.67 0,21.33 0,32 -21.33,0 -42.67,0 -64,0 -53.67,10.67 -107.33,21.33 -161,32 0,10.67 0,21.33 0,32 -10.67,10.67 -21.33,21.33 -32,32 -21.67,0 -43.33,0 -65,0 -10.67,11 -21.33,22 -32,33 -10.67,0 -21.33,0 -32,0 10.67,10.67 21.33,21.33 32,32 -21.33,10.67 -42.67,21.33 -64,32 -10.67,0 -21.33,0 -32,0 10.67,0 21.33,0 32,0 -32,21.33 -64,42.67 -96,64 0,10.67 0,21.33 0,32 -11,10.67 -22,21.33 -33,32 11,0 22,0 33,0 -21.67,32.33 -43.33,64.67 -65,97 0,10.67 0,21.33 0,32 10.67,10.67 21.33,21.33 32,32 11,-10.67 22,-21.33 33,-32 0,10.67 0,21.33 0,32 16.18,16.19 32.43,32.32 48.43,48.69 17.28,17.51 34.49,35.1 51.82,52.56 9.25,9.25 18.5,18.5 27.75,27.75 10.67,32 21.33,64 32,96 10.67,-10.67 21.33,-21.33 32,-32 -10.67,-32 -21.33,-64 -32,-96 -10.67,-10.67 -21.33,-21.33 -32,-32 0,-11 0,-22 0,-33 -21.33,0 -42.67,0 -64,0 -10.67,-21.33 -21.33,-42.67 -32,-64 10.67,-10.67 21.33,-21.33 32,-32 10.67,10.67 21.33,21.33 32,32 10.67,0 21.33,0 32,0 0,-10.67 0,-21.33 0,-32 32.33,-32.33 64.67,-64.67 97,-97 10.67,0 21.33,0 32,0 21.33,21.67 42.67,43.33 64,65 32.33,0 64.67,0 97,0 -11,-10.67 -22,-21.33 -33,-32 11,-11 22,-22 33,-33 10.67,0 21.33,0 32,0 10.67,-10.67 21.33,-21.33 32,-32 0,10.67 0,21.33 0,32 10.67,-10.67 21.33,-21.33 32,-32 10.67,0 21.33,0 32,0 0,10.67 0,21.33 0,32 -11.48,11.79 -22.87,23.68 -34.41,35.41 -20.53,20.53 -41.06,41.06 -61.59,61.59 0,10.67 0,21.33 0,32 10.67,21.33 21.33,42.67 32,64 10.67,0 21.33,0 32,0 -10.67,11 -21.33,22 -32,33 -10.67,-11 -21.33,-22 -32,-33 -10.67,21.67 -21.33,43.33 -32,65 -11,-21.67 -22,-43.33 -33,-65 -21.33,0 -42.67,0 -64,0 -10.67,-10.67 -21.33,-21.33 -32,-32 -21.33,10.67 -42.67,21.33 -64,32 -21.67,21.67 -43.33,43.33 -65,65 10.67,10.67 21.33,21.33 32,32 11,-10.67 22,-21.33 33,-32 0,10.67 0,21.33 0,32 10.67,10.67 21.33,21.33 32,32 -10.67,-10.67 -21.33,-21.33 -32,-32 -11,0 -22,0 -33,0 0,10.67 0,21.33 0,32 11,10.67 22,21.33 33,32 32,0 64,0 96,0 -21.33,10.67 -42.67,21.33 -64,32 10.67,10.67 21.33,21.33 32,32 -32.33,0 -64.67,0 -97,0 11,11 22,22 33,33 10.67,0 21.33,0 32,0 21.33,-11 42.67,-22 64,-33 10.67,11 21.33,22 32,33 -21.33,21.33 -42.67,42.67 -64,64 10.67,10.67 21.33,21.33 32,32 21.33,-10.67 42.67,-21.33 64,-32 21.67,0 43.33,0 65,0 0,10.67 0,21.33 0,32 0,-10.67 0,-21.33 0,-32 0,10.67 0,21.33 0,32 21.33,0 42.67,0 64,0 -21.33,0 -42.67,0 -64,0 10.67,10.67 21.33,21.33 32,32 21.33,0 42.67,0 64,0 0,21.67 0,43.33 0,65 -21.33,0 -42.67,0 -64,0 0,10.67 0,21.33 0,32 0,-10.67 0,-21.33 0,-32 10.67,10.67 21.33,21.33 32,32 -10.67,21.33 -21.33,42.67 -32,64 10.67,10.67 21.33,21.33 32,32 -21.33,0 -42.67,0 -64,0 0,10.67 0,21.33 0,32 10.67,10.67 21.33,21.33 32,32 10.67,-21.33 21.33,-42.67 32,-64 21.33,0 42.67,0 64,0 -10.67,0 -21.33,0 -32,0 10.67,10.67 21.33,21.33 32,32 -21.33,10.67 -42.67,21.33 -64,32 10.67,0 21.33,0 32,0 0,11 0,22 0,33 -10.67,0 -21.33,0 -32,0 -32,21.33 -64,42.67 -96,64 0,10.67 0,21.33 0,32 10.67,10.67 21.33,21.33 32,32 -64.33,0 -128.67,0 -193,0 -43,21.67 -86,43.33 -129,65 -42.67,0 -85.33,0 -128,0 -21.67,10.67 -43.33,21.33 -65,32 0,10.67 0,21.33 0,32 -10.67,0 -21.33,0 -32,0 -21.33,-21.33 -42.67,-42.67 -64,-64 -21.67,-11 -43.33,-22 -65,-33 0,-10.67 0,-21.33 0,-32 -21.33,0 -42.67,0 -64,0 -10.67,-10.67 -21.33,-21.33 -32,-32 -32,-10.67 -64,-21.33 -96,-32 -32.33,0 -64.67,0 -97,0 -21.33,10.67 -42.67,21.33 -64,32 -10.67,-10.67 -21.33,-21.33 -32,-32 -11,10.67 -22,21.33 -33,32 11,10.67 22,21.33 33,32 -11,-10.67 -22,-21.33 -33,-32 -10.67,10.67 -21.33,21.33 -32,32 10.67,0 21.33,0 32,0 0,10.67 0,21.33 0,32 32.33,-10.67 64.67,-21.33 97,-32 0,10.67 0,21.33 0,32 10.67,-10.67 21.33,-21.33 32,-32 -10.67,-10.67 -21.33,-21.33 -32,-32 53.67,0 107.33,0 161,0 21.33,10.67 42.67,21.33 64,32 -21.33,0 -42.67,0 -64,0 10.67,0 21.33,0 32,0 0,10.67 0,21.33 0,32 -10.67,-10.67 -21.33,-21.33 -32,-32 -10.67,10.67 -21.33,21.33 -32,32 64,0 128,0 192,0 0,11 0,22 0,33 11,0 22,0 33,0 10.67,10.67 21.33,21.33 32,32 21.33,10.67 42.67,21.33 64,32 -96.39,0 -192.78,0 -289.16,0 -139.28,10.66 -278.56,21.33 -417.84,31.99 -32.33,10.67 -64.67,21.33 -97,32 -10.67,10.67 -21.33,21.33 -32,32 0,10.67 0,21.33 0,32 0,-10.67 0,-21.33 0,-32 -32,0 -64,0 -96,0 -21.67,10.67 -43.33,21.33 -65,32 -10.67,11 -21.33,22 -32,33 -42.67,10.67 -85.33,21.33 -128,32 -21.67,10.67 -43.33,21.33 -65,32 0,32 0,64 0,96 0,-10.67 0,-21.33 0,-32 -32,0 -64,0 -96,0 10.67,0 21.33,0 32,0 0,-10.67 0,-21.33 0,-32 -23.87,-11.9 -47.68,-23.91 -71.59,-35.73 -19.13,-9.43 -38.27,-18.85 -57.41,-28.27 -117.72,0 -235.44,0 -353.16,0 -171.61,10.66 -343.23,21.33 -514.84,31.99 -128.83,21.35 -257.65,42.73 -386.48,64.07 -149.84,21.64 -299.68,43.29 -449.52,64.93 -53.67,21.33 -107.33,42.67 -161,64 -21.33,0 -42.67,0 -64,0 -10.67,-10.67 -21.33,-21.33 -32,-32 0,-21.67 0,-43.33 0,-65 -10.67,0 -21.33,0 -32,0 10.67,-10.67 21.33,-21.33 32,-32 10.67,0 21.33,0 32,0 10.67,-10.67 21.33,-21.33 32,-32 0,-10.67 0,-21.33 0,-32 10.67,0 21.33,0 32,0 21.67,-21.33 43.33,-42.67 65,-64 32,-11 64,-22 96,-33 11.14,11.45 22.2,22.98 33.39,34.37 21.2,20.88 42.41,41.75 63.61,62.63 21.33,0 42.67,0 64,0 32,10.67 64,21.33 96,32 21.67,0 43.33,0 65,0 10.67,-10.67 21.33,-21.33 32,-32 0,-32.33 0,-64.67 0,-97 -23.87,-11.9 -47.68,-23.91 -71.59,-35.73 -19.13,-9.43 -38.27,-18.85 -57.41,-28.27 -10.67,-10.67 -21.33,-21.33 -32,-32 10.67,10.67 21.33,21.33 32,32 22.48,11.09 45.01,22.11 67.46,33.25 41.9,21.27 83.78,42.57 125.69,63.81 53.62,21.31 107.23,42.63 160.85,63.94 53.72,0 107.44,0 161.16,0 139.28,-10.66 278.56,-21.33 417.84,-31.99 64.33,-21.67 128.67,-43.33 193,-65 85.67,-10.67 171.33,-21.33 257,-32 10.67,0 21.33,0 32,0 10.67,10.67 21.33,21.33 32,32 53.67,21.67 107.33,43.33 161,65 0,21.33 0,42.67 0,64 10.67,-21.33 21.33,-42.67 32,-64 0,-10.67 0,-21.33 0,-32 -10.67,0 -21.33,0 -32,0 0,10.67 0,21.33 0,32 -11.45,-11.49 -22.99,-22.9 -34.38,-34.45 -10.76,-11.05 -21.43,-22.21 -32.26,-33.19 -9.79,-9.79 -19.57,-19.57 -29.36,-29.36 -11,0 -22,0 -33,0 -10.67,-21.33 -21.33,-42.67 -32,-64 -32,-10.67 -64,-21.33 -96,-32 -10.67,-10.67 -21.33,-21.33 -32,-32 -21.67,0 -43.33,0 -65,0 0,-10.67 0,-21.33 0,-32 -21.33,0 -42.67,0 -64,0 -22.34,-22.66 -44.61,-45.37 -66.99,-67.99 -9.67,-9.67 -19.34,-19.34 -29.01,-29.01 -21.67,10.67 -43.33,21.33 -65,32 0,10.67 0,21.33 0,32 -10.67,-10.67 -21.33,-21.33 -32,-32 -10.67,0 -21.33,0 -32,0 -21.33,-32 -42.67,-64 -64,-96 -11,10.67 -22,21.33 -33,32 0,-10.67 0,-21.33 0,-32 -10.67,-21.67 -21.33,-43.33 -32,-65 -53.33,-32 -106.67,-64 -160,-96 0,-10.67 0,-21.33 0,-32 -11,10.67 -22,21.33 -33,32 -10.67,-10.67 -21.33,-21.33 -32,-32 0,-10.67 0,-21.33 0,-32 -10.67,0 -21.33,0 -32,0 -21.33,-10.67 -42.67,-21.33 -64,-32 -10.67,0 -21.33,0 -32,0 -21.67,10.67 -43.33,21.33 -65,32 0,-10.67 0,-21.33 0,-32 -10.67,-11 -21.33,-22 -32,-33 10.67,21.67 21.33,43.33 32,65 -21.33,10.67 -42.67,21.33 -64,32 -21.33,0 -42.67,0 -64,0 -10.67,-10.67 -21.33,-21.33 -32,-32 21.33,-10.67 42.67,-21.33 64,-32 10.67,-11 21.33,-22 32,-33 -10.67,-10.67 -21.33,-21.33 -32,-32 -32.33,0 -64.67,0 -97,0 -21.33,10.67 -42.67,21.33 -64,32 -11.48,11.79 -22.87,23.68 -34.41,35.41 -9.87,9.87 -19.73,19.73 -29.59,29.59 21.33,10.67 42.67,21.33 64,32 -10.67,21.33 -21.33,42.67 -32,64 0,10.67 0,21.33 0,32 10.67,0 21.33,0 32,0 -21.33,0 -42.67,0 -64,0 -21.67,21.67 -43.33,43.33 -65,65 -10.67,0 -21.33,0 -32,0 -10.67,-11 -21.33,-22 -32,-33 10.67,-10.67 21.33,-21.33 32,-32 -10.67,-10.67 -21.33,-21.33 -32,-32 -10.67,0 -21.33,0 -32,0 0,10.67 0,21.33 0,32 0,-10.67 0,-21.33 0,-32 10.67,0 21.33,0 32,0 0,-10.67 0,-21.33 0,-32 21.33,-10.67 42.67,-21.33 64,-32 11,10.67 22,21.33 33,32 0,-10.67 0,-21.33 0,-32 10.67,0 21.33,0 32,0 0,-10.67 0,-21.33 0,-32 -10.67,0 -21.33,0 -32,0 -32.33,10.67 -64.67,21.33 -97,32 -64.33,0 -128.67,0 -193,0 -21.33,10.67 -42.67,21.33 -64,32 -32.33,0 -64.67,0 -97,0 -10.67,10.67 -21.33,21.33 -32,32 -10.67,0 -21.33,0 -32,0 -21.33,10.67 -42.67,21.33 -64,32 -10.67,10.67 -21.33,21.33 -32,32 0,11 0,22 0,33 -10.67,0 -21.33,0 -32,0 -11,32 -22,64 -33,96 -21.33,10.67 -42.67,21.33 -64,32 -10.67,-10.67 -21.33,-21.33 -32,-32 21.33,-32 42.67,-64 64,-96 -10.67,-11 -21.33,-22 -32,-33 10.67,-10.67 21.33,-21.33 32,-32 -10.67,-10.67 -21.33,-21.33 -32,-32 -23.87,11.9 -47.68,23.91 -71.59,35.73 -19.13,9.43 -38.27,18.85 -57.41,28.27 -10.67,11 -21.33,22 -32,33 0,10.67 0,21.33 0,32 10.67,10.67 21.33,21.33 32,32 -10.67,32 -21.33,64 -32,96 -21.33,0 -42.67,0 -64,0 0,21.67 0,43.33 0,65 -32.05,21.35 -64.08,42.75 -96.15,64.07 -42.95,21.31 -85.9,42.62 -128.85,63.93 -10.67,0 -21.33,0 -32,0 0,10.67 0,21.33 0,32 -10.67,-10.67 -21.33,-21.33 -32,-32 0,10.67 0,21.33 0,32 -10.67,0 -21.33,0 -32,0 10.67,-10.67 21.33,-21.33 32,-32 -10.67,0 -21.33,0 -32,0 -21.67,10.67 -43.33,21.33 -65,32 10.67,0 21.33,0 32,0 0,11 0,22 0,33 -10.67,10.67 -21.33,21.33 -32,32 -10.67,-10.67 -21.33,-21.33 -32,-32 0,10.67 0,21.33 0,32 -21.33,0 -42.67,0 -64,0 10.67,-21.67 21.33,-43.33 32,-65 -10.67,0 -21.33,0 -32,0 -53.67,21.67 -107.33,43.33 -161,65 -10.67,10.67 -21.33,21.33 -32,32 -10.67,-10.67 -21.33,-21.33 -32,-32 0,-10.67 0,-21.33 0,-32 -11,10.67 -22,21.33 -33,32 0,-10.67 0,-21.33 0,-32 11,0 22,0 33,0 10.67,-32.33 21.33,-64.67 32,-97 21.33,-10.67 42.67,-21.33 64,-32 0,-10.67 0,-21.33 0,-32 -10.67,0 -21.33,0 -32,0 -21.33,-21.33 -42.67,-42.67 -64,-64 -11,0 -22,0 -33,0 0,-11 0,-22 0,-33 -10.67,21.67 -21.33,43.33 -32,65 -10.67,-10.67 -21.33,-21.33 -32,-32 -21.33,21.33 -42.67,42.67 -64,64 0,10.67 0,21.33 0,32 -10.67,-10.67 -21.33,-21.33 -32,-32 -10.67,10.67 -21.33,21.33 -32,32 0,10.67 0,21.33 0,32 -11,0 -22,0 -33,0 -10.67,-10.67 -21.33,-21.33 -32,-32 10.67,-21.33 21.33,-42.67 32,-64 -10.67,-10.67 -21.33,-21.33 -32,-32 0,10.67 0,21.33 0,32 -21.33,0 -42.67,0 -64,0 0,10.67 0,21.33 0,32 0,-10.67 0,-21.33 0,-32 -10.67,10.67 -21.33,21.33 -32,32 0,10.67 0,21.33 0,32 -10.67,0 -21.33,0 -32,0 0,10.67 0,21.33 0,32 -10.67,-10.67 -21.33,-21.33 -32,-32 -21.67,21.33 -43.33,42.67 -65,64 0,-21.33 0,-42.67 0,-64 -10.67,0 -21.33,0 -32,0 0,-21.33 0,-42.67 0,-64 11.45,-11.49 22.99,-22.9 34.38,-34.45 9.87,-10.18 19.75,-20.37 29.62,-30.55 32.33,0 64.67,0 97,0 0,-21.33 0,-42.67 0,-64 10.67,10.67 21.33,21.33 32,32 10.67,-10.67 21.33,-21.33 32,-32 0,-10.67 0,-21.33 0,-32 10.67,-21.33 21.33,-42.67 32,-64 10.67,0 21.33,0 32,0 0,-11 0,-22 0,-33 -21.33,11 -42.67,22 -64,33 -10.67,-11 -21.33,-22 -32,-33 -21.33,11 -42.67,22 -64,33 0,10.67 0,21.33 0,32 0,-10.67 0,-21.33 0,-32 -10.67,-11 -21.33,-22 -32,-33 21.33,0 42.67,0 64,0 -10.67,0 -21.33,0 -32,0 0,-10.67 0,-21.33 0,-32 21.33,-21.33 42.67,-42.67 64,-64 -10.67,0 -21.33,0 -32,0 0,-21.33 0,-42.67 0,-64 -10.67,10.67 -21.33,21.33 -32,32 -10.67,-10.67 -21.33,-21.33 -32,-32 -11,0 -22,0 -33,0 -10.67,10.67 -21.33,21.33 -32,32 -10.67,-10.67 -21.33,-21.33 -32,-32 -10.67,0 -21.33,0 -32,0 10.67,10.67 21.33,21.33 32,32 -10.67,0 -21.33,0 -32,0 10.67,10.67 21.33,21.33 32,32 -21.33,0 -42.67,0 -64,0 10.67,21.33 21.33,42.67 32,64 0,-10.67 0,-21.33 0,-32 32,10.67 64,21.33 96,32 -21.33,10.67 -42.67,21.33 -64,32 -10.67,11 -21.33,22 -32,33 -10.67,0 -21.33,0 -32,0 0,10.67 0,21.33 0,32 -10.67,0 -21.33,0 -32,0 0,10.67 0,21.33 0,32 -11,-10.67 -22,-21.33 -33,-32 11,-10.67 22,-21.33 33,-32 -21.67,-21.67 -43.33,-43.33 -65,-65 -21.33,10.67 -42.67,21.33 -64,32 -10.67,-21.33 -21.33,-42.67 -32,-64 0,10.67 0,21.33 0,32 -10.67,0 -21.33,0 -32,0 0,21.67 0,43.33 0,65 -11,-11 -22,-22 -33,-33 0,11 0,22 0,33 -10.67,0 -21.33,0 -32,0 0,21.33 0,42.67 0,64 10.67,10.67 21.33,21.33 32,32 -10.67,0 -21.33,0 -32,0 0,10.67 0,21.33 0,32 -10.67,10.67 -21.33,21.33 -32,32 21.33,0 42.67,0 64,0 0,11 0,22 0,33 -21.33,0 -42.67,0 -64,0 -10.67,21.33 -21.33,42.67 -32,64 10.67,10.67 21.33,21.33 32,32 21.33,0 42.67,0 64,0 -21.33,10.67 -42.67,21.33 -64,32 -21.33,-21.33 -42.67,-42.67 -64,-64 -10.67,10.67 -21.33,21.33 -32,32 0,-21.33 0,-42.67 0,-64 -10.67,0 -21.33,0 -32,0 0,10.67 0,21.33 0,32 -11,-10.67 -22,-21.33 -33,-32 -10.67,0 -21.33,0 -32,0 -10.67,21.33 -21.33,42.67 -32,64 -21.33,21.33 -42.67,42.67 -64,64 -10.67,-10.67 -21.33,-21.33 -32,-32 -32.33,0 -64.67,0 -97,0 -32,21.33 -64,42.67 -96,64 -10.67,0 -21.33,0 -32,0 -21.67,11 -43.33,22 -65,33 -10.67,0 -21.33,0 -32,0 0,10.67 0,21.33 0,32 -10.67,10.67 -21.33,21.33 -32,32 -21.33,10.67 -42.67,21.33 -64,32 10.67,-21.33 21.33,-42.67 32,-64 0,-10.67 0,-21.33 0,-32 -10.67,0 -21.33,0 -32,0 -21.67,10.67 -43.33,21.33 -65,32 0,-10.67 0,-21.33 0,-32 0,10.67 0,21.33 0,32 0,-10.67 0,-21.33 0,-32 -10.67,0 -21.33,0 -32,0 -32,10.67 -64,21.33 -96,32 0,-10.67 0,-21.33 0,-32 -10.67,0 -21.33,0 -32,0 -11,21.33 -22,42.67 -33,64 -10.67,-10.67 -21.33,-21.33 -32,-32 0,10.67 0,21.33 0,32 -10.67,-10.67 -21.33,-21.33 -32,-32 -21.33,21.33 -42.67,42.67 -64,64 0,10.67 0,21.33 0,32 -10.67,0 -21.33,0 -32,0 0,10.67 0,21.33 0,32 -10.67,11 -21.33,22 -32,33 10.67,10.67 21.33,21.33 32,32 -10.67,0 -21.33,0 -32,0 -11,10.67 -22,21.33 -33,32 0,32 0,64 0,96 21.67,10.67 43.33,21.33 65,32 0,11 0,22 0,33 0,-11 0,-22 0,-33 -10.67,11 -21.33,22 -32,33 -11,0 -22,0 -33,0 0,21.33 0,42.67 0,64 11,0 22,0 33,0 -11,21.33 -22,42.67 -33,64 -10.67,0 -21.33,0 -32,0 0,10.67 0,21.33 0,32 10.67,11 21.33,22 32,33 -21.33,10.67 -42.67,21.33 -64,32 0,10.67 0,21.33 0,32 -10.67,0 -21.33,0 -32,0 21.33,0 42.67,0 64,0 -10.67,10.67 -21.33,21.33 -32,32 -10.67,0 -21.33,0 -32,0 0,21.33 0,42.67 0,64 11.45,11.49 22.99,22.9 34.38,34.45 9.87,10.18 19.75,20.37 29.62,30.55 -10.67,10.67 -21.33,21.33 -32,32 10.67,0 21.33,0 32,0 -10.67,10.67 -21.33,21.33 -32,32 32.33,0 64.67,0 97,0 0,-10.67 0,-21.33 0,-32 10.67,0 21.33,0 32,0 10.67,-10.67 21.33,-21.33 32,-32 10.67,0 21.33,0 32,0 -10.67,-11 -21.33,-22 -32,-33 10.67,0 21.33,0 32,0 0,-10.67 0,-21.33 0,-32 10.67,10.67 21.33,21.33 32,32 0,-10.67 0,-21.33 0,-32 10.67,0 21.33,0 32,0 10.67,-32 21.33,-64 32,-96 11,0 22,0 33,0 0,21.33 0,42.67 0,64 32,0 64,0 96,0 0,10.67 0,21.33 0,32 10.67,0 21.33,0 32,0 -10.67,10.67 -21.33,21.33 -32,32 0,21.67 0,43.33 0,65 -21.33,0 -42.67,0 -64,0 0,10.67 0,21.33 0,32 -21.67,0 -43.33,0 -65,0 11,0 22,0 33,0 0,-10.67 0,-21.33 0,-32 10.67,10.67 21.33,21.33 32,32 0,-10.67 0,-21.33 0,-32 10.67,0 21.33,0 32,0 0,-10.67 0,-21.33 0,-32 -10.67,0 -21.33,0 -32,0 0,-11 0,-22 0,-33 -21.67,21.67 -43.33,43.33 -65,65 0,-10.67 0,-21.33 0,-32 -21.33,-11 -42.67,-22 -64,-33 10.67,21.67 21.33,43.33 32,65 -10.67,10.67 -21.33,21.33 -32,32 10.67,-10.67 21.33,-21.33 32,-32 10.67,0 21.33,0 32,0 -21.33,21.33 -42.67,42.67 -64,64 -10.67,0 -21.33,0 -32,0 -10.67,10.67 -21.33,21.33 -32,32 0,-10.67 0,-21.33 0,-32 -10.67,10.67 -21.33,21.33 -32,32 10.67,0 21.33,0 32,0 -21.33,10.67 -42.67,21.33 -64,32 21.33,0 42.67,0 64,0 10.67,-10.67 21.33,-21.33 32,-32 0,10.67 0,21.33 0,32 10.67,0 21.33,0 32,0 10.67,-21.33 21.33,-42.67 32,-64 43,0 86,0 129,0 32,-10.67 64,-21.33 96,-32 -21.33,21.33 -42.67,42.67 -64,64 -21.33,53.67 -42.67,107.33 -64,161 -32.33,21.33 -64.67,42.67 -97,64 0,10.67 0,21.33 0,32 32.33,11 64.67,22 97,33 -10.67,-11 -21.33,-22 -32,-33 0,-10.67 0,-21.33 0,-32 10.67,0 21.33,0 32,0 10.67,-10.67 21.33,-21.33 32,-32 21.33,-42.67 42.67,-85.33 64,-128 32.33,-21.67 64.67,-43.33 97,-65 0,-10.67 0,-21.33 0,-32 45.38,-15.1 90.71,-30.32 136.15,-45.25 18.95,-6.25 37.9,-12.5 56.85,-18.75 0,-10.67 0,-21.33 0,-32 0,10.67 0,21.33 0,32 -11.79,11.48 -23.68,22.87 -35.41,34.41 -20.53,20.53 -41.06,41.06 -61.59,61.59 0,10.67 0,21.33 0,32 -10.67,21.67 -21.33,43.33 -32,65 10.67,10.67 21.33,21.33 32,32 32.33,10.67 64.67,21.33 97,32 10.67,-10.67 21.33,-21.33 32,-32 0,10.67 0,21.33 0,32 21.33,-10.67 42.67,-21.33 64,-32 32.33,21.33 64.67,42.67 97,64 -11,0 -22,0 -33,0 11,0 22,0 33,0 10.67,10.67 21.33,21.33 32,32 10.67,0 21.33,0 32,0 0,10.67 0,21.33 0,32 -10.67,11 -21.33,22 -32,33 -10.67,-21.67 -21.33,-43.33 -32,-65 -32.33,0 -64.67,0 -97,0 -10.67,21.67 -21.33,43.33 -32,65 -10.67,10.67 -21.33,21.33 -32,32 -10.67,-10.67 -21.33,-21.33 -32,-32 -11,32 -22,64 -33,96 0,10.67 0,21.33 0,32 -32,43 -64,86 -96,129 -10.67,10.67 -21.33,21.33 -32,32 -10.67,0 -21.33,0 -32,0 -11,10.67 -22,21.33 -33,32 0,-32 0,-64 0,-96 -21.33,0 -42.67,0 -64,0 0,-10.67 0,-21.33 0,-32 -10.67,0 -21.33,0 -32,0 -10.67,10.67 -21.33,21.33 -32,32 0,10.67 0,21.33 0,32 0,-32.33 0,-64.67 0,-97 -10.67,-10.67 -21.33,-21.33 -32,-32 -21.67,21.67 -43.33,43.33 -65,65 -21.33,0 -42.67,0 -64,0 10.67,10.67 21.33,21.33 32,32 -21.33,-10.67 -42.67,-21.33 -64,-32 -10.67,-11 -21.33,-22 -32,-33 0,21.67 0,43.33 0,65 -10.67,0 -21.33,0 -32,0 -21.67,-10.67 -43.33,-21.33 -65,-32 -32,10.67 -64,21.33 -96,32 0,21.33 0,42.67 0,64 0,-10.67 0,-21.33 0,-32 -10.67,0 -21.33,0 -32,0 -10.67,10.67 -21.33,21.33 -32,32 10.67,10.67 21.33,21.33 32,32 -11.49,-11.45 -22.9,-22.99 -34.45,-34.38 -10.18,-9.87 -20.37,-19.75 -30.55,-29.62 -10.67,0 -21.33,0 -32,0 -21.33,-21.33 -42.67,-42.67 -64,-64 -32.33,-11 -64.67,-22 -97,-33 11,0 22,0 33,0 -11,-21.33 -22,-42.67 -33,-64 0,-10.67 0,-21.33 0,-32 -10.67,-21.33 -21.33,-42.67 -32,-64 0,-11 0,-22 0,-33 -32,-10.67 -64,-21.33 -96,-32 0,-10.67 0,-21.33 0,-32 -32.33,10.67 -64.67,21.33 -97,32 11,-10.67 22,-21.33 33,-32 -11,-10.67 -22,-21.33 -33,-32 0,-10.67 0,-21.33 0,-32 -21.33,-10.67 -42.67,-21.33 -64,-32 10.67,-10.67 21.33,-21.33 32,-32 -32,-11 -64,-22 -96,-33 -32.33,0 -64.67,0 -97,0 0,-32 0,-64 0,-96 -10.67,0 -21.33,0 -32,0 -10.67,-10.67 -21.33,-21.33 -32,-32 10.67,-10.67 21.33,-21.33 32,-32 0,-21.67 0,-43.33 0,-65 z m 15112,-3922 c 0,-11 0,-22 0,-33 10.67,0 21.33,0 32,0 0,11 0,22 0,33 -10.67,0 -21.33,0 -32,0 z m -64,32 c 10.67,-10.67 21.33,-21.33 32,-32 10.67,10.67 21.33,21.33 32,32 -10.67,0 -21.33,0 -32,0 10.67,10.67 21.33,21.33 32,32 -21.33,0 -42.67,0 -64,0 0,-10.67 0,-21.33 0,-32 z m -7042,3054 c 0,-10.67 0,-21.33 0,-32 0,10.67 0,21.33 0,32 z m -1511,97 c 10.67,0 21.33,0 32,0 -10.67,0 -21.33,0 -32,0 z m -2829,-161 c 0,10.67 0,21.33 0,32 0,-10.67 0,-21.33 0,-32 z m -2701,418 c 0,10.67 0,21.33 0,32 10.67,0 21.33,0 32,0 -10.67,0 -21.33,0 -32,0 0,-10.67 0,-21.33 0,-32 z m 3858,-772 c 0,-10.67 0,-21.33 0,-32 0,10.67 0,21.33 0,32 10.67,0 21.33,0 32,0 0,10.67 0,21.33 0,32 -10.67,0 -21.33,0 -32,0 10.67,0 21.33,0 32,0 -10.67,0 -21.33,0 -32,0 0,-10.67 0,-21.33 0,-32 z m -482,0 c 0,-10.67 0,-21.33 0,-32 10.67,0 21.33,0 32,0 -10.67,10.67 -21.33,21.33 -32,32 z m 3280,418 c -11,0 -22,0 -33,0 0,-10.67 0,-21.33 0,-32 11,0 22,0 33,0 0,10.67 0,21.33 0,32 z m -6688,354 c 0,10.67 0,21.33 0,32 0,-10.67 0,-21.33 0,-32 z m 96,643 c -10.67,-10.67 -21.33,-21.33 -32,-32 -10.67,10.67 -21.33,21.33 -32,32 21.33,0 42.67,0 64,0 z m -96,-289 c 10.67,0 21.33,0 32,0 -10.67,0 -21.33,0 -32,0 z m 546,450 c 0,-10.67 0,-21.33 0,-32 0,10.67 0,21.33 0,32 z m -128,-900 c 10.67,0 21.33,0 32,0 -10.67,0 -21.33,0 -32,0 0,10.67 0,21.33 0,32 0,-10.67 0,-21.33 0,-32 z m 160,-161 c 21.67,0 43.33,0 65,0 0,10.67 0,21.33 0,32 -10.67,0 -21.33,0 -32,0 0,10.67 0,21.33 0,32 0,-10.67 0,-21.33 0,-32 0,10.67 0,21.33 0,32 -11,0 -22,0 -33,0 0,-10.67 0,-21.33 0,-32 11,0 22,0 33,0 0,-10.67 0,-21.33 0,-32 -11,0 -22,0 -33,0 z m 2894,-450 c 10.67,0 21.33,0 32,0 -10.67,0 -21.33,0 -32,0 z m -3215,482 c 21.33,0 42.67,0 64,0 -10.67,0 -21.33,0 -32,0 0,10.67 0,21.33 0,32 -10.67,0 -21.33,0 -32,0 0,10.67 0,21.33 0,32 0,-21.33 0,-42.67 0,-64 z m 5048,96 c 10.67,0 21.33,0 32,0 -10.67,0 -21.33,0 -32,0 z m -2701,-193 c 0,11 0,22 0,33 0,-11 0,-22 0,-33 0,11 0,22 0,33 0,-11 0,-22 0,-33 z m 3923,0 c 0,-10.67 0,-21.33 0,-32 10.67,0 21.33,0 32,0 0,10.67 0,21.33 0,32 -10.67,0 -21.33,0 -32,0 z m -3055,-64 c 0,-10.67 0,-21.33 0,-32 0,10.67 0,21.33 0,32 z m 3537,0 c 10.67,0 21.33,0 32,0 -10.67,0 -21.33,0 -32,0 z m -6463,1608 c 0,-10.67 0,-21.33 0,-32 10.67,0 21.33,0 32,0 -10.67,0 -21.33,0 -32,0 0,10.67 0,21.33 0,32 z m -450,-933 c 0,-10.67 0,-21.33 0,-32 10.67,0 21.33,0 32,0 -10.67,0 -21.33,0 -32,0 0,10.67 0,21.33 0,32 z m 3408,-707 c 0,10.67 0,21.33 0,32 0,-10.67 0,-21.33 0,-32 z m 161,-129 c 0,-10.67 0,-21.33 0,-32 10.67,0 21.33,0 32,0 0,10.67 0,21.33 0,32 -10.67,0 -21.33,0 -32,0 z m 3344,225 c 10.67,0 21.33,0 32,0 0,-10.67 0,-21.33 0,-32 0,10.67 0,21.33 0,32 -10.67,0 -21.33,0 -32,0 z m -6881,708 c 0,-10.67 0,-21.33 0,-32 0,21.33 0,42.67 0,64 0,-10.67 0,-21.33 0,-32 z m 354,64 c 10.67,0 21.33,0 32,0 0,10.67 0,21.33 0,32 -10.67,0 -21.33,0 -32,0 0,10.67 0,21.33 0,32 -21.33,11 -42.67,22 -64,33 -11,10.67 -22,21.33 -33,32 -21.33,0 -42.67,0 -64,0 21.33,-10.67 42.67,-21.33 64,-32 21.67,-21.67 43.33,-43.33 65,-65 10.67,0 21.33,0 32,0 0,-10.67 0,-21.33 0,-32 z m -129,-643 c 0,-10.67 0,-21.33 0,-32 10.67,0 21.33,0 32,0 0,-10.67 0,-21.33 0,-32 11,0 22,0 33,0 -11,10.67 -22,21.33 -33,32 0,10.67 0,21.33 0,32 -10.67,0 -21.33,0 -32,0 z m 5209,0 c 0,-10.67 0,-21.33 0,-32 0,10.67 0,21.33 0,32 z m -5048,611 c 0,-10.67 0,-21.33 0,-32 10.67,0 21.33,0 32,0 0,10.67 0,21.33 0,32 -10.67,0 -21.33,0 -32,0 z m 6752,-643 c 10.67,0 21.33,0 32,0 0,10.67 0,21.33 0,32 0,-10.67 0,-21.33 0,-32 -10.67,0 -21.33,0 -32,0 z m -3601,-386 c 10.67,0 21.33,0 32,0 -10.67,0 -21.33,0 -32,0 z m -1029,289 c 0,-10.67 0,-21.33 0,-32 10.67,10.67 21.33,21.33 32,32 -10.67,0 -21.33,0 -32,0 z m 4405,129 c 10.67,0 21.33,0 32,0 0,10.67 0,21.33 0,32 -10.67,0 -21.33,0 -32,0 0,-10.67 0,-21.33 0,-32 z m -6848,32 c 0,-10.67 0,-21.33 0,-32 10.67,0 21.33,0 32,0 0,10.67 0,21.33 0,32 0,-10.67 0,-21.33 0,-32 0,10.67 0,21.33 0,32 -10.67,0 -21.33,0 -32,0 z m 7266,-1479 c 0,-32 0,-64 0,-96 10.67,0 21.33,0 32,0 -10.67,10.67 -21.33,21.33 -32,32 10.67,10.67 21.33,21.33 32,32 -10.67,10.67 -21.33,21.33 -32,32 z m -7491,1897 c 10.67,-10.67 21.33,-21.33 32,-32 10.67,10.67 21.33,21.33 32,32 -21.33,21.67 -42.67,43.33 -64,65 0,-21.67 0,-43.33 0,-65 z m 3022,-739 c 10.67,-10.67 21.33,-21.33 32,-32 21.33,-11 42.67,-22 64,-33 11,21.67 22,43.33 33,65 -21.67,10.67 -43.33,21.33 -65,32 0,-10.67 0,-21.33 0,-32 -10.67,10.67 -21.33,21.33 -32,32 -10.67,-10.67 -21.33,-21.33 -32,-32 z m 547,0 c 0,-10.67 0,-21.33 0,-32 11.48,-11.79 22.87,-23.68 34.41,-35.41 9.87,-9.87 19.73,-19.73 29.59,-29.59 10.67,0 21.33,0 32,0 0,10.67 0,21.33 0,32 -10.67,11 -21.33,22 -32,33 -10.67,21.33 -21.33,42.67 -32,64 -10.67,-10.67 -21.33,-21.33 -32,-32 z m 3311,-708 c 0,21.67 0,43.33 0,65 10.67,-11 21.33,-22 32,-33 0,-10.67 0,-21.33 0,-32 -10.67,0 -21.33,0 -32,0 z m -4791,1672 c -10.67,0 -21.33,0 -32,0 10.67,-10.67 21.33,-21.33 32,-32 -10.67,-10.67 -21.33,-21.33 -32,-32 -21.33,10.67 -42.67,21.33 -64,32 10.67,-21.33 21.33,-42.67 32,-64 -10.67,-10.67 -21.33,-21.33 -32,-32 -53.67,0 -107.33,0 -161,0 -21.33,10.67 -42.67,21.33 -64,32 10.67,10.67 21.33,21.33 32,32 -32,32 -64,64 -96,96 0,21.67 0,43.33 0,65 -21.67,0 -43.33,0 -65,0 11,-10.67 22,-21.33 33,-32 -21.67,0 -43.33,0 -65,0 0,-11 0,-22 0,-33 10.67,-10.67 21.33,-21.33 32,-32 11,-21.33 22,-42.67 33,-64 0,-10.67 0,-21.33 0,-32 -11,-10.67 -22,-21.33 -33,-32 -21.33,21.33 -42.67,42.67 -64,64 0,-21.33 0,-42.67 0,-64 -21.33,10.67 -42.67,21.33 -64,32 -10.67,-10.67 -21.33,-21.33 -32,-32 0,-10.67 0,-21.33 0,-32 21.33,-11 42.67,-22 64,-33 10.67,0 21.33,0 32,0 10.67,-10.67 21.33,-21.33 32,-32 10.67,0 21.33,0 32,0 11,-10.67 22,-21.33 33,-32 21.33,0 42.67,0 64,0 10.67,-10.67 21.33,-21.33 32,-32 -10.67,-10.67 -21.33,-21.33 -32,-32 10.67,-10.67 21.33,-21.33 32,-32 10.67,10.67 21.33,21.33 32,32 0,-21.67 0,-43.33 0,-65 32.33,-21.33 64.67,-42.67 97,-64 -11,32.33 -22,64.67 -33,97 11,0 22,0 33,0 0,10.67 0,21.33 0,32 10.67,0 21.33,0 32,0 10.67,-21.67 21.33,-43.33 32,-65 10.67,0 21.33,0 32,0 -10.67,-10.67 -21.33,-21.33 -32,-32 32,0 64,0 96,0 0,-10.67 0,-21.33 0,-32 10.67,0 21.33,0 32,0 0,-21.33 0,-42.67 0,-64 -10.67,0 -21.33,0 -32,0 32.33,-10.67 64.67,-21.33 97,-32 0,-10.67 0,-21.33 0,-32 10.67,0 21.33,0 32,0 0,10.67 0,21.33 0,32 32,0 64,0 96,0 0,10.67 0,21.33 0,32 21.67,0 43.33,0 65,0 0,10.67 0,21.33 0,32 10.67,0 21.33,0 32,0 -43,0 -86,0 -129,0 0,10.67 0,21.33 0,32 10.67,0 21.33,0 32,0 11,-10.67 22,-21.33 33,-32 0,21.33 0,42.67 0,64 53.33,0 106.67,0 160,0 0,32.33 0,64.67 0,97 21.67,0 43.33,0 65,0 0,-10.67 0,-21.33 0,-32 10.67,0 21.33,0 32,0 0,-11 0,-22 0,-33 32,-10.67 64,-21.33 96,-32 10.67,10.67 21.33,21.33 32,32 -10.67,11 -21.33,22 -32,33 -21.33,10.67 -42.67,21.33 -64,32 10.67,10.67 21.33,21.33 32,32 -10.67,21.33 -21.33,42.67 -32,64 21.33,0 42.67,0 64,0 21.67,-21.33 43.33,-42.67 65,-64 0,10.67 0,21.33 0,32 10.67,21.33 21.33,42.67 32,64 32,0 64,0 96,0 -10.67,21.67 -21.33,43.33 -32,65 -21.33,0 -42.67,0 -64,0 -10.67,10.67 -21.33,21.33 -32,32 -21.67,0 -43.33,0 -65,0 10.67,-10.67 21.33,-21.33 32,-32 -11.45,-11.49 -22.99,-22.9 -34.38,-34.45 -9.87,-10.18 -19.75,-20.37 -29.62,-30.55 -32,11 -64,22 -96,33 -21.67,21.33 -43.33,42.67 -65,64 -10.67,-10.67 -21.33,-21.33 -32,-32 -10.67,0 -21.33,0 -32,0 -10.67,21.33 -21.33,42.67 -32,64 10.67,0 21.33,0 32,0 0,10.67 0,21.33 0,32 -21.33,10.67 -42.67,21.33 -64,32 0,-10.67 0,-21.33 0,-32 -10.67,-10.67 -21.33,-21.33 -32,-32 -32.33,10.67 -64.67,21.33 -97,32 -32,0 -64,0 -96,0 -11,10.67 -22,21.33 -33,32 z"
         style="fill:#999999;fill-opacity:1;stroke:#ffffff;stroke-width:282.23678589;stroke-miterlimit:4;stroke-dasharray:none;stroke-opacity:1" />
    </g>
  </g>
</svg>
