<?xml version="1.0" encoding="UTF-8" standalone="no"?>
<!-- Created with Inkscape (http://www.inkscape.org/) -->

<svg
   xmlns:dc="http://purl.org/dc/elements/1.1/"
   xmlns:cc="http://creativecommons.org/ns#"
   xmlns:rdf="http://www.w3.org/1999/02/22-rdf-syntax-ns#"
   xmlns:svg="http://www.w3.org/2000/svg"
   xmlns="http://www.w3.org/2000/svg"
   xmlns:sodipodi="http://sodipodi.sourceforge.net/DTD/sodipodi-0.dtd"
   xmlns:inkscape="http://www.inkscape.org/namespaces/inkscape"
   width="17.387327mm"
   height="10.857908mm"
   viewBox="0 0 17.387327 10.857908"
   version="1.1"
   id="svg301"
   inkscape:version="0.92.5 (2060ec1f9f, 2020-04-08)"
   sodipodi:docname="rn.svg">
  <defs
     id="defs295" />
  <sodipodi:namedview
     id="base"
     pagecolor="#ffffff"
     bordercolor="#666666"
     borderopacity="1.0"
     inkscape:pageopacity="0.0"
     inkscape:pageshadow="2"
     inkscape:zoom="0.35"
     inkscape:cx="-627.14206"
     inkscape:cy="-230.90969"
     inkscape:document-units="mm"
     inkscape:current-layer="layer1"
     showgrid="false"
     inkscape:window-width="1366"
     inkscape:window-height="704"
     inkscape:window-x="0"
     inkscape:window-y="0"
     inkscape:window-maximized="1" />
  <metadata
     id="metadata298">
    <rdf:RDF>
      <cc:Work
         rdf:about="">
        <dc:format>image/svg+xml</dc:format>
        <dc:type
           rdf:resource="http://purl.org/dc/dcmitype/StillImage" />
        <dc:title></dc:title>
      </cc:Work>
    </rdf:RDF>
  </metadata>
  <g
     inkscape:label="Layer 1"
     inkscape:groupmode="layer"
     id="layer1"
     transform="translate(-238.50276,-76.880569)">
    <g
       transform="matrix(9.9994773e-4,0,0,9.9994773e-4,65.23196,26.123581)"
       id="Fernando_de_Noronha">
      <path
         inkscape:connector-curvature="0"
         style="fill:#999999;stroke:#ffffff;stroke-width:282.23678589;stroke-miterlimit:4;stroke-dasharray:none;stroke-opacity:1"
         d="m 173454,58068 c 0,-10.667 0,-21.333 0,-32 21.33,-10.669 42.67,-21.331 64,-32 10.67,-10.664 21.33,-21.336 32,-32 10.67,-32.332 21.33,-64.668 32,-97 21.67,10.998 43.33,22.002 65,33 10.67,-21.665 21.33,-43.335 32,-65 10.67,-10.664 21.33,-21.336 32,-32 0,-10.667 0,-21.333 0,-32 -10.67,-10.664 -21.33,-21.336 -32,-32 0,-32.333 0,-64.667 0,-97 42.67,-10.665 85.33,-21.335 128,-32 0,-21.333 0,-42.667 0,-64 43,-43 86,-86 129,-129 0,-10.667 0,-21.333 0,-32 10.68,-21.381 21.4,-42.742 32.05,-64.138 10.65,-32.286 21.3,-64.575 31.95,-96.862 10.67,0 21.33,0 32,0 21.67,-21.33 43.33,-42.67 65,-64 -10.67,-21.332 -21.33,-42.668 -32,-64 21.33,-10.669 42.67,-21.331 64,-32 32,-32.333 64,-64.667 96,-97 10.67,0 21.33,0 32,0 11,-10.667 22,-21.333 33,-32 10.67,10.664 21.33,21.336 32,32 10.67,-10.664 21.33,-21.336 32,-32 0,21.333 0,42.667 0,64 10.67,0 21.33,0 32,0 0,10.667 0,21.333 0,32 10.67,21.665 21.33,43.335 32,65 10.67,10.664 21.33,21.336 32,32 32.33,-21.336 64.67,-42.664 97,-64 0,-21.667 0,-43.333 0,-65 10.67,21.665 21.33,43.335 32,65 32.33,0 64.67,0 97,0 21.33,10.669 42.67,21.331 64,32 21.33,-21.669 42.67,-43.331 64,-65 21.33,0 42.67,0 64,0 0,-10.667 0,-21.333 0,-32 21.67,-21.33 43.33,-42.67 65,-64 10.67,0 21.33,0 32,0 10.67,-10.664 21.33,-21.336 32,-32 0,-53.667 0,-107.333 0,-161 10.67,-21.332 21.33,-42.668 32,-64 64.33,-53.67 128.67,-107.33 193,-161 21.33,-10.669 42.67,-21.331 64,-32 11,-10.667 22,-21.333 33,-32 10.67,0 21.33,0 32,0 21.33,-10.669 42.67,-21.331 64,-32 0,-32.333 0,-64.667 0,-97 21.33,-21.336 42.67,-42.664 64,-64 10.67,-21.665 21.33,-43.335 32,-65 21.67,-21.33 43.33,-42.67 65,-64 21.33,-64.334 42.67,-128.666 64,-193 -10.67,-21.332 -21.33,-42.668 -32,-64 21.33,-21.336 42.67,-42.664 64,-64 0,-11 0,-22 0,-33 53.67,-53.33 107.33,-106.67 161,-160 29.83,-59.971 59.36,-120.094 89.62,-179.846 13.13,-26.051 26.26,-52.102 39.38,-78.154 -21.67,0 -43.33,0 -65,0 0,-10.667 0,-21.333 0,-32 -21.33,0 -42.67,0 -64,0 -21.33,10.669 -42.67,21.331 -64,32 0,-21.333 0,-42.667 0,-64 10.67,-31.999 21.33,-64.001 32,-96 0,-43 0,-86 0,-129 42.67,-42.664 85.33,-85.336 128,-128 32.33,-11.002 64.67,-21.998 97,-33 32,-64.333 64,-128.667 96,-193 21.67,-21.33 43.33,-42.67 65,-64 0,-21.333 0,-42.667 0,-64 10.67,-10.664 21.33,-21.336 32,-32 0,-11 0,-22 0,-33 53.71,-32.02 107.41,-64.062 161.13,-96.065 21.29,-10.639 42.58,-21.29 63.87,-31.935 21.33,-43.002 42.67,-85.998 64,-129 21.67,0 43.33,0 65,0 21.33,-10.669 42.67,-21.331 64,-32 10.67,-21.332 21.33,-42.668 32,-64 10.67,-10.664 21.33,-21.336 32,-32 10.67,-53.666 21.33,-107.334 32,-161 0,-21.333 0,-42.667 0,-64 32.33,-43.002 64.67,-85.998 97,-129 10.67,-21.332 21.33,-42.668 32,-64 -10.67,-32.332 -21.33,-64.668 -32,-97 10.67,-10.664 21.33,-21.336 32,-32 0,-10.667 0,-21.333 0,-32 10.67,-32.332 21.33,-64.668 32,-97 21.33,-10.669 42.67,-21.331 64,-32 43,-32 86,-64 129,-96 23.13,-23.227 46.46,-46.252 69.45,-69.613 8.84,-9.132 17.7,-18.256 26.55,-27.387 11,0 22,0 33,0 0,-10.667 0,-21.333 0,-32 -11,-21.333 -22,-42.667 -33,-64 0,-21.333 0,-42.667 0,-64 11,-32.333 22,-64.667 33,-97 0,-21.333 0,-42.667 0,-64 -11,-10.667 -22,-21.333 -33,-32 0,-21.667 0,-43.333 0,-65 21.67,-31.998 43.33,-64.002 65,-96 10.67,-85.666 21.33,-171.334 32,-257 53.67,-53.664 107.33,-107.336 161,-161 10.67,-42.999 21.33,-86.001 32,-129 21.33,-21.336 42.67,-42.664 64,-64 53.67,-21.331 107.33,-42.669 161,-64 32,-86 64,-172 96,-258 10.67,-53.333 21.33,-106.667 32,-160 21.67,-64.332 43.33,-128.668 65,-193 268.25,-64.439 536.54,-128.703 804.75,-193.25 31.8,-10.587 63.59,-21.216 95.39,-31.781 198.26,-42.653 396.44,-85.687 594.79,-127.889 101.69,-21.694 203.38,-43.386 305.07,-65.08 11,-10.667 22,-21.333 33,-32 10.72,21.415 21.39,42.854 32.15,64.249 31.94,53.587 63.9,107.167 95.85,160.751 64.33,64.336 128.67,128.664 193,193 32,21.333 64,42.667 96,64 11,0 22,0 33,0 32,10.667 64,21.333 96,32 37.05,-18.546 74.1,-37.101 111.32,-55.299 5.89,-2.9 11.79,-5.8 17.68,-8.701 21.33,0 42.67,0 64,0 60.61,30.418 121.41,60.466 182.15,90.626 24.97,12.424 49.91,24.891 74.85,37.374 37.55,-18.466 75.11,-36.922 112.48,-55.744 26.84,-13.421 53.68,-26.836 80.52,-40.256 43,0 86,0 129,0 21.33,-21.336 42.67,-42.664 64,-64 64.33,42.669 128.67,85.331 193,128 32.33,10.669 64.67,21.331 97,32 32,0 64,0 96,0 32,32.333 64,64.667 96,97 32.33,42.669 64.67,85.331 97,128 64.33,64.336 128.67,128.664 193,193 53.67,21.665 107.33,43.335 161,65 32,21.333 64,42.667 96,64 21.33,-10.669 42.67,-21.331 64,-32 -10.67,10.664 -21.33,21.336 -32,32 21.67,21.33 43.33,42.67 65,64 21.33,-21.336 42.67,-42.664 64,-64 10.67,0 21.33,0 32,0 0,32 0,64 0,96 21.33,11.002 42.67,21.998 64,33 32.33,-11.002 64.67,-21.998 97,-33 64.33,11.002 128.67,21.998 193,33 10.67,-21.665 21.33,-43.335 32,-65 21.33,10.669 42.67,21.331 64,32 10.67,-10.664 21.33,-21.336 32,-32 21.67,0 43.33,0 65,0 42.67,10.665 85.33,21.335 128,32 10.67,-10.664 21.33,-21.336 32,-32 43,0 86,0 129,0 32,-21.333 64,-42.667 96,-64 32.38,0.01 64.76,-0.03 97.14,0.02 75.41,10.779 150.86,21.351 226.26,32.257 53.2,10.576 106.4,21.149 159.6,31.723 53.33,21.669 106.67,43.331 160,65 32.33,0 64.67,0 97,0 10.67,-10.997 21.33,-22.003 32,-33 21.38,11.01 42.74,22.071 64.14,33.045 32.29,10.647 64.57,21.305 96.86,31.955 0,10.667 0,21.333 0,32 32,-21.333 64,-42.667 96,-64 21.67,0 43.33,0 65,0 53.33,10.669 106.67,21.331 160,32 139.33,0 278.67,0 418,0 43,-10.667 86,-21.333 129,-32 43.04,-21.697 86.1,-43.353 129.12,-65.08 31.96,-21.313 63.92,-42.613 95.88,-63.92 32.33,0 64.67,0 97,0 32,-21.333 64,-42.667 96,-64 43,0 86,0 129,0 10.67,-10.997 21.33,-22.003 32,-33 85.67,0 171.33,0 257,0 64.33,21.669 128.67,43.331 193,65 42.67,21.331 85.33,42.669 128,64 43,0 86,0 129,0 43,10.667 86,21.333 129,32 42.67,-10.665 85.33,-21.335 128,-32 10.67,10.664 21.33,21.336 32,32 11,0 22,0 33,0 31.79,15.936 63.71,31.64 95.23,48.106 10.93,5.631 21.85,11.264 32.77,16.894 64.33,10.669 128.67,21.331 193,32 10.67,10.664 21.33,21.336 32,32 21.67,0 43.33,0 65,0 85.67,21.331 171.33,42.669 257,64 10.67,10.664 21.33,21.336 32,32 10.67,-10.664 21.33,-21.336 32,-32 21.33,0 42.67,0 64,0 0,-10.667 0,-21.333 0,-32 75.33,43.002 150.67,85.998 226,129 53.33,10.669 106.67,21.331 160,32 43,21.333 86,42.667 129,64 32,0 64,0 96,0 32.33,43.002 64.67,85.998 97,129 10.67,21.332 21.33,42.668 32,64 21.33,10.669 42.67,21.331 64,32 43,32.333 86,64.667 129,97 43,53.333 86,106.667 129,160 10.67,21.665 21.33,43.335 32,65 10.67,10.664 21.33,21.336 32,32 10.67,32.049 21.38,64.085 32.03,96.141 21.33,85.952 42.65,171.905 63.97,257.859 10.67,21.332 21.33,42.668 32,64 21.67,21.33 43.33,42.67 65,64 21.33,10.669 42.67,21.331 64,32 21.33,21.669 42.67,43.331 64,65 0,21.333 0,42.667 0,64 21.67,31.998 43.33,64.002 65,96 10.67,0 21.33,0 32,0 0,53.667 0,107.333 0,161 24.66,24.524 49.09,49.27 73.44,74.097 18.07,18.412 36.28,36.692 54.56,54.903 0,-10.667 0,-21.333 0,-32 0,32 0,64 0,96 11,21.333 22,42.667 33,64 0,11 0,22 0,33 10.67,10.664 21.33,21.336 32,32 0,32 0,64 0,96 10.68,21.381 21.4,42.742 32.05,64.138 10.65,32.286 21.3,64.575 31.95,96.862 10.67,0 21.33,0 32,0 0,53.667 0,107.333 0,161 10.67,31.999 21.33,64.001 32,96 10.67,0 21.33,0 32,0 0,75 0,150 0,225 11,21.667 22,43.333 33,65 21.33,0 42.67,0 64,0 0,10.714 0,21.429 0,32.143 -10.66,74.952 -21.32,149.905 -31.98,224.857 0,21.333 0,42.667 0,64 10.67,10.664 21.33,21.336 32,32 0,32.333 0,64.667 0,97 10.67,21.332 21.33,42.668 32,64 10.67,0 21.33,0 32,0 0,118 0,236 0,354 10.67,21.332 21.33,42.668 32,64 11,10.667 22,21.333 33,32 10.67,-10.664 21.33,-21.336 32,-32 10.67,0 21.33,0 32,0 0,96.333 0,192.667 0,289 10.67,42.999 21.33,86.001 32,129 32.33,0 64.67,0 97,0 10.67,31.999 21.33,64.001 32,96 10.67,0 21.33,0 32,0 0,11 0,22 0,33 10.67,21.332 21.33,42.668 32,64 -10.67,42.999 -21.33,86.001 -32,129 10.67,31.999 21.33,64.001 32,96 0,10.667 0,21.333 0,32 10.67,0 21.33,0 32,0 0,128.667 0,257.333 0,386 10.67,75 21.33,150 32,225 0,-10.667 0,-21.333 0,-32 10.67,10.664 21.33,21.336 32,32 0,10.667 0,21.333 0,32 11.03,32.373 22.01,64.764 33.06,97.13 10.65,21.29 21.29,42.582 31.94,63.87 10.67,0 21.33,0 32,0 10.67,10.664 21.33,21.336 32,32 32,0 64,0 96,0 0,10.762 0,21.525 0,32.287 10.96,85.907 21.97,171.809 32.96,257.713 0,32 0,64 0,96 -11,10.667 -22,21.333 -33,32 11.12,43.289 22.07,86.624 33.29,129.884 10.58,31.703 21.14,63.411 31.71,95.116 10.67,10.664 21.33,21.336 32,32 32,0 64,0 96,0 11,10.667 22,21.333 33,32 10.69,43.044 21.34,86.099 32.05,129.138 21.31,64.289 42.63,128.576 63.95,192.862 0,75 0,150 0,225 -10.67,10.664 -21.33,21.336 -32,32 -21.38,10.678 -42.74,21.403 -64.14,32.047 -32.29,10.985 -64.57,21.971 -96.86,32.953 -21.33,0 -42.67,0 -64,0 -21.67,21.33 -43.33,42.67 -65,64 -32,10.667 -64,21.333 -96,32 -10.67,0 -21.33,0 -32,0 -43,-43 -86,-86 -129,-129 -10.67,0 -21.33,0 -32,0 -10.67,10.997 -21.33,22.003 -32,33 -10.67,0 -21.33,0 -32,0 -10.67,42.666 -21.33,85.334 -32,128 -21.67,0 -43.33,0 -65,0 -21.33,32.335 -42.67,64.665 -64,97 -10.67,0 -21.33,0 -32,0 -21.33,10.669 -42.67,21.331 -64,32 -43,-10.667 -86,-21.333 -129,-32 -10.67,0 -21.33,0 -32,0 -10.74,-21.975 -21.75,-43.825 -32.31,-65.884 -10.89,-31.708 -21.79,-63.411 -32.69,-95.116 -10.67,0 -21.33,0 -32,0 -10.67,21.332 -21.33,42.668 -32,64 -42.67,0 -85.33,0 -128,0 -32.33,21.336 -64.67,42.664 -97,64 -85.67,0 -171.33,0 -257,0 -21.33,-10.669 -42.67,-21.331 -64,-32 -32.33,-42.669 -64.67,-85.331 -97,-128 -21.37,-10.699 -42.76,-21.354 -64.12,-32.081 -32.29,-21.644 -64.59,-43.277 -96.88,-64.919 -10.67,0 -21.33,0 -32,0 -32,-10.667 -64,-21.333 -96,-32 -21.67,0 -43.33,0 -65,0 0,-10.667 0,-21.333 0,-32 -10.67,10.664 -21.33,21.336 -32,32 -21.33,-10.669 -42.67,-21.331 -64,-32 -10.67,0 -21.33,0 -32,0 -10.67,10.664 -21.33,21.336 -32,32 -21.67,0 -43.33,0 -65,0 -10.67,-10.664 -21.33,-21.336 -32,-32 0,10.667 0,21.333 0,32 -10.67,-10.664 -21.33,-21.336 -32,-32 -32,0 -64,0 -96,0 -11,-10.667 -22,-21.333 -33,-32 0,10.667 0,21.333 0,32 -32,0 -64,0 -96,0 -10.67,21.332 -21.33,42.668 -32,64 -10.67,0 -21.33,0 -32,0 0,-10.667 0,-21.333 0,-32 -32.33,0 -64.67,0 -97,0 -10.67,-10.664 -21.33,-21.336 -32,-32 0,-10.667 0,-21.333 0,-32 -21.33,-21.336 -42.67,-42.664 -64,-64 -32.33,0 -64.67,0 -97,0 -21.38,-11.011 -42.74,-22.071 -64.14,-33.046 -31.95,-10.651 -63.91,-21.301 -95.86,-31.954 -11,0 -22,0 -33,0 0,10.667 0,21.333 0,32 -10.67,0 -21.33,0 -32,0 -21.33,-10.669 -42.67,-21.331 -64,-32 -43,43 -86,86 -129,129 -21.38,0.01 -42.76,-0.03 -64.14,0.02 -74.95,10.661 -149.91,21.32 -224.86,31.98 -10.67,10.664 -21.33,21.336 -32,32 -118.05,0 -236.09,-0.01 -354.14,0.01 -139.29,10.661 -278.57,21.326 -417.86,31.989 -32,-10.667 -64,-21.333 -96,-32 -21.67,0 -43.33,0 -65,0 -42.67,-10.665 -85.33,-21.335 -128,-32 -10.67,-10.664 -21.33,-21.336 -32,-32 0,-32.333 0,-64.667 0,-97 -43,-10.667 -86,-21.333 -129,-32 -21.33,-21.336 -42.67,-42.664 -64,-64 -21.67,-42.998 -43.33,-86.002 -65,-129 0,10.667 0,21.333 0,32 -10.67,0 -21.33,0 -32,0 0,-10.667 0,-21.333 0,-32 -10.67,0 -21.33,0 -32,0 -10.67,10.664 -21.33,21.336 -32,32 -21.33,11.002 -42.67,21.998 -64,33 -11,0 -22,0 -33,0 -10.67,10.664 -21.33,21.336 -32,32 -53.33,0 -106.67,0 -160,0 -43,10.667 -86,21.333 -129,32 -75,0 -150,0 -225,0 -43,10.667 -86,21.333 -129,32 -10.67,-53.666 -21.33,-107.334 -32,-161 -21.38,-10.677 -42.74,-21.402 -64.14,-32.045 -32.29,-10.647 -64.57,-21.305 -96.86,-31.955 -10.67,0 -21.33,0 -32,0 0,-43 0,-86 0,-129 21.33,-32.002 42.67,-63.998 64,-96 0,-64.333 0,-128.667 0,-193 -31.7,-31.748 -63.56,-63.337 -94.93,-95.414 -11.02,-11.196 -22.05,-22.39 -33.07,-33.586 -53.67,32.331 -107.33,64.669 -161,97 -32,10.667 -64,21.333 -96,32 -53.67,-21.331 -107.33,-42.669 -161,-64 -53.67,106.998 -107.33,214.002 -161,321 -43,0 -86,0 -129,0 -64,-10.667 -128,-21.333 -192,-32 -11,53.667 -22,107.333 -33,161 0,21.333 0,42.667 0,64 -32.02,53.71 -64.06,107.408 -96.06,161.13 -10.65,21.29 -21.29,42.582 -31.94,63.87 0,21.667 0,43.333 0,65 10.67,31.999 21.33,64.001 32,96 0,32 0,64 0,96 10.67,0 21.33,0 32,0 32.38,21.683 64.73,43.41 97.13,65.065 21.29,10.639 42.58,21.29 63.87,31.935 10.67,31.999 21.33,64.001 32,96 10.67,10.664 21.33,21.336 32,32 21.33,11.002 42.67,21.998 64,33 11,0 22,0 33,0 10.67,10.664 21.33,21.336 32,32 0,64.333 0,128.667 0,193 10.67,42.666 21.33,85.334 32,128 0,10.667 0,21.333 0,32 -21.33,-10.669 -42.67,-21.331 -64,-32 -11,10.667 -22,21.333 -33,32 -21.33,-32.002 -42.67,-63.998 -64,-96 -53.67,-21.331 -107.33,-42.669 -161,-64 -10.67,-10.664 -21.33,-21.336 -32,-32 -21.33,10.669 -42.67,21.331 -64,32 10.67,21.332 21.33,42.668 32,64 -32,64.333 -64,128.667 -96,193 -10.67,75 -21.33,150 -32,225 -21.67,21.33 -43.33,42.67 -65,64 21.67,32.331 43.33,64.669 65,97 21.33,10.669 42.67,21.331 64,32 10.67,0 21.33,0 32,0 0,10.667 0,21.333 0,32 10.67,0 21.33,0 32,0 21.33,21.336 42.67,42.664 64,64 11,32.333 22,64.667 33,97 -11,64.333 -22,128.667 -33,193 -10.67,10.664 -21.33,21.336 -32,32 -32,10.667 -64,21.333 -96,32 -21.33,21.336 -42.67,42.664 -64,64 -21.67,0 -43.33,0 -65,0 -17.47,18.032 -34.88,36.128 -52.76,53.761 -3.75,3.746 -7.49,7.494 -11.24,11.239 10.67,21.332 21.33,42.668 32,64 0,10.667 0,21.333 0,32 -64.33,96.335 -128.67,192.665 -193,289 -43,0 -86,0 -129,0 -32,-10.667 -64,-21.333 -96,-32 -53.67,0 -107.33,0 -161,0 -32,86 -64,172 -96,258 -10.67,0 -21.33,0 -32,0 -43,-21.667 -86,-43.333 -129,-65 -32,-53.667 -64,-107.333 -96,-161 10.67,-31.999 21.33,-64.001 32,-96 0,-21.333 0,-42.667 0,-64 21.33,-32.335 42.67,-64.665 64,-97 21.33,-75.001 42.67,-149.999 64,-225 -64.33,10.669 -128.67,21.331 -193,32 0,-85.667 0,-171.333 0,-257 -107,-96.333 -214,-192.667 -321,-289 -107.33,42.669 -214.67,85.331 -322,128 -10.67,0 -21.33,0 -32,0 -42.67,21.665 -85.33,43.335 -128,65 -32.33,32.003 -64.67,63.997 -97,96 0,-10.667 0,-21.333 0,-32 10.67,-10.664 21.33,-21.336 32,-32 -21.33,0 -42.67,0 -64,0 0,-10.667 0,-21.333 0,-32 -10.67,-21.665 -21.33,-43.335 -32,-65 0,-21.333 0,-42.667 0,-64 -10.67,-31.999 -21.33,-64.001 -32,-96 -11,-21.667 -22,-43.333 -33,-65 -21.33,0 -42.67,0 -64,0 -53.67,42.997 -107.33,86.003 -161,129 -10.67,10.664 -21.33,21.336 -32,32 -32.04,10.695 -64.1,21.339 -96.13,32.065 -21.29,10.639 -42.58,21.29 -63.87,31.935 -75.33,21.669 -150.67,43.331 -226,65 -10.67,0 -21.33,0 -32,0 -32,42.667 -64,85.333 -96,128 -64.33,43.003 -128.67,85.997 -193,129 -64.33,0 -128.67,0 -193,0 -32,-21.333 -64,-42.667 -96,-64 0,-21.667 0,-43.333 0,-65 -11,-10.667 -22,-21.333 -33,-32 0,-10.667 0,-21.333 0,-32 -21.33,-21.336 -42.67,-42.664 -64,-64 10.67,-21.665 21.33,-43.335 32,-65 0,-42.667 0,-85.333 0,-128 -21.33,-10.669 -42.67,-21.331 -64,-32 -21.33,-21.669 -42.67,-43.331 -64,-65 10.67,-21.332 21.33,-42.668 32,-64 -43,-10.667 -86,-21.333 -129,-32 -42.67,21.331 -85.33,42.669 -128,64 -86,-10.667 -172,-21.333 -258,-32 -21.38,0.02 -42.76,-0.03 -64.14,0.03 -117.95,21.322 -235.91,42.647 -353.86,63.974 21.67,-53.332 43.33,-106.668 65,-160 -11,-11 -22,-22 -33,-33 11,-21.333 22,-42.667 33,-64 -11,-21.333 -22,-42.667 -33,-64 0,-64.333 0,-128.667 0,-193 -10.67,0 -21.33,0 -32,0 0,-21.333 0,-42.667 0,-64 10.67,-42.999 21.33,-86.001 32,-129 -10.67,-10.664 -21.33,-21.336 -32,-32 0,-10.667 0,-21.333 0,-32 21.67,-32.331 43.33,-64.669 65,-97 85.67,0 171.33,0 257,0 32,-32 64,-64 96,-96 10.67,-96.666 21.33,-193.334 32,-290 11,-32 22,-64 33,-96 -11,-10.667 -22,-21.333 -33,-32 -10.67,-21.665 -21.33,-43.335 -32,-65 0,-21.333 0,-42.667 0,-64 10.67,-10.664 21.33,-21.336 32,-32 0,-21.333 0,-42.667 0,-64 21.67,-21.664 43.33,-43.336 65,-65 0,-42.667 0,-85.333 0,-128 10.67,-32.332 21.33,-64.668 32,-97 10.67,0 21.33,0 32,0 43,-21.333 86,-42.667 129,-64 10.67,-10.664 21.33,-21.336 32,-32 10.67,-32.332 21.33,-64.668 32,-97 21.33,-10.669 42.67,-21.331 64,-32 32.33,10.669 64.67,21.331 97,32 21.33,0 42.67,0 64,0 0,-53.333 0,-106.667 0,-160 53.67,-53.664 107.33,-107.336 161,-161 10.67,0 21.33,0 32,0 10.67,-10.664 21.33,-21.336 32,-32 32.37,-11.03 64.77,-22.005 97.13,-33.065 21.29,-10.639 42.58,-21.29 63.87,-31.935 0,-21.333 0,-42.667 0,-64 32,-10.667 64,-21.333 96,-32 10.67,-10.664 21.33,-21.336 32,-32 11,-32.333 22,-64.667 33,-97 -11,0 -22,0 -33,0 -21.33,-10.669 -42.67,-21.331 -64,-32 21.33,-53.668 42.67,-107.332 64,-161 -10.67,-21.332 -21.33,-42.668 -32,-64 0,-21.333 0,-42.667 0,-64 -10.67,-53.666 -21.33,-107.334 -32,-161 10.67,-10.664 21.33,-21.336 32,-32 -32,0 -64,0 -96,0 -21.33,-10.669 -42.67,-21.331 -64,-32 -32.33,10.669 -64.67,21.331 -97,32 -10.67,-21.332 -21.33,-42.668 -32,-64 -21.33,-11.002 -42.67,-21.998 -64,-33 -10.67,0 -21.33,0 -32,0 -11,11 -22,22 -33,33 -21.33,42.668 -42.67,85.332 -64,128 -21.33,0 -42.67,0 -64,0 -21.67,-10.665 -43.33,-21.335 -65,-32 -10.67,10.664 -21.33,21.336 -32,32 -42.67,10.665 -85.33,21.335 -128,32 -32.33,32.336 -64.67,64.664 -97,97 -42.67,0 -85.33,0 -128,0 -21.67,42.665 -43.33,85.335 -65,128 -85.67,0 -171.33,0 -257,0 -10.67,10.997 -21.33,22.003 -32,33 0,42.667 0,85.333 0,128 -43,10.667 -86,21.333 -129,32 -10.67,-10.664 -21.33,-21.336 -32,-32 -21.33,0 -42.67,0 -64,0 0,10.667 0,21.333 0,32 -53.67,0 -107.33,0 -161,0 0,21.667 0,43.333 0,65 -32,0 -64,0 -96,0 -21.67,-10.998 -43.33,-22.002 -65,-33 -21.33,11.002 -42.67,21.998 -64,33 -21.33,21.336 -42.67,42.664 -64,64 -64.33,0 -128.67,0 -193,0 -10.67,21.332 -21.33,42.668 -32,64 -53.67,0 -107.33,0 -161,0 -32.33,-10.669 -64.67,-21.331 -97,-32 -10.67,-10.664 -21.33,-21.336 -32,-32 -10.67,0 -21.33,0 -32,0 -53.67,31.998 -107.33,64.002 -161,96 -10.67,10.664 -21.33,21.336 -32,32 0,21.667 0,43.333 0,65 -10.67,0 -21.33,0 -32,0 -21.33,21.336 -42.67,42.664 -64,64 21.33,10.669 42.67,21.331 64,32 -21.33,10.669 -42.67,21.331 -64,32 21.33,21.669 42.67,43.331 64,65 -10.67,10.664 -21.33,21.336 -32,32 0,21.333 0,42.667 0,64 10.67,21.665 21.33,43.335 32,65 10.67,0 21.33,0 32,0 -85.67,0 -171.33,0 -257,0 -21.33,32.002 -42.67,63.998 -64,96 10.67,10.664 21.33,21.336 32,32 -10.67,0 -21.33,0 -32,0 -21.67,10.665 -43.33,21.335 -65,32 -10.67,21.665 -21.33,43.335 -32,65 10.67,10.664 21.33,21.336 32,32 -10.67,21.332 -21.33,42.668 -32,64 0,10.667 0,21.333 0,32 -21.33,10.669 -42.67,21.331 -64,32 -10.67,10.664 -21.33,21.336 -32,32 -43,-21.333 -86,-42.667 -129,-64 0,43 0,86 0,129 10.67,10.664 21.33,21.336 32,32 -10.67,10.664 -21.33,21.336 -32,32 -21.33,0 -42.67,0 -64,0 -21.33,21.336 -42.67,42.664 -64,64 -21.67,10.998 -43.33,22.002 -65,33 -21.33,0 -42.67,0 -64,0 -21.33,-21.669 -42.67,-43.331 -64,-65 0,-10.667 0,-21.333 0,-32 -11,10.667 -22,21.333 -33,32 -10.67,21.665 -21.33,43.335 -32,65 -10.67,10.664 -21.33,21.336 -32,32 -53.67,0 -107.33,0 -161,0 11,10.667 22,21.333 33,32 -21.67,21.33 -43.33,42.67 -65,64 10.67,32.332 21.33,64.668 32,97 -10.67,0 -21.33,0 -32,0 -10.67,10.664 -21.33,21.336 -32,32 -21.33,0 -42.67,0 -64,0 10.67,-21.332 21.33,-42.668 32,-64 -21.33,-11.002 -42.67,-21.998 -64,-33 0,-21.333 0,-42.667 0,-64 -11,0 -22,0 -33,0 0,21.333 0,42.667 0,64 -10.67,0 -21.33,0 -32,0 0,11 0,22 0,33 -10.67,0 -21.33,0 -32,0 -10.67,10.664 -21.33,21.336 -32,32 -10.67,31.999 -21.33,64.001 -32,96 -21.33,10.669 -42.67,21.331 -64,32 -11,21.667 -22,43.333 -33,65 -21.33,21.336 -42.67,42.664 -64,64 -32,0 -64,0 -96,0 -21.67,-42.998 -43.33,-86.002 -65,-129 -21.33,10.669 -42.67,21.331 -64,32 -43,0 -86,0 -129,0 -21.33,-21.336 -42.67,-42.664 -64,-64 -43,0 -86,0 -129,0 -10.67,-10.664 -21.33,-21.336 -32,-32 -21.33,10.669 -42.67,21.331 -64,32 -10.67,0 -21.33,0 -32,0 -53.67,32.331 -107.33,64.669 -161,97 0,-32.333 0,-64.667 0,-97 -32,0 -64,0 -96,0 -10.67,-21.332 -21.33,-42.668 -32,-64 -21.67,-21.33 -43.33,-42.67 -65,-64 -42.67,0 -85.33,0 -128,0 -11,-11 -22,-22 -33,-33 -10.67,0 -21.33,0 -32,0 0,-21.333 0,-42.667 0,-64 -10.67,-10.664 -21.33,-21.336 -32,-32 -10.67,-21.332 -21.33,-42.668 -32,-64 -17.47,-18.032 -34.88,-36.128 -52.76,-53.761 -3.75,-3.746 -7.49,-7.494 -11.24,-11.239 -11,0 -22,0 -33,0 -32,10.667 -64,21.333 -96,32 -32,-21.333 -64,-42.667 -96,-64 -11,-10.667 -22,-21.333 -33,-32 -21.33,0 -42.67,0 -64,0 -32,10.667 -64,21.333 -96,32 10.67,-31.999 21.33,-64.001 32,-96 -10.67,-21.665 -21.33,-43.335 -32,-65 34.04,-51.052 68.14,-102.063 101.83,-153.348 8.73,-13.217 17.45,-26.433 26.17,-39.652 -30.59,15.712 -61.04,31.708 -91.87,46.935 -12.05,6.021 -24.09,12.044 -36.13,18.065 -10.67,0 -21.33,0 -32,0 -21.67,21.33 -43.33,42.67 -65,64 -10.67,-10.664 -21.33,-21.336 -32,-32 -10.67,0 -21.33,0 -32,0 -21.33,-10.669 -42.67,-21.331 -64,-32 -11,0 -22,0 -33,0 -10.67,10.664 -21.33,21.336 -32,32 10.67,10.664 21.33,21.336 32,32 -32,0 -64,0 -96,0 -21.33,-10.669 -42.67,-21.331 -64,-32 -11,-32.333 -22,-64.667 -33,-97 0,-21.333 0,-42.667 0,-64 21.67,-21.33 43.33,-42.67 65,-64 0,-32.333 0,-64.667 0,-97 -10.67,0 -21.33,0 -32,0 z"
         id="path74" />
    </g>
  </g>
</svg>
