<?xml version="1.0" encoding="UTF-8" standalone="no"?>
<!-- Created with Inkscape (http://www.inkscape.org/) -->

<svg
   xmlns:dc="http://purl.org/dc/elements/1.1/"
   xmlns:cc="http://creativecommons.org/ns#"
   xmlns:rdf="http://www.w3.org/1999/02/22-rdf-syntax-ns#"
   xmlns:svg="http://www.w3.org/2000/svg"
   xmlns="http://www.w3.org/2000/svg"
   xmlns:sodipodi="http://sodipodi.sourceforge.net/DTD/sodipodi-0.dtd"
   xmlns:inkscape="http://www.inkscape.org/namespaces/inkscape"
   width="33.696411mm"
   height="28.293779mm"
   viewBox="0 0 33.696411 28.293779"
   version="1.1"
   id="svg931"
   inkscape:version="0.92.5 (2060ec1f9f, 2020-04-08)"
   sodipodi:docname="ro.svg">
  <defs
     id="defs925" />
  <sodipodi:namedview
     id="base"
     pagecolor="#ffffff"
     bordercolor="#666666"
     borderopacity="1.0"
     inkscape:pageopacity="0.0"
     inkscape:pageshadow="2"
     inkscape:zoom="0.35"
     inkscape:cx="895.10681"
     inkscape:cy="70.611416"
     inkscape:document-units="mm"
     inkscape:current-layer="layer1"
     showgrid="false"
     inkscape:window-width="1366"
     inkscape:window-height="704"
     inkscape:window-x="0"
     inkscape:window-y="0"
     inkscape:window-maximized="1" />
  <metadata
     id="metadata928">
    <rdf:RDF>
      <cc:Work
         rdf:about="">
        <dc:format>image/svg+xml</dc:format>
        <dc:type
           rdf:resource="http://purl.org/dc/dcmitype/StillImage" />
        <dc:title></dc:title>
      </cc:Work>
    </rdf:RDF>
  </metadata>
  <g
     inkscape:label="Layer 1"
     inkscape:groupmode="layer"
     id="layer1"
     transform="translate(164.25891,-139.22216)">
    <g
       transform="matrix(9.9994773e-4,0,0,9.9994773e-4,-203.91427,73.076404)"
       id="Rondonia">
      <path
         inkscape:connector-curvature="0"
         style="fill:#999999;stroke:#ffffff;stroke-width:282.23678589;stroke-miterlimit:4;stroke-dasharray:none;stroke-opacity:1"
         d="m 39760,75303 c 43,-32.333 86,-64.667 129,-97 0,-43 0,-86 0,-129 -10.667,-10.667 -21.333,-21.333 -32,-32 10.667,-10.667 21.333,-21.333 32,-32 21.333,10.667 42.667,21.333 64,32 64.333,0 128.667,0 193,0 32.333,-21.333 64.667,-42.667 97,-64 21.333,-21.333 42.667,-42.667 64,-64 10.667,-32.333 21.333,-64.667 32,-97 96.333,-53.667 192.667,-107.333 289,-161 21.667,-21.333 43.333,-42.667 65,-64 32,10.667 64,21.333 96,32 10.667,-10.667 21.333,-21.333 32,-32 43,-10.667 86,-21.333 129,-32 21.333,-32 42.667,-64 64,-96 64.333,-11 128.667,-22 193,-33 0,-32 0,-64 0,-96 10.667,-21.333 21.333,-42.667 32,-64 43.064,-32.417 86.203,-64.748 129.221,-97.219 42.926,-42.594 85.853,-85.187 128.779,-127.781 21.333,-43 42.667,-86 64,-129 53.667,-43 107.333,-86 161,-129 0,-75 0,-150 0,-225 -11,-32 -22,-64 -33,-96 -32,-21.667 -64,-43.333 -96,-65 0,-10.667 0,-21.333 0,-32 10.667,-10.667 21.333,-21.333 32,-32 53.667,21.333 107.333,42.667 161,64 10.667,0 21.333,0 32,0 21.333,-10.667 42.667,-21.333 64,-32 32.333,21.667 64.667,43.333 97,65 21.333,-21.667 42.667,-43.333 64,-65 10.667,10.667 21.333,21.333 32,32 0,21.667 0,43.333 0,65 43,0 86,0 129,0 10.667,-10.667 21.333,-21.333 32,-32 -10.667,-32.333 -21.333,-64.667 -32,-97 42.667,0 85.333,0 128,0 32.333,32.333 64.667,64.667 97,97 10.667,0 21.333,0 32,0 21.333,-11 42.667,-22 64,-33 21.667,0 43.333,0 65,0 53.667,21.667 107.333,43.333 161,65 21.333,-21.667 42.667,-43.333 64,-65 10.667,0 21.333,0 32,0 32,-21.333 64,-42.667 96,-64 21.667,0 43.333,0 65,0 32,10.667 64,21.333 96,32 64.333,0 128.667,0 193,0 21.333,-10.667 42.667,-21.333 64,-32 0,-10.667 0,-21.333 0,-32 64.333,0 128.667,0 193,0 21.667,10.667 43.333,21.333 65,32 32,0 64,0 96,0 0,21.333 0,42.667 0,64 21.333,11 42.667,22 64,33 11.098,10.709 22.102,21.536 33.259,32.173 31.914,21.275 63.827,42.551 95.741,63.827 10.727,32.42 21.343,64.887 32.139,97.278 10.62,21.241 21.241,42.481 31.861,63.722 32.333,10.667 64.667,21.333 97,32 21.333,0 42.667,0 64,0 32.333,32 64.667,64 97,96 10.667,0 21.333,0 32,0 10.667,11 21.333,22 32,33 0,32 0,64 0,96 10.667,0 21.333,0 32,0 21.333,-10.667 42.667,-21.333 64,-32 11,53.667 22,107.333 33,161 10.667,0 21.333,0 32,0 10.667,10.667 21.333,21.333 32,32 10.667,32 21.333,64 32,96 10.667,0 21.333,0 32,0 22.842,-22.757 45.513,-45.687 68.466,-68.331 9.511,-9.223 19.023,-18.446 28.534,-27.669 21.333,0 42.667,0 64,0 10.667,-21.333 21.333,-42.667 32,-64 10.667,0 21.333,0 32,0 21.333,10.667 42.667,21.333 64,32 11,0 22,0 33,0 42.667,-86 85.333,-172 128,-258 21.333,-10.667 42.667,-21.333 64,-32 11,-85.667 22,-171.333 33,-257 42.667,0 85.333,0 128,0 11,-21.333 22,-42.667 33,-64 10.667,-10.667 21.333,-21.333 32,-32 34.372,-11.754 68.669,-23.731 103.09,-35.339 29.97,-9.887 59.94,-19.774 89.91,-29.661 42.667,0 85.333,0 128,0 21.402,10.75 42.899,21.352 64.243,32.195 53.585,42.935 107.171,85.87 160.757,128.805 21.333,0 42.667,0 64,0 11,10.667 22,21.333 33,32 0,21.667 0,43.333 0,65 10.667,10.667 21.333,21.333 32,32 32,-10.667 64,-21.333 96,-32 10.667,-21.667 21.333,-43.333 32,-65 21.667,21.667 43.333,43.333 65,65 21.333,-11 42.667,-22 64,-33 10.667,11 21.333,22 32,33 0,-21.667 0,-43.333 0,-65 -21.388,-53.756 -42.711,-107.54 -64.139,-161.278 -10.62,-21.241 -21.241,-42.481 -31.861,-63.722 0.08,-10.866 -0.161,-21.764 0.121,-32.61 10.627,-53.463 21.253,-106.927 31.879,-160.39 0,-85.667 0,-171.333 0,-257 10.667,-10.667 21.333,-21.333 32,-32 43.08,21.402 86.212,42.713 129.259,64.173 31.914,21.275 63.827,42.551 95.741,63.827 10.667,0 21.333,0 32,0 10.667,-10.667 21.333,-21.333 32,-32 0,-10.667 0,-21.333 0,-32 43,0 86,0 129,0 10.667,-21.333 21.333,-42.667 32,-64 75,-43 150,-86 225,-129 21.667,-21.333 43.333,-42.667 65,-64 53.333,-21.333 106.667,-42.667 160,-64 11,0 22,0 33,0 53.333,32 106.667,64 160,96 0,53.667 0,107.333 0,161 32.333,53.667 64.667,107.333 97,161 -10.667,42.667 -21.333,85.333 -32,128 0,10.667 0,21.333 0,32 32,11 64,22 96,33 0,21.333 0,42.667 0,64 -21.333,32 -42.667,64 -64,96 0,21.667 0,43.333 0,65 21.333,0 42.667,0 64,0 32,10.667 64,21.333 96,32 21.667,21.333 43.333,42.667 65,64 42.667,-32 85.333,-64 128,-96 21.667,0 43.333,0 65,0 21.333,-11 42.667,-22 64,-33 -10.667,-21.333 -21.333,-42.667 -32,-64 10.667,-10.667 21.333,-21.333 32,-32 53.667,0 107.333,0 161,0 10.667,-10.667 21.333,-21.333 32,-32 0,-10.667 0,-21.333 0,-32 21.333,-21.667 42.667,-43.333 64,-65 -10.667,-32 -21.333,-64 -32,-96 10.667,0 21.333,0 32,0 17.261,-17.269 34.451,-34.611 52.098,-51.489 4.301,-4.17 8.601,-8.341 12.902,-12.511 21.333,0 42.667,0 64,0 -10.667,-21.667 -21.333,-43.333 -32,-65 21.333,-21.333 42.667,-42.667 64,-64 0,-21.333 0,-42.667 0,-64 21.333,-21.667 42.667,-43.333 64,-65 32.333,0 64.667,0 97,0 21.333,-21.333 42.667,-42.667 64,-64 0,-10.667 0,-21.333 0,-32 21.333,-10.667 42.667,-21.333 64,-32 0.07,-10.759 -0.134,-21.563 0.1,-32.294 11.026,-32.323 21.948,-64.689 33.039,-96.984 10.62,-21.241 21.241,-42.481 31.861,-63.722 10.667,-10.667 21.333,-21.333 32,-32 -10.667,-21.667 -21.333,-43.333 -32,-65 0,-10.667 0,-21.333 0,-32 -10.667,-21.333 -21.333,-42.667 -32,-64 0,-53.667 0,-107.333 0,-161 -11,-10.667 -22,-21.333 -33,-32 0,-32 0,-64 0,-96 11,-11 22,-22 33,-33 21.333,-75 42.667,-150 64,-225 0,-53.333 0,-106.667 0,-160 21.333,10.667 42.667,21.333 64,32 10.667,-10.667 21.333,-21.333 32,-32 10.667,-21.667 21.333,-43.333 32,-65 32.571,-21.536 65.23,-42.947 97.746,-64.561 42.751,-32.146 85.503,-64.293 128.254,-96.439 42.667,-10.667 85.333,-21.333 128,-32 43,0 86,0 129,0 10.768,10.853 21.718,21.548 32.371,32.499 31.877,42.834 63.753,85.667 95.629,128.501 11.093,-0.07 22.229,0.132 33.295,-0.1 31.902,-10.634 63.803,-21.268 95.705,-31.902 43,-32.333 86,-64.667 129,-97 0,-10.667 0,-21.333 0,-32 21.333,0 42.667,0 64,0 10.707,10.766 21.545,21.427 32.171,32.26 21.277,32.246 42.553,64.493 63.829,96.74 21.667,-10.667 43.333,-21.333 65,-32 32,0 64,0 96,0 43,10.667 86,21.333 129,32 21.333,0 42.667,0 64,0 10.667,-10.667 21.333,-21.333 32,-32 21.667,-10.667 43.333,-21.333 65,-32 0,-21.667 0,-43.333 0,-65 10.667,0 21.333,0 32,0 21.333,-10.667 42.667,-21.333 64,-32 10.667,-10.667 21.333,-21.333 32,-32 21.434,0.03 42.88,-0.07 64.307,0.05 64.231,10.65 128.462,21.299 192.693,31.949 43,-10.667 86,-21.333 129,-32 32,0 64,0 96,0 21.775,-10.671 43.489,-21.508 65.302,-32.075 42.566,-10.642 85.132,-21.283 127.698,-31.925 43.102,-21.693 86.167,-43.468 129.291,-65.109 85.57,-31.964 171.139,-63.927 256.709,-95.891 21.333,0 42.667,0 64,0 0,32 0,64 0,96 -21.333,53.667 -42.667,107.333 -64,161 0,10.667 0,21.333 0,32 21.333,10.667 42.667,21.333 64,32 21.766,-0.04 43.549,0.08 65.305,-0.06 53.565,-10.646 107.13,-21.293 160.695,-31.939 53.333,10.667 106.667,21.333 160,32 86,-53.333 172,-106.667 258,-160 42.667,0 85.333,0 128,0 10.667,-10.667 21.333,-21.333 32,-32 -0.03,-21.768 0.06,-43.545 -0.04,-65.308 -10.637,-75.002 -21.392,-149.996 -31.956,-225.003 0,-42.563 0,-85.126 0,-127.689 -10.667,-32.333 -21.333,-64.667 -32,-97 0,-21.333 0,-42.667 0,-64 32,-32.333 64,-64.667 96,-97 11,-21.333 22,-42.667 33,-64 -21.667,-43 -43.333,-86 -65,-129 0,-53.333 0,-106.667 0,-160 21.756,-32.394 43.386,-64.89 65.22,-97.22 10.593,-10.593 21.187,-21.187 31.78,-31.78 21.333,10.667 42.667,21.333 64,32 21.333,0 42.667,0 64,0 32.333,-21.333 64.667,-42.667 97,-64 10.868,0.07 21.759,-0.135 32.614,0.102 64.128,10.633 128.257,21.265 192.386,31.898 -10.667,-43 -21.333,-86 -32,-129 32,-42.667 64,-85.333 96,-128 -10.667,-10.667 -21.333,-21.333 -32,-32 10.687,-11.111 21.581,-22.076 32.139,-33.278 10.62,-21.241 21.241,-42.481 31.861,-63.722 0,-21.333 0,-42.667 0,-64 21.667,-10.667 43.333,-21.333 65,-32 10.667,-53.667 21.333,-107.333 32,-161 10.667,-10.667 21.333,-21.333 32,-32 10.667,0 21.333,0 32,0 10.667,10.667 21.333,21.333 32,32 0,10.667 0,21.333 0,32 21.667,21.333 43.333,42.667 65,64 10.667,0 21.333,0 32,0 32,-53.333 64,-106.667 96,-160 0,-21.667 0,-43.333 0,-65 -10.667,0 -21.333,0 -32,0 -21.333,-21.333 -42.667,-42.667 -64,-64 0,-32 0,-64 0,-96 -32.333,-32.333 -64.667,-64.667 -97,-97 -10.667,-32 -21.333,-64 -32,-96 0,-10.667 0,-21.333 0,-32 53.667,-43 107.333,-86 161,-129 0,-21.333 0,-42.667 0,-64 -21.333,-21.667 -42.667,-43.333 -64,-65 -43,-10.667 -86,-21.333 -129,-32 0,-21.333 0,-42.667 0,-64 53.667,-32.333 107.333,-64.667 161,-97 0,-96.333 0,-192.667 0,-289 21.333,-10.667 42.667,-21.333 64,-32 32.333,10.667 64.667,21.333 97,32 10.707,-10.766 21.545,-21.427 32.171,-32.26 21.312,-32.345 42.71,-64.642 63.968,-97.018 10.62,-21.241 21.241,-42.481 31.861,-63.722 32.333,0 64.667,0 97,0 59.53,19.884 119.087,39.688 178.712,59.286 4.825,1.67 9.794,3.076 14.53,4.909 53.253,42.935 106.505,85.87 159.758,128.805 10.667,0 21.333,0 32,0 11.04,-10.768 22.218,-21.42 33.171,-32.26 21.277,-32.246 42.553,-64.493 63.829,-96.74 0,-21.333 0,-42.667 0,-64 21.333,-32 42.667,-64 64,-96 43,-32.333 86,-64.667 129,-97 -43,-75 -86,-150 -129,-225 0,-10.667 0,-21.333 0,-32 32.333,-32 64.667,-64 97,-96 53.667,-32.333 107.333,-64.667 161,-97 32,-53.667 64,-107.333 96,-161 10.667,-10.667 21.333,-21.333 32,-32 10.667,-32 21.333,-64 32,-96 -10.667,-11 -21.333,-22 -32,-33 0,-21.333 0,-42.667 0,-64 32.333,-21.333 64.667,-42.667 97,-64 10.667,-32.333 21.333,-64.667 32,-97 21.333,-10.667 42.667,-21.333 64,-32 10.667,-21.333 21.333,-42.667 32,-64 -10.667,-21.333 -21.333,-42.667 -32,-64 10.667,-75 21.333,-150 32,-225 139.437,10.659 278.872,21.381 418.311,32 1050.23,0 2100.459,0 3150.689,0 21.333,21.333 42.667,42.667 64,64 11,0 22,0 33,0 10.667,10.667 21.333,21.333 32,32 10.667,0 21.333,0 32,0 21.369,32.432 42.824,64.815 64.139,97.278 10.62,21.241 21.241,42.481 31.861,63.722 43,0 86,0 129,0 64.333,32 128.667,64 193,96 33.272,33.554 66.416,67.236 99.768,100.71 20.509,20.139 40.92,40.4 61.491,60.463 31.914,21.275 63.827,42.551 95.741,63.827 0,11 0,22 0,33 21.333,21.333 42.667,42.667 64,64 -10.667,10.667 -21.333,21.333 -32,32 10.667,32.333 21.333,64.667 32,97 11,10.667 22,21.333 33,32 -11,21.333 -22,42.667 -33,64 -10.667,10.667 -21.333,21.333 -32,32 0,21.667 0,43.333 0,65 10.667,21.333 21.333,42.667 32,64 21.667,10.667 43.333,21.333 65,32 21.333,43 42.667,86 64,129 -10.667,10.667 -21.333,21.333 -32,32 10.667,10.667 21.333,21.333 32,32 64.333,32 128.667,64 193,96 10.667,21.667 21.333,43.333 32,65 10.667,10.667 21.333,21.333 32,32 10.667,-10.667 21.333,-21.333 32,-32 11,10.667 22,21.333 33,32 10.667,0 21.333,0 32,0 10.667,10.667 21.333,21.333 32,32 10.667,0 21.333,0 32,0 10.667,32 21.333,64 32,96 -10.667,21.667 -21.333,43.333 -32,65 10.667,0 21.333,0 32,0 0,21.333 0,42.667 0,64 10.667,21.333 21.333,42.667 32,64 -10.667,21.667 -21.333,43.333 -32,65 21.667,0 43.333,0 65,0 10.667,21.333 21.333,42.667 32,64 10.667,10.667 21.333,21.333 32,32 0,10.667 0,21.333 0,32 10.667,0 21.333,0 32,0 32,-32 64,-64 96,-96 21.667,-10.667 43.333,-21.333 65,-32 10.667,-21.667 21.333,-43.333 32,-65 10.667,0 21.333,0 32,0 10.667,-10.667 21.333,-21.333 32,-32 21.667,21.667 43.333,43.333 65,65 10.667,21.333 21.333,42.667 32,64 21.442,10.67 42.821,21.512 64.302,32.075 42.899,10.642 85.799,21.283 128.698,31.925 21.333,0 42.667,0 64,0 42.667,21.333 85.333,42.667 128,64 11,11 22,22 33,33 0,21.333 0,42.667 0,64 -11.002,21.442 -22.185,42.817 -33.075,64.302 -10.642,42.899 -21.283,85.799 -31.925,128.698 10.667,42.667 21.333,85.333 32,128 0,32.333 0,64.667 0,97 11,21.333 22,42.667 33,64 10.667,10.667 21.333,21.333 32,32 21.333,0 42.667,0 64,0 10.667,21.667 21.333,43.333 32,65 -10.667,32 -21.333,64 -32,96 21.333,21.333 42.667,42.667 64,64 -10.805,21.826 -21.423,43.759 -32.345,65.518 -21.218,31.827 -42.437,63.655 -63.655,95.482 0,10.667 0,21.333 0,32 10.857,10.761 21.538,21.731 32.506,32.362 74.831,53.546 149.663,107.092 224.494,160.638 10.667,0 21.333,0 32,0 11,-21.333 22,-42.667 33,-64 -32.333,-32.333 -64.667,-64.667 -97,-97 0,-21.333 0,-42.667 0,-64 10.667,-10.667 21.333,-21.333 32,-32 21.667,-10.667 43.333,-21.333 65,-32 10.667,-10.667 21.333,-21.333 32,-32 42.667,10.667 85.333,21.333 128,32 21.667,21.333 43.333,42.667 65,64 64,0 128,0 192,0 11.059,32.421 22.015,64.885 33.139,97.278 10.62,21.241 21.241,42.481 31.861,63.722 0,21.333 0,42.667 0,64 -32.333,0 -64.667,0 -97,0 -10.667,10.667 -21.333,21.333 -32,32 32.333,21.667 64.667,43.333 97,65 21.333,32 42.667,64 64,96 -10.667,21.333 -21.333,42.667 -32,64 10.667,21.667 21.333,43.333 32,65 21.333,10.667 42.667,21.333 64,32 10.667,10.667 21.333,21.333 32,32 -10.667,21.333 -21.333,42.667 -32,64 0,11 0,22 0,33 43,107 86,214 129,321 43,10.667 86,21.333 129,32 42.667,-21.333 85.333,-42.667 128,-64 64.333,0 128.667,0 193,0 21.333,42.667 42.667,85.333 64,128 21.667,11 43.333,22 65,33 21.333,32 42.667,64 64,96 0,32.333 0,64.667 0,97 10.667,10.667 21.333,21.333 32,32 10.667,-10.667 21.333,-21.333 32,-32 64.333,21.333 128.667,42.667 193,64 21.667,-10.667 43.333,-21.333 65,-32 32,0 64,0 96,0 0,-21.667 0,-43.333 0,-65 32,0 64,0 96,0 32.333,-21.333 64.667,-42.667 97,-64 0,-43 0,-86 0,-129 10.667,-10.667 21.333,-21.333 32,-32 -10.667,-21.333 -21.333,-42.667 -32,-64 10.667,-21.333 21.333,-42.667 32,-64 21.333,-21.667 42.667,-43.333 64,-65 0,-53.333 0,-106.667 0,-160 10.667,-21.667 21.333,-43.333 32,-65 11,0 22,0 33,0 32,21.667 64,43.333 96,65 32,0 64,0 96,0 21.667,10.667 43.333,21.333 65,32 21.333,-21.333 42.667,-42.667 64,-64 0,-11 0,-22 0,-33 21.333,-10.667 42.667,-21.333 64,-32 0,-10.667 0,-21.333 0,-32 11,-10.667 22,-21.333 33,-32 -11,-10.667 -22,-21.333 -33,-32 11,-21.667 22,-43.333 33,-65 21.333,0 42.667,0 64,0 21.333,-10.667 42.667,-21.333 64,-32 10.667,32.333 21.333,64.667 32,97 11,10.667 22,21.333 33,32 42.667,-10.667 85.333,-21.333 128,-32 32.333,10.667 64.667,21.333 97,32 10.779,10.686 21.402,21.588 32.278,32.139 21.241,10.62 42.481,21.241 63.722,31.861 10.667,10.667 21.333,21.333 32,32 -10.667,32.333 -21.333,64.667 -32,97 10.686,10.779 21.587,21.403 32.14,32.278 32.286,64.241 64.573,128.481 96.86,192.722 32,0 64,0 96,0 10.667,10.667 21.333,21.333 32,32 10.667,0 21.333,0 32,0 43,21.333 86,42.667 129,64 32.333,0 64.667,0 97,0 0,21.667 0,43.333 0,65 10.667,10.667 21.333,21.333 32,32 10.667,42.667 21.333,85.333 32,128 32,32.333 64,64.667 96,97 10.667,32 21.333,64 32,96 21.667,21.667 43.333,43.333 65,65 -32.417,42.731 -64.749,85.536 -97.22,128.22 -10.593,10.593 -21.187,21.187 -31.78,31.78 -42.667,86 -85.333,172 -128,258 -11,32 -22,64 -33,96 0,32.333 0,64.667 0,97 -21.333,21.333 -42.667,42.667 -64,64 0,21.333 0,42.667 0,64 -10.667,0 -21.333,0 -32,0 -10.667,32.333 -21.333,64.667 -32,97 0,64.333 0,128.667 0,193 21.422,32.06 42.718,64.224 64.22,96.22 10.593,10.593 21.187,21.187 31.78,31.78 10.667,32.333 21.333,64.667 32,97 11,10.667 22,21.333 33,32 -0.04,32.099 0.08,64.216 -0.06,96.305 -10.98,53.565 -21.959,107.13 -32.938,160.695 11,21.333 22,42.667 33,64 -11,11 -22,22 -33,33 -10.667,-11 -21.333,-22 -32,-33 -32,-10.667 -64,-21.333 -96,-32 -32.333,0 -64.667,0 -97,0 -21.333,10.667 -42.667,21.333 -64,32 -10.667,21.667 -21.333,43.333 -32,65 -53.667,0 -107.333,0 -161,0 0,32 0,64 0,96 10.667,10.667 21.333,21.333 32,32 21.333,-10.667 42.667,-21.333 64,-32 -0.07,10.76 0.13,21.562 -0.1,32.295 -10.635,32.235 -21.269,64.47 -31.903,96.705 10.667,21.333 21.333,42.667 32,64 -10.686,10.779 -21.588,21.402 -32.139,32.278 -10.62,21.241 -21.241,42.481 -31.861,63.722 0,43 0,86 0,129 21.333,-10.667 42.667,-21.333 64,-32 0,10.667 0,21.333 0,32 21.667,10.667 43.333,21.333 65,32 32,0 64,0 96,0 21.667,21.667 43.333,43.333 65,65 21.333,10.667 42.667,21.333 64,32 -21.333,10.667 -42.667,21.333 -64,32 21.333,32 42.667,64 64,96 -10.667,10.667 -21.333,21.333 -32,32 0,21.667 0,43.333 0,65 -10.667,0 -21.333,0 -32,0 -32.333,32 -64.667,64 -97,96 10.667,10.667 21.333,21.333 32,32 0,11 0,22 0,33 17.261,17.269 34.451,34.611 52.098,51.489 4.412,4.19 8.676,8.589 13.181,12.65 64.24,31.953 128.481,63.907 192.721,95.861 -43,10.667 -86,21.333 -129,32 0,11 0,22 0,33 32,32 64,64 96,96 21.667,-10.667 43.333,-21.333 65,-32 0,21.333 0,42.667 0,64 10.667,0 21.333,0 32,0 0,43 0,86 0,129 10.667,0 21.333,0 32,0 0,10.667 0,21.333 0,32 10.667,0 21.333,0 32,0 -0.08,10.866 0.161,21.764 -0.121,32.61 -10.627,53.463 -21.253,106.927 -31.879,160.39 10.667,21.333 21.333,42.667 32,64 10.667,0 21.333,0 32,0 10.667,-10.667 21.333,-21.333 32,-32 0,10.667 0,21.333 0,32 11,0 22,0 33,0 -11,10.667 -22,21.333 -33,32 -21.333,43 -42.667,86 -64,129 -21.333,0 -42.667,0 -64,0 10.667,32 21.333,64 32,96 0,21.667 0,43.333 0,65 -32,10.667 -64,21.333 -96,32 -11,21.333 -22,42.667 -33,64 -21.333,0 -42.667,0 -64,0 -10.667,-10.667 -21.333,-21.333 -32,-32 -43,21.333 -86,42.667 -129,64 10.667,11 21.333,22 32,33 21.667,0 43.333,0 65,0 42.667,21.333 85.333,42.667 128,64 0,32 0,64 0,96 -32,43 -64,86 -96,129 36.994,18.528 73.997,37.039 111.163,55.219 5.946,2.927 11.891,5.854 17.837,8.781 0,10.667 0,21.333 0,32 -11,21.667 -22,43.333 -33,65 21.667,10.667 43.333,21.333 65,32 0,32 0,64 0,96 10.667,32.333 21.333,64.667 32,97 0,42.667 0,85.333 0,128 -21.333,21.667 -42.667,43.333 -64,65 0,42.667 0,85.333 0,128 -11,10.667 -22,21.333 -33,32 11,11 22,22 33,33 0,10.667 0,21.333 0,32 -11,0 -22,0 -33,0 -10.667,21.333 -21.333,42.667 -32,64 10.667,10.667 21.333,21.333 32,32 0,32.333 0,64.667 0,97 -21.333,10.667 -42.667,21.333 -64,32 -0.08,10.756 0.153,21.57 -0.115,32.289 -21.295,53.57 -42.59,107.141 -63.885,160.711 -32.333,21.333 -64.667,42.667 -97,64 0,10.667 0,21.333 0,32 -10.667,10.667 -21.333,21.333 -32,32 10.667,32.333 21.333,64.667 32,97 -10.667,0 -21.333,0 -32,0 0,21.333 0,42.667 0,64 -10.667,21.333 -21.333,42.667 -32,64 -0.04,21.766 0.08,43.549 -0.06,65.305 -10.646,53.232 -21.293,106.463 -31.939,159.695 0,11 0,22 0,33 32,0 64,0 96,0 0,10.667 0,21.333 0,32 32.333,10.667 64.667,21.333 97,32 0,32 0,64 0,96 10.667,11 21.333,22 32,33 -43,10.667 -86,21.333 -129,32 0,64.333 0,128.667 0,193 10.737,21.412 21.379,42.88 32.174,64.258 22.844,33.832 45.863,67.547 68.595,101.454 20.077,30.429 40.154,60.859 60.231,91.288 -21.333,10.667 -42.667,21.333 -64,32 10.667,21.333 21.333,42.667 32,64 10.667,0 21.333,0 32,0 10.667,21.667 21.333,43.333 32,65 32.333,0 64.667,0 97,0 10.667,32 21.333,64 32,96 10.667,0 21.333,0 32,0 0,43 0,86 0,129 10.667,21.333 21.333,42.667 32,64 10.667,0 21.333,0 32,0 10.667,10.667 21.333,21.333 32,32 21.667,10.667 43.333,21.333 65,32 -10.667,10.667 -21.333,21.333 -32,32 0,11 0,22 0,33 21.333,0 42.667,0 64,0 -10.667,53.333 -21.333,106.667 -32,160 -10.667,11 -21.333,22 -32,33 10.667,10.667 21.333,21.333 32,32 -21.667,42.667 -43.333,85.333 -65,128 0,64.333 0,128.667 0,193 21.667,21.333 43.333,42.667 65,64 0,21.667 0,43.333 0,65 -21.667,21.333 -43.333,42.667 -65,64 11,32.333 22,64.667 33,97 -11,10.667 -22,21.333 -33,32 11,21.333 22,42.667 33,64 -21.667,32.333 -43.333,64.667 -65,97 10.667,10.667 21.333,21.333 32,32 0,64.333 0,128.667 0,193 -10.667,0 -21.333,0 -32,0 -10.667,10.667 -21.333,21.333 -32,32 0,32 0,64 0,96 21.333,21.333 42.667,42.667 64,64 11,0 22,0 33,0 0,11 0,22 0,33 -21.667,10.667 -43.333,21.333 -65,32 0,10.667 0,21.333 0,32 10.667,21.333 21.333,42.667 32,64 0,21.667 0,43.333 0,65 11,10.667 22,21.333 33,32 -11,32 -22,64 -33,96 11,21.667 22,43.333 33,65 -21.667,0 -43.333,0 -65,0 0,-11 0,-22 0,-33 -10.667,-10.667 -21.333,-21.333 -32,-32 0,-10.667 0,-21.333 0,-32 -21.333,21.333 -42.667,42.667 -64,64 10.667,21.667 21.333,43.333 32,65 -10.667,21.333 -21.333,42.667 -32,64 0,32 0,64 0,96 -21.333,11 -42.667,22 -64,33 0,64 0,128 0,192 -11,0 -22,0 -33,0 11,11 22,22 33,33 0,21.333 0,42.667 0,64 10.667,0 21.333,0 32,0 0,21.333 0,42.667 0,64 -10.667,32.333 -21.333,64.667 -32,97 0,21.333 0,42.667 0,64 -11,10.667 -22,21.333 -33,32 0,32.333 0,64.667 0,97 -32,0 -64,0 -96,0 0,10.667 0,21.333 0,32 193.104,10.661 386.206,21.368 579.311,32 1543.23,0 3086.459,0 4629.689,0 0,32 0,64 0,96 10.667,11 21.333,22 32,33 10.667,0 21.333,0 32,0 -10.667,42.667 -21.333,85.333 -32,128 10.667,0 21.333,0 32,0 10.667,-10.667 21.333,-21.333 32,-32 21.333,10.667 42.667,21.333 64,32 11,10.667 22,21.333 33,32 -11,32.333 -22,64.667 -33,97 21.667,0 43.333,0 65,0 0,10.667 0,21.333 0,32 10.667,10.667 21.333,21.333 32,32 0,10.667 0,21.333 0,32 10.667,10.667 21.333,21.333 32,32 32.333,0 64.667,0 97,0 32,21.667 64,43.333 96,65 10.667,-10.667 21.333,-21.333 32,-32 -10.667,0 -21.333,0 -32,0 10.667,-32.333 21.333,-64.667 32,-97 -10.667,-10.667 -21.333,-21.333 -32,-32 21.333,10.667 42.667,21.333 64,32 32.333,-32 64.667,-64 97,-96 10.667,0 21.333,0 32,0 10.667,-11 21.333,-22 32,-33 10.667,11 21.333,22 32,33 21.667,0 43.333,0 65,0 0,42.667 0,85.333 0,128 10.667,10.667 21.333,21.333 32,32 53.333,0 106.667,0 160,0 37.372,19.003 74.75,37.994 112.297,56.649 5.683,2.735 11.277,5.848 17.014,8.351 10.563,0 21.126,0 31.689,0 21.667,10.667 43.333,21.333 65,32 10.667,-21.333 21.333,-42.667 32,-64 10.759,-0.07 21.563,0.135 32.294,-0.101 31.902,-10.966 63.804,-21.933 95.706,-32.899 21.667,21.667 43.333,43.333 65,65 21.333,-10.667 42.667,-21.333 64,-32 21.333,10.667 42.667,21.333 64,32 10.667,-10.667 21.333,-21.333 32,-32 11,10.667 22,21.333 33,32 21.333,0 42.667,0 64,0 0,-10.667 0,-21.333 0,-32 10.667,-11 21.333,-22 32,-33 10.667,11 21.333,22 32,33 10.667,42.667 21.333,85.333 32,128 43,-10.667 86,-21.333 129,-32 10.667,-10.667 21.333,-21.333 32,-32 10.667,21.333 21.333,42.667 32,64 10.667,0 21.333,0 32,0 11,-21.333 22,-42.667 33,-64 0,10.667 0,21.333 0,32 42.667,0 85.333,0 128,0 0,-10.667 0,-21.333 0,-32 21.667,10.667 43.333,21.333 65,32 -11,32.333 -22,64.667 -33,97 -10.667,-11 -21.333,-22 -32,-33 10.667,21.667 21.333,43.333 32,65 -21.333,0 -42.667,0 -64,0 0,10.667 0,21.333 0,32 10.667,10.667 21.333,21.333 32,32 0,10.667 0,21.333 0,32 10.667,21.333 21.333,42.667 32,64 21.667,0 43.333,0 65,0 0,11 0,22 0,33 10.667,0 21.333,0 32,0 -21.333,21.333 -42.667,42.667 -64,64 -11,0 -22,0 -33,0 0,53.667 0,107.333 0,161 21.667,32 43.333,64 65,96 0,21.333 0,42.667 0,64 10.667,21.667 21.333,43.333 32,65 0,21.333 0,42.667 0,64 21.333,21.333 42.667,42.667 64,64 32.333,10.667 64.667,21.333 97,32 10.667,32.333 21.333,64.667 32,97 0,21.333 0,42.667 0,64 -10.667,10.667 -21.333,21.333 -32,32 10.667,0 21.333,0 32,0 -10.667,11 -21.333,22 -32,33 10.667,32 21.333,64 32,96 0,32 0,64 0,96 -10.667,21.667 -21.333,43.333 -32,65 0,10.667 0,21.333 0,32 -11,10.667 -22,21.333 -33,32 -10.667,0 -21.333,0 -32,0 -21.333,21.333 -42.667,42.667 -64,64 -32,0 -64,0 -96,0 -21.667,53.667 -43.333,107.333 -65,161 -21.333,10.667 -42.667,21.333 -64,32 -17.269,17.261 -34.611,34.451 -51.489,52.098 -9.956,10.537 -20.391,20.596 -30.822,30.658 -4.897,4.748 -9.793,9.496 -14.689,14.244 -10.667,-10.667 -21.333,-21.333 -32,-32 0,21.333 0,42.667 0,64 -21.374,21.433 -42.878,42.76 -64.171,64.26 -21.277,32.246 -42.553,64.493 -63.829,96.74 0,10.667 0,21.333 0,32 -32.333,10.667 -64.667,21.333 -97,32 0,10.667 0,21.333 0,32 -10.667,0 -21.333,0 -32,0 -10.667,10.667 -21.333,21.333 -32,32 0,-10.667 0,-21.333 0,-32 -10.667,10.667 -21.333,21.333 -32,32 10.667,10.667 21.333,21.333 32,32 -10.667,0 -21.333,0 -32,0 10.667,11 21.333,22 32,33 -21.333,0 -42.667,0 -64,0 10.667,10.667 21.333,21.333 32,32 -21.667,0 -43.333,0 -65,0 -10.667,10.667 -21.333,21.333 -32,32 10.667,10.667 21.333,21.333 32,32 -10.667,10.667 -21.333,21.333 -32,32 10.667,21.667 21.333,43.333 32,65 -10.667,10.667 -21.333,21.333 -32,32 10.667,0 21.333,0 32,0 -10.667,21.333 -21.333,42.667 -32,64 10.667,10.667 21.333,21.333 32,32 -10.667,0 -21.333,0 -32,0 0,64.333 0,128.667 0,193 -10.667,0 -21.333,0 -32,0 10.667,10.667 21.333,21.333 32,32 0,32.333 0,64.667 0,97 -10.667,10.667 -21.333,21.333 -32,32 21.333,10.667 42.667,21.333 64,32 -10.667,10.667 -21.333,21.333 -32,32 10.667,32.333 21.333,64.667 32,97 0,21.333 0,42.667 0,64 11,0 22,0 33,0 0,21.333 0,42.667 0,64 -11,0 -22,0 -33,0 0,10.667 0,21.333 0,32 11,0 22,0 33,0 0,11 0,22 0,33 -11,10.667 -22,21.333 -33,32 21.667,0 43.333,0 65,0 0,10.667 0,21.333 0,32 -10.667,0 -21.333,0 -32,0 10.667,10.667 21.333,21.333 32,32 -10.667,10.667 -21.333,21.333 -32,32 10.667,10.667 21.333,21.333 32,32 -10.667,0 -21.333,0 -32,0 10.667,21.667 21.333,43.333 32,65 -21.667,10.667 -43.333,21.333 -65,32 11,-10.667 22,-21.333 33,-32 10.667,10.667 21.333,21.333 32,32 0,32 0,64 0,96 0,-10.667 0,-21.333 0,-32 10.667,0 21.333,0 32,0 0,10.667 0,21.333 0,32 10.667,0 21.333,0 32,0 0,10.667 0,21.333 0,32 10.667,10.667 21.333,21.333 32,32 0,21.667 0,43.333 0,65 36.994,18.528 73.997,37.039 111.163,55.219 5.946,2.927 11.891,5.854 17.837,8.781 10.667,-10.667 21.333,-21.333 32,-32 10.667,10.667 21.333,21.333 32,32 10.667,-10.667 21.333,-21.333 32,-32 10.667,10.667 21.333,21.333 32,32 21.667,-10.667 43.333,-21.333 65,-32 21.333,32 42.667,64 64,96 10.667,0 21.333,0 32,0 10.667,11 21.333,22 32,33 -10.667,21.333 -21.333,42.667 -32,64 10.667,21.333 21.333,42.667 32,64 0,21.333 0,42.667 0,64 -10.667,0 -21.333,0 -32,0 32.333,21.667 64.667,43.333 97,65 -10.667,10.667 -21.333,21.333 -32,32 10.667,10.667 21.333,21.333 32,32 0,10.667 0,21.333 0,32 -21.667,0 -43.333,0 -65,0 21.667,10.667 43.333,21.333 65,32 0,11 0,22 0,33 -15.538,30.954 -30.788,62.053 -46.826,92.753 -6.058,11.749 -12.116,23.498 -18.174,35.247 21.667,0 43.333,0 65,0 0,21.333 0,42.667 0,64 10.667,11 21.333,22 32,33 0,10.667 0,21.333 0,32 10.667,0 21.333,0 32,0 0,10.667 0,21.333 0,32 10.667,0 21.333,0 32,0 32.333,21.333 64.667,42.667 97,64 10.667,32.333 21.333,64.667 32,97 10.667,0 21.333,0 32,0 21.333,32 42.667,64 64,96 0,96.667 0,193.333 0,290 -10.667,10.667 -21.333,21.333 -32,32 0,21.333 0,42.667 0,64 10.667,32 21.333,64 32,96 0,11 0,22 0,33 10.667,21.333 21.333,42.667 32,64 0,21.333 0,42.667 0,64 10.667,0 21.333,0 32,0 182.333,150 364.667,300 547,450 -32,11 -64,22 -96,33 -21.667,21.333 -43.333,42.667 -65,64 0,10.667 0,21.333 0,32 -21.333,21.333 -42.667,42.667 -64,64 0,21.667 0,43.333 0,65 -10.667,0 -21.333,0 -32,0 -10.667,10.667 -21.333,21.333 -32,32 0,21.333 0,42.667 0,64 -21.667,21.333 -43.333,42.667 -65,64 10.667,53.667 21.333,107.333 32,161 -10.667,21.333 -21.333,42.667 -32,64 -10.667,11 -21.333,22 -32,33 -21.333,10.667 -42.667,21.333 -64,32 -21.333,-10.667 -42.667,-21.333 -64,-32 -11,-11 -22,-22 -33,-33 -21.333,11 -42.667,22 -64,33 0,-11 0,-22 0,-33 -10.667,11 -21.333,22 -32,33 -32,0 -64,0 -96,0 0,10.667 0,21.333 0,32 -11,0 -22,0 -33,0 0,21.333 0,42.667 0,64 -32,10.667 -64,21.333 -96,32 -32,43 -64,86 -96,129 -43,10.667 -86,21.333 -129,32 -25.395,25.559 -51.081,50.825 -76.773,76.084 -11.951,11.695 -23.855,23.436 -35.385,35.548 -5.614,5.789 -11.228,11.579 -16.842,17.368 0,21.333 0,42.667 0,64 -10.667,32 -21.333,64 -32,96 -10.667,0 -21.333,0 -32,0 -21.333,10.667 -42.667,21.333 -64,32 -21.667,21.667 -43.333,43.333 -65,65 10.667,21.333 21.333,42.667 32,64 0,21.333 0,42.667 0,64 -21.333,32.333 -42.667,64.667 -64,97 0,43 0,86 0,129 -21.333,53.333 -42.667,106.667 -64,160 0,32.333 0,64.667 0,97 21.333,53.333 42.667,106.667 64,160 0,43 0,86 0,129 -10.667,53.667 -21.333,107.333 -32,161 10.667,75 21.333,150 32,225 -10.667,32 -21.333,64 -32,96 -32,32.333 -64,64.667 -96,97 -21.667,64.333 -43.333,128.667 -65,193 -21.333,0 -42.667,0 -64,0 -10.667,21.333 -21.333,42.667 -32,64 -10.667,-10.667 -21.333,-21.333 -32,-32 -21.667,0 -43.333,0 -65,0 -10.667,10.667 -21.333,21.333 -32,32 -32,-10.667 -64,-21.333 -96,-32 -10.667,10.667 -21.333,21.333 -32,32 0,10.667 0,21.333 0,32 -11,10.667 -22,21.333 -33,32 -10.667,21.667 -21.333,43.333 -32,65 -10.667,10.667 -21.333,21.333 -32,32 0,32 0,64 0,96 -10.667,0 -21.333,0 -32,0 -10.667,10.667 -21.333,21.333 -32,32 -21.667,0 -43.333,0 -65,0 0,21.667 0,43.333 0,65 -10.667,21.333 -21.333,42.667 -32,64 -10.667,0 -21.333,0 -32,0 -21.333,32.333 -42.667,64.667 -64,97 -21.333,0 -42.667,0 -64,0 0,21.333 0,42.667 0,64 -11,10.667 -22,21.333 -33,32 11,10.667 22,21.333 33,32 0,21.333 0,42.667 0,64 10.667,11 21.333,22 32,33 -10.667,21.333 -21.333,42.667 -32,64 21.333,10.667 42.667,21.333 64,32 -43,53.667 -86,107.333 -129,161 -21.333,0 -42.667,0 -64,0 0,32 0,64 0,96 -21.333,32.333 -42.667,64.667 -64,97 0,21.333 0,42.667 0,64 -10.667,0 -21.333,0 -32,0 0,43 0,86 0,129 -11,0 -22,0 -33,0 -10.667,32 -21.333,64 -32,96 -21.333,0 -42.667,0 -64,0 0,32.333 0,64.667 0,97 -10.667,10.667 -21.333,21.333 -32,32 0,-10.667 0,-21.333 0,-32 0,21.333 0,42.667 0,64 -10.667,21.333 -21.333,42.667 -32,64 -11,0 -22,0 -33,0 11,21.667 22,43.333 33,65 0,53.333 0,106.667 0,160 -11,0 -22,0 -33,0 0,10.667 0,21.333 0,32 -10.667,0 -21.333,0 -32,0 0,32.333 0,64.667 0,97 21.667,21.333 43.333,42.667 65,64 -21.667,10.667 -43.333,21.333 -65,32 0,43 0,86 0,129 -10.667,21.333 -21.333,42.667 -32,64 -21.333,0 -42.667,0 -64,0 0,10.667 0,21.333 0,32 -10.667,0 -21.333,0 -32,0 -32.333,32.333 -64.667,64.667 -97,97 0,10.667 0,21.333 0,32 -42.667,10.667 -85.333,21.333 -128,32 -11,-10.667 -22,-21.333 -33,-32 -21.333,10.667 -42.667,21.333 -64,32 -10.667,10.667 -21.333,21.333 -32,32 0,-10.667 0,-21.333 0,-32 -32,10.667 -64,21.333 -96,32 -43,32.333 -86,64.667 -129,97 0,32 0,64 0,96 -21.333,0 -42.667,0 -64,0 0,10.667 0,21.333 0,32 -11,0 -22,0 -33,0 -10.767,11.041 -21.421,22.217 -32.259,33.173 -31.914,21.275 -63.827,42.551 -95.741,63.827 -10.667,0 -21.333,0 -32,0 -10.667,10.667 -21.333,21.333 -32,32 -11,0 -22,0 -33,0 -21.333,-10.667 -42.667,-21.333 -64,-32 -32,10.667 -64,21.333 -96,32 0,10.667 0,21.333 0,32 -11,10.667 -22,21.333 -33,32 0,21.667 0,43.333 0,65 -10.667,-11 -21.333,-22 -32,-33 -10.667,21.667 -21.333,43.333 -32,65 -21.333,0 -42.667,0 -64,0 0,10.667 0,21.333 0,32 -10.667,0 -21.333,0 -32,0 0,10.667 0,21.333 0,32 -21.667,10.667 -43.333,21.333 -65,32 0,21.667 0,43.333 0,65 -10.667,10.667 -21.333,21.333 -32,32 10.667,10.667 21.333,21.333 32,32 -10.667,0 -21.333,0 -32,0 -10.667,10.667 -21.333,21.333 -32,32 10.667,0 21.333,0 32,0 -10.667,0 -21.333,0 -32,0 10.667,10.667 21.333,21.333 32,32 -10.667,10.667 -21.333,21.333 -32,32 -10.667,0 -21.333,0 -32,0 0,11 0,22 0,33 -10.667,0 -21.333,0 -32,0 0,10.667 0,21.333 0,32 10.667,10.667 21.333,21.333 32,32 -10.667,10.667 -21.333,21.333 -32,32 -43,-21.333 -86,-42.667 -129,-64 -21.333,10.667 -42.667,21.333 -64,32 -21.333,-10.667 -42.667,-21.333 -64,-32 0,-32.333 0,-64.667 0,-97 -11,0 -22,0 -33,0 -21.437,-10.686 -42.83,-21.48 -64.295,-32.098 -31.902,-10.634 -63.803,-21.268 -95.705,-31.902 -11,-21.333 -22,-42.667 -33,-64 -21.333,-11 -42.667,-22 -64,-33 -21.333,0 -42.667,0 -64,0 -53.667,-21.333 -107.333,-42.667 -161,-64 -10.667,-21.333 -21.333,-42.667 -32,-64 -43,-32.333 -86,-64.667 -129,-97 -21.333,-42.667 -42.667,-85.333 -64,-128 10.667,-21.667 21.333,-43.333 32,-65 -10.667,-10.667 -21.333,-21.333 -32,-32 -10.667,0 -21.333,0 -32,0 -32.333,21.667 -64.667,43.333 -97,65 -10.667,0 -21.333,0 -32,0 -10.667,-21.667 -21.333,-43.333 -32,-65 -32,0 -64,0 -96,0 0,10.667 0,21.333 0,32 -32.333,11 -64.667,22 -97,33 -10.667,-43 -21.333,-86 -32,-129 10.667,0 21.333,0 32,0 10.667,10.667 21.333,21.333 32,32 0,-10.667 0,-21.333 0,-32 -10.667,-10.667 -21.333,-21.333 -32,-32 0,-21.333 0,-42.667 0,-64 10.667,-11 21.333,-22 32,-33 10.667,11 21.333,22 32,33 11,-11 22,-22 33,-33 -43,-21.333 -86,-42.667 -129,-64 -21.333,10.667 -42.667,21.333 -64,32 -21.667,-10.667 -43.333,-21.333 -65,-32 -21.333,0 -42.667,0 -64,0 0,10.667 0,21.333 0,32 32.333,10.667 64.667,21.333 97,32 -11,11 -22,22 -33,33 -21.333,10.667 -42.667,21.333 -64,32 -10.667,0 -21.333,0 -32,0 -10.667,-21.667 -21.333,-43.333 -32,-65 -10.667,0 -21.333,0 -32,0 -21.667,-10.667 -43.333,-21.333 -65,-32 -10.667,0 -21.333,0 -32,0 0,21.667 0,43.333 0,65 -10.667,21.333 -21.333,42.667 -32,64 0,10.667 0,21.333 0,32 -10.667,10.667 -21.333,21.333 -32,32 -32.333,-21.333 -64.667,-42.667 -97,-64 -21.333,21.333 -42.667,42.667 -64,64 10.667,-32 21.333,-64 32,-96 -10.667,0 -21.333,0 -32,0 -10.667,10.667 -21.333,21.333 -32,32 10.667,10.667 21.333,21.333 32,32 -10.667,10.667 -21.333,21.333 -32,32 -10.667,-10.667 -21.333,-21.333 -32,-32 0,-10.667 0,-21.333 0,-32 -21.333,-10.667 -42.667,-21.333 -64,-32 -21.667,0 -43.333,0 -65,0 0,-10.667 0,-21.333 0,-32 -10.667,21.333 -21.333,42.667 -32,64 10.667,10.667 21.333,21.333 32,32 -21.333,21.333 -42.667,42.667 -64,64 -21.333,-21.333 -42.667,-42.667 -64,-64 -21.667,10.667 -43.333,21.333 -65,32 -32,-32 -64,-64 -96,-96 0,-21.667 0,-43.333 0,-65 -32.333,0 -64.667,0 -97,0 -21.333,11 -42.667,22 -64,33 -10.667,-11 -21.333,-22 -32,-33 0,-21.333 0,-42.667 0,-64 -21.333,-10.667 -42.667,-21.333 -64,-32 -11,0 -22,0 -33,0 11,32 22,64 33,96 -21.667,11 -43.333,22 -65,33 -42.667,0 -85.333,0 -128,0 0,21.333 0,42.667 0,64 -75,0 -150,0 -225,0 -32.333,10.667 -64.667,21.333 -97,32 10.667,21.333 21.333,42.667 32,64 -21.333,0 -42.667,0 -64,0 -21.437,10.686 -42.83,21.479 -64.295,32.099 -64.235,21.634 -128.47,43.267 -192.705,64.901 -32.333,-21.667 -64.667,-43.333 -97,-65 -32,0 -64,0 -96,0 -36.994,-18.528 -73.997,-37.039 -111.163,-55.219 -5.946,-2.927 -11.891,-5.854 -17.837,-8.781 0,-10.667 0,-21.333 0,-32 -32,-10.667 -64,-21.333 -96,-32 -21.667,0 -43.333,0 -65,0 -10.667,-10.667 -21.333,-21.333 -32,-32 10.667,-32.333 21.333,-64.667 32,-97 -10.667,-10.667 -21.333,-21.333 -32,-32 -10.667,10.667 -21.333,21.333 -32,32 0,10.667 0,21.333 0,32 -21.333,0 -42.667,0 -64,0 -21.667,21.667 -43.333,43.333 -65,65 -10.667,0 -21.333,0 -32,0 0,-21.667 0,-43.333 0,-65 -10.667,0 -21.333,0 -32,0 0,21.667 0,43.333 0,65 -10.667,0 -21.333,0 -32,0 -21.333,-10.667 -42.667,-21.333 -64,-32 0,21.333 0,42.667 0,64 -10.76,-0.07 -21.562,0.13 -32.295,-0.1 -32.235,-10.635 -64.47,-21.269 -96.705,-31.903 0,-10.667 0,-21.333 0,-32 -21.333,10.667 -42.667,21.333 -64,32 -21.333,-21.667 -42.667,-43.333 -64,-65 10.667,11 21.333,22 32,33 -21.826,10.805 -43.759,21.423 -65.518,32.345 -31.827,21.218 -63.655,42.437 -95.482,63.655 -10.667,-10.667 -21.333,-21.333 -32,-32 0,10.667 0,21.333 0,32 -21.667,0 -43.333,0 -65,0 -10.667,-10.667 -21.333,-21.333 -32,-32 -10.667,10.667 -21.333,21.333 -32,32 10.667,10.667 21.333,21.333 32,32 -10.667,10.667 -21.333,21.333 -32,32 -10.667,0 -21.333,0 -32,0 0,-32 0,-64 0,-96 -10.667,0 -21.333,0 -32,0 -10.667,21.333 -21.333,42.667 -32,64 -11,10.667 -22,21.333 -33,32 -32,-10.667 -64,-21.333 -96,-32 -10.667,-10.667 -21.333,-21.333 -32,-32 0,21.333 0,42.667 0,64 -10.667,0 -21.333,0 -32,0 0,-10.667 0,-21.333 0,-32 -21.667,10.667 -43.333,21.333 -65,32 -10.667,21.667 -21.333,43.333 -32,65 0,-43 0,-86 0,-129 -10.667,0 -21.333,0 -32,0 -10.667,21.333 -21.333,42.667 -32,64 -21.333,-10.667 -42.667,-21.333 -64,-32 0,-32 0,-64 0,-96 -21.667,-21.667 -43.333,-43.333 -65,-65 0,-64.333 0,-128.667 0,-193 -21.333,-42.667 -42.667,-85.333 -64,-128 0,-10.667 0,-21.333 0,-32 -21.333,10.667 -42.667,21.333 -64,32 -10.667,0 -21.333,0 -32,0 -21.667,-10.667 -43.333,-21.333 -65,-32 0,-10.667 0,-21.333 0,-32 -21.333,-21.667 -42.667,-43.333 -64,-65 -10.667,10.667 -21.333,21.333 -32,32 -10.667,-10.667 -21.333,-21.333 -32,-32 -21.667,0 -43.333,0 -65,0 11,-21.333 22,-42.667 33,-64 -11,-10.667 -22,-21.333 -33,-32 -10.667,0 -21.333,0 -32,0 10.667,-21.667 21.333,-43.333 32,-65 -10.667,-10.667 -21.333,-21.333 -32,-32 -32,-10.667 -64,-21.333 -96,-32 0,10.667 0,21.333 0,32 10.667,0 21.333,0 32,0 -10.667,10.667 -21.333,21.333 -32,32 -21.667,-32 -43.333,-64 -65,-96 0,-43 0,-86 0,-129 -21.333,0 -42.667,0 -64,0 -10.667,11 -21.333,22 -32,33 -21.333,-32.333 -42.667,-64.667 -64,-97 -21.667,0 -43.333,0 -65,0 0,-43 0,-86 0,-129 -21.333,11 -42.667,22 -64,33 -21.333,-11 -42.667,-22 -64,-33 0,-10.667 0,-21.333 0,-32 -10.667,0 -21.333,0 -32,0 -10.667,-21.333 -21.333,-42.667 -32,-64 -21.667,-21.333 -43.333,-42.667 -65,-64 0,-10.667 0,-21.333 0,-32 10.667,-21.667 21.333,-43.333 32,-65 0,-32 0,-64 0,-96 -10.667,-10.667 -21.333,-21.333 -32,-32 -10.667,-53.667 -21.333,-107.333 -32,-161 10.667,-21.333 21.333,-42.667 32,-64 -17.232,-17.777 -34.388,-35.628 -52.016,-53.016 -3.994,-3.994 -7.989,-7.989 -11.984,-11.984 -10.667,0 -21.333,0 -32,0 -10.667,21.667 -21.333,43.333 -32,65 -11,0 -22,0 -33,0 -10.667,-21.667 -21.333,-43.333 -32,-65 -21.333,-21.333 -42.667,-42.667 -64,-64 0,-32.333 0,-64.667 0,-97 -21.333,0 -42.667,0 -64,0 0,43 0,86 0,129 -11,21.333 -22,42.667 -33,64 -21.333,-10.667 -42.667,-21.333 -64,-32 0,-42.667 0,-85.333 0,-128 -21.333,-21.667 -42.667,-43.333 -64,-65 -10.667,0 -21.333,0 -32,0 -10.667,21.667 -21.333,43.333 -32,65 -11,-11 -22,-22 -33,-33 -10.667,0 -21.333,0 -32,0 -10.667,43 -21.333,86 -32,129 -21.333,0 -42.667,0 -64,0 0,10.667 0,21.333 0,32 -21.333,-10.667 -42.667,-21.333 -64,-32 10.667,21.333 21.333,42.667 32,64 -10.667,0 -21.333,0 -32,0 -21.667,-21.333 -43.333,-42.667 -65,-64 -10.667,10.667 -21.333,21.333 -32,32 -10.667,-21.333 -21.333,-42.667 -32,-64 -21.333,0 -42.667,0 -64,0 -11,21.333 -22,42.667 -33,64 -10.667,-21.333 -21.333,-42.667 -32,-64 -21.333,21.333 -42.667,42.667 -64,64 0,-10.667 0,-21.333 0,-32 10.667,0 21.333,0 32,0 -10.667,-10.667 -21.333,-21.333 -32,-32 -10.667,10.667 -21.333,21.333 -32,32 -21.667,-10.667 -43.333,-21.333 -65,-32 -10.667,10.667 -21.333,21.333 -32,32 -21.333,-21.333 -42.667,-42.667 -64,-64 -10.667,10.667 -21.333,21.333 -32,32 -10.667,-10.667 -21.333,-21.333 -32,-32 0,-32.333 0,-64.667 0,-97 -21.667,32.333 -43.333,64.667 -65,97 -10.667,-21.667 -21.333,-43.333 -32,-65 -21.333,-21.333 -42.667,-42.667 -64,-64 0,-32 0,-64 0,-96 -10.667,-10.667 -21.333,-21.333 -32,-32 -10.667,0 -21.333,0 -32,0 -10.667,21.333 -21.333,42.667 -32,64 -11,-10.667 -22,-21.333 -33,-32 11,-21.667 22,-43.333 33,-65 0,-10.667 0,-21.333 0,-32 -11,0 -22,0 -33,0 -10.667,21.667 -21.333,43.333 -32,65 -10.667,0 -21.333,0 -32,0 0,-32.333 0,-64.667 0,-97 -10.667,0 -21.333,0 -32,0 -10.667,10.667 -21.333,21.333 -32,32 10.667,21.667 21.333,43.333 32,65 -32.333,10.667 -64.667,21.333 -97,32 -32,-32.333 -64,-64.667 -96,-97 -21.333,10.667 -42.667,21.333 -64,32 -21.667,0 -43.333,0 -65,0 -106.92,-53.493 -214.003,-106.661 -321,-160 0,-21.667 0,-43.333 0,-65 21.333,-10.667 42.667,-21.333 64,-32 -10.667,-10.667 -21.333,-21.333 -32,-32 -21.333,10.667 -42.667,21.333 -64,32 -10.667,0 -21.333,0 -32,0 -11,-10.667 -22,-21.333 -33,-32 11,-21.333 22,-42.667 33,-64 0,-10.667 0,-21.333 0,-32 -32.333,0 -64.667,0 -97,0 10.667,-32.333 21.333,-64.667 32,-97 0,-10.667 0,-21.333 0,-32 -10.667,0 -21.333,0 -32,0 -21.333,10.667 -42.667,21.333 -64,32 0,10.667 0,21.333 0,32 -21.667,21.667 -43.333,43.333 -65,65 -32,0 -64,0 -96,0 0,21.333 0,42.667 0,64 -10.667,-10.667 -21.333,-21.333 -32,-32 -10.667,10.667 -21.333,21.333 -32,32 -21.667,-10.667 -43.333,-21.333 -65,-32 -10.667,21.333 -21.333,42.667 -32,64 0,21.333 0,42.667 0,64 -21.333,-21.333 -42.667,-42.667 -64,-64 0,-21.333 0,-42.667 0,-64 -10.667,0 -21.333,0 -32,0 -10.667,32 -21.333,64 -32,96 -32.333,-10.667 -64.667,-21.333 -97,-32 -21.368,-32.099 -42.827,-64.146 -64.138,-96.279 -21.287,-42.907 -42.575,-85.814 -63.862,-128.721 0,-43 0,-86 0,-129 -32.333,-10.667 -64.667,-21.333 -97,-32 -21.333,21.333 -42.667,42.667 -64,64 -10.667,0 -21.333,0 -32,0 -11,-10.667 -22,-21.333 -33,-32 11,-21.333 22,-42.667 33,-64 -21.667,-21.333 -43.333,-42.667 -65,-64 -10.667,0 -21.333,0 -32,0 -21.333,-43 -42.667,-86 -64,-129 -21.333,-10.667 -42.667,-21.333 -64,-32 0,-32 0,-64 0,-96 -21.667,-11 -43.333,-22 -65,-33 -21.333,-21.333 -42.667,-42.667 -64,-64 -21.333,0 -42.667,0 -64,0 -11,10.667 -22,21.333 -33,32 0,10.667 0,21.333 0,32 -10.667,11 -21.333,22 -32,33 0,-21.667 0,-43.333 0,-65 -21.333,0 -42.667,0 -64,0 -10.667,21.667 -21.333,43.333 -32,65 -10.667,0 -21.333,0 -32,0 -10.667,-11 -21.333,-22 -32,-33 0,-10.667 0,-21.333 0,-32 -43,-10.667 -86,-21.333 -129,-32 -10.667,-21.333 -21.333,-42.667 -32,-64 10.667,-32.333 21.333,-64.667 32,-97 -21.333,0 -42.667,0 -64,0 0,-32 0,-64 0,-96 -21.667,-10.667 -43.333,-21.333 -65,-32 -21.392,-64.421 -42.679,-128.885 -64.137,-193.279 -10.621,-21.574 -21.242,-43.147 -31.863,-64.721 -21.333,0 -42.667,0 -64,0 -21.667,-10.667 -43.333,-21.333 -65,-32 10.667,-32 21.333,-64 32,-96 21.667,-10.667 43.333,-21.333 65,-32 0,-10.667 0,-21.333 0,-32 -10.667,-11 -21.333,-22 -32,-33 -43,0 -86,0 -129,0 0,-10.667 0,-21.333 0,-32 10.667,-10.667 21.333,-21.333 32,-32 0,-21.333 0,-42.667 0,-64 -53.667,0 -107.333,0 -161,0 0,-21.667 0,-43.333 0,-65 -21.333,11 -42.667,22 -64,33 0,-21.667 0,-43.333 0,-65 -21.333,0 -42.667,0 -64,0 0,-32 0,-64 0,-96 -10.667,0 -21.333,0 -32,0 -11,10.667 -22,21.333 -33,32 11,21.333 22,42.667 33,64 -21.667,10.667 -43.333,21.333 -65,32 -32,-32 -64,-64 -96,-96 -10.667,10.667 -21.333,21.333 -32,32 10.667,21.333 21.333,42.667 32,64 0,11 0,22 0,33 -10.667,10.667 -21.333,21.333 -32,32 -32.333,0 -64.667,0 -97,0 -10.667,10.667 -21.333,21.333 -32,32 -32,0 -64,0 -96,0 0,10.667 0,21.333 0,32 10.667,0 21.333,0 32,0 0,10.667 0,21.333 0,32 10.667,10.667 21.333,21.333 32,32 0,11 0,22 0,33 -21.333,0 -42.667,0 -64,0 -11,-11 -22,-22 -33,-33 -64,0 -128,0 -192,0 -53.667,-21.333 -107.333,-42.667 -161,-64 -32.333,-21.333 -64.667,-42.667 -97,-64 -32,10.667 -64,21.333 -96,32 -10.852,-10.769 -21.55,-21.715 -32.497,-32.374 -42.834,-32.209 -85.669,-64.417 -128.503,-96.626 -10.667,-42.667 -21.333,-85.333 -32,-128 -21.333,-11 -42.667,-22 -64,-33 -11,11 -22,22 -33,33 -17.232,-17.777 -34.388,-35.628 -52.016,-53.016 -3.994,-3.994 -7.989,-7.989 -11.984,-11.984 32.333,0 64.667,0 97,0 -21.667,-21.333 -43.333,-42.667 -65,-64 0,-32 0,-64 0,-96 -107,0 -214,0 -321,0 -43,-32.333 -86,-64.667 -129,-97 -32,-64.333 -64,-128.667 -96,-193 -59.817,-19.694 -119.61,-39.463 -179.332,-59.444 -36.863,-12.263 -73.782,-24.362 -110.668,-36.556 -10.667,-21.667 -21.333,-43.333 -32,-65 -53.667,-21.333 -107.333,-42.667 -161,-64 -32,10.667 -64,21.333 -96,32 -21.333,-21.333 -42.667,-42.667 -64,-64 -75.333,-21.333 -150.667,-42.667 -226,-64 -42.667,0 -85.333,0 -128,0 -32.333,-21.667 -64.667,-43.333 -97,-65 -25.559,25.395 -50.825,51.081 -76.084,76.773 -17.162,17.551 -34.556,34.873 -51.916,52.227 -10.667,-10.667 -21.333,-21.333 -32,-32 -21.667,32 -43.333,64 -65,96 -32,-10.667 -64,-21.333 -96,-32 -32,-21.333 -64,-42.667 -96,-64 -21.667,0 -43.333,0 -65,0 -10.667,10.667 -21.333,21.333 -32,32 0,21.333 0,42.667 0,64 -10.667,32.333 -21.333,64.667 -32,97 0,32 0,64 0,96 -10.667,10.667 -21.333,21.333 -32,32 -21.667,0 -43.333,0 -65,0 -32,21.667 -64,43.333 -96,65 -32.333,10.667 -64.667,21.333 -97,32 -10.851,-10.77 -21.552,-21.712 -32.496,-32.376 -42.501,-32.208 -85.003,-64.416 -127.504,-96.624 -10.667,0 -21.333,0 -32,0 0,10.667 0,21.333 0,32 -11,11 -22,22 -33,33 -21.333,-21.667 -42.667,-43.333 -64,-65 -21.333,21.667 -42.667,43.333 -64,65 -10.667,0 -21.333,0 -32,0 -10.667,-32.333 -21.333,-64.667 -32,-97 -21.667,-10.667 -43.333,-21.333 -65,-32 -10.667,0 -21.333,0 -32,0 -10.667,10.667 -21.333,21.333 -32,32 -21.333,0 -42.667,0 -64,0 0,-21.333 0,-42.667 0,-64 -11,0 -22,0 -33,0 -32,32 -64,64 -96,96 -10.667,0 -21.333,0 -32,0 0,-32 0,-64 0,-96 -10.667,-10.667 -21.333,-21.333 -32,-32 -21.667,0 -43.333,0 -65,0 -10.667,42.667 -21.333,85.333 -32,128 0,10.667 0,21.333 0,32 -32,0 -64,0 -96,0 -10.667,-10.667 -21.333,-21.333 -32,-32 10.667,-21.333 21.333,-42.667 32,-64 0,-43 0,-86 0,-129 -21.667,0 -43.333,0 -65,0 -10.667,10.667 -21.333,21.333 -32,32 -10.667,0 -21.333,0 -32,0 -21.333,-10.667 -42.667,-21.333 -64,-32 -10.667,0 -21.333,0 -32,0 -21.667,-21.333 -43.333,-42.667 -65,-64 -32,43 -64,86 -96,129 -32.333,10.667 -64.667,21.333 -97,32 -10.667,21.333 -21.333,42.667 -32,64 -10.667,10.667 -21.333,21.333 -32,32 -21.333,-21.333 -42.667,-42.667 -64,-64 10.667,-32.333 21.333,-64.667 32,-97 0,-21.333 0,-42.667 0,-64 -85.769,-0.03 -171.544,0.05 -257.309,-0.04 -85.563,-10.654 -171.127,-21.308 -256.691,-31.962 -22.442,-22.17 -45.033,-44.193 -67.382,-66.456 -15.511,-15.98 -30.895,-32.084 -46.841,-47.633 -37.259,-36.971 -74.518,-73.941 -111.777,-110.911 -21.333,-32.333 -42.667,-64.667 -64,-97 -64.223,-32.222 -128.643,-64.048 -193,-96 -10.667,-32 -21.333,-64 -32,-96 0,-11 0,-22 0,-33 10.667,-21.333 21.333,-42.667 32,-64 10.667,-53.667 21.333,-107.333 32,-161 0,-53.667 0,-107.333 0,-161 -10.667,-53.333 -21.333,-106.667 -32,-160 -10.667,-10.667 -21.333,-21.333 -32,-32 -64.223,32.222 -128.643,64.048 -193,96 -10.667,0 -21.333,0 -32,0 -21.42,-32.063 -42.723,-64.22 -64.217,-96.223 -10.594,-10.926 -21.189,-21.851 -31.783,-32.777 -64.333,0 -128.667,0 -193,0 -86.104,-32.014 -172.181,-64.116 -258.302,-96.075 -42.566,-10.642 -85.132,-21.283 -127.698,-31.925 -21.667,-21.333 -43.333,-42.667 -65,-64 -10.667,-53.667 -21.333,-107.333 -32,-161 10.667,-32.333 21.333,-64.667 32,-97 21.667,-32 43.333,-64 65,-96 0,-10.667 0,-21.333 0,-32 -21.667,-21.667 -43.333,-43.333 -65,-65 -10.667,11 -21.333,22 -32,33 -32,10.667 -64,21.333 -96,32 10.667,32 21.333,64 32,96 0,32.333 0,64.667 0,97 -10.667,32 -21.333,64 -32,96 -32.333,0 -64.667,0 -97,0 -10.667,-21.333 -21.333,-42.667 -32,-64 21.667,-53.667 43.333,-107.333 65,-161 -17.777,-17.232 -35.628,-34.388 -53.016,-52.016 -4.289,-4.124 -8.28,-8.61 -12.757,-12.507 -31.742,-21.492 -63.485,-42.985 -95.227,-64.477 -21.667,0 -43.333,0 -65,0 -10.745,21.74 -21.359,43.56 -32.187,65.249 -31.937,42.584 -63.875,85.167 -95.813,127.751 -10.667,0 -21.333,0 -32,0 -10.667,-21.333 -21.333,-42.667 -32,-64 0,-21.333 0,-42.667 0,-64 21.333,-32.333 42.667,-64.667 64,-97 21.333,-10.667 42.667,-21.333 64,-32 10.667,-21.333 21.333,-42.667 32,-64 -18.428,-37.493 -36.871,-74.978 -55.649,-112.297 -13.45,-26.901 -26.901,-53.802 -40.351,-80.703 -10.667,-10.667 -21.333,-21.333 -32,-32 -75,0 -150,0 -225,0 -53.667,32 -107.333,64 -161,96 -21.375,-21.432 -42.876,-42.762 -64.173,-64.258 -21.698,-32.308 -43.271,-64.718 -65.047,-96.962 -10.593,-10.593 -21.187,-21.187 -31.78,-31.78 -21.333,10.667 -42.667,21.333 -64,32 -10.667,32.333 -21.333,64.667 -32,97 -21.667,0 -43.333,0 -65,0 -21.333,-43 -42.667,-86 -64,-129 -10.76,0.07 -21.562,-0.13 -32.295,0.1 -32.235,10.635 -64.47,21.269 -96.705,31.903 -10.667,0 -21.333,0 -32,0 0,-21.333 0,-42.667 0,-64 10.667,-21.333 21.333,-42.667 32,-64 -10.667,-10.667 -21.333,-21.333 -32,-32 -10.667,10.667 -21.333,21.333 -32,32 0,-10.667 0,-21.333 0,-32 21.333,-32.333 42.667,-64.667 64,-97 21.667,-75 43.333,-150 65,-225 -10.667,-10.667 -21.333,-21.333 -32,-32 -21.667,-10.667 -43.333,-21.333 -65,-32 -42.667,0 -85.333,0 -128,0 -21.667,-32.333 -43.333,-64.667 -65,-97 0.08,-10.755 -0.155,-21.571 0.116,-32.288 21.628,-53.571 43.256,-107.141 64.884,-160.712 0,-53.333 0,-106.667 0,-160 -32.333,-96.667 -64.667,-193.333 -97,-290 0,-21.333 0,-42.667 0,-64 -10.667,-21.333 -21.333,-42.667 -32,-64 -21.333,0 -42.667,0 -64,0 -43,21.333 -86,42.667 -129,64 -85.667,0 -171.333,0 -257,0 -10.667,10.667 -21.333,21.333 -32,32 21.333,21.333 42.667,42.667 64,64 0,21.667 0,43.333 0,65 -21.333,0 -42.667,0 -64,0 -64.333,-32.333 -128.667,-64.667 -193,-97 -43.063,-32.085 -86.206,-64.078 -129.22,-96.22 -10.593,-10.593 -21.187,-21.187 -31.78,-31.78 53.667,-53.667 107.333,-107.333 161,-161 21.333,-43 42.667,-86 64,-129 0,-10.667 0,-21.333 0,-32 -21.333,-42.667 -42.667,-85.333 -64,-128 0,-11 0,-22 0,-33 10.667,-21.333 21.333,-42.667 32,-64 -21.333,-21.333 -42.667,-42.667 -64,-64 0,-21.667 0,-43.333 0,-65 32,-32 64,-64 96,-96 10.667,-32 21.333,-64 32,-96 -17.232,-17.777 -34.388,-35.628 -52.016,-53.016 -3.994,-3.994 -7.989,-7.989 -11.984,-11.984 -53.667,0 -107.333,0 -161,0 -64.333,-21.333 -128.667,-42.667 -193,-64 -10.667,0 -21.333,0 -32,0 -10.667,-21.333 -21.333,-42.667 -32,-64 -21.333,-118 -42.667,-236 -64,-354 0,-53.667 0,-107.333 0,-161 -21.667,-53.667 -43.333,-107.333 -65,-161 10.667,-21.333 21.333,-42.667 32,-64 53.667,-10.667 107.333,-21.333 161,-32 10.667,-10.667 21.333,-21.333 32,-32 -10.667,-21.667 -21.333,-43.333 -32,-65 -64.333,0 -128.667,0 -193,0 -10.667,-10.667 -21.333,-21.333 -32,-32 -21.333,-85.667 -42.667,-171.333 -64,-257 0,-53.667 0,-107.333 0,-161 10.667,-10.667 21.333,-21.333 32,-32 43,-10.667 86,-21.333 129,-32 10.667,-10.667 21.333,-21.333 32,-32 -10.667,-21.333 -21.333,-42.667 -32,-64 -43,0 -86,0 -129,0 -21.333,-64.333 -42.667,-128.667 -64,-193 0,-21.667 0,-43.333 0,-65 53.333,-53.333 106.667,-106.667 160,-160 75.333,-21.667 150.667,-43.333 226,-65 10.667,-21.333 21.333,-42.667 32,-64 -32.112,-64.445 -64.619,-128.691 -97,-193 -10.667,-10.667 -21.333,-21.333 -32,-32 53.758,-43.05 107.474,-86.159 161.259,-129.173 31.914,-21.275 63.827,-42.551 95.741,-63.827 0,-10.667 0,-21.333 0,-32 -32,-32.333 -64,-64.667 -96,-97 -19.884,-59.53 -39.688,-119.087 -59.286,-178.712 -1.538,-4.872 -3.339,-9.701 -4.714,-14.599 0,-10.563 0,-21.126 0,-31.689 32,10.667 64,21.333 96,32 -21.333,-85.667 -42.667,-171.333 -64,-257 -64.333,-85.667 -128.667,-171.333 -193,-257 -32.333,-21.333 -64.667,-42.667 -97,-64 -21.333,0 -42.667,0 -64,0 -21.333,-10.667 -42.667,-21.333 -64,-32 0,-32.333 0,-64.667 0,-97 21.333,0 42.667,0 64,0 10.667,-32 21.333,-64 32,-96 -10.667,-32.333 -21.333,-64.667 -32,-97 10.667,-43 21.333,-86 32,-129 0,-32 0,-64 0,-96 -19.884,-59.53 -39.688,-119.087 -59.286,-178.712 -1.572,-4.762 -3.143,-9.525 -4.714,-14.288 -32.333,-10.667 -64.667,-21.333 -97,-32 -32,0 -64,0 -96,0 -10.667,-10.667 -21.333,-21.333 -32,-32 0,-10.667 0,-21.333 0,-32 -17.269,-17.261 -34.611,-34.451 -51.489,-52.098 -4.17,-4.301 -8.341,-8.601 -12.511,-12.902 10.667,-10.667 21.333,-21.333 32,-32 0,-21.333 0,-42.667 0,-64 21.333,-10.667 42.667,-21.333 64,-32 -0.05,-21.764 0.101,-43.553 -0.07,-65.302 -10.642,-42.566 -21.283,-85.132 -31.925,-127.698 -21.333,-32.333 -42.667,-64.667 -64,-97 10.667,-42.667 21.333,-85.333 32,-128 -21.667,-21.667 -43.333,-43.333 -65,-65 -10.667,-21.333 -21.333,-42.667 -32,-64 10.667,-32 21.333,-64 32,-96 32.333,0 64.667,0 97,0 21.376,-21.765 42.873,-43.432 64.173,-65.259 21.275,-31.914 42.551,-63.827 63.827,-95.741 0,-53.667 0,-107.333 0,-161 -21.333,-42.667 -42.667,-85.333 -64,-128 21.333,-32.333 42.667,-64.667 64,-97 21.667,-10.667 43.333,-21.333 65,-32 32.085,-43.063 64.077,-86.207 96.221,-129.219 32.26,-31.927 64.519,-63.854 96.779,-95.781 21.333,-64.333 42.667,-128.667 64,-193 10.667,-10.667 21.333,-21.333 32,-32 18.428,-37.493 36.871,-74.978 55.649,-112.297 2.735,-5.683 5.848,-11.277 8.351,-17.014 0,-21.23 0,-42.459 0,-63.689 -21.333,-43 -42.667,-86 -64,-129 0,-32 0,-64 0,-96 10.667,-43 21.333,-86 32,-129 -10.667,-64.333 -21.333,-128.667 -32,-193 -21.333,-21.333 -42.667,-42.667 -64,-64 -10.667,-43 -21.333,-86 -32,-129 -11,-21.333 -22,-42.667 -33,-64 21.667,-75 43.333,-150 65,-225 -10.667,-43 -21.333,-86 -32,-129 -11,-21.333 -22,-42.667 -33,-64 0,-53.667 0,-107.333 0,-161 11,-42.667 22,-85.333 33,-128 53.333,-53.667 106.667,-107.333 160,-161 11,-43 22,-86 33,-129 -11,-21.333 -22,-42.667 -33,-64 -42.667,-32 -85.333,-64 -128,-96 -21.773,-53.846 -43.43,-107.744 -65.276,-161.557 -21.242,-42.815 -42.483,-85.629 -63.724,-128.443 -10.667,-42.667 -21.333,-85.333 -32,-128 -23.71,-23.983 -47.222,-48.162 -71.066,-72.011 -40.645,-40.33 -81.289,-80.659 -121.934,-120.989 -85.667,-32.333 -171.333,-64.667 -257,-97 0,10.667 0,21.333 0,32 10.667,10.667 21.333,21.333 32,32 0,11 0,22 0,33 -10.667,21.333 -21.333,42.667 -32,64 -43,21.333 -86,42.667 -129,64 -10.667,0 -21.333,0 -32,0 -10.667,-10.667 -21.333,-21.333 -32,-32 0,10.667 0,21.333 0,32 10.667,21.667 21.333,43.333 32,65 -32,10.667 -64,21.333 -96,32 0,85.667 0,171.333 0,257 -21.667,10.667 -43.333,21.333 -65,32 -32,-21.333 -64,-42.667 -96,-64 -10.667,42.667 -21.333,85.333 -32,128 -21.667,0 -43.333,0 -65,0 -10.667,11 -21.333,22 -32,33 0.07,10.76 -0.131,21.562 0.1,32.295 10.634,31.902 21.268,63.803 31.902,95.705 0,10.667 0,21.333 0,32 -10.667,0 -21.333,0 -32,0 -10.667,-10.667 -21.333,-21.333 -32,-32 -42.667,10.667 -85.333,21.333 -128,32 0,-32 0,-64 0,-96 -11,0 -22,0 -33,0 -21.333,10.667 -42.667,21.333 -64,32 -10.667,10.667 -21.333,21.333 -32,32 -10.667,-10.667 -21.333,-21.333 -32,-32 -10.667,-43 -21.333,-86 -32,-129 -10.667,0 -21.333,0 -32,0 -11,21.667 -22,43.333 -33,65 0,-10.667 0,-21.333 0,-32 -10.667,-11 -21.333,-22 -32,-33 21.667,-21.333 43.333,-42.667 65,-64 -21.667,0 -43.333,0 -65,0 -21.333,-21.333 -42.667,-42.667 -64,-64 -32.333,32 -64.667,64 -97,96 0,21.667 0,43.333 0,65 -32,-11 -64,-22 -96,-33 21.333,-32 42.667,-64 64,-96 -21.333,-21.333 -42.667,-42.667 -64,-64 0,-11 0,-22 0,-33 42.667,0 85.333,0 128,0 11,-10.667 22,-21.333 33,-32 -11,0 -22,0 -33,0 0,-21.333 0,-42.667 0,-64 -21.333,10.667 -42.667,21.333 -64,32 -10.667,10.667 -21.333,21.333 -32,32 -43,0 -86,0 -129,0 -10.667,10.667 -21.333,21.333 -32,32 0,21.667 0,43.333 0,65 -10.667,0 -21.333,0 -32,0 -21.333,-21.667 -42.667,-43.333 -64,-65 -21.333,-10.667 -42.667,-21.333 -64,-32 10.667,-21.333 21.333,-42.667 32,-64 0,-21.333 0,-42.667 0,-64 -21.667,10.667 -43.333,21.333 -65,32 0.07,10.759 -0.135,21.563 0.101,32.294 10.966,31.902 21.933,63.804 32.899,95.706 -11,11 -22,22 -33,33 -10.667,21.333 -21.333,42.667 -32,64 -10.667,10.667 -21.333,21.333 -32,32 -10.667,-10.667 -21.333,-21.333 -32,-32 0,10.667 0,21.333 0,32 -10.686,-10.779 -21.588,-21.402 -32.139,-32.278 -10.62,-21.241 -21.241,-42.481 -31.861,-63.722 21.333,-11 42.667,-22 64,-33 0,-10.667 0,-21.333 0,-32 -10.667,0 -21.333,0 -32,0 -10.667,-10.667 -21.333,-21.333 -32,-32 -10.667,0 -21.333,0 -32,0 0,21.333 0,42.667 0,64 -21.667,0 -43.333,0 -65,0 0,21.667 0,43.333 0,65 -10.667,10.667 -21.333,21.333 -32,32 0,10.667 0,21.333 0,32 -53.667,0 -107.333,0 -161,0 10.667,-21.333 21.333,-42.667 32,-64 0,-10.667 0,-21.333 0,-32 11,-11 22,-22 33,-33 -17.777,-17.232 -35.628,-34.388 -53.016,-52.016 -3.994,-3.994 -7.989,-7.989 -11.984,-11.984 -21.333,0 -42.667,0 -64,0 -21.333,10.667 -42.667,21.333 -64,32 0,10.667 0,21.333 0,32 -21.667,0 -43.333,0 -65,0 0,-21.333 0,-42.667 0,-64 -10.667,0 -21.333,0 -32,0 -10.667,10.667 -21.333,21.333 -32,32 10.667,10.667 21.333,21.333 32,32 -10.667,0 -21.333,0 -32,0 -10.667,11 -21.333,22 -32,33 0,-11 0,-22 0,-33 -10.667,-10.667 -21.333,-21.333 -32,-32 -23.495,11.646 -47.12,23.035 -70.529,34.851 -19.491,10.05 -38.981,20.099 -58.471,30.149 -10.667,42.667 -21.333,85.333 -32,128 21.333,10.667 42.667,21.333 64,32 -10.667,0 -21.333,0 -32,0 -21.333,-10.667 -42.667,-21.333 -64,-32 0,21.667 0,43.333 0,65 -10.667,-11 -21.333,-22 -32,-33 -10.667,0 -21.333,0 -32,0 0,-21.333 0,-42.667 0,-64 -32.333,32.333 -64.667,64.667 -97,97 -10.667,0 -21.333,0 -32,0 -21.333,-43 -42.667,-86 -64,-129 -53.667,0 -107.333,0 -161,0 -21.667,10.667 -43.333,21.333 -65,32 11,10.667 22,21.333 33,32 -11,0 -22,0 -33,0 -10.667,21.667 -21.333,43.333 -32,65 -10.667,-11 -21.333,-22 -32,-33 0,-32 0,-64 0,-96 -21.333,0 -42.667,0 -64,0 0,10.667 0,21.333 0,32 -21.333,0 -42.667,0 -64,0 0,-10.667 0,-21.333 0,-32 -11,10.667 -22,21.333 -33,32 -10.667,-10.667 -21.333,-21.333 -32,-32 -10.667,10.667 -21.333,21.333 -32,32 -10.667,-10.667 -21.333,-21.333 -32,-32 -32,10.667 -64,21.333 -96,32 0,21.333 0,42.667 0,64 -32.333,0 -64.667,0 -97,0 0,11 0,22 0,33 10.667,21.333 21.333,42.667 32,64 -10.667,-10.667 -21.333,-21.333 -32,-32 -10.667,10.667 -21.333,21.333 -32,32 10.667,0 21.333,0 32,0 -21.333,10.667 -42.667,21.333 -64,32 -10.667,0 -21.333,0 -32,0 -11.098,-10.709 -22.102,-21.536 -33.259,-32.173 -31.914,-21.275 -63.827,-42.551 -95.741,-63.827 0,21.333 0,42.667 0,64 -10.667,-10.667 -21.333,-21.333 -32,-32 0,10.667 0,21.333 0,32 -10.667,10.667 -21.333,21.333 -32,32 -11,0 -22,0 -33,0 -21.333,10.667 -42.667,21.333 -64,32 0,-21.333 0,-42.667 0,-64 -10.667,10.667 -21.333,21.333 -32,32 0,21.333 0,42.667 0,64 -10.667,0 -21.333,0 -32,0 -21.333,-10.667 -42.667,-21.333 -64,-32 -11,0 -22,0 -33,0 -10.667,-10.667 -21.333,-21.333 -32,-32 -10.667,10.667 -21.333,21.333 -32,32 -42.667,0 -85.333,0 -128,0 -11,10.667 -22,21.333 -33,32 0,32.333 0,64.667 0,97 -42.667,10.667 -85.333,21.333 -128,32 -32.333,-10.667 -64.667,-21.333 -97,-32 0,10.667 0,21.333 0,32 -10.667,10.667 -21.333,21.333 -32,32 0,10.667 0,21.333 0,32 -10.667,0 -21.333,0 -32,0 -10.667,10.667 -21.333,21.333 -32,32 0,11 0,22 0,33 21.333,0 42.667,0 64,0 -21.333,0 -42.667,0 -64,0 -10.667,-11 -21.333,-22 -32,-33 10.667,-32 21.333,-64 32,-96 -21.333,-10.667 -42.667,-21.333 -64,-32 -11,10.667 -22,21.333 -33,32 -21.333,0 -42.667,0 -64,0 10.667,10.667 21.333,21.333 32,32 -10.667,0 -21.333,0 -32,0 -21.333,-10.667 -42.667,-21.333 -64,-32 -32.333,0 -64.667,0 -97,0 0,21.333 0,42.667 0,64 -10.667,0 -21.333,0 -32,0 0,-10.667 0,-21.333 0,-32 -21.333,0 -42.667,0 -64,0 -10.667,10.667 -21.333,21.333 -32,32 -10.76,-0.07 -21.562,0.13 -32.295,-0.1 -32.235,-10.635 -64.47,-21.269 -96.705,-31.903 0,21.333 0,42.667 0,64 -21.333,-10.667 -42.667,-21.333 -64,-32 -10.667,0 -21.333,0 -32,0 10.667,10.667 21.333,21.333 32,32 -10.667,11 -21.333,22 -32,33 -11,-11 -22,-22 -33,-33 -10.667,11 -21.333,22 -32,33 0,10.667 0,21.333 0,32 -10.667,-10.667 -21.333,-21.333 -32,-32 -53.667,-11 -107.333,-22 -161,-33 -289.333,-128.333 -578.667,-256.667 -868,-385 z"
         id="path44" />
    </g>
  </g>
</svg>
