<?xml version="1.0" encoding="UTF-8" standalone="no"?>
<!-- Created with Inkscape (http://www.inkscape.org/) -->

<svg
   xmlns:dc="http://purl.org/dc/elements/1.1/"
   xmlns:cc="http://creativecommons.org/ns#"
   xmlns:rdf="http://www.w3.org/1999/02/22-rdf-syntax-ns#"
   xmlns:svg="http://www.w3.org/2000/svg"
   xmlns="http://www.w3.org/2000/svg"
   xmlns:sodipodi="http://sodipodi.sourceforge.net/DTD/sodipodi-0.dtd"
   xmlns:inkscape="http://www.inkscape.org/namespaces/inkscape"
   width="28.447037mm"
   height="33.769127mm"
   viewBox="0 0 28.447037 33.769127"
   version="1.1"
   id="svg751"
   inkscape:version="0.92.5 (2060ec1f9f, 2020-04-08)"
   sodipodi:docname="rr.svg">
  <defs
     id="defs745" />
  <sodipodi:namedview
     id="base"
     pagecolor="#ffffff"
     bordercolor="#666666"
     borderopacity="1.0"
     inkscape:pageopacity="0.0"
     inkscape:pageshadow="2"
     inkscape:zoom="0.35"
     inkscape:cx="522.32961"
     inkscape:cy="-373.32719"
     inkscape:document-units="mm"
     inkscape:current-layer="layer1"
     showgrid="false"
     inkscape:window-width="1366"
     inkscape:window-height="704"
     inkscape:window-x="0"
     inkscape:window-y="0"
     inkscape:window-maximized="1" />
  <metadata
     id="metadata748">
    <rdf:RDF>
      <cc:Work
         rdf:about="">
        <dc:format>image/svg+xml</dc:format>
        <dc:type
           rdf:resource="http://purl.org/dc/dcmitype/StillImage" />
        <dc:title></dc:title>
      </cc:Work>
    </rdf:RDF>
  </metadata>
  <g
     inkscape:label="Layer 1"
     inkscape:groupmode="layer"
     id="layer1"
     transform="translate(65.62828,-16.288055)">
    <g
       transform="matrix(9.9994773e-4,0,0,9.9994773e-4,-114.6336,14.806908)"
       id="Roraima">
      <path
         inkscape:connector-curvature="0"
         id="path50"
         d="m 52171,10353 c 0,-118 0,-236 0,-354 -32.085,-42.7307 -64.08,-85.5387 -96.221,-128.221 -64.26,-64.2597 -128.519,-128.5193 -192.779,-192.779 -21.333,-32.3333 -42.667,-64.6667 -64,-97 -32.333,-21.3333 -64.667,-42.6667 -97,-64 -0.08,-10.756 0.154,-21.5712 -0.115,-32.2904 -21.295,-53.5699 -42.59,-107.1397 -63.885,-160.7096 -53.667,-32.3333 -107.333,-64.6667 -161,-97 -21.333,-21.3333 -42.667,-42.6667 -64,-64 -75,-42.6667 -150,-85.3333 -225,-128 -32.333,-11 -64.667,-22 -97,-33 -32,-21.3333 -64,-42.6667 -96,-64 -32.333,-10.6667 -64.667,-21.3333 -97,-32 -42.667,10.6667 -85.333,21.3333 -128,32 -10.77,-10.8524 -21.716,-21.5512 -32.376,-32.4996 -32.252,-42.9288 -64.577,-85.8092 -96.785,-128.7684 -31.946,-53.244 -63.893,-106.488 -95.839,-159.732 -43.064,-32.4181 -86.205,-64.7477 -129.221,-97.221 -31.926,-31.9263 -63.853,-63.8527 -95.779,-95.779 -10.667,-75 -21.333,-150 -32,-225 -32.333,-11 -64.667,-22 -97,-33 -32,-21.3333 -64,-42.6667 -96,-64 -21.667,-42.6667 -43.333,-85.3333 -65,-128 -33.927,-22.908 -67.736,-45.9916 -101.739,-68.7865 -30.42,-20.0711 -60.841,-40.1423 -91.261,-60.2135 0,-10.6667 0,-21.3333 0,-32 -10.667,-10.6667 -21.333,-21.3333 -32,-32 -10.667,-43 -21.333,-86 -32,-129 -32,-43 -64,-86 -96,-129 -21.667,-64.3333 -43.333,-128.6667 -65,-193 -21.433,-21.3752 -42.762,-42.8775 -64.26,-64.1734 -32.153,-21.4778 -64.388,-42.8399 -96.489,-64.3901 -47.695,-35.7968 -95.259,-71.7677 -143.043,-107.4446 -38.069,-28.3306 -76.139,-56.6613 -114.208,-84.9919 -21.333,-64.3333 -42.667,-128.6667 -64,-193 0,-53.6667 0,-107.3333 0,-161 10.667,-32 21.333,-64 32,-96 32.333,-32.3333 64.667,-64.6667 97,-97 21.333,0 42.667,0 64,0 139.333,64.3333 278.667,128.6667 418,193 53.667,53.6667 107.333,107.3333 161,161 53.333,118 106.667,236 160,354 53.667,42.6667 107.333,85.3333 161,128 53.667,21.6667 107.333,43.3333 161,65 21.333,-21.6667 42.667,-43.3333 64,-65 32.333,0 64.667,0 97,0 32,10.6667 64,21.3333 96,32 0,-10.6667 0,-21.3333 0,-32 75,-10.6667 150,-21.3333 225,-32 43,-21.3333 86,-42.6667 129,-64 64.436,0.026 128.878,-0.051 193.31,0.039 85.563,10.6538 171.127,21.3076 256.69,31.9614 43,-10.6667 86,-21.3333 129,-32 21.333,-10.6667 42.667,-21.3333 64,-32 32,0 64,0 96,0 0,21.3333 0,42.6667 0,64 32.333,0 64.667,0 97,0 32.088,10.7258 64.219,21.3469 96.28,32.138 21.574,10.6207 43.147,21.2413 64.72,31.862 42.667,0 85.333,0 128,0 32.333,-21.3333 64.667,-42.6667 97,-64 10.667,0 21.333,0 32,0 21.333,32 42.667,64 64,96 21.333,0 42.667,0 64,0 32.333,32.3333 64.667,64.6667 97,97 32,53.6667 64,107.3333 96,161 0,21.3333 0,42.6667 0,64 -10.667,10.6667 -21.333,21.3333 -32,32 10.667,21.3333 21.333,42.6667 32,64 32.333,32.3333 64.667,64.6667 97,97 43,85.6667 86,171.3333 129,257 21.333,10.6667 42.667,21.3333 64,32 0,10.6667 0,21.3333 0,32 53.667,11 107.333,22 161,33 0,42.6667 0,85.3333 0,128 21.333,10.6667 42.667,21.3333 64,32 10.667,0 21.333,0 32,0 21.333,43 42.667,86 64,129 10.667,0 21.333,0 32,0 0,-32.3333 0,-64.6667 0,-97 11,11 22,22 33,33 10.667,-21.6667 21.333,-43.3333 32,-65 10.686,-10.7794 21.589,-21.4026 32.14,-32.2795 10.62,-21.2402 21.24,-42.4803 31.86,-63.7205 10.667,-10.6667 21.333,-21.3333 32,-32 21.667,0 43.333,0 65,0 17.376,-17.3638 34.817,-34.664 51.798,-52.4166 4.067,-4.1945 8.135,-8.3889 12.202,-12.5834 10.667,11 21.333,22 32,33 43,-21.6667 86,-43.3333 129,-65 10.667,-10.6667 21.333,-21.3333 32,-32 10.667,10.6667 21.333,21.3333 32,32 0,-10.6667 0,-21.3333 0,-32 10.667,0 21.333,0 32,0 10.667,10.6667 21.333,21.3333 32,32 0,10.6667 0,21.3333 0,32 32.333,0 64.667,0 97,0 32,11 64,22 96,33 43,-11 86,-22 129,-33 21.333,0 42.667,0 64,0 32,11 64,22 96,33 -10.667,10.6667 -21.333,21.3333 -32,32 10.667,10.6667 21.333,21.3333 32,32 21.667,10.6667 43.333,21.3333 65,32 10.667,10.6667 21.333,21.3333 32,32 10.667,0 21.333,0 32,0 0,-10.6667 0,-21.3333 0,-32 21.667,0 43.333,0 65,0 21.333,10.6667 42.667,21.3333 64,32 32,-32 64,-64 96,-96 -21.333,0 -42.667,0 -64,0 -10.667,-10.6667 -21.333,-21.3333 -32,-32 0,-11 0,-22 0,-33 -21.333,0 -42.667,0 -64,0 -11,-10.6667 -22,-21.3333 -33,-32 0,-10.6667 0,-21.3333 0,-32 11,-10.6667 22,-21.3333 33,-32 0.07,-10.7603 -0.131,-21.5627 0.1,-32.2968 10.634,-32.2344 21.268,-64.4688 31.902,-96.7032 0,-53.3333 0,-106.6667 0,-160 21.333,0 42.667,0 64,0 21.333,10.6667 42.667,21.3333 64,32 10.687,10.7791 21.588,21.4031 32.141,32.2791 21.619,42.907 43.239,85.8139 64.859,128.7209 21.333,10.6667 42.667,21.3333 64,32 21.423,32.0606 42.719,64.2254 64.221,96.221 32.26,32.2597 64.519,64.5193 96.779,96.779 10.667,21.3333 21.333,42.6667 32,64 -10.667,21.3333 -21.333,42.6667 -32,64 10.667,10.6667 21.333,21.3333 32,32 -10.667,10.6667 -21.333,21.3333 -32,32 0,11 0,22 0,33 32,0 64,0 96,0 32.333,-11 64.667,-22 97,-33 0,43 0,86 0,129 21.333,0 42.667,0 64,0 10.667,10.6667 21.333,21.3333 32,32 10.667,0 21.333,0 32,0 21.667,21.6667 43.333,43.3333 65,65 10.667,-11 21.333,-22 32,-33 10.667,21.6667 21.333,43.3333 32,65 0,-21.6667 0,-43.3333 0,-65 -10.667,-32 -21.333,-64 -32,-96 10.667,0 21.333,0 32,0 10.667,10.6667 21.333,21.3333 32,32 0,-10.6667 0,-21.3333 0,-32 10.667,0 21.333,0 32,0 21.667,10.6667 43.333,21.3333 65,32 10.667,0 21.333,0 32,0 21.333,10.6667 42.667,21.3333 64,32 21.333,-10.6667 42.667,-21.3333 64,-32 0,-32 0,-64 0,-96 43,-43 86,-86 129,-129 -21.333,-21.3333 -42.667,-42.6667 -64,-64 10.667,-10.6667 21.333,-21.3333 32,-32 0,-11 0,-22 0,-33 -43,0 -86,0 -129,0 10.667,-21.3333 21.333,-42.6667 32,-64 -21.333,0 -42.667,0 -64,0 0,-10.6667 0,-21.3333 0,-32 32,-32 64,-64 96,-96 21.667,0 43.333,0 65,0 32,-11 64,-22 96,-33 64.333,43 128.667,86 193,129 32.333,0 64.667,0 97,0 21.333,-10.6667 42.667,-21.3333 64,-32 10.667,0 21.333,0 32,0 0,-10.6667 0,-21.3333 0,-32 10.667,-21.6667 21.333,-43.3333 32,-65 12.043,12.2754 23.796,24.8406 36.038,36.9161 9.654,9.3613 19.308,18.7226 28.962,28.0839 10.667,0 21.333,0 32,0 10.667,21.3333 21.333,42.6667 32,64 42.667,-10.6667 85.333,-21.3333 128,-32 11,10.6667 22,21.3333 33,32 42.667,10.6667 85.333,21.3333 128,32 21.333,0 42.667,0 64,0 -21.333,85.6667 -42.667,171.3333 -64,257 -21.333,21.6667 -42.667,43.3333 -64,65 0,53.3333 0,106.6667 0,160 10.667,11 21.333,22 32,33 0,10.6667 0,21.3333 0,32 32,42.6667 64,85.3333 96,128 43,0 86,0 129,0 21.333,11 42.667,22 64,33 64.333,0 128.667,0 193,0 49.628,32.7635 99.337,65.4045 148.746,98.4976 14.752,9.8341 29.503,19.6683 44.254,29.5024 0,21.3333 0,42.6667 0,64 21.667,21.6667 43.333,43.3333 65,65 10.667,0 21.333,0 32,0 10.667,10.6667 21.333,21.3333 32,32 0,10.6667 0,21.3333 0,32 -10.667,10.6667 -21.333,21.3333 -32,32 0,43 0,86 0,129 -10.667,21.3333 -21.333,42.6667 -32,64 -21.667,0 -43.333,0 -65,0 32.776,16.1675 65.65,32.1389 98.194,48.77 52.935,26.7433 105.871,53.4867 158.806,80.23 0,32 0,64 0,96 21.667,0 43.333,0 65,0 21.423,32.3937 42.716,64.8937 64.221,97.221 22.775,22.6896 45.379,45.5539 68.266,68.1302 9.504,9.2163 19.009,18.4325 28.513,27.6488 32,0 64,0 96,0 53.667,-53.6667 107.333,-107.3333 161,-161 10.667,-21.3333 21.333,-42.6667 32,-64 0,-32 0,-64 0,-96 21.333,0 42.667,0 64,0 32.394,-21.756 64.891,-43.3866 97.221,-65.221 21.359,-21.3016 42.615,-42.7302 64.039,-63.9524 31.913,-21.2755 63.827,-42.5511 95.74,-63.8266 32.333,-43 64.667,-86 97,-129 21.333,10.6667 42.667,21.3333 64,32 21.667,0 43.333,0 65,0 10.667,21.3333 21.333,42.6667 32,64 10.667,0 21.333,0 32,0 10.667,32.3333 21.333,64.6667 32,97 10.667,0 21.333,0 32,0 10.667,21.3333 21.333,42.6667 32,64 32.333,21.6667 64.667,43.3333 97,65 10.667,0 21.333,0 32,0 0,-21.6667 0,-43.3333 0,-65 10.667,0 21.333,0 32,0 0,-21.3333 0,-42.6667 0,-64 10.667,-10.6667 21.333,-21.3333 32,-32 -10.667,-21.6667 -21.333,-43.3333 -32,-65 10.667,-32 21.333,-64 32,-96 -10.667,-32 -21.333,-64 -32,-96 0,-32.3333 0,-64.6667 0,-97 -10.667,-10.6667 -21.333,-21.3333 -32,-32 21.333,-21.3333 42.667,-42.6667 64,-64 0,-10.6667 0,-21.3333 0,-32 -21.333,0 -42.667,0 -64,0 -10.667,-21.6667 -21.333,-43.3333 -32,-65 -32.333,-21.3333 -64.667,-42.6667 -97,-64 0,-10.6667 0,-21.3333 0,-32 32.333,-21.6667 64.667,-43.3333 97,-65 -10.667,0 -21.333,0 -32,0 0,-10.6667 0,-21.3333 0,-32 -21.667,-10.6667 -43.333,-21.3333 -65,-32 -10.667,-21.3333 -21.333,-42.6667 -32,-64 0,-10.6667 0,-21.3333 0,-32 -21.333,-11 -42.667,-22 -64,-33 10.667,-42.6667 21.333,-85.3333 32,-128 0,-32.3333 0,-64.6667 0,-97 32,-10.6667 64,-21.3333 96,-32 21.667,-21.3333 43.333,-42.6667 65,-64 10.667,-32 21.333,-64 32,-96 -32.333,-11 -64.667,-22 -97,-33 -10.667,-42.6667 -21.333,-85.3333 -32,-128 10.667,0 21.333,0 32,0 21.667,-21.6667 43.333,-43.3333 65,-65 0,-21.3333 0,-42.6667 0,-64 21.333,-10.6667 42.667,-21.3333 64,-32 53.667,21.3333 107.333,42.6667 161,64 21.333,-10.6667 42.667,-21.3333 64,-32 53.667,0 107.333,0 161,0 0,-10.6667 0,-21.3333 0,-32 10.667,-10.6667 21.333,-21.3333 32,-32 32.333,10.6667 64.667,21.3333 97,32 32,0 64,0 96,0 10.667,10.6667 21.333,21.3333 32,32 21.333,0 42.667,0 64,0 11,21.3333 22,42.6667 33,64 0,11 0,22 0,33 42.667,0 85.333,0 128,0 -10.667,-11 -21.333,-22 -32,-33 0,-21.3333 0,-42.6667 0,-64 21.333,-10.6667 42.667,-21.3333 64,-32 11,0 22,0 33,0 10.667,-10.6667 21.333,-21.3333 32,-32 -10.667,-21.6667 -21.333,-43.3333 -32,-65 0,-32 0,-64 0,-96 -11,10.6667 -22,21.3333 -33,32 -21.333,-10.6667 -42.667,-21.3333 -64,-32 10.667,0 21.333,0 32,0 10.667,-21.3333 21.333,-42.6667 32,-64 -10.667,-21.6667 -21.333,-43.3333 -32,-65 21.667,0 43.333,0 65,0 32,-10.6667 64,-21.3333 96,-32 0,-10.6667 0,-21.3333 0,-32 -21.333,-21.3333 -42.667,-42.6667 -64,-64 42.667,10.6667 85.333,21.3333 128,32 0,-10.6667 0,-21.3333 0,-32 10.667,-10.6667 21.333,-21.3333 32,-32 11,0 22,0 33,0 21.333,21.3333 42.667,42.6667 64,64 10.667,-21.3333 21.333,-42.6667 32,-64 21.333,0 42.667,0 64,0 0,-21.6667 0,-43.3333 0,-65 11,0 22,0 33,0 -11,-10.6667 -22,-21.3333 -33,-32 -21.333,0 -42.667,0 -64,0 10.667,-21.3333 21.333,-42.6667 32,-64 10.667,-10.6667 21.333,-21.3333 32,-32 11,10.6667 22,21.3333 33,32 10.667,0 21.333,0 32,0 0,-10.6667 0,-21.3333 0,-32 42.667,0 85.333,0 128,0 0,-10.6667 0,-21.3333 0,-32 10.667,10.6667 21.333,21.3333 32,32 11,0 22,0 33,0 10.667,10.6667 21.333,21.3333 32,32 10.667,0 21.333,0 32,0 0,-10.6667 0,-21.3333 0,-32 32,32 64,64 96,96 10.667,0 21.333,0 32,0 0,-10.6667 0,-21.3333 0,-32 21.667,0 43.333,0 65,0 0,32.3333 0,64.6667 0,97 10.667,0 21.333,0 32,0 21.333,21.3333 42.667,42.6667 64,64 10.667,-10.6667 21.333,-21.3333 32,-32 11,0 22,0 33,0 0,10.6667 0,21.3333 0,32 21.333,0 42.667,0 64,0 21.333,-10.6667 42.667,-21.3333 64,-32 10.667,21.3333 21.333,42.6667 32,64 43,0 86,0 129,0 21.333,21.3333 42.667,42.6667 64,64 10.667,-10.6667 21.333,-21.3333 32,-32 11.112,10.6872 22.076,21.5823 33.28,32.1398 21.24,10.62 42.48,21.2401 63.72,31.8602 32,-10.6667 64,-21.3333 96,-32 0,32.3333 0,64.6667 0,97 32.333,10.6667 64.667,21.3333 97,32 21.333,0 42.667,0 64,0 21.333,10.6667 42.667,21.3333 64,32 0,10.6667 0,21.3333 0,32 17.733,-17.1912 35.544,-34.3029 52.889,-51.8886 4.037,-4.0372 8.074,-8.0743 12.111,-12.1114 32,0 64,0 96,0 0,-21.3333 0,-42.6667 0,-64 -10.667,0 -21.333,0 -32,0 0,-21.6667 0,-43.3333 0,-65 21.333,0 42.667,0 64,0 11,-10.6667 22,-21.3333 33,-32 0,-10.6667 0,-21.3333 0,-32 10.667,0 21.333,0 32,0 10.667,10.6667 21.333,21.3333 32,32 10.667,0 21.333,0 32,0 10.667,-10.6667 21.333,-21.3333 32,-32 -10.667,-10.6667 -21.333,-21.3333 -32,-32 0,-32.3333 0,-64.6667 0,-97 21.333,-10.6667 42.667,-21.3333 64,-32 32.333,21.6667 64.667,43.3333 97,65 17.191,-17.733 34.303,-35.5442 51.889,-52.8886 4.037,-4.0372 8.074,-8.0743 12.111,-12.1114 0,21.6667 0,43.3333 0,65 10.667,-11 21.333,-22 32,-33 21.333,0 42.667,0 64,0 11,-21.3333 22,-42.6667 33,-64 10.667,10.6667 21.333,21.3333 32,32 10.667,-21.3333 21.333,-42.6667 32,-64 10.667,-10.6667 21.333,-21.3333 32,-32 10.667,0 21.333,0 32,0 -10.667,10.6667 -21.333,21.3333 -32,32 0,21.3333 0,42.6667 0,64 53.667,53.6667 107.333,107.3333 161,161 10.667,32 21.333,64 32,96 21.333,11 42.667,22 64,33 0,-32.3333 0,-64.6667 0,-97 11,-42.6667 22,-85.3333 33,-128 0,-11 0,-22 0,-33 21.333,0 42.667,0 64,0 10.667,-10.6667 21.333,-21.3333 32,-32 21.333,10.6667 42.667,21.3333 64,32 21.667,0 43.333,0 65,0 10.667,-10.6667 21.333,-21.3333 32,-32 -10.667,-10.6667 -21.333,-21.3333 -32,-32 10.667,-10.6667 21.333,-21.3333 32,-32 32,0 64,0 96,0 0,10.6667 0,21.3333 0,32 21.333,10.6667 42.667,21.3333 64,32 21.667,0 43.333,0 65,0 0.07,-10.7601 -0.132,-21.5631 0.1,-32.2965 10.634,-31.9012 21.267,-63.8023 31.901,-95.7035 -10.667,-21.6667 -21.333,-43.3333 -32,-65 21.333,0 42.667,0 64,0 0,-21.3333 0,-42.6667 0,-64 10.667,-10.6667 21.333,-21.3333 32,-32 0,-10.6667 0,-21.3333 0,-32 21.333,-11 42.667,-22 64,-33 0,11 0,22 0,33 32.333,0 64.667,0 97,0 0,-11 0,-22 0,-33 -10.667,-10.6667 -21.333,-21.3333 -32,-32 0,-10.6667 0,-21.3333 0,-32 10.765,-0.05 21.554,0.1006 32.303,-0.075 42.899,-10.6416 85.798,-21.2832 128.697,-31.9248 10.667,-21.3333 21.333,-42.6667 32,-64 10.667,0 21.333,0 32,0 0,10.6667 0,21.3333 0,32 -10.667,10.6667 -21.333,21.3333 -32,32 10.667,10.6667 21.333,21.3333 32,32 32,-10.6667 64,-21.3333 96,-32 43,0 86,0 129,0 10.667,-10.6667 21.333,-21.3333 32,-32 21.333,0 42.667,0 64,0 0,10.6667 0,21.3333 0,32 21.667,0 43.333,0 65,0 0,21.3333 0,42.6667 0,64 21.333,0 42.667,0 64,0 10.667,-21.3333 21.333,-42.6667 32,-64 21.333,-10.6667 42.667,-21.3333 64,-32 11,21.3333 22,42.6667 33,64 21.333,0 42.667,0 64,0 32,-10.6667 64,-21.3333 96,-32 11,0 22,0 33,0 10.667,-10.6667 21.333,-21.3333 32,-32 0,-10.6667 0,-21.3333 0,-32 21.333,-10.6667 42.667,-21.3333 64,-32 21.333,-21.6667 42.667,-43.3333 64,-65 11,0 22,0 33,0 0.07,-10.7601 -0.132,-21.5631 0.1,-32.2965 10.634,-31.9012 21.267,-63.8023 31.901,-95.7035 10.667,-10.6667 21.333,-21.3333 32,-32 -21.333,-11 -42.667,-22 -64,-33 0,-10.6667 0,-21.3333 0,-32 -11,-21.3333 -22,-42.6667 -33,-64 11,0 22,0 33,0 10.667,-10.6667 21.333,-21.3333 32,-32 -10.667,-32.3333 -21.333,-64.6667 -32,-97 0,-21.3333 0,-42.6667 0,-64 10.667,-10.6667 21.333,-21.3333 32,-32 0,-21.3333 0,-42.6667 0,-64 42.667,-11 85.333,-22 128,-33 21.667,-21.3333 43.333,-42.6667 65,-64 10.667,0 21.333,0 32,0 10.667,-21.3333 21.333,-42.6667 32,-64 32,0 64,0 96,0 10.667,10.6667 21.333,21.3333 32,32 -10.667,10.6667 -21.333,21.3333 -32,32 21.667,0 43.333,0 65,0 0,-10.6667 0,-21.3333 0,-32 32,0 64,0 96,0 0,10.6667 0,21.3333 0,32 53.667,0 107.333,0 161,0 32,10.6667 64,21.3333 96,32 21.667,0 43.333,0 65,0 0,-21.3333 0,-42.6667 0,-64 32,0 64,0 96,0 -10.667,-21.3333 -21.333,-42.6667 -32,-64 21.333,-11 42.667,-22 64,-33 0,-10.6667 0,-21.3333 0,-32 43,0 86,0 129,0 -10.667,-10.6667 -21.333,-21.3333 -32,-32 21.333,-10.6667 42.667,-21.3333 64,-32 0,-10.6667 0,-21.3333 0,-32 -32,-10.6667 -64,-21.3333 -96,-32 0,-21.6667 0,-43.3333 0,-65 -11,0 -22,0 -33,0 -10.667,-10.6667 -21.333,-21.3333 -32,-32 -10.667,0 -21.333,0 -32,0 0,-10.6667 0,-21.3333 0,-32 -21.333,-10.6667 -42.667,-21.3333 -64,-32 10.667,-32 21.333,-64 32,-96 32,0 64,0 96,0 0,-11 0,-22 0,-33 11,11 22,22 33,33 21.333,0 42.667,0 64,0 10.667,10.6667 21.333,21.3333 32,32 10.667,0 21.333,0 32,0 0,-21.6667 0,-43.3333 0,-65 21.333,11 42.667,22 64,33 11,21.3333 22,42.6667 33,64 10.667,-21.3333 21.333,-42.6667 32,-64 42.667,21.3333 85.333,42.6667 128,64 0,-21.3333 0,-42.6667 0,-64 21.667,32 43.333,64 65,96 10.667,-10.6667 21.333,-21.3333 32,-32 10.667,0 21.333,0 32,0 22.849,22.7633 45.526,45.7012 68.487,68.3512 9.504,9.2163 19.009,18.4325 28.513,27.6488 10.667,0 21.333,0 32,0 0,10.6667 0,21.3333 0,32 21.333,0 42.667,0 64,0 0,21.6667 0,43.3333 0,65 21.333,-21.6667 42.667,-43.3333 64,-65 10.667,0 21.333,0 32,0 0,-10.6667 0,-21.3333 0,-32 32.333,-10.6667 64.667,-21.3333 97,-32 21.333,-21.3333 42.667,-42.6667 64,-64 21.333,10.6667 42.667,21.3333 64,32 11,0 22,0 33,0 10.667,-10.6667 21.333,-21.3333 32,-32 75,0 150,0 225,0 0,10.6667 0,21.3333 0,32 42.667,0 85.333,0 128,0 0.07,-10.7597 -0.135,-21.564 0.101,-32.2959 10.966,-32.2347 21.933,-64.4694 32.899,-96.7041 32,0 64,0 96,0 10.686,-10.7794 21.589,-21.4026 32.14,-32.2795 10.62,-21.2402 21.24,-42.4803 31.86,-63.7205 -10.667,-32.3333 -21.333,-64.6667 -32,-97 32.333,0 64.667,0 97,0 10.667,-10.6667 21.333,-21.3333 32,-32 -21.333,-21.3333 -42.667,-42.6667 -64,-64 21.333,-21.3333 42.667,-42.6667 64,-64 -10.667,-11 -21.333,-22 -32,-33 0,-21.3333 0,-42.6667 0,-64 -21.667,-10.6667 -43.333,-21.3333 -65,-32 0,-21.3333 0,-42.6667 0,-64 32.333,0 64.667,0 97,0 0,-10.6667 0,-21.3333 0,-32 21.333,-11 42.667,-22 64,-33 10.667,-21.3333 21.333,-42.6667 32,-64 0,-32 0,-64 0,-96 21.667,-21.6667 43.333,-43.3333 65,-65 32,0 64,0 96,0 10.667,11 21.333,22 32,33 32.333,10.6667 64.667,21.3333 97,32 32,-43 64,-86 96,-129 10.667,0 21.333,0 32,0 21.667,-10.6667 43.333,-21.3333 65,-32 -11,-10.6667 -22,-21.3333 -33,-32 11,-10.6667 22,-21.3333 33,-32 32,0 64,0 96,0 0,-11 0,-22 0,-33 43,-10.6667 86,-21.3333 129,-32 21.333,10.6667 42.667,21.3333 64,32 10.686,-10.7794 21.589,-21.4026 32.14,-32.2795 10.62,-21.2402 21.24,-42.4803 31.86,-63.7205 10.667,0 21.333,0 32,0 11,-10.6667 22,-21.3333 33,-32 -11,0 -22,0 -33,0 11,-10.6667 22,-21.3333 33,-32 -11,-11 -22,-22 -33,-33 17.733,-17.1912 35.544,-34.3029 52.889,-51.8886 14.703,-14.7038 29.407,-29.4076 44.111,-44.1114 21.333,0 42.667,0 64,0 10.667,-10.6667 21.333,-21.3333 32,-32 0,-10.6667 0,-21.3333 0,-32 21.667,-10.6667 43.333,-21.3333 65,-32 0,-11 0,-22 0,-33 21.333,-21.3333 42.667,-42.6667 64,-64 10.667,-21.3333 21.333,-42.6667 32,-64 10.667,-10.6667 21.333,-21.3333 32,-32 -10.667,-10.6667 -21.333,-21.3333 -32,-32 0,-11 0,-22 0,-33 43,-10.6667 86,-21.3333 129,-32 0,-21.3333 0,-42.6667 0,-64 22.763,-22.8492 45.701,-45.5264 68.351,-68.4872 9.216,-9.5042 18.433,-19.0085 27.649,-28.5128 21.667,0 43.333,0 65,0 10.667,-53.3333 21.333,-106.6667 32,-160 -10.673,-21.775 -21.505,-43.4906 -32.078,-65.3026 -10.974,-42.5658 -21.948,-85.1316 -32.922,-127.6974 -21.333,-10.6667 -42.667,-21.3333 -64,-32 0,-21.6667 0,-43.3333 0,-65 -21.333,-21.3333 -42.667,-42.6667 -64,-64 -10.667,-32 -21.333,-64 -32,-96 -21.667,-11 -43.333,-22 -65,-33 10.667,-42.6667 21.333,-85.3333 32,-128 -10.667,-21.6667 -21.333,-43.3333 -32,-65 10.667,-21.3333 21.333,-42.6667 32,-64 0,-10.6667 0,-21.3333 0,-32 -10.667,-10.6667 -21.333,-21.3333 -32,-32 -10.667,21.3333 -21.333,42.6667 -32,64 -0.07,-10.7601 0.132,-21.5631 -0.1,-32.2965 -10.634,-31.9012 -21.267,-63.8023 -31.901,-95.7035 10.667,-21.6667 21.333,-43.3333 32,-65 -10.667,-21.3333 -21.333,-42.6667 -32,-64 -32,-21.3333 -64,-42.6667 -96,-64 0,-21.6667 0,-43.3333 0,-65 -11,-10.6667 -22,-21.3333 -33,-32 -53.333,0 -106.667,0 -160,0 -21.667,-10.6667 -43.333,-21.3333 -65,-32 21.667,-32 43.333,-64 65,-96 21.333,0 42.667,0 64,0 23.217,-11.8909 46.304,-24.0408 69.608,-35.7607 19.797,-9.7464 39.595,-19.4929 59.392,-29.2393 32,10.6667 64,21.3333 96,32 10.667,0 21.333,0 32,0 23.217,11.8909 46.304,24.0408 69.608,35.7607 19.797,9.7464 39.595,19.4929 59.392,29.2393 21.333,-10.6667 42.667,-21.3333 64,-32 10.667,10.6667 21.333,21.3333 32,32 10.667,-10.6667 21.333,-21.3333 32,-32 11,0 22,0 33,0 0,21.3333 0,42.6667 0,64 32,21.3333 64,42.6667 96,64 43,0 86,0 129,0 10.779,-10.6861 21.403,-21.589 32.28,-32.1398 21.24,-10.62 42.48,-21.2401 63.72,-31.8602 43,10.6667 86,21.3333 129,32 75,0 150,0 225,0 10.667,32 21.333,64 32,96 10.667,0 21.333,0 32,0 32,-21.3333 64,-42.6667 96,-64 0,-32 0,-64 0,-96 21.667,10.6667 43.333,21.3333 65,32 32,-21.3333 64,-42.6667 96,-64 21.667,10.6667 43.333,21.3333 65,32 0,21.3333 0,42.6667 0,64 21.333,-10.6667 42.667,-21.3333 64,-32 64.333,0 128.667,0 193,0 10.667,-32.3333 21.333,-64.6667 32,-97 43,0 86,0 129,0 0,-10.6667 0,-21.3333 0,-32 10.667,0 21.333,0 32,0 10.667,-10.6667 21.333,-21.3333 32,-32 0,-21.3333 0,-42.6667 0,-64 32,0 64,0 96,0 21.667,-10.6667 43.333,-21.3333 65,-32 10.667,-11 21.333,-22 32,-33 21.333,-10.6667 42.667,-21.3333 64,-32 21.333,10.6667 42.667,21.3333 64,32 11,21.6667 22,43.3333 33,65 0,21.3333 0,42.6667 0,64 32,21.3333 64,42.6667 96,64 21.495,-10.8029 43.089,-21.4335 64.522,-32.3442 32.159,-21.2186 64.319,-42.4372 96.478,-63.6558 10.667,32 21.333,64 32,96 43,53.6667 86,107.3333 129,161 10.652,75.1052 21.421,150.2021 32,225.3125 0,10.5625 0,21.125 0,31.6875 32,0 64,0 96,0 17.191,17.733 34.303,35.5442 51.889,52.8886 4.037,4.0372 8.074,8.0743 12.111,12.1114 0,10.6667 0,21.3333 0,32 11,21.3333 22,42.6667 33,64 10.667,0 21.333,0 32,0 32,21.3333 64,42.6667 96,64 0,11 0,22 0,33 10.667,-11 21.333,-22 32,-33 21.667,11 43.333,22 65,33 10.667,0 21.333,0 32,0 10.667,10.6667 21.333,21.3333 32,32 -10.667,10.6667 -21.333,21.3333 -32,32 10.667,10.6667 21.333,21.3333 32,32 -21.333,21.3333 -42.667,42.6667 -64,64 21.333,11 42.667,22 64,33 0,10.6667 0,21.3333 0,32 -10.667,10.6667 -21.333,21.3333 -32,32 0,42.6667 0,85.3333 0,128 21.333,43 42.667,86 64,129 -10.667,10.6667 -21.333,21.3333 -32,32 10.667,10.6667 21.333,21.3333 32,32 -10.667,21.6667 -21.333,43.3333 -32,65 10.667,21.3333 21.333,42.6667 32,64 -10.667,0 -21.333,0 -32,0 0,21.3333 0,42.6667 0,64 -18.464,37.5675 -36.945,75.1263 -55.76,112.5195 -2.721,5.6076 -5.731,11.1314 -8.271,16.7915 -10.656,106.8963 -21.313,213.7927 -31.969,320.689 -21.667,21.6667 -43.333,43.3333 -65,65 -10.667,21.3333 -21.333,42.6667 -32,64 10.667,10.6667 21.333,21.3333 32,32 -10.667,21.3333 -21.333,42.6667 -32,64 -10.667,11 -21.333,22 -32,33 21.333,21.3333 42.667,42.6667 64,64 0,53.6667 0,107.3333 0,161 -21.333,42.6667 -42.667,85.3333 -64,128 21.333,11 42.667,22 64,33 0,10.6667 0,21.3333 0,32 -53.667,53.3333 -107.333,106.6667 -161,160 -21.423,32.3937 -42.716,64.8937 -64.221,97.221 -10.593,10.593 -21.186,21.186 -31.779,31.779 10.667,10.6667 21.333,21.3333 32,32 0,43 0,86 0,129 -42.667,21.3333 -85.333,42.6667 -128,64 -11,-10.6667 -22,-21.3333 -33,-32 -10.667,10.6667 -21.333,21.3333 -32,32 -10.667,0 -21.333,0 -32,0 -21.333,10.6667 -42.667,21.3333 -64,32 10.667,32.3333 21.333,64.6667 32,97 -21.333,0 -42.667,0 -64,0 10.667,21.3333 21.333,42.6667 32,64 -21.333,0 -42.667,0 -64,0 0,-10.6667 0,-21.3333 0,-32 -11,0 -22,0 -33,0 -10.667,10.6667 -21.333,21.3333 -32,32 0,21.3333 0,42.6667 0,64 10.667,11 21.333,22 32,33 -10.667,42.6667 -21.333,85.3333 -32,128 10.667,10.6667 21.333,21.3333 32,32 86,0 172,0 258,0 -11,-21.3333 -22,-42.6667 -33,-64 32.333,-10.6667 64.667,-21.3333 97,-32 0,21.3333 0,42.6667 0,64 21.333,-10.6667 42.667,-21.3333 64,-32 10.667,10.6667 21.333,21.3333 32,32 0,21.3333 0,42.6667 0,64 43,0 86,0 129,0 10.667,11 21.333,22 32,33 21.333,-11 42.667,-22 64,-33 11,11 22,22 33,33 10.667,-11 21.333,-22 32,-33 10.667,0 21.333,0 32,0 10.667,21.6667 21.333,43.3333 32,65 21.333,10.6667 42.667,21.3333 64,32 11,-10.6667 22,-21.3333 33,-32 0,10.6667 0,21.3333 0,32 10.667,0 21.333,0 32,0 -10.667,-10.6667 -21.333,-21.3333 -32,-32 10.667,-32.3333 21.333,-64.6667 32,-97 10.667,0 21.333,0 32,0 0,10.6667 0,21.3333 0,32 32,11 64,22 96,33 10.667,-11 21.333,-22 32,-33 0,11 0,22 0,33 21.667,10.6667 43.333,21.3333 65,32 -10.667,10.6667 -21.333,21.3333 -32,32 32,10.6667 64,21.3333 96,32 -10.667,10.6667 -21.333,21.3333 -32,32 10.667,10.6667 21.333,21.3333 32,32 21.333,-21.3333 42.667,-42.6667 64,-64 21.667,0 43.333,0 65,0 10.667,-21.3333 21.333,-42.6667 32,-64 0,10.6667 0,21.3333 0,32 21.333,10.6667 42.667,21.3333 64,32 -10.667,21.3333 -21.333,42.6667 -32,64 10.667,10.6667 21.333,21.3333 32,32 21.333,0 42.667,0 64,0 21.667,-10.6667 43.333,-21.3333 65,-32 10.778,10.6885 21.405,21.5844 32.278,32.1432 21.241,10.9523 42.481,21.9045 63.722,32.8568 10.667,-11 21.333,-22 32,-33 0,-21.3333 0,-42.6667 0,-64 10.667,0 21.333,0 32,0 11,32.3333 22,64.6667 33,97 21.333,0 42.667,0 64,0 0,10.6667 0,21.3333 0,32 21.333,0 42.667,0 64,0 21.667,32 43.333,64 65,96 21.333,0 42.667,0 64,0 35.516,36.0349 70.863,72.2398 106.884,107.772 28.705,28.4093 57.411,56.8187 86.116,85.228 21.333,-10.6667 42.667,-21.3333 64,-32 21.333,21.3333 42.667,42.6667 64,64 -21.333,11 -42.667,22 -64,33 10.667,32 21.333,64 32,96 0,10.6667 0,21.3333 0,32 -21.333,10.6667 -42.667,21.3333 -64,32 -21.333,21.6667 -42.667,43.3333 -64,65 0,21.3333 0,42.6667 0,64 -21.667,0 -43.333,0 -65,0 -10.667,21.3333 -21.333,42.6667 -32,64 -10.667,10.6667 -21.333,21.3333 -32,32 0,21.6667 0,43.3333 0,65 21.333,0 42.667,0 64,0 10.667,10.6667 21.333,21.3333 32,32 -42.667,53.3333 -85.333,106.6667 -128,160 10.667,11 21.333,22 32,33 0,32 0,64 0,96 10.667,32.3333 21.333,64.6667 32,97 0,10.6667 0,21.3333 0,32 22.849,22.7633 45.526,45.7012 68.487,68.3512 9.7,9.3045 19.216,18.8359 29.031,27.9992 31.827,21.5499 63.655,43.0997 95.482,64.6496 64.333,0 128.667,0 193,0 43,21.3333 86,42.6667 129,64 -11,32 -22,64 -33,96 -10.686,10.7796 -21.59,21.4022 -32.139,32.2798 -31.954,64.2401 -63.907,128.4801 -95.861,192.7202 10.667,0 21.333,0 32,0 21.333,21.6667 42.667,43.3333 64,65 21.667,0 43.333,0 65,0 0,32 0,64 0,96 32,10.6667 64,21.3333 96,32 0,21.6667 0,43.3333 0,65 -10.667,0 -21.333,0 -32,0 -10.667,-11 -21.333,-22 -32,-33 0,11 0,22 0,33 10.667,10.6667 21.333,21.3333 32,32 21.333,-21.6667 42.667,-43.3333 64,-65 0,21.6667 0,43.3333 0,65 -10.667,10.6667 -21.333,21.3333 -32,32 10.667,10.6667 21.333,21.3333 32,32 10.667,-10.6667 21.333,-21.3333 32,-32 11,0 22,0 33,0 -11,10.6667 -22,21.3333 -33,32 11,10.6667 22,21.3333 33,32 -21.667,21.6667 -43.333,43.3333 -65,65 0,10.6667 0,21.3333 0,32 21.667,0 43.333,0 65,0 10.667,10.6667 21.333,21.3333 32,32 10.667,-21.3333 21.333,-42.6667 32,-64 21.333,0 42.667,0 64,0 0,10.6667 0,21.3333 0,32 32.333,0 64.667,0 97,0 10.667,21.3333 21.333,42.6667 32,64 0,10.6667 0,21.3333 0,32 10.667,10.6667 21.333,21.3333 32,32 -21.333,10.6667 -42.667,21.3333 -64,32 0,21.6667 0,43.3333 0,65 -11,0 -22,0 -33,0 -10.667,-10.6667 -21.333,-21.3333 -32,-32 -10.667,0 -21.333,0 -32,0 10.667,10.6667 21.333,21.3333 32,32 -10.667,10.6667 -21.333,21.3333 -32,32 -32,0 -64,0 -96,0 0,42.6667 0,85.3333 0,128 -21.667,-21.3333 -43.333,-42.6667 -65,-64 11,21.3333 22,42.6667 33,64 -21.667,0 -43.333,0 -65,0 -10.667,11 -21.333,22 -32,33 0,42.6667 0,85.3333 0,128 10.667,0 21.333,0 32,0 0,32.3333 0,64.6667 0,97 10.667,10.6667 21.333,21.3333 32,32 0,21.3333 0,42.6667 0,64 -10.667,-10.6667 -21.333,-21.3333 -32,-32 -21.333,21.3333 -42.667,42.6667 -64,64 10.667,11 21.333,22 32,33 0,10.6667 0,21.3333 0,32 -10.667,10.6667 -21.333,21.3333 -32,32 -10.667,-21.3333 -21.333,-42.6667 -32,-64 -10.667,21.3333 -21.333,42.6667 -32,64 -21.667,10.6667 -43.333,21.3333 -65,32 -10.667,0 -21.333,0 -32,0 10.667,-10.6667 21.333,-21.3333 32,-32 0,-10.6667 0,-21.3333 0,-32 -10.667,0 -21.333,0 -32,0 -10.667,21.3333 -21.333,42.6667 -32,64 -10.667,0 -21.333,0 -32,0 -21.667,10.6667 -43.333,21.3333 -65,32 -10.667,21.3333 -21.333,42.6667 -32,64 -21.333,11 -42.667,22 -64,33 0,10.6667 0,21.3333 0,32 10.667,0 21.333,0 32,0 0,10.6667 0,21.3333 0,32 21.333,21.3333 42.667,42.6667 64,64 -10.667,10.6667 -21.333,21.3333 -32,32 10.667,21.6667 21.333,43.3333 32,65 -10.667,21.3333 -21.333,42.6667 -32,64 -21.333,10.6667 -42.667,21.3333 -64,32 -10.667,-10.6667 -21.333,-21.3333 -32,-32 -10.667,21.3333 -21.333,42.6667 -32,64 -10.667,0 -21.333,0 -32,0 -12.275,12.0428 -24.841,23.7957 -36.916,36.0384 -15.939,16.4807 -31.875,32.9642 -48.194,49.0712 -3.963,3.9635 -7.927,7.9269 -11.89,11.8904 0,10.6667 0,21.3333 0,32 -32,0 -64,0 -96,0 -10.667,10.6667 -21.333,21.3333 -32,32 -11,32.3333 -22,64.6667 -33,97 -21.333,0 -42.667,0 -64,0 10.667,10.6667 21.333,21.3333 32,32 -21.333,0 -42.667,0 -64,0 -21.333,21.3333 -42.667,42.6667 -64,64 -11,-10.6667 -22,-21.3333 -33,-32 -10.667,10.6667 -21.333,21.3333 -32,32 -21.333,-10.6667 -42.667,-21.3333 -64,-32 0,21.3333 0,42.6667 0,64 -10.667,-10.6667 -21.333,-21.3333 -32,-32 -21.667,10.6667 -43.333,21.3333 -65,32 -21.333,0 -42.667,0 -64,0 0,21.3333 0,42.6667 0,64 -10.667,21.6667 -21.333,43.3333 -32,65 -10.667,10.6667 -21.333,21.3333 -32,32 10.667,0 21.333,0 32,0 0,10.6667 0,21.3333 0,32 -21.333,10.6667 -42.667,21.3333 -64,32 10.667,10.6674 21.333,21.3334 32,32.0004 32,0 64,0 96,0 0,21.667 0,43.333 0,65 10.667,21.333 21.333,42.667 32,64 32.333,10.667 64.667,21.333 97,32 21.333,21.333 42.667,42.667 64,64 0,32.333 0,64.667 0,97 -32,10.667 -64,21.333 -96,32 0,10.667 0,21.333 0,32 21.333,0 42.667,0 64,0 0,10.667 0,21.333 0,32 -21.333,0 -42.667,0 -64,0 -11.651,23.504 -23.043,47.138 -34.864,70.555 -10.046,19.482 -20.091,38.963 -30.136,58.445 0,32 0,64 0,96 11,0 22,0 33,0 21.333,-10.667 42.667,-21.333 64,-32 10.667,0 21.333,0 32,0 -10.667,32.333 -21.333,64.667 -32,97 10.667,53.333 21.333,106.667 32,160 10.667,11 21.333,22 32,33 0,21.333 0,42.667 0,64 -10.667,10.667 -21.333,21.333 -32,32 -21.333,-10.667 -42.667,-21.333 -64,-32 -10.667,10.667 -21.333,21.333 -32,32 10.667,32.333 21.333,64.667 32,97 -17.364,17.376 -34.664,34.817 -52.417,51.798 -21.206,20.464 -41.791,41.56 -62.704,62.323 -4.626,4.626 -9.253,9.253 -13.879,13.879 -10.667,43 -21.333,86 -32,129 -21.333,0 -42.667,0 -64,0 -10.667,32 -21.333,64 -32,96 0,21.667 0,43.333 0,65 -11,10.667 -22,21.333 -33,32 21.667,21.333 43.333,42.667 65,64 -21.667,10.667 -43.333,21.333 -65,32 -32,0 -64,0 -96,0 -0.05,10.765 0.101,21.554 -0.07,32.303 -10.642,42.899 -21.283,85.798 -31.925,128.697 21.333,53.667 42.667,107.333 64,161 -10.667,10.667 -21.333,21.333 -32,32 -21.333,0 -42.667,0 -64,0 21.333,0 42.667,0 64,0 0,10.667 0,21.333 0,32 -10.667,0 -21.333,0 -32,0 -10.667,10.667 -21.333,21.333 -32,32 0,10.667 0,21.333 0,32 21.333,0 42.667,0 64,0 0,21.667 0,43.333 0,65 -10.667,0 -21.333,0 -32,0 -10.667,-11 -21.333,-22 -32,-33 -10.667,21.667 -21.333,43.333 -32,65 -21.667,10.667 -43.333,21.333 -65,32 0,21.333 0,42.667 0,64 -21.333,10.667 -42.667,21.333 -64,32 0.07,11.093 -0.132,22.23 0.1,33.296 10.634,31.902 21.267,63.803 31.901,95.704 -18.613,37.16 -37.203,74.332 -55.466,111.665 -2.798,5.893 -5.966,11.701 -8.534,17.648 0,21.229 0,42.458 0,63.687 21.333,21.333 42.667,42.667 64,64 -10.667,10.667 -21.333,21.333 -32,32 -10.667,53.667 -21.333,107.333 -32,161 0,10.667 0,21.333 0,32 -32.333,43 -64.667,86 -97,129 -10.667,32 -21.333,64 -32,96 21.667,10.667 43.333,21.333 65,32 0,11 0,22 0,33 -21.667,21.333 -43.333,42.667 -65,64 10.667,21.333 21.333,42.667 32,64 -10.667,10.667 -21.333,21.333 -32,32 10.667,21.667 21.333,43.333 32,65 -10.667,10.667 -21.333,21.333 -32,32 0,64.333 0,128.667 0,193 -10.667,32 -21.333,64 -32,96 10.667,64.333 21.333,128.667 32,193 -10.667,21.333 -21.333,42.667 -32,64 10.667,64.333 21.333,128.667 32,193 0,11 0,22 0,33 21.756,32.061 43.389,64.223 65.221,96.221 10.593,10.593 21.186,21.186 31.779,31.779 -10.667,21.667 -21.333,43.333 -32,65 0,10.667 0,21.333 0,32 21.333,21.333 42.667,42.667 64,64 0,21.333 0,42.667 0,64 10.667,10.667 21.333,21.333 32,32 -21.333,0 -42.667,0 -64,0 0,21.667 0,43.333 0,65 10.667,0 21.333,0 32,0 32.062,21.422 64.223,42.721 96.223,64.219 21.592,21.261 43.185,42.521 64.777,63.781 -11,21.667 -22,43.333 -33,65 32.333,42.667 64.667,85.333 97,128 -10.667,10.667 -21.333,21.333 -32,32 0,21.667 0,43.333 0,65 10.667,10.667 21.333,21.333 32,32 0,10.667 0,21.333 0,32 32,21.333 64,42.667 96,64 -10.667,21.667 -21.333,43.333 -32,65 10.667,10.667 21.333,21.333 32,32 -0.07,10.76 0.132,21.563 -0.1,32.296 -10.634,31.902 -21.267,63.803 -31.901,95.704 21.333,21.667 42.667,43.333 64,65 -10.667,0 -21.333,0 -32,0 0,21.333 0,42.667 0,64 -21.333,21.333 -42.667,42.667 -64,64 0,10.667 0,21.333 0,32 21.333,43 42.667,86 64,129 21.667,21.333 43.333,42.667 65,64 10.667,-21.333 21.333,-42.667 32,-64 10.667,21.333 21.333,42.667 32,64 21.333,21.667 42.667,43.333 64,65 0,10.667 0,21.333 0,32 10.667,0 21.333,0 32,0 10.667,21.333 21.333,42.667 32,64 17.733,-17.191 35.544,-34.303 52.889,-51.889 4.037,-4.037 8.074,-8.074 12.111,-12.111 0,21.333 0,42.667 0,64 32,10.667 64,21.333 96,32 10.667,21.667 21.333,43.333 32,65 21.667,21.333 43.333,42.667 65,64 10.667,0 21.333,0 32,0 10.667,-10.667 21.333,-21.333 32,-32 53.667,0 107.333,0 161,0 0,10.667 0,21.333 0,32 21.333,10.667 42.667,21.333 64,32 -10.667,21.333 -21.333,42.667 -32,64 21.333,21.667 42.667,43.333 64,65 0,21.333 0,42.667 0,64 -21.333,10.667 -42.667,21.333 -64,32 10.667,43 21.333,86 32,129 -10.667,0 -21.333,0 -32,0 10.667,10.667 21.333,21.333 32,32 -10.667,21.333 -21.333,42.667 -32,64 -10.667,10.667 -21.333,21.333 -32,32 0,53.667 0,107.333 0,161 21.333,21.333 42.667,42.667 64,64 -10.667,11 -21.333,22 -32,33 10.667,10.667 21.333,21.333 32,32 0,32 0,64 0,96 -21.333,10.667 -42.667,21.333 -64,32 -10.667,32.333 -21.333,64.667 -32,97 10.667,42.667 21.333,85.333 32,128 10.667,0 21.333,0 32,0 0,11 0,22 0,33 10.667,10.667 21.333,21.333 32,32 -10.667,10.667 -21.333,21.333 -32,32 21.333,0 42.667,0 64,0 -10.667,10.667 -21.333,21.333 -32,32 -10.667,0 -21.333,0 -32,0 -10.667,10.667 -21.333,21.333 -32,32 10.667,0 21.333,0 32,0 0,53.667 0,107.333 0,161 -10.667,0 -21.333,0 -32,0 -10.667,10.667 -21.333,21.333 -32,32 10.667,10.667 21.333,21.333 32,32 -10.667,32.333 -21.333,64.667 -32,97 0,32 0,64 0,96 -21.667,10.667 -43.333,21.333 -65,32 11,21.667 22,43.333 33,65 -11,10.667 -22,21.333 -33,32 21.667,32 43.333,64 65,96 -10.667,32.333 -21.333,64.667 -32,97 10.667,21.333 21.333,42.667 32,64 32,0 64,0 96,0 21.333,-10.667 42.667,-21.333 64,-32 32.333,0 64.667,0 97,0 10.667,21.333 21.333,42.667 32,64 10.667,10.667 21.333,21.333 32,32 21.333,-21.333 42.667,-42.667 64,-64 -10.667,-21.333 -21.333,-42.667 -32,-64 10.667,-10.667 21.333,-21.333 32,-32 0,10.667 0,21.333 0,32 21.667,32 43.333,64 65,96 -10.667,32.333 -21.333,64.667 -32,97 0,10.667 0,21.333 0,32 -11,10.667 -22,21.333 -33,32 0,-10.667 0,-21.333 0,-32 -21.333,10.667 -42.667,21.333 -64,32 -10.667,21.333 -21.333,42.667 -32,64 10.667,10.667 21.333,21.333 32,32 -10.667,0 -21.333,0 -32,0 -10.667,21.667 -21.333,43.333 -32,65 10.667,10.667 21.333,21.333 32,32 -10.667,10.667 -21.333,21.333 -32,32 0,10.667 0,21.333 0,32 32,0 64,0 96,0 10.667,21.667 21.333,43.333 32,65 0,10.667 0,21.333 0,32 11,-10.667 22,-21.333 33,-32 32,10.667 64,21.333 96,32 26.269,26.445 52.86,52.566 79.433,78.704 5.856,5.765 11.711,11.531 17.567,17.296 10.667,-10.667 21.333,-21.333 32,-32 32,0 64,0 96,0 10.667,-10.667 21.333,-21.333 32,-32 21.667,-10.667 43.333,-21.333 65,-32 21.333,21.333 42.667,42.667 64,64 10.667,-10.667 21.333,-21.333 32,-32 0,10.667 0,21.333 0,32 10.667,0 21.333,0 32,0 10.667,10.667 21.333,21.333 32,32 0,10.667 0,21.333 0,32 11,10.667 22,21.333 33,32 0,21.667 0,43.333 0,65 21.333,21.333 42.667,42.667 64,64 0,21.333 0,42.667 0,64 10.667,0 21.333,0 32,0 0,-10.667 0,-21.333 0,-32 10.667,-10.667 21.333,-21.333 32,-32 10.667,10.667 21.333,21.333 32,32 0,53.667 0,107.333 0,161 10.667,21.333 21.333,42.667 32,64 32.333,10.667 64.667,21.333 97,32 32,0 64,0 96,0 11,43 22,86 33,129 21.333,10.667 42.667,21.333 64,32 -10.667,32.333 -21.333,64.667 -32,97 10.667,21.333 21.333,42.667 32,64 21.333,0 42.667,0 64,0 21.667,-10.667 43.333,-21.333 65,-32 0,32 0,64 0,96 21.333,21.667 42.667,43.333 64,65 0,10.667 0,21.333 0,32 10.667,0 21.333,0 32,0 -10.667,21.333 -21.333,42.667 -32,64 32,0 64,0 96,0 0,10.667 0,21.333 0,32 10.667,-10.667 21.333,-21.333 32,-32 0,-21.333 0,-42.667 0,-64 32.333,0 64.667,0 97,0 10.667,10.667 21.333,21.333 32,32 0.05,10.765 -0.101,21.554 0.07,32.303 10.642,42.899 21.283,85.798 31.925,128.697 -10.667,10.667 -21.333,21.333 -32,32 0,21.333 0,42.667 0,64 21.333,0 42.667,0 64,0 10.667,-10.667 21.333,-21.333 32,-32 11,0 22,0 33,0 32,32 64,64 96,96 -10.667,11 -21.333,22 -32,33 10.667,10.667 21.333,21.333 32,32 10.667,32 21.333,64 32,96 -10.667,10.667 -21.333,21.333 -32,32 10.667,0 21.333,0 32,0 32.333,32.333 64.667,64.667 97,97 32,0 64,0 96,0 10.667,21.333 21.333,42.667 32,64 32.333,10.667 64.667,21.333 97,32 0,-10.667 0,-21.333 0,-32 32,0 64,0 96,0 22.446,22.174 45.041,44.201 67.393,66.468 9.869,10.177 19.738,20.355 29.607,30.532 10.667,0 21.333,0 32,0 10.667,10.667 21.333,21.333 32,32 32,0 64,0 96,0 21.667,10.667 43.333,21.333 65,32 21.333,-10.667 42.667,-21.333 64,-32 10.667,10.667 21.333,21.333 32,32 10.667,-10.667 21.333,-21.333 32,-32 11,21.333 22,42.667 33,64 10.667,10.667 21.333,21.333 32,32 10.667,0 21.333,0 32,0 10.667,-10.667 21.333,-21.333 32,-32 10.667,0 21.333,0 32,0 10.667,21.333 21.333,42.667 32,64 43,-10.667 86,-21.333 129,-32 21.333,10.667 42.667,21.333 64,32 21.667,0 43.333,0 65,0 0,-10.667 0,-21.333 0,-32 10.667,10.667 21.333,21.333 32,32 10.667,21.667 21.333,43.333 32,65 10.667,10.667 21.333,21.333 32,32 10.667,-10.667 21.333,-21.333 32,-32 10.871,-0.06 21.759,0.121 32.618,-0.09 74.794,-10.969 149.588,-21.939 224.382,-32.909 0,21.667 0,43.333 0,65 -10.667,10.667 -21.333,21.333 -32,32 0,10.667 0,21.333 0,32 10.667,10.667 21.333,21.333 32,32 21.667,10.667 43.333,21.333 65,32 21.333,32.333 42.667,64.667 64,97 -21.333,10.667 -42.667,21.333 -64,32 0,10.667 0,21.333 0,32 -10.667,10.667 -21.333,21.333 -32,32 21.333,10.667 42.667,21.333 64,32 0,1575.667 0,3151.333 0,4727 -1800.667,0 -3601.333,0 -5402,0 -21.333,53.667 -42.667,107.333 -64,161 -10.667,107 -21.333,214 -32,321 -21.667,21.667 -43.333,43.333 -65,65 -21.635,10.758 -43.182,21.71 -64.871,32.346 -53.376,21.218 -106.753,42.436 -160.129,63.654 0,10.667 0,21.333 0,32 -32,32.333 -64,64.667 -96,97 0,21.333 0,42.667 0,64 21.333,21.333 42.667,42.667 64,64 -21.333,21.667 -42.667,43.333 -64,65 0,32 0,64 0,96 -10.667,10.667 -21.333,21.333 -32,32 10.667,21.667 21.333,43.333 32,65 -32.333,10.667 -64.667,21.333 -97,32 -21.333,32 -42.667,64 -64,96 -21.333,0 -42.667,0 -64,0 10.667,10.667 21.333,21.333 32,32 -43,43 -86,86 -129,129 0,42.667 0,85.333 0,128 -32.22,64.922 -64.349,129.889 -96.828,194.682 -10.391,21.106 -20.781,42.212 -31.172,63.318 10.667,10.667 21.333,21.333 32,32 0,10.667 0,21.333 0,32 10.667,10.667 21.333,21.333 32,32 -10.667,21.333 -21.333,42.667 -32,64 -10.667,0 -21.333,0 -32,0 -32.333,32.333 -64.667,64.667 -97,97 10.667,21.333 21.333,42.667 32,64 -21.333,-10.667 -42.667,-21.333 -64,-32 -10.667,10.667 -21.333,21.333 -32,32 0,21.667 0,43.333 0,65 -10.667,21.333 -21.333,42.667 -32,64 -21.667,10.667 -43.333,21.333 -65,32 -10.667,-10.667 -21.333,-21.333 -32,-32 -10.667,10.667 -21.333,21.333 -32,32 10.667,32 21.333,64 32,96 -10.667,43 -21.333,86 -32,129 -10.667,10.667 -21.333,21.333 -32,32 32,43 64,86 96,129 -21.333,21.333 -42.667,42.667 -64,64 0,43 0,86 0,129 -32,0 -64,0 -96,0 0.07,10.76 -0.132,21.563 0.1,32.296 10.634,31.902 21.267,63.803 31.901,95.704 -10.667,21.667 -21.333,43.333 -32,65 0,10.667 0,21.333 0,32 -21.667,10.667 -43.333,21.333 -65,32 -10.667,32 -21.333,64 -32,96 -10.667,11 -21.333,22 -32,33 10.667,10.667 21.333,21.333 32,32 -10.667,10.667 -21.333,21.333 -32,32 10.667,10.667 21.333,21.333 32,32 0,21.333 0,42.667 0,64 -64.333,43 -128.667,86 -193,129 0,21.333 0,42.667 0,64 -10.667,21.667 -21.333,43.333 -32,65 0,10.667 0,21.333 0,32 -21.333,10.667 -42.667,21.333 -64,32 10.667,64.333 21.333,128.667 32,193 0,10.667 0,21.333 0,32 21.333,10.667 42.667,21.333 64,32 0,21.333 0,42.667 0,64 -10.667,11 -21.333,22 -32,33 10.667,21.333 21.333,42.667 32,64 21.667,-10.667 43.333,-21.333 65,-32 0,21.333 0,42.667 0,64 21.333,10.667 42.667,21.333 64,32 10.667,21.667 21.333,43.333 32,65 26.269,26.445 52.86,52.566 79.433,78.704 5.856,5.765 11.711,11.531 17.567,17.296 21.333,0 42.667,0 64,0 0,32 0,64 0,96 21.333,21.667 42.667,43.333 64,65 -10.667,32 -21.333,64 -32,96 10.667,0 21.333,0 32,0 0,32.333 0,64.667 0,97 -10.667,21.333 -21.333,42.667 -32,64 -10.667,0 -21.333,0 -32,0 -43,21.333 -86,42.667 -129,64 -10.667,10.667 -21.333,21.333 -32,32 -43,0 -86,0 -129,0 -10.667,21.667 -21.333,43.333 -32,65 -32,0 -64,0 -96,0 -21.667,10.667 -43.333,21.333 -65,32 -21.333,21.333 -42.667,42.667 -64,64 -10.667,-10.667 -21.333,-21.333 -32,-32 -64.333,0 -128.667,0 -193,0 -22.763,22.849 -45.701,45.526 -68.351,68.487 -9.216,9.504 -18.433,19.009 -27.649,28.513 10.667,10.667 21.333,21.333 32,32 -10.667,10.667 -21.333,21.333 -32,32 10.667,10.667 21.333,21.333 32,32 -10.667,21.333 -21.333,42.667 -32,64 -10.667,0 -21.333,0 -32,0 -21.667,21.667 -43.333,43.333 -65,65 21.667,10.667 43.333,21.333 65,32 0,10.667 0,21.333 0,32 -43,42.667 -86,85.333 -129,128 -10.667,0 -21.333,0 -32,0 -10.667,-10.667 -21.333,-21.333 -32,-32 -21.667,0 -43.333,0 -65,0 0,-10.667 0,-21.333 0,-32 -53.333,-21.333 -106.667,-42.667 -160,-64 0,32 0,64 0,96 -32.333,-10.667 -64.667,-21.333 -97,-32 -10.667,0 -21.333,0 -32,0 -10.667,10.667 -21.333,21.333 -32,32 -10.667,0 -21.333,0 -32,0 0,10.667 0,21.333 0,32 -32.333,11 -64.667,22 -97,33 -21.333,21.333 -42.667,42.667 -64,64 -10.667,-10.667 -21.333,-21.333 -32,-32 10.667,-21.667 21.333,-43.333 32,-65 -10.756,-0.08 -21.571,0.154 -32.29,-0.115 -53.57,-21.295 -107.14,-42.59 -160.71,-63.885 -10.667,10.667 -21.333,21.333 -32,32 -32.333,-21.333 -64.667,-42.667 -97,-64 -32,10.667 -64,21.333 -96,32 10.667,-21.333 21.333,-42.667 32,-64 -10.667,-10.667 -21.333,-21.333 -32,-32 -10.667,-21.667 -21.333,-43.333 -32,-65 10.667,-21.333 21.333,-42.667 32,-64 -10.667,-10.667 -21.333,-21.333 -32,-32 10.667,-21.333 21.333,-42.667 32,-64 -32.333,-10.667 -64.667,-21.333 -97,-32 0,-11 0,-22 0,-33 11,-10.667 22,-21.333 33,-32 10.667,-21.333 21.333,-42.667 32,-64 -10.667,-21.333 -21.333,-42.667 -32,-64 -11,10.667 -22,21.333 -33,32 -17.376,-17.364 -34.817,-34.664 -51.798,-52.417 -4.067,-4.194 -8.135,-8.389 -12.202,-12.583 -10.667,0 -21.333,0 -32,0 0,-75 0,-150 0,-225 -21.333,-10.667 -42.667,-21.333 -64,-32 -53.667,0 -107.333,0 -161,0 -10.667,-32 -21.333,-64 -32,-96 0,-32.333 0,-64.667 0,-97 -17.364,-17.376 -34.664,-34.817 -52.417,-51.798 -4.194,-4.067 -8.389,-8.135 -12.583,-12.202 -32,21.333 -64,42.667 -96,64 -43,-42.667 -86,-85.333 -129,-128 0,-21.667 0,-43.333 0,-65 -10.667,0 -21.333,0 -32,0 0,-42.667 0,-85.333 0,-128 10.667,-10.667 21.333,-21.333 32,-32 -10.667,-43 -21.333,-86 -32,-129 -21.333,0 -42.667,0 -64,0 -10.667,10.667 -21.333,21.333 -32,32 -10.667,0 -21.333,0 -32,0 -11,-10.667 -22,-21.333 -33,-32 -10.667,10.667 -21.333,21.333 -32,32 -64.333,0 -128.667,0 -193,0 -42.667,-21.333 -85.333,-42.667 -128,-64 -32.333,0 -64.667,0 -97,0 -10.667,-10.667 -21.333,-21.333 -32,-32 -10.667,-43 -21.333,-86 -32,-129 -43,-21.333 -86,-42.667 -129,-64 -10.76,0.07 -21.563,-0.132 -32.296,0.1 -31.902,10.634 -63.803,21.267 -95.704,31.901 -17.364,-17.376 -34.664,-34.817 -52.417,-51.798 -4.194,-4.067 -8.389,-8.135 -12.583,-12.202 -32,10.667 -64,21.333 -96,32 -10.667,10.667 -21.333,21.333 -32,32 0,10.667 0,21.333 0,32 -32.333,-10.667 -64.667,-21.333 -97,-32 -32,0 -64,0 -96,0 -21.333,-10.667 -42.667,-21.333 -64,-32 -11,0 -22,0 -33,0 -10.667,10.667 -21.333,21.333 -32,32 0,21.333 0,42.667 0,64 10.667,21.667 21.333,43.333 32,65 -10.667,10.667 -21.333,21.333 -32,32 0,32 0,64 0,96 -10.667,10.667 -21.333,21.333 -32,32 -75.105,10.652 -150.202,21.421 -225.313,32 -31.895,0 -63.791,0 -95.687,0 -43,43 -86,86 -129,129 -32,-10.667 -64,-21.333 -96,-32 -21.667,10.667 -43.333,21.333 -65,32 -10.779,10.687 -21.403,21.588 -32.279,32.141 -42.907,21.619 -85.814,43.239 -128.721,64.859 -21.333,21.333 -42.667,42.667 -64,64 -32,0 -64,0 -96,0 0,32 0,64 0,96 -11,10.667 -22,21.333 -33,32 -32,0 -64,0 -96,0 -10.71,11.099 -21.537,22.102 -32.173,33.26 -21.276,31.913 -42.551,63.827 -63.827,95.74 0,32 0,64 0,96 -11,21.667 -22,43.333 -33,65 -53.425,42.718 -106.809,85.492 -160.26,128.174 -32.246,21.609 -64.493,43.217 -96.74,64.826 -21.333,53.667 -42.667,107.333 -64,161 0,75 0,150 0,225 10.667,10.667 21.333,21.333 32,32 0,10.667 0,21.333 0,32 -21.333,21.333 -42.667,42.667 -64,64 0,53.667 0,107.333 0,161 -32.333,21.333 -64.667,42.667 -97,64 0,32.333 0,64.667 0,97 -10.667,10.667 -21.333,21.333 -32,32 10.667,32 21.333,64 32,96 -10.667,43 -21.333,86 -32,129 10.667,10.667 21.333,21.333 32,32 21.667,0 43.333,0 65,0 0,32.333 0,64.667 0,97 21.333,21.333 42.667,42.667 64,64 10.667,21.333 21.333,42.667 32,64 0,43 0,86 0,129 -10.667,21.333 -21.333,42.667 -32,64 -32.333,0 -64.667,0 -97,0 -10.667,10.667 -21.333,21.333 -32,32 0,10.667 0,21.333 0,32 21.667,21.667 43.333,43.333 65,65 -21.667,10.667 -43.333,21.333 -65,32 0,10.667 0,21.333 0,32 10.687,10.779 21.587,21.404 32.141,32.279 10.953,21.573 21.906,43.147 32.859,64.721 -11,10.667 -22,21.333 -33,32 -21.333,42.667 -42.667,85.333 -64,128 10.667,32.333 21.333,64.667 32,97 -21.333,21.333 -42.667,42.667 -64,64 -10.748,43.193 -21.371,86.423 -32.198,129.593 -10.609,31.908 -21.315,63.789 -31.865,95.713 -10.979,53.565 -21.958,107.129 -32.937,160.694 -21.333,21.333 -42.667,42.667 -64,64 -10.667,21.333 -21.333,42.667 -32,64 32,11 64,22 96,33 43,42.667 86,85.333 129,128 0,21.667 0,43.333 0,65 -10.667,21.333 -21.333,42.667 -32,64 -10.77,10.852 -21.716,21.551 -32.376,32.5 -32.208,42.833 -64.416,85.667 -96.624,128.5 0,10.667 0,21.333 0,32 10.765,0.05 21.554,-0.101 32.303,0.07 42.899,10.642 85.798,21.283 128.697,31.925 10.667,32 21.333,64 32,96 43,0 86,0 129,0 21.333,10.667 42.667,21.333 64,32 0,43 0,86 0,129 32.333,64.333 64.667,128.667 97,193 53.333,21.333 106.667,42.667 160,64 11,21.667 22,43.333 33,65 10.667,10.667 21.333,21.333 32,32 0,21.333 0,42.667 0,64 -10.667,10.667 -21.333,21.333 -32,32 0,43 0,86 0,129 -11,0 -22,0 -33,0 -11.082,-10.985 -21.976,-22.17 -33.176,-33.029 -85.274,-74.657 -170.549,-149.314 -255.824,-223.971 -21.333,-53.667 -42.667,-107.333 -64,-161 -21.667,-32.333 -43.333,-64.667 -65,-97 -53.333,-42.667 -106.667,-85.333 -160,-128 -53.869,-21.719 -107.701,-43.54 -161.594,-65.196 -118.53,-39.003 -236.89,-78.52 -355.325,-117.812 -10.027,-3.33 -20.054,-6.661 -30.081,-9.992 -32,-32.333 -64,-64.667 -96,-97 -43.193,-10.747 -86.422,-21.373 -129.594,-32.196 -32.135,-10.601 -64.271,-21.203 -96.406,-31.804 -21.333,10.667 -42.667,21.333 -64,32 -21.333,21.667 -42.667,43.333 -64,65 -21.333,10.667 -42.667,21.333 -64,32 -64.333,0 -128.667,0 -193,0 -43,-10.667 -86,-21.333 -129,-32 -10.72,-32.643 -21.618,-65.235 -32.227,-97.91 -10.591,-42.363 -21.182,-84.727 -31.773,-127.09 -21.479,-32.485 -42.834,-65.06 -64.391,-97.488 -42.87,-53.504 -85.739,-107.008 -128.609,-160.512 -10.712,-53.762 -21.323,-107.551 -32.099,-161.296 -10.634,-31.902 -21.267,-63.803 -31.901,-95.704 -43,-43 -86,-86 -129,-129 0,-32 0,-64 0,-96 -32.437,-75.181 -64.789,-150.403 -97.28,-225.559 -10.573,-21.147 -21.147,-42.294 -31.72,-63.441 -33.645,-33.93 -67.158,-67.99 -100.887,-101.836 -30.704,-30.388 -61.409,-60.776 -92.113,-91.164 -42.667,0 -85.333,0 -128,0 -21.333,-10.667 -42.667,-21.333 -64,-32 -32.333,-32.333 -64.667,-64.667 -97,-97 10.667,-21.333 21.333,-42.667 32,-64 -21.333,-43 -42.667,-86 -64,-129 -21.333,0 -42.667,0 -64,0 -11,-10.667 -22,-21.333 -33,-32 -10.667,0 -21.333,0 -32,0 -32,-32 -64,-64 -96,-96 -43,-11 -86,-22 -129,-33 0,-32 0,-64 0,-96 -21.333,0 -42.667,0 -64,0 -21.333,-10.667 -42.667,-21.333 -64,-32 -43,0 -86,0 -129,0 -21.333,-32.333 -42.667,-64.667 -64,-97 -21.667,-21.333 -43.333,-42.667 -65,-64 -21.333,10.667 -42.667,21.333 -64,32 0,-10.667 0,-21.333 0,-32 -21.333,-21.333 -42.667,-42.667 -64,-64 -10.667,-21.667 -21.333,-43.333 -32,-65 -21.667,0 -43.333,0 -65,0 -10.744,-21.407 -21.364,-42.891 -32.187,-64.251 -31.937,-42.916 -63.875,-85.833 -95.813,-128.749 -11,0 -22,0 -33,0 0,-10.667 0,-21.333 0,-32 -21.333,-10.667 -42.667,-21.333 -64,-32 10.667,-10.667 21.333,-21.333 32,-32 0,-10.667 0,-21.333 0,-32 -10.667,-10.667 -21.333,-21.333 -32,-32 0,-10.667 0,-21.333 0,-32 -21.333,-11 -42.667,-22 -64,-33 -10.667,-21.333 -21.333,-42.667 -32,-64 -43,-10.667 -86,-21.333 -129,-32 -10.667,-10.667 -21.333,-21.333 -32,-32 -21.333,0 -42.667,0 -64,0 0,10.667 0,21.333 0,32 -10.667,-10.667 -21.333,-21.333 -32,-32 -11,0 -22,0 -33,0 -10.667,-21.333 -21.333,-42.667 -32,-64 -21.333,10.667 -42.667,21.333 -64,32 -32.333,-21.667 -64.667,-43.333 -97,-65 -10.667,-32 -21.333,-64 -32,-96 0,-10.667 0,-21.333 0,-32 21.667,-10.667 43.333,-21.333 65,-32 -11,-32.333 -22,-64.667 -33,-97 -10.667,0 -21.333,0 -32,0 0,-32 0,-64 0,-96 21.667,-11 43.333,-22 65,-33 0,-32 0,-64 0,-96 10.667,-10.667 21.333,-21.333 32,-32 32,21.333 64,42.667 96,64 0,-10.667 0,-21.333 0,-32 21.667,10.667 43.333,21.333 65,32 42.667,0 85.333,0 128,0 0,10.667 0,21.333 0,32 17.376,17.364 34.817,34.664 51.798,52.417 4.089,4.305 8.38,8.466 12.345,12.861 10.952,21.241 21.905,42.481 32.857,63.722 21.333,-10.667 42.667,-21.333 64,-32 0,-10.667 0,-21.333 0,-32 10.667,-11 21.333,-22 32,-33 32,11 64,22 96,33 11,-11 22,-22 33,-33 -11,-10.667 -22,-21.333 -33,-32 -10.667,0 -21.333,0 -32,0 0,-32 0,-64 0,-96 32.333,0 64.667,0 97,0 0,-10.667 0,-21.333 0,-32 10.667,10.667 21.333,21.333 32,32 21.333,-10.667 42.667,-21.333 64,-32 0,-21.667 0,-43.333 0,-65 32.333,0 64.667,0 97,0 10.667,-10.667 21.333,-21.333 32,-32 10.667,0 21.333,0 32,0 10.667,-10.667 21.333,-21.333 32,-32 0,-10.667 0,-21.333 0,-32 -10.667,-21.333 -21.333,-42.667 -32,-64 -10.667,-10.667 -21.333,-21.333 -32,-32 0,-11 0,-22 0,-33 21.333,0 42.667,0 64,0 0,-21.333 0,-42.667 0,-64 -32,-32 -64,-64 -96,-96 0,-21.667 0,-43.333 0,-65 -10.667,-21.333 -21.333,-42.667 -32,-64 10.667,-10.667 21.333,-21.333 32,-32 0,-10.667 0,-21.333 0,-32 10.667,-10.667 21.333,-21.333 32,-32 -10.667,-32.333 -21.333,-64.667 -32,-97 10.667,-10.667 21.333,-21.333 32,-32 10.667,0 21.333,0 32,0 10.667,-21.333 21.333,-42.667 32,-64 0,-21.667 0,-43.333 0,-65 10.667,-10.667 21.333,-21.333 32,-32 11,10.667 22,21.333 33,32 10.667,-21.333 21.333,-42.667 32,-64 -10.667,0 -21.333,0 -32,0 0,-21.333 0,-42.667 0,-64 42.667,-21.667 85.333,-43.333 128,-65 10.667,-10.667 21.333,-21.333 32,-32 21.667,-10.667 43.333,-21.333 65,-32 10.667,-32 21.333,-64 32,-96 10.667,0 21.333,0 32,0 0,-11 0,-22 0,-33 21.333,-10.667 42.667,-21.333 64,-32 -10.667,-32 -21.333,-64 -32,-96 21.333,-21.333 42.667,-42.667 64,-64 0,-43 0,-86 0,-129 10.667,-10.667 21.333,-21.333 32,-32 -53.333,-32.333 -106.667,-64.667 -160,-97 -10.667,10.667 -21.333,21.333 -32,32 -11,0 -22,0 -33,0 -21.333,-21.333 -42.667,-42.667 -64,-64 10.667,-10.667 21.333,-21.333 32,-32 -21.333,-32 -42.667,-64 -64,-96 0,-11 0,-22 0,-33 21.333,-10.667 42.667,-21.333 64,-32 10.667,-21.333 21.333,-42.667 32,-64 -21.333,0 -42.667,0 -64,0 -10.667,-21.333 -21.333,-42.667 -32,-64 0,-32.333 0,-64.667 0,-97 21.333,-10.667 42.667,-21.333 64,-32 -10.667,-32 -21.333,-64 -32,-96 10.667,-21.667 21.333,-43.333 32,-65 0,-10.667 0,-21.333 0,-32 -21.333,-10.667 -42.667,-21.333 -64,-32 -21.333,0 -42.667,0 -64,0 -21.667,-21.333 -43.333,-42.667 -65,-64 -18.464,-37.568 -36.945,-75.126 -55.76,-112.519 -2.977,-5.718 -5.589,-11.66 -8.8,-17.233 -31.813,-42.749 -63.627,-85.499 -95.44,-128.248 0,-21.333 0,-42.667 0,-64 -11,-21.333 -22,-42.667 -33,-64 -10.667,-10.667 -21.333,-21.333 -32,-32 0,-11 0,-22 0,-33 10.667,0 21.333,0 32,0 0,-53.333 0,-106.667 0,-160 -32,-96.667 -64,-193.333 -96,-290 -32.333,-10.667 -64.667,-21.333 -97,-32 -10.667,-21.333 -21.333,-42.667 -32,-64 -32,-10.667 -64,-21.333 -96,-32 -32.333,-21.667 -64.667,-43.333 -97,-65 -21.333,-32 -42.667,-64 -64,-96 0,-128.667 0,-257.333 0,-386 -21.333,-42.667 -42.667,-85.333 -64,-128 -21.333,-21.667 -42.667,-43.333 -64,-65 0,-53.667 0,-107.333 0,-161 -21.667,-53.333 -43.333,-106.667 -65,-160 10.667,-64.333 21.333,-128.667 32,-193 -10.667,-32.333 -21.333,-64.667 -32,-97 10.729,-32.086 21.34,-64.223 32.143,-96.278 10.952,-21.241 21.905,-42.481 32.857,-63.722 0,-11 0,-22 0,-33 10.667,-10.667 21.333,-21.333 32,-32 -10.672,-21.442 -21.51,-42.822 -32.077,-64.303 -10.975,-42.899 -21.949,-85.798 -32.923,-128.697 -10.768,-10.854 -21.72,-21.549 -32.373,-32.501 -31.876,-42.833 -63.751,-85.666 -95.627,-128.499 -32.333,21.667 -64.667,43.333 -97,65 -21.333,0 -42.667,0 -64,0 0,-75 0,-150 0,-225 -21.333,-32.333 -42.667,-64.667 -64,-97 21.249,-128.347 42.582,-256.681 64,-385 -32,-150.333 -64,-300.667 -96,-451 10.686,-21.438 21.481,-42.83 32.099,-64.296 10.634,-31.902 21.267,-63.803 31.901,-95.704 42.667,-64.333 85.333,-128.667 128,-193 53.733,-43.082 107.526,-86.096 161.221,-129.221 10.593,-10.593 21.186,-21.186 31.779,-31.779 0,-64.333 0,-128.667 0,-193 -26.445,-26.269 -52.566,-52.86 -78.704,-79.433 -5.765,-5.856 -11.531,-11.711 -17.296,-17.567 -10.667,-42.667 -21.333,-85.333 -32,-128 21.333,-75 42.667,-150 64,-225 32.333,-32.333 64.667,-64.667 97,-97 10.667,-42.667 21.333,-85.333 32,-128 0,-21.667 0,-43.333 0,-65 -22.908,-33.927 -45.992,-67.736 -68.786,-101.739 -20.107,-30.52 -40.301,-60.99 -60.354,-91.541 -10.62,-21.24 -21.24,-42.48 -31.86,-63.72 10.667,-21.333 21.333,-42.667 32,-64 -10.667,-10.667 -21.333,-21.333 -32,-32 0,-21.667 0,-43.333 0,-65 10.667,-32 21.333,-64 32,-96 0,-10.667 0,-21.333 0,-32 -85.667,0 -171.333,0 -257,0 -32.333,-64.333 -64.667,-128.667 -97,-193 -10.667,-85.667 -21.333,-171.333 -32,-257 -53.667,-128.667 -107.333,-257.333 -161,-386 -32,-160.667 -64,-321.333 -96,-482 -21.333,-11 -42.667,-22 -64,-33 -10.667,-32 -21.333,-64 -32,-96 10.667,-21.333 21.333,-42.667 32,-64 0,-11 0,-22 0,-33 -21.667,-53.333 -43.333,-106.667 -65,-160 -10.667,-10.667 -21.333,-21.333 -32,-32 -10.667,0 -21.333,0 -32,0 -43,-21.667 -86,-43.333 -129,-65 -32,-32 -64,-64 -96,-96 -32.062,-21.754 -64.221,-43.391 -96.223,-65.219 -21.592,-21.261 -43.185,-42.521 -64.777,-63.781 -10.667,-42.667 -21.333,-85.333 -32,-128 -21.333,-11 -42.667,-22 -64,-33 -10.745,-21.407 -21.362,-42.893 -32.188,-64.25 -32.271,-42.917 -64.541,-85.833 -96.812,-128.75 -42.667,-21.333 -85.333,-42.667 -128,-64 0,-32 0,-64 0,-96 10.667,-43 21.333,-86 32,-129 42.667,-43 85.333,-86 128,-129 10.667,-21.333 21.333,-42.667 32,-64 11.184,-10.771 22.231,-21.704 33.5,-32.375 42.5,-31.875 85,-63.75 127.5,-95.625 10.667,-21.667 21.333,-43.333 32,-65 -10.667,-171.333 -21.333,-342.667 -32,-514 43,-96.667 86,-193.333 129,-290 10.667,-53.333 21.333,-106.667 32,-160 -10.667,-53.667 -21.333,-107.333 -32,-161 -21.333,-21.333 -42.667,-42.667 -64,-64 -11,0 -22,0 -33,0 -32,-21.667 -64,-43.333 -96,-65 -107.333,-32 -214.667,-64 -322,-96 0,-10.667 0,-21.333 0,-32 -21.333,-32.333 -42.667,-64.667 -64,-97 -21.435,-0.03 -42.881,0.07 -64.308,-0.05 -128.664,-21.35 -257.34,-42.635 -385.995,-64.024 -42.899,-10.642 -85.798,-21.283 -128.697,-31.925 -53.333,21.333 -106.667,42.667 -160,64 -64.333,10.667 -128.667,21.333 -193,32 -75,-42.667 -150,-85.333 -225,-128 -21.756,-32.394 -43.387,-64.891 -65.221,-97.221 -34.394,-34.467 -68.936,-68.788 -103.234,-103.351 -18.848,-19.142 -37.697,-38.285 -56.545,-57.428 -21.685,-42.772 -43.486,-85.495 -65.098,-128.297 -10.634,-32.234 -21.268,-64.469 -31.902,-96.703 0,-53.667 0,-107.333 0,-161 -32,0 -64,0 -96,0 -11,-10.667 -22,-21.333 -33,-32 -42.667,0 -85.333,0 -128,0 -107.725,32.477 -215.479,64.861 -323.186,97.395 -31.605,10.535 -63.209,21.07 -94.814,31.605 -43.083,-21.398 -86.207,-42.723 -129.265,-64.166 -85.578,-53.611 -171.157,-107.223 -256.735,-160.834 -10.667,-21.333 -21.333,-42.667 -32,-64 -53.667,-53.667 -107.333,-107.333 -161,-161 0.07,-10.76 -0.131,-21.563 0.1,-32.297 10.634,-32.234 21.268,-64.469 31.902,-96.703 -10.804,-43.061 -21.463,-86.162 -32.357,-129.198 -31.881,-106.934 -63.762,-213.868 -95.643,-320.802 0,-21.333 0,-42.667 0,-64 42.667,-53.667 85.333,-107.333 128,-161 0,-32 0,-64 0,-96 -21.333,-11 -42.667,-22 -64,-33 -53.667,-10.667 -107.333,-21.333 -161,-32 -85.767,10.698 -171.546,21.323 -257.306,32.066 -149.898,32.311 -299.796,64.623 -449.694,96.934 -96.772,32.008 -193.518,64.115 -290.306,96.061 -53.232,10.647 -106.463,21.293 -159.694,31.939 -150.333,0 -300.667,0 -451,0 -75.586,-32.219 -151.128,-64.543 -226.741,-96.696 -52.859,-21.113 -105.682,-42.335 -158.562,-63.379 -42.992,-10.694 -86.018,-21.279 -128.987,-32.041 -107.237,-42.961 -214.473,-85.923 -321.71,-128.884 -32,-21.333 -64,-42.667 -96,-64 -10.667,10.667 -21.333,21.333 -32,32 -21.333,-21.333 -42.667,-42.667 -64,-64 -11,0 -22,0 -33,0 -10.667,10.667 -21.333,21.333 -32,32 -21.333,0 -42.667,0 -64,0 -10.667,-10.667 -21.333,-21.333 -32,-32 10.667,-11 21.333,-22 32,-33 -21.333,-10.667 -42.667,-21.333 -64,-32 0,-10.667 0,-21.333 0,-32 -21.667,0 -43.333,0 -65,0 -10.667,-10.667 -21.333,-21.333 -32,-32 10.687,-21.437 21.479,-42.831 32.101,-64.296 10.966,-32.235 21.933,-64.469 32.899,-96.704 0,-21.333 0,-42.667 0,-64 10.667,-21.667 21.333,-43.333 32,-65 0,-32 0,-64 0,-96 10.667,10.667 21.333,21.333 32,32 10.667,0 21.333,0 32,0 0,-32 0,-64 0,-96 32,-21.667 64,-43.333 96,-65 0,-21.333 0,-42.667 0,-64 21.667,-21.333 43.333,-42.667 65,-64 10.667,-21.333 21.333,-42.667 32,-64 0,-21.667 0,-43.333 0,-65 -10.667,-21.333 -21.333,-42.667 -32,-64 10.667,0 21.333,0 32,0 0,-21.333 0,-42.667 0,-64 -21.333,-21.667 -42.667,-43.333 -64,-65 0,-10.667 0,-21.333 0,-32 21.333,-21.333 42.667,-42.667 64,-64 10.667,0 21.333,0 32,0 -10.667,-21.667 -21.333,-43.333 -32,-65 -21.333,-10.667 -42.667,-21.333 -64,-32 0,-32 0,-64 0,-96 10.667,-10.667 21.333,-21.333 32,-32 0,-10.667 0,-21.333 0,-32 -21.667,0 -43.333,0 -65,0 0,-21.667 0,-43.333 0,-65 -10.667,-21.333 -21.333,-42.667 -32,-64 0,-10.667 0,-21.333 0,-32 10.667,-10.667 21.333,-21.333 32,-32 -10.771,-10.701 -21.419,-21.559 -32.267,-32.162 -53.244,-32.279 -106.489,-64.559 -159.733,-96.838 -12.405,-24.241 -25.118,-48.327 -37.306,-72.679 -19.898,-40.107 -39.796,-80.214 -59.694,-120.321 0,-96.333 0,-192.667 0,-289 -53.667,-21.667 -107.333,-43.333 -161,-65 -10.805,-21.494 -21.43,-43.091 -32.347,-64.52 -21.217,-31.827 -42.435,-63.653 -63.653,-95.48 -10.667,-32.333 -21.333,-64.667 -32,-97 -53.667,-53.667 -107.333,-107.333 -161,-161 -21.333,-42.667 -42.667,-85.333 -64,-128 -64.401,-53.746 -128.85,-107.441 -193.222,-161.22 -32.259,-31.927 -64.519,-63.853 -96.778,-95.78 15.547,-31.456 30.804,-63.056 46.858,-94.258 16.732,-33.019 33.58,-65.99 50.24,-99.039 10.634,-32.234 21.268,-64.469 31.902,-96.703 0,-117.667 0,-235.333 0,-353 -43,-118 -86,-236 -129,-354 10.667,-107.333 21.333,-214.667 32,-322 -32,-21.333 -64,-42.667 -96,-64 -10.667,-21.333 -21.333,-42.667 -32,-64 10.667,-32.333 21.333,-64.667 32,-97 75,-75 150,-150 225,-225 21.333,-32 42.667,-64 64,-96 10.667,10.667 21.333,21.333 32,32 z"
         style="fill:#999999;stroke:#ffffff;stroke-width:282.23678589;stroke-miterlimit:4;stroke-dasharray:none;stroke-opacity:1" />
    </g>
  </g>
</svg>
