<?xml version="1.0" encoding="UTF-8" standalone="no"?>
<!-- Created with Inkscape (http://www.inkscape.org/) -->

<svg
   xmlns:dc="http://purl.org/dc/elements/1.1/"
   xmlns:cc="http://creativecommons.org/ns#"
   xmlns:rdf="http://www.w3.org/1999/02/22-rdf-syntax-ns#"
   xmlns:svg="http://www.w3.org/2000/svg"
   xmlns="http://www.w3.org/2000/svg"
   xmlns:sodipodi="http://sodipodi.sourceforge.net/DTD/sodipodi-0.dtd"
   xmlns:inkscape="http://www.inkscape.org/namespaces/inkscape"
   width="38.025475mm"
   height="32.907532mm"
   viewBox="0 0 38.025475 32.907532"
   version="1.1"
   id="svg1426"
   inkscape:version="0.92.5 (2060ec1f9f, 2020-04-08)"
   sodipodi:docname="rs.svg">
  <defs
     id="defs1420" />
  <sodipodi:namedview
     id="base"
     pagecolor="#ffffff"
     bordercolor="#666666"
     borderopacity="1.0"
     inkscape:pageopacity="0.0"
     inkscape:pageshadow="2"
     inkscape:zoom="0.35"
     inkscape:cx="637.57346"
     inkscape:cy="765.04461"
     inkscape:document-units="mm"
     inkscape:current-layer="layer1"
     showgrid="false"
     inkscape:window-width="1366"
     inkscape:window-height="704"
     inkscape:window-x="0"
     inkscape:window-y="0"
     inkscape:window-maximized="1" />
  <metadata
     id="metadata1423">
    <rdf:RDF>
      <cc:Work
         rdf:about="">
        <dc:format>image/svg+xml</dc:format>
        <dc:type
           rdf:resource="http://purl.org/dc/dcmitype/StillImage" />
        <dc:title></dc:title>
      </cc:Work>
    </rdf:RDF>
  </metadata>
  <g
     inkscape:label="Layer 1"
     inkscape:groupmode="layer"
     id="layer1"
     transform="translate(96.119882,-318.34385)">
    <g
       transform="matrix(9.9994773e-4,0,0,9.9994773e-4,-179.15076,158.87775)"
       id="RioGrand_do_Sul">
      <path
         inkscape:connector-curvature="0"
         style="fill:#999999;fill-opacity:1;stroke:#ffffff;stroke-width:282.23678589;stroke-miterlimit:4;stroke-dasharray:none;stroke-opacity:1"
         d="m 84646,173756 c 10.668,-64.33 21.332,-128.67 32,-193 -10.648,-64.46 -21.45,-128.89 -32,-193.36 0,-21.21 0,-42.43 0,-63.64 53.667,-86 107.333,-172 161,-258 75,-64 150,-128 225,-192 32.333,-11 64.667,-22 97,-33 85.667,0 171.333,0 257,0 64.334,-21.33 128.666,-42.67 193,-64 11.245,-11 22.019,-22.52 33.569,-33.18 42.599,-32.03 85.379,-63.84 127.853,-96.03 74.857,-63.93 149.719,-127.86 224.578,-191.79 128.36,-171.65 257.193,-342.94 385,-515 53.665,-42.67 107.335,-85.33 161,-128 43.002,-64.33 85.998,-128.67 129,-193 75.562,-43.24 150.99,-86.72 226.631,-129.82 42.12,-21.07 84.247,-42.12 126.369,-63.18 21.784,-21.71 43.435,-43.56 65.296,-65.2 31.905,-21.26 63.804,-42.53 95.704,-63.8 32.333,-43 64.667,-86 97,-129 0,-53.33 0,-106.67 0,-160 10.666,-53.67 21.334,-107.33 32,-161 21.332,-10.67 42.668,-21.33 64,-32 64.333,0 128.667,0 193,0 21.332,-10.67 42.668,-21.33 64,-32 75.001,-139.33 149.999,-278.67 225,-418 11.001,-32.33 21.999,-64.67 33,-97 -10.999,-42.67 -22.001,-85.33 -33,-128 32.334,-64.33 64.666,-128.67 97,-193 42.998,-53.67 86.002,-107.33 129,-161 21.334,-64.33 42.666,-128.67 64,-193 31.999,-10.67 64.001,-21.33 96,-32 53.667,0 107.333,0 161,0 43.118,-32.37 86.136,-64.87 129.318,-97.16 21.227,-10.61 42.453,-21.23 63.682,-31.84 107.454,-10.65 214.897,-21.4 322.356,-32 21.215,0 42.429,0 63.644,0 10.668,-64.33 21.332,-128.67 32,-193 21.333,-32 42.667,-64 64,-96 -32.002,-32.33 -63.998,-64.67 -96,-97 10.666,-42.67 21.334,-85.33 32,-128 21.331,-21.67 42.669,-43.33 64,-65 22.101,-10.72 43.974,-21.98 66.22,-32.35 74.591,-21.22 149.187,-42.43 223.78,-63.65 21.393,-21.77 42.875,-43.45 64.213,-65.28 31.97,-42.69 64.06,-85.29 95.95,-128.04 10.945,-21.23 21.892,-42.45 32.837,-63.68 -0.03,-43.12 0.07,-86.23 -0.05,-129.35 -10.979,-74.88 -21.965,-149.77 -32.948,-224.65 11.001,-32.33 21.999,-64.67 33,-97 21.75,-11.02 43.747,-21.58 65.337,-32.89 31.551,-21.04 63.107,-42.07 94.663,-63.11 118,0 236,0 354,0 42.998,-53.67 86.002,-107.33 129,-161 21.424,-42.75 42.698,-85.58 64.212,-128.29 31.935,-42.9 63.857,-85.81 95.788,-128.71 128.668,-107.33 257.332,-214.67 386,-322 43.001,-21.33 85.999,-42.67 129,-64 21.335,-21.33 42.665,-42.67 64,-64 10.668,-21.33 21.332,-42.67 32,-64 -21.384,-21.78 -42.893,-43.44 -64.197,-65.3 -21.268,-31.9 -42.535,-63.8 -63.803,-95.7 0,-43 0,-86 0,-129 21.333,-32 42.667,-64 64,-96 44.484,-10.91 88.86,-22.28 133.411,-32.91 84.094,-17.36 168.158,-34.87 252.435,-51.33 23.83,-4.9 47.803,-9.16 71.517,-14.58 40.545,-10.07 81.091,-20.12 121.637,-30.18 10.665,-10.67 21.335,-21.33 32,-32 -0.09,-10.78 0.188,-21.56 -0.141,-32.33 -32.286,-74.89 -64.573,-149.78 -96.859,-224.67 0,-32.33 0,-64.67 0,-97 43.002,-64.33 85.998,-128.67 129,-193 42.999,-10.67 86.001,-21.33 129,-32 42.668,21.33 85.332,42.67 128,64 96.667,0 193.333,0 290,0 32,11 64,22 96,33 10.665,10.67 21.335,21.33 32,32 10.737,32.1 21.343,64.25 32.161,96.32 21.806,42.8 43.445,85.68 64.839,128.68 21.333,0 42.667,0 64,0 10.668,-21.33 21.332,-42.67 32,-64 0,-32.33 0,-64.67 0,-97 32.332,-85.67 64.668,-171.33 97,-257 0,-21.33 0,-42.67 0,-64 -53.757,-32.41 -107.559,-64.75 -161.285,-97.21 -42.903,-31.93 -85.81,-63.86 -128.715,-95.79 -64.332,-21.67 -128.668,-43.33 -193,-65 -10.667,-32 -21.333,-64 -32,-96 10.668,-21.33 21.332,-42.67 32,-64 64.453,-21.68 128.87,-43.47 193.349,-65.07 53.549,-10.65 107.1,-21.29 160.651,-31.93 64.409,-53.76 128.877,-107.45 193.252,-161.25 10.714,-10.61 21.218,-21.43 32.066,-31.91 21.227,-10.61 42.453,-21.23 63.682,-31.84 11,0 22,0 33,0 10.665,-10.67 21.335,-21.33 32,-32 -10.668,-21.33 -21.332,-42.67 -32,-64 21.333,-11 42.667,-22 64,-33 -10.668,-21.33 -21.332,-42.67 -32,-64 10.691,-10.8 21.601,-21.39 32.159,-32.32 10.612,-21.23 21.228,-42.45 31.841,-63.68 21.333,0 42.667,0 64,0 21.665,10.67 43.335,21.33 65,32 0,10.67 0,21.33 0,32 -11.001,21.33 -21.999,42.67 -33,64 0,10.67 0,21.33 0,32 42.999,21.67 86.001,43.33 129,65 10.667,0 21.333,0 32,0 10.665,-10.67 21.335,-21.33 32,-32 0,-32.33 0,-64.67 0,-97 21.668,-21.33 43.332,-42.67 65,-64 31.999,-10.67 64.001,-21.33 96,-32 32.381,-64.31 64.887,-128.56 97,-193 21.333,0 42.667,0 64,0 21.333,32 42.667,64 64,96 32.333,0 64.667,0 97,0 10.668,-21.33 21.332,-42.67 32,-64 42.667,-43 85.333,-86 128,-129 64.333,-32 128.667,-64 193,-96 10.998,-10.67 22.002,-21.33 33,-32 0,-21.67 0,-43.33 0,-65 -21.667,-32 -43.333,-64 -65,-96 -10.667,0 -21.333,0 -32,0 0,-21.33 0,-42.67 0,-64 21.331,-21.67 42.669,-43.33 64,-65 43,0 86,0 129,0 10.665,-10.67 21.335,-21.33 32,-32 10.666,-42.67 21.334,-85.33 32,-128 10.666,-21.67 21.334,-43.33 32,-65 32.333,0 64.667,0 97,0 42.999,10.67 86.001,21.33 129,32 21.333,0 42.667,0 64,0 11.419,-22.43 22.192,-45.22 34.038,-67.42 31.321,-52.53 62.641,-105.05 93.962,-157.58 64.335,-53.33 128.665,-106.67 193,-160 21.667,0 43.333,0 65,0 21.332,10.67 42.668,21.33 64,32 21.437,32.07 42.715,64.25 64.254,96.25 31.491,31.18 63.51,61.84 94.048,93.97 4.026,6.25 8.039,-4.66 12.061,-6.9 17.976,-18.67 36.249,-37.05 54.637,-55.32 -10.666,-42.67 -21.334,-85.33 -32,-128 10.798,-10.69 21.39,-21.6 32.316,-32.16 21.355,-10.95 42.61,-22.1 64.029,-32.93 42.888,-10.63 85.771,-21.27 128.655,-31.91 43.383,21.74 86.591,43.87 130.085,65.36 31.639,10.55 63.277,21.09 94.915,31.64 10.666,-21.67 21.334,-43.33 32,-65 0,-21.33 0,-42.67 0,-64 -10.668,-21.33 -21.332,-42.67 -32,-64 -75.001,-32.33 -149.999,-64.67 -225,-97 -10.668,-21.33 -21.332,-42.67 -32,-64 21.335,-21.33 42.665,-42.67 64,-64 32.332,-10.67 64.668,-21.33 97,-32 53.566,42.94 107.309,85.68 160.767,128.75 10.744,10.41 21.487,20.83 32.233,31.25 21.332,-10.67 42.668,-21.33 64,-32 10.667,-32 21.333,-64 32,-96 21.333,0 42.667,0 64,0 32.332,10.67 64.668,21.33 97,32 10.667,0 21.333,0 32,0 21.332,-10.67 42.668,-21.33 64,-32 10.666,-21.67 21.334,-43.33 32,-65 0,-10.67 0,-21.33 0,-32 42.998,-42.67 86.002,-85.33 129,-128 0,-139.33 0,-278.67 0,-418 10.666,-21.67 21.334,-43.33 32,-65 64.333,0 128.667,0 193,0 10.665,-10.67 21.335,-21.33 32,-32 10.677,-32.12 21.462,-64.21 32.071,-96.35 10.976,-53.55 21.953,-107.1 32.929,-160.65 32.001,-64.33 63.999,-128.67 96,-193 10.667,0 21.333,0 32,0 21.332,10.67 42.668,21.33 64,32 11.001,64.33 21.999,128.67 33,193 21.332,10.67 42.668,21.33 64,32 21.333,0 42.667,0 64,0 32.056,-32.28 64.607,-64.06 97,-96 32,0 64,0 96,0 64.334,21.33 128.666,42.67 193,64 10.665,-10.67 21.335,-21.33 32,-32 -0.06,-21.45 0.114,-42.9 -0.09,-64.35 -10.637,-42.88 -21.275,-85.77 -31.914,-128.65 0,-21.33 0,-42.67 0,-64 10.666,-21.67 21.334,-43.33 32,-65 10.667,0 21.333,0 32,0 11,11 22,22 33,33 21.334,53.33 42.666,106.67 64,160 32,0 64,0 96,0 10.773,-21.83 22.015,-43.45 32.489,-65.42 10.915,-31.62 21.659,-63.31 32.693,-94.89 31.943,-53.56 63.877,-107.13 95.818,-160.69 0,-21.33 0,-42.67 0,-64 10.666,-21.67 21.334,-43.33 32,-65 10.667,0 21.333,0 32,0 43,43 86,86 129,129 21.332,42.67 42.668,85.33 64,128 10.667,0 21.333,0 32,0 21.665,-10.67 43.335,-21.33 65,-32 10.668,-21.33 21.332,-42.67 32,-64 10.665,-10.67 21.335,-21.33 32,-32 75,0 150,0 225,0 21.332,-10.67 42.668,-21.33 64,-32 0,-21.67 0,-43.33 0,-65 -11.067,-10.84 -21.714,-22.16 -33.044,-32.7 -31.656,-21.09 -63.305,-42.2 -94.956,-63.3 0,-21.33 0,-42.67 0,-64 53.667,0 107.333,0 161,0 31.445,-32.88 63.871,-64.79 96,-97 10.667,0 21.333,0 32,0 32.335,21.33 64.665,42.67 97,64 0,11 0,22 0,33 32.097,42.74 64.085,85.56 96.252,128.25 10.714,10.61 21.218,21.43 32.065,31.91 21.557,10.95 43.123,21.89 64.683,32.84 21.333,-11 42.667,-22 64,-33 0,-21.33 0,-42.67 0,-64 -10.667,-32 -21.333,-64 -32,-96 0,-32.33 0,-64.67 0,-97 10.667,0 21.333,0 32,0 21.332,10.67 42.668,21.33 64,32 21.383,21.78 42.889,43.44 64.199,65.29 21.603,31.9 43.199,63.81 64.801,95.71 11.015,-0.22 22.139,0.47 33.085,-0.36 31.639,-10.55 63.277,-21.09 94.915,-31.64 0,-43 0,-86 0,-129 11.001,-21.33 21.999,-42.67 33,-64 10.665,-10.67 21.335,-21.33 32,-32 32,0 64,0 96,0 21.332,-10.67 42.668,-21.33 64,-32 10.999,-21.67 22.001,-43.33 33,-65 0,-42.67 0,-85.33 0,-128 10.668,-32.33 21.332,-64.67 32,-97 21.333,-32 42.667,-64 64,-96 0.06,-21.45 -0.114,-42.9 0.09,-64.35 10.637,-42.88 21.275,-85.77 31.914,-128.65 21.335,-21.33 42.665,-42.67 64,-64 11,0 22,0 33,0 10.665,10.67 21.335,21.33 32,32 0,53.67 0,107.33 0,161 21.332,10.67 42.668,21.33 64,32 107.333,0 214.667,0 321.998,0 31.57,-64.55 63.88,-128.73 96,-193 43,-10.67 86,-21.33 129,-32 21.33,-32.33 42.67,-64.67 64,-97 0,-32 0,-64 0,-96 10.67,-21.67 21.33,-43.33 32,-65 32.33,-10.67 64.67,-21.33 97,-32 42.67,0 85.33,0 128,0 0,-53.67 0,-107.33 0,-161 10.67,-10.67 21.33,-21.33 32,-32 21.67,0 43.33,0 65,0 21.33,10.67 42.67,21.33 64,32 10.67,21.67 21.33,43.33 32,65 21.67,0 43.33,0 65,0 21.33,-32.33 42.67,-64.67 64,-97 10.67,-32 21.33,-64 32,-96 10.67,-10.67 21.33,-21.33 32,-32 32.33,0 64.67,0 97,0 21.33,53.33 42.67,106.67 64,160 10.67,11 21.33,22 32,33 10.67,0 21.33,0 32,0 10.67,10.67 21.33,21.33 32,32 21.67,0 43.33,0 65,0 11.24,-11.01 22.02,-22.51 33.57,-33.18 42.14,-31.94 84.28,-63.88 126.43,-95.82 21.67,10.67 43.33,21.33 65,32 21.33,53.67 42.67,107.33 64,161 21.33,0 42.67,0 64,0 21.67,-10.67 43.33,-21.33 65,-32 10.67,0 21.33,0 32,0 10.8,-10.69 21.39,-21.6 32.32,-32.16 21.23,-10.61 42.45,-21.23 63.68,-31.84 10.67,-11 21.33,-22 32,-33 32.33,0 64.67,0 97,0 21.33,11 42.67,22 64,33 0,10.67 0,21.33 0,32 10.67,10.67 21.33,21.33 32,32 0,53.67 0,107.33 0,161 10.67,10.67 21.33,21.33 32,32 11,0 22,0 33,0 21.33,-53.67 42.67,-107.33 64,-161 43,0 86,0 129,0 42.67,-21.33 85.33,-42.67 128,-64 32.33,0 64.67,0 97,0 32,32 64,64 96,96 21.33,10.67 42.67,21.33 64,32 32.33,0 64.67,0 97,0 0,-42.67 0,-85.33 0,-128 -21.33,-21.67 -42.67,-43.33 -64,-65 0,-42.67 0,-85.33 0,-128 42.67,0 85.33,0 128,0 10.67,21.33 21.33,42.67 32,64 21.67,10.67 43.33,21.33 65,32 75,-21.33 150,-42.67 225,-64 10.74,-21.72 21.87,-43.26 32.36,-65.1 10.55,-31.96 21.09,-63.93 31.64,-95.9 21.33,-21.33 42.67,-42.67 64,-64 10.67,0 21.33,0 32,0 11,-10.67 22,-21.33 33,-32 10.69,10.8 21.6,21.39 32.16,32.32 10.61,21.23 21.23,42.45 31.84,63.68 10.67,10.67 21.33,21.33 32,32 64.33,0 128.67,0 193,0 0,11 0,22 0,33 10.67,10.67 21.33,21.33 32,32 10.67,0 21.33,0 32,0 0,32 0,64 0,96 -11.42,22.44 -22.19,45.22 -34.04,67.42 -31.32,52.53 -62.64,105.06 -93.96,157.58 0,32.33 0,64.67 0,97 21.33,0 42.67,0 64,0 21.33,-32.33 42.67,-64.67 64,-97 85.98,-42.7 171.82,-85.69 258,-128 10.67,0 21.33,0 32,0 53.33,32 106.67,64 160,96 21.67,0 43.33,0 65,0 10.67,-10.67 21.33,-21.33 32,-32 10.67,-53.67 21.33,-107.33 32,-161 0,-10.67 0,-21.33 0,-32 10.67,0 21.33,0 32,0 10.67,-10.67 21.33,-21.33 32,-32 11,10.67 22,21.33 33,32 21.33,43 42.67,86 64,129 0,10.67 0,21.33 0,32 11.03,-0.23 22.17,0.48 33.13,-0.37 96.07,-31.89 191.94,-64.34 287.87,-96.63 0,-32 0,-64 0,-96 -10.67,-32.33 -21.33,-64.67 -32,-97 0,-21.33 0,-42.67 0,-64 32.33,-32 64.67,-64 97,-96 53.33,0 106.67,0 160,0 11,10.67 22,21.33 33,32 -11.09,21.42 -22.04,42.91 -33.21,64.29 -31.93,42.9 -63.86,85.81 -95.79,128.71 0,32 0,64 0,96 10.67,10.67 21.33,21.33 32,32 10.67,0 21.33,0 32,0 43,-32 86,-64 129,-96 10.67,0 21.33,0 32,0 10.67,21.33 21.33,42.67 32,64 10.67,0 21.33,0 32,0 0,21.33 0,42.67 0,64 -21.44,32.4 -42.71,64.91 -64.25,97.25 -10.58,10.58 -21.17,21.17 -31.75,31.75 0,32 0,64 0,96 10.67,0 21.33,0 32,0 10.67,11 21.33,22 32,33 21.67,10.67 43.33,21.33 65,32 10.67,-10.67 21.33,-21.33 32,-32 0,-53.67 0,-107.33 0,-161 10.67,-32.33 21.33,-64.67 32,-97 11.01,0.24 22.15,-0.48 33.09,0.38 31.64,10.87 63.27,21.75 94.91,32.62 0,42.67 0,85.33 0,128 11,10.67 22,21.33 33,32 11.02,-0.23 22.14,0.47 33.09,-0.36 31.74,-10.62 63.52,-21.11 95.23,-31.8 21.56,-10.61 43.12,-21.23 64.68,-31.84 0,-10.67 0,-21.33 0,-32 42.67,-21.33 85.33,-42.67 128,-64 10.67,0 21.33,0 32,0 10.67,10.67 21.33,21.33 32,32 0,53.33 0,106.67 0,160 21.67,0 43.33,0 65,0 21.33,-10.67 42.67,-21.33 64,-32 43,0 86,0 129,0 10.67,10.67 21.33,21.33 32,32 32,0 64,0 96,0 0,11 0,22 0,33 10.67,0 21.33,0 32,0 -0.22,11.02 0.47,22.14 -0.36,33.09 -10.55,31.63 -21.09,63.27 -31.64,94.91 0,10.67 0,21.33 0,32 21.67,11 43.33,22 65,33 0,10.67 0,21.33 0,32 43,-42.67 85,-86.33 128,-129 10.67,0 21.33,0 32,0 11.07,21.72 22.57,43.25 33.36,65.1 10.55,31.96 21.09,63.93 31.64,95.9 0,10.67 0,21.33 0,32 10.67,10.67 21.33,21.33 32,32 10.67,0 21.33,0 32,0 21.33,-21.33 42.67,-42.67 64,-64 0,-32.33 0,-64.67 0,-97 10.67,-10.67 21.33,-21.33 32,-32 21.67,0 43.33,0 65,0 21.33,32.33 42.67,64.67 64,97 21.33,10.67 42.67,21.33 64,32 10.67,0 21.33,0 32,0 11,-10.67 22,-21.33 33,-32 32,-10.67 64,-21.33 96,-32 10.67,-11 21.33,-22 32,-33 43,0 86,0 129,0 21.33,-10.67 42.67,-21.33 64,-32 21.33,32.33 42.67,64.67 64,97 53.67,10.67 107.33,21.33 161,32 32.33,0 64.67,0 97,0 0,-53.67 0,-107.33 0,-161 53.33,-32 106.67,-64 160,-96 21.67,0 43.33,0 65,0 -0.22,11.02 0.47,22.14 -0.36,33.09 -10.55,31.63 -21.09,63.27 -31.64,94.91 0,32.33 0,64.67 0,97 45.44,45.59 91.19,90.87 136.41,136.67 7.87,8.11 15.73,16.22 23.59,24.33 10.67,0 21.33,0 32,0 11,-11 22,-22 33,-33 -11,-42.67 -22,-85.33 -33,-128 0,-10.67 0,-21.33 0,-32 21.67,0 43.33,0 65,0 0,10.67 0,21.33 0,32 10.67,0 21.33,0 32,0 -10.67,42.67 -21.33,85.33 -32,128 10.67,32.33 21.33,64.67 32,97 21.33,-10.67 42.67,-21.33 64,-32 21.67,-21.67 43.33,-43.33 65,-65 10.67,0 21.33,0 32,0 21.33,21.67 42.67,43.33 64,65 21.33,10.67 42.67,21.33 64,32 21.67,21.33 43.33,42.67 65,64 10.67,0 21.33,0 32,0 0,-10.67 0,-21.33 0,-32 10.67,-10.67 21.33,-21.33 32,-32 -21.4,-42.76 -42.84,-85.53 -63.67,-128.56 -0.75,-7.24 -0.12,-14.68 -0.33,-22 0,-24.81 0,-49.63 0,-74.44 64.33,0 128.67,0 193,0 10.67,-10.67 21.33,-21.33 32,-32 32,21.33 64,42.67 96,64 -10.67,10.67 -21.33,21.33 -32,32 -32,10.67 -64,21.33 -96,32 -21.67,21.67 -43.33,43.33 -65,65 0,10.67 0,21.33 0,32 43,10.67 86,21.33 129,32 10.67,0 21.33,0 32,0 21.33,32 42.67,64 64,96 10.67,0 21.33,0 32,0 0,10.67 0,21.33 0,32 11,0 22,0 33,0 10.69,-10.8 21.6,-21.39 32.16,-32.32 10.68,-21.61 21.76,-43.05 32.2,-64.77 10.55,-31.63 21.09,-63.27 31.64,-94.91 31.56,-31.89 62.62,-64.29 95.15,-95.2 4.97,-3.84 12.7,-0.86 18.85,-1.8 6.51,0.91 14.9,-2.72 19,4 9.33,9.33 18.67,18.67 28,28 -10.67,53.67 -21.33,107.33 -32,161 21.33,0 42.67,0 64,0 21.33,-10.67 42.67,-21.33 64,-32 21.67,0 43.33,0 65,0 10.67,-10.67 21.33,-21.33 32,-32 21.33,10.67 42.67,21.33 64,32 0,53.67 0,107.33 0,161 10.67,10.67 21.33,21.33 32,32 21.67,0 43.33,0 65,0 21.33,-10.67 42.67,-21.33 64,-32 32,10.67 64,21.33 96,32 21.67,0 43.33,0 65,0 32,-21.67 64,-43.33 96,-65 10.67,0 21.33,0 32,0 0,21.67 0,43.33 0,65 -21.33,10.67 -42.67,21.33 -64,32 10.67,10.67 21.33,21.33 32,32 0,10.67 0,21.33 0,32 21.33,10.67 42.67,21.33 64,32 11,10.67 22,21.33 33,32 21.33,-10.67 42.67,-21.33 64,-32 32,0 64,0 96,0 21.67,10.67 43.33,21.33 65,32 0,21.67 0,43.33 0,65 -86,0 -172,0 -258,0 0,21.33 0,42.67 0,64 21.67,10.67 43.33,21.33 65,32 53.67,0 107.33,0 161,0 32,32.33 64,64.67 96,97 0,21.33 0,42.67 0,64 -43,32.33 -86,64.67 -129,97 11,10.67 22,21.33 33,32 21.33,0 42.67,0 64,0 40.57,-20.16 81.03,-40.54 121.19,-61.49 5.6,-4.45 12.5,-3.54 19.19,-3.51 6.87,0 13.74,0 20.62,0 10.67,11 21.33,22 32,33 0,53.33 0,106.67 0,160 21.33,32.33 42.67,64.67 64,97 21.33,0 42.67,0 64,0 -0.22,-11.02 0.47,-22.14 -0.36,-33.1 -10.55,-31.96 -21.09,-63.93 -31.64,-95.9 10.67,-10.67 21.33,-21.33 32,-32 0,-10.67 0,-21.33 0,-32 53.67,0 107.33,0 161,0 -0.1,10.78 0.18,21.56 -0.13,32.33 -21.29,53.56 -42.58,107.11 -63.87,160.67 10.67,10.67 21.33,21.33 32,32 42.9,-21.54 85.9,-42.88 129,-64 32,32 64,64 96,96 21.33,0 42.67,0 64,0 0,-21.33 0,-42.67 0,-64 -21.33,-21.67 -42.67,-43.33 -64,-65 0,-21.33 0,-42.67 0,-64 21.45,0 42.9,0.1 64.35,-0.1 53.55,-10.65 107.1,-21.29 160.65,-31.93 0,10.67 0,21.33 0,32 21.33,10.67 42.67,21.33 64,32 21.67,21.67 43.33,43.33 65,65 10.67,0 21.33,0 32,0 10.67,-11 21.33,-22 32,-33 10.67,-32 21.33,-64 32,-96 10.67,-10.67 21.33,-21.33 32,-32 21.67,0 43.33,0 65,0 21.33,10.67 42.67,21.33 64,32 0,10.67 0,21.33 0,32 -10.67,21.33 -21.33,42.67 -32,64 10.67,21.67 21.33,43.33 32,65 32,0 64,0 96,0 11,-10.67 22,-21.33 33,-32 0,-32.33 0,-64.67 0,-97 32,0 64,0 96,0 0,10.67 0,21.33 0,32 10.67,0 21.33,0 32,0 -21.33,64.33 -42.67,128.67 -64,193 10.67,10.67 21.33,21.33 32,32 21.33,0 42.67,0 64,0 21.67,-32 43.33,-64 65,-96 32,0 64,0 96,0 -0.1,21.45 0.11,42.9 -0.1,64.35 -10.63,42.89 -21.27,85.77 -31.91,128.65 10.67,21.33 21.33,42.67 32,64 10.67,10.67 21.33,21.33 32,32 10.67,0 21.33,0 32,0 11,-21.33 22,-42.67 33,-64 0,-10.67 0,-21.33 0,-32 10.67,0 21.33,0 32,0 0,-10.67 0,-21.33 0,-32 21.33,10.67 42.67,21.33 64,32 43,-10.67 86,-21.33 129,-32 32,0 64,0 96,0 10.67,21.33 21.33,42.67 32,64 10.67,0 21.33,0 32,0 0,43 0,86 0,129 21.91,21.09 43.6,42.39 65,64 10.67,0 21.33,0 32,0 0,10.67 0,21.33 0,32 32,32.33 64,64.67 96,97 0,32 0,64 0,96 21.67,0 43.33,0 65,0 10.67,-21.33 21.33,-42.67 32,-64 21.36,-21.13 42.37,-42.62 63.3,-64.17 6.25,-4.22 13.5,-6.93 20.15,-10.56 14.85,-7.42 29.7,-14.85 44.55,-22.27 21.67,10.67 43.33,21.33 65,32 -0.21,11.44 0.43,22.96 -0.34,34.35 -10.54,42.22 -21.1,84.43 -31.66,126.65 21.33,10.67 42.67,21.33 64,32 21.33,21.67 42.67,43.33 64,65 32.33,-21.67 64.67,-43.33 97,-65 21.33,10.67 42.67,21.33 64,32 10.67,0 21.33,0 32,0 0,32.33 0,64.67 0,97 10.67,10.67 21.33,21.33 32,32 -10.67,10.67 -21.33,21.33 -32,32 0,21.33 0,42.67 0,64 32.33,11 64.67,22 97,33 21.33,-11 42.67,-22 64,-33 10.67,21.67 21.33,43.33 32,65 0,21.33 0,42.67 0,64 32,21.33 64,42.67 96,64 11,21.67 22,43.33 33,65 10.67,10.67 21.33,21.33 32,32 21.33,-21.33 42.67,-42.67 64,-64 21.33,10.67 42.67,21.33 64,32 32.33,0 64.67,0 97,0 21.45,21.38 42.76,42.9 64.3,64.2 32.24,21.26 64.47,42.53 96.7,63.8 32,0 64,0 96,0 0.22,11.02 -0.47,22.14 0.36,33.1 10.55,31.96 21.09,63.93 31.64,95.9 0,10.67 0,21.33 0,32 11.02,-0.22 22.14,0.47 33.1,-0.36 31.96,-10.55 63.93,-21.09 95.9,-31.64 10.67,0 21.33,0 32,0 21.33,10.67 42.67,21.33 64,32 10.67,10.67 21.33,21.33 32,32 -10.67,32.33 -21.33,64.67 -32,97 10.67,10.67 21.33,21.33 32,32 32.33,0 64.67,0 97,0 0,53.67 0,107.33 0,161 21.45,21.38 42.76,42.9 64.3,64.2 32.24,21.26 64.47,42.53 96.7,63.8 0,43 0,86 0,129 10.67,10.67 21.33,21.33 32,32 0,10.67 0,21.33 0,32 21.33,0 42.67,0 64,0 10.67,-32 21.33,-64 32,-96 10.67,-10.67 21.33,-21.33 32,-32 11,10.67 22,21.33 33,32 10.67,21.33 21.33,42.67 32,64 42.67,21.33 85.33,42.67 128,64 21.67,0 43.33,0 65,0 10.67,10.67 21.33,21.33 32,32 -10.67,21.67 -21.33,43.33 -32,65 21.33,21.33 42.67,42.67 64,64 -10.67,10.67 -21.33,21.33 -32,32 53.67,10.67 107.33,21.33 161,32 21.33,21.67 42.67,43.33 64,65 0,42.67 0,85.33 0,128 -10.67,21.67 -21.33,43.33 -32,65 -21.67,10.67 -43.33,21.33 -65,32 -10.67,10.67 -21.33,21.33 -32,32 32.33,10.67 64.67,21.33 97,32 10.69,10.8 21.6,21.39 32.16,32.32 10.61,21.23 21.23,42.45 31.84,63.68 -10.67,32.33 -21.33,64.67 -32,97 10.67,10.67 21.33,21.33 32,32 21.33,0 42.67,0 64,0 32.33,-32 64.67,-64 97,-96 10.67,0 21.33,0 32,0 21.33,32 42.67,64 64,96 0,10.67 0,21.33 0,32 43,-10.67 86,-21.33 129,-32 0,10.67 0,21.33 0,32 10.67,0 21.33,0 32,0 -10.67,21.67 -21.33,43.33 -32,65 10.67,32 21.33,64 32,96 -10.67,21.33 -21.33,42.67 -32,64 0,11 0,22 0,33 21.33,10.67 42.67,21.33 64,32 10.67,-21.67 21.33,-43.33 32,-65 11,11 22,22 33,33 0,10.67 0,21.33 0,32 10.67,10.67 21.33,21.33 32,32 0,64.33 0,128.67 0,193 10.67,0 21.33,0 32,0 53.67,32 107.33,64 161,96 32,0 64,0 96,0 0,32.33 0,64.67 0,97 21.33,10.67 42.67,21.33 64,32 10.85,11.06 22.16,21.72 32.71,33.04 21.43,31.65 42.86,63.31 64.29,94.96 -10.67,32.33 -21.33,64.67 -32,97 32,10.67 64,21.33 96,32 32.33,32 64.67,64 97,96 -11,21.67 -22,43.33 -33,65 11,21.33 22,42.67 33,64 21.33,0 42.67,0 64,0 21.33,-21.33 42.67,-42.67 64,-64 10.67,0 21.33,0 32,0 21.71,21.45 43.57,42.76 65.2,64.3 21.26,32.24 42.53,64.47 63.8,96.7 21.33,10.67 42.67,21.33 64,32 10.67,10.67 21.33,21.33 32,32 21.67,0 43.33,0 65,0 0,-32.33 0,-64.67 0,-97 21.33,0 42.67,0 64,0 32,11 64,22 96,33 64.33,0 128.67,0 193,0 32.39,31.94 64.94,63.72 97,96 64.33,0 128.67,0 193,0 10.67,21.33 21.33,42.67 32,64 21.33,0 42.67,0 64,0 10.67,-32 21.33,-64 32,-96 11,-10.67 22,-21.33 33,-32 10.67,0 21.33,0 32,0 10.67,10.67 21.33,21.33 32,32 0,64.33 0,128.67 0,193 10.67,-10.67 21.33,-21.33 32,-32 10.67,0 21.33,0 32,0 -10.67,-32.33 -21.33,-64.67 -32,-97 10.67,0 21.33,0 32,0 10.67,-10.67 21.33,-21.33 32,-32 21.67,0 43.33,0 65,0 21.33,10.67 42.67,21.33 64,32 10.67,10.67 21.33,21.33 32,32 0,10.67 0,21.33 0,32 10.67,0 21.33,0 32,0 21.33,11 42.67,22 64,33 32.33,-11 64.67,-22 97,-33 0,-10.67 0,-21.33 0,-32 -10.67,0 -21.33,0 -32,0 -10.67,-10.67 -21.33,-21.33 -32,-32 32,-21.33 64,-42.67 96,-64 0,10.67 0,21.33 0,32 21.33,43 42.67,86 64,129 11,10.67 22,21.33 33,32 32.28,-32.06 64.06,-64.61 96,-97 10.67,0 21.33,0 32,0 10.67,10.67 21.33,21.33 32,32 21.67,0 43.33,0 65,0 21.33,32.33 42.67,64.67 64,97 0,32 0,64 0,96 10.67,11 21.33,22 32,33 32.33,-11 64.67,-22 97,-33 -11.53,-21.99 -22.45,-44.32 -34.38,-66.08 -20.88,-31.3 -41.75,-62.61 -62.62,-93.92 10.67,0 21.33,0 32,0 10.67,-21.67 21.33,-43.33 32,-65 21.67,-10.67 43.33,-21.33 65,-32 0,-10.67 0,-21.33 0,-32 10.67,-10.67 21.33,-21.33 32,-32 0,10.67 0,21.33 0,32 21.33,10.67 42.67,21.33 64,32 0,10.67 0,21.33 0,32 -10.69,10.8 -21.6,21.38 -32.16,32.32 -10.61,21.56 -21.23,43.12 -31.84,64.68 0,10.67 0,21.33 0,32 21.33,0 42.67,0 64,0 21.33,21.33 42.67,42.67 64,64 21.67,-21.33 43.33,-42.67 65,-64 21.33,10.67 42.67,21.33 64,32 53.67,0 107.33,0 161,0 10.69,-10.8 21.6,-21.39 32.16,-32.32 10.61,-21.23 21.23,-42.45 31.84,-63.68 10.67,-11 21.33,-22 32,-33 21.67,11 43.33,22 65,33 21.33,-11 42.67,-22 64,-33 0,-10.67 0,-21.33 0,-32 10.67,-10.67 21.33,-21.33 32,-32 10.67,0 21.33,0 32,0 10.67,21.33 21.33,42.67 32,64 21.67,0 43.33,0 65,0 21.14,43.09 42.44,86.11 64,129 21.33,-10.67 42.67,-21.33 64,-32 -21.33,-21.33 -42.67,-42.67 -64,-64 10.67,-11 21.33,-22 32,-33 10.67,0 21.33,0 32,0 32.33,21.67 64.67,43.33 97,65 10.67,0 21.33,0 32,0 10.67,-10.67 21.33,-21.33 32,-32 10.67,0 21.33,0 32,0 -10.67,-21.67 -21.33,-43.33 -32,-65 0,-10.67 0,-21.33 0,-32 21.33,10.67 42.67,21.33 64,32 11,-10.67 22,-21.33 33,-32 21.33,10.67 42.67,21.33 64,32 10.67,0 21.33,0 32,0 -11.02,0.22 -22.14,-0.47 -33.1,0.36 -31.96,10.55 -63.93,21.09 -95.9,31.64 21.67,11 43.33,22 65,33 0,42.67 0,85.33 0,128 42.67,0 85.33,0 128,0 -10.67,10.67 -21.33,21.33 -32,32 10.67,11 21.33,22 32,33 21.67,-32.33 43.33,-64.67 65,-97 21.33,10.67 42.67,21.33 64,32 -10.67,-10.67 -21.33,-21.33 -32,-32 0,-21.33 0,-42.67 0,-64 10.67,0 21.33,0 32,0 10.67,32 21.33,64 32,96 10.67,0 21.33,0 32,0 21.67,21.67 43.33,43.33 65,65 10.67,-11 21.33,-22 32,-33 -10.67,-10.67 -21.33,-21.33 -32,-32 10.67,-21.33 21.33,-42.67 32,-64 -10.67,0 -21.33,0 -32,0 21.33,-10.67 42.67,-21.33 64,-32 0,-10.67 0,-21.33 0,-32 10.67,0 21.33,0 32,0 0,42.67 0,85.33 0,128 -10.67,10.67 -21.33,21.33 -32,32 10.67,11 21.33,22 32,33 32,-11 64,-22 96,-33 0,11 0,22 0,33 11,0 22,0 33,0 -11,10.67 -22,21.33 -33,32 21.67,21.33 43.33,42.67 65,64 -21.67,21.33 -43.33,42.67 -65,64 -10.67,21.67 -21.33,43.33 -32,65 10.67,0 21.33,0 32,0 21.67,10.67 43.33,21.33 65,32 10.67,32 21.33,64 32,96 10.67,10.67 21.33,21.33 32,32 10.67,-10.67 21.33,-21.33 32,-32 0,53.67 0,107.33 0,161 21.67,0 43.33,0 65,0 10.67,21.33 21.33,42.67 32,64 -21.67,21.67 -43.33,43.33 -65,65 -10.67,0 -21.33,0 -32,0 0,-11 0,-22 0,-33 -32,0 -64,0 -96,0 -43,11 -86,22 -129,33 0,-21.67 0,-43.33 0,-65 -21.33,21.67 -42.67,43.33 -64,65 -10.67,0 -21.33,0 -32,0 -10.67,-11 -21.33,-22 -32,-33 0,-21.33 0,-42.67 0,-64 -11,10.67 -22,21.33 -33,32 -10.67,0 -21.33,0 -32,0 -10.67,21.67 -21.33,43.33 -32,65 -21.33,21.33 -42.67,42.67 -64,64 10.67,10.67 21.33,21.33 32,32 -10.67,10.67 -21.33,21.33 -32,32 10.67,0 21.33,0 32,0 -21.33,10.67 -42.67,21.33 -64,32 -10.67,11 -21.33,22 -32,33 -11,0 -22,0 -33,0 0,10.67 0,21.33 0,32 11,0 22,0 33,0 0,21.33 0,42.67 0,64 10.67,0 21.33,0 32,0 10.67,10.67 21.33,21.33 32,32 -21.33,0 -42.67,0 -64,0 -11,10.67 -22,21.33 -33,32 0,21.67 0,43.33 0,65 -10.67,0 -21.33,0 -32,0 0,-21.67 0,-43.33 0,-65 -32,0 -64,0 -96,0 10.67,0 21.33,0 32,0 -21.33,0 -42.67,0 -64,0 0,32.33 0,64.67 0,97 -11,21.33 -22,42.67 -33,64 11,10.67 22,21.33 33,32 -21.67,10.67 -43.33,21.33 -65,32 0,-10.67 0,-21.33 0,-32 -10.67,0 -21.33,0 -32,0 21.33,-32 42.67,-64 64,-96 -10.67,-10.67 -21.33,-21.33 -32,-32 -10.67,10.67 -21.33,21.33 -32,32 -10.67,0 -21.33,0 -32,0 -10.67,-10.67 -21.33,-21.33 -32,-32 0,-11 0,-22 0,-33 -10.67,11 -21.33,22 -32,33 -21.67,0 -43.33,0 -65,0 -10.67,21.33 -21.33,42.67 -32,64 0,21.33 0,42.67 0,64 21.33,10.67 42.67,21.33 64,32 -10.67,0 -21.33,0 -32,0 0,11 0,22 0,33 -10.67,10.67 -21.33,21.33 -32,32 -21.33,-10.67 -42.67,-21.33 -64,-32 0,10.67 0,21.33 0,32 0,-10.67 0,-21.33 0,-32 -10.67,10.67 -21.33,21.33 -32,32 0,21.33 0,42.67 0,64 -10.67,10.67 -21.33,21.33 -32,32 10.67,0 21.33,0 32,0 0,21.33 0,42.67 0,64 10.67,0 21.33,0 32,0 0,21.67 0,43.33 0,65 -21.33,-10.67 -42.67,-21.33 -64,-32 0,42.67 0,85.33 0,128 10.67,0 21.33,0 32,0 -10.67,43 -21.33,86 -32,129 21.33,-10.67 42.67,-21.33 64,-32 0,10.67 0,21.33 0,32 -10.67,0 -21.33,0 -32,0 0,10.67 0,21.33 0,32 -21.41,21.59 -43.07,42.94 -65,64 32.33,-10.67 64.67,-21.33 97,-32 0,21.33 0,42.67 0,64 10.67,-10.67 21.33,-21.33 32,-32 21.33,0 42.67,0 64,0 -10.67,0 -21.33,0 -32,0 0,10.67 0,21.33 0,32 -10.67,0 -21.33,0 -32,0 0,11 0,22 0,33 -10.67,0 -21.33,0 -32,0 0,21.33 0,42.67 0,64 -21.33,10.67 -42.67,21.33 -64,32 10.67,10.67 21.33,21.33 32,32 -21.67,10.67 -43.33,21.33 -65,32 11,10.67 22,21.33 33,32 32,0 64,0 96,0 -10.67,0 -21.33,0 -32,0 0,21.67 0,43.33 0,65 -10.67,0 -21.33,0 -32,0 0,32 0,64 0,96 21.33,10.67 42.67,21.33 64,32 10.67,11 21.33,22 32,33 21.33,10.67 42.67,21.33 64,32 -21.33,10.67 -42.67,21.33 -64,32 -10.67,-10.67 -21.33,-21.33 -32,-32 0,32 0,64 0,96 -10.67,-10.67 -21.33,-21.33 -32,-32 -10.67,10.67 -21.33,21.33 -32,32 0,21.67 0,43.33 0,65 -21.67,21.33 -43.33,42.67 -65,64 32.33,-10.67 64.67,-21.33 97,-32 10.67,0 21.33,0 32,0 0,10.67 0,21.33 0,32 -10.67,0 -21.33,0 -32,0 0,10.67 0,21.33 0,32 -10.67,0 -21.33,0 -32,0 0,10.67 0,21.33 0,32 -10.67,10.67 -21.33,21.33 -32,32 0,10.67 0,21.33 0,32 -75,32.33 -150,64.67 -225,97 32,0 64,0 96,0 0,10.67 0,21.33 0,32 0,-10.67 0,-21.33 0,-32 32,-10.67 64,-21.33 96,-32 21.67,0 43.33,0 65,0 10.67,-10.67 21.33,-21.33 32,-32 10.67,0 21.33,0 32,0 0,10.67 0,21.33 0,32 -21.33,0 -42.67,0 -64,0 10.67,10.67 21.33,21.33 32,32 -21.33,0 -42.67,0 -64,0 10.67,10.67 21.33,21.33 32,32 0,10.67 0,21.33 0,32 -21.67,0 -43.33,0 -65,0 0,21.33 0,42.67 0,64 11,0 22,0 33,0 -11,11 -22,22 -33,33 0,21.33 0,42.67 0,64 11,0 22,0 33,0 -43,0 -86,0 -129,0 10.67,21.33 21.33,42.67 32,64 -10.67,10.67 -21.33,21.33 -32,32 0,-10.67 0,-21.33 0,-32 -43,0 -86,0 -129,0 11,10.67 22,21.33 33,32 0,32.33 0,64.67 0,97 -21.67,0 -43.33,0 -65,0 0,10.67 0,21.33 0,32 -10.67,10.67 -21.33,21.33 -32,32 21.59,21.41 42.94,43.07 64,65 -21.33,0 -42.67,0 -64,0 -10.67,-11 -21.33,-22 -32,-33 -10.67,11 -21.33,22 -32,33 -21.67,0 -43.33,0 -65,0 -10.67,10.67 -21.33,21.33 -32,32 0,-21.67 0,-43.33 0,-65 -21.33,21.67 -42.67,43.33 -64,65 0,-10.67 0,-21.33 0,-32 -10.67,-11 -21.33,-22 -32,-33 10.67,0 21.33,0 32,0 -21.33,0 -42.67,0 -64,0 0,-10.67 0,-21.33 0,-32 21.33,-10.67 42.67,-21.33 64,-32 0,-10.67 0,-21.33 0,-32 10.67,0 21.33,0 32,0 -21.33,0 -42.67,0 -64,0 -21.67,10.67 -43.33,21.33 -65,32 0,32.33 0,64.67 0,97 11,0 22,0 33,0 0,21.33 0,42.67 0,64 10.67,0 21.33,0 32,0 -10.67,0 -21.33,0 -32,0 0,42.67 0,85.33 0,128 10.67,-10.67 21.33,-21.33 32,-32 -10.67,10.67 -21.33,21.33 -32,32 10.67,11 21.33,22 32,33 -21.67,10.67 -43.33,21.33 -65,32 11,-21.67 22,-43.33 33,-65 -32.33,21.67 -64.67,43.33 -97,65 0,-21.67 0,-43.33 0,-65 10.67,0 21.33,0 32,0 10.67,-21.33 21.33,-42.67 32,-64 -32,0 -64,0 -96,0 0,-10.67 0,-21.33 0,-32 -21.33,0 -42.67,0 -64,0 10.67,-10.67 21.33,-21.33 32,-32 -21.33,0 -42.67,0 -64,0 0,-10.67 0,-21.33 0,-32 -21.67,21.33 -43.33,42.67 -65,64 21.67,0 43.33,0 65,0 10.67,10.67 21.33,21.33 32,32 0,10.67 0,21.33 0,32 -32.33,10.67 -64.67,21.33 -97,32 10.67,0 21.33,0 32,0 -10.67,11 -21.33,22 -32,33 10.67,0 21.33,0 32,0 11,10.67 22,21.33 33,32 -11,0 -22,0 -33,0 -32,21.33 -64,42.67 -96,64 21.33,0 42.67,0 64,0 0,10.67 0,21.33 0,32 21.67,0 43.33,0 65,0 -11,0 -22,0 -33,0 0,32.33 0,64.67 0,97 -10.67,10.67 -21.33,21.33 -32,32 10.67,0 21.33,0 32,0 0,10.67 0,21.33 0,32 11,10.67 22,21.33 33,32 0,10.67 0,21.33 0,32 10.67,0 21.33,0 32,0 0,-21.33 0,-42.67 0,-64 10.67,-10.67 21.33,-21.33 32,-32 0,10.67 0,21.33 0,32 10.67,0 21.33,0 32,0 0,10.67 0,21.33 0,32 21.33,10.67 42.67,21.33 64,32 -10.67,0 -21.33,0 -32,0 10.67,10.67 21.33,21.33 32,32 21.67,0 43.33,0 65,0 10.67,11 21.33,22 32,33 0,10.67 0,21.33 0,32 21.33,0 42.67,0 64,0 -10.67,10.67 -21.33,21.33 -32,32 32,0 64,0 96,0 0,10.67 0,21.33 0,32 -10.67,10.67 -21.33,21.33 -32,32 21.67,0 43.33,0 65,0 21.33,10.67 42.67,21.33 64,32 -43,-64.33 -86,-128.67 -129,-193 -21.33,0 -42.67,0 -64,0 -42.74,-42.92 -85.72,-85.61 -129,-128 -10.67,0 -21.33,0 -32,0 -10.67,-43 -21.33,-86 -32,-129 43,0 86,0 129,0 32,-10.67 64,-21.33 96,-32 10.67,0 21.33,0 32,0 0,-10.67 0,-21.33 0,-32 32.33,0 64.67,0 97,0 10.8,-10.7 21.39,-21.6 32.32,-32.16 42.89,-21.62 85.79,-43.23 128.68,-64.84 10.67,11 21.33,22 32,33 40.58,-21.05 81.27,-41.89 122.26,-62.13 7.58,-1.79 8.7,-10.05 12.24,-15.87 8.5,-17 17,-34 25.5,-51 11,-10.67 22,-21.33 33,-32 21.33,0 42.67,0 64,0 0,10.67 0,21.33 0,32 21.33,0 42.67,0 64,0 10.67,10.67 21.33,21.33 32,32 21.67,0 43.33,0 65,0 21.71,10.74 43.26,21.87 65.09,32.36 31.63,10.55 63.27,21.09 94.91,31.64 21.67,0 43.33,0 65,0 10.67,21.67 21.33,43.33 32,65 0,10.67 0,21.33 0,32 10.67,0 21.33,0 32,0 10.67,10.67 21.33,21.33 32,32 -10.67,0 -21.33,0 -32,0 0,10.67 0,21.33 0,32 21.33,10.67 42.67,21.33 64,32 -10.67,10.67 -21.33,21.33 -32,32 0,11 0,22 0,33 32.33,0 64.67,0 97,0 10.67,10.67 21.33,21.33 32,32 0,10.67 0,21.33 0,32 10.67,-10.67 21.33,-21.33 32,-32 0,10.67 0,21.33 0,32 32,0 64,0 96,0 32.33,21.33 64.67,42.67 97,64 10.67,0 21.33,0 32,0 21.33,-10.67 42.67,-21.33 64,-32 10.67,10.67 21.33,21.33 32,32 0,10.67 0,21.33 0,32 11,11 22,22 33,33 0,-11 0,-22 0,-33 0,11 0,22 0,33 10.67,0 21.33,0 32,0 -21.67,10.67 -43.33,21.33 -65,32 0,10.67 0,21.33 0,32 53.67,0 107.33,0 161,0 -32,32 -64,64 -96,96 0,21.67 0,43.33 0,65 -32.87,32.68 -66.04,65.06 -98.71,97.93 -85.09,95.69 -170.2,191.38 -255.29,287.07 -183.62,270.01 -367.47,539.87 -550.94,809.97 -20.07,30.45 -40.21,60.86 -60.22,91.35 -10.61,21.23 -21.23,42.45 -31.84,63.68 -21.33,21.33 -42.67,42.67 -64,64 -45.45,92.9 -92.46,185.03 -138.68,277.54 -50.86,101.17 -101.46,202.46 -152.5,303.53 -42.31,74.42 -84.71,148.8 -126.96,223.26 -32.29,74.89 -64.57,149.78 -96.86,224.67 -21.36,32.45 -42.87,64.82 -64.14,97.33 -65.5,152.5 -130.69,305.14 -196.39,457.56 -42.08,94.47 -84.42,188.83 -126.36,283.36 -43.09,108.6 -86.47,217.09 -129.37,325.76 -64.29,171.03 -128.32,342.17 -192.79,513.13 -33.36,83.95 -66.6,167.94 -100.61,251.62 -8.78,21.75 -17.56,43.49 -26.34,65.24 0,21.33 0,42.67 0,64 -21.33,32.33 -42.67,64.67 -64,97 -10.96,43.38 -21.48,86.88 -32.73,130.18 -42.97,128.33 -85.65,256.76 -128.79,385.03 -31.89,74.7 -63.7,149.43 -95.66,224.1 -44.78,78.3 -89.9,156.4 -134.45,234.83 -51.79,93.29 -103.58,186.57 -155.37,279.86 -118,150.5 -236.16,300.88 -354.04,451.46 -54.24,75.91 -108.7,151.67 -162.8,227.68 -138.53,202.48 -277.02,404.99 -415.58,607.44 -171.53,235.47 -343.05,470.95 -514.58,706.42 -10.82,21.52 -21.46,43.13 -32.38,64.6 -97.16,151.5 -194.09,303.16 -291.41,454.56 -42.08,62.61 -84.14,125.23 -126.21,187.84 -53.76,54.21 -107.75,108.19 -161.35,162.54 -75.78,86.29 -151.81,172.38 -227.42,258.81 -52.42,63.21 -104.82,126.43 -157.23,189.65 -75.11,64.39 -150.14,128.87 -225.3,193.2 -32.32,21.69 -64.69,43.29 -96.97,65.03 -139.89,118.24 -279.99,236.25 -419.76,354.63 -128.09,117.44 -256.12,234.95 -384.25,352.35 -85.57,64.27 -171.15,128.53 -256.72,192.79 -21.75,32.4 -43.1,65.08 -65.09,97.31 -54.78,65.82 -109.86,131.39 -164.46,197.36 -41.48,51.78 -82.97,103.55 -124.45,155.33 -117.75,85.75 -235.54,171.45 -353.28,257.23 -118.01,96.65 -235.97,193.36 -354.01,289.97 -107.01,74.98 -213.97,150.05 -321.02,224.97 -99.12,54.79 -198.41,109.26 -297.41,164.26 -147.54,84.56 -295.05,169.18 -442.6,253.73 -149.99,75.02 -300.01,149.98 -449.99,225.02 -149.99,85.68 -300.02,171.29 -449.98,257.02 -107.56,75.25 -215.29,150.26 -322.73,225.66 -64.07,53.47 -128.2,106.88 -192.23,160.39 -86.38,86.5 -173,172.77 -259.24,259.41 -149.17,159.78 -298.34,319.56 -447.51,479.34 -10.67,32.33 -21.33,64.67 -32,97 0,42.67 0,85.33 0,128 -32.33,-42.67 -64.67,-85.33 -97,-128 -32,10.67 -64,21.33 -96,32 -53.78,43.05 -107.48,86.2 -161.31,129.18 -53.57,31.94 -107.13,63.88 -160.69,95.82 -65.94,77 -132.14,153.78 -197.91,230.92 -51.75,62.47 -103.57,124.88 -155.29,187.37 -74.98,107.35 -150.04,214.64 -224.97,322.02 -53.64,96.35 -107.39,192.64 -160.96,289.02 -44.27,110.37 -88.84,220.62 -132.91,331.06 -73.66,189.54 -147.3,379.08 -220.96,568.61 -12.03,59.69 -23.41,119.52 -35.91,179.11 -31.07,144.08 -62.07,288.17 -93.19,432.23 -32.03,107.32 -63.95,214.68 -96.04,321.99 -74.96,171.22 -149.91,342.45 -224.86,513.67 -64.37,107.45 -128.83,214.84 -193.15,322.32 -75.21,160.94 -150.16,322.01 -225.53,482.87 -42.86,74.69 -85.63,149.43 -128.53,224.1 -53.42,75.08 -106.76,150.22 -160.23,225.27 -117.86,149.81 -235.71,299.63 -353.56,449.44 -96.86,85.81 -193.66,171.68 -290.55,257.45 -385.57,310.93 -771.16,621.83 -1156.72,932.78 -171.34,149.99 -342.65,300.02 -514.01,449.99 -151.64,118.93 -303.1,238.1 -454.85,356.87 -42.24,31.55 -84.22,63.47 -126.64,94.76 -160.08,106.72 -320.16,213.43 -480.23,320.15 -10.67,0 -21.33,0 -32,0 -21.33,10.67 -42.67,21.33 -64,32 -10.67,-10.67 -21.33,-21.33 -32,-32 -32.33,0 -64.67,0 -97,0 -10.67,-10.67 -21.33,-21.33 -32,-32 -0.24,-11.35 0.47,-22.81 -0.36,-34.09 -10.55,-31.63 -21.09,-63.27 -31.64,-94.91 0,-21.33 0,-42.67 0,-64 -10.67,-10.67 -21.33,-21.33 -32,-32 -129.12,-10.96 -258.22,-22.23 -387.35,-33 -10.22,0 -20.43,0 -30.65,0 0,-10.67 0,-21.33 0,-32 10.67,-10.67 21.33,-21.33 32,-32 -10.67,-10.67 -21.33,-21.33 -32,-32 0,-10.67 0,-21.33 0,-32 -10.67,-21.67 -21.33,-43.33 -32,-65 10.69,-10.8 21.6,-21.39 32.16,-32.32 10.61,-21.23 21.23,-42.45 31.84,-63.68 -21.33,-21.33 -42.67,-42.67 -64,-64 10.67,-21.67 21.33,-43.33 32,-65 10.67,-10.67 21.33,-21.33 32,-32 0,-107 0,-214 0,-321 21.33,-118.12 42.76,-236.23 64.02,-354.36 11,-171.21 21.99,-342.43 32.98,-513.64 -32.33,-161 -64.67,-322 -97,-483 10.67,-160.67 21.33,-321.33 32,-482 107.33,-160.67 214.67,-321.33 322,-482 150,-86 300,-172 450,-258 75,11 150,22 225,33 96.33,-118 192.67,-236 289,-354 -96.33,-32.33 -192.67,-64.67 -289,-97 32,-32 64,-64 96,-96 11,21.33 22,42.67 33,64 -11,0 -22,0 -33,0 11,10.67 22,21.33 33,32 10.67,0 21.33,0 32,0 -21.67,-32 -43.33,-64 -65,-96 161,-75 322,-150 483,-225 42.67,-64.33 85.33,-128.67 128,-193 -10.67,-10.67 -21.33,-21.33 -32,-32 32.33,-32.33 64.67,-64.67 97,-97 96.33,-21.33 192.67,-42.67 289,-64 21.33,-53.67 42.67,-107.33 64,-161 -160.67,-139.33 -321.33,-278.67 -482,-418 0,10.67 0,21.33 0,32 -21.33,-21.33 -42.67,-42.67 -64,-64 -53.67,-10.67 -107.33,-21.33 -161,-32 -32,-21.33 -64,-42.67 -96,-64 -11,-43 -22,-86 -33,-129 -42.67,10.67 -85.33,21.33 -128,32 -10.67,21.67 -21.33,43.33 -32,65 -11,0 -22,0 -33,0 -21.36,-22 -42.57,-44.17 -64.68,-65.4 -31.83,-21.31 -63.72,-42.57 -95.64,-63.76 -21.56,-10.61 -43.12,-21.23 -64.68,-31.84 -21.33,10.67 -42.67,21.33 -64,32 -10.67,0 -21.33,0 -32,0 -21.33,-32.33 -42.67,-64.67 -64,-97 -11,0 -22,0 -33,0 -21.33,21.67 -42.67,43.33 -64,65 -32.07,-21.77 -64.24,-43.39 -96.25,-65.25 -10.58,-10.58 -21.17,-21.17 -31.75,-31.75 0,-10.67 0,-21.33 0,-32 -11,0 -22,0 -33,0 -10.67,10.67 -21.33,21.33 -32,32 -21.61,-43 -42.87,-86.18 -64.7,-129.06 -21.09,-31.98 -42.2,-63.96 -63.3,-95.94 0,-10.67 0,-21.33 0,-32 -11,-21.33 -22,-42.67 -33,-64 0,-32.33 0,-64.67 0,-97 -64,0 -128,0 -192,0 -21.67,10.67 -43.33,21.33 -65,32 0,-10.67 0,-21.33 0,-32 -10.67,10.67 -21.33,21.33 -32,32 -32,-21.33 -64,-42.67 -96,-64 0,-10.67 0,-21.33 0,-32 -21.67,0 -43.33,0 -65,0 -10.67,-21.33 -21.33,-42.67 -32,-64 -32,-10.67 -64,-21.33 -96,-32 0,-21.67 0,-43.33 0,-65 -21.67,-10.67 -43.33,-21.33 -65,-32 -21.33,-21.33 -42.67,-42.67 -64,-64 0,-32.33 0,-64.67 0,-97 -53.67,-21.33 -107.33,-42.67 -161,-64 10.67,-10.67 21.33,-21.33 32,-32 11,-43 22,-86 33,-129 -11,-21.33 -22,-42.67 -33,-64 0,-21.33 0,-42.67 0,-64 -21.33,-11 -42.67,-22 -64,-33 0,-10.67 0,-21.33 0,-32 10.67,0 21.33,0 32,0 10.67,-21.33 21.33,-42.67 32,-64 -21.33,-10.67 -42.67,-21.33 -64,-32 0,-21.33 0,-42.67 0,-64 -21.33,-11 -42.67,-22 -64,-33 -10.67,-21.33 -21.33,-42.67 -32,-64 0,-32 0,-64 0,-96 -21.77,-32.4 -43.38,-64.91 -65.25,-97.25 -10.58,-10.58 -21.17,-21.17 -31.75,-31.75 0,-10.67 0,-21.33 0,-32 -10.67,0 -21.33,0 -32,0 -10.67,-10.67 -21.33,-21.33 -32,-32 10.67,-10.67 21.33,-21.33 32,-32 -21.33,-11 -42.67,-22 -64,-33 0,-10.67 0,-21.33 0,-32 -10.67,-10.67 -21.33,-21.33 -32,-32 10.67,-32 21.33,-64 32,-96 -32.33,0 -64.67,0 -97,0 11,-11 22,-22 33,-33 0,-10.67 0,-21.33 0,-32 -21.67,-42.67 -43.33,-85.33 -65,-128 10.67,-10.67 21.33,-21.33 32,-32 -10.67,-11 -21.33,-22 -32,-33 21.67,11 43.33,22 65,33 10.67,-11 21.33,-22 32,-33 -32.33,-10.67 -64.67,-21.33 -97,-32 0,-21.33 0,-42.67 0,-64 -21.33,0 -42.67,0 -64,0 0,-10.67 0,-21.33 0,-32 -10.67,10.67 -21.33,21.33 -32,32 -10.8,-10.69 -21.38,-21.6 -32.32,-32.16 -21.56,-10.61 -43.12,-21.23 -64.68,-31.84 -10.67,10.67 -21.33,21.33 -32,32 0,-10.67 0,-21.33 0,-32 -21.33,0 -42.67,0 -64,0 -21.67,-11 -43.33,-22 -65,-33 -10.67,0 -21.33,0 -32,0 -10.69,-10.8 -21.6,-21.39 -32.16,-32.32 -10.61,-21.23 -21.23,-42.45 -31.84,-63.68 -10.67,0 -21.33,0 -32,0 10.67,-10.67 21.33,-21.33 32,-32 -10.67,-10.67 -21.33,-21.33 -32,-32 -10.67,0 -21.33,0 -32,0 0,-43 0,-86 0,-129 -21.67,-10.67 -43.33,-21.33 -65,-32 -10.67,10.67 -21.33,21.33 -32,32 -32,-10.67 -64,-21.33 -96,-32 -10.67,-21.33 -21.33,-42.67 -32,-64 -21.67,-10.67 -43.33,-21.33 -65,-32 0,-11 0,-22 0,-33 -32.1,-10.74 -64.24,-21.35 -96.32,-32.16 -21.23,-10.61 -42.45,-21.23 -63.68,-31.84 -21.67,0 -43.33,0 -65,0 -21.33,-21.33 -42.67,-42.67 -64,-64 0,-10.67 0,-21.33 0,-32 10.67,0 21.33,0 32,0 0,-11 0,-22 0,-33 10.67,0 21.33,0 32,0 0,-10.67 0,-21.33 0,-32 -10.67,0 -21.33,0 -32,0 -10.67,-10.67 -21.33,-21.33 -32,-32 -43,0 -86,0 -129,0 -10.67,-10.67 -21.33,-21.33 -32,-32 -10.67,0 -21.33,0 -32,0 0,-10.67 0,-21.33 0,-32 -10.67,0 -21.33,0 -32,0 -10.67,-10.67 -21.33,-21.33 -32,-32 -10.67,0 -21.33,0 -32,0 10.67,0 21.33,0 32,0 -21.67,0 -43.33,0 -65,0 -10.67,10.67 -21.33,21.33 -32,32 -10.67,0 -21.33,0 -32,0 0,10.67 0,21.33 0,32 -21.33,21.33 -42.67,42.67 -64,64 -10.67,-10.67 -21.33,-21.33 -32,-32 -21.67,32.33 -43.33,64.67 -64.998,97 0,-11 0,-22 0,-33 -21.333,0 -42.667,0 -64,0 0,-10.67 0,-21.33 0,-32 -10.665,-10.67 -21.335,-21.33 -32,-32 10.667,0 21.333,0 32,0 -10.665,-10.67 -21.335,-21.33 -32,-32 -53.668,-21.33 -107.332,-42.67 -161,-64 0,-21.67 0,-43.33 0,-65 -21.44,-21.39 -42.782,-42.88 -64.285,-64.21 -471.568,-353.6 -943.145,-707.19 -1414.715,-1060.79 10.668,-21.33 21.332,-42.67 32,-64 -21.472,-21.43 -42.984,-42.85 -63.765,-64.95 -10.068,-19.17 -19.457,-38.77 -29.265,-58.11 -1.94,-3.41 -4.504,-7.02 1.03,-7.94 19.999,-10 40.001,-20 60,-30 0,-10.67 0,-21.33 0,-32 0,10.67 0,21.33 0,32 0,-10.67 0,-21.33 0,-32 -10.666,-21.67 -21.334,-43.33 -32,-65 -10.667,11 -21.333,22 -32,33 -10.668,-32.33 -21.332,-64.67 -32,-97 -10.8,-10.69 -21.384,-21.6 -32.319,-32.16 -21.56,-10.61 -43.119,-21.23 -64.681,-31.84 10.665,-10.67 21.335,-21.33 32,-32 -42.668,-64.33 -85.332,-128.67 -128,-193 -21.665,-21.67 -43.335,-43.33 -65,-65 -32,0 -64,0 -96,0 0,-10.67 0,-21.33 0,-32 -10.667,0 -21.333,0 -32,0 0,-10.67 0,-21.33 0,-32 -32.332,-10.67 -64.668,-21.33 -97,-32 0,-21.33 0,-42.67 0,-64 -10.665,-10.67 -21.335,-21.33 -32,-32 0,-11 0,-22 0,-33 -139.333,0 -278.667,0 -418,0 -21.335,-21.33 -42.665,-42.67 -64,-64 -10.667,0 -21.333,0 -32,0 -10.665,-10.67 -21.335,-21.33 -32,-32 -10.998,10.67 -22.002,21.33 -33,32 -21.333,0 -42.667,0 -64,0 -10.668,-21.33 -21.332,-42.67 -32,-64 -53.666,-10.67 -107.334,-21.33 -161,-32 -42.668,21.33 -85.332,42.67 -128,64 -21.665,-10.67 -43.335,-21.33 -65,-32 -10.665,10.67 -21.335,21.33 -32,32 -32,0 -64,0 -96,0 -10.665,10.67 -21.335,21.33 -32,32 -32.332,-42.67 -64.668,-85.33 -97,-128 -10.667,0 -21.333,0 -32,0 10.667,-11 21.333,-22 32,-33 -32.074,-21.43 -64.243,-42.72 -96.254,-64.25 -21.58,-21.25 -43.164,-42.5 -64.746,-63.75 10.667,0 21.333,0 32,0 -10.665,-10.67 -21.335,-21.33 -32,-32 -10.667,0 -21.333,0 -32,0 0,10.67 0,21.33 0,32 -11.015,-0.22 -22.139,0.47 -33.085,-0.36 -31.639,-10.55 -63.277,-21.09 -94.915,-31.64 -10.998,10.67 -22.002,21.33 -33,32 -10.667,0 -21.333,0 -32,0 0,-21.67 0,-43.33 0,-65 10.667,0 21.333,0 32,0 -10.665,-10.67 -21.335,-21.33 -32,-32 0,-10.67 0,-21.33 0,-32 -31.999,-10.67 -64.001,-21.33 -96,-32 0,-10.67 0,-21.33 0,-32 10.665,-10.67 21.335,-21.33 32,-32 0,-11 0,-22 0,-33 -10.665,-10.67 -21.335,-21.33 -32,-32 -32.332,-10.67 -64.668,-21.33 -97,-32 -10.665,-10.67 -21.335,-21.33 -32,-32 10.665,-10.67 21.335,-21.33 32,-32 -10.799,-10.69 -21.389,-21.6 -32.318,-32.16 -21.227,-10.61 -42.453,-21.23 -63.682,-31.84 10.667,-11 21.333,-22 32,-33 -10.667,0 -21.333,0 -32,0 0,-10.67 0,-21.33 0,-32 -10.665,-10.67 -21.335,-21.33 -32,-32 0,-10.67 0,-21.33 0,-32 0,10.67 0,21.33 0,32 -21.665,-10.67 -43.335,-21.33 -65,-32 -21.332,10.67 -42.668,21.33 -64,32 -10.665,10.67 -21.335,21.33 -32,32 10.667,0 21.333,0 32,0 0,21.67 0,43.33 0,65 -21.436,32.07 -42.716,64.25 -64.252,96.25 -10.585,10.58 -21.164,21.17 -31.748,31.75 -11,0 -22,0 -33,0 0,21.33 0,42.67 0,64 -21.333,0 -42.667,0 -64,0 -10.665,-10.67 -21.335,-21.33 -32,-32 -31.999,-10.67 -64.001,-21.33 -96,-32 -10.998,-10.67 -22.002,-21.33 -33,-32 -21.333,0 -42.667,0 -64,0 0,-10.67 0,-21.33 0,-32 -21.333,0 -42.667,0 -64,0 -32.335,-21.33 -64.665,-42.67 -97,-64 0,-11 0,-22 0,-33 -21.333,0 -42.667,0 -64,0 10.665,-10.67 21.335,-21.33 32,-32 -10.665,-10.67 -21.335,-21.33 -32,-32 -21.333,0 -42.667,0 -64,0 0,-10.67 0,-21.33 0,-32 -86.121,-10.65 -172.227,-21.42 -258.356,-32 -10.548,0 -21.096,0 -31.644,0 0,-10.67 0,-21.33 0,-32 -10.667,0 -21.333,0 -32,0 0,-53.67 0,-107.33 0,-161 -10.665,-10.67 -21.335,-21.33 -32,-32 10.665,-10.67 21.335,-21.33 32,-32 -21.331,-21.67 -42.669,-43.33 -64,-65 -32.333,0 -64.667,0 -97,0 0,-10.67 0,-21.33 0,-32 21.665,-10.67 43.335,-21.33 65,-32 -10.8,-10.69 -21.384,-21.6 -32.319,-32.16 -21.56,-10.61 -43.119,-21.23 -64.681,-31.84 0,-11 0,-22 0,-33 10.667,0 21.333,0 32,0 -10.665,-10.67 -21.335,-21.33 -32,-32 0,-10.67 0,-21.33 0,-32 -21.332,-10.67 -42.668,-21.33 -64,-32 -10.665,10.67 -21.335,21.33 -32,32 -10.667,0 -21.333,0 -32,0 0,-10.67 0,-21.33 0,-32 -11,0 -22,0 -33,0 -10.665,-10.67 -21.335,-21.33 -32,-32 -10.667,0 -21.333,0 -32,0 0,-21.33 0,-42.67 0,-64 10.667,0 21.333,0 32,0 0,-32.33 0,-64.67 0,-97 10.668,-21.33 21.332,-42.67 32,-64 -21.333,0 -42.667,0 -64,0 -21.335,-32.33 -42.665,-64.67 -64,-97 0,11 0,22 0,33 -10.667,-11 -21.333,-22 -32,-33 10.665,-10.67 21.335,-21.33 32,-32 0,-32 0,-64 0,-96 -10.667,0 -21.333,0 -32,0 -21.665,-10.67 -43.335,-21.33 -65,-32 0,-21.67 0,-43.33 0,-65 -21.333,0 -42.667,0 -64,0 -21.332,10.67 -42.668,21.33 -64,32 -10.667,0 -21.333,0 -32,0 0,-10.67 0,-21.33 0,-32 -10.998,-10.67 -22.002,-21.33 -33,-32 -21.333,0 -42.667,0 -64,0 -21.332,-10.67 -42.668,-21.33 -64,-32 10.668,-21.33 21.332,-42.67 32,-64 10.667,-11 21.333,-22 32,-33 0,-10.67 0,-21.33 0,-32 -10.665,-10.67 -21.335,-21.33 -32,-32 -10.667,0 -21.333,0 -32,0 0,-21.33 0,-42.67 0,-64 -21.333,0 -42.667,0 -64,0 -11.001,-21.33 -21.999,-42.67 -33,-64 -31.999,10.67 -64.001,21.33 -96,32 -10.665,-10.67 -21.335,-21.33 -32,-32 0,-32.33 0,-64.67 0,-97 -21.332,-10.67 -42.668,-21.33 -64,-32 -10.998,-10.67 -22.002,-21.33 -33,-32 0,-21.33 0,-42.67 0,-64 -32,-11 -64,-22 -96,-33 -10.667,11 -21.333,22 -32,33 0,-11 0,-22 0,-33 -21.665,-10.67 -43.335,-21.33 -65,-32 -10.668,-21.33 -21.332,-42.67 -32,-64 -10.665,-10.67 -21.335,-21.33 -32,-32 0,-21.67 0,-43.33 0,-65 -10.668,-21.33 -21.332,-42.67 -32,-64 -10.667,0 -21.333,0 -32,0 0,-10.67 0,-21.33 0,-32 -10.667,0 -21.333,0 -32,0 -11.131,10.69 -22.062,21.6 -33.318,32.16 -21.227,10.61 -42.453,21.23 -63.682,31.84 -10.667,0 -21.333,0 -32,0 0,-10.67 0,-21.33 0,-32 -21.333,0 -42.667,0 -64,0 -10.665,10.67 -21.335,21.33 -32,32 -11,0 -22,0 -33,0 -10.69,10.8 -21.602,21.38 -32.157,32.32 -10.612,21.56 -21.229,43.12 -31.843,64.68 -10.665,-10.67 -21.335,-21.33 -32,-32 -10.668,21.33 -21.332,42.67 -32,64 21.332,10.67 42.668,21.33 64,32 -10.667,0 -21.333,0 -32,0 0,21.33 0,42.67 0,64 21.331,21.67 42.669,43.33 64,65 -10.668,21.33 -21.332,42.67 -32,64 -10.667,0 -21.333,0 -32,0 -10.668,21.33 -21.332,42.67 -32,64 10.665,10.67 21.335,21.33 32,32 -10.667,11 -21.333,22 -32,33 0,10.67 0,21.33 0,32 -43,0 -86,0 -129,0 0,-10.67 0,-21.33 0,-32 -10.667,-11 -21.333,-22 -32,-33 -10.666,21.67 -21.334,43.33 -32,65 -10.667,0 -21.333,0 -32,0 -10.666,-21.67 -21.334,-43.33 -32,-65 -11,0 -22,0 -33,0 11,11 22,22 33,33 -11,0 -22,0 -33,0 0,32 0,64 0,96 -10.665,10.67 -21.335,21.33 -32,32 10.665,10.67 21.335,21.33 32,32 -32,0 -64,0 -96,0 0,10.67 0,21.33 0,32 -10.666,21.67 -21.334,43.33 -32,65 -32.332,-10.67 -64.668,-21.33 -97,-32 10.668,21.33 21.332,42.67 32,64 -21.332,10.67 -42.668,21.33 -64,32 -53.667,0 -107.333,0 -161,0 0,10.67 0,21.33 0,32 -21.335,32.33 -42.665,64.67 -64,97 0,10.67 0,21.33 0,32 -31.999,-10.67 -64.001,-21.33 -96,-32 -10.696,10.8 -21.601,21.39 -32.16,32.32 -21.614,42.89 -43.226,85.79 -64.84,128.68 -21.333,0 -42.667,0 -64,0 0,10.67 0,21.33 0,32 -10.667,0 -21.333,0 -32,0 -21.665,-21.67 -43.335,-43.33 -65,-65 -10.667,11 -21.333,22 -32,33 -21.333,0 -42.667,0 -64,0 -21.335,21.33 -42.665,42.67 -64,64 -64.384,-21.18 -128.719,-42.51 -193,-64 -21.665,10.67 -43.335,21.33 -65,32 0,10.67 0,21.33 0,32 -31.999,-10.67 -64.001,-21.33 -96,-32 -0.21,-11.11 0.429,-22.3 -0.335,-33.36 -10.555,-42.54 -21.109,-85.09 -31.665,-127.64 0,-75 0,-150 0,-225 10.668,-32.33 21.332,-64.67 32,-97 10.665,-10.67 21.335,-21.33 32,-32 -10.665,-10.67 -21.335,-21.33 -32,-32 0,-32 0,-64 0,-96 -10.667,0 -21.333,0 -32,0 21.333,-43 42.667,-86 64,-129 -10.665,-10.67 -21.335,-21.33 -32,-32 0,-32.33 0,-64.67 0,-97 31.998,-42.67 64.002,-85.33 96,-128 0,-21.67 0,-43.33 0,-65 -21.335,-21.33 -42.665,-42.67 -64,-64 -10.667,-32 -21.333,-64 -32,-96 -10.667,-11 -21.333,-22 -32,-33 0,-10.67 0,-21.33 0,-32 10.667,0 21.333,0 32,0 -21.332,-10.67 -42.668,-21.33 -64,-32 0,-32 0,-64 0,-96 -21.667,0 -43.333,0 -65,0 0,-10.67 0,-21.33 0,-32 -21.333,0 -42.667,0 -64,0 -21.333,-11 -42.667,-22 -64,-33 0,-32 0,-64 0,-96 -10.665,-10.67 -21.335,-21.33 -32,-32 -11,0 -22,0 -33,0 -21.335,21.33 -42.665,42.67 -64,64 -10.667,0 -21.333,0 -32,0 -10.666,-42.67 -21.334,-85.33 -32,-128 -10.667,0 -21.333,0 -32,0 -21.665,10.67 -43.335,21.33 -65,32 -10.667,0 -21.333,0 -32,0 0,-10.67 0,-21.33 0,-32 10.666,-21.67 21.334,-43.33 32,-65 -10.667,0 -21.333,0 -32,0 -10.799,-10.69 -21.389,-21.6 -32.318,-32.16 -21.227,-10.61 -42.453,-21.23 -63.682,-31.84 0,-21.33 0,-42.67 0,-64 21.333,-11 42.667,-22 64,-33 0,-10.67 0,-21.33 0,-32 -21.333,0 -42.667,0 -64,0 -21.668,-21.33 -43.332,-42.67 -65,-64 -10.668,-21.33 -21.332,-42.67 -32,-64 10.666,-21.67 21.334,-43.33 32,-65 -21.332,-10.67 -42.668,-21.33 -64,-32 -10.665,-10.67 -21.335,-21.33 -32,-32 21.335,-21.33 42.665,-42.67 64,-64 -31.999,-10.67 -64.001,-21.33 -96,-32 -43,0 -86,0 -129,0 -21.081,-21.91 -42.395,-43.6 -64,-65 0,-10.67 0,-21.33 0,-32 10.667,0 21.333,0 32,0 0,-10.67 0,-21.33 0,-32 -21.332,-10.67 -42.668,-21.33 -64,-32 -10.667,0 -21.333,0 -32,0 -10.668,21.33 -21.332,42.67 -32,64 -11,0 -22,0 -33,0 0,-21.33 0,-42.67 0,-64 10.998,-10.67 22.002,-21.33 33,-32 -18.934,-18.26 -37.875,-36.52 -55.936,-55.65 -3.521,-2.01 -7.043,-10.79 -10.564,-7.8 -10.167,10.48 -20.333,20.97 -30.5,31.45 -10.667,0 -21.333,0 -32,0 0,-11 0,-22 0,-33 -10.668,-21.33 -21.332,-42.67 -32,-64 0,-21.33 0,-42.67 0,-64 -10.665,-10.67 -21.335,-21.33 -32,-32 0,10.67 0,21.33 0,32 -21.665,10.67 -43.335,21.33 -65,32 -31.999,-10.67 -64.001,-21.33 -96,-32 -10.667,0 -21.333,0 -32,0 0,-21.67 0,-43.33 0,-65 -21.665,-10.67 -43.335,-21.33 -65,-32 0,-10.67 0,-21.33 0,-32 -10.665,-10.67 -21.335,-21.33 -32,-32 -10.667,0 -21.333,0 -32,0 0,10.67 0,21.33 0,32 -32,0 -64,0 -96,0 -10.998,-10.67 -22.002,-21.33 -33,-32 11,0 22,0 33,0 0,-10.67 0,-21.33 0,-32 -21.667,0 -43.333,0 -65,0 0,-21.33 0,-42.67 0,-64 -10.667,-11 -21.333,-22 -32,-33 0,-10.67 0,-21.33 0,-32 10.667,0 21.333,0 32,0 0,-21.33 0,-42.67 0,-64 -21.333,0 -42.667,0 -64,0 -10.668,-32.33 -21.332,-64.67 -32,-97 -10.667,11 -21.333,22 -32,33 -21.667,0 -43.333,0 -65,0 -21.331,-21.67 -42.669,-43.33 -64,-65 10.665,-10.67 21.335,-21.33 32,-32 -10.69,-10.8 -21.602,-21.39 -32.158,-32.32 -21.281,-42.89 -42.56,-85.79 -63.842,-128.68 -21.667,11 -43.333,22 -65,33 -10.668,21.33 -21.332,42.67 -32,64 -10.667,0 -21.333,0 -32,0 -10.668,-21.33 -21.332,-42.67 -32,-64 -10.667,-11 -21.333,-22 -32,-33 0,-21.33 0,-42.67 0,-64 -21.665,-10.67 -43.335,-21.33 -65,-32 -42.667,0 -85.333,0 -128,0 0,-10.67 0,-21.33 0,-32 -10.666,-21.67 -21.334,-43.33 -32,-65 21.332,-10.67 42.668,-21.33 64,-32 0,-32 0,-64 0,-96 -10.665,-10.67 -21.335,-21.33 -32,-32 -10.668,21.33 -21.332,42.67 -32,64 -32.333,-32 -64.667,-64 -97,-96 0,-21.67 0,-43.33 0,-65 -31.999,10.67 -64.001,21.33 -96,32 -10.667,0 -21.333,0 -32,0 -21.667,11 -43.333,22 -65,33 -10.667,-11 -21.333,-22 -32,-33 21.668,-21.33 43.332,-42.67 65,-64 -11,-32 -22,-64 -33,-96 -21.332,10.67 -42.668,21.33 -64,32 -21.331,-21.67 -42.669,-43.33 -64,-65 21.333,0 42.667,0 64,0 0,-10.67 0,-21.33 0,-32 -21.335,-21.33 -42.665,-42.67 -64,-64 -10.668,-21.33 -21.332,-42.67 -32,-64 -32.333,0 -64.667,0 -97,0 0,-10.67 0,-21.33 0,-32 32.333,-11 64.667,-22 97,-33 0,-10.67 0,-21.33 0,-32 -10.998,10.67 -22.002,21.33 -33,32 -10.665,-10.67 -21.335,-21.33 -32,-32 0,-10.67 0,-21.33 0,-32 -21.332,10.67 -42.668,21.33 -64,32 -10.665,-10.67 -21.335,-21.33 -32,-32 -21.665,10.67 -43.335,21.33 -65,32 -21.335,-21.33 -42.665,-42.67 -64,-64 0,-21.33 0,-42.67 0,-64 -10.667,0 -21.333,0 -32,0 -21.463,-11 -42.824,-22.2 -64.345,-33.09 -42.888,-10.63 -85.771,-21.27 -128.655,-31.91 -32,0 -64,0 -96,0 -10.668,-21.33 -21.332,-42.67 -32,-64 10.667,-32 21.333,-64 32,-96 0,-11 0,-22 0,-33 -32.332,-10.67 -64.668,-21.33 -97,-32 -10.668,-21.33 -21.332,-42.67 -32,-64 -21.333,0 -42.667,0 -64,0 -10.8,-10.69 -21.384,-21.6 -32.319,-32.16 -21.56,-10.61 -43.119,-21.23 -64.681,-31.84 -53.333,0 -106.667,0 -160,0 0,-10.67 0,-21.33 0,-32 -21.667,0 -43.333,0 -65,0 -31.998,42.67 -64.002,85.33 -96,128 0,-10.67 0,-21.33 0,-32 -10.665,10.67 -21.335,21.33 -32,32 0,-10.67 0,-21.33 0,-32 -11.131,-10.69 -22.062,-21.6 -33.318,-32.16 -21.227,-10.61 -42.453,-21.23 -63.682,-31.84 -31.999,10.67 -64.001,21.33 -96,32 -32.333,0 -64.667,0 -97,0 -10.668,-21.33 -21.332,-42.67 -32,-64 -64.333,0 -128.667,0 -193,0 -10.665,10.67 -21.335,21.33 -32,32 0,21.33 0,42.67 0,64 -21.333,0 -42.667,0 -64,0 -21.665,-10.67 -43.335,-21.33 -65,-32 -21.333,0 -42.667,0 -64,0 0,-10.67 0,-21.33 0,-32 10.667,0 21.333,0 32,0 0,-10.67 0,-21.33 0,-32 -10.667,0 -21.333,0 -32,0 -21.335,21.33 -42.665,42.67 -64,64 -10.668,21.33 -21.332,42.67 -32,64 10.667,0 21.333,0 32,0 -10.665,10.67 -21.335,21.33 -32,32 -11.348,-0.24 -22.806,0.47 -34.085,-0.36 -31.639,-10.55 -63.277,-21.09 -94.915,-31.64 0,21.33 0,42.67 0,64 21.333,0 42.667,0 64,0 0,21.67 0,43.33 0,65 -21.332,10.67 -42.668,21.33 -64,32 -21.333,0 -42.667,0 -64,0 -21.666,42.67 -43.334,85.33 -65,128 -21.331,21.67 -42.669,43.33 -64,65 0,21.33 0,42.67 0,64 -21.333,0 -42.667,0 -64,0 0,21.33 0,42.67 0,64 10.667,11 21.333,22 32,33 -10.667,0 -21.333,0 -32,0 10.667,0 21.333,0 32,0 0,10.67 0,21.33 0,32 10.668,21.33 21.332,42.67 32,64 -21.335,21.33 -42.665,42.67 -64,64 -10.667,0 -21.333,0 -32,0 -32.332,21.67 -64.668,43.33 -97,65 -10.667,32 -21.333,64 -32,96 -21.332,10.67 -42.668,21.33 -64,32 -43,0 -86,0 -129,0 -10.665,-10.67 -21.335,-21.33 -32,-32 0,-10.67 0,-21.33 0,-32 -10.665,-10.67 -21.335,-21.33 -32,-32 -10.665,10.67 -21.335,21.33 -32,32 0,10.67 0,21.33 0,32 -21.668,21.33 -43.332,42.67 -65,64 -10.667,0 -21.333,0 -32,0 -11.018,-21.75 -21.582,-43.75 -32.894,-65.34 -21.131,-31.63 -42.13,-63.35 -63.354,-94.92 -10.587,-10.91 -21.166,-21.83 -31.752,-32.74 -10.999,21.67 -22.001,43.33 -33,65 -53.334,21.33 -106.666,42.67 -160,64 -11.001,-21.33 -21.999,-42.67 -33,-64 -11.067,10.84 -21.714,22.16 -33.044,32.7 -31.656,21.09 -63.305,42.2 -94.956,63.3 0,21.67 0,43.33 0,65 -53.667,0 -107.333,0 -161,0 0,-21.67 0,-43.33 0,-65 10.665,-10.67 21.335,-21.33 32,-32 -21.332,-10.67 -42.668,-21.33 -64,-32 -32,0 -64,0 -96,0 -21.665,-10.67 -43.335,-21.33 -65,-32 -42.667,0 -85.333,0 -128,0 -11,32 -22,64 -33,96 -85.635,-21.46 -171.303,-42.79 -257,-64 -10.668,-21.33 -21.332,-42.67 -32,-64 -10.667,-11 -21.333,-22 -32,-33 10.667,-64 21.333,-128 32,-192 -10.667,-11 -21.333,-22 -32,-33 -75.375,-32.09 -150.658,-64.42 -226.093,-96.36 -31.969,-10.55 -63.938,-21.09 -95.907,-31.64 -21.332,10.67 -42.668,21.33 -64,32 21.335,-21.33 42.665,-42.67 64,-64 75,0 150,0 225,0 53.763,-21.74 107.576,-43.36 161.305,-65.18 107.232,-64.27 214.462,-128.55 321.695,-192.82 32,-32 64,-64 96,-96 21.666,-53.67 43.334,-107.33 65,-161 58.829,-58.74 117.586,-117.55 175.939,-176.77 5.8,-5.53 11.026,-11.81 17.194,-16.86 96.288,-53.46 192.579,-106.91 288.867,-160.37 31.998,-42.67 64.002,-85.33 96,-128 z"
         id="path66" />
    </g>
  </g>
</svg>
