<?xml version="1.0" encoding="UTF-8" standalone="no"?>
<!-- Created with Inkscape (http://www.inkscape.org/) -->

<svg
   xmlns:dc="http://purl.org/dc/elements/1.1/"
   xmlns:cc="http://creativecommons.org/ns#"
   xmlns:rdf="http://www.w3.org/1999/02/22-rdf-syntax-ns#"
   xmlns:svg="http://www.w3.org/2000/svg"
   xmlns="http://www.w3.org/2000/svg"
   xmlns:sodipodi="http://sodipodi.sourceforge.net/DTD/sodipodi-0.dtd"
   xmlns:inkscape="http://www.inkscape.org/namespaces/inkscape"
   width="26.287315mm"
   height="17.166471mm"
   viewBox="0 0 26.287315 17.166471"
   version="1.1"
   id="svg1381"
   inkscape:version="0.92.5 (2060ec1f9f, 2020-04-08)"
   sodipodi:docname="sc.svg">
  <defs
     id="defs1375" />
  <sodipodi:namedview
     id="base"
     pagecolor="#ffffff"
     bordercolor="#666666"
     borderopacity="1.0"
     inkscape:pageopacity="0.0"
     inkscape:pageshadow="2"
     inkscape:zoom="0.35"
     inkscape:cx="375.3911"
     inkscape:cy="681.01199"
     inkscape:document-units="mm"
     inkscape:current-layer="layer1"
     showgrid="false"
     inkscape:window-width="1366"
     inkscape:window-height="704"
     inkscape:window-x="0"
     inkscape:window-y="0"
     inkscape:window-maximized="1" />
  <metadata
     id="metadata1378">
    <rdf:RDF>
      <cc:Work
         rdf:about="">
        <dc:format>image/svg+xml</dc:format>
        <dc:type
           rdf:resource="http://purl.org/dc/dcmitype/StillImage" />
        <dc:title></dc:title>
      </cc:Work>
    </rdf:RDF>
  </metadata>
  <g
     inkscape:label="Layer 1"
     inkscape:groupmode="layer"
     id="layer1"
     transform="translate(26.750799,-311.85129)">
    <g
       transform="matrix(9.9994773e-4,0,0,9.9994773e-4,-127.71895,157.96108)"
       id="SantaCatarina">
      <path
         inkscape:connector-curvature="0"
         id="path94"
         d="m 101205,160059 c 0,-11 0,-22 0,-33 -10.67,-10.67 -21.33,-21.33 -32,-32 10.67,-10.67 21.33,-21.33 32,-32 53.67,-10.67 107.33,-21.33 161,-32 0,-10.67 0,-21.33 0,-32 -32.33,10.67 -64.67,21.33 -97,32 -10.67,-21.33 -21.33,-42.67 -32,-64 10.67,0 21.33,0 32,0 21.67,-10.67 43.33,-21.33 65,-32 0,-21.67 0,-43.33 0,-65 -21.67,-10.67 -43.33,-21.33 -65,-32 0,-10.67 0,-21.33 0,-32 11,0 22,0 33,0 10.67,21.33 21.33,42.67 32,64 10.73,0 21.5,0.1 32.21,-0.1 31.93,-10.64 63.86,-21.29 95.79,-31.93 -42.67,-32 -85.33,-64 -128,-96 0,-11 0,-22 0,-33 10.67,-21.33 21.33,-42.67 32,-64 21.33,21.33 42.67,42.67 64,64 21.67,0 43.33,0 65,0 -11,-10.67 -22,-21.33 -33,-32 -10.67,0 -21.33,0 -32,0 -21.33,-21.33 -42.67,-42.67 -64,-64 -10.67,-21.33 -21.33,-42.67 -32,-64 21.33,0 42.67,0 64,0 21.33,21.33 42.67,42.67 64,64 11,21.33 22,42.67 33,64 21.33,-10.67 42.67,-21.33 64,-32 -10.67,-10.67 -21.33,-21.33 -32,-32 -21.67,-10.67 -43.33,-21.33 -65,-32 -10.67,-43 -21.33,-86 -32,-129 32.33,32.33 64.67,64.67 97,97 15.26,-15.67 30.33,-31.53 45.9,-46.9 6.03,-6.03 12.07,-12.07 18.1,-18.1 0,-10.67 0,-21.33 0,-32 -10.67,-10.67 -21.33,-21.33 -32,-32 -10.67,-21.33 -21.33,-42.67 -32,-64 21.33,0 42.67,0 64,0 10.67,21.33 21.33,42.67 32,64 21.67,-21.33 43.33,-42.67 65,-64 -21.67,-21.67 -43.33,-43.33 -65,-65 43,0 86,0 129,0 0,-10.67 0,-21.33 0,-32 -32.33,-21.33 -64.67,-42.67 -97,-64 11,0 22,0 33,0 0,-21.33 0,-42.67 0,-64 21.33,10.67 42.67,21.33 64,32 21.33,-10.67 42.67,-21.33 64,-32 0,-10.67 0,-21.33 0,-32 -10.67,-21.67 -21.33,-43.33 -32,-65 0,-10.67 0,-21.33 0,-32 43,21.33 86,42.67 129,64 21.33,0 42.67,0 64,0 -21.33,-10.67 -42.67,-21.33 -64,-32 -21.67,-21.33 -43.33,-42.67 -65,-64 21.67,-10.67 43.33,-21.33 65,-32 10.67,-10.67 21.33,-21.33 32,-32 -10.67,-11 -21.33,-22 -32,-33 10.67,-21.33 21.33,-42.67 32,-64 -32.33,-10.67 -64.67,-21.33 -97,-32 10.67,-10.67 21.33,-21.33 32,-32 11,-21.33 22,-42.67 33,-64 -21.67,0 -43.33,0 -65,0 0,-11 0,-22 0,-33 53.67,11 107.33,22 161,33 0,-11 0,-22 0,-33 -21.33,-21.33 -42.67,-42.67 -64,-64 -32.33,0 -64.67,0 -97,0 0,-10.67 0,-21.33 0,-32 10.67,0 21.33,0 32,0 -10.67,-10.67 -21.33,-21.33 -32,-32 -10.67,-21.67 -21.33,-43.33 -32,-65 -10.67,-10.67 -21.33,-21.33 -32,-32 0,-10.67 0,-21.33 0,-32 10.67,10.67 21.33,21.33 32,32 10.67,0 21.33,0 32,0 -10.67,-21.33 -21.33,-42.67 -32,-64 -10.67,0 -21.33,0 -32,0 -10.67,-21.33 -21.33,-42.67 -32,-64 0,-10.67 0,-21.33 0,-32 21.33,-11 42.67,-22 64,-33 0,-10.67 0,-21.33 0,-32 -21.33,0 -42.67,0 -64,0 0,10.67 0,21.33 0,32 -21.33,0 -42.67,0 -64,0 -21.67,-21.33 -43.33,-42.67 -65,-64 21.67,10.67 43.33,21.33 65,32 10.67,-10.67 21.33,-21.33 32,-32 10.67,0 21.33,0 32,0 0,-21.33 0,-42.67 0,-64 -10.67,-10.67 -21.33,-21.33 -32,-32 -10.67,-21.67 -21.33,-43.33 -32,-65 -11,21.67 -22,43.33 -33,65 -21.33,0 -42.67,0 -64,0 10.67,-21.67 21.33,-43.33 32,-65 -21.33,-10.67 -42.67,-21.33 -64,-32 0,-21.33 0,-42.67 0,-64 10.67,21.33 21.33,42.67 32,64 21.33,-10.67 42.67,-21.33 64,-32 11,-21.33 22,-42.67 33,-64 -21.67,-21.67 -43.33,-43.33 -65,-65 0,-10.67 0,-21.33 0,-32 10.67,0 21.33,0 32,0 11,21.67 22,43.33 33,65 21.33,-21.67 42.67,-43.33 64,-65 -21.33,-10.67 -42.67,-21.33 -64,-32 0,-10.67 0,-21.33 0,-32 21.33,0 42.67,0 64,0 -10.67,-21.33 -21.33,-42.67 -32,-64 0,-11 0,-22 0,-33 0,11 0,22 0,33 -21.67,0 -43.33,0 -65,0 0,-11 0,-22 0,-33 -10.67,0 -21.33,0 -32,0 -21.33,-10.67 -42.67,-21.33 -64,-32 10.67,-10.67 21.33,-21.33 32,-32 10.67,10.67 21.33,21.33 32,32 0,-21.33 0,-42.67 0,-64 10.67,0 21.33,0 32,0 11,-21.33 22,-42.67 33,-64 -11,-10.67 -22,-21.33 -33,-32 11,0 22,0 33,0 0,-32.33 0,-64.67 0,-97 10.67,0 21.33,0 32,0 0,-43 0,-86 0,-129 21.33,0 42.67,0 64,0 0,-10.67 0,-21.33 0,-32 -10.67,0 -21.33,0 -32,0 -21.33,10.67 -42.67,21.33 -64,32 -11,0 -22,0 -33,0 21.67,-10.67 43.33,-21.33 65,-32 -10.67,-10.67 -21.33,-21.33 -32,-32 -21.67,-10.67 -43.33,-21.33 -65,-32 21.67,-10.67 43.33,-21.33 65,-32 10.67,10.67 21.33,21.33 32,32 0,-10.67 0,-21.33 0,-32 10.67,-21.33 21.33,-42.67 32,-64 -21.33,0 -42.67,0 -64,0 0,-32.33 0,-64.67 0,-97 10.67,0 21.33,0 32,0 0,10.67 0,21.33 0,32 10.67,-10.67 21.33,-21.33 32,-32 21.33,10.67 42.67,21.33 64,32 -10.67,-21.33 -21.33,-42.67 -32,-64 10.67,-10.67 21.33,-21.33 32,-32 10.67,0 21.33,0 32,0 -10.67,-21.67 -21.33,-43.33 -32,-65 10.67,0 21.33,0 32,0 -10.67,-10.67 -21.33,-21.33 -32,-32 -10.67,21.67 -21.33,43.33 -32,65 0,-21.67 0,-43.33 0,-65 -10.67,0 -21.33,0 -32,0 21.33,-10.67 42.67,-21.33 64,-32 10.67,10.67 21.33,21.33 32,32 0,-21.33 0,-42.67 0,-64 -10.67,-10.67 -21.33,-21.33 -32,-32 0,-10.67 0,-21.33 0,-32 10.67,-10.67 21.33,-21.33 32,-32 0,10.67 0,21.33 0,32 10.67,0 21.33,0 32,0 0,-21.67 0,-43.33 0,-65 -10.67,0 -21.33,0 -32,0 0,-21.33 0,-42.67 0,-64 -10.67,0 -21.33,0 -32,0 -10.67,-10.67 -21.33,-21.33 -32,-32 10.67,0 21.33,0 32,0 10.67,-10.67 21.33,-21.33 32,-32 -21.33,-10.67 -42.67,-21.33 -64,-32 0,-21.67 0,-43.33 0,-65 10.67,0 21.33,0 32,0 10.67,-10.67 21.33,-21.33 32,-32 -10.67,-10.67 -21.33,-21.33 -32,-32 0,-10.67 0,-21.33 0,-32 21.33,-10.67 42.67,-21.33 64,-32 -10.67,-10.67 -21.33,-21.33 -32,-32 10.67,0 21.33,0 32,0 0,-21.67 0,-43.33 0,-65 21.67,-10.67 43.33,-21.33 65,-32 10.67,0 21.33,0 32,0 -10.67,-10.67 -21.33,-21.33 -32,-32 10.67,0 21.33,0 32,0 0,-10.67 0,-21.33 0,-32 21.36,-32.4 42.78,-64.77 64.1,-97.2 21.3,-42.6 42.6,-85.2 63.9,-127.8 0,-32.33 0,-64.67 0,-97 21.67,10.67 43.33,21.33 65,32 32,0 64,0 96,0 32.33,-10.67 64.67,-21.33 97,-32 10.67,32.33 21.33,64.67 32,97 10.67,0 21.33,0 32,0 32.33,21.33 64.67,42.67 97,64 0,10.67 0,21.33 0,32 42.67,0 85.33,0 128,0 43,10.67 86,21.33 129,32 32,-10.67 64,-21.33 96,-32 21.33,0 42.67,0 64,0 32.33,-21.33 64.67,-42.67 97,-64 21.33,0 42.67,0 64,0 10.74,-10.7 21.4,-21.48 32.18,-32.12 64.28,-42.96 128.55,-85.92 192.82,-128.88 10.67,-10.67 21.33,-21.33 32,-32 21.67,21.33 43.33,42.67 65,64 10.67,-10.67 21.33,-21.33 32,-32 10.67,10.67 21.33,21.33 32,32 0,-10.67 0,-21.33 0,-32 21.33,0 42.67,0 64,0 0,10.67 0,21.33 0,32 21.67,0 43.33,0 65,0 10.67,10.67 21.33,21.33 32,32 10.67,0 21.33,0 32,0 43,-21.33 86,-42.67 129,-64 0,21.33 0,42.67 0,64 10.67,0 21.33,0 32,0 21.33,32.33 42.67,64.67 64,97 0,10.67 0,21.33 0,32 10.67,10.67 21.33,21.33 32,32 0,10.67 0,21.33 0,32 10.67,0 21.33,0 32,0 21.67,21.67 43.33,43.33 65,65 42.67,21.33 85.33,42.67 128,64 0,10.67 0,21.33 0,32 10.67,0 21.33,0 32,0 21.67,21.33 43.33,42.67 65,64 21.33,0 42.67,0 64,0 10.67,11 21.33,22 32,33 10.67,0 21.33,0 32,0 11,-11 22,-22 33,-33 10.67,0 21.33,0 32,0 10.67,21.67 21.33,43.33 32,65 21.33,21.33 42.67,42.67 64,64 21.33,10.67 42.67,21.33 64,32 11,0 22,0 33,0 21.33,21.33 42.67,42.67 64,64 21.33,0 42.67,0 64,0 43.07,-21.35 86.12,-42.77 129.21,-64.07 31.93,-10.64 63.86,-21.29 95.79,-31.93 64.33,-43 128.67,-86 193,-129 64.33,32.33 128.67,64.67 193,97 21.33,-10.67 42.67,-21.33 64,-32 11,0 22,0 33,0 21.33,-10.67 42.67,-21.33 64,-32 10.67,10.67 21.33,21.33 32,32 53.67,0 107.33,0 161,0 42.67,-21.67 85.33,-43.33 128,-65 64.33,0 128.67,0 193,0 10.67,11 21.33,22 32,33 11,0 22,0 33,0 21.33,-11 42.67,-22 64,-33 21.33,11 42.67,22 64,33 10.67,0 21.33,0 32,0 11,-11 22,-22 33,-33 10.67,0 21.33,0 32,0 10.67,-10.67 21.33,-21.33 32,-32 21.33,10.67 42.67,21.33 64,32 10.67,21.67 21.33,43.33 32,65 11,-10.67 22,-21.33 33,-32 10.67,10.67 21.33,21.33 32,32 10.73,0 21.5,0.1 32.21,-0.1 31.93,-10.64 63.86,-21.29 95.79,-31.93 32.33,32 64.67,64 97,96 21.33,10.67 42.67,21.33 64,32 10.67,10.67 21.33,21.33 32,32 0,10.67 0,21.33 0,32 21.33,11 42.67,22 64,33 11,10.67 22,21.33 33,32 0,10.67 0,21.33 0,32 21.33,0 42.67,0 64,0 10.67,10.67 21.33,21.33 32,32 21.33,-21.33 42.67,-42.67 64,-64 21.67,10.67 43.33,21.33 65,32 10.67,-10.67 21.33,-21.33 32,-32 10.67,10.67 21.33,21.33 32,32 21.41,-10.68 42.78,-21.44 64.21,-32.07 32.26,-10.64 64.53,-21.29 96.79,-31.93 42.67,32 85.33,64 128,96 21.67,0 43.33,0 65,0 21.33,32.33 42.67,64.67 64,97 75,0 150,0 225,0 21.33,-11 42.67,-22 64,-33 10.67,-10.67 21.33,-21.33 32,-32 11.5,11.21 23.12,22.3 34.54,33.59 10.15,10.47 20.31,20.94 30.46,31.41 10.67,0 21.33,0 32,0 21.33,-11 42.67,-22 64,-33 21.67,21.67 43.33,43.33 65,65 10.67,-21.67 21.33,-43.33 32,-65 10.67,21.67 21.33,43.33 32,65 21.33,-10.67 42.67,-21.33 64,-32 32.33,0 64.67,0 97,0 32,32 64,64 96,96 0,10.67 0,21.33 0,32 10.67,0 21.33,0 32,0 21.67,-10.67 43.33,-21.33 65,-32 21.33,0 42.67,0 64,0 10.67,10.67 21.33,21.33 32,32 32,0 64,0 96,0 32.33,-10.67 64.67,-21.33 97,-32 21.33,-21.33 42.67,-42.67 64,-64 43,42.67 86,85.33 129,128 43,0 86,0 129,0 10.67,10.67 21.33,21.33 32,32 21.33,0 42.67,0 64,0 21.33,11 42.67,22 64,33 0,32 0,64 0,96 10.67,10.67 21.33,21.33 32,32 11,0 22,0 33,0 10.67,21.67 21.33,43.33 32,65 21.33,0 42.67,0 64,0 10.67,10.67 21.33,21.33 32,32 10.67,0 21.33,0 32,0 10.67,10.67 21.33,21.33 32,32 21.67,10.67 43.33,21.33 65,32 0,10.67 0,21.33 0,32 21.33,0 42.67,0 64,0 0,10.67 0,21.33 0,32 10.67,21.67 21.33,43.33 32,65 43,-11 86,-22 129,-33 0,11 0,22 0,33 21.33,0 42.67,0 64,0 21.67,10.67 43.33,21.33 65,32 10.67,-10.67 21.33,-21.33 32,-32 32,21.33 64,42.67 96,64 43,0 86,0 129,0 32,10.67 64,21.33 96,32 0,10.67 0,21.33 0,32 10.67,10.67 21.33,21.33 32,32 10.67,0 21.33,0 32,0 21.67,-21.33 43.33,-42.67 65,-64 21.33,10.67 42.67,21.33 64,32 32.33,-21.33 64.67,-42.67 97,-64 32,10.67 64,21.33 96,32 21.33,0 42.67,0 64,0 86,-21.33 172,-42.67 258,-64 42.67,10.67 85.33,21.33 128,32 21.33,0 42.67,0 64,0 43,-32.33 86,-64.67 129,-97 32.33,21.67 64.67,43.33 97,65 21.33,21.33 42.67,42.67 64,64 160.67,0 321.33,0 482,0 32.33,-10.67 64.67,-21.33 97,-32 21.33,10.67 42.67,21.33 64,32 10.67,21.33 21.33,42.67 32,64 10.67,11 21.33,22 32,33 -10.67,21.33 -21.33,42.67 -32,64 32.33,0 64.67,0 97,0 10.67,10.67 21.33,21.33 32,32 10.67,21.33 21.33,42.67 32,64 0,21.67 0,43.33 0,65 21.33,21.33 42.67,42.67 64,64 10.67,32 21.33,64 32,96 43,21.67 86,43.33 129,65 -10.67,21.33 -21.33,42.67 -32,64 21.33,-10.67 42.67,-21.33 64,-32 10.67,-10.67 21.33,-21.33 32,-32 0,-21.67 0,-43.33 0,-65 -21.33,-21.33 -42.67,-42.67 -64,-64 21.33,-21.33 42.67,-42.67 64,-64 21.67,0 43.33,0 65,0 21.33,-10.67 42.67,-21.33 64,-32 21.33,0 42.67,0 64,0 32.33,-11 64.67,-22 97,-33 10.67,0 21.33,0 32,0 0,11 0,22 0,33 21.33,-11 42.67,-22 64,-33 10.67,11 21.33,22 32,33 32.33,0 64.67,0 97,0 0,-21.67 0,-43.33 0,-65 10.67,0 21.33,0 32,0 0,-10.67 0,-21.33 0,-32 21.33,0 42.67,0 64,0 10.67,-10.67 21.33,-21.33 32,-32 32.33,0 64.67,0 97,0 0,-10.67 0,-21.33 0,-32 10.67,-10.67 21.33,-21.33 32,-32 -10.67,-21.67 -21.33,-43.33 -32,-65 21.33,-10.67 42.67,-21.33 64,-32 0,-32 0,-64 0,-96 10.67,-10.67 21.33,-21.33 32,-32 -21.33,-11 -42.67,-22 -64,-33 0,-10.67 0,-21.33 0,-32 10.67,-10.67 21.33,-21.33 32,-32 -21.33,-10.67 -42.67,-21.33 -64,-32 0,-10.67 0,-21.33 0,-32 -10.67,0 -21.33,0 -32,0 -11,-21.33 -22,-42.67 -33,-64 -10.67,0 -21.33,0 -32,0 -10.67,-21.67 -21.33,-43.33 -32,-65 -10.67,-10.67 -21.33,-21.33 -32,-32 0,-21.33 0,-42.67 0,-64 10.67,0 21.33,0 32,0 0,-10.67 0,-21.33 0,-32 21.33,-11 42.67,-22 64,-33 -10.67,-10.67 -21.33,-21.33 -32,-32 10.67,-10.67 21.33,-21.33 32,-32 -21.33,-10.67 -42.67,-21.33 -64,-32 -21.33,0 -42.67,0 -64,0 0,-10.67 0,-21.33 0,-32 10.67,-10.67 21.33,-21.33 32,-32 -32,-10.67 -64,-21.33 -96,-32 -11,-21.67 -22,-43.33 -33,-65 0,-10.67 0,-21.33 0,-32 21.67,-10.67 43.33,-21.33 65,-32 -10.67,-10.67 -21.33,-21.33 -32,-32 0,-10.67 0,-21.33 0,-32 21.33,10.67 42.67,21.33 64,32 0,-21.67 0,-43.33 0,-65 10.67,-10.67 21.33,-21.33 32,-32 32,-10.67 64,-21.33 96,-32 -21.33,-21.33 -42.67,-42.67 -64,-64 21.33,-21.33 42.67,-42.67 64,-64 0,-11 0,-22 0,-33 -10.67,0 -21.33,0 -32,0 10.67,-21.33 21.33,-42.67 32,-64 11,0 22,0 33,0 0,-10.67 0,-21.33 0,-32 32,-10.67 64,-21.33 96,-32 10.67,-10.67 21.33,-21.33 32,-32 10.67,-21.67 21.33,-43.33 32,-65 43,0 86,0 129,0 21.33,-10.67 42.67,-21.33 64,-32 10.67,0 21.33,0 32,0 0,-10.67 0,-21.33 0,-32 21.67,-10.67 43.33,-21.33 65,-32 10.67,10.67 21.33,21.33 32,32 10.67,0 21.33,0 32,0 0,-10.67 0,-21.33 0,-32 21.33,0 42.67,0 64,0 21.67,-10.67 43.33,-21.33 65,-32 15.32,-15.38 30.83,-30.59 45.84,-46.27 6.05,-6.24 12.11,-12.49 18.16,-18.73 0,-21.33 0,-42.67 0,-64 10.67,0 21.33,0 32,0 10.67,-32 21.33,-64 32,-96 32.33,21.33 64.67,42.67 97,64 10.67,10.67 21.33,21.33 32,32 85.67,-32 171.33,-64 257,-96 10.74,10.7 21.4,21.48 32.18,32.12 32.28,21.29 64.55,42.59 96.82,63.88 0,32.33 0,64.67 0,97 32,0 64,0 96,0 10.67,21.33 21.33,42.67 32,64 11,0 22,0 33,0 10.67,-21.33 21.33,-42.67 32,-64 -21.67,-43 -43.33,-86 -65,-129 11,-10.67 22,-21.33 33,-32 10.67,0 21.33,0 32,0 32,32 64,64 96,96 0,53.67 0,107.33 0,161 32.33,0 64.67,0 97,0 10.67,-10.67 21.33,-21.33 32,-32 16.78,-50.86 33.5,-101.74 50.51,-152.53 4.5,-13.49 8.99,-26.98 13.49,-40.47 10.67,0 21.33,0 32,0 32.39,43.05 64.72,86.14 97.16,129.16 10.61,10.61 21.23,21.23 31.84,31.84 10.67,-10.67 21.33,-21.33 32,-32 10.67,-32.33 21.33,-64.67 32,-97 21.33,-10.67 42.67,-21.33 64,-32 15.67,-15.26 31.53,-30.33 46.9,-45.9 6.03,-6.03 12.07,-12.07 18.1,-18.1 64.33,-10.67 128.67,-21.33 193,-32 10.67,10.67 21.33,21.33 32,32 0,32 0,64 0,96 42.67,0 85.33,0 128,0 11,-10.67 22,-21.33 33,-32 -32.33,-64.33 -64.67,-128.67 -97,-193 43,-21.33 86,-42.67 129,-64 10.7,-10.74 21.48,-21.4 32.12,-32.18 21.32,-32.35 42.7,-64.65 63.98,-97.02 10.63,-21.27 21.27,-42.53 31.9,-63.8 10.67,-10.67 21.33,-21.33 32,-32 21.67,-10.67 43.33,-21.33 65,-32 10.67,-11 21.33,-22 32,-33 10.67,0 21.33,0 32,0 -21.33,-42.67 -42.67,-85.33 -64,-128 21.33,-21.67 42.67,-43.33 64,-65 10.67,-21.33 21.33,-42.67 32,-64 21.67,-21.33 43.33,-42.67 65,-64 42.67,10.67 85.33,21.33 128,32 21.33,0 42.67,0 64,0 32.33,-10.67 64.67,-21.33 97,-32 10.67,0 21.33,0 32,0 10.67,-10.67 21.33,-21.33 32,-32 0,-21.67 0,-43.33 0,-65 -21.33,0 -42.67,0 -64,0 -21.33,11 -42.67,22 -64,33 -11,0 -22,0 -33,0 -10.67,-11 -21.33,-22 -32,-33 0,-32 0,-64 0,-96 32.33,-32.33 64.67,-64.67 97,-97 10.67,0 21.33,0 32,0 10.67,32.33 21.33,64.67 32,97 10.67,0 21.33,0 32,0 0,32 0,64 0,96 59.61,-29.61 119.29,-59.06 178.79,-88.89 4.73,-2.37 9.47,-4.74 14.21,-7.11 10.67,10.67 21.33,21.33 32,32 10.67,-10.67 21.33,-21.33 32,-32 11,10.67 22,21.33 33,32 21.33,0 42.67,0 64,0 -10.67,0 -21.33,0 -32,0 10.67,10.67 21.33,21.33 32,32 0,-21.33 0,-42.67 0,-64 10.67,0 21.33,0 32,0 0,10.67 0,21.33 0,32 21.33,0 42.67,0 64,0 0,10.67 0,21.33 0,32 0,-10.67 0,-21.33 0,-32 21.67,10.67 43.33,21.33 65,32 -11,10.67 -22,21.33 -33,32 11,11 22,22 33,33 10.67,21.33 21.33,42.67 32,64 42.67,0 85.33,0 128,0 11,-10.67 22,-21.33 33,-32 0,10.67 0,21.33 0,32 53.33,32 106.67,64 160,96 11,21.67 22,43.33 33,65 -11,21.33 -22,42.67 -33,64 0,10.67 0,21.33 0,32 11,-10.67 22,-21.33 33,-32 0,10.67 0,21.33 0,32 10.67,10.67 21.33,21.33 32,32 21.33,10.67 42.67,21.33 64,32 10.67,11 21.33,22 32,33 10.67,-11 21.33,-22 32,-33 10.67,11 21.33,22 32,33 0,-11 0,-22 0,-33 -21.33,0 -42.67,0 -64,0 0,-10.67 0,-21.33 0,-32 10.67,0 21.33,0 32,0 0,-10.67 0,-21.33 0,-32 -10.67,-10.67 -21.33,-21.33 -32,-32 10.67,-10.67 21.33,-21.33 32,-32 0,-10.67 0,-21.33 0,-32 -10.67,-21.67 -21.33,-43.33 -32,-65 21.33,0 42.67,0 64,0 0,-21.33 0,-42.67 0,-64 32.33,-21.33 64.67,-42.67 97,-64 32.06,-10.71 64.16,-21.34 96.2,-32.1 21.6,-10.97 43.2,-21.93 64.8,-32.9 21.33,11 42.67,22 64,33 0,-32.33 0,-64.67 0,-97 32,10.67 64,21.33 96,32 0,21.67 0,43.33 0,65 11,21.33 22,42.67 33,64 10.67,-10.67 21.33,-21.33 32,-32 10.67,0 21.33,0 32,0 10.67,10.67 21.33,21.33 32,32 21.33,0 42.67,0 64,0 0,10.67 0,21.33 0,32 11,10.67 22,21.33 33,32 32,-32 64,-64 96,-96 10.67,-21.67 21.33,-43.33 32,-65 -10.67,-10.67 -21.33,-21.33 -32,-32 0,10.67 0,21.33 0,32 -10.67,0 -21.33,0 -32,0 -10.67,-10.67 -21.33,-21.33 -32,-32 -10.67,0 -21.33,0 -32,0 21.33,-21.33 42.67,-42.67 64,-64 10.67,10.67 21.33,21.33 32,32 21.33,-10.67 42.67,-21.33 64,-32 10.67,10.67 21.33,21.33 32,32 -10.67,32.33 -21.33,64.67 -32,97 0,10.67 0,21.33 0,32 21.67,-21.67 43.33,-43.33 65,-65 21.33,32.33 42.67,64.67 64,97 10.67,-21.33 21.33,-42.67 32,-64 10.67,10.67 21.33,21.33 32,32 32.33,-21.67 64.67,-43.33 97,-65 10.67,-32 21.33,-64 32,-96 10.67,32 21.33,64 32,96 0,11 0,22 0,33 0,-11 0,-22 0,-33 10.67,-10.67 21.33,-21.33 32,-32 21.33,0 42.67,0 64,0 21.67,-10.67 43.33,-21.33 65,-32 21.33,0 42.67,0 64,0 32.33,21.33 64.67,42.67 97,64 10.67,-10.67 21.33,-21.33 32,-32 -10.67,-21.33 -21.33,-42.67 -32,-64 0,-10.67 0,-21.33 0,-32 21.33,0 42.67,0 64,0 0,-10.67 0,-21.33 0,-32 32,10.67 64,21.33 96,32 10.67,10.67 21.33,21.33 32,32 0,32 0,64 0,96 -10.67,21.67 -21.33,43.33 -32,65 43,-43 86,-86 129,-129 -21.33,-10.67 -42.67,-21.33 -64,-32 10.67,-10.67 21.33,-21.33 32,-32 21.33,-10.67 42.67,-21.33 64,-32 10.67,10.67 21.33,21.33 32,32 -10.67,10.67 -21.33,21.33 -32,32 10.67,10.67 21.33,21.33 32,32 32.33,-10.67 64.67,-21.33 97,-32 21.33,21.33 42.67,42.67 64,64 10.67,-10.67 21.33,-21.33 32,-32 43,10.67 86,21.33 129,32 -10.67,10.67 -21.33,21.33 -32,32 15.26,15.67 30.33,31.53 45.9,46.9 6.03,6.03 12.07,12.07 18.1,18.1 10.67,0 21.33,0 32,0 10.67,10.67 21.33,21.33 32,32 10.67,0 21.33,0 32,0 0,-21.33 0,-42.67 0,-64 11,10.67 22,21.33 33,32 0,21.33 0,42.67 0,64 -21.67,10.67 -43.33,21.33 -65,32 10.67,0 21.33,0 32,0 11,-10.67 22,-21.33 33,-32 0,21.33 0,42.67 0,64 10.67,21.67 21.33,43.33 32,65 10.67,0 21.33,0 32,0 10.67,-11 21.33,-22 32,-33 10.67,32.33 21.33,64.67 32,97 21.33,10.67 42.67,21.33 64,32 0,-10.67 0,-21.33 0,-32 11,-10.67 22,-21.33 33,-32 10.67,32 21.33,64 32,96 10.67,0 21.33,0 32,0 0,-21.33 0,-42.67 0,-64 -10.67,0 -21.33,0 -32,0 0,-10.67 0,-21.33 0,-32 10.67,0 21.33,0 32,0 10.67,21.33 21.33,42.67 32,64 21.33,10.67 42.67,21.33 64,32 0,32.33 0,64.67 0,97 43,0 86,0 129,0 -21.33,21.33 -42.67,42.67 -64,64 10.67,21.33 21.33,42.67 32,64 10.67,0 21.33,0 32,0 21.33,-21.33 42.67,-42.67 64,-64 21.67,10.67 43.33,21.33 65,32 10.67,21.33 21.33,42.67 32,64 21.33,0 42.67,0 64,0 -21.33,21.67 -42.67,43.33 -64,65 10.67,0 21.33,0 32,0 10.67,10.67 21.33,21.33 32,32 10.67,-10.67 21.33,-21.33 32,-32 10.67,10.67 21.33,21.33 32,32 0,-10.67 0,-21.33 0,-32 10.67,0 21.33,0 32,0 0,10.67 0,21.33 0,32 11,0 22,0 33,0 0,21.33 0,42.67 0,64 21.33,-10.67 42.67,-21.33 64,-32 0,-21.33 0,-42.67 0,-64 10.67,0 21.33,0 32,0 0,21.33 0,42.67 0,64 -10.67,10.67 -21.33,21.33 -32,32 21.33,10.67 42.67,21.33 64,32 10.67,0 21.33,0 32,0 0,-10.67 0,-21.33 0,-32 0,10.67 0,21.33 0,32 11,0 22,0 33,0 10.67,21.67 21.33,43.33 32,65 0,-10.67 0,-21.33 0,-32 21.33,0 42.67,0 64,0 0,10.67 0,21.33 0,32 10.67,0 21.33,0 32,0 0,-21.67 0,-43.33 0,-65 21.33,32.33 42.67,64.67 64,97 21.67,10.67 43.33,21.33 65,32 10.67,-21.33 21.33,-42.67 32,-64 -10.67,0 -21.33,0 -32,0 32,0 64,0 96,0 -10.67,-10.67 -21.33,-21.33 -32,-32 0,-11 0,-22 0,-33 10.67,0 21.33,0 32,0 10.67,21.67 21.33,43.33 32,65 0,-10.67 0,-21.33 0,-32 11,10.67 22,21.33 33,32 10.67,-10.67 21.33,-21.33 32,-32 10.67,10.67 21.33,21.33 32,32 0,-10.67 0,-21.33 0,-32 10.67,0 21.33,0 32,0 10.67,-11 21.33,-22 32,-33 0,-10.67 0,-21.33 0,-32 0,10.67 0,21.33 0,32 -10.67,-21.33 -21.33,-42.67 -32,-64 10.67,0 21.33,0 32,0 10.67,-10.67 21.33,-21.33 32,-32 -10.67,0 -21.33,0 -32,0 10.67,-10.67 21.33,-21.33 32,-32 0,-10.67 0,-21.33 0,-32 10.67,10.67 21.33,21.33 32,32 21.67,-21.67 43.33,-43.33 65,-65 10.67,-21.33 21.33,-42.67 32,-64 32,0 64,0 96,0 0,21.33 0,42.67 0,64 11,-10.67 22,-21.33 33,-32 10.67,0 21.33,0 32,0 10.67,-10.67 21.33,-21.33 32,-32 0,10.67 0,21.33 0,32 0,-21.33 0,-42.67 0,-64 21.33,10.67 42.67,21.33 64,32 10.67,-21.33 21.33,-42.67 32,-64 0,10.67 0,21.33 0,32 10.67,10.67 21.33,21.33 32,32 0,-10.67 0,-21.33 0,-32 32.33,0 64.67,0 97,0 0,-10.67 0,-21.33 0,-32 10.67,0 21.33,0 32,0 0,-10.67 0,-21.33 0,-32 10.67,0 21.33,0 32,0 -10.67,-10.67 -21.33,-21.33 -32,-32 10.67,10.67 21.33,21.33 32,32 0,-10.67 0,-21.33 0,-32 10.67,0 21.33,0 32,0 0,-11 0,-22 0,-33 11,0 22,0 33,0 10.74,-10.7 21.4,-21.48 32.18,-32.12 31.94,-21.3 63.88,-42.59 95.82,-63.88 21.33,0 42.67,0 64,0 0,10.67 0,21.33 0,32 11,-10.67 22,-21.33 33,-32 -11,-10.67 -22,-21.33 -33,-32 21.67,0 43.33,0 65,0 0,-10.67 0,-21.33 0,-32 -10.67,0 -21.33,0 -32,0 10.67,0 21.33,0 32,0 -10.67,-11 -21.33,-22 -32,-33 0,-10.67 0,-21.33 0,-32 10.67,-10.67 21.33,-21.33 32,-32 10.67,0 21.33,0 32,0 10.67,10.67 21.33,21.33 32,32 0,-10.67 0,-21.33 0,-32 10.67,10.67 21.33,21.33 32,32 0,-10.67 0,-21.33 0,-32 10.67,-10.67 21.33,-21.33 32,-32 -10.67,0 -21.33,0 -32,0 21.67,0 43.33,0 65,0 0,-32 0,-64 0,-96 21.33,-11 42.67,-22 64,-33 10.67,-10.67 21.33,-21.33 32,-32 -10.67,-10.67 -21.33,-21.33 -32,-32 21.33,0 42.67,0 64,0 21.33,-10.67 42.67,-21.33 64,-32 11,-10.67 22,-21.33 33,-32 21.33,0 42.67,0 64,0 0,-10.67 0,-21.33 0,-32 21.33,0 42.67,0 64,0 10.67,-11 21.33,-22 32,-33 11,0 22,0 33,0 10.67,11 21.33,22 32,33 10.67,0 21.33,0 32,0 10.67,10.67 21.33,21.33 32,32 0,-10.67 0,-21.33 0,-32 10.67,0 21.33,0 32,0 0,10.67 0,21.33 0,32 10.67,-21.67 21.33,-43.33 32,-65 10.67,0 21.33,0 32,0 -10.67,0 -21.33,0 -32,0 10.67,-10.67 21.33,-21.33 32,-32 21.67,10.67 43.33,21.33 65,32 10.67,-10.67 21.33,-21.33 32,-32 10.67,21.67 21.33,43.33 32,65 10.67,0 21.33,0 32,0 0,-11 0,-22 0,-33 21.33,0 42.67,0 64,0 11,-10.67 22,-21.33 33,-32 0,21.67 0,43.33 0,65 21.33,21.33 42.67,42.67 64,64 10.67,-10.67 21.33,-21.33 32,-32 10.67,0 21.33,0 32,0 10.67,-21.67 21.33,-43.33 32,-65 11,0 22,0 33,0 10.67,21.67 21.33,43.33 32,65 32,0 64,0 96,0 0,-10.67 0,-21.33 0,-32 10.67,0 21.33,0 32,0 11,-11 22,-22 33,-33 10.67,0 21.33,0 32,0 0,-10.67 0,-21.33 0,-32 21.33,-21.33 42.67,-42.67 64,-64 10.67,0 21.33,0 32,0 0,10.67 0,21.33 0,32 21.33,0 42.67,0 64,0 -21.33,-10.67 -42.67,-21.33 -64,-32 450.33,0 900.67,0 1351,0 0,-10.67 0,-21.33 0,-32 21.33,0 42.67,0 64,0 0,-10.67 0,-21.33 0,-32 32,-21.67 64,-43.33 96,-65 11.21,11.5 22.3,23.12 33.59,34.54 10.47,10.15 20.94,20.31 31.41,30.46 0,10.67 0,21.33 0,32 10.67,0 21.33,0 32,0 0,10.67 0,21.33 0,32 21.33,0 42.67,0 64,0 0,-10.67 0,-21.33 0,-32 10.67,10.67 21.33,21.33 32,32 10.67,-10.67 21.33,-21.33 32,-32 0,32 0,64 0,96 -21.33,96.67 -42.67,193.33 -64,290 10.67,21.33 21.33,42.67 32,64 10.67,10.67 21.33,21.33 32,32 0,75 0,150 0,225 21.67,75 43.33,150 65,225 75,0 150,0 225,0 10.67,-10.67 21.33,-21.33 32,-32 10.67,10.67 21.33,21.33 32,32 -10.67,53.67 -21.33,107.33 -32,161 21.33,32.33 42.67,64.67 64,97 21.33,10.67 42.67,21.33 64,32 0,-10.67 0,-21.33 0,-32 11,-11 22,-22 33,-33 0,11 0,22 0,33 -11,21.33 -22,42.67 -33,64 -10.69,10.74 -21.5,21.39 -32.11,32.19 -42.69,75.07 -85.43,150.12 -128.09,225.2 -32.27,64.21 -64.53,128.41 -96.8,192.61 -10.67,53.67 -21.33,107.33 -32,161 -42.67,75 -85.33,150 -128,225 -11,42.67 -22,85.33 -33,128 0,32.33 0,64.67 0,97 -32,42.67 -64,85.33 -96,128 -21.37,53.73 -42.7,107.48 -64.1,161.2 -32.3,64.26 -64.6,128.53 -96.9,192.8 -10.67,32.33 -21.33,64.67 -32,97 -10.67,10.67 -21.33,21.33 -32,32 -21.33,64.33 -42.67,128.67 -64,193 -11,85.67 -22,171.33 -33,257 0,32 0,64 0,96 11,21.67 22,43.33 33,65 -11,32 -22,64 -33,96 11,53.67 22,107.33 33,161 21.33,21.33 42.67,42.67 64,64 21.33,10.67 42.67,21.33 64,32 0,-21.33 0,-42.67 0,-64 21.33,10.67 42.67,21.33 64,32 11,21.67 22,43.33 33,65 10.67,10.67 21.33,21.33 32,32 32,0 64,0 96,0 10.67,-21.67 21.33,-43.33 32,-65 0,11 0,22 0,33 21.67,0 43.33,0 65,0 -10.67,21.33 -21.33,42.67 -32,64 10.67,0 21.33,0 32,0 -10.67,0 -21.33,0 -32,0 -11,10.67 -22,21.33 -33,32 -10.67,43 -21.33,86 -32,129 -32,0 -64,0 -96,0 -10.67,10.67 -21.33,21.33 -32,32 -11.02,64.4 -22,128.82 -33.05,193.21 -10.65,42.6 -21.3,85.19 -31.95,127.79 10.67,21.67 21.33,43.33 32,65 -10.67,10.67 -21.33,21.33 -32,32 21.67,21.33 43.33,42.67 65,64 10.67,-10.67 21.33,-21.33 32,-32 -10.67,21.33 -21.33,42.67 -32,64 0,32.33 0,64.67 0,97 10.67,0 21.33,0 32,0 -10.67,10.67 -21.33,21.33 -32,32 10.67,10.67 21.33,21.33 32,32 -10.67,0 -21.33,0 -32,0 -11,10.67 -22,21.33 -33,32 21.67,32.33 43.33,64.67 65,97 21.33,10.67 42.67,21.33 64,32 10.67,0 21.33,0 32,0 0,-10.67 0,-21.33 0,-32 10.67,-11 21.33,-22 32,-33 11,11 22,22 33,33 0,-11 0,-22 0,-33 10.67,0 21.33,0 32,0 0,11 0,22 0,33 10.67,21.33 21.33,42.67 32,64 10.67,0 21.33,0 32,0 -10.67,10.67 -21.33,21.33 -32,32 10.67,10.67 21.33,21.33 32,32 -10.67,0 -21.33,0 -32,0 0,21.33 0,42.67 0,64 -10.67,11 -21.33,22 -32,33 -10.67,32 -21.33,64 -32,96 -11,10.67 -22,21.33 -33,32 11,21.67 22,43.33 33,65 -11,0 -22,0 -33,0 0,10.67 0,21.33 0,32 -10.67,10.67 -21.33,21.33 -32,32 0,-10.67 0,-21.33 0,-32 -10.67,0 -21.33,0 -32,0 0,21.33 0,42.67 0,64 10.67,32.33 21.33,64.67 32,97 34.41,34.09 68.89,68.1 103.25,102.25 19.25,19.25 38.5,38.5 57.75,57.75 32,0 64,0 96,0 21.67,-10.67 43.33,-21.33 65,-32 0,-10.67 0,-21.33 0,-32 10.67,-21.33 21.33,-42.67 32,-64 0,-10.67 0,-21.33 0,-32 10.67,-11 21.33,-22 32,-33 10.67,11 21.33,22 32,33 10.67,-21.67 21.33,-43.33 32,-65 10.67,10.67 21.33,21.33 32,32 -21.33,21.67 -42.67,43.33 -64,65 21.33,32 42.67,64 64,96 32.33,0 64.67,0 97,0 0,-21.33 0,-42.67 0,-64 10.67,21.33 21.33,42.67 32,64 10.67,-10.67 21.33,-21.33 32,-32 -10.67,21.33 -21.33,42.67 -32,64 -10.67,0 -21.33,0 -32,0 -15.32,15.38 -30.83,30.59 -45.84,46.27 -6.07,6.32 -12.28,12.54 -18.26,18.93 -10.97,21.26 -21.93,42.53 -32.9,63.8 11,32 22,64 33,96 32,0 64,0 96,0 -10.67,10.67 -21.33,21.33 -32,32 -10.67,0 -21.33,0 -32,0 -10.67,11 -21.33,22 -32,33 -11,0 -22,0 -33,0 -21.33,10.67 -42.67,21.33 -64,32 0,-10.67 0,-21.33 0,-32 21.33,-11 42.67,-22 64,-33 0,-10.67 0,-21.33 0,-32 -21.33,-21.33 -42.67,-42.67 -64,-64 -21.33,-10.67 -42.67,-21.33 -64,-32 -32.33,10.67 -64.67,21.33 -97,32 -10.67,10.67 -21.33,21.33 -32,32 -21.33,10.67 -42.67,21.33 -64,32 -21.33,21.67 -42.67,43.33 -64,65 0,-11 0,-22 0,-33 -21.67,21.67 -43.33,43.33 -65,65 -21.33,0 -42.67,0 -64,0 0,42.67 0,85.33 0,128 -10.67,11 -21.33,22 -32,33 0,32 0,64 0,96 29.61,59.61 59.06,119.29 88.89,178.79 2.37,4.73 4.74,9.47 7.11,14.21 21.67,10.67 43.33,21.33 65,32 0,-10.67 0,-21.33 0,-32 10.67,0 21.33,0 32,0 10.67,-10.67 21.33,-21.33 32,-32 10.67,0 21.33,0 32,0 0,10.67 0,21.33 0,32 10.67,0 21.33,0 32,0 0,-10.67 0,-21.33 0,-32 10.67,0 21.33,0 32,0 11,-10.67 22,-21.33 33,-32 0,42.67 0,85.33 0,128 10.67,10.67 21.33,21.33 32,32 21.33,0 42.67,0 64,0 -10.67,11 -21.33,22 -32,33 0,10.67 0,21.33 0,32 -10.67,0 -21.33,0 -32,0 0,21.33 0,42.67 0,64 10.67,21.33 21.33,42.67 32,64 -10.67,21.67 -21.33,43.33 -32,65 0,-11 0,-22 0,-33 -10.67,-10.67 -21.33,-21.33 -32,-32 0,-10.67 0,-21.33 0,-32 -21.67,0 -43.33,0 -65,0 -10.67,43 -21.33,86 -32,129 0,10.67 0,21.33 0,32 10.67,10.67 21.33,21.33 32,32 -21.33,0 -42.67,0 -64,0 0,10.67 0,21.33 0,32 10.67,0 21.33,0 32,0 -10.67,21.67 -21.33,43.33 -32,65 -10.67,0 -21.33,0 -32,0 -10.67,10.67 -21.33,21.33 -32,32 -10.67,0 -21.33,0 -32,0 -11,-10.67 -22,-21.33 -33,-32 -10.73,0 -21.5,-0.1 -32.21,0.1 -31.93,10.64 -63.86,21.29 -95.79,31.93 -11.49,22.9 -22.84,45.87 -34.43,68.71 -10.19,19.76 -20.38,39.53 -30.57,59.29 0,32.33 0,64.67 0,97 -10.67,10.67 -21.33,21.33 -32,32 21.67,53.67 43.33,107.33 65,161 0,21.33 0,42.67 0,64 32,21.33 64,42.67 96,64 -10.67,21.67 -21.33,43.33 -32,65 21.33,21.33 42.67,42.67 64,64 43,10.67 86,21.33 129,32 0,10.67 0,21.33 0,32 10.67,21.67 21.33,43.33 32,65 -10.67,10.67 -21.33,21.33 -32,32 10.67,0 21.33,0 32,0 -21.33,21.33 -42.67,42.67 -64,64 -21.67,0 -43.33,0 -65,0 0,-21.33 0,-42.67 0,-64 -32,0 -64,0 -96,0 -21.33,10.67 -42.67,21.33 -64,32 10.67,0 21.33,0 32,0 -10.67,21.33 -21.33,42.67 -32,64 0,21.67 0,43.33 0,65 -11,10.67 -22,21.33 -33,32 -10.67,-10.67 -21.33,-21.33 -32,-32 0,10.67 0,21.33 0,32 10.67,10.67 21.33,21.33 32,32 21.74,10.68 43.45,21.44 65.21,32.07 31.93,10.64 63.86,21.29 95.79,31.93 0,32.33 0,64.67 0,97 10.67,21.33 21.33,42.67 32,64 0,21.33 0,42.67 0,64 -10.67,21.33 -21.33,42.67 -32,64 11.12,22.51 22.12,45.08 33.32,67.55 10.56,20.48 21.12,40.97 31.68,61.45 -11,21.33 -22,42.67 -33,64 0,11 0,22 0,33 -10.67,10.67 -21.33,21.33 -32,32 21.67,21.33 43.33,42.67 65,64 -11,32 -22,64 -33,96 21.67,21.67 43.33,43.33 65,65 10.67,42.67 21.33,85.33 32,128 -10.67,11 -21.33,22 -32,33 0,-11 0,-22 0,-33 -10.67,0 -21.33,0 -32,0 -11,11 -22,22 -33,33 -10.67,21.33 -21.33,42.67 -32,64 10.67,21.33 21.33,42.67 32,64 11,10.67 22,21.33 33,32 0,-10.67 0,-21.33 0,-32 21.33,0 42.67,0 64,0 0,21.33 0,42.67 0,64 -10.67,21.67 -21.33,43.33 -32,65 -10.67,0 -21.33,0 -32,0 -11,21.33 -22,42.67 -33,64 -32,21.33 -64,42.67 -96,64 0,21.67 0,43.33 0,65 -10.67,10.67 -21.33,21.33 -32,32 0,10.67 0,21.33 0,32 10.67,10.67 21.33,21.33 32,32 -10.67,10.67 -21.33,21.33 -32,32 -10.67,32.33 -21.33,64.67 -32,97 0,32 0,64 0,96 21.33,21.67 42.67,43.33 64,65 10.67,-11 21.33,-22 32,-33 21.33,21.67 42.67,43.33 64,65 -10.67,10.67 -21.33,21.33 -32,32 0,-10.67 0,-21.33 0,-32 -10.67,10.67 -21.33,21.33 -32,32 0,42.67 0,85.33 0,128 -10.67,0 -21.33,0 -32,0 -10.67,21.67 -21.33,43.33 -32,65 -10.67,10.67 -21.33,21.33 -32,32 0,10.67 0,21.33 0,32 -11,21.33 -22,42.67 -33,64 0,10.67 0,21.33 0,32 11,0 22,0 33,0 -11,0 -22,0 -33,0 0,11 0,22 0,33 11,0 22,0 33,0 0,10.67 0,21.33 0,32 -11,0 -22,0 -33,0 -10.67,10.67 -21.33,21.33 -32,32 0,10.67 0,21.33 0,32 10.67,0 21.33,0 32,0 -21.33,21.33 -42.67,42.67 -64,64 0,11 0,22 0,33 -21.33,42.67 -42.67,85.33 -64,128 0,10.67 0,21.33 0,32 10.67,0 21.33,0 32,0 0,11 0,22 0,33 -10.67,10.67 -21.33,21.33 -32,32 0,42.67 0,85.33 0,128 21.33,10.67 42.67,21.33 64,32 0,-10.67 0,-21.33 0,-32 10.67,10.67 21.33,21.33 32,32 -53.33,32.33 -106.67,64.67 -160,97 -43,75 -86,150 -129,225 -10.67,43 -21.33,86 -32,129 10.67,10.67 21.33,21.33 32,32 10.67,0 21.33,0 32,0 -10.74,10.8 -21.6,21.49 -32.27,32.35 -32.31,42.68 -64.69,85.31 -96.97,128.02 -21.26,32.21 -42.51,64.42 -63.76,96.63 -10.67,43 -21.33,86 -32,129 0,10.67 0,21.33 0,32 10.67,0 21.33,0 32,0 -10.7,10.74 -21.48,21.4 -32.12,32.18 -21.3,31.94 -42.59,63.88 -63.88,95.82 -10.67,32.33 -21.33,64.67 -32,97 0,42.67 0,85.33 0,128 32,0 64,0 96,0 0,11 0,22 0,33 10.67,10.67 21.33,21.33 32,32 -10.67,0 -21.33,0 -32,0 -21.33,21.33 -42.67,42.67 -64,64 0,10.67 0,21.33 0,32 10.67,0 21.33,0 32,0 -10.67,21.33 -21.33,42.67 -32,64 -21.67,11 -43.33,22 -65,33 -21.33,21.33 -42.67,42.67 -64,64 10.67,10.67 21.33,21.33 32,32 -10.67,10.67 -21.33,21.33 -32,32 -10.67,0 -21.33,0 -32,0 -32.33,21.67 -64.67,43.33 -97,65 0,21.33 0,42.67 0,64 11,10.67 22,21.33 33,32 -21.67,10.67 -43.33,21.33 -65,32 -10.67,-10.67 -21.33,-21.33 -32,-32 -10.67,10.67 -21.33,21.33 -32,32 -10.67,0 -21.33,0 -32,0 -21.48,10.7 -42.91,21.52 -64.41,32.16 -85.87,32.28 -171.73,64.56 -257.59,96.84 -139.33,75 -278.67,150 -418,225 -128.86,85.78 -257.69,171.6 -386.56,257.35 -171.15,107.22 -342.29,214.43 -513.44,321.65 -160.67,128.33 -321.33,256.67 -482,385 -43,43 -86,86 -129,129 -21.33,10.67 -42.67,21.33 -64,32 -75.05,64.39 -150.13,128.75 -225.16,193.16 -75.04,75.06 -150.12,150.08 -225.14,225.16 -128.62,139.28 -257.22,278.57 -385.86,417.84 -10.79,10.85 -21.71,21.58 -32.42,32.51 -203.47,235.78 -406.95,471.55 -610.42,707.33 -107.33,150 -214.67,300 -322,450 -53.67,0 -107.33,0 -161,0 0,-10.67 0,-21.33 0,-32 21.67,-10.67 43.33,-21.33 65,-32 -10.67,0 -21.33,0 -32,0 0,-11 0,-22 0,-33 0,11 0,22 0,33 -11,-11 -22,-22 -33,-33 0,-10.67 0,-21.33 0,-32 -10.67,-10.67 -21.33,-21.33 -32,-32 -21.33,10.67 -42.67,21.33 -64,32 -10.67,0 -21.33,0 -32,0 -32.33,-21.33 -64.67,-42.67 -97,-64 -32,0 -64,0 -96,0 0,-10.67 0,-21.33 0,-32 -10.67,10.67 -21.33,21.33 -32,32 0,-10.67 0,-21.33 0,-32 -10.67,-10.67 -21.33,-21.33 -32,-32 -32.33,0 -64.67,0 -97,0 0,-11 0,-22 0,-33 10.67,-10.67 21.33,-21.33 32,-32 -21.33,-10.67 -42.67,-21.33 -64,-32 0,-10.67 0,-21.33 0,-32 10.67,0 21.33,0 32,0 -10.67,-10.67 -21.33,-21.33 -32,-32 -10.67,0 -21.33,0 -32,0 0,-10.67 0,-21.33 0,-32 -10.67,-21.67 -21.33,-43.33 -32,-65 -21.67,0 -43.33,0 -65,0 -32.06,-10.71 -64.16,-21.34 -96.2,-32.1 -21.27,-10.63 -42.53,-21.27 -63.8,-31.9 -21.67,0 -43.33,0 -65,0 -10.67,-10.67 -21.33,-21.33 -32,-32 -21.33,0 -42.67,0 -64,0 0,-10.67 0,-21.33 0,-32 -21.33,0 -42.67,0 -64,0 -11,10.67 -22,21.33 -33,32 -10.67,21.33 -21.33,42.67 -32,64 -22.9,11.49 -45.87,22.84 -68.71,34.43 -19.76,10.19 -39.53,20.38 -59.29,30.57 -10.67,-11 -21.33,-22 -32,-33 -43,21.67 -86,43.33 -129,65 -10.67,10.67 -21.33,21.33 -32,32 -32.33,0 -64.67,0 -97,0 0,10.67 0,21.33 0,32 -10.73,0 -21.5,-0.1 -32.21,0.1 -31.93,10.64 -63.86,21.29 -95.79,31.93 -43,0 -86,0 -129,0 10.67,43 21.33,86 32,129 10.67,0 21.33,0 32,0 23.58,23.27 47.27,46.43 70.78,69.78 19.41,19.41 38.81,38.81 58.22,58.22 21.33,0 42.67,0 64,0 43,64.33 86,128.67 129,193 -21.33,-10.67 -42.67,-21.33 -64,-32 -21.67,0 -43.33,0 -65,0 10.67,-10.67 21.33,-21.33 32,-32 0,-10.67 0,-21.33 0,-32 -32,0 -64,0 -96,0 10.67,-10.67 21.33,-21.33 32,-32 -21.33,0 -42.67,0 -64,0 0,-10.67 0,-21.33 0,-32 -10.67,-11 -21.33,-22 -32,-33 -21.67,0 -43.33,0 -65,0 -10.67,-10.67 -21.33,-21.33 -32,-32 10.67,0 21.33,0 32,0 -21.33,-10.67 -42.67,-21.33 -64,-32 0,-10.67 0,-21.33 0,-32 -10.67,0 -21.33,0 -32,0 0,-10.67 0,-21.33 0,-32 -10.67,10.67 -21.33,21.33 -32,32 0,21.33 0,42.67 0,64 -10.67,0 -21.33,0 -32,0 0,-10.67 0,-21.33 0,-32 -11,-10.67 -22,-21.33 -33,-32 0,-10.67 0,-21.33 0,-32 -10.67,0 -21.33,0 -32,0 10.67,-10.67 21.33,-21.33 32,-32 0,-32.33 0,-64.67 0,-97 11,0 22,0 33,0 -21.67,0 -43.33,0 -65,0 0,-10.67 0,-21.33 0,-32 -21.33,0 -42.67,0 -64,0 32,-21.33 64,-42.67 96,-64 11,0 22,0 33,0 -11,-10.67 -22,-21.33 -33,-32 -10.67,0 -21.33,0 -32,0 10.67,-11 21.33,-22 32,-33 -10.67,0 -21.33,0 -32,0 32.33,-10.67 64.67,-21.33 97,-32 0,-10.67 0,-21.33 0,-32 -10.67,-10.67 -21.33,-21.33 -32,-32 -21.67,0 -43.33,0 -65,0 21.67,-21.33 43.33,-42.67 65,-64 0,10.67 0,21.33 0,32 21.33,0 42.67,0 64,0 -10.67,10.67 -21.33,21.33 -32,32 21.33,0 42.67,0 64,0 0,10.67 0,21.33 0,32 32,0 64,0 96,0 -10.67,21.33 -21.33,42.67 -32,64 -10.67,0 -21.33,0 -32,0 0,21.67 0,43.33 0,65 32.33,-21.67 64.67,-43.33 97,-65 -11,21.67 -22,43.33 -33,65 21.67,-10.67 43.33,-21.33 65,-32 -10.67,-11 -21.33,-22 -32,-33 10.67,-10.67 21.33,-21.33 32,-32 -10.67,10.67 -21.33,21.33 -32,32 0,-42.67 0,-85.33 0,-128 10.67,0 21.33,0 32,0 -10.67,0 -21.33,0 -32,0 0,-21.33 0,-42.67 0,-64 -11,0 -22,0 -33,0 0,-32.33 0,-64.67 0,-97 21.67,-10.67 43.33,-21.33 65,-32 21.33,0 42.67,0 64,0 -10.67,0 -21.33,0 -32,0 0,10.67 0,21.33 0,32 -21.33,10.67 -42.67,21.33 -64,32 0,10.67 0,21.33 0,32 21.33,0 42.67,0 64,0 -10.67,0 -21.33,0 -32,0 10.67,11 21.33,22 32,33 0,10.67 0,21.33 0,32 21.33,-21.67 42.67,-43.33 64,-65 0,21.67 0,43.33 0,65 10.67,-10.67 21.33,-21.33 32,-32 21.67,0 43.33,0 65,0 10.67,-11 21.33,-22 32,-33 10.67,11 21.33,22 32,33 21.33,0 42.67,0 64,0 -15.26,-15.67 -30.33,-31.53 -45.9,-46.9 -6.03,-6.03 -12.07,-12.07 -18.1,-18.1 10.67,-10.67 21.33,-21.33 32,-32 0,-10.67 0,-21.33 0,-32 21.67,0 43.33,0 65,0 0,-32.33 0,-64.67 0,-97 -11,-10.67 -22,-21.33 -33,-32 43,0 86,0 129,0 0,10.67 0,21.33 0,32 10.67,-10.67 21.33,-21.33 32,-32 -10.67,-21.33 -21.33,-42.67 -32,-64 43,0 86,0 129,0 -11,0 -22,0 -33,0 0,-21.33 0,-42.67 0,-64 11,-11 22,-22 33,-33 -11,0 -22,0 -33,0 0,-21.33 0,-42.67 0,-64 21.67,0 43.33,0 65,0 0,-10.67 0,-21.33 0,-32 -10.67,-10.67 -21.33,-21.33 -32,-32 21.33,0 42.67,0 64,0 -10.67,-10.67 -21.33,-21.33 -32,-32 21.33,0 42.67,0 64,0 0,-10.67 0,-21.33 0,-32 -10.67,0 -21.33,0 -32,0 -10.67,10.67 -21.33,21.33 -32,32 -21.67,0 -43.33,0 -65,0 -32,10.67 -64,21.33 -96,32 0,10.67 0,21.33 0,32 0,-10.67 0,-21.33 0,-32 -32,0 -64,0 -96,0 75,-32.33 150,-64.67 225,-97 0,-10.67 0,-21.33 0,-32 10.67,-10.67 21.33,-21.33 32,-32 0,-10.67 0,-21.33 0,-32 10.67,0 21.33,0 32,0 0,-10.67 0,-21.33 0,-32 10.67,0 21.33,0 32,0 0,-10.67 0,-21.33 0,-32 -10.73,0 -21.5,-0.1 -32.21,0.1 -32.26,10.64 -64.53,21.29 -96.79,31.93 21.67,-21.33 43.33,-42.67 65,-64 0,-21.67 0,-43.33 0,-65 10.67,-10.67 21.33,-21.33 32,-32 10.67,10.67 21.33,21.33 32,32 0,-32 0,-64 0,-96 10.67,10.67 21.33,21.33 32,32 21.33,-10.67 42.67,-21.33 64,-32 -21.33,-10.67 -42.67,-21.33 -64,-32 -10.67,-11 -21.33,-22 -32,-33 -21.33,-10.67 -42.67,-21.33 -64,-32 0,-32 0,-64 0,-96 10.67,0 21.33,0 32,0 0,-21.67 0,-43.33 0,-65 10.67,0 21.33,0 32,0 -32,0 -64,0 -96,0 -11,-10.67 -22,-21.33 -33,-32 21.67,-10.67 43.33,-21.33 65,-32 -10.67,-10.67 -21.33,-21.33 -32,-32 21.33,-10.67 42.67,-21.33 64,-32 0,-21.33 0,-42.67 0,-64 10.67,0 21.33,0 32,0 0,-11 0,-22 0,-33 10.67,0 21.33,0 32,0 0,-10.67 0,-21.33 0,-32 10.67,0 21.33,0 32,0 -21.33,0 -42.67,0 -64,0 -10.67,10.67 -21.33,21.33 -32,32 0,-21.33 0,-42.67 0,-64 -32.33,10.67 -64.67,21.33 -97,32 15.67,-15.26 31.53,-30.33 46.9,-45.9 6.03,-6.03 12.07,-12.07 18.1,-18.1 0,-10.67 0,-21.33 0,-32 10.67,0 21.33,0 32,0 0,-10.67 0,-21.33 0,-32 -21.33,10.67 -42.67,21.33 -64,32 10.67,-43 21.33,-86 32,-129 -10.67,0 -21.33,0 -32,0 0,-42.67 0,-85.33 0,-128 21.33,10.67 42.67,21.33 64,32 0,-21.67 0,-43.33 0,-65 -10.67,0 -21.33,0 -32,0 0,-21.33 0,-42.67 0,-64 -10.67,0 -21.33,0 -32,0 10.67,-10.67 21.33,-21.33 32,-32 0,-21.33 0,-42.67 0,-64 10.67,-10.67 21.33,-21.33 32,-32 0,10.67 0,21.33 0,32 0,-10.67 0,-21.33 0,-32 21.33,10.67 42.67,21.33 64,32 10.67,-10.67 21.33,-21.33 32,-32 0,-11 0,-22 0,-33 10.67,0 21.33,0 32,0 -21.33,-10.67 -42.67,-21.33 -64,-32 0,-21.33 0,-42.67 0,-64 10.67,-21.33 21.33,-42.67 32,-64 21.67,0 43.33,0 65,0 10.67,-11 21.33,-22 32,-33 0,11 0,22 0,33 10.67,10.67 21.33,21.33 32,32 10.67,0 21.33,0 32,0 10.67,-10.67 21.33,-21.33 32,-32 10.67,10.67 21.33,21.33 32,32 -21.33,32 -42.67,64 -64,96 10.67,0 21.33,0 32,0 0,10.67 0,21.33 0,32 21.67,-10.67 43.33,-21.33 65,-32 -11,-10.67 -22,-21.33 -33,-32 11,-21.33 22,-42.67 33,-64 0,-32.33 0,-64.67 0,-97 21.33,0 42.67,0 64,0 -10.67,0 -21.33,0 -32,0 32,0 64,0 96,0 0,21.67 0,43.33 0,65 10.67,0 21.33,0 32,0 0,-21.67 0,-43.33 0,-65 11,-10.67 22,-21.33 33,-32 21.33,0 42.67,0 64,0 -10.67,-10.67 -21.33,-21.33 -32,-32 -10.67,0 -21.33,0 -32,0 0,-21.33 0,-42.67 0,-64 -11,0 -22,0 -33,0 0,-10.67 0,-21.33 0,-32 11,0 22,0 33,0 10.67,-11 21.33,-22 32,-33 21.33,-10.67 42.67,-21.33 64,-32 -10.67,0 -21.33,0 -32,0 10.67,-10.67 21.33,-21.33 32,-32 -10.67,-10.67 -21.33,-21.33 -32,-32 21.33,-21.33 42.67,-42.67 64,-64 10.67,-21.67 21.33,-43.33 32,-65 10.67,0 21.33,0 32,0 11,-10.67 22,-21.33 33,-32 0,21.33 0,42.67 0,64 10.67,11 21.33,22 32,33 10.67,0 21.33,0 32,0 21.33,-21.67 42.67,-43.33 64,-65 0,21.67 0,43.33 0,65 43,-11 86,-22 129,-33 32,0 64,0 96,0 0,11 0,22 0,33 10.67,0 21.33,0 32,0 21.67,-21.67 43.33,-43.33 65,-65 -10.67,-21.33 -21.33,-42.67 -32,-64 -21.67,0 -43.33,0 -65,0 0,-53.67 0,-107.33 0,-161 -10.67,10.67 -21.33,21.33 -32,32 -10.67,-10.67 -21.33,-21.33 -32,-32 -10.67,-32 -21.33,-64 -32,-96 -21.67,-10.67 -43.33,-21.33 -65,-32 -10.67,0 -21.33,0 -32,0 10.67,-21.67 21.33,-43.33 32,-65 21.67,-21.33 43.33,-42.67 65,-64 -21.67,-21.33 -43.33,-42.67 -65,-64 11,-10.67 22,-21.33 33,-32 -11,0 -22,0 -33,0 0,-11 0,-22 0,-33 -32,11 -64,22 -96,33 -10.67,-11 -21.33,-22 -32,-33 10.67,-10.67 21.33,-21.33 32,-32 0,-42.67 0,-85.33 0,-128 -10.67,0 -21.33,0 -32,0 0,10.67 0,21.33 0,32 -21.33,10.67 -42.67,21.33 -64,32 10.67,0 21.33,0 32,0 -10.67,21.33 -21.33,42.67 -32,64 10.67,10.67 21.33,21.33 32,32 -10.67,11 -21.33,22 -32,33 -21.67,-21.67 -43.33,-43.33 -65,-65 -10.67,0 -21.33,0 -32,0 -10.67,-32 -21.33,-64 -32,-96 -10.67,0 -21.33,0 -32,0 0,21.33 0,42.67 0,64 10.67,10.67 21.33,21.33 32,32 -21.33,-10.67 -42.67,-21.33 -64,-32 -21.67,32.33 -43.33,64.67 -65,97 -10.67,-11 -21.33,-22 -32,-33 10.67,-10.67 21.33,-21.33 32,-32 -42.67,0 -85.33,0 -128,0 0,-42.67 0,-85.33 0,-128 -21.67,-11 -43.33,-22 -65,-33 32.33,-10.67 64.67,-21.33 97,-32 10.67,0 21.33,0 32,0 -10.67,0 -21.33,0 -32,0 -21.33,-10.67 -42.67,-21.33 -64,-32 -11,10.67 -22,21.33 -33,32 -21.33,-10.67 -42.67,-21.33 -64,-32 0,10.67 0,21.33 0,32 10.67,21.67 21.33,43.33 32,65 -10.67,0 -21.33,0 -32,0 -10.67,10.67 -21.33,21.33 -32,32 -10.67,0 -21.33,0 -32,0 -32.33,-21.67 -64.67,-43.33 -97,-65 -10.67,0 -21.33,0 -32,0 -10.67,11 -21.33,22 -32,33 21.33,21.33 42.67,42.67 64,64 -21.33,10.67 -42.67,21.33 -64,32 -16.18,-32.4 -32.48,-64.75 -48.39,-97.29 -5.2,-10.57 -10.41,-21.14 -15.61,-31.71 -21.67,0 -43.33,0 -65,0 -10.67,-21.33 -21.33,-42.67 -32,-64 -10.67,0 -21.33,0 -32,0 -10.67,10.67 -21.33,21.33 -32,32 0,10.67 0,21.33 0,32 -21.33,11 -42.67,22 -64,33 -21.67,-11 -43.33,-22 -65,-33 -10.67,11 -21.33,22 -32,33 -10.67,21.33 -21.33,42.67 -32,64 -10.67,10.67 -21.33,21.33 -32,32 -53.67,0 -107.33,0 -161,0 -21.33,-10.67 -42.67,-21.33 -64,-32 -21.67,21.33 -43.33,42.67 -65,64 -21.33,-21.33 -42.67,-42.67 -64,-64 -21.33,0 -42.67,0 -64,0 0,-10.67 0,-21.33 0,-32 10.67,-21.67 21.33,-43.33 32,-65 10.67,-10.67 21.33,-21.33 32,-32 0,-10.67 0,-21.33 0,-32 -21.33,-10.67 -42.67,-21.33 -64,-32 0,-10.67 0,-21.33 0,-32 -10.67,10.67 -21.33,21.33 -32,32 0,10.67 0,21.33 0,32 -21.67,10.67 -43.33,21.33 -65,32 -10.67,21.67 -21.33,43.33 -32,65 -10.67,0 -21.33,0 -32,0 21.36,32.07 42.78,64.11 64.1,96.2 10.97,21.26 21.93,42.53 32.9,63.8 -32.33,11 -64.67,22 -97,33 -10.67,-11 -21.33,-22 -32,-33 0,-32 0,-64 0,-96 -21.33,-32.33 -42.67,-64.67 -64,-97 -21.67,0 -43.33,0 -65,0 -10.67,-10.67 -21.33,-21.33 -32,-32 -10.67,0 -21.33,0 -32,0 -23.27,23.58 -46.43,47.27 -69.78,70.78 -8.74,8.74 -17.48,17.48 -26.22,26.22 -11,-10.67 -22,-21.33 -33,-32 -21.33,-43 -42.67,-86 -64,-129 0,-10.67 0,-21.33 0,-32 -32,21.33 -64,42.67 -96,64 10.67,10.67 21.33,21.33 32,32 10.67,0 21.33,0 32,0 0,10.67 0,21.33 0,32 -32.33,11 -64.67,22 -97,33 -21.33,-11 -42.67,-22 -64,-33 -10.67,0 -21.33,0 -32,0 0,-10.67 0,-21.33 0,-32 -10.67,-10.67 -21.33,-21.33 -32,-32 -21.33,-10.67 -42.67,-21.33 -64,-32 -21.67,0 -43.33,0 -65,0 -10.67,10.67 -21.33,21.33 -32,32 -10.67,0 -21.33,0 -32,0 10.67,32.33 21.33,64.67 32,97 -10.67,0 -21.33,0 -32,0 -10.67,10.67 -21.33,21.33 -32,32 0,-64.33 0,-128.67 0,-193 -10.67,-10.67 -21.33,-21.33 -32,-32 -10.67,0 -21.33,0 -32,0 -11,10.67 -22,21.33 -33,32 -10.67,32 -21.33,64 -32,96 -21.33,0 -42.67,0 -64,0 -10.67,-21.33 -21.33,-42.67 -32,-64 -64.33,0 -128.67,0 -193,0 -18.2,-18.23 -36.41,-36.46 -54.82,-54.47 -14.06,-13.84 -28.12,-27.69 -42.18,-41.53 -64.33,0 -128.67,0 -193,0 -32,-11 -64,-22 -96,-33 -21.33,0 -42.67,0 -64,0 0,32.33 0,64.67 0,97 -21.67,0 -43.33,0 -65,0 -10.67,-10.67 -21.33,-21.33 -32,-32 -21.33,-10.67 -42.67,-21.33 -64,-32 -21.33,-32.33 -42.67,-64.67 -64,-97 -21.67,-21.33 -43.33,-42.67 -65,-64 -10.67,0 -21.33,0 -32,0 -21.33,21.33 -42.67,42.67 -64,64 -21.33,0 -42.67,0 -64,0 -11,-21.33 -22,-42.67 -33,-64 11,-21.67 22,-43.33 33,-65 -32.33,-32 -64.67,-64 -97,-96 -32,-10.67 -64,-21.33 -96,-32 10.67,-32.33 21.33,-64.67 32,-97 -21.67,-32 -43.33,-64 -65,-96 -10.67,-10.67 -21.33,-21.33 -32,-32 -21.33,-10.67 -42.67,-21.33 -64,-32 0,-32.33 0,-64.67 0,-97 -32,0 -64,0 -96,0 -53.67,-32 -107.33,-64 -161,-96 -10.67,0 -21.33,0 -32,0 0,-64.33 0,-128.67 0,-193 -10.67,-10.67 -21.33,-21.33 -32,-32 0,-10.67 0,-21.33 0,-32 -11,-11 -22,-22 -33,-33 -10.67,21.67 -21.33,43.33 -32,65 -21.33,-10.67 -42.67,-21.33 -64,-32 0,-11 0,-22 0,-33 10.67,-21.33 21.33,-42.67 32,-64 -10.67,-32 -21.33,-64 -32,-96 10.67,-21.67 21.33,-43.33 32,-65 -10.67,0 -21.33,0 -32,0 0,-10.67 0,-21.33 0,-32 -43,10.67 -86,21.33 -129,32 0,-10.67 0,-21.33 0,-32 -21.33,-32 -42.67,-64 -64,-96 -10.67,0 -21.33,0 -32,0 -32.33,32 -64.67,64 -97,96 -21.33,0 -42.67,0 -64,0 -10.67,-10.67 -21.33,-21.33 -32,-32 10.67,-32.33 21.33,-64.67 32,-97 -10.67,-21.33 -21.33,-42.67 -32,-64 -10.67,-10.67 -21.33,-21.33 -32,-32 -32.33,-10.67 -64.67,-21.33 -97,-32 10.67,-10.67 21.33,-21.33 32,-32 21.67,-10.67 43.33,-21.33 65,-32 10.67,-21.67 21.33,-43.33 32,-65 0,-42.67 0,-85.33 0,-128 -21.33,-21.67 -42.67,-43.33 -64,-65 -53.67,-10.67 -107.33,-21.33 -161,-32 10.67,-10.67 21.33,-21.33 32,-32 -21.33,-21.33 -42.67,-42.67 -64,-64 10.67,-21.67 21.33,-43.33 32,-65 -10.67,-10.67 -21.33,-21.33 -32,-32 -21.67,0 -43.33,0 -65,0 -42.67,-21.33 -85.33,-42.67 -128,-64 -10.67,-21.33 -21.33,-42.67 -32,-64 -11,-10.67 -22,-21.33 -33,-32 -10.67,10.67 -21.33,21.33 -32,32 -10.67,32 -21.33,64 -32,96 -21.33,0 -42.67,0 -64,0 0,-10.67 0,-21.33 0,-32 -10.67,-10.67 -21.33,-21.33 -32,-32 0,-43 0,-86 0,-129 -32.33,-21.33 -64.67,-42.67 -97,-64 -21.33,-21.33 -42.67,-42.67 -64,-64 0,-53.67 0,-107.33 0,-161 -32.33,0 -64.67,0 -97,0 -10.67,-10.67 -21.33,-21.33 -32,-32 10.67,-32.33 21.33,-64.67 32,-97 -10.67,-10.67 -21.33,-21.33 -32,-32 -21.33,-10.67 -42.67,-21.33 -64,-32 -10.73,0 -21.5,-0.1 -32.21,0.1 -32.26,10.64 -64.53,21.29 -96.79,31.93 -10.67,0 -21.33,0 -32,0 -0.1,-10.73 0.1,-21.5 -0.1,-32.21 -10.64,-32.26 -21.29,-64.53 -31.93,-96.79 0,-10.67 0,-21.33 0,-32 -32,0 -64,0 -96,0 -32.33,-21.33 -64.67,-42.67 -97,-64 -21.33,-21.33 -42.67,-42.67 -64,-64 -32.33,0 -64.67,0 -97,0 -21.33,-10.67 -42.67,-21.33 -64,-32 -21.33,21.33 -42.67,42.67 -64,64 -10.67,-10.67 -21.33,-21.33 -32,-32 -11,-21.67 -22,-43.33 -33,-65 -32,-21.33 -64,-42.67 -96,-64 0,-21.33 0,-42.67 0,-64 -10.67,-21.67 -21.33,-43.33 -32,-65 -21.33,11 -42.67,22 -64,33 -32.33,-11 -64.67,-22 -97,-33 0,-21.33 0,-42.67 0,-64 10.67,-10.67 21.33,-21.33 32,-32 -10.67,-10.67 -21.33,-21.33 -32,-32 0,-32.33 0,-64.67 0,-97 -10.67,0 -21.33,0 -32,0 -21.33,-10.67 -42.67,-21.33 -64,-32 -32.33,21.67 -64.67,43.33 -97,65 -21.33,-21.67 -42.67,-43.33 -64,-65 -21.33,-10.67 -42.67,-21.33 -64,-32 10.67,-42.67 21.33,-85.33 32,-128 0,-11 0,-22 0,-33 -21.67,-10.67 -43.33,-21.33 -65,-32 -21.33,10.67 -42.67,21.33 -64,32 -15.26,15.67 -30.33,31.53 -45.9,46.9 -6.05,6.11 -12.25,12.12 -18.2,18.3 -10.63,21.27 -21.27,42.53 -31.9,63.8 -21.67,0 -43.33,0 -65,0 0,-32 0,-64 0,-96 -32,-32.33 -64,-64.67 -96,-97 0,-10.67 0,-21.33 0,-32 -10.67,0 -21.33,0 -32,0 -15.38,-15.32 -30.59,-30.83 -46.27,-45.84 -6.24,-6.05 -12.49,-12.11 -18.73,-18.16 0,-43 0,-86 0,-129 -10.67,0 -21.33,0 -32,0 -10.67,-21.33 -21.33,-42.67 -32,-64 -32,0 -64,0 -96,0 -43,10.67 -86,21.33 -129,32 -21.33,-10.67 -42.67,-21.33 -64,-32 0,10.67 0,21.33 0,32 -10.67,0 -21.33,0 -32,0 0,10.67 0,21.33 0,32 -11,21.33 -22,42.67 -33,64 -10.67,0 -21.33,0 -32,0 -10.67,-10.67 -21.33,-21.33 -32,-32 -10.67,-21.33 -21.33,-42.67 -32,-64 10.67,-43 21.33,-86 32,-129 0,-21.33 0,-42.67 0,-64 -32,0 -64,0 -96,0 -21.67,32 -43.33,64 -65,96 -21.33,0 -42.67,0 -64,0 -10.67,-10.67 -21.33,-21.33 -32,-32 21.33,-64.33 42.67,-128.67 64,-193 -10.67,0 -21.33,0 -32,0 0,-10.67 0,-21.33 0,-32 -32,0 -64,0 -96,0 0,32.33 0,64.67 0,97 -11,10.67 -22,21.33 -33,32 -32,0 -64,0 -96,0 -10.67,-21.67 -21.33,-43.33 -32,-65 10.67,-21.33 21.33,-42.67 32,-64 0,-10.67 0,-21.33 0,-32 -21.33,-10.67 -42.67,-21.33 -64,-32 -21.67,0 -43.33,0 -65,0 -10.67,10.67 -21.33,21.33 -32,32 -10.67,32 -21.33,64 -32,96 -10.67,11 -21.33,22 -32,33 -10.67,0 -21.33,0 -32,0 -21.67,-21.67 -43.33,-43.33 -65,-65 -21.33,-10.67 -42.67,-21.33 -64,-32 0,-10.67 0,-21.33 0,-32 -53.67,10.67 -107.33,21.33 -161,32 -21.33,0 -42.67,0 -64,0 0,21.33 0,42.67 0,64 21.33,21.67 42.67,43.33 64,65 0,21.33 0,42.67 0,64 -21.33,0 -42.67,0 -64,0 -32,-32 -64,-64 -96,-96 -32.76,16.15 -65.57,32.17 -98.19,48.6 -10.27,5.13 -20.54,10.27 -30.81,15.4 -10.67,-10.67 -21.33,-21.33 -32,-32 21.33,-53.67 42.67,-107.33 64,-161 0,-10.67 0,-21.33 0,-32 -53.67,0 -107.33,0 -161,0 0,10.67 0,21.33 0,32 -10.67,10.67 -21.33,21.33 -32,32 10.67,32.33 21.33,64.67 32,97 0,10.67 0,21.33 0,32 -21.33,0 -42.67,0 -64,0 -21.33,-32.33 -42.67,-64.67 -64,-97 0,-53.33 0,-106.67 0,-160 -10.67,-11 -21.33,-22 -32,-33 -11,0 -22,0 -33,0 -22.92,11.77 -45.77,23.69 -68.74,35.37 -19.75,9.88 -39.51,19.75 -59.26,29.63 -21.33,0 -42.67,0 -64,0 -11,-10.67 -22,-21.33 -33,-32 43,-32.33 86,-64.67 129,-97 0,-21.33 0,-42.67 0,-64 -32,-32.33 -64,-64.67 -96,-97 -53.67,0 -107.33,0 -161,0 -21.67,-10.67 -43.33,-21.33 -65,-32 0,-21.33 0,-42.67 0,-64 86,0 172,0 258,0 0,-21.67 0,-43.33 0,-65 -21.67,-10.67 -43.33,-21.33 -65,-32 -32,0 -64,0 -96,0 -21.33,10.67 -42.67,21.33 -64,32 -11,-10.67 -22,-21.33 -33,-32 -21.33,-10.67 -42.67,-21.33 -64,-32 0,-10.67 0,-21.33 0,-32 -10.67,-10.67 -21.33,-21.33 -32,-32 21.33,-10.67 42.67,-21.33 64,-32 0,-21.67 0,-43.33 0,-65 -10.67,0 -21.33,0 -32,0 -32,21.67 -64,43.33 -96,65 -21.67,0 -43.33,0 -65,0 -32,-10.67 -64,-21.33 -96,-32 -21.33,10.67 -42.67,21.33 -64,32 -21.67,0 -43.33,0 -65,0 -10.67,-10.67 -21.33,-21.33 -32,-32 0,-53.67 0,-107.33 0,-161 -21.33,-10.67 -42.67,-21.33 -64,-32 -10.67,10.67 -21.33,21.33 -32,32 -21.67,0 -43.33,0 -65,0 -21.33,10.67 -42.67,21.33 -64,32 -21.33,0 -42.67,0 -64,0 10.67,-53.67 21.33,-107.33 32,-161 -10.67,-10.67 -21.33,-21.33 -32,-32 -10.67,0 -21.33,0 -32,0 -11.81,11.52 -23.77,22.9 -35.48,34.52 -20.51,20.83 -41.01,41.65 -61.52,62.48 -10.71,32.06 -21.34,64.16 -32.1,96.2 -10.63,21.27 -21.27,42.53 -31.9,63.8 -10.67,10.67 -21.33,21.33 -32,32 -11,0 -22,0 -33,0 0,-10.67 0,-21.33 0,-32 -10.67,0 -21.33,0 -32,0 -21.33,-32 -42.67,-64 -64,-96 -10.74,0 -21.49,0.1 -32.21,0 -42.93,-10.65 -85.86,-21.3 -128.79,-31.95 0,-10.67 0,-21.33 0,-32 21.67,-21.67 43.33,-43.33 65,-65 32,-10.67 64,-21.33 96,-32 10.67,-10.67 21.33,-21.33 32,-32 -32,-21.33 -64,-42.67 -96,-64 -10.67,10.67 -21.33,21.33 -32,32 -64.33,0 -128.67,0 -193,0 0,32 0,64 0,96 16.15,32.76 32.17,65.57 48.6,98.19 5.13,10.27 10.27,20.54 15.4,30.81 -10.67,10.67 -21.33,21.33 -32,32 0,10.67 0,21.33 0,32 -10.67,0 -21.33,0 -32,0 -21.67,-21.33 -43.33,-42.67 -65,-64 -21.33,-10.67 -42.67,-21.33 -64,-32 -21.33,-21.67 -42.67,-43.33 -64,-65 -10.67,0 -21.33,0 -32,0 -21.67,21.67 -43.33,43.33 -65,65 -21.33,10.67 -42.67,21.33 -64,32 -10.67,-32.33 -21.33,-64.67 -32,-97 10.67,-42.67 21.33,-85.33 32,-128 -10.67,0 -21.33,0 -32,0 0,-10.67 0,-21.33 0,-32 -21.67,0 -43.33,0 -65,0 0,10.74 -0.1,21.49 0.1,32.21 10.98,42.6 21.96,85.19 32.94,127.79 -11,11 -22,22 -33,33 -10.67,0 -21.33,0 -32,0 -15.26,-15.67 -30.33,-31.53 -45.9,-46.9 -38.03,-38.03 -76.07,-76.07 -114.1,-114.1 0,-32.33 0,-64.67 0,-97 10.67,-32 21.33,-64 32,-96 0,-10.67 0,-21.33 0,-32 -21.67,0 -43.33,0 -65,0 -53.33,32 -106.67,64 -160,96 0,53.67 0,107.33 0,161 -32.33,0 -64.67,0 -97,0 -53.67,-10.67 -107.33,-21.33 -161,-32 -21.33,-32.33 -42.67,-64.67 -64,-97 -21.33,10.67 -42.67,21.33 -64,32 -43,0 -86,0 -129,0 -10.67,11 -21.33,22 -32,33 -32,10.67 -64,21.33 -96,32 -11,10.67 -22,21.33 -33,32 -10.67,0 -21.33,0 -32,0 -21.33,-10.67 -42.67,-21.33 -64,-32 -21.33,-32.33 -42.67,-64.67 -64,-97 -21.67,0 -43.33,0 -65,0 -10.67,10.67 -21.33,21.33 -32,32 0,32.33 0,64.67 0,97 -21.33,21.33 -42.67,42.67 -64,64 -10.67,0 -21.33,0 -32,0 -10.67,-10.67 -21.33,-21.33 -32,-32 -0.1,-10.73 0.1,-21.5 -0.1,-32.21 -10.69,-32.32 -21.29,-64.68 -32.03,-96.99 -10.97,-21.26 -21.93,-42.53 -32.9,-63.8 -10.67,0 -21.33,0 -32,0 -18.23,18.2 -36.46,36.41 -54.47,54.82 -21.29,21.61 -42.5,43.3 -64.02,64.67 -3.17,3.17 -6.34,6.34 -9.51,9.51 0,-10.67 0,-21.33 0,-32 -21.67,-11 -43.33,-22 -65,-33 0.1,-10.73 -0.1,-21.5 0.1,-32.21 10.64,-31.93 21.29,-63.86 31.93,-95.79 0,-10.67 0,-21.33 0,-32 -10.67,0 -21.33,0 -32,0 0,-11 0,-22 0,-33 -32,0 -64,0 -96,0 -10.67,-10.67 -21.33,-21.33 -32,-32 -43,0 -86,0 -129,0 -21.33,10.67 -42.67,21.33 -64,32 -21.67,0 -43.33,0 -65,0 0,-53.33 0,-106.67 0,-160 -10.67,-10.67 -21.33,-21.33 -32,-32 -10.67,0 -21.33,0 -32,0 -42.67,21.33 -85.33,42.67 -128,64 0,10.67 0,21.33 0,32 -21.74,10.68 -43.45,21.44 -65.21,32.07 -31.93,10.64 -63.86,21.29 -95.79,31.93 -10.67,0 -21.33,0 -32,0 -11,-10.67 -22,-21.33 -33,-32 0,-42.67 0,-85.33 0,-128 -32,-11 -64,-22 -96,-33 -10.67,0 -21.33,0 -32,0 -10.67,32.33 -21.33,64.67 -32,97 0,53.67 0,107.33 0,161 -10.67,10.67 -21.33,21.33 -32,32 -21.67,-10.67 -43.33,-21.33 -65,-32 -10.67,-11 -21.33,-22 -32,-33 -10.67,0 -21.33,0 -32,0 0,-32 0,-64 0,-96 10.7,-10.74 21.48,-21.4 32.12,-32.18 21.29,-32.28 42.59,-64.55 63.88,-96.82 0,-21.33 0,-42.67 0,-64 -10.67,0 -21.33,0 -32,0 -10.67,-21.33 -21.33,-42.67 -32,-64 -10.67,0 -21.33,0 -32,0 -43,32 -86,64 -129,96 -10.67,0 -21.33,0 -32,0 -10.67,-10.67 -21.33,-21.33 -32,-32 0,-32 0,-64 0,-96 32,-43 64,-86 96,-129 11,-21.33 22,-42.67 33,-64 -11,-10.67 -22,-21.33 -33,-32 -53.33,0 -106.67,0 -160,0 -32.33,32 -64.67,64 -97,96 0,21.33 0,42.67 0,64 10.67,32.33 21.33,64.67 32,97 0,32 0,64 0,96 -68.04,22.89 -136.05,45.87 -204.11,68.7 -28.29,9.43 -56.59,18.87 -84.89,28.3 -10.67,0 -21.33,0 -32,0 0,-10.67 0,-21.33 0,-32 -21.33,-43 -42.67,-86 -64,-129 -11,-10.67 -22,-21.33 -33,-32 -10.67,10.67 -21.33,21.33 -32,32 -10.67,0 -21.33,0 -32,0 0,10.74 0.1,21.49 0,32.22 -10.66,53.59 -21.31,107.19 -31.96,160.78 -10.67,10.67 -21.33,21.33 -32,32 -21.67,0 -43.33,0 -65,0 -53.33,-32 -106.67,-64 -160,-96 -10.67,0 -21.33,0 -32,0 -36.27,17.84 -72.55,35.67 -108.71,53.74 -49.76,24.75 -99.53,49.51 -149.29,74.26 -21.33,32.33 -42.67,64.67 -64,97 -21.33,0 -42.67,0 -64,0 0,-32.33 0,-64.67 0,-97 32.03,-53.74 64.09,-107.45 96.1,-161.2 10.63,-21.27 21.27,-42.53 31.9,-63.8 0,-32 0,-64 0,-96 -10.67,0 -21.33,0 -32,0 -10.67,-10.67 -21.33,-21.33 -32,-32 0,-11 0,-22 0,-33 -64.33,0 -128.67,0 -193,0 -10.67,-10.67 -21.33,-21.33 -32,-32 -10.67,-21.33 -21.33,-42.67 -32,-64 -10.67,-10.67 -21.33,-21.33 -32,-32 -11,10.67 -22,21.33 -33,32 -10.67,0 -21.33,0 -32,0 -21.33,21.33 -42.67,42.67 -64,64 -10.71,32.4 -21.34,64.82 -32.1,97.2 -10.63,21.27 -21.27,42.53 -31.9,63.8 -75,21.33 -150,42.67 -225,64 -21.67,-10.67 -43.33,-21.33 -65,-32 -10.67,-21.33 -21.33,-42.67 -32,-64 -42.67,0 -85.33,0 -128,0 0,42.67 0,85.33 0,128 21.33,21.67 42.67,43.33 64,65 0,42.67 0,85.33 0,128 -32.33,0 -64.67,0 -97,0 -21.33,-10.67 -42.67,-21.33 -64,-32 -32,-32 -64,-64 -96,-96 -32.33,0 -64.67,0 -97,0 -42.67,21.33 -85.33,42.67 -128,64 -43,0 -86,0 -129,0 -21.33,53.67 -42.67,107.33 -64,161 -11,0 -22,0 -33,0 -10.67,-10.67 -21.33,-21.33 -32,-32 0,-53.67 0,-107.33 0,-161 -10.67,-10.67 -21.33,-21.33 -32,-32 0,-10.67 0,-21.33 0,-32 -21.33,-11 -42.67,-22 -64,-33 -32.33,0 -64.67,0 -97,0 -10.67,11 -21.33,22 -32,33 -21.33,10.67 -42.67,21.33 -64,32 -10.67,10.67 -21.33,21.33 -32,32 -10.67,0 -21.33,0 -32,0 -21.67,10.67 -43.33,21.33 -65,32 -21.33,0 -42.67,0 -64,0 -21.33,-53.67 -42.67,-107.33 -64,-161 -21.67,-10.67 -43.33,-21.33 -65,-32 -42.71,32.39 -85.48,64.73 -128.16,97.16 -10.61,10.61 -21.23,21.23 -31.84,31.84 -21.67,0 -43.33,0 -65,0 -10.67,-10.67 -21.33,-21.33 -32,-32 z m 24919,1607 c 0,-10.67 0,-21.33 0,-32 0,10.67 0,21.33 0,32 z m 0,997 c 0,-10.67 0,-21.33 0,-32 10.67,0 21.33,0 32,0 -10.67,-10.67 -21.33,-21.33 -32,-32 0,-32.33 0,-64.67 0,-97 21.33,-32 42.67,-64 64,-96 21.67,-10.67 43.33,-21.33 65,-32 32,10.67 64,21.33 96,32 -10.67,-53.67 -21.33,-107.33 -32,-161 -10.67,-10.67 -21.33,-21.33 -32,-32 -10.67,10.67 -21.33,21.33 -32,32 -11,-10.67 -22,-21.33 -33,-32 0,-10.67 0,-21.33 0,-32 -21.33,-10.67 -42.67,-21.33 -64,-32 0,-11 0,-22 0,-33 21.33,-10.67 42.67,-21.33 64,-32 15.67,-15.26 31.53,-30.33 46.9,-45.9 6.03,-6.03 12.07,-12.07 18.1,-18.1 32,10.67 64,21.33 96,32 0,-10.67 0,-21.33 0,-32 -10.67,-10.67 -21.33,-21.33 -32,-32 15.32,-15.38 30.83,-30.59 45.84,-46.27 6.05,-6.24 12.11,-12.49 18.16,-18.73 -21.33,-10.67 -42.67,-21.33 -64,-32 -10.67,-10.67 -21.33,-21.33 -32,-32 10.67,-10.67 21.33,-21.33 32,-32 -10.67,-10.67 -21.33,-21.33 -32,-32 21.33,-10.67 42.67,-21.33 64,-32 0,-10.67 0,-21.33 0,-32 -15.26,-15.67 -30.33,-31.53 -45.9,-46.9 -16.7,-16.7 -33.4,-33.4 -50.1,-50.1 -10.67,0 -21.33,0 -32,0 0,-21.33 0,-42.67 0,-64 10.67,-10.67 21.33,-21.33 32,-32 10.67,0 21.33,0 32,0 0,-10.67 0,-21.33 0,-32 10.67,0 21.33,0 32,0 0,-21.67 0,-43.33 0,-65 -32,0 -64,0 -96,0 -11,10.67 -22,21.33 -33,32 11,-10.67 22,-21.33 33,-32 21.33,-10.67 42.67,-21.33 64,-32 10.67,-21.33 21.33,-42.67 32,-64 32,10.67 64,21.33 96,32 32.33,0 64.67,0 97,0 10.67,-10.67 21.33,-21.33 32,-32 43.07,-10.7 86.15,-21.34 129.21,-32.07 31.93,-10.98 63.86,-21.95 95.79,-32.93 0,-21.33 0,-42.67 0,-64 -10.67,-10.67 -21.33,-21.33 -32,-32 10.67,21.33 21.33,42.67 32,64 -10.67,-32 -21.33,-64 -32,-96 0,-10.67 0,-21.33 0,-32 10.67,10.67 21.33,21.33 32,32 21.67,-21.67 43.33,-43.33 65,-65 0,43 0,86 0,129 10.67,0 21.33,0 32,0 10.71,32.4 21.34,64.82 32.1,97.2 10.63,21.27 21.27,42.53 31.9,63.8 32,10.67 64,21.33 96,32 11,-21.33 22,-42.67 33,-64 10.67,10.67 21.33,21.33 32,32 0,10.67 0,21.33 0,32 -21.67,10.67 -43.33,21.33 -65,32 0,53.67 0,107.33 0,161 -32,10.67 -64,21.33 -96,32 -32.09,53.78 -64.12,107.6 -96.25,161.37 -21.58,31.87 -43.17,63.75 -64.75,95.63 0,53.67 0,107.33 0,161 10.67,-10.67 21.33,-21.33 32,-32 11,0 22,0 33,0 -11,21.33 -22,42.67 -33,64 0,10.67 0,21.33 0,32 -10.67,11 -21.33,22 -32,33 -10.67,21.33 -21.33,42.67 -32,64 0,10.67 0,21.33 0,32 -10.67,0 -21.33,0 -32,0 -10.67,10.67 -21.33,21.33 -32,32 0,10.67 0,21.33 0,32 -32.33,32.33 -64.67,64.67 -97,97 -10.67,21.33 -21.33,42.67 -32,64 -10.67,43 -21.33,86 -32,129 -32.33,42.67 -64.67,85.33 -97,128 0,10.67 0,21.33 0,32 -10.67,21.67 -21.33,43.33 -32,65 0,21.33 0,42.67 0,64 10.67,0 21.33,0 32,0 0,10.67 0,21.33 0,32 21.67,0 43.33,0 65,0 0,10.67 0,21.33 0,32 21.33,0 42.67,0 64,0 0,11 0,22 0,33 -10.67,0 -21.33,0 -32,0 -10.67,10.67 -21.33,21.33 -32,32 0,10.67 0,21.33 0,32 10.67,0 21.33,0 32,0 -10.67,10.67 -21.33,21.33 -32,32 -21.67,10.67 -43.33,21.33 -65,32 -10.67,-10.67 -21.33,-21.33 -32,-32 0,-10.67 0,-21.33 0,-32 -10.67,0 -21.33,0 -32,0 -21.33,10.67 -42.67,21.33 -64,32 -10.67,10.67 -21.33,21.33 -32,32 -10.67,43 -21.33,86 -32,129 0,10.67 0,21.33 0,32 -32.33,21.33 -64.67,42.67 -97,64 0,-10.67 0,-21.33 0,-32 -10.67,0 -21.33,0 -32,0 10.67,-21.33 21.33,-42.67 32,-64 10.67,-10.67 21.33,-21.33 32,-32 -21.33,-21.67 -42.67,-43.33 -64,-65 10.67,-10.67 21.33,-21.33 32,-32 -21.33,-21.33 -42.67,-42.67 -64,-64 0,-21.33 0,-42.67 0,-64 -10.67,-11 -21.33,-22 -32,-33 21.33,0 42.67,0 64,0 10.67,-21.33 21.33,-42.67 32,-64 10.67,-10.67 21.33,-21.33 32,-32 -10.67,-43 -21.33,-86 -32,-129 21.33,-32 42.67,-64 64,-96 -21.33,0 -42.67,0 -64,0 0,10.67 0,21.33 0,32 -10.67,0 -21.33,0 -32,0 z m 32,-1093 c -10.67,0 -21.33,0 -32,0 10.67,0 21.33,0 32,0 0,-10.67 0,-21.33 0,-32 0,21.33 0,42.67 0,64 0,-10.67 0,-21.33 0,-32 z"
         style="fill:#999999;fill-opacity:1;stroke:#ffffff;stroke-width:282.23678589;stroke-miterlimit:4;stroke-dasharray:none;stroke-opacity:1" />
    </g>
  </g>
</svg>
