<?xml version="1.0" encoding="UTF-8" standalone="no"?>
<!-- Created with Inkscape (http://www.inkscape.org/) -->

<svg
   xmlns:dc="http://purl.org/dc/elements/1.1/"
   xmlns:cc="http://creativecommons.org/ns#"
   xmlns:rdf="http://www.w3.org/1999/02/22-rdf-syntax-ns#"
   xmlns:svg="http://www.w3.org/2000/svg"
   xmlns="http://www.w3.org/2000/svg"
   xmlns:sodipodi="http://sodipodi.sourceforge.net/DTD/sodipodi-0.dtd"
   xmlns:inkscape="http://www.inkscape.org/namespaces/inkscape"
   width="9.115015mm"
   height="10.49527mm"
   viewBox="0 0 9.115015 10.49527"
   version="1.1"
   id="svg436"
   inkscape:version="0.92.5 (2060ec1f9f, 2020-04-08)"
   sodipodi:docname="se.svg">
  <defs
     id="defs430" />
  <sodipodi:namedview
     id="base"
     pagecolor="#ffffff"
     bordercolor="#666666"
     borderopacity="1.0"
     inkscape:pageopacity="0.0"
     inkscape:pageshadow="2"
     inkscape:zoom="0.35"
     inkscape:cx="-188.48906"
     inkscape:cy="154.11928"
     inkscape:document-units="mm"
     inkscape:current-layer="layer1"
     showgrid="false"
     inkscape:window-width="1366"
     inkscape:window-height="704"
     inkscape:window-x="0"
     inkscape:window-y="0"
     inkscape:window-maximized="1" />
  <metadata
     id="metadata433">
    <rdf:RDF>
      <cc:Work
         rdf:about="">
        <dc:format>image/svg+xml</dc:format>
        <dc:type
           rdf:resource="http://purl.org/dc/dcmitype/StillImage" />
        <dc:title></dc:title>
      </cc:Work>
    </rdf:RDF>
  </metadata>
  <g
     inkscape:label="Layer 1"
     inkscape:groupmode="layer"
     id="layer1"
     transform="translate(-122.44249,-179.11546)">
    <g
       transform="matrix(9.9994773e-4,0,0,9.9994773e-4,-52.348998,105.49976)"
       id="Sergipe">
      <path
         inkscape:connector-curvature="0"
         style="fill:#999999;stroke:#ffffff;stroke-width:282.23678589;stroke-miterlimit:4;stroke-dasharray:none;stroke-opacity:1"
         d="m 175061,80093 c 10.67,0 21.33,0 32,0 11,-21.333 22,-42.667 33,-64 10.67,-31.999 21.33,-64.001 32,-96 0,-64.333 0,-128.667 0,-193 10.67,-21.665 21.33,-43.335 32,-65 10.67,0 21.33,0 32,0 32.33,-10.668 64.67,-21.332 97,-32 10.67,21.332 21.33,42.668 32,64 32,0 64,0 96,0 21.33,11.001 42.67,21.999 64,33 21.67,0 43.33,0 65,0 10.67,-21.665 21.33,-43.335 32,-65 21.33,10.668 42.67,21.332 64,32 21.67,-21.331 43.33,-42.669 65,-64 21.33,21.335 42.67,42.665 64,64 32,-10.667 64,-21.333 96,-32 10.67,0 21.33,0 32,0 11,21.667 22,43.333 33,65 10.67,0 21.33,0 32,0 21.33,21.335 42.67,42.665 64,64 0,53.667 0,107.333 0,161 43,0 86,0 129,0 42.7,-21.675 85.39,-43.371 128.09,-65.036 54.76,-21.745 109.48,-43.561 164.26,-65.263 191.88,-74.57 383.77,-149.135 575.65,-223.701 -21.33,-182.334 -42.67,-364.666 -64,-547 0,-10.667 0,-21.333 0,-32 -11,-10.667 -22,-21.333 -33,-32 0,-10.667 0,-21.333 0,-32 -10.67,-10.665 -21.33,-21.335 -32,-32 0,-10.667 0,-21.333 0,-32 21.67,0 43.33,0 65,0 0,-11 0,-22 0,-33 10.67,-10.665 21.33,-21.335 32,-32 0,10.667 0,21.333 0,32 0,-21.333 0,-42.667 0,-64 10.67,-21.332 21.33,-42.668 32,-64 0,-21.333 0,-42.667 0,-64 -10.67,-32.332 -21.33,-64.668 -32,-97 -53.67,-96.332 -107.33,-192.668 -161,-289 10.67,-10.665 21.33,-21.335 32,-32 -10.67,-21.665 -21.33,-43.335 -32,-65 32,-10.667 64,-21.333 96,-32 -10.67,0 -21.33,0 -32,0 0,-10.667 0,-21.333 0,-32 10.67,-10.665 21.33,-21.335 32,-32 0,-10.667 0,-21.333 0,-32 21.67,0 43.33,0 65,0 0,-10.667 0,-21.333 0,-32 10.67,-10.998 21.33,-22.002 32,-33 10.67,0 21.33,0 32,0 32,-21.333 64,-42.667 96,-64 11,-10.667 22,-21.333 33,-32 32,0 64,0 96,0 43,-21.333 86,-42.667 129,-64 -11,-11 -22,-22 -33,-33 0,-10.698 0,-21.397 0,-32.095 -42.66,-203.634 -85.32,-407.27 -127.98,-610.905 -21.33,-10.668 -42.67,-21.332 -64,-32 0,-10.698 0,-21.397 0,-32.095 10.66,-53.634 21.32,-107.27 31.98,-160.905 0,-21.333 0,-42.667 0,-64 -32.33,-43.002 -64.67,-85.998 -97,-129 -42.67,-85.665 -85.33,-171.335 -128,-257 0,-64.333 0,-128.667 0,-193 -10.67,-21.332 -21.33,-42.668 -32,-64 -75.33,-43.001 -150.67,-85.999 -226,-129 -10.67,10.665 -21.33,21.335 -32,32 -32,-10.667 -64,-21.333 -96,-32 -32.33,0 -64.67,0 -97,0 0,-21.333 0,-42.667 0,-64 -21.33,0 -42.67,0 -64,0 -21.33,10.668 -42.67,21.332 -64,32 -10.67,0 -21.33,0 -32,0 -11,-10.667 -22,-21.333 -33,-32 -32,-64.333 -64,-128.667 -96,-193 -21.33,-10.668 -42.67,-21.332 -64,-32 0,-10.667 0,-21.333 0,-32 21.33,-32.335 42.67,-64.665 64,-97 0,-32 0,-64 0,-96 21.33,-21.335 42.67,-42.665 64,-64 0,-11 0,-22 0,-33 -10.67,-10.665 -21.33,-21.335 -32,-32 21.33,-42.668 42.67,-85.332 64,-128 -10.67,-10.665 -21.33,-21.335 -32,-32 -10.67,0 -21.33,0 -32,0 -32,-11 -64,-22 -96,-33 -32.33,-32.002 -64.67,-63.998 -97,-96 0,-10.667 0,-21.333 0,-32 -10.67,0 -21.33,0 -32,0 -21.33,-43.001 -42.67,-85.999 -64,-129 0,-107 0,-214 0,-321 21.33,-11.001 42.67,-21.999 64,-33 10.67,-21.332 21.33,-42.668 32,-64 21.67,-21.331 43.33,-42.669 65,-64 21.33,0 42.67,0 64,0 10.67,-10.665 21.33,-21.335 32,-32 -10.67,-10.665 -21.33,-21.335 -32,-32 -21.33,-11.001 -42.67,-21.999 -64,-33 -12.24,-11.927 -24.6,-23.729 -36.75,-35.748 -9.42,-9.413 -18.83,-18.833 -28.25,-28.252 -21.33,-10.668 -42.67,-21.332 -64,-32 -10.67,-21.332 -21.33,-42.668 -32,-64 0,-43 0,-86 0,-129 10.67,-10.665 21.33,-21.335 32,-32 10.67,10.665 21.33,21.335 32,32 0,-10.667 0,-21.333 0,-32 10.67,-10.665 21.33,-21.335 32,-32 0,-10.667 0,-21.333 0,-32 -10.67,-10.998 -21.33,-22.002 -32,-33 21.33,-21.335 42.67,-42.665 64,-64 0,-10.667 0,-21.333 0,-32 11,-21.333 22,-42.667 33,-64 21.33,21.335 42.67,42.665 64,64 53.67,10.666 107.33,21.334 161,32 64.33,21.334 128.67,42.666 193,64 32,-10.667 64,-21.333 96,-32 10.67,0 21.33,0 32,0 10.72,10.704 21.41,21.441 32.15,32.124 64.28,53.63 128.57,107.249 192.85,160.876 10.67,0 21.33,0 32,0 0,21.333 0,42.667 0,64 32.33,0 64.67,0 97,0 10.67,21.665 21.33,43.335 32,65 21.33,21.335 42.67,42.665 64,64 10.67,32.332 21.33,64.668 32,97 11,0 22,0 33,0 42.67,-21.666 85.33,-43.334 128,-65 10.7,0.01 21.4,-0.02 32.1,0.02 53.63,10.663 107.27,21.32 160.9,31.981 47.54,23.923 95.02,47.942 142.59,71.796 16.81,8.401 33.61,16.803 50.41,25.204 21.33,42.668 42.67,85.332 64,128 0,11 0,22 0,33 118,75 236,150 354,225 21.33,10.668 42.67,21.332 64,32 32.33,0 64.67,0 97,0 193,32 386,64 579,96 10.67,10.665 21.33,21.335 32,32 42.67,21.666 85.33,43.334 128,65 32.33,10.668 64.67,21.332 97,32 21.33,0 42.67,0 64,0 21.33,21.335 42.67,42.665 64,64 43,32.333 86,64.667 129,97 32,10.667 64,21.333 96,32 21.67,10.666 43.33,21.334 65,32 32,32 64,64 96,96 21.67,32.332 43.33,64.668 65,97 10.67,21.332 21.33,42.668 32,64 0,10.667 0,21.333 0,32 10.67,10.998 21.33,22.002 32,33 64.33,0 128.67,0 193,0 75,10.667 150,21.333 225,32 32,21.333 64,42.667 96,64 86,75 172,150 258,225 42.67,42.998 85.33,86.002 128,129 32.33,0 64.67,0 97,0 32,-21.667 64,-43.333 96,-65 21.33,0 42.67,0 64,0 43,21.667 86,43.333 129,65 0,10.667 0,21.333 0,32 10.67,21.332 21.33,42.668 32,64 0,75 0,150 0,225 10.67,10.665 21.33,21.335 32,32 0,21.667 0,43.333 0,65 10.67,31.999 21.33,64.001 32,96 21.67,21.331 43.33,42.669 65,64 21.33,32.335 42.67,64.665 64,97 10.67,21.332 21.33,42.668 32,64 53.67,10.666 107.33,21.334 161,32 21.33,21.668 42.67,43.332 64,65 21.67,0 43.33,0 65,0 10.67,21.332 21.33,42.668 32,64 0,32 0,64 0,96 10.67,10.998 21.33,22.002 32,33 32,21.333 64,42.667 96,64 10.67,10.665 21.33,21.335 32,32 53.67,10.666 107.33,21.334 161,32 10.67,0 21.33,0 32,0 32.33,10.668 64.67,21.332 97,32 0,10.667 0,21.333 0,32 -10.67,10.998 -21.33,22.002 -32,33 10.67,0 21.33,0 32,0 21.33,10.668 42.67,21.332 64,32 21.67,21.331 43.33,42.669 65,64 10.67,0 21.33,0 32,0 21.33,10.668 42.67,21.332 64,32 32,0 64,0 96,0 11,-10.667 22,-21.333 33,-32 32,0 64,0 96,0 21.33,-21.335 42.67,-42.665 64,-64 21.67,0 43.33,0 65,0 21.33,21.335 42.67,42.665 64,64 0,10.667 0,21.333 0,32 32,21.667 64,43.333 96,65 11.02,21.358 22.02,42.728 33.05,64.081 21.32,31.971 42.63,63.948 63.95,95.919 10.67,21.665 21.33,43.335 32,65 0,53.333 0,106.667 0,160 10.67,42.999 21.33,86.001 32,129 -10.67,42.999 -21.33,86.001 -32,129 32.33,21.335 64.67,42.665 97,64 10.67,-10.665 21.33,-21.335 32,-32 42.67,0 85.33,0 128,0 -10.67,0 -21.33,0 -32,0 0,10.667 0,21.333 0,32 10.67,0 21.33,0 32,0 32.33,-10.668 64.67,-21.332 97,-32 10.67,0 21.33,0 32,0 0,-10.667 0,-21.333 0,-32 32,-21.667 64,-43.333 96,-65 10.67,10.665 21.33,21.335 32,32 32.33,21.668 64.67,43.332 97,65 10.67,0 21.33,0 32,0 10.67,31.999 21.33,64.001 32,96 34.86,69.431 69.83,138.813 104.63,208.272 8.12,16.243 16.25,32.484 24.37,48.728 0,43 0,86 0,129 -10.67,-10.665 -21.33,-21.335 -32,-32 -53.79,10.698 -107.59,21.373 -161.38,32.084 -96.21,21.301 -192.41,42.612 -288.62,63.916 -128.67,53.666 -257.33,107.334 -386,161 -64.33,32.334 -128.67,64.666 -193,97 -53.92,42.842 -107.79,85.74 -161.73,128.553 -42.76,32.15 -85.52,64.296 -128.27,96.447 -75,32 -150,64 -225,96 -128.67,85.665 -257.33,171.335 -386,257 -56.29,56.612 -112.52,113.29 -168.85,169.856 -147.06,147.043 -294.1,294.095 -441.15,441.144 -43,53.667 -86,107.333 -129,161 -43.04,64.384 -86.07,128.776 -129.11,193.158 -53.3,74.946 -106.59,149.896 -159.89,224.842 0,21.333 0,42.667 0,64 -43.02,53.694 -86.05,107.378 -129.06,161.08 -117.98,171.642 -235.96,343.28 -353.94,514.92 -42.67,85.665 -85.33,171.335 -128,257 10.67,10.665 21.33,21.335 32,32 -85.69,96.358 -171.38,192.711 -257.06,289.076 -85.98,107.308 -171.96,214.616 -257.94,321.924 -53.33,96.335 -106.67,192.665 -160,289 -43,128.667 -86,257.333 -129,386 -10.67,10.665 -21.33,21.335 -32,32 0,21.667 0,43.333 0,65 -53.67,0 -107.33,0 -161,0 -10.67,21.332 -21.33,42.668 -32,64 -10.67,0 -21.33,0 -32,0 -33.05,32.737 -66.16,65.416 -99.17,98.195 -31.27,31.603 -62.55,63.202 -93.83,94.805 -43,32 -86,64 -129,96 -21.33,10.668 -42.67,21.332 -64,32 -75,0 -150,0 -225,0 -21.33,21.668 -42.67,43.332 -64,65 0,21.333 0,42.667 0,64 -64.33,0 -128.67,0 -193,0 -11,-10.667 -22,-21.333 -33,-32 -21.33,0 -42.67,0 -64,0 10.67,10.665 21.33,21.335 32,32 -10.67,0 -21.33,0 -32,0 -10.67,-10.665 -21.33,-21.335 -32,-32 10.67,-21.332 21.33,-42.668 32,-64 -21.33,0 -42.67,0 -64,0 -21.33,10.668 -42.67,21.332 -64,32 -21.67,0 -43.33,0 -65,0 -10.67,-10.665 -21.33,-21.335 -32,-32 -10.67,-21.665 -21.33,-43.335 -32,-65 -10.67,0 -21.33,0 -32,0 -10.67,10.665 -21.33,21.335 -32,32 -11,-10.667 -22,-21.333 -33,-32 0,21.667 0,43.333 0,65 -21.33,0 -42.67,0 -64,0 10.67,21.332 21.33,42.668 32,64 -21.33,21.335 -42.67,42.665 -64,64 0,21.333 0,42.667 0,64 -21.33,-10.668 -42.67,-21.332 -64,-32 -21.67,0 -43.33,0 -65,0 11,-32 22,-64 33,-96 -11,0 -22,0 -33,0 -21.33,10.668 -42.67,21.332 -64,32 -21.33,0 -42.67,0 -64,0 0,-21.333 0,-42.667 0,-64 -32.33,0 -64.67,0 -97,0 -21.33,-21.668 -42.67,-43.332 -64,-65 -10.67,10.998 -21.33,22.002 -32,33 -10.67,-10.998 -21.33,-22.002 -32,-33 -21.67,0 -43.33,0 -65,0 -10.67,-10.665 -21.33,-21.335 -32,-32 -10.67,10.665 -21.33,21.335 -32,32 -21.33,-10.668 -42.67,-21.332 -64,-32 0,-21.333 0,-42.667 0,-64 10.67,-10.665 21.33,-21.335 32,-32 -10.67,-10.665 -21.33,-21.335 -32,-32 -10.67,0 -21.33,0 -32,0 -21.67,-10.999 -43.33,-22.001 -65,-33 -10.67,0 -21.33,0 -32,0 -10.67,-21.332 -21.33,-42.668 -32,-64 -10.67,0 -21.33,0 -32,0 -10.67,-10.665 -21.33,-21.335 -32,-32 0,-21.333 0,-42.667 0,-64 21.33,0 42.67,0 64,0 0,-21.667 0,-43.333 0,-65 -32,11 -64,22 -96,33 0,-11 0,-22 0,-33 -21.67,-10.666 -43.33,-21.334 -65,-32 32.33,0 64.67,0 97,0 -21.67,-10.666 -43.33,-21.334 -65,-32 -10.67,0 -21.33,0 -32,0 -10.67,21.332 -21.33,42.668 -32,64 0,-10.667 0,-21.333 0,-32 -10.67,10.665 -21.33,21.335 -32,32 -10.67,-10.665 -21.33,-21.335 -32,-32 0,-32 0,-64 0,-96 -10.67,0 -21.33,0 -32,0 -10.67,-10.665 -21.33,-21.335 -32,-32 -21.67,0 -43.33,0 -65,0 0,10.667 0,21.333 0,32 -10.67,0 -21.33,0 -32,0 0,21.333 0,42.667 0,64 -10.67,0 -21.33,0 -32,0 0,-10.667 0,-21.333 0,-32 -21.33,-21.335 -42.67,-42.665 -64,-64 10.67,0 21.33,0 32,0 0,-11 0,-22 0,-33 -10.67,0 -21.33,0 -32,0 -11,11 -22,22 -33,33 0,-21.667 0,-43.333 0,-65 -21.33,0 -42.67,0 -64,0 0,-10.667 0,-21.333 0,-32 10.67,-10.665 21.33,-21.335 32,-32 0,-10.667 0,-21.333 0,-32 -10.67,-10.665 -21.33,-21.335 -32,-32 -10.67,-32.332 -21.33,-64.668 -32,-97 0,-10.667 0,-21.333 0,-32 -10.67,10.665 -21.33,21.335 -32,32 -10.67,-10.665 -21.33,-21.335 -32,-32 0,-10.667 0,-21.333 0,-32 21.33,0 42.67,0 64,0 -21.33,-10.668 -42.67,-21.332 -64,-32 0,-10.667 0,-21.333 0,-32 10.67,0 21.33,0 32,0 -21.33,-32.335 -42.67,-64.665 -64,-97 0,-21.333 0,-42.667 0,-64 21.33,-10.668 42.67,-21.332 64,-32 0,-10.667 0,-21.333 0,-32 10.67,-10.998 21.33,-22.002 32,-33 -10.67,-10.665 -21.33,-21.335 -32,-32 10.67,-10.665 21.33,-21.335 32,-32 0,-10.667 0,-21.333 0,-32 -10.67,0 -21.33,0 -32,0 0,-10.667 0,-21.333 0,-32 10.67,0 21.33,0 32,0 -10.67,-21.665 -21.33,-43.335 -32,-65 10.67,0 21.33,0 32,0 10.67,-10.665 21.33,-21.335 32,-32 0,-32 0,-64 0,-96 10.67,-10.665 21.33,-21.335 32,-32 -21.33,0 -42.67,0 -64,0 -21.33,-10.668 -42.67,-21.332 -64,-32 -10.67,10.665 -21.33,21.335 -32,32 -32.33,-32.335 -64.67,-64.665 -97,-97 -10.67,10.665 -21.33,21.335 -32,32 -21.33,-10.668 -42.67,-21.332 -64,-32 -21.67,-21.331 -43.33,-42.669 -65,-64 -21.33,-10.668 -42.67,-21.332 -64,-32 10.67,-10.665 21.33,-21.335 32,-32 -10.67,-10.665 -21.33,-21.335 -32,-32 10.67,-21.665 21.33,-43.335 32,-65 0,-10.667 0,-21.333 0,-32 -10.67,0 -21.33,0 -32,0 -21.33,-10.668 -42.67,-21.332 -64,-32 -10.67,-21.332 -21.33,-42.668 -32,-64 0,-11 0,-22 0,-33 10.67,0 21.33,0 32,0 10.67,-31.999 21.33,-64.001 32,-96 0,-21.333 0,-42.667 0,-64 -10.67,0 -21.33,0 -32,0 0,-11 0,-22 0,-33 -10.67,0 -21.33,0 -32,0 0,-10.667 0,-21.333 0,-32 -11,0 -22,0 -33,0 -10.67,-10.665 -21.33,-21.335 -32,-32 0,-10.667 0,-21.333 0,-32 10.67,0 21.33,0 32,0 -10.67,-21.332 -21.33,-42.668 -32,-64 0,-10.667 0,-21.333 0,-32 -10.67,-10.998 -21.33,-22.002 -32,-33 -21.33,-10.668 -42.67,-21.332 -64,-32 0,21.667 0,43.333 0,65 -10.67,0 -21.33,0 -32,0 -11,-11 -22,-22 -33,-33 -10.67,-21.332 -21.33,-42.668 -32,-64 -42.67,-21.332 -85.33,-42.668 -128,-64 -10.67,-21.332 -21.33,-42.668 -32,-64 -11,-11 -22,-22 -33,-33 11,-21.333 22,-42.667 33,-64 0,-10.667 0,-21.333 0,-32 -32.33,-10.668 -64.67,-21.332 -97,-32 0,-21.667 0,-43.333 0,-65 -10.67,0 -21.33,0 -32,0 -10.67,10.998 -21.33,22.002 -32,33 0,-11 0,-22 0,-33 -21.67,-10.666 -43.33,-21.334 -65,-32 0,-32 0,-64 0,-96 -21.33,-32.335 -42.67,-64.665 -64,-97 0,-21.333 0,-42.667 0,-64 10.67,-21.332 21.33,-42.668 32,-64 10.67,-10.665 21.33,-21.335 32,-32 -10.67,-32.332 -21.33,-64.668 -32,-97 -10.67,0 -21.33,0 -32,0 10.67,-21.332 21.33,-42.668 32,-64 -10.67,-21.332 -21.33,-42.668 -32,-64 10.67,-10.998 21.33,-22.002 32,-33 z"
         id="path78" />
    </g>
  </g>
</svg>
