<?xml version="1.0" encoding="UTF-8" standalone="no"?>
<!-- Created with Inkscape (http://www.inkscape.org/) -->

<svg
   xmlns:dc="http://purl.org/dc/elements/1.1/"
   xmlns:cc="http://creativecommons.org/ns#"
   xmlns:rdf="http://www.w3.org/1999/02/22-rdf-syntax-ns#"
   xmlns:svg="http://www.w3.org/2000/svg"
   xmlns="http://www.w3.org/2000/svg"
   xmlns:sodipodi="http://sodipodi.sourceforge.net/DTD/sodipodi-0.dtd"
   xmlns:inkscape="http://www.inkscape.org/namespaces/inkscape"
   width="42.697575mm"
   height="27.297504mm"
   viewBox="0 0 42.697575 27.297504"
   version="1.1"
   id="svg1291"
   inkscape:version="0.92.5 (2060ec1f9f, 2020-04-08)"
   sodipodi:docname="sp.svg">
  <defs
     id="defs1285" />
  <sodipodi:namedview
     id="base"
     pagecolor="#ffffff"
     bordercolor="#666666"
     borderopacity="1.0"
     inkscape:pageopacity="0.0"
     inkscape:pageshadow="2"
     inkscape:zoom="0.35"
     inkscape:cx="380.68833"
     inkscape:cy="477.30011"
     inkscape:document-units="mm"
     inkscape:current-layer="layer1"
     showgrid="false"
     inkscape:window-width="1366"
     inkscape:window-height="704"
     inkscape:window-x="0"
     inkscape:window-y="0"
     inkscape:window-maximized="1" />
  <metadata
     id="metadata1288">
    <rdf:RDF>
      <cc:Work
         rdf:about="">
        <dc:format>image/svg+xml</dc:format>
        <dc:type
           rdf:resource="http://purl.org/dc/dcmitype/StillImage" />
        <dc:title></dc:title>
      </cc:Work>
    </rdf:RDF>
  </metadata>
  <g
     inkscape:label="Layer 1"
     inkscape:groupmode="layer"
     id="layer1"
     transform="translate(28.152359,-247.82148)">
    <g
       transform="matrix(9.9994773e-4,0,0,9.9994773e-4,-132.61878,123.99477)"
       id="SaoPaulo">
      <path
         inkscape:connector-curvature="0"
         id="path88"
         d="m 104646,137841 c -11,-10.67 -22,-21.33 -33,-32 0,-21.67 0,-43.33 0,-65 11.09,-21.42 22.04,-42.91 33.21,-64.29 32.04,-42.97 63.94,-86.04 96.05,-128.96 42.92,-42.58 86.06,-84.93 128.74,-127.75 64.33,-21.67 128.67,-43.33 193,-65 10.84,-11.07 22.17,-21.71 32.7,-33.05 21.1,-31.65 42.2,-63.3 63.3,-94.95 64.33,-32.33 128.67,-64.67 193,-97 10.67,0 21.33,0 32,0 10.67,-10.67 21.33,-21.33 32,-32 86,-21.33 172,-42.67 258,-64 42.67,-21.33 85.33,-42.67 128,-64 10.67,0 21.33,0 32,0 21.67,-43 43.33,-86 65,-129 53.33,-43 106.67,-86 160,-129 10.67,-21.33 21.33,-42.67 32,-64 86,-53.67 172,-107.33 258,-161 32,-10.67 64,-21.33 96,-32 43,-32 86,-64 129,-96 64.33,-21.67 128.67,-43.33 193,-65 32.12,-21.37 64.16,-42.85 96.32,-64.16 21.65,-10.97 43.54,-21.49 65.03,-32.74 31.96,-21.13 64.02,-42.11 95.9,-63.36 31.92,-32.24 63.83,-64.49 95.75,-96.74 53.67,-10.67 107.33,-21.33 161,-32 43.38,-21.41 86.61,-43.19 130.09,-64.38 31.64,-10.87 63.27,-21.75 94.91,-32.62 10.67,-10.67 21.33,-21.33 32,-32 11,0 22,0 33,0 10.67,-21.33 21.33,-42.67 32,-64 41.98,-42.19 84.49,-83.87 125.84,-126.69 6.61,-6.35 14.76,-10.88 22.03,-16.44 68.38,-48.62 136.75,-97.25 205.13,-145.87 10.67,-32.33 21.33,-64.67 32,-97 32.94,-31.56 65.01,-63.99 97.21,-96.29 53.6,-74.9 107.19,-149.81 160.79,-224.71 43.07,-140.41 85.87,-280.91 129.11,-421.27 10.63,-31.24 21.26,-62.49 31.89,-93.73 53.33,-64.33 106.67,-128.67 160,-193 21.67,0 43.33,0 65,0 0,-10.67 0,-21.33 0,-32 21.33,-10.67 42.67,-21.33 64,-32 21.33,-32.33 42.67,-64.67 64,-97 75,-53.33 150,-106.67 225,-160 10.67,-32.33 21.33,-64.67 32,-97 0,-21.33 0,-42.67 0,-64 32.33,-75 64.67,-150 97,-225 32,-21.33 64,-42.67 96,-64 64.33,-21.67 128.67,-43.33 193,-65 10.67,-21.33 21.33,-42.67 32,-64 21.67,-21.33 43.33,-42.67 65,-64 42.67,-75 85.33,-150 128,-225 0,-43 0,-86 0,-129 -21.33,-43 -42.67,-86 -64,-129 0,-32 0,-64 0,-96 -53.67,-43 -107.33,-86 -161,-129 -10.67,-21.33 -21.33,-42.67 -32,-64 21.51,-32.8 43.4,-65.37 64.67,-98.32 21.44,-42.23 42.89,-84.45 64.33,-126.68 21.33,-10.67 42.67,-21.33 64,-32 11.65,0.28 23.37,-0.59 34.97,0.49 63.46,10.49 126.91,21.12 190.39,31.51 32.21,0 64.43,0 96.64,0 42.67,-21.33 85.33,-42.67 128,-64 10.85,-11.39 22.13,-22.42 32.71,-34.05 21.52,-31.72 42.91,-63.54 64.54,-95.2 31.92,-31.92 63.83,-63.83 95.75,-95.75 21.24,-64.73 42.82,-129.35 64.26,-194.01 10.91,-42.66 21.83,-85.33 32.74,-127.99 64.16,-53.85 128.41,-107.59 192.52,-161.5 10.82,-10.51 21.65,-21 32.48,-31.5 0,-32 0,-64 0,-96 10.87,-44.31 22.21,-88.52 32.78,-132.9 10.4,-52.37 20.82,-104.73 31.22,-157.1 -10.67,-10.67 -21.33,-21.33 -32,-32 -10.67,-64.33 -21.33,-128.67 -32,-193 -21.77,-32.07 -43.39,-64.24 -65.25,-96.25 -10.58,-10.58 -21.17,-21.17 -31.75,-31.75 10.67,-21.67 21.33,-43.33 32,-65 -10.67,-53.67 -21.33,-107.33 -32,-161 10.67,-21.33 21.33,-42.67 32,-64 10.67,-10.67 21.33,-21.33 32,-32 43,0 86,0 129,0 32.33,-10.67 64.67,-21.33 97,-32 10.67,0 21.33,0 32,0 10.67,-21.33 21.33,-42.67 32,-64 32,-11 64,-22 96,-33 21.67,-53.33 43.33,-106.67 65,-160 0,-32.33 0,-64.67 0,-97 21.33,-32 42.67,-64 64,-96 10.67,-32.33 21.33,-64.67 32,-97 43,-53.67 86,-107.33 129,-161 21.33,-10.67 42.67,-21.33 64,-32 75,0 150,0 225,0 64.33,-42.67 128.67,-85.33 193,-128 10.67,-21.67 21.33,-43.33 32,-65 10.67,-75 21.33,-150 32,-225 -21.33,-21.33 -42.67,-42.67 -64,-64 -10.67,-32 -21.33,-64 -32,-96 0,-53.67 0,-107.33 0,-161 10.67,-53.67 21.33,-107.33 32,-161 0,-21.33 0,-42.67 0,-64 -21.33,-32.33 -42.67,-64.67 -64,-97 10.67,-53.33 21.33,-106.67 32,-160 53.67,-118 107.33,-236 161,-354 21.33,-21.33 42.67,-42.67 64,-64 0,-11 0,-22 0,-33 21.33,-21.33 42.67,-42.67 64,-64 75,-43 150,-86 225,-129 32.33,-32 64.67,-64 97,-96 10.67,-32 21.33,-64 32,-96 53.67,-86 107.33,-172 161,-258 21.82,-21.6 43.22,-43.66 65.3,-64.96 42.68,-31.72 85.28,-63.56 128.02,-95.2 21.22,-10.95 42.45,-21.89 63.68,-32.84 0,-10.67 0,-21.33 0,-32 53.67,-96.33 107.33,-192.67 161,-289 21.33,-10.67 42.67,-21.33 64,-32 10.67,-43 21.33,-86 32,-129 10.67,-10.67 21.33,-21.33 32,-32 10.67,0 21.33,0 32,0 49.52,-32.7 99.2,-65.14 148.18,-98.65 14.94,-10.12 29.88,-20.23 44.82,-30.35 96.67,-21.33 193.33,-42.67 290,-64 64.33,0 128.67,0 193,0 43.38,-10.96 86.88,-21.49 130.19,-32.72 31.6,-10.43 63.2,-20.86 94.81,-31.28 10.67,0 21.33,0 32,0 21.33,-10.67 42.67,-21.33 64,-32 21.67,-21.67 43.33,-43.33 65,-65 21.6,-10.97 43.51,-21.41 64.91,-32.72 53.36,-42.43 106.73,-84.85 160.09,-127.28 10.76,-22.17 22.03,-44.12 32.48,-66.43 21.38,-64.25 42.49,-128.6 64.04,-192.78 32.13,-75.13 63.99,-150.38 96.3,-225.43 42.73,-85.12 85.46,-170.24 128.18,-255.36 0,-21.33 0,-42.67 0,-64 53.67,-75 107.33,-150 161,-225 0,-11 0,-22 0,-33 32,0 64,0 96,0 22.07,-21.51 43.73,-43.49 66.05,-64.7 31.65,-21.1 63.3,-42.2 94.95,-63.3 0,-21.67 0,-43.33 0,-65 64.33,0 128.67,0 193,0 42.96,-42.71 85.31,-86.03 129,-128 42.67,-10.67 85.33,-21.33 128,-32 32.33,-21.67 64.67,-43.33 97,-65 0,-10.67 0,-21.33 0,-32 21.45,-0.1 42.9,0.12 64.35,-0.1 86.87,-21.72 173.83,-43.11 260.65,-65.05 73.67,-20.96 147.33,-41.91 221,-62.86 10.67,0 21.33,0 32,0 21.67,-10.67 43.33,-21.33 65,-32 10.67,0 21.33,0 32,0 32,-53.67 64,-107.33 96,-161 21.67,-21.67 43.33,-43.33 65,-65 21.33,-10.67 42.67,-21.33 64,-32 32.04,-42.78 64.2,-85.47 96.16,-128.32 10.95,-21.56 21.89,-43.12 32.84,-64.68 53.33,0 106.67,0 160,0 21.67,-21.33 43.33,-42.67 65,-64 21.33,-10.67 42.67,-21.33 64,-32 32,0 64,0 96,0 42.93,-20.99 85.69,-42.37 128.46,-63.64 6.43,1.73 12.56,6.06 18.86,8.8 15.86,7.78 31.48,16.11 47.53,23.45 63.76,20.97 127.48,42.11 191.15,63.39 64.33,75 128.67,150 193,225 32.33,10.67 64.67,21.33 97,32 0,21.67 0,43.33 0,65 32,0 64,0 96,0 21.33,10.67 42.67,21.33 64,32 11.44,-0.21 22.96,0.43 34.35,-0.34 42.22,-10.54 84.43,-21.1 126.65,-31.66 64.33,21.33 128.67,42.67 193,64 43,-21.33 86,-42.67 129,-64 32,0 64,0 96,0 43,10.67 86,21.33 129,32 10.67,10.67 21.33,21.33 32,32 11.02,-0.23 22.14,0.47 33.1,-0.36 31.96,-10.55 63.93,-21.09 95.9,-31.64 64,0 128,0 192,0 11.13,10.69 22.06,21.6 33.32,32.16 21.23,10.61 42.45,21.23 63.68,31.84 53.67,53.67 107.33,107.33 161,161 21.33,0 42.67,0 64,0 21.33,10.67 42.67,21.33 64,32 86,-10.67 172,-21.33 258,-32 85.77,32.07 171.57,64.04 257.32,96.16 21.23,10.61 42.45,21.23 63.68,31.84 64.33,0 128.67,0 193,0 32.33,-21.33 64.67,-42.67 97,-64 64.12,-10.65 128.22,-21.45 192.36,-32 74.88,0 149.76,0 224.64,0 53.67,10.67 107.33,21.33 161,32 128.67,0 257.33,0 386,0 0,-10.67 0,-21.33 0,-32 33.02,-10.79 65.93,-21.96 99.03,-32.51 41.99,-10.5 83.98,-20.99 125.97,-31.49 32.33,0 64.67,0 97,0 10.67,-10.67 21.33,-21.33 32,-32 43.38,10.96 86.88,21.49 130.19,32.72 31.6,10.43 63.2,20.86 94.81,31.28 21.33,42.67 42.67,85.33 64,128 34.39,36.05 70.19,70.71 105.46,105.88 18.51,18.37 37.03,36.75 55.54,55.12 32.74,0.12 65.49,-0.24 98.22,0.18 127.93,10.61 255.86,21.21 383.78,31.82 32.33,-10.67 64.67,-21.33 97,-32 32,-21.33 64,-42.67 96,-64 32.33,-10.67 64.67,-21.33 97,-32 53.33,10.67 106.67,21.33 160,32 11,0 22,0 33,0 10.67,10.67 21.33,21.33 32,32 0,43 0,86 0,129 -21.67,10.67 -43.33,21.33 -65,32 -32,0 -64,0 -96,0 -21.33,21.33 -42.67,42.67 -64,64 -21.67,85.67 -43.33,171.33 -65,257 0,53.67 0,107.33 0,161 10.67,21.33 21.33,42.67 32,64 0,86 0,172 0,258 53.67,96.33 107.33,192.67 161,289 10.67,32.33 21.33,64.67 32,97 0,21.33 0,42.67 0,64 43,64.33 86,128.67 129,193 11.31,0.23 22.69,-0.49 33.95,0.39 53.02,10.53 106.03,21.07 159.05,31.61 21.33,10.67 42.67,21.33 64,32 10.67,0 21.33,0 32,0 0,-10.67 0,-21.33 0,-32 64.33,-43 128.67,-86 193,-129 21.67,-21.33 43.33,-42.67 65,-64 42.96,-96.87 85.73,-193.83 128.82,-290.65 42.72,-85.45 85.46,-170.9 128.18,-256.35 10.67,-10.67 21.33,-21.33 32,-32 43,0 86,0 129,0 21.46,10.67 42.83,21.53 64.35,32.09 42.89,10.63 85.77,21.27 128.65,31.91 11.05,22.87 22.78,45.43 33.39,68.5 20.87,52.5 41.74,105 62.61,157.5 10.65,85.79 21.42,171.56 32,257.36 -0.13,33.07 0.27,66.14 -0.2,99.2 -10.6,181.15 -21.2,362.29 -31.8,543.44 11.21,10.9 21.85,22.47 33.43,32.95 95.86,64.02 191.72,128.03 287.57,192.05 21.67,0 43.33,0 65,0 10.69,-10.8 21.6,-21.38 32.16,-32.32 21.28,-42.89 42.56,-85.79 63.84,-128.68 0,-42.67 0,-85.33 0,-128 -21.33,-53.67 -42.67,-107.33 -64,-161 10.67,-53.67 21.33,-107.33 32,-161 -21.33,-32 -42.67,-64 -64,-96 0,-43 0,-86 0,-129 21.33,-43 42.67,-86 64,-129 32.21,-32.12 64.12,-64.55 97,-96 0,-10.67 0,-21.33 0,-32 -11,-21.67 -22,-43.33 -33,-65 11,-32 22,-64 33,-96 11.06,-10.85 21.72,-22.16 33.05,-32.71 31.65,-21.42 63.3,-42.86 94.95,-64.29 75,0 150,0 225,0 43.71,-10.96 87.54,-21.48 131.17,-32.73 31.27,-10.42 62.55,-20.84 93.83,-31.27 10.78,0.1 21.56,-0.18 32.33,0.13 53.56,21.29 107.11,42.58 160.67,63.87 32.33,0 64.67,0 97,0 10.67,11 21.33,22 32,33 32,0 64,0 96,0 32.33,-11 64.67,-22 97,-33 42.67,-42.67 85.33,-85.33 128,-128 21.67,-10.67 43.33,-21.33 65,-32 42.67,0 85.33,0 128,0 32.33,10.67 64.67,21.33 97,32 75,0 150,0 225,0 53.67,-21.33 107.33,-42.67 161,-64 21.45,-0.1 42.9,0.1 64.35,-0.1 53.55,-10.98 107.1,-21.95 160.65,-32.93 42.67,11 85.33,22 128,33 43,0 86,0 129,0 21.33,-11 42.67,-22 64,-33 32.33,0 64.67,0 97,0 32,11 64,22 96,33 32.21,32.12 64.12,64.55 97,96 53.33,0 106.67,0 160,0 21.67,-10.67 43.33,-21.33 65,-32 10.67,0 21.33,0 32,0 10.67,-21.33 21.33,-42.67 32,-64 0,-11 0,-22 0,-33 -53.67,-53.33 -107.33,-106.67 -161,-160 0.23,-11.31 -0.49,-22.69 0.39,-33.95 10.53,-53.02 21.07,-106.03 31.61,-159.05 -10.67,-10.67 -21.33,-21.33 -32,-32 10.67,-11 21.33,-22 32,-33 32.33,0 64.67,0 97,0 10.67,11 21.33,22 32,33 21.33,10.67 42.67,21.33 64,32 32.33,53.67 64.67,107.33 97,161 10.67,32 21.33,64 32,96 10.67,10.67 21.33,21.33 32,32 21.33,0 42.67,0 64,0 10.67,32.33 21.33,64.67 32,97 32.33,10.67 64.67,21.33 97,32 21.33,21.33 42.67,42.67 64,64 32.33,10.67 64.67,21.33 97,32 32,0 64,0 96,0 43,-21.33 86,-42.67 129,-64 10.67,-32.33 21.33,-64.67 32,-97 32,11 64,22 96,33 21.71,-32.45 43.52,-64.83 65.16,-97.32 21.28,-42.56 42.56,-85.12 63.84,-127.68 0,-53.67 0,-107.33 0,-161 10.67,-10.67 21.33,-21.33 32,-32 10.67,0 21.33,0 32,0 43,32 86,64 129,96 10.67,53.67 21.33,107.33 32,161 21.33,32 42.67,64 64,96 43,21.67 86,43.33 129,65 10.67,0 21.33,0 32,0 32.33,-32.33 64.67,-64.67 97,-97 10.67,-21.33 21.33,-42.67 32,-64 0,-43 0,-86 0,-129 10.67,-21.33 21.33,-42.67 32,-64 0,-10.67 0,-21.33 0,-32 -10.67,-10.67 -21.33,-21.33 -32,-32 -10.67,0 -21.33,0 -32,0 0,-32.33 0,-64.67 0,-97 10.84,-11.07 22.18,-21.71 32.7,-33.06 21.1,-31.98 42.2,-63.96 63.3,-95.94 10.67,0 21.33,0 32,0 21.67,11 43.33,22 65,33 53.33,-21.67 106.67,-43.33 160,-65 53.67,0 107.33,0 161,0 32.33,10.67 64.67,21.33 97,32 21.71,-10.74 43.26,-21.87 65.09,-32.36 31.63,-10.55 63.27,-21.09 94.91,-31.64 10.67,0 21.33,0 32,0 53.67,43 107.33,86 161,129 0,21.33 0,42.67 0,64 30.48,30.19 61.48,59.87 91.11,90.91 23.09,23.56 46.62,46.7 69.89,70.09 21.33,-10.67 42.67,-21.33 64,-32 21.67,0 43.33,0 65,0 32,-32.33 64,-64.67 96,-97 0,-32 0,-64 0,-96 21.33,-10.67 42.67,-21.33 64,-32 43,0 86,0 129,0 0,-11 0,-22 0,-33 21.33,-10.67 42.67,-21.33 64,-32 43,0 86,0 129,0 21.33,-21.33 42.67,-42.67 64,-64 21.67,0 43.33,0 65,0 21.33,-21.33 42.67,-42.67 64,-64 0,10.67 0,21.33 0,32 53.67,53.67 107.33,107.33 161,161 10.67,21.33 21.33,42.67 32,64 0,21.33 0,42.67 0,64 -21.67,10.67 -43.33,21.33 -65,32 0,32.33 0,64.67 0,97 43,21.33 86,42.67 129,64 10.67,32.33 21.33,64.67 32,97 53.67,0 107.33,0 161,0 21.33,32 42.67,64 64,96 21.67,0 43.33,0 65,0 21.33,21.33 42.67,42.67 64,64 43,11 86,22 129,33 21.33,42.67 42.67,85.33 64,128 32,10.67 64,21.33 96,32 10.67,0 21.33,0 32,0 11,21.67 22,43.33 33,65 0,32 0,64 0,96 10.67,0 21.33,0 32,0 11.01,21.76 21.6,43.75 32.9,65.35 21.03,31.89 42.06,63.77 63.1,95.65 -0.1,10.78 0.18,21.56 -0.13,32.33 -21.29,53.56 -42.58,107.11 -63.87,160.67 -10.67,0 -21.33,0 -32,0 -21.67,32 -43.33,64 -65,96 -10.67,0 -21.33,0 -32,0 -10.67,21.67 -21.33,43.33 -32,65 0,32 0,64 0,96 -10.67,0 -21.33,0 -32,0 0,32 0,64 0,96 -10.67,0 -21.33,0 -32,0 10.67,11 21.33,22 32,33 -21.33,10.67 -42.67,21.33 -64,32 10.67,32 21.33,64 32,96 0,32.33 0,64.67 0,97 10.67,0 21.33,0 32,0 -10.67,21.33 -21.33,42.67 -32,64 10.67,10.67 21.33,21.33 32,32 -10.67,10.67 -21.33,21.33 -32,32 10.67,0 21.33,0 32,0 -10.67,10.67 -21.33,21.33 -32,32 10.67,0 21.33,0 32,0 -10.67,11 -21.33,22 -32,33 0,10.67 0,21.33 0,32 10.67,0 21.33,0 32,0 0,10.67 0,21.33 0,32 -10.67,10.67 -21.33,21.33 -32,32 0,10.67 0,21.33 0,32 32,21.67 64,43.33 96,65 21.67,0 43.33,0 65,0 10.67,21.33 21.33,42.67 32,64 32,10.67 64,21.33 96,32 32.33,32 64.67,64 97,96 21.33,0 42.67,0 64,0 21.46,11 42.83,22.2 64.35,33.09 42.89,10.63 85.77,21.27 128.65,31.91 10.67,21.33 21.33,42.67 32,64 10.67,0 21.33,0 32,0 0,21.33 0,42.67 0,64 10.67,21.67 21.33,43.33 32,65 -10.67,10.67 -21.33,21.33 -32,32 21.33,42.67 42.67,85.33 64,128 11,0 22,0 33,0 0,32.33 0,64.67 0,97 21.33,10.67 42.67,21.33 64,32 0,32.33 0,64.67 0,97 21.33,10.67 42.67,21.33 64,32 0,21.33 0,42.67 0,64 -10.67,21.33 -21.33,42.67 -32,64 0,21.67 0,43.33 0,65 -10.67,21.33 -21.33,42.67 -32,64 -10.67,10.67 -21.33,21.33 -32,32 0,10.67 0,21.33 0,32 -53.67,0 -107.33,0 -161,0 -21.33,-10.67 -42.67,-21.33 -64,-32 -10.67,10.67 -21.33,21.33 -32,32 0,10.67 0,21.33 0,32 -21.67,21.67 -43.33,43.33 -65,65 10.67,21.33 21.33,42.67 32,64 -10.67,0 -21.33,0 -32,0 -10.67,43 -21.33,86 -32,129 -10.67,10.67 -21.33,21.33 -32,32 -10.67,0 -21.33,0 -32,0 -10.67,32 -21.33,64 -32,96 -21.67,10.67 -43.33,21.33 -65,32 21.67,43 43.33,86 65,129 -21.87,43.66 -44.16,87.13 -65.77,130.91 -21.08,52.7 -42.16,105.39 -63.23,158.09 21.33,43 42.67,86 64,129 21.67,21.33 43.33,42.67 65,64 32,0 64,0 96,0 0,21.67 0,43.33 0,65 10.67,21.33 21.33,42.67 32,64 21.67,0 43.33,0 65,0 10.67,21.33 21.33,42.67 32,64 21.33,10.67 42.67,21.33 64,32 10.67,10.67 21.33,21.33 32,32 -10.67,32.33 -21.33,64.67 -32,97 0,21.33 0,42.67 0,64 -10.67,10.67 -21.33,21.33 -32,32 21.25,64.49 42.53,128.96 64.16,193.32 10.61,21.56 21.23,43.12 31.84,64.68 -10.67,32 -21.33,64 -32,96 10.67,0 21.33,0 32,0 10.67,10.67 21.33,21.33 32,32 32.33,10.67 64.67,21.33 97,32 0,11 0,22 0,33 -21.33,0 -42.67,0 -64,0 0,21.33 0,42.67 0,64 -21.67,10.67 -43.33,21.33 -65,32 32.33,32 64.67,64 97,96 -10.67,32.33 -21.33,64.67 -32,97 10.67,10.67 21.33,21.33 32,32 0,10.67 0,21.33 0,32 21.37,32.45 42.85,64.83 64.16,97.32 10.61,21.23 21.23,42.45 31.84,63.68 0,-10.67 0,-21.33 0,-32 53.67,0 107.33,0 161,0 -10.67,10.67 -21.33,21.33 -32,32 0,10.67 0,21.33 0,32 -10.67,10.67 -21.33,21.33 -32,32 0,21.67 0,43.33 0,65 21.33,-11 42.67,-22 64,-33 10.67,21.67 21.33,43.33 32,65 10.67,0 21.33,0 32,0 0,10.67 0,21.33 0,32 11,21.33 22,42.67 33,64 0,32.33 0,64.67 0,97 21.33,21.33 42.67,42.67 64,64 -10.67,10.67 -21.33,21.33 -32,32 10.67,0 21.33,0 32,0 10.67,21.33 21.33,42.67 32,64 0,11 0,22 0,33 10.67,21.33 21.33,42.67 32,64 21.33,10.67 42.67,21.33 64,32 11,10.67 22,21.33 33,32 -18.95,18.28 -37.9,36.57 -56,55.71 -2.35,4.12 -11.04,7.26 -7.5,12.29 10.17,20.33 20.33,40.67 30.5,61 -10.67,21.33 -21.33,42.67 -32,64 -10.67,0 -21.33,0 -32,0 10.67,21.33 21.33,42.67 32,64 0,11 0,22 0,33 -10.67,0 -21.33,0 -32,0 10.67,10.67 21.33,21.33 32,32 10.67,0 21.33,0 32,0 11,10.67 22,21.33 33,32 10.67,-10.67 21.33,-21.33 32,-32 0,10.67 0,21.33 0,32 21.33,-10.67 42.67,-21.33 64,-32 21.33,0 42.67,0 64,0 10.67,10.67 21.33,21.33 32,32 11,-10.67 22,-21.33 33,-32 21.33,10.67 42.67,21.33 64,32 10.67,-10.67 21.33,-21.33 32,-32 10.67,10.67 21.33,21.33 32,32 0,-10.67 0,-21.33 0,-32 21.67,0 43.33,0 65,0 10.67,-10.67 21.33,-21.33 32,-32 10.67,0 21.33,0 32,0 10.67,-11 21.33,-22 32,-33 32,-10.67 64,-21.33 96,-32 0,-10.67 0,-21.33 0,-32 11,0 22,0 33,0 0,-10.67 0,-21.33 0,-32 21.33,0 42.67,0 64,0 10.67,-10.67 21.33,-21.33 32,-32 0,-10.67 0,-21.33 0,-32 10.67,-10.67 21.33,-21.33 32,-32 21.78,0.1 43.57,-0.12 65.35,0.1 42.55,10.63 85.1,21.27 127.65,31.91 21.59,-21.41 42.93,-43.07 64,-65 32.33,0 64.67,0 97,0 -10.67,21.67 -21.33,43.33 -32,65 11.07,10.84 21.71,22.17 33.05,32.7 31.65,21.1 63.3,42.2 94.95,63.3 21.67,0 43.33,0 65,0 0,-10.67 0,-21.33 0,-32 10.69,10.8 21.6,21.38 32.16,32.32 10.61,21.23 21.23,42.45 31.84,63.68 21.44,-32.07 42.72,-64.24 64.25,-96.25 21.33,-21.51 42.91,-42.76 64.75,-63.75 10.67,0 21.33,0 32,0 10.67,-21.67 21.33,-43.33 32,-65 32,0 64,0 96,0 0,53.67 0,107.33 0,161 11,10.67 22,21.33 33,32 10.67,21.67 21.33,43.33 32,65 10.67,0 21.33,0 32,0 10.67,10.67 21.33,21.33 32,32 0,10.67 0,21.33 0,32 10.67,0 21.33,0 32,0 -10.67,10.67 -21.33,21.33 -32,32 10.8,10.69 21.38,21.6 32.32,32.16 21.23,10.61 42.45,21.23 63.68,31.84 0,-10.67 0,-21.33 0,-32 43,-21.33 86,-42.67 129,-64 0,10.67 0,21.33 0,32 21.33,10.67 42.67,21.33 64,32 21.67,0 43.33,0 65,0 21.33,10.67 42.67,21.33 64,32 21.33,0 42.67,0 64,0 0,21.67 0,43.33 0,65 10.67,10.67 21.33,21.33 32,32 0,21.33 0,42.67 0,64 11,10.67 22,21.33 33,32 -21.67,21.67 -43.33,43.33 -65,65 0,21.33 0,42.67 0,64 -10.67,10.67 -21.33,21.33 -32,32 10.67,21.33 21.33,42.67 32,64 32.33,32.33 64.67,64.67 97,97 0,10.67 0,21.33 0,32 -10.67,0 -21.33,0 -32,0 -11,10.67 -22,21.33 -33,32 0,10.67 0,21.33 0,32 -10.67,21.67 -21.33,43.33 -32,65 0,10.67 0,21.33 0,32 -10.67,10.67 -21.33,21.33 -32,32 10.67,10.67 21.33,21.33 32,32 0,10.67 0,21.33 0,32 -21.33,10.67 -42.67,21.33 -64,32 0,21.67 0,43.33 0,65 -21.33,0 -42.67,0 -64,0 -11,10.67 -22,21.33 -33,32 11,21.33 22,42.67 33,64 -11,0 -22,0 -33,0 -21.33,10.67 -42.67,21.33 -64,32 0,32.33 0,64.67 0,97 -21.33,10.67 -42.67,21.33 -64,32 -64.33,-10.67 -128.67,-21.33 -193,-32 0,21.33 0,42.67 0,64 -10.67,10.67 -21.33,21.33 -32,32 0,10.67 0,21.33 0,32 10.67,21.67 21.33,43.33 32,65 -10.67,21.33 -21.33,42.67 -32,64 0,64.33 0,128.67 0,193 -21.33,0 -42.67,0 -64,0 -11,10.67 -22,21.33 -33,32 -10.67,0 -21.33,0 -32,0 10.67,21.33 21.33,42.67 32,64 -32,32.33 -64,64.67 -96,97 0,10.67 0,21.33 0,32 -21.33,10.67 -42.67,21.33 -64,32 -11,21.33 -22,42.67 -33,64 11,21.67 22,43.33 33,65 21.33,0 42.67,0 64,0 21.33,32 42.67,64 64,96 0,10.67 0,21.33 0,32 10.67,10.67 21.33,21.33 32,32 -10.67,21.67 -21.33,43.33 -32,65 -10.67,10.67 -21.33,21.33 -32,32 -10.67,0 -21.33,0 -32,0 -10.67,10.67 -21.33,21.33 -32,32 21.33,21.33 42.67,42.67 64,64 -10.67,21.67 -21.33,43.33 -32,65 21.33,10.67 42.67,21.33 64,32 0,21.33 0,42.67 0,64 21.77,32.4 43.38,64.91 65.25,97.25 10.58,10.58 21.17,21.17 31.75,31.75 10.67,0 21.33,0 32,0 10.67,21.33 21.33,42.67 32,64 10.67,10.67 21.33,21.33 32,32 0,32.33 0,64.67 0,97 -10.67,0 -21.33,0 -32,0 -32,-21.67 -64,-43.33 -96,-65 -11,11 -22,22 -33,33 -10.67,0 -21.33,0 -32,0 0,10.67 0,21.33 0,32 -10.67,10.67 -21.33,21.33 -32,32 -21.33,-10.67 -42.67,-21.33 -64,-32 0,10.67 0,21.33 0,32 -10.67,0 -21.33,0 -32,0 -11,21.33 -22,42.67 -33,64 21.67,21.33 43.33,42.67 65,64 21.33,11 42.67,22 64,33 0,10.67 0,21.33 0,32 -32,10.67 -64,21.33 -96,32 -21.67,0 -43.33,0 -65,0 -21.33,10.67 -42.67,21.33 -64,32 -10.67,-10.67 -21.33,-21.33 -32,-32 -10.67,0 -21.33,0 -32,0 0,21.33 0,42.67 0,64 10.67,10.67 21.33,21.33 32,32 53.67,0 107.33,0 161,0 21.33,11 42.67,22 64,33 32,-11 64,-22 96,-33 21.67,21.67 43.33,43.33 65,65 21.33,10.67 42.67,21.33 64,32 10.67,32 21.33,64 32,96 21.33,0 42.67,0 64,0 0,11 0,22 0,33 -21.33,21.33 -42.67,42.67 -64,64 -42.67,10.67 -85.33,21.33 -128,32 -11,32 -22,64 -33,96 -42.67,0 -85.33,0 -128,0 10.67,11 21.33,22 32,33 -21.33,53.33 -42.67,106.67 -64,160 10.67,10.67 21.33,21.33 32,32 -32.33,21.67 -64.67,43.33 -97,65 10.67,21.33 21.33,42.67 32,64 -10.67,-10.67 -21.33,-21.33 -32,-32 -10.67,21.33 -21.33,42.67 -32,64 -10.67,10.67 -21.33,21.33 -32,32 0,11 0,22 0,33 10.67,10.67 21.33,21.33 32,32 -10.67,10.67 -21.33,21.33 -32,32 10.67,21.33 21.33,42.67 32,64 -21.33,21.33 -42.67,42.67 -64,64 -10.67,0 -21.33,0 -32,0 10.67,11 21.33,22 32,33 10.67,0 21.33,0 32,0 0,10.67 0,21.33 0,32 10.67,0 21.33,0 32,0 0,10.67 0,21.33 0,32 10.67,10.67 21.33,21.33 32,32 0,21.33 0,42.67 0,64 10.67,0 21.33,0 32,0 0,11 0,22 0,33 11,0 22,0 33,0 10.67,21.33 21.33,42.67 32,64 21.33,0 42.67,0 64,0 -10.67,21.33 -21.33,42.67 -32,64 10.67,10.67 21.33,21.33 32,32 -10.67,32.33 -21.33,64.67 -32,97 0,10.67 0,21.33 0,32 32,10.67 64,21.33 96,32 0,10.67 0,21.33 0,32 11,0 22,0 33,0 10.67,10.67 21.33,21.33 32,32 32,11 64,22 96,33 0,-11 0,-22 0,-33 21.33,11 42.67,22 64,33 32.33,0 64.67,0 97,0 10.67,10.67 21.33,21.33 32,32 0,10.67 0,21.33 0,32 10.67,-10.67 21.33,-21.33 32,-32 21.33,0 42.67,0 64,0 11,10.67 22,21.33 33,32 -11,10.67 -22,21.33 -33,32 0,10.67 0,21.33 0,32 11,0 22,0 33,0 21.33,10.67 42.67,21.33 64,32 0,21.67 0,43.33 0,65 -10.67,10.67 -21.33,21.33 -32,32 53.67,21.33 107.33,42.67 161,64 0,21.33 0,42.67 0,64 21.33,-10.67 42.67,-21.33 64,-32 10.67,10.67 21.33,21.33 32,32 53.67,0 107.33,0 161,0 0,21.67 0,43.33 0,65 21.33,0 42.67,0 64,0 0,10.67 0,21.33 0,32 21.33,10.67 42.67,21.33 64,32 11,0 22,0 33,0 10.67,-10.67 21.33,-21.33 32,-32 0,21.33 0,42.67 0,64 -32.33,32.33 -64.67,64.67 -97,97 0,21.33 0,42.67 0,64 32.33,0 64.67,0 97,0 -21.67,21.33 -43.33,42.67 -65,64 32.33,32.33 64.67,64.67 97,97 -32.33,10.67 -64.67,21.33 -97,32 0,10.67 0,21.33 0,32 11,10.67 22,21.33 33,32 21.33,0 42.67,0 64,0 21.33,21.33 42.67,42.67 64,64 0,21.67 0,43.33 0,65 -21.33,10.67 -42.67,21.33 -64,32 -10.67,0 -21.33,0 -32,0 10.67,-10.67 21.33,-21.33 32,-32 -10.67,-10.67 -21.33,-21.33 -32,-32 -10.67,10.67 -21.33,21.33 -32,32 -21.67,-10.67 -43.33,-21.33 -65,-32 -10.67,10.67 -21.33,21.33 -32,32 -32,10.67 -64,21.33 -96,32 0,10.67 0,21.33 0,32 -21.67,-10.67 -43.33,-21.33 -65,-32 -10.67,10.67 -21.33,21.33 -32,32 0,10.67 0,21.33 0,32 10.67,10.67 21.33,21.33 32,32 -10.67,11 -21.33,22 -32,33 10.67,10.67 21.33,21.33 32,32 21.67,0 43.33,0 65,0 10.67,32 21.33,64 32,96 21.33,0 42.67,0 64,0 0,10.67 0,21.33 0,32 21.33,10.67 42.67,21.33 64,32 0,-10.67 0,-21.33 0,-32 32.33,21.67 64.67,43.33 97,65 21.33,0 42.67,0 64,0 10.67,-11 21.33,-22 32,-33 0,11 0,22 0,33 10.67,0 21.33,0 32,0 21.67,32 43.33,64 65,96 10.67,-10.67 21.33,-21.33 32,-32 32,0 64,0 96,0 0,10.67 0,21.33 0,32 -10.67,10.67 -21.33,21.33 -32,32 0,10.67 0,21.33 0,32 -10.67,0 -21.33,0 -32,0 0,10.67 0,21.33 0,32 -21.33,11 -42.67,22 -64,33 -21.67,42.67 -43.33,85.33 -65,128 0,21.67 0,43.33 0,65 11,10.67 22,21.33 33,32 -11,10.67 -22,21.33 -33,32 11,32 22,64 33,96 -21.67,0 -43.33,0 -65,0 0,10.67 0,21.33 0,32 10.67,0 21.33,0 32,0 0,11 0,22 0,33 11,10.67 22,21.33 33,32 10.67,21.33 21.33,42.67 32,64 32,10.67 64,21.33 96,32 10.67,-10.67 21.33,-21.33 32,-32 32.33,-10.67 64.67,-21.33 97,-32 32,10.67 64,21.33 96,32 21.67,-32 43.33,-64 65,-96 32,0 64,0 96,0 0,21.33 0,42.67 0,64 21.33,0 42.67,0 64,0 11,10.67 22,21.33 33,32 10.67,-21.33 21.33,-42.67 32,-64 53.33,-21.67 106.67,-43.33 160,-65 11,-10.67 22,-21.33 33,-32 10.67,10.67 21.33,21.33 32,32 53.67,-10.67 107.33,-21.33 161,-32 10.67,-10.67 21.33,-21.33 32,-32 0.23,11.02 -0.47,22.14 0.36,33.1 10.55,31.96 21.09,63.93 31.64,95.9 -0.24,11.02 0.47,22.14 -0.36,33.09 -10.55,31.63 -21.09,63.27 -31.64,94.91 -10.67,11 -21.33,22 -32,33 21.33,10.67 42.67,21.33 64,32 21.33,-21.67 42.67,-43.33 64,-65 21.67,0 43.33,0 65,0 21.33,-21.33 42.67,-42.67 64,-64 32,-10.67 64,-21.33 96,-32 43,10.67 86,21.33 129,32 32,-21.33 64,-42.67 96,-64 32.33,10.67 64.67,21.33 97,32 10.8,-10.69 21.38,-21.6 32.32,-32.16 21.23,-10.61 42.45,-21.23 63.68,-31.84 0,-11 0,-22 0,-33 42.98,-21.15 86,-42.24 128.69,-63.96 12.75,-12.11 24.97,-24.89 37.53,-37.26 8.93,-8.93 17.85,-17.85 26.78,-26.78 21.67,0 43.33,0 65,0 21.33,-21.33 42.67,-42.67 64,-64 0,-11 0,-22 0,-33 21.33,-10.67 42.67,-21.33 64,-32 10.67,0 21.33,0 32,0 -10.67,21.67 -21.33,43.33 -32,65 0,10.67 0,21.33 0,32 21.33,0 42.67,0 64,0 0,32 0,64 0,96 11,0 22,0 33,0 0,32.33 0,64.67 0,97 10.67,0 21.33,0 32,0 21.33,-11 42.67,-22 64,-33 10.67,0 21.33,0 32,0 0,-32 0,-64 0,-96 10.67,0 21.33,0 32,0 10.67,-21.33 21.33,-42.67 32,-64 32.33,0 64.67,0 97,0 0,-10.67 0,-21.33 0,-32 21.33,10.67 42.67,21.33 64,32 0,-10.67 0,-21.33 0,-32 21.67,10.67 43.33,21.33 65,32 0,21.33 0,42.67 0,64 10.67,10.67 21.33,21.33 32,32 10.67,0 21.33,0 32,0 21.33,-10.67 42.67,-21.33 64,-32 10.67,-10.67 21.33,-21.33 32,-32 -0.23,-11.31 0.49,-22.69 -0.39,-33.95 -10.53,-53.02 -21.07,-106.03 -31.61,-159.05 21.33,0 42.67,0 64,0 11,-21.33 22,-42.67 33,-64 10.69,10.8 21.6,21.38 32.16,32.32 10.61,21.23 21.23,42.45 31.84,63.68 10.67,0 21.33,0 32,0 10.67,10.67 21.33,21.33 32,32 21.67,0 43.33,0 65,0 0,-10.67 0,-21.33 0,-32 -11,0 -22,0 -33,0 -21.33,-21.33 -42.67,-42.67 -64,-64 0,-10.67 0,-21.33 0,-32 10.67,-21.67 21.33,-43.33 32,-65 10.67,0 21.33,0 32,0 11,-10.67 22,-21.33 33,-32 0,-21.33 0,-42.67 0,-64 -11,0 -22,0 -33,0 0,-21.33 0,-42.67 0,-64 -21.33,-32.33 -42.67,-64.67 -64,-97 10.67,0 21.33,0 32,0 -53.67,0 -107.33,0 -161,0 -64,21.33 -128,42.67 -192,64 -11,0 -22,0 -33,0 -21.33,-21.33 -42.67,-42.67 -64,-64 10.67,-42.67 21.33,-85.33 32,-128 43,-11 86,-22 129,-33 10.67,-10.67 21.33,-21.33 32,-32 32,-10.67 64,-21.33 96,-32 0,-10.67 0,-21.33 0,-32 11,0 22,0 33,0 10.67,-10.67 21.33,-21.33 32,-32 0,-10.67 0,-21.33 0,-32 21.33,0 42.67,0 64,0 21.33,10.67 42.67,21.33 64,32 11,-10.67 22,-21.33 33,-32 32,-11 64,-22 96,-33 -10.67,0 -21.33,0 -32,0 0,-10.67 0,-21.33 0,-32 -21.33,-10.67 -42.67,-21.33 -64,-32 -11,-32 -22,-64 -33,-96 -21.33,0 -42.67,0 -64,0 0,-10.67 0,-21.33 0,-32 -10.67,-11 -21.33,-22 -32,-33 21.33,-21.33 42.67,-42.67 64,-64 0,-10.67 0,-21.33 0,-32 10.67,-10.67 21.33,-21.33 32,-32 32.33,10.67 64.67,21.33 97,32 32,-21.33 64,-42.67 96,-64 21.67,10.67 43.33,21.33 65,32 0,10.67 0,21.33 0,32 10.67,21.33 21.33,42.67 32,64 -10.67,0 -21.33,0 -32,0 -11,21.67 -22,43.33 -33,65 11,0 22,0 33,0 -21.67,21.33 -43.33,42.67 -65,64 0,10.67 0,21.33 0,32 -10.67,10.67 -21.33,21.33 -32,32 21.33,21.33 42.67,42.67 64,64 11,0 22,0 33,0 21.46,-10.66 42.82,-21.55 64.35,-32.07 53.55,-10.65 107.1,-21.29 160.65,-31.93 21.33,-32 42.67,-64 64,-96 21.33,0 42.67,0 64,0 10.67,-10.67 21.33,-21.33 32,-32 -10.67,0 -21.33,0 -32,0 21.67,-21.67 43.33,-43.33 65,-65 0,21.67 0,43.33 0,65 21.33,0 42.67,0 64,0 10.67,21.33 21.33,42.67 32,64 -32.08,21.43 -64.24,42.73 -96.26,64.25 -10.91,10.59 -21.83,21.17 -32.74,31.75 0,10.67 0,21.33 0,32 11,11 22,22 33,33 42.67,-11 85.33,-22 128,-33 10.67,0 21.33,0 32,0 11,-10.67 22,-21.33 33,-32 10.67,0 21.33,0 32,0 42.67,-32 85.33,-64 128,-96 21.67,10.67 43.33,21.33 65,32 21.33,-53.67 42.67,-107.33 64,-161 -10.67,-10.67 -21.33,-21.33 -32,-32 10.67,0 21.33,0 32,0 32,21.33 64,42.67 96,64 11,0 22,0 33,0 21.08,21.91 42.39,43.6 64,65 21.33,0 42.67,0 64,0 21.33,21.33 42.67,42.67 64,64 -10.67,32 -21.33,64 -32,96 32.33,0 64.67,0 97,0 32,-21.33 64,-42.67 96,-64 21.33,0 42.67,0 64,0 11,-21.33 22,-42.67 33,-64 21.33,0 42.67,0 64,0 10.67,-10.67 21.33,-21.33 32,-32 53.67,-10.67 107.33,-21.33 161,-32 32,10.67 64,21.33 96,32 11,-10.67 22,-21.33 33,-32 10.67,0 21.33,0 32,0 0,-11 0,-22 0,-33 10.67,-21.33 21.33,-42.67 32,-64 -10.67,-10.67 -21.33,-21.33 -32,-32 53.33,-32.33 106.67,-64.67 160,-97 11,0 22,0 33,0 21.33,-10.67 42.67,-21.33 64,-32 11.11,-0.21 22.3,0.43 33.36,-0.34 42.55,-10.54 85.09,-21.1 127.64,-31.66 21.33,-21.33 42.67,-42.67 64,-64 -10.67,-10.67 -21.33,-21.33 -32,-32 0,-10.67 0,-21.33 0,-32 31.45,-32.88 63.87,-64.8 96,-97 10.67,0 21.33,0 32,0 21.67,-10.67 43.33,-21.33 65,-32 10.67,-10.67 21.33,-21.33 32,-32 10.67,0 21.33,0 32,0 21.33,-10.67 42.67,-21.33 64,-32 10.67,-11 21.33,-22 32,-33 21.67,11 43.33,22 65,33 32,-21.67 64,-43.33 96,-65 32.43,-10.74 64.91,-21.34 97.32,-32.16 21.23,-10.61 42.45,-21.23 63.68,-31.84 0,10.67 0,21.33 0,32 53.67,0 107.33,0 161,0 42.67,10.67 85.33,21.33 128,32 11.39,-10.85 22.41,-22.14 34.05,-32.7 31.65,-21.1 63.3,-42.2 94.95,-63.3 64.33,0 128.67,0 193,0 10.67,-32.33 21.33,-64.67 32,-97 21.33,-10.67 42.67,-21.33 64,-32 11,-10.67 22,-21.33 33,-32 10.67,0 21.33,0 32,0 10.67,10.67 21.33,21.33 32,32 32,0 64,0 96,0 43.1,-21.14 86.11,-42.45 129,-64 0,-10.67 0,-21.33 0,-32 42.67,0 85.33,0 128,0 21.67,10.67 43.33,21.33 65,32 21.33,0 42.67,0 64,0 43,43 86,86 129,129 10.67,42.67 21.33,85.33 32,128 0,10.67 0,21.33 0,32 -10.67,21.67 -21.33,43.33 -32,65 10.67,10.67 21.33,21.33 32,32 10.67,0 21.33,0 32,0 0,32 0,64 0,96 21.33,0 42.67,0 64,0 11,10.67 22,21.33 33,32 10.67,0 21.33,0 32,0 10.69,11.13 21.6,22.06 32.16,33.32 10.61,21.23 21.23,42.45 31.84,63.68 -10.67,10.67 -21.33,21.33 -32,32 0,21.33 0,42.67 0,64 32,-10.67 64,-21.33 96,-32 10.67,10.67 21.33,21.33 32,32 11,-10.67 22,-21.33 33,-32 10.67,10.67 21.33,21.33 32,32 -10.67,32.33 -21.33,64.67 -32,97 0,42.67 0,85.33 0,128 10.67,0 21.33,0 32,0 10.67,11 21.33,22 32,33 10.67,-11 21.33,-22 32,-33 21.33,21.67 42.67,43.33 64,65 10.67,-10.67 21.33,-21.33 32,-32 0,-11 0,-22 0,-33 11.02,11.14 22.27,22.06 33.16,33.32 10.61,21.23 21.23,42.45 31.84,63.68 10.67,0 21.33,0 32,0 21.33,-43 42.67,-86 64,-129 10.67,21.67 21.33,43.33 32,65 21.67,-11 43.33,-22 65,-33 21.33,21.67 42.67,43.33 64,65 21.33,0 42.67,0 64,0 -21.33,21.33 -42.67,42.67 -64,64 0,10.67 0,21.33 0,32 10.67,0 21.33,0 32,0 -10.67,-10.67 -21.33,-21.33 -32,-32 32.33,0 64.67,0 97,0 10.67,10.67 21.33,21.33 32,32 10.67,0 21.33,0 32,0 32,-42.67 64,-85.33 96,-128 -10.67,-11 -21.33,-22 -32,-33 10.67,0 21.33,0 32,0 10.67,11 21.33,22 32,33 21.67,10.67 43.33,21.33 65,32 10.67,-10.67 21.33,-21.33 32,-32 10.67,0 21.33,0 32,0 10.67,-11 21.33,-22 32,-33 21.33,-10.67 42.67,-21.33 64,-32 21.67,0 43.33,0 65,0 10.67,10.67 21.33,21.33 32,32 10.67,0 21.33,0 32,0 0,-10.67 0,-21.33 0,-32 -10.67,-10.67 -21.33,-21.33 -32,-32 0,-10.67 0,-21.33 0,-32 21.33,-10.67 42.67,-21.33 64,-32 0,-10.67 0,-21.33 0,-32 10.67,0 21.33,0 32,0 21.67,10.67 43.33,21.33 65,32 21.33,0 42.67,0 64,0 -10.67,21.33 -21.33,42.67 -32,64 10.67,0 21.33,0 32,0 0,32.33 0,64.67 0,97 21.33,0 42.67,0 64,0 -10.67,-21.67 -21.33,-43.33 -32,-65 0,-10.67 0,-21.33 0,-32 10.67,10.67 21.33,21.33 32,32 0,-21.33 0,-42.67 0,-64 11,10.67 22,21.33 33,32 21.33,-10.67 42.67,-21.33 64,-32 10.67,21.33 21.33,42.67 32,64 10.67,-10.67 21.33,-21.33 32,-32 10.67,10.67 21.33,21.33 32,32 21.67,0 43.33,0 65,0 10.67,21.67 21.33,43.33 32,65 0,-11 0,-22 0,-33 21.33,-10.67 42.67,-21.33 64,-32 32,21.67 64,43.33 96,65 11,-11 22,-22 33,-33 32,0 64,0 96,0 10.67,21.67 21.33,43.33 32,65 10.67,-10.67 21.33,-21.33 32,-32 11,0 22,0 33,0 0,21.33 0,42.67 0,64 10.67,10.67 21.33,21.33 32,32 10.67,0 21.33,0 32,0 10.67,10.67 21.33,21.33 32,32 -10.67,10.67 -21.33,21.33 -32,32 33.63,34.11 67.03,68.46 101.41,101.83 9.2,9.06 18.39,18.11 27.59,27.17 0,21.33 0,42.67 0,64 -11,10.67 -22,21.33 -33,32 -10.67,0 -21.33,0 -32,0 0,21.67 0,43.33 0,65 -10.8,10.69 -21.38,21.6 -32.32,32.16 -21.23,10.61 -42.45,21.23 -63.68,31.84 -10.67,0 -21.33,0 -32,0 0,10.67 0,21.33 0,32 10.67,0 21.33,0 32,0 -10.67,10.67 -21.33,21.33 -32,32 -32.33,0 -64.67,0 -97,0 -32,32.33 -64,64.67 -96,97 10.67,10.67 21.33,21.33 32,32 -21.67,0 -43.33,0 -65,0 -10.67,21.33 -21.33,42.67 -32,64 0,10.67 0,21.33 0,32 10.67,10.67 21.33,21.33 32,32 -10.67,11 -21.33,22 -32,33 21.67,0 43.33,0 65,0 0,21.33 0,42.67 0,64 -21.67,0 -43.33,0 -65,0 -21.33,43 -42.67,86 -64,129 -21.33,10.67 -42.67,21.33 -64,32 0,-10.67 0,-21.33 0,-32 -21.67,0 -43.33,0 -65,0 -32,21.33 -64,42.67 -96,64 0,10.67 0,21.33 0,32 -10.67,0 -21.33,0 -32,0 10.67,-10.67 21.33,-21.33 32,-32 -10.67,-10.67 -21.33,-21.33 -32,-32 -75,32 -150,64 -225,96 -43,0 -86,0 -129,0 0,-10.67 0,-21.33 0,-32 -32,0 -64,0 -96,0 -11,10.67 -22,21.33 -33,32 -10.67,21.33 -21.33,42.67 -32,64 -10.67,11 -21.33,22 -32,33 -11.02,0.24 -22.14,-0.47 -33.09,0.36 -31.63,10.55 -63.27,21.09 -94.91,31.64 0,-10.67 0,-21.33 0,-32 -11,0 -22,0 -33,0 0,-11 0,-22 0,-33 -10.67,0 -21.33,0 -32,0 10.67,-21.33 21.33,-42.67 32,-64 -10.67,-10.67 -21.33,-21.33 -32,-32 -32,0 -64,0 -96,0 -21.33,21.33 -42.67,42.67 -64,64 -21.67,10.67 -43.33,21.33 -65,32 -21.33,21.67 -42.67,43.33 -64,65 -21.33,10.67 -42.67,21.33 -64,32 -32.33,-21.33 -64.67,-42.67 -97,-64 -32,21.33 -64,42.67 -96,64 -11,0 -22,0 -33,0 -42.67,21.33 -85.33,42.67 -128,64 -10.67,10.67 -21.33,21.33 -32,32 0,11 0,22 0,33 -32.33,21.33 -64.67,42.67 -97,64 -21.33,-21.33 -42.67,-42.67 -64,-64 -21.33,32 -42.67,64 -64,96 -32.33,0 -64.67,0 -97,0 -10.67,-10.67 -21.33,-21.33 -32,-32 -11.07,10.84 -21.71,22.18 -33.06,32.7 -32.05,21.2 -64.21,42.25 -96.19,63.56 -21.25,21.58 -42.5,43.16 -63.75,64.74 10.67,10.67 21.33,21.33 32,32 -10.67,10.67 -21.33,21.33 -32,32 0,10.67 0,21.33 0,32 -64.33,0 -128.67,0 -193,0 0,21.33 0,42.67 0,64 -10.67,11 -21.33,22 -32,33 10.67,10.67 21.33,21.33 32,32 -10.67,21.33 -21.33,42.67 -32,64 10.67,0 21.33,0 32,0 0,10.67 0,21.33 0,32 -10.67,10.67 -21.33,21.33 -32,32 0,21.67 0,43.33 0,65 -10.67,10.67 -21.33,21.33 -32,32 0,10.67 0,21.33 0,32 -10.67,10.67 -21.33,21.33 -32,32 0,32.33 0,64.67 0,97 -10.67,10.67 -21.33,21.33 -32,32 10.67,0 21.33,0 32,0 0,10.67 0,21.33 0,32 10.67,0 21.33,0 32,0 -10.67,21.33 -21.33,42.67 -32,64 10.67,0 21.33,0 32,0 -10.67,10.67 -21.33,21.33 -32,32 10.67,10.67 21.33,21.33 32,32 -21.33,11 -42.67,22 -64,33 10.67,10.67 21.33,21.33 32,32 -21.67,10.67 -43.33,21.33 -65,32 11,21.33 22,42.67 33,64 -11,10.67 -22,21.33 -33,32 -21.33,0 -42.67,0 -64,0 -10.67,11 -21.33,22 -32,33 -10.67,0 -21.33,0 -32,0 0,10.67 0,21.33 0,32 -10.67,0 -21.33,0 -32,0 -21.67,10.67 -43.33,21.33 -65,32 0,21.33 0,42.67 0,64 -10.67,10.67 -21.33,21.33 -32,32 0,21.67 0,43.33 0,65 -10.67,10.67 -21.33,21.33 -32,32 10.67,10.67 21.33,21.33 32,32 10.67,0 21.33,0 32,0 0,32 0,64 0,96 32.33,0 64.67,0 97,0 32,11 64,22 96,33 -10.67,10.67 -21.33,21.33 -32,32 21.33,10.67 42.67,21.33 64,32 0,10.67 0,21.33 0,32 11,10.67 22,21.33 33,32 -11,10.67 -22,21.33 -33,32 32.33,-10.67 64.67,-21.33 97,-32 0,10.67 0,21.33 0,32 32,10.67 64,21.33 96,32 0,11 0,22 0,33 10.67,21.33 21.33,42.67 32,64 0,10.67 0,21.33 0,32 11,21.33 22,42.67 33,64 -11,0 -22,0 -33,0 32.33,11 64.67,22 97,33 21.33,21.33 42.67,42.67 64,64 10.67,0 21.33,0 32,0 21.91,21.08 43.6,42.39 65,64 -32.45,0 -64.9,-0.1 -97.35,0.1 -53.55,10.65 -107.1,21.29 -160.65,31.93 -10.67,-10.67 -21.33,-21.33 -32,-32 -21.33,0 -42.67,0 -64,0 0,10.67 0,21.33 0,32 -10.67,10.67 -21.33,21.33 -32,32 -21.33,0 -42.67,0 -64,0 -11,11 -22,22 -33,33 -32,0 -64,0 -96,0 10.69,-11.13 21.6,-22.06 32.16,-33.32 10.61,-21.23 21.23,-42.45 31.84,-63.68 -32,-10.67 -64,-21.33 -96,-32 -21.33,0 -42.67,0 -64,0 -32.33,21.33 -64.67,42.67 -97,64 0,-32 0,-64 0,-96 10.67,-10.67 21.33,-21.33 32,-32 -10.67,-21.67 -21.33,-43.33 -32,-65 -32,0 -64,0 -96,0 -11,21.67 -22,43.33 -33,65 -10.67,10.67 -21.33,21.33 -32,32 -32,0 -64,0 -96,0 -10.67,10.67 -21.33,21.33 -32,32 0,21.33 0,42.67 0,64 -10.67,10.67 -21.33,21.33 -32,32 -11,0 -22,0 -33,0 -10.67,11 -21.33,22 -32,33 0,10.67 0,21.33 0,32 -10.67,10.67 -21.33,21.33 -32,32 -10.67,-10.67 -21.33,-21.33 -32,-32 -10.67,0 -21.33,0 -32,0 -32.39,31.94 -64.94,63.72 -97,96 -32,0 -64,0 -96,0 -21.33,21.33 -42.67,42.67 -64,64 0,-10.67 0,-21.33 0,-32 -11,-10.67 -22,-21.33 -33,-32 -21.33,21.33 -42.67,42.67 -64,64 10.67,0 21.33,0 32,0 -10.67,0 -21.33,0 -32,0 0,32.33 0,64.67 0,97 21.33,21.33 42.67,42.67 64,64 21.67,-21.33 43.33,-42.67 65,-64 10.67,0 21.33,0 32,0 0,21.33 0,42.67 0,64 21.33,0 42.67,0 64,0 -42.67,0 -85.33,0 -128,0 -11,10.67 -22,21.33 -33,32 -21.33,0 -42.67,0 -64,0 -10.67,32.33 -21.33,64.67 -32,97 0,10.67 0,21.33 0,32 10.67,0 21.33,0 32,0 -21.33,21.33 -42.67,42.67 -64,64 0,21.67 0,43.33 0,65 -10.67,-10.67 -21.33,-21.33 -32,-32 0,-32.33 0,-64.67 0,-97 -21.67,0 -43.33,0 -65,0 -10.67,10.67 -21.33,21.33 -32,32 10.67,-21.33 21.33,-42.67 32,-64 -10.67,0 -21.33,0 -32,0 -10.8,10.69 -21.38,21.6 -32.32,32.16 -21.23,10.61 -42.45,21.23 -63.68,31.84 32,10.67 64,21.33 96,32 -10.67,11 -21.33,22 -32,33 10.67,0 21.33,0 32,0 0,10.67 0,21.33 0,32 -10.67,10.67 -21.33,21.33 -32,32 0,-10.67 0,-21.33 0,-32 -10.67,0 -21.33,0 -32,0 0,-10.67 0,-21.33 0,-32 -21.33,-11 -42.67,-22 -64,-33 -11,11 -22,22 -33,33 11,-21.67 22,-43.33 33,-65 -21.67,0 -43.33,0 -65,0 0,-10.67 0,-21.33 0,-32 -21.33,10.67 -42.67,21.33 -64,32 -10.67,-10.67 -21.33,-21.33 -32,-32 -10.67,0 -21.33,0 -32,0 0,21.33 0,42.67 0,64 21.33,11 42.67,22 64,33 -10.67,21.33 -21.33,42.67 -32,64 10.67,0 21.33,0 32,0 0,21.33 0,42.67 0,64 -43,0 -86,0 -129,0 0,-21.33 0,-42.67 0,-64 -10.67,-10.67 -21.33,-21.33 -32,-32 -32,10.67 -64,21.33 -96,32 -21.67,21.33 -43.33,42.67 -65,64 0,10.67 0,21.33 0,32 21.67,10.67 43.33,21.33 65,32 0,-10.67 0,-21.33 0,-32 0,32.33 0,64.67 0,97 10.67,0 21.33,0 32,0 -10.67,0 -21.33,0 -32,0 10.67,10.67 21.33,21.33 32,32 0,10.67 0,21.33 0,32 -43,0 -86,0 -129,0 -10.67,21.33 -21.33,42.67 -32,64 -21.33,0 -42.67,0 -64,0 10.67,0 21.33,0 32,0 -10.67,-10.67 -21.33,-21.33 -32,-32 -10.67,21.33 -21.33,42.67 -32,64 0,-21.33 0,-42.67 0,-64 -32.33,0 -64.67,0 -97,0 10.67,-10.67 21.33,-21.33 32,-32 -10.67,-10.67 -21.33,-21.33 -32,-32 -21.33,0 -42.67,0 -64,0 -32.33,10.67 -64.67,21.33 -97,32 -32,21.33 -64,42.67 -96,64 -32.33,43 -64.67,86 -97,129 0,10.67 0,21.33 0,32 -21.33,10.67 -42.67,21.33 -64,32 -10.67,-10.67 -21.33,-21.33 -32,-32 -21.33,10.67 -42.67,21.33 -64,32 -10.67,0 -21.33,0 -32,0 0,-10.67 0,-21.33 0,-32 -11,0 -22,0 -33,0 -21.33,10.67 -42.67,21.33 -64,32 -21.33,32.33 -42.67,64.67 -64,97 0,53.67 0,107.33 0,161 21.33,64 42.67,128 64,192 32.33,0 64.67,0 97,0 0,21.67 0,43.33 0,65 -21.67,21.33 -43.33,42.67 -65,64 21.67,43 43.33,86 65,129 0,53.33 0,106.67 0,160 -11,-10.67 -22,-21.33 -33,-32 0,21.67 0,43.33 0,65 -42.67,21.33 -85.33,42.67 -128,64 -10.67,-10.67 -21.33,-21.33 -32,-32 -10.67,10.67 -21.33,21.33 -32,32 0,-10.67 0,-21.33 0,-32 -32.33,-10.67 -64.67,-21.33 -97,-32 -21.33,21.33 -42.67,42.67 -64,64 -10.67,0 -21.33,0 -32,0 -11,10.67 -22,21.33 -33,32 -10.67,0 -21.33,0 -32,0 0,10.67 0,21.33 0,32 -21.33,0 -42.67,0 -64,0 0,-21.33 0,-42.67 0,-64 -32,0 -64,0 -96,0 0,-21.33 0,-42.67 0,-64 -11,-11 -22,-22 -33,-33 -21.33,0 -42.67,0 -64,0 0,-21.33 0,-42.67 0,-64 -10.67,-10.67 -21.33,-21.33 -32,-32 -43,0 -86,0 -129,0 -10.67,10.67 -21.33,21.33 -32,32 -32,10.67 -64,21.33 -96,32 -10.67,0 -21.33,0 -32,0 -11,-10.67 -22,-21.33 -33,-32 11,-21.33 22,-42.67 33,-64 -32.33,0 -64.67,0 -97,0 0,-10.67 0,-21.33 0,-32 -21.33,0 -42.67,0 -64,0 -10.67,10.67 -21.33,21.33 -32,32 0,-10.67 0,-21.33 0,-32 -32.33,0 -64.67,0 -97,0 -10.67,10.67 -21.33,21.33 -32,32 -10.67,-21.67 -21.33,-43.33 -32,-65 -96.67,0 -193.33,0 -290,0 0,-10.67 0,-21.33 0,-32 -11.31,0.23 -22.68,-0.49 -33.94,0.39 -52.69,10.54 -105.37,21.07 -158.06,31.61 0,-10.67 0,-21.33 0,-32 -21.67,-10.67 -43.33,-21.33 -65,-32 -54.12,0.11 -108.26,-0.23 -162.36,0.17 -85.33,10.65 -170.67,21.18 -255.99,31.93 -117.55,32.3 -235.1,64.6 -352.65,96.9 -21.67,10.67 -43.33,21.33 -65,32 -10.67,21.33 -21.33,42.67 -32,64 -21.33,-10.67 -42.67,-21.33 -64,-32 -32.33,21.33 -64.67,42.67 -97,64 -10.67,11 -21.33,22 -32,33 0,10.67 0,21.33 0,32 -10.67,10.67 -21.33,21.33 -32,32 -10.67,0 -21.33,0 -32,0 10.67,-10.67 21.33,-21.33 32,-32 -21.59,-21.41 -42.93,-43.07 -64,-65 -32.43,11.07 -64.91,22.02 -97.32,33.16 -85.56,42.61 -171.21,85.04 -256.68,127.84 0,21.67 0,43.33 0,65 -10.67,0 -21.33,0 -32,0 -10.67,10.67 -21.33,21.33 -32,32 32,-10.67 64,-21.33 96,-32 -10.69,10.8 -21.6,21.38 -32.16,32.32 -10.61,21.23 -21.23,42.45 -31.84,63.68 0,21.33 0,42.67 0,64 -21.33,10.67 -42.67,21.33 -64,32 0,11 0,22 0,33 10.67,0 21.33,0 32,0 -10.67,10.67 -21.33,21.33 -32,32 -11,0 -22,0 -33,0 -32,21.33 -64,42.67 -96,64 0,21.33 0,42.67 0,64 10.67,10.67 21.33,21.33 32,32 10.67,-10.67 21.33,-21.33 32,-32 0,10.67 0,21.33 0,32 10.67,0 21.33,0 32,0 -21.12,21.8 -42.2,43.69 -64,64.8 -21.14,11.04 -42.7,21.42 -64,32.2 0,43 0,86 0,129 10.67,0 21.33,0 32,0 -21.33,0 -42.67,0 -64,0 -11,10.67 -22,21.33 -33,32 0,10.67 0,21.33 0,32 -10.67,-10.67 -21.33,-21.33 -32,-32 10.67,-10.67 21.33,-21.33 32,-32 -75,0 -150,0 -225,0 -32,32 -64,64 -96,96 10.67,10.67 21.33,21.33 32,32 -21.33,0 -42.67,0 -64,0 -10.67,10.67 -21.33,21.33 -32,32 0,21.67 0,43.33 0,65 -10.67,21.33 -21.33,42.67 -32,64 0,-10.67 0,-21.33 0,-32 10.67,-21.33 21.33,-42.67 32,-64 -18.28,-18.95 -36.57,-37.9 -55.71,-56 -3.96,-2.11 -7.97,-12.09 -11.88,-6.42 -20.72,20.56 -41.18,41.38 -61.41,62.42 0,-11 0,-22 0,-33 -21.33,0 -42.67,0 -64,0 0,-32 0,-64 0,-96 21.33,-10.67 42.67,-21.33 64,-32 -10.67,-21.67 -21.33,-43.33 -32,-65 -10.67,-10.67 -21.33,-21.33 -32,-32 -32.33,-10.67 -64.67,-21.33 -97,-32 -42.67,0 -85.33,0 -128,0 0,21.33 0,42.67 0,64 -11,-21.33 -22,-42.67 -33,-64 -10.67,0 -21.33,0 -32,0 -10.67,10.67 -21.33,21.33 -32,32 10.67,0 21.33,0 32,0 10.67,21.67 21.33,43.33 32,65 0,10.67 0,21.33 0,32 -21.33,0 -42.67,0 -64,0 0,21.33 0,42.67 0,64 10.67,10.67 21.33,21.33 32,32 -10.67,0 -21.33,0 -32,0 0,10.67 0,21.33 0,32 -10.67,21.67 -21.33,43.33 -32,65 -10.67,0 -21.33,0 -32,0 10.67,-21.67 21.33,-43.33 32,-65 -32,-10.67 -64,-21.33 -96,-32 -64.33,10.67 -128.67,21.33 -193,32 -64.56,32.42 -129.07,64.93 -193.66,97.29 -171.45,74.89 -342.89,149.81 -514.34,224.71 -160.78,96.38 -321.52,192.82 -482.32,289.16 -128.56,64.28 -257.12,128.56 -385.68,192.84 -21.33,21.33 -42.67,42.67 -64,64 -32.33,11 -64.67,22 -97,33 -107.11,75.05 -214.17,150.18 -321.31,225.18 -74.9,42.6 -149.79,85.21 -224.69,127.82 -96.67,86 -193.33,172 -290,258 0,42.67 0,85.33 0,128 -32.28,32.06 -64.06,64.61 -96,97 21.33,21.33 42.67,42.67 64,64 0,10.67 0,21.33 0,32 10.67,0 21.33,0 32,0 -10.67,10.67 -21.33,21.33 -32,32 10.67,10.67 21.33,21.33 32,32 -10.67,0 -21.33,0 -32,0 0,11 0,22 0,33 -10.67,-11 -21.33,-22 -32,-33 -10.67,11 -21.33,22 -32,33 0,10.67 0,21.33 0,32 -11.02,0.24 -22.15,-0.47 -33.1,0.36 -32.07,10.62 -64.18,21.1 -96.22,31.8 -42.56,21.28 -85.12,42.56 -127.68,63.84 -22.11,21.56 -43.82,43.56 -66.17,64.84 -75.78,54.13 -151.36,108.52 -227.27,162.46 -63.19,42.23 -126.37,84.47 -189.56,126.7 -10.67,10.67 -21.33,21.33 -32,32 0,21.33 0,42.67 0,64 -21.42,10.76 -42.92,21.36 -64.29,32.22 -42.9,32.27 -85.81,64.52 -128.71,96.78 0,10.67 0,21.33 0,32 -42.67,10.67 -85.33,21.33 -128,32 -225,139.33 -450,278.67 -675,418 -11,0 -22,0 -33,0 0,10.67 0,21.33 0,32 -53.33,32.33 -106.67,64.67 -160,97 -11,21.33 -22,42.67 -33,64 -75,21.33 -150,42.67 -225,64 -65.3,43.55 -130.43,87.38 -195.85,130.75 -138.38,85.08 -276.77,170.17 -415.15,255.25 -55.71,44.79 -111.18,89.89 -167.05,134.48 -190.66,148.17 -381.3,296.35 -571.95,444.52 -107.4,107.43 -214.87,214.81 -322.23,322.28 -53.26,63.9 -106.51,127.81 -159.77,191.72 -17.28,52.35 -34.33,104.77 -52.56,156.79 -4.14,12.07 -8.29,24.14 -12.44,36.21 -32,0 -64,0 -96,0 0.24,11.35 -0.47,22.81 0.36,34.09 10.55,31.63 21.09,63.27 31.64,94.91 10.67,10.67 21.33,21.33 32,32 0,32.33 0,64.67 0,97 -21.33,21.33 -42.67,42.67 -64,64 -10.67,43 -21.33,86 -32,129 0,10.67 0,21.33 0,32 10.67,0 21.33,0 32,0 0,21.33 0,42.67 0,64 0,-10.67 0,-21.33 0,-32 -21.33,0 -42.67,0 -64,0 -32.4,21.44 -64.91,42.71 -97.25,64.25 -43.03,42.98 -85.96,86.05 -129.04,128.97 -85.57,64.26 -171.14,128.52 -256.71,192.78 -107,117.67 -214,235.33 -321,353 -10.67,0 -21.33,0 -32,0 0,-21.33 0,-42.67 0,-64 22.1,-21.95 43.9,-44.2 66.19,-65.95 95.61,-85.01 191.21,-170.04 286.81,-255.05 -10.67,-11 -21.33,-22 -32,-33 10.67,-10.67 21.33,-21.33 32,-32 -21.33,0 -42.67,0 -64,0 -10.67,10.67 -21.33,21.33 -32,32 -21.33,-10.67 -42.67,-21.33 -64,-32 0,32.33 0,64.67 0,97 -21.67,0 -43.33,0 -65,0 -10.67,10.67 -21.33,21.33 -32,32 -10.67,-10.67 -21.33,-21.33 -32,-32 -42.9,21.54 -85.9,42.87 -129,64 -53.74,-43.09 -107.55,-86.1 -161.25,-129.25 -10.61,-10.72 -21.43,-21.22 -31.91,-32.07 -10.61,-21.23 -21.23,-42.45 -31.84,-63.68 -21.33,0 -42.67,0 -64,0 -21.33,-10.67 -42.67,-21.33 -64,-32 -11,-21.67 -22,-43.33 -33,-65 32.33,-10.67 64.67,-21.33 97,-32 10.67,-21.33 21.33,-42.67 32,-64 0,-21.33 0,-42.67 0,-64 10.67,0 21.33,0 32,0 10.67,-10.67 21.33,-21.33 32,-32 -41.22,-21.39 -82.58,-42.53 -124.21,-63.11 -7.1,-2.02 -2.47,-11.29 -3.79,-16.89 -1.01,-6.2 2.22,-14.16 -2.03,-19 -20.99,-20.66 -41.98,-41.34 -62.97,-62 0,-10.67 0,-21.33 0,-32 -21.33,-32.33 -42.67,-64.67 -64,-97 0,-10.67 0,-21.33 0,-32 -10.67,-10.67 -21.33,-21.33 -32,-32 10.67,-21.33 21.33,-42.67 32,-64 -10.67,-32.33 -21.33,-64.67 -32,-97 10.67,-10.67 21.33,-21.33 32,-32 0,-10.67 0,-21.33 0,-32 -10.67,0 -21.33,0 -32,0 -21.33,-10.67 -42.67,-21.33 -64,-32 0,-11 0,-22 0,-33 10.67,-10.67 21.33,-21.33 32,-32 -10.67,0 -21.33,0 -32,0 0,-10.67 0,-21.33 0,-32 -21.14,-21.37 -42.64,-42.38 -64.2,-63.32 -4.19,-6.26 -6.91,-13.49 -10.52,-20.13 -7.43,-14.85 -14.85,-29.7 -22.28,-44.55 -10.67,10.67 -21.33,21.33 -32,32 0,21.33 0,42.67 0,64 -21.33,0 -42.67,0 -64,0 0,21.33 0,42.67 0,64 -10.67,10.67 -21.33,21.33 -32,32 0,32.33 0,64.67 0,97 -11,0 -22,0 -33,0 -10.67,-21.33 -21.33,-42.67 -32,-64 -10.67,0 -21.33,0 -32,0 0,10.67 0,21.33 0,32 -21.33,21.33 -42.67,42.67 -64,64 -10.67,21.33 -21.33,42.67 -32,64 -21.67,21.67 -43.33,43.33 -65,65 0,-21.67 0,-43.33 0,-65 10.67,0 21.33,0 32,0 0,-32 0,-64 0,-96 -10.67,0 -21.33,0 -32,0 -10.67,10.67 -21.33,21.33 -32,32 0,-10.67 0,-21.33 0,-32 -21.33,0 -42.67,0 -64,0 0,-21.33 0,-42.67 0,-64 -32.33,-32.33 -64.67,-64.67 -97,-97 -10.67,0 -21.33,0 -32,0 0,-10.67 0,-21.33 0,-32 -21.71,-10.74 -43.26,-21.87 -65.09,-32.36 -31.63,-10.55 -63.27,-21.09 -94.91,-31.64 -11,10.67 -22,21.33 -33,32 -21.33,0 -42.67,0 -64,0 -64.33,42.67 -128.67,85.33 -193,128 -10.67,43 -21.33,86 -32,129 0,21.33 0,42.67 0,64 -21.33,0 -42.67,0 -64,0 -11.18,11.4 -22.83,22.38 -33.7,34.05 -21.2,31.72 -42.25,63.55 -63.55,95.2 -10.61,10.72 -21.43,21.22 -31.91,32.07 -10.61,21.23 -21.23,42.45 -31.84,63.68 -10.67,0 -21.33,0 -32,0 -43.25,-42.41 -86.28,-85.06 -129,-128 0,-21.33 0,-42.67 0,-64 -10.67,-11 -21.33,-22 -32,-33 0,-10.67 0,-21.33 0,-32 -21.33,0 -42.67,0 -64,0 0,-21.33 0,-42.67 0,-64 -10.67,-10.67 -21.33,-21.33 -32,-32 0,-10.67 0,-21.33 0,-32 -11,0 -22,0 -33,0 0,-43 0,-86 0,-129 11,0 22,0 33,0 0,-10.67 0,-21.33 0,-32 21.33,-10.67 42.67,-21.33 64,-32 10.67,-21.67 21.33,-43.33 32,-65 0,-21.33 0,-42.67 0,-64 10.67,-10.67 21.33,-21.33 32,-32 -10.67,-10.67 -21.33,-21.33 -32,-32 10.67,-10.67 21.33,-21.33 32,-32 -10.67,-11 -21.33,-22 -32,-33 0,-53.33 0,-106.67 0,-160 10.67,0 21.33,0 32,0 0,10.67 0,21.33 0,32 10.67,-21.33 21.33,-42.67 32,-64 -10.67,0 -21.33,0 -32,0 21.08,-21.91 42.39,-43.6 64,-65 0,-21.33 0,-42.67 0,-64 -32,0 -64,0 -96,0 10.67,-10.67 21.33,-21.33 32,-32 -10.67,-21.67 -21.33,-43.33 -32,-65 10.67,-21.33 21.33,-42.67 32,-64 10.67,-10.67 21.33,-21.33 32,-32 0,-32 0,-64 0,-96 32.4,-21.77 64.91,-43.38 97.25,-65.25 10.72,-10.61 21.22,-21.43 32.07,-31.91 21.23,-10.61 42.45,-21.23 63.68,-31.84 0,-21.33 0,-42.67 0,-64 10.67,0 21.33,0 32,0 0,-21.67 0,-43.33 0,-65 10.67,-10.67 21.33,-21.33 32,-32 0,-10.67 0,-21.33 0,-32 -10.67,-10.67 -21.33,-21.33 -32,-32 0,10.67 0,21.33 0,32 -32,0 -64,0 -96,0 0,-10.67 0,-21.33 0,-32 -10.67,-10.67 -21.33,-21.33 -32,-32 -10.67,0 -21.33,0 -32,0 0,-10.67 0,-21.33 0,-32 -11,0 -22,0 -33,0 0,-11 0,-22 0,-33 -21.33,0 -42.67,0 -64,0 -10.67,-21.33 -21.33,-42.67 -32,-64 0,-10.67 0,-21.33 0,-32 -10.69,-10.8 -21.6,-21.38 -32.16,-32.32 -10.61,-21.56 -21.23,-43.12 -31.84,-64.68 -10.67,11 -21.33,22 -32,33 -21.67,-21.67 -43.33,-43.33 -65,-65 -10.67,10.67 -21.33,21.33 -32,32 -10.67,-10.67 -21.33,-21.33 -32,-32 -21.33,21.67 -42.67,43.33 -64,65 -21.67,0 -43.33,0 -65,0 0,10.67 0,21.33 0,32 -21.33,10.67 -42.67,21.33 -64,32 -10.67,21.33 -21.33,42.67 -32,64 -21.33,-10.67 -42.67,-21.33 -64,-32 10.67,0 21.33,0 32,0 -10.67,-10.67 -21.33,-21.33 -32,-32 10.67,-10.67 21.33,-21.33 32,-32 -10.67,0 -21.33,0 -32,0 10.67,-10.67 21.33,-21.33 32,-32 -10.67,-11 -21.33,-22 -32,-33 -21.67,-10.67 -43.33,-21.33 -65,-32 0,43 0,86 0,129 -21.33,-21.33 -42.67,-42.67 -64,-64 -43,10.67 -86,21.33 -129,32 -21.33,10.67 -42.67,21.33 -64,32 -10.67,0 -21.33,0 -32,0 0,-21.33 0,-42.67 0,-64 -10.67,0 -21.33,0 -32,0 -10.67,21.33 -21.33,42.67 -32,64 -21.67,10.67 -43.33,21.33 -65,32 -10.67,-32 -21.33,-64 -32,-96 -21.33,-11 -42.67,-22 -64,-33 -21.67,0 -43.33,0 -65,0 -10.67,-21.33 -21.33,-42.67 -32,-64 -10.67,-10.67 -21.33,-21.33 -32,-32 -21.33,21.33 -42.67,42.67 -64,64 -21.33,-21.33 -42.67,-42.67 -64,-64 -11,10.67 -22,21.33 -33,32 21.67,21.33 43.33,42.67 65,64 -10.67,0 -21.33,0 -32,0 -21.67,-10.67 -43.33,-21.33 -65,-32 -53.67,10.67 -107.33,21.33 -161,32 -10.67,0 -21.33,0 -32,0 0,11 0,22 0,33 -10.67,0 -21.33,0 -32,0 -10.67,-11 -21.33,-22 -32,-33 -32,0 -64,0 -96,0 -21.67,21.67 -43.33,43.33 -65,65 -10.67,-21.67 -21.33,-43.33 -32,-65 -21.33,0 -42.67,0 -64,0 0,-10.67 0,-21.33 0,-32 -21.33,0 -42.67,0 -64,0 0,-21.33 0,-42.67 0,-64 -11,0 -22,0 -33,0 -21.33,10.67 -42.67,21.33 -64,32 10.67,-32 21.33,-64 32,-96 10.67,0 21.33,0 32,0 0,-10.67 0,-21.33 0,-32 -10.67,0 -21.33,0 -32,0 -21.33,10.67 -42.67,21.33 -64,32 -21.33,-10.67 -42.67,-21.33 -64,-32 -11,0 -22,0 -33,0 -10.67,10.67 -21.33,21.33 -32,32 10.67,10.67 21.33,21.33 32,32 11,-10.67 22,-21.33 33,-32 -11,10.67 -22,21.33 -33,32 0,21.33 0,42.67 0,64 -10.69,10.8 -21.6,21.38 -32.16,32.32 -10.61,21.56 -21.23,43.12 -31.84,64.68 -10.67,0 -21.33,0 -32,0 -10.67,10.67 -21.33,21.33 -32,32 -10.67,0 -21.33,0 -32,0 -11,-21.67 -22,-43.33 -33,-65 -10.67,0 -21.33,0 -32,0 0,11 0,22 0,33 -21.33,0 -42.67,0 -64,0 0,-11 0,-22 0,-33 -10.67,0 -21.33,0 -32,0 -10.67,21.67 -21.33,43.33 -32,65 -21.67,-10.67 -43.33,-21.33 -65,-32 -10.67,-11 -21.33,-22 -32,-33 -85.67,0 -171.33,0 -257,0 -10.67,11 -21.33,22 -32,33 0,10.67 0,21.33 0,32 -21.33,0 -42.67,0 -64,0 0,21.33 0,42.67 0,64 -53.67,0 -107.33,0 -161,0 -21.33,-10.67 -42.67,-21.33 -64,-32 -32.33,0 -64.67,0 -97,0 -32,-32.33 -64,-64.67 -96,-97 -11,0 -22,0 -33,0 0,-10.67 0,-21.33 0,-32 -10.67,0 -21.33,0 -32,0 10.67,-21.33 21.33,-42.67 32,-64 0,-10.67 0,-21.33 0,-32 -10.67,0 -21.33,0 -32,0 0,-10.67 0,-21.33 0,-32 -10.67,0 -21.33,0 -32,0 10.67,-32.33 21.33,-64.67 32,-97 -10.67,-10.67 -21.33,-21.33 -32,-32 0,-10.67 0,-21.33 0,-32 21.33,-21.33 42.67,-42.67 64,-64 -21.33,-10.67 -42.67,-21.33 -64,-32 10.67,0 21.33,0 32,0 0,-11 0,-22 0,-33 -10.67,-21.33 -21.33,-42.67 -32,-64 0,-21.33 0,-42.67 0,-64 10.67,0 21.33,0 32,0 10.67,-10.67 21.33,-21.33 32,-32 11,10.67 22,21.33 33,32 10.67,-21.67 21.33,-43.33 32,-65 10.67,-10.67 21.33,-21.33 32,-32 -10.67,-10.67 -21.33,-21.33 -32,-32 0,-21.33 0,-42.67 0,-64 -10.67,-21.67 -21.33,-43.33 -32,-65 11.02,-0.24 22.14,0.47 33.09,-0.36 31.63,-10.55 63.27,-21.09 94.91,-31.64 0,-21.33 0,-42.67 0,-64 21.41,-21.59 43.07,-42.93 65,-64 10.67,0 21.33,0 32,0 0,-21.67 0,-43.33 0,-65 -10.67,0 -21.33,0 -32,0 10.67,-21.33 21.33,-42.67 32,-64 -10.67,-10.67 -21.33,-21.33 -32,-32 21.33,-21.33 42.67,-42.67 64,-64 10.67,-21.67 21.33,-43.33 32,-65 0,-10.67 0,-21.33 0,-32 -10.67,0 -21.33,0 -32,0 -10.67,21.67 -21.33,43.33 -32,65 -10.67,-11 -21.33,-22 -32,-33 0,-10.67 0,-21.33 0,-32 42.89,-64.19 85.6,-128.49 128,-193 10.67,0 21.33,0 32,0 32.33,-32 64.67,-64 97,-96 -10.67,-10.67 -21.33,-21.33 -32,-32 -21.67,0 -43.33,0 -65,0 -10.67,-10.67 -21.33,-21.33 -32,-32 -32,0 -64,0 -96,0 0,-21.67 0,-43.33 0,-65 -10.67,0 -21.33,0 -32,0 -21.67,-21.33 -43.33,-42.67 -65,-64 -10.67,0 -21.33,0 -32,0 -10.67,10.67 -21.33,21.33 -32,32 -10.67,-10.67 -21.33,-21.33 -32,-32 0,-21.33 0,-42.67 0,-64 -18.28,-18.95 -36.57,-37.91 -55.72,-56 -2.43,-4.02 -11.39,-6.98 -7.73,-12 10.48,-20.33 20.96,-40.67 31.45,-61 -11,-10.67 -22,-21.33 -33,-32 -10.67,0 -21.33,0 -32,0 10.67,-10.67 21.33,-21.33 32,-32 -10.67,-10.67 -21.33,-21.33 -32,-32 -21.33,0 -42.67,0 -64,0 0,-11 0,-22 0,-33 -43.07,-32.1 -86.23,-64.08 -129.25,-96.25 -10.58,-10.58 -21.17,-21.17 -31.75,-31.75 21.67,-10.67 43.33,-21.33 65,-32 0,-75 0,-150 0,-225 21.33,-11 42.67,-22 64,-33 -10.67,-10.67 -21.33,-21.33 -32,-32 0,-10.67 0,-21.33 0,-32 -10.67,0 -21.33,0 -32,0 -32.33,-21.33 -64.67,-42.67 -97,-64 0,-10.67 0,-21.33 0,-32 -10.67,-11 -21.33,-22 -32,-33 -10.67,11 -21.33,22 -32,33 -10.67,-11 -21.33,-22 -32,-33 -11,11 -22,22 -33,33 0,-11 0,-22 0,-33 -32,-10.67 -64,-21.33 -96,-32 10.67,-10.67 21.33,-21.33 32,-32 -10.67,0 -21.33,0 -32,0 10.67,-10.67 21.33,-21.33 32,-32 -32,-10.67 -64,-21.33 -96,-32 -10.67,0 -21.33,0 -32,0 0,-10.67 0,-21.33 0,-32 -11,-10.67 -22,-21.33 -33,-32 11,-11 22,-22 33,-33 -11,0 -22,0 -33,0 0,-10.67 0,-21.33 0,-32 -21.33,-10.67 -42.67,-21.33 -64,-32 -21.33,-21.33 -42.67,-42.67 -64,-64 0,-21.33 0,-42.67 0,-64 -10.67,0 -21.33,0 -32,0 0,-11 0,-22 0,-33 -32.33,0 -64.67,0 -97,0 10.67,-10.67 21.33,-21.33 32,-32 -10.67,0 -21.33,0 -32,0 10.67,0 21.33,0 32,0 10.67,-10.67 21.33,-21.33 32,-32 -10.67,0 -21.33,0 -32,0 0,-10.67 0,-21.33 0,-32 -10.67,-10.67 -21.33,-21.33 -32,-32 -10.67,0 -21.33,0 -32,0 0,-10.67 0,-21.33 0,-32 10.67,-11 21.33,-22 32,-33 0,-10.67 0,-21.33 0,-32 -21.33,-10.67 -42.67,-21.33 -64,-32 -10.67,0 -21.33,0 -32,0 0,-10.67 0,-21.33 0,-32 21.33,0 42.67,0 64,0 0,-10.67 0,-21.33 0,-32 -10.67,0 -21.33,0 -32,0 0,-10.67 0,-21.33 0,-32 -10.67,-11 -21.33,-22 -32,-33 -10.67,11 -21.33,22 -32,33 -11,-21.67 -22,-43.33 -33,-65 32.33,0 64.67,0 97,0 -10.67,-10.67 -21.33,-21.33 -32,-32 0,-10.67 0,-21.33 0,-32 -10.67,0 -21.33,0 -32,0 0,-10.67 0,-21.33 0,-32 -21.67,10.67 -43.33,21.33 -65,32 0,10.67 0,21.33 0,32 -21.33,-10.67 -42.67,-21.33 -64,-32 -10.67,0 -21.33,0 -32,0 0,-10.67 0,-21.33 0,-32 -21.92,-22.23 -44.34,-43.95 -66.67,-65.77 -10.23,-10.3 -20.16,-20.88 -30.33,-31.23 0,-32 0,-64 0,-96 -21.33,21.33 -42.67,42.67 -64,64 -10.67,-21.33 -21.33,-42.67 -32,-64 -10.67,-10.67 -21.33,-21.33 -32,-32 0,-21.33 0,-42.67 0,-64 -10.67,-11 -21.33,-22 -32,-33 10.67,0 21.33,0 32,0 10.67,-10.67 21.33,-21.33 32,-32 -21.33,-10.67 -42.67,-21.33 -64,-32 10.67,0 21.33,0 32,0 21.33,10.67 42.67,21.33 64,32 -10.67,-10.67 -21.33,-21.33 -32,-32 0,-10.67 0,-21.33 0,-32 10.67,0 21.33,0 32,0 42.9,-21.54 85.9,-42.87 129,-64 0,-43 0,-86 0,-129 -11,-21.33 -22,-42.67 -33,-64 0,-11 0,-22 0,-33 11,-10.67 22,-21.33 33,-32 -21.67,-10.67 -43.33,-21.33 -65,-32 10.67,-10.67 21.33,-21.33 32,-32 0,-32 0,-64 0,-96 21.67,10.67 43.33,21.33 65,32 10.67,0 21.33,0 32,0 -10.67,-21.67 -21.33,-43.33 -32,-65 0,-10.67 0,-21.33 0,-32 10.67,-21.33 21.33,-42.67 32,-64 -10.67,-10.67 -21.33,-21.33 -32,-32 0,-10.67 0,-21.33 0,-32 -10.67,0 -21.33,0 -32,0 0,-10.67 0,-21.33 0,-32 -11,0 -22,0 -33,0 -10.67,-11 -21.33,-22 -32,-33 -10.67,0 -21.33,0 -32,0 0,-21.33 0,-42.67 0,-64 -10.67,0 -21.33,0 -32,0 0,-10.67 0,-21.33 0,-32 -21.33,-10.67 -42.67,-21.33 -64,-32 0,-10.67 0,-21.33 0,-32 -21.67,-11 -43.33,-22 -65,-33 11,-10.67 22,-21.33 33,-32 0,-10.67 0,-21.33 0,-32 -11,0 -22,0 -33,0 0,-21.33 0,-42.67 0,-64 -10.67,-10.67 -21.33,-21.33 -32,-32 10.67,-21.67 21.33,-43.33 32,-65 21.67,-21.33 43.33,-42.67 65,-64 0,-10.67 0,-21.33 0,-32 -10.67,-10.67 -21.33,-21.33 -32,-32 10.67,-21.67 21.33,-43.33 32,-65 -10.67,-21.33 -21.33,-42.67 -32,-64 10.67,-10.67 21.33,-21.33 32,-32 -32.4,-21.44 -64.91,-42.71 -97.25,-64.25 -10.58,-10.58 -21.17,-21.17 -31.75,-31.75 10.67,-11 21.33,-22 32,-33 10.67,0 21.33,0 32,0 -10.67,-21.33 -21.33,-42.67 -32,-64 10.67,-10.67 21.33,-21.33 32,-32 0,-21.33 0,-42.67 0,-64 21.67,10.67 43.33,21.33 65,32 0,-53.67 0,-107.33 0,-161 21.33,-21.33 42.67,-42.67 64,-64 10.67,0 21.33,0 32,0 10.67,10.67 21.33,21.33 32,32 10.67,0 21.33,0 32,0 -10.67,-10.67 -21.33,-21.33 -32,-32 10.67,-11 21.33,-22 32,-33 -21.33,0 -42.67,0 -64,0 0,-21.33 0,-42.67 0,-64 -10.67,0 -21.33,0 -32,0 -10.67,-10.67 -21.33,-21.33 -32,-32 -10.67,0 -21.33,0 -32,0 0,-21.33 0,-42.67 0,-64 -32.33,0 -64.67,0 -97,0 0,-10.67 0,-21.33 0,-32 32.33,-11 64.67,-22 97,-33 10.67,11 21.33,22 32,33 10.67,-11 21.33,-22 32,-33 -10.67,-10.67 -21.33,-21.33 -32,-32 0,-10.67 0,-21.33 0,-32 -32.33,-21.33 -64.67,-42.67 -97,-64 -32,0 -64,0 -96,0 0,-32.33 0,-64.67 0,-97 10.67,11 21.33,22 32,33 10.67,-21.67 21.33,-43.33 32,-65 0,-21.33 0,-42.67 0,-64 -10.67,-21.33 -21.33,-42.67 -32,-64 0,-32.33 0,-64.67 0,-97 -21.33,-42.67 -42.67,-85.33 -64,-128 -10.67,-11 -21.33,-22 -32,-33 10.67,-21.33 21.33,-42.67 32,-64 -10.67,0 -21.33,0 -32,0 -11,-10.67 -22,-21.33 -33,-32 0,-32.33 0,-64.67 0,-97 -32,-53.33 -64,-106.67 -96,-160 -10.67,-10.67 -21.33,-21.33 -32,-32 10.67,-11 21.33,-22 32,-33 -32,0 -64,0 -96,0 -11,-10.67 -22,-21.33 -33,-32 0,-10.67 0,-21.33 0,-32 -10.67,10.67 -21.33,21.33 -32,32 -10.67,-21.33 -21.33,-42.67 -32,-64 -21.33,-10.67 -42.67,-21.33 -64,-32 -10.67,-10.67 -21.33,-21.33 -32,-32 21.33,-32.33 42.67,-64.67 64,-97 -21.33,-21.33 -42.67,-42.67 -64,-64 -21.67,0 -43.33,0 -65,0 -21.33,10.67 -42.67,21.33 -64,32 -21.33,-10.67 -42.67,-21.33 -64,-32 -21.67,0 -43.33,0 -65,0 -10.67,-10.67 -21.33,-21.33 -32,-32 -10.67,0 -21.33,0 -32,0 -10.67,-10.67 -21.33,-21.33 -32,-32 0,-11 0,-22 0,-33 -10.67,0 -21.33,0 -32,0 -21.33,-21.33 -42.67,-42.67 -64,-64 -32.33,10.67 -64.67,21.33 -97,32 -21.33,0 -42.67,0 -64,0 -21.41,-21.59 -43.07,-42.93 -65,-64 -10.67,10.67 -21.33,21.33 -32,32 -21.33,-21.33 -42.67,-42.67 -64,-64 -21.33,0 -42.67,0 -64,0 0,-43 0,-86 0,-129 10.67,-21.33 21.33,-42.67 32,-64 0,-10.67 0,-21.33 0,-32 10.67,0 21.33,0 32,0 0,-10.67 0,-21.33 0,-32 -32.45,-21.71 -64.83,-43.52 -97.32,-65.16 -21.23,-10.61 -42.45,-21.23 -63.68,-31.84 -32,0 -64,0 -96,0 -32.33,-32 -64.67,-64 -97,-96 0,-11 0,-22 0,-33 10.67,-10.67 21.33,-21.33 32,-32 11,-32 22,-64 33,-96 -11,-21.33 -22,-42.67 -33,-64 0,-11 0,-22 0,-33 -32,-21.33 -64,-42.67 -96,-64 -10.67,10.67 -21.33,21.33 -32,32 0,10.67 0,21.33 0,32 10.67,21.67 21.33,43.33 32,65 -10.67,10.67 -21.33,21.33 -32,32 -21.33,0 -42.67,0 -64,0 -11,-32.33 -22,-64.67 -33,-97 -21.33,0 -42.67,0 -64,0 -32,-10.67 -64,-21.33 -96,-32 0,10.67 0,21.33 0,32 -32.33,32.33 -64.67,64.67 -97,97 -21.33,-10.67 -42.67,-21.33 -64,-32 -21.67,0 -43.33,0 -65,0 -21.33,32 -42.67,64 -64,96 -32,0 -64,0 -96,0 -32.33,-10.67 -64.67,-21.33 -97,-32 -21.33,21.33 -42.67,42.67 -64,64 -32,10.67 -64,21.33 -96,32 -32.33,0 -64.67,0 -97,0 -21.33,-10.67 -42.67,-21.33 -64,-32 -21.67,10.67 -43.33,21.33 -65,32 -10.67,0 -21.33,0 -32,0 0,-10.67 0,-21.33 0,-32 -10.8,-10.69 -21.38,-21.6 -32.32,-32.16 -42.89,-21.28 -85.79,-42.56 -128.68,-63.84 -21.33,10.67 -42.67,21.33 -64,32 -21.33,0 -42.67,0 -64,0 -10.67,21.33 -21.33,42.67 -32,64 -53.67,0 -107.33,0 -161,0 -10.67,-21.33 -21.33,-42.67 -32,-64 -21.33,-21.33 -42.67,-42.67 -64,-64 0,-10.67 0,-21.33 0,-32 -32.33,-21.67 -64.67,-43.33 -97,-65 -21.33,10.67 -42.67,21.33 -64,32 -21.67,0 -43.33,0 -65,0 -10.67,11 -21.33,22 -32,33 0,32 0,64 0,96 -10.67,0 -21.33,0 -32,0 -10.67,21.33 -21.33,42.67 -32,64 -32.33,-10.67 -64.67,-21.33 -97,-32 -21.33,10.67 -42.67,21.33 -64,32 -32,-21.33 -64,-42.67 -96,-64 -10.67,0 -21.33,0 -32,0 -21.67,21.33 -43.33,42.67 -65,64 -21.33,-10.67 -42.67,-21.33 -64,-32 -10.69,-10.8 -21.6,-21.38 -32.16,-32.32 -10.61,-21.23 -21.23,-42.45 -31.84,-63.68 -10.8,-10.69 -21.39,-21.6 -32.32,-32.16 -21.69,-10.95 -43.28,-22.09 -65.03,-32.93 -42.55,-10.63 -85.1,-21.27 -127.65,-31.91 -21.67,21.67 -43.33,43.33 -65,65 -21.33,10.67 -42.67,21.33 -64,32 -21.84,-10.77 -43.45,-22.03 -65.43,-32.49 -31.86,-10.83 -63.71,-21.68 -95.57,-32.51 -10.67,-21.33 -21.33,-42.67 -32,-64 -32,0 -64,0 -96,0 -21.71,20.98 -43.4,42 -64.48,63.61 -7.25,11.53 -13.58,23.69 -20.47,35.46 -36.02,63.31 -72.03,126.62 -108.05,189.93 -32.33,11 -64.67,22 -97,33 -21.33,0 -42.67,0 -64,0 -21.08,-21.91 -42.39,-43.6 -64,-65 -64.33,0 -128.67,0 -193,0 -10.67,-10.67 -21.33,-21.33 -32,-32 10.65,-64.46 21.45,-128.89 32,-193.36 0,-21.21 0,-42.43 0,-63.64 -32.33,-10.67 -64.67,-21.33 -97,-32 -10.67,-32.33 -21.33,-64.67 -32,-97 -10.69,-10.8 -21.6,-21.38 -32.16,-32.32 -21.28,-42.56 -42.56,-85.12 -63.84,-127.68 -64.33,-43 -128.67,-86 -193,-129 -10.67,-10.67 -21.33,-21.33 -32,-32 -53.67,0 -107.33,0 -161,0 -21.33,10.67 -42.67,21.33 -64,32 -11,0 -22,0 -33,0 -21.33,-32.33 -42.67,-64.67 -64,-97 -32,0 -64,0 -96,0 -21.67,11 -43.33,22 -65,33 -21.33,0 -42.67,0 -64,0 -85.67,-43 -171.33,-86 -257,-129 -85.67,0 -171.33,0 -257,0 -64.33,-21.33 -128.67,-42.67 -193,-64 -32.45,-21.71 -64.83,-43.52 -97.32,-65.16 -21.61,-10.69 -43.05,-21.77 -64.78,-32.2 -31.96,-10.55 -63.93,-21.09 -95.9,-31.64 -10.67,0 -21.33,0 -32,0 -32,-21.33 -64,-42.67 -96,-64 -10.67,-43 -21.33,-86 -32,-129 -11,0 -22,0 -33,0 -21.33,-21.33 -42.67,-42.67 -64,-64 -21.33,-10.67 -42.67,-21.33 -64,-32 -32.33,10.67 -64.67,21.33 -97,32 -11.11,-0.21 -22.29,0.43 -33.35,-0.34 -42.22,-10.54 -84.43,-21.1 -126.65,-31.66 -21.78,-0.1 -43.57,0.12 -65.35,-0.1 -42.55,-10.63 -85.1,-21.27 -127.65,-31.91 -21.67,10.67 -43.33,21.33 -65,32 -21.33,0 -42.67,0 -64,0 -43,-21.67 -86,-43.33 -129,-65 -32,0 -64,0 -96,0 -32,43 -64,86 -96,129 -11,0 -22,0 -33,0 -42.67,21.33 -85.33,42.67 -128,64 -21.67,0 -43.33,0 -65,0 -10.67,-10.67 -21.33,-21.33 -32,-32 -42.67,10.67 -85.33,21.33 -128,32 -10.67,11 -21.33,22 -32,33 -22.05,-11.07 -43.92,-22.54 -66.09,-33.36 -31.63,-10.55 -63.27,-21.09 -94.91,-31.64 -43.12,-32.04 -86.14,-64.2 -129.32,-96.16 -21.23,-10.61 -42.45,-21.23 -63.68,-31.84 -75,0 -150,0 -225,0 -32.33,21.33 -64.67,42.67 -97,64 -32,0 -64,0 -96,0 -10.67,-21.46 -21.53,-42.83 -32.09,-64.35 -10.63,-42.89 -21.27,-85.77 -31.91,-128.65 0,-10.67 0,-21.33 0,-32 -21.67,0 -43.33,0 -65,0 -10.67,-10.67 -21.33,-21.33 -32,-32 -10.67,0 -21.33,0 -32,0 -21.33,-10.67 -42.67,-21.33 -64,-32 -118,32 -236,64 -354,96 -11.02,-0.23 -22.14,0.47 -33.1,-0.36 -31.96,-10.55 -63.93,-21.09 -95.9,-31.64 -31.2,-31.27 -62.65,-62.28 -93.26,-94.13 -12.35,-12.33 -24.35,-25.05 -37.18,-36.89 -63.51,-53 -127.04,-105.99 -190.56,-158.98 -32.33,0 -64.67,0 -97,0 -53.33,-32 -106.67,-64 -160,-96 -43,-10.67 -86,-21.33 -129,-32 -53.67,0 -107.33,0 -161,0 -54.23,-32.56 -108.28,-65.46 -162.63,-97.82 -20.79,-10.4 -41.58,-20.79 -62.37,-31.18 -10.67,0 -21.33,0 -32,0 -21.33,10.67 -42.67,21.33 -64,32 -10.85,11.39 -22.13,22.42 -32.71,34.05 -21.42,31.65 -42.86,63.3 -64.29,94.95 -10.67,32 -21.33,64 -32,96 -0.21,11.44 0.43,22.96 -0.34,34.35 -10.54,42.22 -21.1,84.43 -31.66,126.65 0.28,11.65 -0.6,23.37 0.49,34.96 10.5,63.35 21.01,126.7 31.51,190.04 -43,10.67 -86,21.33 -129,32 -36.57,18.91 -73.12,37.84 -110.13,55.89 -27.62,13.7 -55.25,27.41 -82.87,41.11 -10.67,0 -21.33,0 -32,0 0,-53.67 0,-107.33 0,-161 -21.44,-32.07 -42.72,-64.24 -64.25,-96.25 -10.58,-10.58 -21.17,-21.17 -31.75,-31.75 -43,10.67 -86,21.33 -129,32 -21.33,10.67 -42.67,21.33 -64,32 -21.33,21.33 -42.67,42.67 -64,64 -32.33,-10.67 -64.67,-21.33 -97,-32 -75,0 -150,0 -225,0 -54.19,-21.65 -108.54,-42.93 -162.63,-64.82 -20.79,-10.4 -41.58,-20.79 -62.37,-31.18 -10.67,0 -21.33,0 -32,0 -10.67,-11 -21.33,-22 -32,-33 -21.67,0 -43.33,0 -65,0 0,11 0,22 0,33 -21.33,0 -42.67,0 -64,0 -53.67,32 -107.33,64 -161,96 -10.67,0 -21.33,0 -32,0 -32.12,-21.37 -64.16,-42.85 -96.32,-64.16 -21.56,-10.61 -43.12,-21.23 -64.68,-31.84 -10.67,0 -21.33,0 -32,0 -42.67,-43 -85.33,-86 -128,-129 -21.67,-32.33 -43.33,-64.67 -65,-97 -10.67,0 -21.33,0 -32,0 -21.87,11.45 -44.04,22.37 -65.73,34.15 -95.76,63.95 -191.51,127.9 -287.27,191.85 -64.33,21.33 -128.67,42.67 -193,64 -32.33,0 -64.67,0 -97,0 -42.67,-21.33 -85.33,-42.67 -128,-64 -43,-11 -86,-22 -129,-33 -10.67,-10.67 -21.33,-21.33 -32,-32 -43,0 -86,0 -129,0 -53.67,21.67 -107.33,43.33 -161,65 -21.69,-11.33 -43.65,-22.21 -65.17,-33.83 -74.61,-53.06 -149.22,-106.12 -223.83,-159.17 -32,-11 -64,-22 -96,-33 -75,11 -150,22 -225,33 -11.13,10.69 -22.06,21.6 -33.32,32.16 -42.56,21.28 -85.12,42.56 -127.68,63.84 0,10.67 0,21.33 0,32 -21.67,10.67 -43.33,21.33 -65,32 -42.41,43.25 -85.06,86.27 -128,129 -43,10.67 -86,21.33 -129,32 -21.33,32.33 -42.67,64.67 -64,97 -21.18,-64.38 -42.51,-128.72 -64,-193 z m 39098,3826 c 0,10.67 0,21.33 0,32 -10.67,0 -21.33,0 -32,0 0,-10.67 0,-21.33 0,-32 10.67,-10.67 21.33,-21.33 32,-32 -10.67,0 -21.33,0 -32,0 0,10.67 0,21.33 0,32 m -804,1672 c 0,-10.67 0,-21.33 0,-32 0,10.67 0,21.33 0,32 21.33,0 42.67,0 64,0 -10.67,10.67 -21.33,21.33 -32,32 10.67,0 21.33,0 32,0 0,10.67 0,21.33 0,32 -10.67,10.67 -21.33,21.33 -32,32 0,-10.67 0,-21.33 0,-32 -10.67,-10.67 -21.33,-21.33 -32,-32 0,-10.67 0,-21.33 0,-32 z m -4727,418 c 0,-10.67 0,-21.33 0,-32 0,10.67 0,21.33 0,32 z m 3827,-1447 c 10.67,0 21.33,0 32,0 -10.67,0 -21.33,0 -32,0 z m 836,-64 c -10.67,0 -21.33,0 -32,0 10.67,-10.67 21.33,-21.33 32,-32 0,10.67 0,21.33 0,32 -10.67,0 -21.33,0 -32,0 10.67,0 21.33,0 32,0 z m 643,-804 c 0,-10.67 0,-21.33 0,-32 0,10.67 0,21.33 0,32 z m -1929,1125 c 0,-10.67 0,-21.33 0,-32 0,10.67 0,21.33 0,32 z m 64,1640 c 0,-10.67 0,-21.33 0,-32 0,10.67 0,21.33 0,32 z m 1833,-2444 c 10.67,0 21.33,0 32,0 0,10.67 0,21.33 0,32 -10.67,0 -21.33,0 -32,0 0,-10.67 0,-21.33 0,-32 z m -1962,2444 c 0,-10.67 0,-21.33 0,-32 0,10.67 0,21.33 0,32 z m 225,-321 c -10.67,0 -21.33,0 -32,0 0,10.67 0,21.33 0,32 -10.67,0 -21.33,0 -32,0 0,10.67 0,21.33 0,32 32.33,10.67 64.67,21.33 97,32 -11,10.67 -22,21.33 -33,32 11,10.67 22,21.33 33,32 10.67,0 21.33,0 32,0 21.33,21.67 42.67,43.33 64,65 10.67,-21.67 21.33,-43.33 32,-65 10.67,10.67 21.33,21.33 32,32 10.67,0 21.33,0 32,0 11,11 22,22 33,33 -11,10.67 -22,21.33 -33,32 -10.67,-10.67 -21.33,-21.33 -32,-32 0,64 0,128 0,192 10.67,0 21.33,0 32,0 -10.67,11 -21.33,22 -32,33 0,10.67 0,21.33 0,32 -21.33,21.33 -42.67,42.67 -64,64 -32,-10.67 -64,-21.33 -96,-32 -21.67,-32.33 -43.33,-64.67 -65,-97 10.67,-21.33 21.33,-42.67 32,-64 -21.33,-32 -42.67,-64 -64,-96 -21.33,10.67 -42.67,21.33 -64,32 0,-10.67 0,-21.33 0,-32 -10.67,10.67 -21.33,21.33 -32,32 -11,0 -22,0 -33,0 -10.67,-10.67 -21.33,-21.33 -32,-32 -10.67,10.67 -21.33,21.33 -32,32 -10.67,0 -21.33,0 -32,0 0,10.67 0,21.33 0,32 -21.33,-10.67 -42.67,-21.33 -64,-32 -11,21.33 -22,42.67 -33,64 -64.12,10.65 -128.22,21.45 -192.36,32 -11.23,0.24 -22.57,-0.47 -33.73,0.36 -31.63,10.55 -63.27,21.09 -94.91,31.64 -32,-10.67 -64,-21.33 -96,-32 -21.67,-32 -43.33,-64 -65,-96 0,-53.67 0,-107.33 0,-161 10.67,0 21.33,0 32,0 21.67,-21.33 43.33,-42.67 65,-64 10.67,0 21.33,0 32,0 0,-10.67 0,-21.33 0,-32 21.33,-10.67 42.67,-21.33 64,-32 10.67,0 21.33,0 32,0 -10.67,-11 -21.33,-22 -32,-33 10.67,0 21.33,0 32,0 53.67,-53.33 107.33,-106.67 161,-160 21.33,-11 42.67,-22 64,-33 0,-42.67 0,-85.33 0,-128 10.67,0 21.33,0 32,0 0,-10.67 0,-21.33 0,-32 11,-11 22,-22 33,-33 0,-21.33 0,-42.67 0,-64 10.67,-32 21.33,-64 32,-96 0,-21.67 0,-43.33 0,-65 21.33,-10.67 42.67,-21.33 64,-32 21.33,10.67 42.67,21.33 64,32 11,11 22,22 33,33 32,0 64,0 96,0 0,10.67 0,21.33 0,32 21.33,0 42.67,0 64,0 11,10.67 22,21.33 33,32 10.67,0 21.33,0 32,0 10.67,10.67 21.33,21.33 32,32 0,10.67 0,21.33 0,32 10.67,10.67 21.33,21.33 32,32 10.67,0 21.33,0 32,0 10.67,21.67 21.33,43.33 32,65 10.67,0 21.33,0 32,0 -10.67,10.67 -21.33,21.33 -32,32 0,21.33 0,42.67 0,64 -10.67,21.33 -21.33,42.67 -32,64 10.67,0 21.33,0 32,0 0,11 0,22 0,33 -21.33,10.67 -42.67,21.33 -64,32 10.67,10.67 21.33,21.33 32,32 10.67,0 21.33,0 32,0 -10.67,10.67 -21.33,21.33 -32,32 21.33,0 42.67,0 64,0 -10.67,10.67 -21.33,21.33 -32,32 -32,-10.67 -64,-21.33 -96,-32 -21.33,0 -42.67,0 -64,0 -21.67,21.33 -43.33,42.67 -65,64 10.67,0 21.33,0 32,0 0,11 0,22 0,33 z m 1158,-1512 c 10.67,0 21.33,0 32,0 -10.67,0 -21.33,0 -32,0 z m -933,1319 c 0,-11 0,-22 0,-33 11,11 22,22 33,33 -11,0 -22,0 -33,0 z m -8295,2700 c 10.67,0 21.33,0 32,0 -10.67,0 -21.33,0 -32,0 z m 9839,-4855 c 10.67,0 21.33,0 32,0 -10.67,0 -21.33,0 -32,0 0,10.67 0,21.33 0,32 -10.67,-10.67 -21.33,-21.33 -32,-32 10.67,0 21.33,0 32,0 z m -193,65 c -10.67,0 -21.33,0 -32,0 0,-11 0,-22 0,-33 10.67,0 21.33,0 32,0 0,11 0,22 0,33 z m -3666,1961 c 11,0 22,0 33,0 -11,0 -22,0 -33,0 z m 901,322 c 0,-11 0,-22 0,-33 10.67,0 21.33,0 32,0 0,-10.67 0,-21.33 0,-32 0,21.67 0,43.33 0,65 -10.67,0 -21.33,0 -32,0 z m -6560,2540 c 11,0 22,0 33,0 0,10.67 0,21.33 0,32 -11,0 -22,0 -33,0 0,-10.67 0,-21.33 0,-32 z m 33,96 c 0,-10.67 0,-21.33 0,-32 10.67,0 21.33,0 32,0 0,10.67 0,21.33 0,32 -10.67,0 -21.33,0 -32,0 z m 9678,-4759 c 0,10.67 0,21.33 0,32 0,-10.67 0,-21.33 0,-32 10.67,0 21.33,0 32,0 0,-10.67 0,-21.33 0,-32 0,21.33 0,42.67 0,64 -10.67,-10.67 -21.33,-21.33 -32,-32 z m -4084,1865 c 0,-10.67 0,-21.33 0,-32 10.67,0 21.33,0 32,0 0,10.67 0,21.33 0,32 -10.67,0 -21.33,0 -32,0 z m 2026,-997 c 10.67,-10.67 21.33,-21.33 32,-32 10.67,0 21.33,0 32,0 0,10.67 0,21.33 0,32 -21.33,0 -42.67,0 -64,0 z m -2315,1287 c 0,-10.67 0,-21.33 0,-32 21.33,0 42.67,0 64,0 -10.67,10.67 -21.33,21.33 -32,32 0,10.67 0,21.33 0,32 -10.67,0 -21.33,0 -32,0 0,-10.67 0,-21.33 0,-32 z m 2958,-1447 c 10.67,-10.67 21.33,-21.33 32,-32 10.67,10.67 21.33,21.33 32,32 0,10.67 0,21.33 0,32 -10.67,-10.67 -21.33,-21.33 -32,-32 -10.67,10.67 -21.33,21.33 -32,32 0,-10.67 0,-21.33 0,-32 z m 0,1157 c 21.33,-10.67 42.67,-21.33 64,-32 10.67,-10.67 21.33,-21.33 32,-32 0,10.67 0,21.33 0,32 43,21.33 86,42.67 129,64 -10.67,11 -21.33,22 -32,33 -21.33,-11 -42.67,-22 -64,-33 -21.67,21.67 -43.33,43.33 -65,65 -10.67,-21.67 -21.33,-43.33 -32,-65 -10.67,-10.67 -21.33,-21.33 -32,-32 z m 482,-1318 c 0,-10.67 0,-21.33 0,-32 32.33,10.67 64.67,21.33 97,32 0,10.67 0,21.33 0,32 -32.33,10.67 -64.67,21.33 -97,32 -32,32.33 -64,64.67 -96,97 0,-32.33 0,-64.67 0,-97 -10.67,-10.67 -21.33,-21.33 -32,-32 10.67,-10.67 21.33,-21.33 32,-32 0,-10.67 0,-21.33 0,-32 0,10.67 0,21.33 0,32 10.67,10.67 21.33,21.33 32,32 10.67,0 21.33,0 32,0 10.67,-10.67 21.33,-21.33 32,-32 z"
         style="fill:#999999;fill-opacity:1;stroke:#ffffff;stroke-width:282.23678589;stroke-miterlimit:4;stroke-dasharray:none;stroke-opacity:1" />
    </g>
  </g>
</svg>
