<?xml version="1.0" encoding="UTF-8" standalone="no"?>
<!-- Created with Inkscape (http://www.inkscape.org/) -->

<svg
   xmlns:dc="http://purl.org/dc/elements/1.1/"
   xmlns:cc="http://creativecommons.org/ns#"
   xmlns:rdf="http://www.w3.org/1999/02/22-rdf-syntax-ns#"
   xmlns:svg="http://www.w3.org/2000/svg"
   xmlns="http://www.w3.org/2000/svg"
   xmlns:sodipodi="http://sodipodi.sourceforge.net/DTD/sodipodi-0.dtd"
   xmlns:inkscape="http://www.inkscape.org/namespaces/inkscape"
   width="24.179287mm"
   height="40.932816mm"
   viewBox="0 0 24.179287 40.932816"
   version="1.1"
   id="svg886"
   inkscape:version="0.92.5 (2060ec1f9f, 2020-04-08)"
   sodipodi:docname="to.svg">
  <defs
     id="defs880" />
  <sodipodi:namedview
     id="base"
     pagecolor="#ffffff"
     bordercolor="#666666"
     borderopacity="1.0"
     inkscape:pageopacity="0.0"
     inkscape:pageshadow="2"
     inkscape:zoom="0.35"
     inkscape:cx="319.97884"
     inkscape:cy="91.639064"
     inkscape:document-units="mm"
     inkscape:current-layer="layer1"
     showgrid="false"
     inkscape:window-width="1366"
     inkscape:window-height="704"
     inkscape:window-x="0"
     inkscape:window-y="0"
     inkscape:window-maximized="1" />
  <metadata
     id="metadata883">
    <rdf:RDF>
      <cc:Work
         rdf:about="">
        <dc:format>image/svg+xml</dc:format>
        <dc:type
           rdf:resource="http://purl.org/dc/dcmitype/StillImage" />
        <dc:title></dc:title>
      </cc:Work>
    </rdf:RDF>
  </metadata>
  <g
     inkscape:label="Layer 1"
     inkscape:groupmode="layer"
     id="layer1"
     transform="translate(12.08964,-132.14669)">
    <g
       transform="matrix(9.9994773e-4,0,0,9.9994773e-4,-127.76913,79.661279)"
       id="Tocantins">
      <path
         inkscape:connector-curvature="0"
         style="fill:#999999;fill-opacity:1;stroke:#ffffff;stroke-width:282.23678589;stroke-miterlimit:4;stroke-dasharray:none;stroke-opacity:1"
         d="m 115835,83244 c 21.33,-42.668 42.67,-85.332 64,-128 0,-43 0,-86 0,-129 21.69,-42.78 43.5,-85.5 65.11,-128.319 10.63,-32.227 21.26,-64.454 31.89,-96.681 0,-21.333 0,-42.667 0,-64 10.67,-21.665 21.33,-43.335 32,-65 32,-32 64,-64 96,-96 21.67,-10.666 43.33,-21.334 65,-32 10.85,-64.876 21.35,-129.819 32.41,-194.655 10.53,-42.448 21.06,-84.896 31.59,-127.345 -10.67,-31.999 -21.33,-64.001 -32,-96 -0.1,-21.442 0.11,-42.884 -0.1,-64.326 -10.64,-42.891 -21.28,-85.783 -31.92,-128.674 10.67,-31.999 21.33,-64.001 32,-96 0,-21.667 0,-43.333 0,-65 21.33,-10.668 42.67,-21.332 64,-32 10.67,-31.999 21.33,-64.001 32,-96 32.33,-21.668 64.67,-43.332 97,-65 0,-10.667 0,-21.333 0,-32 10.67,-21.332 21.33,-42.668 32,-64 0,-43 0,-86 0,-129 -10.67,-21.332 -21.33,-42.668 -32,-64 0,-43 0,-86 0,-129 -10.67,-31.999 -21.33,-64.001 -32,-96 10.67,-21.332 21.33,-42.668 32,-64 -21.67,-53.666 -43.33,-107.334 -65,-161 21.76,-32.402 43.38,-64.899 65.24,-97.238 31.92,-31.923 63.84,-63.841 95.76,-95.762 0,-21.667 0,-43.333 0,-65 -10.67,-21.332 -21.33,-42.668 -32,-64 -21.33,-10.668 -42.67,-21.332 -64,-32 0,-53.667 0,-107.333 0,-161 10.67,-21.332 21.33,-42.668 32,-64 0,-10.667 0,-21.333 0,-32 10.67,-10.665 21.33,-21.335 32,-32 21.33,0 42.67,0 64,0 0,-32.333 0,-64.667 0,-97 32.33,-53.668 64.67,-107.332 97,-161 -10.67,-31.999 -21.33,-64.001 -32,-96 0,-21.333 0,-42.667 0,-64 -11,-21.667 -22,-43.333 -33,-65 0,-32 0,-64 0,-96 -32,-21.333 -64,-42.667 -96,-64 0,-21.667 0,-43.333 0,-65 32,-32 64,-64 96,-96 21.7,-32.444 43.51,-64.819 65.15,-97.301 10.62,-21.23 21.23,-42.467 31.85,-63.699 32,0 64,0 96,0 11,-10.667 22,-21.333 33,-32 10.67,-32.332 21.33,-64.668 32,-97 21.33,-32.002 42.67,-63.998 64,-96 -10.67,-32.332 -21.33,-64.668 -32,-97 10.67,-31.999 21.33,-64.001 32,-96 0,-32 0,-64 0,-96 32,-11 64,-22 96,-33 11,0 22,0 33,0 10.67,-10.665 21.33,-21.335 32,-32 -10.67,-31.999 -21.33,-64.001 -32,-96 21.33,-107.334 42.67,-214.666 64,-322 42.67,-21.332 85.33,-42.668 128,-64 11,-21.333 22,-42.667 33,-64 32.07,-21.762 64.23,-43.387 96.24,-65.238 10.59,-10.588 21.17,-21.177 31.76,-31.762 -10.67,-31.999 -21.33,-64.001 -32,-96 0,-10.667 0,-21.333 0,-32 32.33,-75.001 64.67,-149.999 97,-225 10.67,-53.666 21.33,-107.334 32,-161 21.33,-53.668 42.67,-107.332 64,-161 -10.67,-75 -21.33,-150 -32,-225 -10.67,0 -21.33,0 -32,0 0.23,-11.296 -0.48,-22.658 0.38,-33.912 10.53,-53.03 21.08,-106.058 31.62,-159.088 21.33,-43.001 42.67,-85.999 64,-129 21.67,-21.331 43.33,-42.669 65,-64 10.67,-31.999 21.33,-64.001 32,-96 21.33,-21.668 42.67,-43.332 64,-65 43,-21.333 86,-42.667 129,-64 21.33,-21.335 42.67,-42.665 64,-64 10.67,-32.332 21.33,-64.668 32,-97 0,-42.667 0,-85.333 0,-128 21.33,-32.335 42.67,-64.665 64,-97 0,-21.333 0,-42.667 0,-64 21.67,-32.332 43.33,-64.668 65,-97 0,-42.667 0,-85.333 0,-128 32,-64.333 64,-128.667 96,-193 32.33,-32.335 64.67,-64.665 97,-97 0,-21.333 0,-42.667 0,-64 10.67,-10.665 21.33,-21.335 32,-32 21.35,-63.998 42.71,-127.995 63.64,-192.128 3.21,-13.875 5.57,-27.941 8.51,-41.878 7.96,-39.997 15.9,-79.996 23.85,-119.994 64.33,-75.002 128.67,-149.998 193,-225 0,-21.333 0,-42.667 0,-64 10.67,-10.665 21.33,-21.335 32,-32 0,-32.333 0,-64.667 0,-97 21.67,-31.998 43.33,-64.002 65,-96 0,-43 0,-86 0,-129 21.33,-10.668 42.67,-21.332 64,-32 21.39,-42.753 42.82,-85.5 63.66,-128.52 0.78,-5.371 0.12,-11.028 0.34,-16.511 0,-26.656 0,-53.313 0,-79.969 10.67,-21.332 21.33,-42.668 32,-64 21.67,-21.665 43.33,-43.335 65,-65 -11,-32 -22,-64 -33,-96 -21.33,-32.335 -42.67,-64.665 -64,-97 0,-10.667 0,-21.333 0,-32 10.67,0 21.33,0 32,0 0,-42.667 0,-85.333 0,-128 21.67,-74.999 43.33,-150.001 65,-225 42.67,-42.998 85.33,-86.002 128,-129 10.67,-42.999 21.33,-86.001 32,-129 0,-64.333 0,-128.667 0,-193 11,-42.667 22,-85.333 33,-128 0,-10.667 0,-21.333 0,-32 42.42,-43.245 85.05,-86.277 128,-129 32.33,-10.668 64.67,-21.332 97,-32 10.67,-64.333 21.33,-128.667 32,-193 42.67,0 85.33,0 128,0 43,-53.667 86,-107.333 129,-161 53.67,-42.665 107.33,-85.335 161,-128 0,-32.333 0,-64.667 0,-97 10.84,-11.062 22.16,-21.71 32.69,-33.033 42.81,-64.097 85.71,-128.13 128.46,-192.268 21.35,-42.946 43.1,-85.718 64.21,-128.773 10.55,-31.975 21.09,-63.951 31.64,-95.926 0,-21.333 0,-42.667 0,-64 10.67,-32.332 21.33,-64.668 32,-97 85.67,-74.998 171.33,-150.002 257,-225 11.06,-32.097 22.02,-64.229 33.15,-96.301 21.28,-42.9 42.57,-85.798 63.85,-128.699 21.38,-21.442 42.89,-42.757 64.19,-64.28 21.27,-32.238 42.54,-64.48 63.81,-96.72 21.74,-10.764 43.58,-21.329 65.26,-32.219 74.91,-64.261 149.83,-128.519 224.74,-192.781 64.33,-21.334 128.67,-42.666 193,-64 42.67,0 85.33,0 128,0 32.33,-10.668 64.67,-21.332 97,-32 10.75,-21.747 21.36,-43.568 32.2,-65.269 32.42,-43.39 65.16,-86.546 97.37,-130.085 43.84,-65.425 87.37,-131.054 131.41,-196.341 74.61,-106.907 149.47,-213.645 223.92,-320.659 20.37,-30.55 40.74,-61.096 61.1,-91.646 11,-43 22,-86 33,-129 21.33,-21.335 42.67,-42.665 64,-64 10.67,-31.999 21.33,-64.001 32,-96 64.33,-53.669 128.67,-107.331 193,-161 21.33,-32.335 42.67,-64.665 64,-97 0.13,-21.929 -0.26,-43.877 0.19,-65.794 10.61,-95.735 21.21,-191.47 31.81,-287.206 11.07,-22.044 22.54,-43.913 33.36,-66.066 10.55,-31.645 21.09,-63.289 31.64,-94.934 42.67,-64.332 85.33,-128.668 128,-193 11,0 22,0 33,0 42.99,-21.612 86.18,-42.856 129.04,-64.696 32.05,-21.532 64.2,-42.922 96.2,-64.542 21.25,-21.259 42.51,-42.506 63.76,-63.762 21.49,-54.246 43.24,-108.394 64.57,-162.701 10.47,-31.551 21.11,-63.046 31.47,-94.632 10.99,-85.555 21.97,-171.112 32.96,-256.667 58.25,-116.925 116.25,-233.978 174.46,-350.92 6.08,-12.409 12.65,-24.617 18.27,-37.227 10.77,-31.733 21.64,-63.429 32.34,-95.183 10.64,-53.224 21.29,-106.446 31.93,-159.67 -10.67,-32.332 -21.33,-64.668 -32,-97 10.67,-21.332 21.33,-42.668 32,-64 0,-32.333 0,-64.667 0,-97 10.67,-10.665 21.33,-21.335 32,-32 0,-10.667 0,-21.333 0,-32 21.33,-10.668 42.67,-21.332 64,-32 10.67,-21.332 21.33,-42.668 32,-64 0,-75 0,-150 0,-225 -10.67,-53.666 -21.33,-107.334 -32,-161 21.67,-32.332 43.33,-64.668 65,-97 0,-42.667 0,-85.333 0,-128 10.67,-42.999 21.33,-86.001 32,-129 -10.65,-75.114 -21.43,-150.21 -32,-225.336 0,-42.888 0,-85.776 0,-128.664 10.69,-10.791 21.59,-21.383 32.15,-32.301 10.62,-21.23 21.23,-42.467 31.85,-63.699 0,-10.667 0,-21.333 0,-32 -10.67,-21.665 -21.33,-43.335 -32,-65 -21.79,-10.674 -43.49,-21.517 -65.33,-32.081 -42.56,-10.64 -85.11,-21.28 -127.67,-31.919 -32.33,-21.335 -64.67,-42.665 -97,-64 -32,-43 -64,-86 -96,-129 -32.69,-21.675 -65.59,-43.054 -98.14,-64.924 -52.95,-42.694 -105.91,-85.384 -158.86,-128.076 -43,-21.333 -86,-42.667 -129,-64 -21.33,-21.335 -42.67,-42.665 -64,-64 -11.44,-23.671 -23.58,-47.015 -34.55,-70.907 -31.48,-73.032 -62.97,-146.062 -94.45,-219.093 0,-10.667 0,-21.333 0,-32 -32,-64.333 -64,-128.667 -96,-193 0,-32.111 -0.1,-64.222 0,-96.333 10.65,-85.556 21.31,-171.111 31.96,-256.667 21.33,-11.001 42.67,-21.999 64,-33 21.33,-42.668 42.67,-85.332 64,-128 43.09,-53.738 86.1,-107.54 129.24,-161.238 85.59,-85.586 171.17,-171.177 256.76,-256.762 0,-10.667 0,-21.333 0,-32 22.35,-33.16 44.34,-66.564 66.92,-99.558 59.98,-79.861 119.84,-159.814 179.35,-240.022 3.99,-6.496 10.8,-11.643 12.02,-19.459 10.57,-41.32 21.14,-82.641 31.71,-123.961 32,-53.333 64,-106.667 96,-160 10.67,-32.332 21.33,-64.668 32,-97 -10.66,-42.783 -21.45,-85.534 -32.04,-128.334 -10.64,-96.669 -21.38,-193.327 -31.96,-290.002 0,-171.221 0,-342.443 0,-513.664 -21.33,-75.001 -42.67,-149.999 -64,-225 -11,-11 -22,-22 -33,-33 0,-53.333 0,-106.667 0,-160 11,-21.667 22,-43.333 33,-65 32,-32 64,-64 96,-96 10.67,-21.332 21.33,-42.668 32,-64 11.01,-0.234 22.14,0.475 33.08,-0.366 32.3,-11.098 64.76,-21.815 96.97,-33.158 63.98,-31.827 127.97,-63.649 191.95,-95.476 42.67,-42.998 85.33,-86.002 128,-129 64.33,-42.668 128.67,-85.332 193,-128 21.71,-21.777 43.55,-43.428 65.19,-65.28 21.27,-31.905 42.54,-63.813 63.81,-95.72 75,0 150,0 225,0 48.79,-24.386 97.89,-48.18 146.46,-73.002 36.75,-19.096 73.69,-37.808 110.87,-56.053 64.22,-10.649 128.45,-21.296 192.67,-31.945 96.33,0 192.67,0 289,0 53.67,-21.332 107.33,-42.668 161,-64 10.67,0 21.33,0 32,0 21.67,-21.331 43.33,-42.669 65,-64 32,-53.667 64,-107.333 96,-161 85.67,-21.332 171.33,-42.668 257,-64 32.33,-21.668 64.67,-43.332 97,-65 21.33,-42.668 42.67,-85.332 64,-128 0,-43 0,-86 0,-129 -21.33,-64.334 -42.67,-128.666 -64,-193 0,-21.333 0,-42.667 0,-64 10.67,-32.332 21.33,-64.668 32,-97 21.33,-21.335 42.67,-42.665 64,-64 0,-32 0,-64 0,-96 21.76,-32.402 43.38,-64.899 65.24,-97.238 10.61,-10.713 21.43,-21.224 31.91,-32.063 21.28,-42.9 42.57,-85.798 63.85,-128.699 75,-64.333 150,-128.667 225,-193 21.33,-10.668 42.67,-21.332 64,-32 32.33,-32.002 64.67,-63.998 97,-96 11.02,-22.069 21.56,-44.397 32.87,-66.306 21.14,-31.631 42.14,-63.36 63.37,-94.932 10.59,-10.586 21.17,-21.177 31.76,-31.762 86,0 172,0 258,0 32,10.667 64,21.333 96,32 43.11,32.037 86.13,64.192 129.3,96.154 21.23,10.95 42.47,21.896 63.7,32.846 10.67,-10.998 21.33,-22.002 32,-33 10.67,-42.666 21.33,-85.334 32,-128 -10.67,-32.332 -21.33,-64.668 -32,-97 -10.79,-10.691 -21.38,-21.583 -32.3,-32.15 -42.57,-21.283 -85.13,-42.568 -127.7,-63.85 -11,-21.333 -22,-42.667 -33,-64 0,-10.667 0,-21.333 0,-32 11,-11 22,-22 33,-33 -11,-21.333 -22,-42.667 -33,-64 -10.83,-54.011 -21.3,-108.112 -32.36,-162.066 -10.55,-31.645 -21.09,-63.289 -31.64,-94.934 0,-64.333 0,-128.667 0,-193 43,-43 86,-86 129,-129 21.33,-10.668 42.67,-21.332 64,-32 43,10.667 86,21.333 129,32 53.33,-21.334 106.67,-42.666 160,-64 43.21,-32.288 86.69,-64.255 129.74,-96.745 21.08,-21.421 42.17,-42.835 63.26,-64.255 10.67,-31.999 21.33,-64.001 32,-96 0,-21.667 0,-43.333 0,-65 -32,-42.667 -64,-85.333 -96,-128 -43,-10.667 -86,-21.333 -129,-32 -10.67,-10.665 -21.33,-21.335 -32,-32 0,-21.667 0,-43.333 0,-65 11.02,-21.738 21.58,-43.73 32.88,-65.313 21.47,-31.963 42.8,-64.02 64.36,-95.925 21.25,-21.257 42.51,-42.506 63.76,-63.762 21.33,-10.668 42.67,-21.332 64,-32 64.33,-10.668 128.67,-21.332 193,-32 32.33,-21.335 64.67,-42.665 97,-64 0,-43 0,-86 0,-129 -21.67,-32.332 -43.33,-64.668 -65,-97 0,-10.667 0,-21.333 0,-32 -42.67,-42.665 -85.33,-85.335 -128,-128 -21.76,-32.402 -43.38,-64.899 -65.24,-97.238 -10.59,-10.586 -21.17,-21.177 -31.76,-31.762 -0.32,-12.159 0.71,-24.404 -0.64,-36.503 -10.44,-73.612 -21,-147.208 -31.36,-220.833 0,-53.555 0,-107.109 0,-160.664 21.54,-42.899 42.87,-85.897 64,-129 21.67,-10.666 43.33,-21.334 65,-32 75,10.667 150,21.333 225,32 32,-10.667 64,-21.333 96,-32 10.67,0 21.33,0 32,0 11.12,-10.692 22.06,-21.58 33.3,-32.15 21.23,-10.618 42.47,-21.232 63.7,-31.85 21.47,-32.385 43.28,-64.566 64.54,-97.078 36.17,-72.211 72.77,-144.209 108.6,-216.587 6.62,-13.445 13.24,-26.891 19.86,-40.335 0,-53.333 0,-106.667 0,-160 -64.44,-43.039 -128.82,-86.172 -193.3,-129.15 -21.23,-10.618 -42.47,-21.232 -63.7,-31.85 -21.23,-20.38 -42.22,-41.015 -62.69,-62.156 -11.44,-11.615 -22.87,-23.229 -34.31,-34.844 -32.11,-0.04 -64.22,0.09 -96.33,-0.07 -53.56,-10.643 -107.11,-21.29 -160.67,-31.934 -42.53,-21.396 -85.24,-42.46 -127.92,-63.544 -4.86,-3.493 -8.62,-8.387 -13.06,-12.431 -7.06,-7.179 -14.45,-14.082 -21.17,-21.569 -31.91,-42.694 -63.48,-85.673 -95.6,-128.186 -10.75,-10.425 -21.5,-20.847 -32.25,-31.27 0,10.667 0,21.333 0,32 0,-21.333 0,-42.667 0,-64 -21.37,-32.442 -42.84,-64.821 -64.15,-97.301 -10.62,-21.231 -21.23,-42.467 -31.85,-63.699 0,-32 0,-64 0,-96 -31.94,-32.393 -63.72,-64.944 -96,-97 -11,-21.333 -22,-42.667 -33,-64 -21.33,-10.668 -42.67,-21.332 -64,-32 -10.67,0 -21.33,0 -32,0 -10.67,21.332 -21.33,42.668 -32,64 -32.33,-10.668 -64.67,-21.332 -97,-32 -32,10.667 -64,21.333 -96,32 -10.67,0 -21.33,0 -32,0 -10.67,10.665 -21.33,21.335 -32,32 -21.67,0 -43.33,0 -65,0 -10.67,10.665 -21.33,21.335 -32,32 -32,10.667 -64,21.333 -96,32 -22.18,-0.141 -44.38,0.285 -66.55,-0.219 -74.6,-10.581 -149.18,-21.282 -223.79,-31.781 -74.89,0 -149.77,0 -224.66,0 -42.67,-10.666 -85.33,-21.334 -128,-32 -21.67,-42.999 -43.33,-86.001 -65,-129 -11.1,-0.209 -22.28,0.425 -33.33,-0.33 -42.22,-10.557 -84.45,-21.114 -126.67,-31.67 -64.33,0 -128.67,0 -193,0 0,-10.667 0,-21.333 0,-32 -21.67,0 -43.33,0 -65,0 -21.33,-10.668 -42.67,-21.332 -64,-32 -10.67,-10.665 -21.33,-21.335 -32,-32 0,-21.333 0,-42.667 0,-64 21.33,10.668 42.67,21.332 64,32 10.67,-10.665 21.33,-21.335 32,-32 32.33,10.668 64.67,21.332 97,32 10.67,-10.665 21.33,-21.335 32,-32 10.67,-42.999 21.33,-86.001 32,-129 10.79,-10.689 21.38,-21.584 32.3,-32.148 21.57,-10.615 43.13,-21.236 64.7,-31.852 42.67,10.666 85.33,21.334 128,32 21.33,10.668 42.67,21.332 64,32 11,21.333 22,42.667 33,64 32,10.667 64,21.333 96,32 42.76,-42.906 85.99,-85.343 129,-128 21.33,-53.668 42.67,-107.332 64,-161 0,-32 0,-64 0,-96 10.67,-32.332 21.33,-64.668 32,-97 0,-21.333 0,-42.667 0,-64 32.33,-43.002 64.67,-85.998 97,-129 32,-21.333 64,-42.667 96,-64 53.67,10.666 107.33,21.334 161,32 32,-21.333 64,-42.667 96,-64 161,-21.667 322,-43.333 483,-65 21.59,11.296 43.49,22.097 64.89,33.708 53.37,42.429 106.74,84.861 160.11,127.292 42.67,0 85.33,0 128,0 32.44,21.373 64.83,42.831 97.3,64.152 61.37,31.048 122.47,62.645 184.32,92.724 5.57,3.76 11.77,4.816 18.38,4.124 7.33,0 14.67,0 22,0 21.33,21.335 42.67,42.665 64,64 32.43,10.733 64.9,21.336 97.3,32.154 21.23,10.95 42.47,21.896 63.7,32.846 107,10.667 214,21.333 321,32 43,10.667 86,21.333 129,32 53.67,-10.666 107.33,-21.334 161,-32 53.67,-53.665 107.33,-107.335 161,-161 32.11,0.04 64.22,-0.09 96.33,0.07 53.56,10.643 107.11,21.29 160.67,31.934 42.67,0 85.33,0 128,0 75.33,32.334 150.67,64.666 226,97 10.74,21.709 21.86,43.253 32.36,65.066 10.55,31.645 21.09,63.289 31.64,94.934 0,75 0,150 0,225 42.76,53.735 85.43,107.543 128.24,161.236 21.59,21.255 43.17,42.511 64.76,63.764 53.33,0 106.67,0 160,0 43,-10.667 86,-21.333 129,-32 43,0 86,0 129,0 85.67,53.665 171.33,107.335 257,161 32,10.667 64,21.333 96,32 75,64.333 150,128.667 225,193 64.33,21.668 128.67,43.332 193,65 21.67,-10.999 43.33,-22.001 65,-33 10.67,0 21.33,0 32,0 96.33,96.668 192.67,193.332 289,290 21.67,64.332 43.33,128.668 65,193 0,53.333 0,106.667 0,160 10.67,42.999 21.33,86.001 32,129 0,64.333 0,128.667 0,193 -21.97,75.803 -43.68,151.687 -65.82,227.441 -10.4,31.184 -20.78,62.373 -31.18,93.559 21.67,42.999 43.33,86.001 65,129 21.33,21.335 42.67,42.665 64,64 42.67,96.665 85.33,193.335 128,290 11,53.667 22,107.333 33,161 10.67,10.665 21.33,21.335 32,32 0,107 0,214 0,321 -32.33,96.668 -64.67,193.332 -97,290 21.67,31.998 43.33,64.002 65,96 10.67,42.999 21.33,86.001 32,129 0,42.667 0,85.333 0,128 -10.67,42.999 -21.33,86.001 -32,129 11.22,45.752 22.94,91.386 33.82,137.218 20.73,93.594 41.45,187.188 62.18,280.782 21.33,53.668 42.67,107.332 64,161 21.67,31.998 43.33,64.002 65,96 10.67,32.332 21.33,64.668 32,97 0,53.333 0,106.667 0,160 -43,86 -86,172 -129,258 -0.23,11.296 0.48,22.659 -0.38,33.911 -10.84,53.682 -21.3,107.442 -32.36,161.075 -21.1,85.002 -42.18,170.009 -63.26,255.014 -10.67,10.665 -21.33,21.335 -32,32 32,85.667 64,171.333 96,257 -10.67,21.332 -21.33,42.668 -32,64 -10.67,0 -21.33,0 -32,0 -43,64.333 -86,128.667 -129,193 0,21.667 0,43.333 0,65 -10.67,10.665 -21.33,21.335 -32,32 0,85.667 0,171.333 0,257 -21.47,32.376 -43.27,64.553 -64.53,97.053 -32.15,63.986 -64.32,127.963 -96.47,191.947 10.67,32.332 21.33,64.668 32,97 -10.67,10.665 -21.33,21.335 -32,32 0,96.333 0,192.667 0,289 -32,53.667 -64,107.333 -96,161 -21.67,64.332 -43.33,128.668 -65,193 0,10.667 0,21.333 0,32 11,0 22,0 33,0 0.24,10.965 -0.49,22.059 0.37,32.942 21.33,53.828 42.89,107.572 64.09,161.449 10.52,31.867 21.02,63.74 31.54,95.609 -42.81,85.762 -85.99,171.338 -129,257 0,42.667 0,85.333 0,128 -10.74,22.041 -21.85,43.925 -32.36,66.066 -10.55,31.645 -21.09,63.289 -31.64,94.934 0,10.667 0,21.333 0,32 -10.67,21.665 -21.33,43.335 -32,65 -43,42.667 -86,85.333 -129,128 -21.33,10.668 -42.67,21.332 -64,32 -43,53.667 -86,107.333 -129,161 -10.67,42.999 -21.33,86.001 -32,129 -32,42.667 -64,85.333 -96,128 -21.33,11.001 -42.67,21.999 -64,33 -22.04,-11.07 -43.91,-22.537 -66.07,-33.355 -31.64,-10.551 -63.29,-21.096 -94.93,-31.645 -21.67,0 -43.33,0 -65,0 -11.02,10.79 -21.62,22.084 -32.91,32.552 -53.03,32.15 -106.06,64.3 -159.09,96.448 0,64.333 0,128.667 0,193 21.33,21.335 42.67,42.665 64,64 64.33,32.334 128.67,64.666 193,97 32,32 64,64 96,96 32.33,75.001 64.67,149.999 97,225 42.67,0 85.33,0 128,0 32.33,-53.668 64.67,-107.332 97,-161 21.33,-10.668 42.67,-21.332 64,-32 75,0 150,0 225,0 11.06,10.842 21.71,22.153 33.03,32.69 63.99,42.77 127.98,85.54 191.97,128.31 32.38,64.31 64.89,128.555 97,193 -10.67,53.666 -21.33,107.334 -32,161 -43,21.333 -86,42.667 -129,64 0,10.667 0,21.333 0,32 -85.76,32.394 -171.56,64.705 -257.3,97.148 -21.57,10.615 -43.13,21.236 -64.7,31.852 -21.33,42.668 -42.67,85.332 -64,128 43,10.667 86,21.333 129,32 21.71,-10.737 43.25,-21.86 65.07,-32.355 31.64,-10.551 63.29,-21.096 94.93,-31.645 43,0 86,0 129,0 0,21.443 -0.1,42.887 0.1,64.33 10.65,53.556 21.29,107.113 31.93,160.67 21.67,21.665 43.33,43.335 65,65 0,53.333 0,106.667 0,160 10.67,10.665 21.33,21.335 32,32 10.67,0 21.33,0 32,0 10.67,-21.332 21.33,-42.668 32,-64 43,0 86,0 129,0 21.33,21.335 42.67,42.665 64,64 0,11 0,22 0,33 -21.33,21.335 -42.67,42.665 -64,64 0,10.667 0,21.333 0,32 21.33,0 42.67,0 64,0 21.33,10.668 42.67,21.332 64,32 10.67,0 21.33,0 32,0 11,10.667 22,21.333 33,32 -11,21.667 -22,43.333 -33,65 32.33,21.335 64.67,42.665 97,64 0,32 0,64 0,96 -10.67,21.665 -21.33,43.335 -32,65 0,10.667 0,21.333 0,32 10.67,21.332 21.33,42.668 32,64 21.33,10.668 42.67,21.332 64,32 21.33,-21.335 42.67,-42.665 64,-64 0,-10.667 0,-21.333 0,-32 -21.33,0 -42.67,0 -64,0 -10.67,-21.332 -21.33,-42.668 -32,-64 0,-11 0,-22 0,-33 32,0 64,0 96,0 11,21.667 22,43.333 33,65 21.33,10.668 42.67,21.332 64,32 32,32 64,64 96,96 -10.67,10.998 -21.33,22.002 -32,33 -32,0 -64,0 -96,0 10.67,10.665 21.33,21.335 32,32 0,21.333 0,42.667 0,64 53.67,10.666 107.33,21.334 161,32 0,21.333 0,42.667 0,64 -10.67,0 -21.33,0 -32,0 -11,-10.667 -22,-21.333 -33,-32 0,10.667 0,21.333 0,32 11,11 22,22 33,33 -11,10.667 -22,21.333 -33,32 0,21.333 0,42.667 0,64 11,0 22,0 33,0 10.67,10.665 21.33,21.335 32,32 10.67,-10.665 21.33,-21.335 32,-32 21.33,10.668 42.67,21.332 64,32 10.67,-10.665 21.33,-21.335 32,-32 0,21.333 0,42.667 0,64 21.67,0 43.33,0 65,0 0,11 0,22 0,33 -11,21.333 -22,42.667 -33,64 11,-10.667 22,-21.333 33,-32 21.33,0 42.67,0 64,0 -10.67,10.665 -21.33,21.335 -32,32 10.73,32.096 21.35,64.229 32.15,96.301 10.61,21.568 21.23,43.134 31.85,64.699 -10.67,10.665 -21.33,21.335 -32,32 21.33,0 42.67,0 64,0 -21.33,10.668 -42.67,21.332 -64,32 0,10.667 0,21.333 0,32 21.33,0 42.67,0 64,0 0,10.667 0,21.333 0,32 21.67,21.665 43.33,43.335 65,65 21.33,0 42.67,0 64,0 0,10.667 0,21.333 0,32 10.67,0 21.33,0 32,0 0,10.667 0,21.333 0,32 21.33,-10.668 42.67,-21.332 64,-32 0,21.333 0,42.667 0,64 10.67,0 21.33,0 32,0 0,21.333 0,42.667 0,64 32.33,32.335 64.67,64.665 97,97 0,10.667 0,21.333 0,32 21.33,0 42.67,0 64,0 0,53.667 0,107.333 0,161 21.33,-10.668 42.67,-21.332 64,-32 11,0 22,0 33,0 10.67,31.999 21.33,64.001 32,96 10.67,-10.665 21.33,-21.335 32,-32 -10.67,31.999 -21.33,64.001 -32,96 10.67,10.665 21.33,21.335 32,32 10.67,-10.665 21.33,-21.335 32,-32 0,21.667 0,43.333 0,65 -10.67,0 -21.33,0 -32,0 21.33,21.335 42.67,42.665 64,64 -21.33,10.668 -42.67,21.332 -64,32 43,0 86,0 129,0 32,32.333 64,64.667 96,97 0,32 0,64 0,96 21.33,10.668 42.67,21.332 64,32 -10.67,10.665 -21.33,21.335 -32,32 21.67,10.666 43.33,21.334 65,32 0,11 0,22 0,33 32,0 64,0 96,0 0,10.667 0,21.333 0,32 32,0 64,0 96,0 0,10.667 0,21.333 0,32 11,0 22,0 33,0 10.67,-32.332 21.33,-64.668 32,-97 10.67,10.998 21.33,22.002 32,33 0,-11 0,-22 0,-33 32,-10.667 64,-21.333 96,-32 -10.67,-10.665 -21.33,-21.335 -32,-32 21.33,-10.668 42.67,-21.332 64,-32 0,-32 0,-64 0,-96 11,0 22,0 33,0 10.67,-21.665 21.33,-43.335 32,-65 32,0 64,0 96,0 0,-21.333 0,-42.667 0,-64 10.67,0 21.33,0 32,0 11,10.667 22,21.333 33,32 10.67,0 21.33,0 32,0 10.67,-21.332 21.33,-42.668 32,-64 10.67,0 21.33,0 32,0 0,-21.667 0,-43.333 0,-65 21.33,-10.668 42.67,-21.332 64,-32 0,10.667 0,21.333 0,32 10.67,10.998 21.33,22.002 32,33 21.67,-21.665 43.33,-43.335 65,-65 10.67,21.665 21.33,43.335 32,65 10.67,0 21.33,0 32,0 0,-11 0,-22 0,-33 11.01,-0.226 22.13,0.459 33.08,-0.354 31.97,-10.549 63.94,-21.098 95.92,-31.646 10.67,-10.665 21.33,-21.335 32,-32 10.67,10.665 21.33,21.335 32,32 10.67,0 21.33,0 32,0 0,-10.667 0,-21.333 0,-32 10.67,10.665 21.33,21.335 32,32 0,-10.667 0,-21.333 0,-32 21.42,-21.587 43.07,-42.938 65,-64 0,10.667 0,21.333 0,32 10.67,0 21.33,0 32,0 10.67,-31.999 21.33,-64.001 32,-96 10.67,10.665 21.33,21.335 32,32 10.67,-10.665 21.33,-21.335 32,-32 21.67,0 43.33,0 65,0 10.67,-10.998 21.33,-22.002 32,-33 10.67,0 21.33,0 32,0 10.67,-10.665 21.33,-21.335 32,-32 21.33,10.668 42.67,21.332 64,32 32.33,0 64.67,0 97,0 10.67,-21.332 21.33,-42.668 32,-64 10.67,0 21.33,0 32,0 21.33,10.668 42.67,21.332 64,32 11,0 22,0 33,0 21.33,-21.335 42.67,-42.665 64,-64 32,0 64,0 96,0 21.67,10.666 43.33,21.334 65,32 0,10.667 0,21.333 0,32 21.33,0 42.67,0 64,0 10.79,10.692 21.39,21.582 32.3,32.154 21.23,10.947 42.47,21.896 63.7,32.846 0,32 0,64 0,96 64.63,31.644 128.96,63.917 193.27,96.202 42.91,32.263 85.82,64.532 128.73,96.798 10.67,21.332 21.33,42.668 32,64 0,10.667 0,21.333 0,32 10.67,10.998 21.33,22.002 32,33 0,75 0,150 0,225 21.67,21.331 43.33,42.669 65,64 0,21.333 0,42.667 0,64 -11,10.667 -22,21.333 -33,32 -21.33,0 -42.67,0 -64,0 -10.67,21.665 -21.33,43.335 -32,65 0,21.333 0,42.667 0,64 -32.33,85.668 -64.67,171.332 -97,257 0,21.667 0,43.333 0,65 21.67,10.666 43.33,21.334 65,32 21.33,21.335 42.67,42.665 64,64 -32,32 -64,64 -96,96 -11,32.333 -22,64.667 -33,97 11,53.667 22,107.333 33,161 -21.76,32.069 -43.38,64.232 -65.24,96.238 -40.68,40.535 -81.18,81.248 -121.37,122.271 -3.57,3.517 -6.79,7.553 -11.75,9.127 -19.88,9.787 -39.76,19.578 -59.64,29.364 -32,0 -64,0 -96,0 -21.33,10.668 -42.67,21.332 -64,32 -21.67,0 -43.33,0 -65,0 -42.67,-21.332 -85.33,-42.668 -128,-64 -69.14,34.23 -138.2,68.629 -207.27,103.009 -17.63,8.547 -35.03,17.625 -52.86,25.721 -31.29,10.759 -62.58,21.515 -93.87,32.27 -10.67,21.332 -21.33,42.668 -32,64 -10.69,10.791 -21.59,21.383 -32.15,32.301 -10.62,21.233 -21.23,42.467 -31.85,63.699 -11,-10.667 -22,-21.333 -33,-32 -42.67,0 -85.33,0 -128,0 -32.33,-10.668 -64.67,-21.332 -97,-32 0,21.333 0,42.667 0,64 -10.67,0 -21.33,0 -32,0 10.67,21.665 21.33,43.335 32,65 -21.33,10.668 -42.67,21.332 -64,32 -10.67,-10.665 -21.33,-21.335 -32,-32 10.67,31.999 21.33,64.001 32,96 0,21.333 0,42.667 0,64 -10.67,21.665 -21.33,43.335 -32,65 10.67,10.665 21.33,21.335 32,32 -42.95,42.712 -85.32,86.026 -129,128 -10.67,-21.332 -21.33,-42.668 -32,-64 -10.67,10.665 -21.33,21.335 -32,32 0,10.667 0,21.333 0,32 -21.33,0 -42.67,0 -64,0 0,21.667 0,43.333 0,65 10.67,21.332 21.33,42.668 32,64 -10.67,0 -21.33,0 -32,0 10.67,10.665 21.33,21.335 32,32 -10.67,10.665 -21.33,21.335 -32,32 10.67,10.665 21.33,21.335 32,32 -10.67,10.998 -21.33,22.002 -32,33 10.67,10.665 21.33,21.335 32,32 -10.67,0 -21.33,0 -32,0 0,10.667 0,21.333 0,32 -10.67,10.665 -21.33,21.335 -32,32 0,10.667 0,21.333 0,32 -11,10.667 -22,21.333 -33,32 -10.67,-10.665 -21.33,-21.335 -32,-32 0,10.667 0,21.333 0,32 -10.67,0 -21.33,0 -32,0 10.67,10.998 21.33,22.002 32,33 -10.67,0 -21.33,0 -32,0 0,10.667 0,21.333 0,32 -10.67,-10.665 -21.33,-21.335 -32,-32 0,10.667 0,21.333 0,32 -10.67,0 -21.33,0 -32,0 0,-10.667 0,-21.333 0,-32 0,21.333 0,42.667 0,64 -10.67,-10.665 -21.33,-21.335 -32,-32 0,32 0,64 0,96 -10.67,0 -21.33,0 -32,0 -11,-10.667 -22,-21.333 -33,-32 0,10.667 0,21.333 0,32 -10.67,0 -21.33,0 -32,0 10.67,0 21.33,0 32,0 0,10.667 0,21.333 0,32 11,-10.667 22,-21.333 33,-32 10.67,10.665 21.33,21.335 32,32 0,10.667 0,21.333 0,32 -10.67,0 -21.33,0 -32,0 10.67,10.998 21.33,22.002 32,33 -10.67,0 -21.33,0 -32,0 0,10.667 0,21.333 0,32 -11,0 -22,0 -33,0 0,10.667 0,21.333 0,32 -10.67,10.665 -21.33,21.335 -32,32 10.67,10.665 21.33,21.335 32,32 -10.67,10.665 -21.33,21.335 -32,32 21.67,10.666 43.33,21.334 65,32 10.67,0 21.33,0 32,0 -10.67,10.998 -21.33,22.002 -32,33 21.33,0 42.67,0 64,0 -10.67,10.665 -21.33,21.335 -32,32 10.69,10.791 21.59,21.383 32.15,32.301 10.62,21.233 21.23,42.467 31.85,63.699 -10.67,10.665 -21.33,21.335 -32,32 -10.67,0 -21.33,0 -32,0 -21.67,21.665 -43.33,43.335 -65,65 0,32 0,64 0,96 -32,0 -64,0 -96,0 10.67,32.332 21.33,64.668 32,97 10.67,10.665 21.33,21.335 32,32 0,21.333 0,42.667 0,64 10.67,0 21.33,0 32,0 0,10.667 0,21.333 0,32 11,0 22,0 33,0 10.67,32.332 21.33,64.668 32,97 -10.67,10.665 -21.33,21.335 -32,32 0,32 0,64 0,96 -11,10.667 -22,21.333 -33,32 11,11 22,22 33,33 -11,10.667 -22,21.333 -33,32 -10.67,0 -21.33,0 -32,0 0,10.667 0,21.333 0,32 10.67,10.665 21.33,21.335 32,32 -10.67,10.665 -21.33,21.335 -32,32 -32,0 -64,0 -96,0 -32.33,32.335 -64.67,64.665 -97,97 -10.67,-10.665 -21.33,-21.335 -32,-32 -21.33,0 -42.67,0 -64,0 -21.33,10.668 -42.67,21.332 -64,32 10.67,21.332 21.33,42.668 32,64 0,10.667 0,21.333 0,32 10.67,10.665 21.33,21.335 32,32 10.67,0 21.33,0 32,0 10.67,21.665 21.33,43.335 32,65 -21.33,10.668 -42.67,21.332 -64,32 0,10.667 0,21.333 0,32 -21.33,10.668 -42.67,21.332 -64,32 0,10.667 0,21.333 0,32 -21.67,10.666 -43.33,21.334 -65,32 -10.67,0 -21.33,0 -32,0 -10.67,10.998 -21.33,22.002 -32,33 10.67,21.332 21.33,42.668 32,64 0,10.667 0,21.333 0,32 -10.67,10.665 -21.33,21.335 -32,32 0,10.667 0,21.333 0,32 -21.33,0 -42.67,0 -64,0 0,-10.667 0,-21.333 0,-32 0,10.667 0,21.333 0,32 -10.67,21.665 -21.33,43.335 -32,65 0,10.667 0,21.333 0,32 -32.33,0 -64.67,0 -97,0 -10.67,10.665 -21.33,21.335 -32,32 21.33,10.668 42.67,21.332 64,32 10.67,-10.665 21.33,-21.335 32,-32 0,10.667 0,21.333 0,32 11,0 22,0 33,0 0,10.667 0,21.333 0,32 -21.67,10.666 -43.33,21.334 -65,32 0,21.667 0,43.333 0,65 -10.67,0 -21.33,0 -32,0 10.67,10.665 21.33,21.335 32,32 -21.33,0 -42.67,0 -64,0 0,10.667 0,21.333 0,32 32,21.333 64,42.667 96,64 0,-10.667 0,-21.333 0,-32 21.67,0 43.33,0 65,0 21.33,10.668 42.67,21.332 64,32 21.33,-10.668 42.67,-21.332 64,-32 -10.67,21.665 -21.33,43.335 -32,65 21.33,0 42.67,0 64,0 0,-11 0,-22 0,-33 21.67,0 43.33,0 65,0 21.33,11.001 42.67,21.999 64,33 53.67,-21.666 107.33,-43.334 161,-65 32,0 64,0 96,0 10.67,21.665 21.33,43.335 32,65 -10.67,10.665 -21.33,21.335 -32,32 -21.33,0 -42.67,0 -64,0 10.67,10.665 21.33,21.335 32,32 -10.67,0 -21.33,0 -32,0 10.67,10.665 21.33,21.335 32,32 -10.67,10.665 -21.33,21.335 -32,32 10.67,21.332 21.33,42.668 32,64 -10.67,0 -21.33,0 -32,0 10.67,21.665 21.33,43.335 32,65 32.33,0 64.67,0 97,0 21.59,-21.414 42.94,-43.068 64,-65 0,32.333 0,64.667 0,97 11.1,0.208 22.29,-0.424 33.34,0.33 42.55,10.559 85.11,21.113 127.66,31.67 10.69,10.791 21.59,21.383 32.15,32.301 10.62,21.233 21.23,42.467 31.85,63.699 -10.67,32.332 -21.33,64.668 -32,97 0,10.667 0,21.333 0,32 21.33,10.668 42.67,21.332 64,32 21.33,-10.668 42.67,-21.332 64,-32 0,10.667 0,21.333 0,32 11,21.667 22,43.333 33,65 -20.45,39.472 -40.76,79.012 -60.44,118.876 -2.66,4.957 -6.48,9.988 -1,14.429 20.48,30.564 40.96,61.132 61.44,91.695 -21.91,21.083 -43.6,42.395 -65,64 0,10.667 0,21.333 0,32 -21.33,10.668 -42.67,21.332 -64,32 0,21.667 0,43.333 0,65 10.67,21.332 21.33,42.668 32,64 32.33,-10.668 64.67,-21.332 97,-32 10.67,0 21.33,0 32,0 0,21.333 0,42.667 0,64 21.43,32.068 42.72,64.229 64.24,96.239 41.86,42.444 83.38,85.248 126.41,126.52 5.14,5.082 8.27,11.812 12.51,17.633 17.95,27.202 35.89,54.406 53.84,81.608 -10.67,31.999 -21.33,64.001 -32,96 0,10.667 0,21.333 0,32 32,10.667 64,21.333 96,32 0,-10.667 0,-21.333 0,-32 10.79,-10.689 21.38,-21.584 32.3,-32.148 21.57,-10.615 43.13,-21.236 64.7,-31.852 42.67,0 85.33,0 128,0 32.33,-10.668 64.67,-21.332 97,-32 10.67,0 21.33,0 32,0 21.33,21.335 42.67,42.665 64,64 32.33,10.668 64.67,21.332 97,32 -10.69,10.79 -21.58,21.383 -32.15,32.3 -10.94,21.57 -21.9,43.133 -32.85,64.7 0,21.333 0,42.667 0,64 32.88,31.445 64.79,63.872 97,96 21.33,0 42.67,0 64,0 21.33,11.001 42.67,21.999 64,33 11,21.333 22,42.667 33,64 32,-10.667 64,-21.333 96,-32 21.33,10.668 42.67,21.332 64,32 0,21.333 0,42.667 0,64 -21.33,21.335 -42.67,42.665 -64,64 0,11 0,22 0,33 21.33,32.002 42.67,63.998 64,96 0,10.667 0,21.333 0,32 32.33,10.668 64.67,21.332 97,32 0,11 0,22 0,33 -64.44,42.705 -128.82,85.499 -193.3,128.15 -21.23,10.618 -42.47,21.232 -63.7,31.85 0,32.333 0,64.667 0,97 -21.67,31.998 -43.33,64.002 -65,96 0,43 0,86 0,129 -10.67,21.332 -21.33,42.668 -32,64 -64.33,43.002 -128.67,85.998 -193,129 10.67,42.666 21.33,85.334 32,128 0,21.667 0,43.333 0,65 11,10.667 22,21.333 33,32 0,10.667 0,21.333 0,32 75,0 150,0 225,0 32,21.333 64,42.667 96,64 10.67,21.665 21.33,43.335 32,65 -10.67,10.665 -21.33,21.335 -32,32 -10.67,31.999 -21.33,64.001 -32,96 0,10.667 0,21.333 0,32 32,11 64,22 96,33 32.33,0 64.67,0 97,0 42.67,-21.666 85.33,-43.334 128,-65 11,21.667 22,43.333 33,65 21.33,21.335 42.67,42.665 64,64 -10.67,31.999 -21.33,64.001 -32,96 10.67,0 21.33,0 32,0 21.33,21.668 42.67,43.332 64,65 -21.33,10.668 -42.67,21.332 -64,32 0,10.667 0,21.333 0,32 32,10.667 64,21.333 96,32 0,32.333 0,64.667 0,97 -10.67,10.665 -21.33,21.335 -32,32 0,32 0,64 0,96 21.67,21.331 43.33,42.669 65,64 -21.67,21.665 -43.33,43.335 -65,65 10.67,42.666 21.33,85.334 32,128 -10.67,21.665 -21.33,43.335 -32,65 32.33,42.668 64.67,85.332 97,128 0,53.667 0,107.333 0,161 10.67,10.665 21.33,21.335 32,32 10.67,32.332 21.33,64.668 32,97 32,10.667 64,21.333 96,32 11,0 22,0 33,0 53.33,64.335 106.67,128.665 160,193 21.67,74.999 43.33,150.001 65,225 32,10.667 64,21.333 96,32 32.33,21.335 64.67,42.665 97,64 21.33,-21.335 42.67,-42.665 64,-64 21.33,10.668 42.67,21.332 64,32 43.11,-0.04 86.22,0.09 129.33,-0.07 54.53,-10.94 109.15,-21.494 163.63,-32.674 41.68,-10.423 83.36,-20.84 125.04,-31.26 21.33,10.668 42.67,21.332 64,32 22.14,21.491 44.45,42.843 65.81,65.11 31.74,42.612 63.46,85.263 95.19,127.89 43,-10.667 86,-21.333 129,-32 64.33,10.668 128.67,21.332 193,32 75,-53.667 150,-107.333 225,-161 21.33,-10.668 42.67,-21.332 64,-32 10.67,0 21.33,0 32,0 10.67,10.665 21.33,21.335 32,32 11,96.333 22,192.667 33,289 21.33,32.335 42.67,64.665 64,97 10.67,-10.665 21.33,-21.335 32,-32 32.33,-10.668 64.67,-21.332 97,-32 42.67,21.332 85.33,42.668 128,64 34.16,-11.133 68.16,-22.765 102.43,-33.567 73.19,-21.142 146.38,-42.288 219.57,-63.433 64.33,32.334 128.67,64.666 193,97 75,10.667 150,21.333 225,32 75,-43 150,-86 225,-129 21.33,-21.335 42.67,-42.665 64,-64 10.67,-31.999 21.33,-64.001 32,-96 -10.73,-32.429 -21.34,-64.899 -32.15,-97.301 -10.62,-21.233 -21.23,-42.467 -31.85,-63.699 21.33,-32.335 42.67,-64.665 64,-97 10.67,21.665 21.33,43.335 32,65 32.33,0 64.67,0 97,0 0,21.333 0,42.667 0,64 -10.67,10.665 -21.33,21.335 -32,32 10.67,42.999 21.33,86.001 32,129 0,85.667 0,171.333 0,257 -10.69,10.791 -21.59,21.382 -32.15,32.301 -11.01,22.743 -22.63,45.204 -33.24,68.127 -21.51,52.71 -42.7,105.556 -64.41,158.177 -21.06,42.465 -42.14,84.929 -63.2,127.395 -21.33,10.668 -42.67,21.332 -64,32 -64.33,0 -128.67,0 -193,0 -42.69,20.906 -85.25,42.086 -127.78,63.334 -5.86,1.507 -12.29,0.256 -18.38,0.666 -4.63,0.655 -11.89,-1.325 -14.84,1.016 0,21.328 0,42.656 0,63.984 -10.67,21.332 -21.33,42.668 -32,64 21.33,32.002 42.67,63.998 64,96 -10.67,42.999 -21.33,86.001 -32,129 -64.33,0 -128.67,0 -193,0 -32.07,21.429 -64.23,42.718 -96.24,64.238 -21.59,21.584 -43.17,43.176 -64.76,64.762 -10.67,21.332 -21.33,42.668 -32,64 -64.44,43.039 -128.82,86.172 -193.3,129.15 -21.23,10.618 -42.47,21.232 -63.7,31.85 -10.67,31.999 -21.33,64.001 -32,96 -21.67,0 -43.33,0 -65,0 -21.33,10.668 -42.67,21.332 -64,32 -32,0 -64,0 -96,0 -11,10.667 -22,21.333 -33,32 -10.67,42.999 -21.33,86.001 -32,129 -42.67,10.666 -85.33,21.334 -128,32 0,32.333 0,64.667 0,97 -10.79,10.689 -21.38,21.584 -32.3,32.148 -21.57,10.615 -43.13,21.236 -64.7,31.852 -32,-10.667 -64,-21.333 -96,-32 -32.33,32.002 -64.67,63.998 -97,96 -32,0 -64,0 -96,0 -32.33,11.001 -64.67,21.999 -97,33 -10.67,-10.998 -21.33,-22.002 -32,-33 -32,11 -64,22 -96,33 0,10.667 0,21.333 0,32 -43.1,21.137 -86.11,42.444 -129,64 0,10.667 0,21.333 0,32 10.84,11.062 22.16,21.714 32.7,33.036 21.53,32.055 42.92,64.209 64.54,96.202 10.59,10.584 21.17,21.176 31.76,31.762 -0.2,11.1 0.43,22.282 -0.33,33.331 -10.56,42.556 -21.11,85.113 -31.67,127.669 -58.11,38.272 -116.17,76.612 -173.93,115.418 -38.69,25.86 -77.38,51.723 -116.07,77.582 11.01,0.226 22.13,-0.459 33.08,0.354 31.97,10.549 63.94,21.098 95.92,31.646 0,42.667 0,85.333 0,128 -10.67,21.665 -21.33,43.335 -32,65 -64.55,31.563 -128.72,63.883 -193,96 -10.69,10.791 -21.59,21.382 -32.15,32.301 -10.72,22.053 -21.89,43.903 -32.33,66.08 -10.84,31.539 -21.68,63.08 -32.52,94.619 0,10.667 0,21.333 0,32 21.67,42.999 43.33,86.001 65,129 0,10.667 0,21.333 0,32 -53.67,31.999 -107.33,64.001 -161,96 -21.33,32.335 -42.67,64.665 -64,97 -53.67,31.999 -107.33,64.001 -161,96 -10.69,11.122 -21.58,22.061 -32.15,33.299 -10.94,21.237 -21.9,42.467 -32.85,63.701 -32,21.333 -64,42.667 -96,64 -10.67,0 -21.33,0 -32,0 0,32.333 0,64.667 0,97 -32.33,32.002 -64.67,63.998 -97,96 -32,85.667 -64,171.333 -96,257 -10.67,107.333 -21.33,214.667 -32,322 -32.88,54.422 -65.48,109.019 -98.55,163.326 -20.82,31.225 -41.63,62.451 -62.45,93.674 -21.33,0 -42.67,0 -64,0 -128.67,64.332 -257.33,128.668 -386,193 -43,10.667 -86,21.333 -129,32 10.67,21.332 21.33,42.668 32,64 -10.67,32.332 -21.33,64.668 -32,97 -10.67,0 -21.33,0 -32,0 0,21.333 0,42.667 0,64 10.67,10.665 21.33,21.335 32,32 0,21.775 -0.11,43.551 0.1,65.326 10.64,42.557 21.28,85.116 31.92,127.674 21.67,32.332 43.33,64.668 65,97 32,10.667 64,21.333 96,32 10.67,0 21.33,0 32,0 21.67,10.666 43.33,21.334 65,32 0,53.667 0,107.333 0,161 32,21.333 64,42.667 96,64 0,64.333 0,128.667 0,193 10.67,31.999 21.33,64.001 32,96 17.91,18.542 35.77,37.136 54.52,54.835 4.09,3.395 7.29,8.258 11.98,10.665 31.5,10.5 63,21 94.5,31.5 10.67,21.332 21.33,42.668 32,64 53.67,0 107.33,0 161,0 32,10.667 64,21.333 96,32 11,21.667 22,43.333 33,65 10.67,10.665 21.33,21.335 32,32 10.67,0 21.33,0 32,0 21.33,-10.668 42.67,-21.332 64,-32 43,0 86,0 129,0 21.33,10.668 42.67,21.332 64,32 53.67,-10.666 107.33,-21.334 161,-32 43.38,21.406 86.59,43.187 130.07,64.355 31.64,10.545 63.29,21.096 94.93,31.645 10.67,0 21.33,0 32,0 21.33,10.668 42.67,21.332 64,32 21.67,0 43.33,0 65,0 21.33,21.668 42.67,43.332 64,65 0,10.667 0,21.333 0,32 10.67,21.332 21.33,42.668 32,64 42.9,21.534 85.89,42.879 129,64 10.79,-10.691 21.38,-21.583 32.3,-32.15 21.23,-10.618 42.47,-21.232 63.7,-31.85 10.67,21.332 21.33,42.668 32,64 32.33,0 64.67,0 97,0 21.33,-10.668 42.67,-21.332 64,-32 10.67,10.665 21.33,21.335 32,32 32.33,11.001 64.67,21.999 97,33 10.67,0 21.33,0 32,0 10.67,10.665 21.33,21.335 32,32 0,32 0,64 0,96 -75,10.667 -150,21.333 -225,32 -32,10.667 -64,21.333 -96,32 -32.33,-10.668 -64.67,-21.332 -97,-32 -21.33,10.668 -42.67,21.332 -64,32 -53.76,-21.409 -107.57,-42.683 -161.29,-64.172 -53.57,-31.946 -107.14,-63.885 -160.71,-95.828 -32,0 -64,0 -96,0 -21.33,10.668 -42.67,21.332 -64,32 -21.67,-10.666 -43.33,-21.334 -65,-32 -21.33,10.668 -42.67,21.332 -64,32 0,21.333 0,42.667 0,64 10.67,21.332 21.33,42.668 32,64 10.67,10.998 21.33,22.002 32,33 10.67,31.999 21.33,64.001 32,96 0,21.333 0,42.667 0,64 -21.33,11.001 -42.67,21.999 -64,33 -32,53.333 -64,106.667 -96,160 -54.19,21.97 -108.51,43.619 -162.61,65.792 -21.13,10.4 -42.26,20.807 -63.39,31.208 11,10.667 22,21.333 33,32 32,-10.667 64,-21.333 96,-32 21.33,21.335 42.67,42.665 64,64 21.67,10.666 43.33,21.334 65,32 0,10.667 0,21.333 0,32 -21.67,10.999 -43.33,22.001 -65,33 0,10.667 0,21.333 0,32 11,10.667 22,21.333 33,32 -11,21.333 -22,42.667 -33,64 -21.33,10.668 -42.67,21.332 -64,32 0,21.667 0,43.333 0,65 -10.67,10.665 -21.33,21.335 -32,32 -21.33,-10.668 -42.67,-21.332 -64,-32 -11,10.667 -22,21.333 -33,32 11,21.333 22,42.667 33,64 -11,21.333 -22,42.667 -33,64 21.67,32.332 43.33,64.668 65,97 21.33,-10.668 42.67,-21.332 64,-32 32.06,32.277 64.61,64.059 97,96 21.33,0 42.67,0 64,0 43,-21.333 86,-42.667 129,-64 32.09,10.733 64.23,21.342 96.3,32.15 42.8,21.485 85.7,42.778 128.7,63.85 42.67,-10.666 85.33,-21.334 128,-32 21.33,-21.335 42.67,-42.665 64,-64 32.33,0 64.67,0 97,0 10.67,21.332 21.33,42.668 32,64 0,21.333 0,42.667 0,64 -32,32.333 -64,64.667 -96,97 -32.33,0 -64.67,0 -97,0 -53.67,21.332 -107.33,42.668 -161,64 -64,10.667 -128,21.333 -192,32 -21.78,0.05 -43.55,-0.109 -65.33,0.08 -42.56,10.644 -85.11,21.28 -127.67,31.919 -11,21.667 -22,43.333 -33,65 -10.79,10.691 -21.38,21.583 -32.3,32.15 -21.23,10.618 -42.47,21.232 -63.7,31.85 -32.33,32.335 -64.67,64.665 -97,97 0,21.333 0,42.667 0,64 -10.67,0 -21.33,0 -32,0 -21.33,10.668 -42.67,21.332 -64,32 0,21.333 0,42.667 0,64 21.33,21.668 42.67,43.332 64,65 0,10.667 0,21.333 0,32 10.67,10.665 21.33,21.335 32,32 -21.33,10.668 -42.67,21.332 -64,32 10.67,21.332 21.33,42.668 32,64 0,11 0,22 0,33 21.67,10.666 43.33,21.334 65,32 10.67,21.332 21.33,42.668 32,64 -10.67,21.332 -21.33,42.668 -32,64 0,21.667 0,43.333 0,65 -11,32 -22,64 -33,96 0,10.667 0,21.333 0,32 -21.33,10.668 -42.67,21.332 -64,32 10.67,10.998 21.33,22.002 32,33 0,21.333 0,42.667 0,64 -10.67,10.665 -21.33,21.335 -32,32 32.33,10.668 64.67,21.332 97,32 0,21.333 0,42.667 0,64 10.67,10.998 21.33,22.002 32,33 -10.67,31.999 -21.33,64.001 -32,96 -21.67,10.666 -43.33,21.334 -65,32 10.67,0 21.33,0 32,0 21.67,32.332 43.33,64.668 65,97 -10.69,10.79 -21.58,21.389 -32.15,32.299 -10.94,21.237 -21.9,42.467 -32.85,63.701 32.33,10.668 64.67,21.332 97,32 11.01,0.226 22.13,-0.459 33.08,0.354 31.97,10.549 63.94,21.098 95.92,31.646 10.67,0 21.33,0 32,0 0,11 0,22 0,33 -43,10.667 -86,21.333 -129,32 0,21.333 0,42.667 0,64 -10.67,10.665 -21.33,21.335 -32,32 10.67,10.665 21.33,21.335 32,32 10.67,-10.665 21.33,-21.335 32,-32 10.67,21.665 21.33,43.335 32,65 21.67,10.666 43.33,21.334 65,32 10.67,0 21.33,0 32,0 32,21.333 64,42.667 96,64 11,21.333 22,42.667 33,64 -11,10.667 -22,21.333 -33,32 0,21.667 0,43.333 0,65 -10.67,10.665 -21.33,21.335 -32,32 0,10.667 0,21.333 0,32 10.67,10.665 21.33,21.335 32,32 11,-10.667 22,-21.333 33,-32 32,0 64,0 96,0 21.33,21.335 42.67,42.665 64,64 10.67,21.665 21.33,43.335 32,65 0,10.667 0,21.333 0,32 -10.67,21.332 -21.33,42.668 -32,64 0,53.667 0,107.333 0,161 43,10.667 86,21.333 129,32 75.47,-32.126 150.84,-64.511 226.38,-96.474 31.54,-10.844 63.08,-21.685 94.62,-32.526 11,21.667 22,43.333 33,65 -11,21.333 -22,42.667 -33,64 11,21.333 22,42.667 33,64 -11,32.333 -22,64.667 -33,97 -64.33,0 -128.67,0 -193,0 -43.37,10.955 -86.85,21.488 -130.15,32.708 -31.61,10.43 -63.23,20.862 -94.85,31.292 -10.67,0 -21.33,0 -32,0 -10.67,10.665 -21.33,21.335 -32,32 -10.67,32.332 -21.33,64.668 -32,97 -21.33,21.335 -42.67,42.665 -64,64 10.67,21.332 21.33,42.668 32,64 -21.33,53.668 -42.67,107.332 -64,161 21.33,10.668 42.67,21.332 64,32 0,10.667 0,21.333 0,32 21.33,0 42.67,0 64,0 10.67,21.665 21.33,43.335 32,65 -21.33,21.335 -42.67,42.665 -64,64 -21.33,10.668 -42.67,21.332 -64,32 -21.67,32.332 -43.33,64.668 -65,97 11,0 22,0 33,0 0,10.667 0,21.333 0,32 21.33,10.668 42.67,21.332 64,32 10.67,10.665 21.33,21.335 32,32 0,43 0,86 0,129 -21.33,10.668 -42.67,21.332 -64,32 10.67,21.332 21.33,42.668 32,64 0,21.333 0,42.667 0,64 -10.67,10.998 -21.33,22.002 -32,33 0,42.667 0,85.333 0,128 21.44,21.392 42.9,42.786 63.67,64.834 6.86,12.556 12.91,25.647 19.45,38.41 4.29,8.586 8.59,17.171 12.88,25.756 -21.44,21.381 -42.76,42.884 -64.28,64.187 -32.24,21.604 -64.48,43.209 -96.72,64.813 21.67,31.998 43.33,64.002 65,96 -21.22,42.674 -42.73,85.204 -64.29,127.703 -1.61,5.926 -0.29,12.462 -0.71,18.632 0,15.665 0,31.33 -0.1,46.995 -10.65,53.556 -21.29,107.113 -31.93,160.67 32.33,-11.001 64.67,-21.999 97,-33 10.67,-21.332 21.33,-42.668 32,-64 12.16,0.326 24.4,-0.712 36.5,0.64 73.5,10.454 147,20.907 220.5,31.36 32,-21.333 64,-42.667 96,-64 21.67,0 43.33,0 65,0 75,-32 150,-64 225,-96 42.9,21.534 85.89,42.879 129,64 -11.12,10.692 -22.06,21.58 -33.3,32.15 -42.57,21.283 -85.13,42.568 -127.7,63.85 -21.67,-10.666 -43.33,-21.334 -65,-32 -32,10.667 -64,21.333 -96,32 0,10.667 0,21.333 0,32 -21.09,21.909 -42.39,43.607 -64,65 -43,0 -86,0 -129,0 -32,10.667 -64,21.333 -96,32 0,-10.667 0,-21.333 0,-32 -53.67,21.332 -107.33,42.668 -161,64 -10.67,-10.665 -21.33,-21.335 -32,-32 -10.67,10.665 -21.33,21.335 -32,32 -32.33,10.668 -64.67,21.332 -97,32 -43,0 -86,0 -129,0 0,10.667 0,21.333 0,32 -42.67,10.999 -85.33,22.001 -128,33 -21.67,-10.999 -43.33,-22.001 -65,-33 11,-21.333 22,-42.667 33,-64 -11,-10.667 -22,-21.333 -33,-32 11,-10.667 22,-21.333 33,-32 0,-32.333 0,-64.667 0,-97 10.67,-10.665 21.33,-21.335 32,-32 0,-42.667 0,-85.333 0,-128 -10.67,-10.998 -21.33,-22.002 -32,-33 10.67,-10.665 21.33,-21.335 32,-32 -10.67,-10.665 -21.33,-21.335 -32,-32 10.67,-10.665 21.33,-21.335 32,-32 -10.67,0 -21.33,0 -32,0 10.67,-21.332 21.33,-42.668 32,-64 -21.67,-10.666 -43.33,-21.334 -65,-32 0,-21.667 0,-43.333 0,-65 0,10.667 0,21.333 0,32 -10.67,-10.665 -21.33,-21.335 -32,-32 -21.33,10.668 -42.67,21.332 -64,32 -10.67,-10.665 -21.33,-21.335 -32,-32 -10.67,0 -21.33,0 -32,0 0,-32 0,-64 0,-96 -10.67,-10.665 -21.33,-21.335 -32,-32 -21.67,182 -43.33,364 -65,546 -10.67,0 -21.33,0 -32,0 -21.33,21.335 -42.67,42.665 -64,64 0,43 0,86 0,129 -289.45,-0.01 -578.89,0.03 -868.34,-0.02 -182.22,-10.657 -364.44,-21.32 -546.66,-31.98 -107,64.333 -214,128.667 -321,193 -11,0 -22,0 -33,0 11,10.667 22,21.333 33,32 -21.67,10.666 -43.33,21.334 -65,32 0,21.333 0,42.667 0,64 -10.67,0 -21.33,0 -32,0 -10.67,21.665 -21.33,43.335 -32,65 0,10.667 0,21.333 0,32 -10.67,0 -21.33,0 -32,0 0,21.333 0,42.667 0,64 -32.33,10.668 -64.67,21.332 -97,32 0,-21.333 0,-42.667 0,-64 -10.67,10.665 -21.33,21.335 -32,32 0,-21.333 0,-42.667 0,-64 -21.33,0 -42.67,0 -64,0 -10.67,21.332 -21.33,42.668 -32,64 -21.67,10.666 -43.33,21.334 -65,32 -21.33,21.668 -42.67,43.332 -64,65 0,10.667 0,21.333 0,32 -32,10.667 -64,21.333 -96,32 -11,21.333 -22,42.667 -33,64 -21.33,0 -42.67,0 -64,0 -21.33,21.668 -42.67,43.332 -64,65 0,10.667 0,21.333 0,32 -10.67,0 -21.33,0 -32,0 0,-10.667 0,-21.333 0,-32 -32.33,0 -64.67,0 -97,0 0,32 0,64 0,96 -21.33,0 -42.67,0 -64,0 -21.33,10.668 -42.67,21.332 -64,32 -10.67,0 -21.33,0 -32,0 -11.12,10.694 -22.06,21.579 -33.3,32.154 -21.23,10.947 -42.47,21.896 -63.7,32.846 -10.67,-10.998 -21.33,-22.002 -32,-33 0,11 0,22 0,33 -21.33,0 -42.67,0 -64,0 0,21.333 0,42.667 0,64 -11,10.667 -22,21.333 -33,32 0,-10.667 0,-21.333 0,-32 -10.67,-10.665 -21.33,-21.335 -32,-32 -10.67,10.665 -21.33,21.335 -32,32 0,10.667 0,21.333 0,32 -10.67,0 -21.33,0 -32,0 0,-21.333 0,-42.667 0,-64 -10.67,10.665 -21.33,21.335 -32,32 -21.67,0 -43.33,0 -65,0 -21.33,21.335 -42.67,42.665 -64,64 10.67,0 21.33,0 32,0 0,21.333 0,42.667 0,64 -21.33,11.001 -42.67,21.999 -64,33 -21.33,-11.001 -42.67,-21.999 -64,-33 -10.67,10.998 -21.33,22.002 -32,33 -21.67,-10.999 -43.33,-22.001 -65,-33 10.67,-10.665 21.33,-21.335 32,-32 -10.67,-10.665 -21.33,-21.335 -32,-32 -21.33,10.668 -42.67,21.332 -64,32 -21.33,-10.668 -42.67,-21.332 -64,-32 -10.67,10.665 -21.33,21.335 -32,32 -21.67,0 -43.33,0 -65,0 0,10.667 0,21.333 0,32 -32,11 -64,22 -96,33 10.67,31.999 21.33,64.001 32,96 -10.67,10.665 -21.33,21.335 -32,32 -21.67,0 -43.33,0 -65,0 0,21.667 0,43.333 0,65 -10.67,0 -21.33,0 -32,0 -10.67,21.332 -21.33,42.668 -32,64 -21.33,0 -42.67,0 -64,0 10.67,-10.665 21.33,-21.335 32,-32 -10.67,0 -21.33,0 -32,0 0,-10.667 0,-21.333 0,-32 -32.33,0 -64.67,0 -97,0 -10.67,10.665 -21.33,21.335 -32,32 -32,-10.667 -64,-21.333 -96,-32 -21.67,0 -43.33,0 -65,0 -31.94,-32.393 -63.72,-64.944 -96,-97 -10.67,21.332 -21.33,42.668 -32,64 -10.67,0 -21.33,0 -32,0 -10.67,10.998 -21.33,22.002 -32,33 0,21.333 0,42.667 0,64 -32.33,10.668 -64.67,21.332 -97,32 -10.67,31.999 -21.33,64.001 -32,96 -10.67,0 -21.33,0 -32,0 -10.67,-10.665 -21.33,-21.335 -32,-32 0,-21.333 0,-42.667 0,-64 -32.33,-32.002 -64.67,-63.998 -97,-96 10.67,-10.998 21.33,-22.002 32,-33 32.33,-10.668 64.67,-21.332 97,-32 -10.79,-10.689 -21.38,-21.584 -32.3,-32.148 -21.57,-10.615 -43.13,-21.236 -64.7,-31.852 -21.33,10.668 -42.67,21.332 -64,32 -43,-10.667 -86,-21.333 -129,-32 0,-21.333 0,-42.667 0,-64 21.67,-42.999 43.33,-86.001 65,-129 -21.67,0 -43.33,0 -65,0 -21.33,10.668 -42.67,21.332 -64,32 -10.67,0 -21.33,0 -32,0 -21.33,-10.668 -42.67,-21.332 -64,-32 -11,0 -22,0 -33,0 -21.33,10.668 -42.67,21.332 -64,32 -32,-10.667 -64,-21.333 -96,-32 -10.67,-53.666 -21.33,-107.334 -32,-161 10.67,-42.666 21.33,-85.334 32,-128 -10.67,-10.998 -21.33,-22.002 -32,-33 -32.33,0 -64.67,0 -97,0 -43,-21.333 -86,-42.667 -129,-64 -10.67,10.665 -21.33,21.335 -32,32 -10.67,-10.665 -21.33,-21.335 -32,-32 -10.67,21.332 -21.33,42.668 -32,64 -10.67,10.998 -21.33,22.002 -32,33 0,10.667 0,21.333 0,32 -10.67,0 -21.33,0 -32,0 10.67,10.665 21.33,21.335 32,32 0,21.333 0,42.667 0,64 -10.67,0 -21.33,0 -32,0 0,10.667 0,21.333 0,32 -10.67,10.998 -21.33,22.002 -32,33 -21.67,10.666 -43.33,21.334 -65,32 32.33,10.668 64.67,21.332 97,32 -10.67,21.332 -21.33,42.668 -32,64 -11,10.667 -22,21.333 -33,32 11,0 22,0 33,0 -11,10.667 -22,21.333 -33,32 11,11 22,22 33,33 -11,0 -22,0 -33,0 0,10.667 0,21.333 0,32 21.67,10.666 43.33,21.334 65,32 0,10.667 0,21.333 0,32 -10.67,10.665 -21.33,21.335 -32,32 21.33,10.668 42.67,21.332 64,32 0,11 0,22 0,33 10.67,21.332 21.33,42.668 32,64 -21.33,21.335 -42.67,42.665 -64,64 -10.67,0 -21.33,0 -32,0 0,43 0,86 0,129 10.67,21.332 21.33,42.668 32,64 -10.67,10.665 -21.33,21.335 -32,32 10.67,32.332 21.33,64.668 32,97 0,21.333 0,42.667 0,64 21.33,21.335 42.67,42.665 64,64 21.33,0 42.67,0 64,0 0,32.333 0,64.667 0,97 -10.67,10.665 -21.33,21.335 -32,32 -10.67,0 -21.33,0 -32,0 -10.67,21.332 -21.33,42.668 -32,64 -10.69,10.791 -21.59,21.382 -32.15,32.301 -10.62,21.564 -21.23,43.134 -31.85,64.699 -11.02,10.793 -22.26,21.376 -33.15,32.301 -10.69,21.61 -21.77,43.055 -32.21,64.773 -10.55,31.975 -21.09,63.951 -31.64,95.926 -193,-214.333 -386,-428.667 -579,-643 0,-11 0,-22 0,-33 -32,-21.333 -64,-42.667 -96,-64 -32.33,10.668 -64.67,21.332 -97,32 -32,-10.667 -64,-21.333 -96,-32 -10.67,10.665 -21.33,21.335 -32,32 -21.33,0 -42.67,0 -64,0 -11,-10.667 -22,-21.333 -33,-32 0,-10.667 0,-21.333 0,-32 -10.67,10.665 -21.33,21.335 -32,32 -10.67,0 -21.33,0 -32,0 0,-21.333 0,-42.667 0,-64 -10.67,-10.665 -21.33,-21.335 -32,-32 -10.67,0 -21.33,0 -32,0 0,10.667 0,21.333 0,32 0,-10.667 0,-21.333 0,-32 -21.67,0 -43.33,0 -65,0 -10.67,-10.998 -21.33,-22.002 -32,-33 -10.67,32.332 -21.33,64.668 -32,97 -21.33,0 -42.67,0 -64,0 -10.67,10.665 -21.33,21.335 -32,32 -11,-10.667 -22,-21.333 -33,-32 0,-10.667 0,-21.333 0,-32 -10.67,-10.665 -21.33,-21.335 -32,-32 -10.67,-32.332 -21.33,-64.668 -32,-97 -21.33,0 -42.67,0 -64,0 -32.33,10.668 -64.67,21.332 -97,32 -10.67,-21.332 -21.33,-42.668 -32,-64 -10.67,10.665 -21.33,21.335 -32,32 0,-10.667 0,-21.333 0,-32 10.67,-10.665 21.33,-21.335 32,-32 -10.67,-10.665 -21.33,-21.335 -32,-32 -32,0 -64,0 -96,0 0,-32.333 0,-64.667 0,-97 -10.67,10.665 -21.33,21.335 -32,32 0,-10.667 0,-21.333 0,-32 -21.67,10.666 -43.33,21.334 -65,32 0,-10.667 0,-21.333 0,-32 -10.67,10.665 -21.33,21.335 -32,32 10.67,42.999 21.33,86.001 32,129 -10.67,0 -21.33,0 -32,0 0,32 0,64 0,96 -21.33,0 -42.67,0 -64,0 -10.67,10.998 -21.33,22.002 -32,33 -11,-11 -22,-22 -33,-33 -10.67,10.998 -21.33,22.002 -32,33 -10.67,-10.998 -21.33,-22.002 -32,-33 0,11 0,22 0,33 -32,10.667 -64,21.333 -96,32 -11,10.667 -22,21.333 -33,32 -10.67,-10.665 -21.33,-21.335 -32,-32 0,10.667 0,21.333 0,32 -10.67,-10.665 -21.33,-21.335 -32,-32 -10.67,10.665 -21.33,21.335 -32,32 0,-10.667 0,-21.333 0,-32 21.33,-32.335 42.67,-64.665 64,-97 0,-53.333 0,-106.667 0,-160 -10.67,0 -21.33,0 -32,0 -10.67,-10.998 -21.33,-22.002 -32,-33 0,-10.667 0,-21.333 0,-32 21.33,-21.335 42.67,-42.665 64,-64 -10.67,-21.332 -21.33,-42.668 -32,-64 0,-43 0,-86 0,-129 10.67,-10.665 21.33,-21.335 32,-32 0,-21.333 0,-42.667 0,-64 10.67,-10.998 21.33,-22.002 32,-33 0,-10.667 0,-21.333 0,-32 -10.67,10.665 -21.33,21.335 -32,32 -10.67,0 -21.33,0 -32,0 -21.33,-10.668 -42.67,-21.332 -64,-32 -10.67,10.665 -21.33,21.335 -32,32 -10.67,0 -21.33,0 -32,0 -11,11 -22,22 -33,33 0,10.667 0,21.333 0,32 -21.33,10.668 -42.67,21.332 -64,32 -10.67,-10.665 -21.33,-21.335 -32,-32 -10.67,10.665 -21.33,21.335 -32,32 -10.67,-10.665 -21.33,-21.335 -32,-32 -10.67,21.332 -21.33,42.668 -32,64 -11,0 -22,0 -33,0 0,10.667 0,21.333 0,32 -10.67,10.665 -21.33,21.335 -32,32 -21.33,0 -42.67,0 -64,0 0,10.667 0,21.333 0,32 -10.67,0 -21.33,0 -32,0 -10.67,10.998 -21.33,22.002 -32,33 0,-21.667 0,-43.333 0,-65 0,10.667 0,21.333 0,32 -21.67,0 -43.33,0 -65,0 0,32.333 0,64.667 0,97 -32,10.667 -64,21.333 -96,32 10.67,0 21.33,0 32,0 -10.67,0 -21.33,0 -32,0 10.67,0 21.33,0 32,0 0,10.667 0,21.333 0,32 -21.33,0 -42.67,0 -64,0 0,-10.667 0,-21.333 0,-32 -43,0 -86,0 -129,0 10.67,10.665 21.33,21.335 32,32 -10.67,10.665 -21.33,21.335 -32,32 10.67,10.998 21.33,22.002 32,33 -10.67,0 -21.33,0 -32,0 -10.67,-10.998 -21.33,-22.002 -32,-33 -10.67,0 -21.33,0 -32,0 -10.67,10.998 -21.33,22.002 -32,33 -11,0 -22,0 -33,0 0,10.667 0,21.333 0,32 -10.67,0 -21.33,0 -32,0 -10.67,21.332 -21.33,42.668 -32,64 0,-10.667 0,-21.333 0,-32 -10.67,10.665 -21.33,21.335 -32,32 -21.33,0 -42.67,0 -64,0 -21.67,10.666 -43.33,21.334 -65,32 -10.67,-10.665 -21.33,-21.335 -32,-32 -10.67,10.665 -21.33,21.335 -32,32 0,21.333 0,42.667 0,64 -10.67,10.998 -21.33,22.002 -32,33 -10.67,-21.665 -21.33,-43.335 -32,-65 -21.67,0 -43.33,0 -65,0 0,-32 0,-64 0,-96 11,0 22,0 33,0 -11,-10.667 -22,-21.333 -33,-32 0,-10.667 0,-21.333 0,-32 11,0 22,0 33,0 -21.67,-10.999 -43.33,-22.001 -65,-33 0,-10.667 0,-21.333 0,-32 -10.67,0 -21.33,0 -32,0 0,-53.667 0,-107.333 0,-161 -10.67,-10.665 -21.33,-21.335 -32,-32 10.67,-10.665 21.33,-21.335 32,-32 0,-42.667 0,-85.333 0,-128 10.67,0 21.33,0 32,0 -10.67,-32.332 -21.33,-64.668 -32,-97 0,-10.667 0,-21.333 0,-32 -10.67,-10.665 -21.33,-21.335 -32,-32 0,21.333 0,42.667 0,64 -10.67,0 -21.33,0 -32,0 -10.79,-10.689 -21.38,-21.584 -32.3,-32.148 -21.57,-10.615 -43.13,-21.236 -64.7,-31.852 -21.33,21.335 -42.67,42.665 -64,64 0,43 0,86 0,129 -10.67,21.332 -21.33,42.668 -32,64 0,10.667 0,21.333 0,32 -42.9,21.534 -85.89,42.879 -129,64 0,32.333 0,64.667 0,97 10.67,10.665 21.33,21.335 32,32 -10.67,10.665 -21.33,21.335 -32,32 0,32.333 0,64.667 0,97 -10.67,31.999 -21.33,64.001 -32,96 10.67,10.665 21.33,21.335 32,32 0,32.333 0,64.667 0,97 -21.33,21.335 -42.67,42.665 -64,64 -21.33,0 -42.67,0 -64,0 -32.33,-32.002 -64.67,-63.998 -97,-96 10.77,-22.152 21.98,-44.104 32.48,-66.381 10.84,-31.539 21.68,-63.08 32.52,-94.619 0,-10.667 0,-21.333 0,-32 -11,-10.667 -22,-21.333 -33,-32 -10.67,-21.665 -21.33,-43.335 -32,-65 10.67,0 21.33,0 32,0 21.67,-21.331 43.33,-42.669 65,-64 0,-53.667 0,-107.333 0,-161 10.67,0 21.33,0 32,0 -10.67,-10.665 -21.33,-21.335 -32,-32 10.67,-10.665 21.33,-21.335 32,-32 -21.33,-10.668 -42.67,-21.332 -64,-32 0,-21.667 0,-43.333 0,-65 -11,-10.667 -22,-21.333 -33,-32 11,0 22,0 33,0 0,-10.667 0,-21.333 0,-32 10.67,0 21.33,0 32,0 0,-21.333 0,-42.667 0,-64 10.67,-10.665 21.33,-21.335 32,-32 -10.67,-32.332 -21.33,-64.668 -32,-97 -21.67,0 -43.33,0 -65,0 11,-10.667 22,-21.333 33,-32 -11,-21.333 -22,-42.667 -33,-64 0,-10.667 0,-21.333 0,-32 -10.67,0 -21.33,0 -32,0 0,-32.333 0,-64.667 0,-97 -10.67,0 -21.33,0 -32,0 -10.67,-10.665 -21.33,-21.335 -32,-32 -21.33,0 -42.67,0 -64,0 -11,-32.333 -22,-64.667 -33,-97 0,-32 0,-64 0,-96 -32,0 -64,0 -96,0 0,-10.667 0,-21.333 0,-32 -10.67,-10.665 -21.33,-21.335 -32,-32 -10.67,10.665 -21.33,21.335 -32,32 -10.67,-21.332 -21.33,-42.668 -32,-64 -11,0 -22,0 -33,0 0,21.333 0,42.667 0,64 -10.67,0 -21.33,0 -32,0 0,-10.667 0,-21.333 0,-32 -21.33,0 -42.67,0 -64,0 0,10.667 0,21.333 0,32 -10.67,-10.665 -21.33,-21.335 -32,-32 -10.67,10.665 -21.33,21.335 -32,32 -11,-21.333 -22,-42.667 -33,-64 -10.67,0 -21.33,0 -32,0 0,-53.667 0,-107.333 0,-161 -10.67,-21.665 -21.33,-43.335 -32,-65 10.67,-21.332 21.33,-42.668 32,-64 -10.67,-21.332 -21.33,-42.668 -32,-64 -10.67,0 -21.33,0 -32,0 -10.67,-21.332 -21.33,-42.668 -32,-64 -10.67,0 -21.33,0 -32,0 -21.62,-22.575 -43.64,-44.767 -65.98,-66.628 -21.01,-20.788 -42.01,-41.58 -63.02,-62.372 0,10.667 0,21.333 0,32 -10.67,0 -21.33,0 -32,0 0,-21.333 0,-42.667 0,-64 -10.67,0 -21.33,0 -32,0 -10.67,-10.665 -21.33,-21.335 -32,-32 -11,0 -22,0 -33,0 0,-10.667 0,-21.333 0,-32 -10.67,-10.998 -21.33,-22.002 -32,-33 0,-10.667 0,-21.333 0,-32 -10.67,0 -21.33,0 -32,0 -10.67,-10.665 -21.33,-21.335 -32,-32 0,10.667 0,21.333 0,32 -10.67,0 -21.33,0 -32,0 -10.67,-10.665 -21.33,-21.335 -32,-32 10.67,-21.332 21.33,-42.668 32,-64 -10.67,-10.665 -21.33,-21.335 -32,-32 0,-21.667 0,-43.333 0,-65 -21.67,0 -43.33,0 -65,0 -10.67,-10.665 -21.33,-21.335 -32,-32 -10.67,10.665 -21.33,21.335 -32,32 10.67,10.665 21.33,21.335 32,32 -10.67,0 -21.33,0 -32,0 -10.71,11.109 -21.54,22.105 -32.19,33.28 -149.93,224.908 -299.87,449.815 -449.81,674.72 -10.67,-21.665 -21.33,-43.335 -32,-65 -32.33,-21.335 -64.67,-42.665 -97,-64 -10.67,-21.332 -21.33,-42.668 -32,-64 -21.33,-21.335 -42.67,-42.665 -64,-64 -10.67,0 -21.33,0 -32,0 -21.67,10.666 -43.33,21.334 -65,32 -10.67,0 -21.33,0 -32,0 0,-10.667 0,-21.333 0,-32 -43,0 -86,0 -129,0 -10.67,-21.665 -21.33,-43.335 -32,-65 0,-10.667 0,-21.333 0,-32 10.67,0 21.33,0 32,0 -10.67,-10.665 -21.33,-21.335 -32,-32 21.67,-21.331 43.33,-42.669 65,-64 0,-21.667 0,-43.333 0,-65 10.67,-10.665 21.33,-21.335 32,-32 -32.33,0 -64.67,0 -97,0 -21.33,-21.335 -42.67,-42.665 -64,-64 -10.67,0 -21.33,0 -32,0 -21.33,-75.001 -42.67,-149.999 -64,-225 -32.33,21.335 -64.67,42.665 -97,64 -10.67,32.332 -21.33,64.668 -32,97 -10.67,0 -21.33,0 -32,0 -21.44,21.379 -42.76,42.884 -64.28,64.185 -32.31,21.366 -64.71,42.592 -96.96,64.053 -10.59,10.588 -21.17,21.177 -31.76,31.762 0,21.667 0,43.333 0,65 -21.33,10.668 -42.67,21.332 -64,32 -11,10.667 -22,21.333 -33,32 -10.67,-10.665 -21.33,-21.335 -32,-32 -21.33,21.335 -42.67,42.665 -64,64 0,10.667 0,21.333 0,32 -21.33,10.668 -42.67,21.332 -64,32 0,32.333 0,64.667 0,97 -10.67,21.332 -21.33,42.668 -32,64 0,10.667 0,21.333 0,32 -11,0 -22,0 -33,0 -10.69,10.791 -21.59,21.383 -32.15,32.301 -21.28,42.9 -42.57,85.798 -63.85,128.699 0,10.667 0,21.333 0,32 10.67,0 21.33,0 32,0 0,21.667 0,43.333 0,65 -10.67,0 -21.33,0 -32,0 -32.41,53.417 -64.75,106.878 -97.2,160.27 -32.22,43.122 -64.13,86.503 -96.54,129.466 -21.08,21.093 -42.17,42.174 -63.26,63.264 -32.33,64.335 -64.67,128.665 -97,193 0,10.667 0,21.333 0,32 21.67,10.666 43.33,21.334 65,32 0,21.667 0,43.333 0,65 -20.45,39.472 -40.76,79.012 -60.44,118.876 -2.66,4.957 -6.48,9.988 -1,14.429 20.48,30.564 40.96,61.132 61.44,91.695 -11,21.333 -22,42.667 -33,64 11,21.333 22,42.667 33,64 -11,21.667 -22,43.333 -33,65 11,32 22,64 33,96 0,32.333 0,64.667 0,97 -43,32 -86,64 -129,96 -375.79,-214.526 -751.44,-429.314 -1127.03,-644.196 -470.99,-278.269 -941.98,-556.536 -1412.97,-834.804 -10.67,-10.665 -21.33,-21.335 -32,-32 -11.34,-0.227 -22.79,0.46 -34.07,-0.355 -31.64,-10.547 -63.29,-21.096 -94.93,-31.645 -21.33,0 -42.67,0 -64,0 -43,-32.333 -86,-64.667 -129,-97 -10.67,10.665 -21.33,21.335 -32,32 -21.33,-21.335 -42.67,-42.665 -64,-64 -21.67,-10.666 -43.33,-21.334 -65,-32 -32,10.667 -64,21.333 -96,32 -10.67,0 -21.33,0 -32,0 -10.67,-21.332 -21.33,-42.668 -32,-64 -32.33,0 -64.67,0 -97,0 -10.67,-21.332 -21.33,-42.668 -32,-64 -43,0 -86,0 -129,0 -10.67,10.665 -21.33,21.335 -32,32 -21.45,-10.674 -42.82,-21.519 -64.33,-32.083 -42.89,-10.97 -85.78,-21.945 -128.67,-32.917 -10.67,-10.665 -21.33,-21.335 -32,-32 -21.33,10.668 -42.67,21.332 -64,32 -10.67,-10.665 -21.33,-21.335 -32,-32 -10.67,0 -21.33,0 -32,0 0,10.667 0,21.333 0,32 -21.67,-10.666 -43.33,-21.334 -65,-32 0,-10.667 0,-21.333 0,-32 -10.67,0 -21.33,0 -32,0 -10.67,-21.332 -21.33,-42.668 -32,-64 0,10.667 0,21.333 0,32 -21.33,-10.668 -42.67,-21.332 -64,-32 0,-21.333 0,-42.667 0,-64 -11,0 -22,0 -33,0 0,-11 0,-22 0,-33 -10.67,10.998 -21.33,22.002 -32,33 0,-11 0,-22 0,-33 -21.33,0 -42.67,0 -64,0 0,-10.667 0,-21.333 0,-32 -21.33,0 -42.67,0 -64,0 10.67,0 21.33,0 32,0 -21.67,-10.666 -43.33,-21.334 -65,-32 0,10.667 0,21.333 0,32 -10.67,-10.665 -21.33,-21.335 -32,-32 -10.67,0 -21.33,0 -32,0 0,-10.667 0,-21.333 0,-32 -10.67,10.665 -21.33,21.335 -32,32 0,-21.333 0,-42.667 0,-64 -10.67,0 -21.33,0 -32,0 0,-10.667 0,-21.333 0,-32 -10.67,0 -21.33,0 -32,0 0,-21.667 0,-43.333 0,-65 -10.67,-10.665 -21.33,-21.335 -32,-32 10.67,-21.332 21.33,-42.668 32,-64 10.67,-10.665 21.33,-21.335 32,-32 -10.67,-21.665 -21.33,-43.335 -32,-65 21.33,-21.335 42.67,-42.665 64,-64 -10.67,-10.665 -21.33,-21.335 -32,-32 10.67,-10.665 21.33,-21.335 32,-32 -10.67,0 -21.33,0 -32,0 21.33,-10.668 42.67,-21.332 64,-32 0,-32.333 0,-64.667 0,-97 -21.33,-10.668 -42.67,-21.332 -64,-32 10.67,-10.665 21.33,-21.335 32,-32 0,-10.667 0,-21.333 0,-32 -10.67,-21.665 -21.33,-43.335 -32,-65 10.67,-10.665 21.33,-21.335 32,-32 0,21.667 0,43.333 0,65 0,-11 0,-22 0,-33 10.67,0 21.33,0 32,0 10.67,10.998 21.33,22.002 32,33 0,-21.667 0,-43.333 0,-65 10.67,10.665 21.33,21.335 32,32 11,0 22,0 33,0 -11,-10.667 -22,-21.333 -33,-32 11,-21.333 22,-42.667 33,-64 0,-10.667 0,-21.333 0,-32 10.67,-21.665 21.33,-43.335 32,-65 0,-10.667 0,-21.333 0,-32 10.67,-21.332 21.33,-42.668 32,-64 10.67,10.665 21.33,21.335 32,32 10.67,-10.665 21.33,-21.335 32,-32 -10.67,-42.999 -21.33,-86.001 -32,-129 10.67,-31.999 21.33,-64.001 32,-96 10.67,0 21.33,0 32,0 0,10.667 0,21.333 0,32 11,0 22,0 33,0 32,-21.333 64,-42.667 96,-64 0,-10.667 0,-21.333 0,-32 21.33,0 42.67,0 64,0 -21.09,-21.91 -42.39,-43.606 -64,-65 0,10.667 0,21.333 0,32 -10.67,10.998 -21.33,22.002 -32,33 0,-21.667 0,-43.333 0,-65 -21.33,-10.668 -42.67,-21.332 -64,-32 -11,-21.333 -22,-42.667 -33,-64 21.67,-21.331 43.33,-42.669 65,-64 0,-53.667 0,-107.333 0,-161 10.67,0 21.33,0 32,0 10.67,-10.665 21.33,-21.335 32,-32 0,-21.667 0,-43.333 0,-65 10.79,-10.689 21.38,-21.584 32.3,-32.148 21.57,-10.615 43.13,-21.236 64.7,-31.852 10.67,-10.665 21.33,-21.335 32,-32 0,-10.667 0,-21.333 0,-32 21.33,0 42.67,0 64,0 0,-11 0,-22 0,-33 10.67,0 21.33,0 32,0 0,-32 0,-64 0,-96 21.33,-32.002 42.67,-63.998 64,-96 -42.67,21.332 -85.33,42.668 -128,64 0,21.333 0,42.667 0,64 -10.67,10.665 -21.33,21.335 -32,32 -10.67,0 -21.33,0 -32,0 -11,-10.667 -22,-21.333 -33,-32 0,-10.667 0,-21.333 0,-32 -10.67,0 -21.33,0 -32,0 0,10.667 0,21.333 0,32 21.67,10.666 43.33,21.334 65,32 0,10.667 0,21.333 0,32 -21.67,0 -43.33,0 -65,0 -21.33,11.001 -42.67,21.999 -64,33 -10.67,0 -21.33,0 -32,0 21.33,10.668 42.67,21.332 64,32 -32,0 -64,0 -96,0 -11,21.333 -22,42.667 -33,64 -32,0 -64,0 -96,0 -10.67,32.332 -21.33,64.668 -32,97 -43,0 -86,0 -129,0 0,10.667 0,21.333 0,32 -42.67,21.332 -85.33,42.668 -128,64 -11,10.667 -22,21.333 -33,32 0,10.667 0,21.333 0,32 11,11 22,22 33,33 0,10.667 0,21.333 0,32 -21.67,-10.666 -43.33,-21.334 -65,-32 -10.67,0 -21.33,0 -32,0 10.67,21.332 21.33,42.668 32,64 -10.67,10.665 -21.33,21.335 -32,32 -21.33,-10.668 -42.67,-21.332 -64,-32 0,21.333 0,42.667 0,64 -32.33,0 -64.67,0 -97,0 11,10.667 22,21.333 33,32 -11,10.667 -22,21.333 -33,32 0,32.333 0,64.667 0,97 -21.33,0 -42.67,0 -64,0 -21.33,42.668 -42.67,85.332 -64,128 10.67,0 21.33,0 32,0 -10.67,10.998 -21.33,22.002 -32,33 -21.67,10.666 -43.33,21.334 -65,32 -10.67,10.665 -21.33,21.335 -32,32 10.67,31.999 21.33,64.001 32,96 -10.67,10.998 -21.33,22.002 -32,33 -21.33,-11.001 -42.67,-21.999 -64,-33 -21.33,21.668 -42.67,43.332 -64,65 10.67,0 21.33,0 32,0 0,-10.667 0,-21.333 0,-32 10.67,0 21.33,0 32,0 0,10.667 0,21.333 0,32 -10.67,10.665 -21.33,21.335 -32,32 10.67,10.665 21.33,21.335 32,32 -10.67,10.665 -21.33,21.335 -32,32 10.67,21.665 21.33,43.335 32,65 -10.67,10.665 -21.33,21.335 -32,32 -43,0 -86,0 -129,0 0,10.667 0,21.333 0,32 -21.33,10.668 -42.67,21.332 -64,32 0,10.667 0,21.333 0,32 21.33,21.335 42.67,42.665 64,64 -10.79,11.024 -21.37,22.256 -32.3,33.15 -21.23,10.618 -42.47,21.232 -63.7,31.85 0,21.333 0,42.667 0,64 21.33,0 42.67,0 64,0 -10.67,10.665 -21.33,21.335 -32,32 0,21.333 0,42.667 0,64 -10.67,0 -21.33,0 -32,0 -10.67,21.665 -21.33,43.335 -32,65 10.67,42.666 21.33,85.334 32,128 -10.67,0 -21.33,0 -32,0 -11,11 -22,22 -33,33 11,10.667 22,21.333 33,32 -11.33,21.747 -22.29,43.705 -33.87,65.314 -21.04,31.894 -42.09,63.791 -63.13,95.686 0,-21.667 0,-43.333 0,-65 -10.67,-21.332 -21.33,-42.668 -32,-64 -21.33,10.668 -42.67,21.332 -64,32 -53.67,0 -107.33,0 -161,0 -53.67,-21.332 -107.33,-42.668 -161,-64 0,-10.667 0,-21.333 0,-32 32.33,-21.668 64.67,-43.332 97,-65 0,-10.667 0,-21.333 0,-32 -43,0 -86,0 -129,0 -10.67,32.332 -21.33,64.668 -32,97 -10.67,0 -21.33,0 -32,0 -10.67,-10.998 -21.33,-22.002 -32,-33 0,-21.333 0,-42.667 0,-64 21.33,-43.001 42.67,-85.999 64,-129 -32.33,0 -64.67,0 -97,0 11,-21.333 22,-42.667 33,-64 0,-42.667 0,-85.333 0,-128 -21.67,-21.665 -43.33,-43.335 -65,-65 10.67,-31.999 21.33,-64.001 32,-96 -21.33,0 -42.67,0 -64,0 -10.67,-42.999 -21.33,-86.001 -32,-129 10.67,-21.332 21.33,-42.668 32,-64 0,-21.333 0,-42.667 0,-64 -10.67,-10.998 -21.33,-22.002 -32,-33 -75,11 -150,22 -225,33 0,-43 0,-86 0,-129 -10.67,-21.332 -21.33,-42.668 -32,-64 10.67,-21.665 21.33,-43.335 32,-65 10.67,-10.665 21.33,-21.335 32,-32 32,10.667 64,21.333 96,32 11,0 22,0 33,0 0,-21.333 0,-42.667 0,-64 -32.33,-21.335 -64.67,-42.665 -97,-64 10.67,-32.332 21.33,-64.668 32,-97 21.67,-21.331 43.33,-42.669 65,-64 10.67,-53.666 21.33,-107.334 32,-161 21.33,-32.002 42.67,-63.998 64,-96 -10.67,-42.999 -21.33,-86.001 -32,-129 21.33,-10.668 42.67,-21.332 64,-32 21.67,10.666 43.33,21.334 65,32 0.2,-11.1 -0.43,-22.282 0.33,-33.331 10.56,-42.556 21.11,-85.113 31.67,-127.669 -21.67,-10.666 -43.33,-21.334 -65,-32 11,-53.667 22,-107.333 33,-161 -11,-32 -22,-64 -33,-96 -21.33,-32.002 -42.67,-63.998 -64,-96 10.67,-32.332 21.33,-64.668 32,-97 -10.67,-10.665 -21.33,-21.335 -32,-32 0,-43 0,-86 0,-129 21.33,-21.335 42.67,-42.665 64,-64 0,-21.333 0,-42.667 0,-64 -21.33,-32.335 -42.67,-64.665 -64,-97 0,-42.667 0,-85.333 0,-128 -10.67,-10.998 -21.33,-22.002 -32,-33 -43,11 -86,22 -129,33 -10.67,-32.332 -21.33,-64.668 -32,-97 10.67,-21.332 21.33,-42.668 32,-64 0,-53.667 0,-107.333 0,-161 10.67,-21.332 21.33,-42.668 32,-64 0,-32.444 -0.1,-64.887 0.1,-97.331 10.98,-64.223 21.96,-128.446 32.94,-192.669 0,-32 0,-64 0,-96 -32.33,-32.335 -64.67,-64.665 -97,-97 0.23,-11.009 -0.46,-22.127 0.36,-33.066 10.55,-31.645 21.09,-63.289 31.64,-94.934 0,-10.667 0,-21.333 0,-32 -10.67,-10.665 -21.33,-21.335 -32,-32 10.67,-21.665 21.33,-43.335 32,-65 43,-42.667 86,-85.333 129,-128 0,-32.333 0,-64.667 0,-97 -21.33,-32.002 -42.67,-63.998 -64,-96 10.67,-21.665 21.33,-43.335 32,-65 32,-10.667 64,-21.333 96,-32 0,-32 0,-64 0,-96 -32,-32.333 -64,-64.667 -96,-97 -32.33,0 -64.67,0 -97,0 -10.67,-10.665 -21.33,-21.335 -32,-32 0,-53.667 0,-107.333 0,-161 -21.33,-42.668 -42.67,-85.332 -64,-128 -10.67,-53.666 -21.33,-107.334 -32,-161 -21.22,-42.674 -42.73,-85.203 -64.29,-127.703 -1.6,-5.867 -0.28,-12.344 -0.71,-18.455 1.05,-5.694 -2.46,-13.281 2.52,-17.342 52.82,-52.5 105.85,-104.804 158.48,-157.5 21.33,-11.001 42.67,-21.999 64,-33 11,-21.333 22,-42.667 33,-64 10.67,-10.665 21.33,-21.335 32,-32 0,-43 0,-86 0,-129 -10.67,-31.999 -21.33,-64.001 -32,-96 10.67,-21.332 21.33,-42.668 32,-64 0,-43 0,-86 0,-129 -10.67,-10.665 -21.33,-21.335 -32,-32 -32.33,0 -64.67,0 -97,0 -42.67,-10.666 -85.33,-21.334 -128,-32 -11,0 -22,0 -33,0 -32,-64.333 -64,-128.667 -96,-193 10.67,-42.999 21.33,-86.001 32,-129 -10.67,-21.332 -21.33,-42.668 -32,-64 0,-96.667 0,-193.333 0,-290 z"
         id="path54" />
    </g>
  </g>
</svg>
